{
  "name": "Carnival-Or-Manha-De-Carnival-(Jazz-Gitaar-Trio)",
  "bpm": 140,
  "duration": 186.97,
  "ppq": 384,
  "totalNotes": 3475,
  "noteRange": {
    "min": 33,
    "max": 79
  },
  "tracks": [
    {
      "name": "(unnamed)",
      "instrument": "acoustic bass",
      "channel": 1,
      "noteCount": 414
    },
    {
      "name": "(unnamed)",
      "instrument": "electric guitar (jazz)",
      "channel": 2,
      "noteCount": 802
    },
    {
      "name": "DRUMS",
      "instrument": "brush kit",
      "channel": 9,
      "noteCount": 2259
    }
  ],
  "notes": [
    {
      "time": 2.996,
      "duration": 0.446,
      "midi": 64,
      "noteNumber": 64,
      "velocity": 0.87,
      "track": "(unnamed)",
      "channel": 2,
      "lane": "J"
    },
    {
      "time": 3.429,
      "duration": 0.614,
      "midi": 33,
      "noteNumber": 33,
      "velocity": 0.65,
      "track": "(unnamed)",
      "channel": 1,
      "lane": "D"
    },
    {
      "time": 3.429,
      "duration": 0.214,
      "midi": 35,
      "noteNumber": 35,
      "velocity": 0.5,
      "track": "DRUMS",
      "channel": 9,
      "lane": "D"
    },
    {
      "time": 3.429,
      "duration": 0.214,
      "midi": 37,
      "noteNumber": 37,
      "velocity": 0.66,
      "track": "DRUMS",
      "channel": 9,
      "lane": "D"
    },
    {
      "time": 3.429,
      "duration": 0.214,
      "midi": 42,
      "noteNumber": 42,
      "velocity": 0.69,
      "track": "DRUMS",
      "channel": 9,
      "lane": "D"
    },
    {
      "time": 3.429,
      "duration": 0.214,
      "midi": 69,
      "noteNumber": 69,
      "velocity": 0.5,
      "track": "DRUMS",
      "channel": 9,
      "lane": "K"
    },
    {
      "time": 3.44,
      "duration": 0.444,
      "midi": 64,
      "noteNumber": 64,
      "velocity": 0.82,
      "track": "(unnamed)",
      "channel": 2,
      "lane": "J"
    },
    {
      "time": 3.446,
      "duration": 1.056,
      "midi": 72,
      "noteNumber": 72,
      "velocity": 0.99,
      "track": "(unnamed)",
      "channel": 2,
      "lane": "K"
    },
    {
      "time": 3.643,
      "duration": 0.214,
      "midi": 42,
      "noteNumber": 42,
      "velocity": 0.5,
      "track": "DRUMS",
      "channel": 9,
      "lane": "D"
    },
    {
      "time": 3.643,
      "duration": 0.214,
      "midi": 69,
      "noteNumber": 69,
      "velocity": 0.43,
      "track": "DRUMS",
      "channel": 9,
      "lane": "K"
    },
    {
      "time": 3.857,
      "duration": 0.214,
      "midi": 42,
      "noteNumber": 42,
      "velocity": 0.5,
      "track": "DRUMS",
      "channel": 9,
      "lane": "D"
    },
    {
      "time": 3.857,
      "duration": 0.214,
      "midi": 69,
      "noteNumber": 69,
      "velocity": 0.43,
      "track": "DRUMS",
      "channel": 9,
      "lane": "K"
    },
    {
      "time": 4.071,
      "duration": 0.098,
      "midi": 40,
      "noteNumber": 40,
      "velocity": 0.47,
      "track": "(unnamed)",
      "channel": 1,
      "lane": "D"
    },
    {
      "time": 4.071,
      "duration": 0.214,
      "midi": 35,
      "noteNumber": 35,
      "velocity": 0.43,
      "track": "DRUMS",
      "channel": 9,
      "lane": "D"
    },
    {
      "time": 4.071,
      "duration": 0.214,
      "midi": 37,
      "noteNumber": 37,
      "velocity": 0.74,
      "track": "DRUMS",
      "channel": 9,
      "lane": "D"
    },
    {
      "time": 4.071,
      "duration": 0.214,
      "midi": 42,
      "noteNumber": 42,
      "velocity": 0.5,
      "track": "DRUMS",
      "channel": 9,
      "lane": "D"
    },
    {
      "time": 4.071,
      "duration": 0.214,
      "midi": 69,
      "noteNumber": 69,
      "velocity": 0.43,
      "track": "DRUMS",
      "channel": 9,
      "lane": "K"
    },
    {
      "time": 4.286,
      "duration": 0.598,
      "midi": 40,
      "noteNumber": 40,
      "velocity": 0.65,
      "track": "(unnamed)",
      "channel": 1,
      "lane": "D"
    },
    {
      "time": 4.286,
      "duration": 0.214,
      "midi": 35,
      "noteNumber": 35,
      "velocity": 0.5,
      "track": "DRUMS",
      "channel": 9,
      "lane": "D"
    },
    {
      "time": 4.286,
      "duration": 0.214,
      "midi": 42,
      "noteNumber": 42,
      "velocity": 0.58,
      "track": "DRUMS",
      "channel": 9,
      "lane": "D"
    },
    {
      "time": 4.286,
      "duration": 0.214,
      "midi": 69,
      "noteNumber": 69,
      "velocity": 0.5,
      "track": "DRUMS",
      "channel": 9,
      "lane": "K"
    },
    {
      "time": 4.5,
      "duration": 0.214,
      "midi": 42,
      "noteNumber": 42,
      "velocity": 0.5,
      "track": "DRUMS",
      "channel": 9,
      "lane": "D"
    },
    {
      "time": 4.5,
      "duration": 0.214,
      "midi": 69,
      "noteNumber": 69,
      "velocity": 0.43,
      "track": "DRUMS",
      "channel": 9,
      "lane": "K"
    },
    {
      "time": 4.518,
      "duration": 0.263,
      "midi": 62,
      "noteNumber": 62,
      "velocity": 0.77,
      "track": "(unnamed)",
      "channel": 2,
      "lane": "J"
    },
    {
      "time": 4.522,
      "duration": 0.232,
      "midi": 71,
      "noteNumber": 71,
      "velocity": 0.68,
      "track": "(unnamed)",
      "channel": 2,
      "lane": "K"
    },
    {
      "time": 4.714,
      "duration": 0.214,
      "midi": 37,
      "noteNumber": 37,
      "velocity": 0.66,
      "track": "DRUMS",
      "channel": 9,
      "lane": "D"
    },
    {
      "time": 4.714,
      "duration": 0.214,
      "midi": 42,
      "noteNumber": 42,
      "velocity": 0.58,
      "track": "DRUMS",
      "channel": 9,
      "lane": "D"
    },
    {
      "time": 4.714,
      "duration": 0.214,
      "midi": 69,
      "noteNumber": 69,
      "velocity": 0.43,
      "track": "DRUMS",
      "channel": 9,
      "lane": "K"
    },
    {
      "time": 4.886,
      "duration": 0.29,
      "midi": 69,
      "noteNumber": 69,
      "velocity": 0.76,
      "track": "(unnamed)",
      "channel": 2,
      "lane": "K"
    },
    {
      "time": 4.897,
      "duration": 0.275,
      "midi": 60,
      "noteNumber": 60,
      "velocity": 0.76,
      "track": "(unnamed)",
      "channel": 2,
      "lane": "J"
    },
    {
      "time": 4.929,
      "duration": 0.116,
      "midi": 33,
      "noteNumber": 33,
      "velocity": 0.56,
      "track": "(unnamed)",
      "channel": 1,
      "lane": "D"
    },
    {
      "time": 4.929,
      "duration": 0.214,
      "midi": 35,
      "noteNumber": 35,
      "velocity": 0.43,
      "track": "DRUMS",
      "channel": 9,
      "lane": "D"
    },
    {
      "time": 4.929,
      "duration": 0.214,
      "midi": 46,
      "noteNumber": 46,
      "velocity": 0.66,
      "track": "DRUMS",
      "channel": 9,
      "lane": "F"
    },
    {
      "time": 4.929,
      "duration": 0.214,
      "midi": 69,
      "noteNumber": 69,
      "velocity": 0.43,
      "track": "DRUMS",
      "channel": 9,
      "lane": "K"
    },
    {
      "time": 5.143,
      "duration": 0.491,
      "midi": 35,
      "noteNumber": 35,
      "velocity": 0.61,
      "track": "(unnamed)",
      "channel": 1,
      "lane": "D"
    },
    {
      "time": 5.143,
      "duration": 0.214,
      "midi": 35,
      "noteNumber": 35,
      "velocity": 0.5,
      "track": "DRUMS",
      "channel": 9,
      "lane": "D"
    },
    {
      "time": 5.143,
      "duration": 0.214,
      "midi": 42,
      "noteNumber": 42,
      "velocity": 0.58,
      "track": "DRUMS",
      "channel": 9,
      "lane": "D"
    },
    {
      "time": 5.143,
      "duration": 0.214,
      "midi": 69,
      "noteNumber": 69,
      "velocity": 0.5,
      "track": "DRUMS",
      "channel": 9,
      "lane": "K"
    },
    {
      "time": 5.172,
      "duration": 0.596,
      "midi": 60,
      "noteNumber": 60,
      "velocity": 0.68,
      "track": "(unnamed)",
      "channel": 2,
      "lane": "J"
    },
    {
      "time": 5.176,
      "duration": 0.571,
      "midi": 69,
      "noteNumber": 69,
      "velocity": 0.83,
      "track": "(unnamed)",
      "channel": 2,
      "lane": "K"
    },
    {
      "time": 5.357,
      "duration": 0.214,
      "midi": 42,
      "noteNumber": 42,
      "velocity": 0.5,
      "track": "DRUMS",
      "channel": 9,
      "lane": "D"
    },
    {
      "time": 5.357,
      "duration": 0.214,
      "midi": 69,
      "noteNumber": 69,
      "velocity": 0.43,
      "track": "DRUMS",
      "channel": 9,
      "lane": "K"
    },
    {
      "time": 5.571,
      "duration": 0.214,
      "midi": 37,
      "noteNumber": 37,
      "velocity": 0.66,
      "track": "DRUMS",
      "channel": 9,
      "lane": "D"
    },
    {
      "time": 5.571,
      "duration": 0.214,
      "midi": 42,
      "noteNumber": 42,
      "velocity": 0.58,
      "track": "DRUMS",
      "channel": 9,
      "lane": "D"
    },
    {
      "time": 5.571,
      "duration": 0.214,
      "midi": 48,
      "noteNumber": 48,
      "velocity": 0.5,
      "track": "DRUMS",
      "channel": 9,
      "lane": "F"
    },
    {
      "time": 5.571,
      "duration": 0.214,
      "midi": 69,
      "noteNumber": 69,
      "velocity": 0.43,
      "track": "DRUMS",
      "channel": 9,
      "lane": "K"
    },
    {
      "time": 5.786,
      "duration": 0.089,
      "midi": 35,
      "noteNumber": 35,
      "velocity": 0.58,
      "track": "(unnamed)",
      "channel": 1,
      "lane": "D"
    },
    {
      "time": 5.786,
      "duration": 0.214,
      "midi": 35,
      "noteNumber": 35,
      "velocity": 0.5,
      "track": "DRUMS",
      "channel": 9,
      "lane": "D"
    },
    {
      "time": 5.786,
      "duration": 0.214,
      "midi": 42,
      "noteNumber": 42,
      "velocity": 0.58,
      "track": "DRUMS",
      "channel": 9,
      "lane": "D"
    },
    {
      "time": 5.786,
      "duration": 0.214,
      "midi": 69,
      "noteNumber": 69,
      "velocity": 0.5,
      "track": "DRUMS",
      "channel": 9,
      "lane": "K"
    },
    {
      "time": 5.795,
      "duration": 0.324,
      "midi": 68,
      "noteNumber": 68,
      "velocity": 0.94,
      "track": "(unnamed)",
      "channel": 2,
      "lane": "K"
    },
    {
      "time": 5.801,
      "duration": 0.29,
      "midi": 59,
      "noteNumber": 59,
      "velocity": 0.75,
      "track": "(unnamed)",
      "channel": 2,
      "lane": "J"
    },
    {
      "time": 6,
      "duration": 0.545,
      "midi": 40,
      "noteNumber": 40,
      "velocity": 0.63,
      "track": "(unnamed)",
      "channel": 1,
      "lane": "D"
    },
    {
      "time": 6,
      "duration": 0.214,
      "midi": 35,
      "noteNumber": 35,
      "velocity": 0.5,
      "track": "DRUMS",
      "channel": 9,
      "lane": "D"
    },
    {
      "time": 6,
      "duration": 0.214,
      "midi": 42,
      "noteNumber": 42,
      "velocity": 0.58,
      "track": "DRUMS",
      "channel": 9,
      "lane": "D"
    },
    {
      "time": 6,
      "duration": 0.214,
      "midi": 69,
      "noteNumber": 69,
      "velocity": 0.5,
      "track": "DRUMS",
      "channel": 9,
      "lane": "K"
    },
    {
      "time": 6.214,
      "duration": 0.214,
      "midi": 37,
      "noteNumber": 37,
      "velocity": 0.74,
      "track": "DRUMS",
      "channel": 9,
      "lane": "D"
    },
    {
      "time": 6.214,
      "duration": 0.214,
      "midi": 42,
      "noteNumber": 42,
      "velocity": 0.58,
      "track": "DRUMS",
      "channel": 9,
      "lane": "D"
    },
    {
      "time": 6.214,
      "duration": 0.214,
      "midi": 69,
      "noteNumber": 69,
      "velocity": 0.43,
      "track": "DRUMS",
      "channel": 9,
      "lane": "K"
    },
    {
      "time": 6.246,
      "duration": 0.277,
      "midi": 71,
      "noteNumber": 71,
      "velocity": 0.86,
      "track": "(unnamed)",
      "channel": 2,
      "lane": "K"
    },
    {
      "time": 6.257,
      "duration": 0.246,
      "midi": 62,
      "noteNumber": 62,
      "velocity": 0.75,
      "track": "(unnamed)",
      "channel": 2,
      "lane": "J"
    },
    {
      "time": 6.429,
      "duration": 0.214,
      "midi": 42,
      "noteNumber": 42,
      "velocity": 0.58,
      "track": "DRUMS",
      "channel": 9,
      "lane": "D"
    },
    {
      "time": 6.429,
      "duration": 0.214,
      "midi": 45,
      "noteNumber": 45,
      "velocity": 0.5,
      "track": "DRUMS",
      "channel": 9,
      "lane": "F"
    },
    {
      "time": 6.429,
      "duration": 0.214,
      "midi": 69,
      "noteNumber": 69,
      "velocity": 0.43,
      "track": "DRUMS",
      "channel": 9,
      "lane": "K"
    },
    {
      "time": 6.643,
      "duration": 0.109,
      "midi": 40,
      "noteNumber": 40,
      "velocity": 0.46,
      "track": "(unnamed)",
      "channel": 1,
      "lane": "D"
    },
    {
      "time": 6.643,
      "duration": 0.214,
      "midi": 35,
      "noteNumber": 35,
      "velocity": 0.58,
      "track": "DRUMS",
      "channel": 9,
      "lane": "D"
    },
    {
      "time": 6.643,
      "duration": 0.214,
      "midi": 45,
      "noteNumber": 45,
      "velocity": 0.5,
      "track": "DRUMS",
      "channel": 9,
      "lane": "F"
    },
    {
      "time": 6.643,
      "duration": 0.214,
      "midi": 46,
      "noteNumber": 46,
      "velocity": 0.5,
      "track": "DRUMS",
      "channel": 9,
      "lane": "F"
    },
    {
      "time": 6.643,
      "duration": 0.214,
      "midi": 69,
      "noteNumber": 69,
      "velocity": 0.5,
      "track": "DRUMS",
      "channel": 9,
      "lane": "K"
    },
    {
      "time": 6.665,
      "duration": 0.442,
      "midi": 55,
      "noteNumber": 55,
      "velocity": 0.69,
      "track": "(unnamed)",
      "channel": 2,
      "lane": "F"
    },
    {
      "time": 6.667,
      "duration": 0.839,
      "midi": 64,
      "noteNumber": 64,
      "velocity": 0.88,
      "track": "(unnamed)",
      "channel": 2,
      "lane": "J"
    },
    {
      "time": 6.857,
      "duration": 0.598,
      "midi": 33,
      "noteNumber": 33,
      "velocity": 0.57,
      "track": "(unnamed)",
      "channel": 1,
      "lane": "D"
    },
    {
      "time": 6.857,
      "duration": 0.214,
      "midi": 35,
      "noteNumber": 35,
      "velocity": 0.5,
      "track": "DRUMS",
      "channel": 9,
      "lane": "D"
    },
    {
      "time": 6.857,
      "duration": 0.214,
      "midi": 37,
      "noteNumber": 37,
      "velocity": 0.66,
      "track": "DRUMS",
      "channel": 9,
      "lane": "D"
    },
    {
      "time": 6.857,
      "duration": 0.214,
      "midi": 42,
      "noteNumber": 42,
      "velocity": 0.69,
      "track": "DRUMS",
      "channel": 9,
      "lane": "D"
    },
    {
      "time": 6.857,
      "duration": 0.214,
      "midi": 69,
      "noteNumber": 69,
      "velocity": 0.5,
      "track": "DRUMS",
      "channel": 9,
      "lane": "K"
    },
    {
      "time": 7.071,
      "duration": 0.214,
      "midi": 42,
      "noteNumber": 42,
      "velocity": 0.5,
      "track": "DRUMS",
      "channel": 9,
      "lane": "D"
    },
    {
      "time": 7.071,
      "duration": 0.214,
      "midi": 69,
      "noteNumber": 69,
      "velocity": 0.43,
      "track": "DRUMS",
      "channel": 9,
      "lane": "K"
    },
    {
      "time": 7.107,
      "duration": 0.627,
      "midi": 55,
      "noteNumber": 55,
      "velocity": 0.68,
      "track": "(unnamed)",
      "channel": 2,
      "lane": "F"
    },
    {
      "time": 7.286,
      "duration": 0.214,
      "midi": 42,
      "noteNumber": 42,
      "velocity": 0.5,
      "track": "DRUMS",
      "channel": 9,
      "lane": "D"
    },
    {
      "time": 7.286,
      "duration": 0.214,
      "midi": 69,
      "noteNumber": 69,
      "velocity": 0.43,
      "track": "DRUMS",
      "channel": 9,
      "lane": "K"
    },
    {
      "time": 7.306,
      "duration": 0.431,
      "midi": 60,
      "noteNumber": 60,
      "velocity": 0.8,
      "track": "(unnamed)",
      "channel": 2,
      "lane": "J"
    },
    {
      "time": 7.5,
      "duration": 0.103,
      "midi": 39,
      "noteNumber": 39,
      "velocity": 0.44,
      "track": "(unnamed)",
      "channel": 1,
      "lane": "D"
    },
    {
      "time": 7.5,
      "duration": 0.214,
      "midi": 35,
      "noteNumber": 35,
      "velocity": 0.43,
      "track": "DRUMS",
      "channel": 9,
      "lane": "D"
    },
    {
      "time": 7.5,
      "duration": 0.214,
      "midi": 37,
      "noteNumber": 37,
      "velocity": 0.74,
      "track": "DRUMS",
      "channel": 9,
      "lane": "D"
    },
    {
      "time": 7.5,
      "duration": 0.214,
      "midi": 42,
      "noteNumber": 42,
      "velocity": 0.5,
      "track": "DRUMS",
      "channel": 9,
      "lane": "D"
    },
    {
      "time": 7.5,
      "duration": 0.214,
      "midi": 69,
      "noteNumber": 69,
      "velocity": 0.43,
      "track": "DRUMS",
      "channel": 9,
      "lane": "K"
    },
    {
      "time": 7.507,
      "duration": 0.422,
      "midi": 64,
      "noteNumber": 64,
      "velocity": 0.69,
      "track": "(unnamed)",
      "channel": 2,
      "lane": "J"
    },
    {
      "time": 7.714,
      "duration": 0.473,
      "midi": 40,
      "noteNumber": 40,
      "velocity": 0.54,
      "track": "(unnamed)",
      "channel": 1,
      "lane": "D"
    },
    {
      "time": 7.714,
      "duration": 0.214,
      "midi": 35,
      "noteNumber": 35,
      "velocity": 0.5,
      "track": "DRUMS",
      "channel": 9,
      "lane": "D"
    },
    {
      "time": 7.714,
      "duration": 0.214,
      "midi": 42,
      "noteNumber": 42,
      "velocity": 0.58,
      "track": "DRUMS",
      "channel": 9,
      "lane": "D"
    },
    {
      "time": 7.714,
      "duration": 0.214,
      "midi": 69,
      "noteNumber": 69,
      "velocity": 0.5,
      "track": "DRUMS",
      "channel": 9,
      "lane": "K"
    },
    {
      "time": 7.728,
      "duration": 0.473,
      "midi": 54,
      "noteNumber": 54,
      "velocity": 0.75,
      "track": "(unnamed)",
      "channel": 2,
      "lane": "F"
    },
    {
      "time": 7.929,
      "duration": 0.214,
      "midi": 42,
      "noteNumber": 42,
      "velocity": 0.5,
      "track": "DRUMS",
      "channel": 9,
      "lane": "D"
    },
    {
      "time": 7.929,
      "duration": 0.214,
      "midi": 69,
      "noteNumber": 69,
      "velocity": 0.43,
      "track": "DRUMS",
      "channel": 9,
      "lane": "K"
    },
    {
      "time": 8.143,
      "duration": 0.214,
      "midi": 37,
      "noteNumber": 37,
      "velocity": 0.66,
      "track": "DRUMS",
      "channel": 9,
      "lane": "D"
    },
    {
      "time": 8.143,
      "duration": 0.214,
      "midi": 42,
      "noteNumber": 42,
      "velocity": 0.58,
      "track": "DRUMS",
      "channel": 9,
      "lane": "D"
    },
    {
      "time": 8.143,
      "duration": 0.214,
      "midi": 69,
      "noteNumber": 69,
      "velocity": 0.43,
      "track": "DRUMS",
      "channel": 9,
      "lane": "K"
    },
    {
      "time": 8.163,
      "duration": 0.373,
      "midi": 64,
      "noteNumber": 64,
      "velocity": 0.65,
      "track": "(unnamed)",
      "channel": 2,
      "lane": "J"
    },
    {
      "time": 8.357,
      "duration": 0.092,
      "midi": 33,
      "noteNumber": 33,
      "velocity": 0.58,
      "track": "(unnamed)",
      "channel": 1,
      "lane": "D"
    },
    {
      "time": 8.357,
      "duration": 0.214,
      "midi": 35,
      "noteNumber": 35,
      "velocity": 0.43,
      "track": "DRUMS",
      "channel": 9,
      "lane": "D"
    },
    {
      "time": 8.357,
      "duration": 0.214,
      "midi": 46,
      "noteNumber": 46,
      "velocity": 0.66,
      "track": "DRUMS",
      "channel": 9,
      "lane": "F"
    },
    {
      "time": 8.357,
      "duration": 0.214,
      "midi": 69,
      "noteNumber": 69,
      "velocity": 0.43,
      "track": "DRUMS",
      "channel": 9,
      "lane": "K"
    },
    {
      "time": 8.571,
      "duration": 0.455,
      "midi": 35,
      "noteNumber": 35,
      "velocity": 0.6,
      "track": "(unnamed)",
      "channel": 1,
      "lane": "D"
    },
    {
      "time": 8.571,
      "duration": 0.214,
      "midi": 35,
      "noteNumber": 35,
      "velocity": 0.5,
      "track": "DRUMS",
      "channel": 9,
      "lane": "D"
    },
    {
      "time": 8.571,
      "duration": 0.214,
      "midi": 42,
      "noteNumber": 42,
      "velocity": 0.58,
      "track": "DRUMS",
      "channel": 9,
      "lane": "D"
    },
    {
      "time": 8.571,
      "duration": 0.214,
      "midi": 69,
      "noteNumber": 69,
      "velocity": 0.5,
      "track": "DRUMS",
      "channel": 9,
      "lane": "K"
    },
    {
      "time": 8.589,
      "duration": 0.634,
      "midi": 57,
      "noteNumber": 57,
      "velocity": 0.7,
      "track": "(unnamed)",
      "channel": 2,
      "lane": "J"
    },
    {
      "time": 8.786,
      "duration": 0.214,
      "midi": 42,
      "noteNumber": 42,
      "velocity": 0.5,
      "track": "DRUMS",
      "channel": 9,
      "lane": "D"
    },
    {
      "time": 8.786,
      "duration": 0.214,
      "midi": 69,
      "noteNumber": 69,
      "velocity": 0.43,
      "track": "DRUMS",
      "channel": 9,
      "lane": "K"
    },
    {
      "time": 8.812,
      "duration": 0.85,
      "midi": 62,
      "noteNumber": 62,
      "velocity": 0.67,
      "track": "(unnamed)",
      "channel": 2,
      "lane": "J"
    },
    {
      "time": 9,
      "duration": 0.214,
      "midi": 37,
      "noteNumber": 37,
      "velocity": 0.66,
      "track": "DRUMS",
      "channel": 9,
      "lane": "D"
    },
    {
      "time": 9,
      "duration": 0.214,
      "midi": 42,
      "noteNumber": 42,
      "velocity": 0.58,
      "track": "DRUMS",
      "channel": 9,
      "lane": "D"
    },
    {
      "time": 9,
      "duration": 0.214,
      "midi": 48,
      "noteNumber": 48,
      "velocity": 0.5,
      "track": "DRUMS",
      "channel": 9,
      "lane": "F"
    },
    {
      "time": 9,
      "duration": 0.214,
      "midi": 69,
      "noteNumber": 69,
      "velocity": 0.43,
      "track": "DRUMS",
      "channel": 9,
      "lane": "K"
    },
    {
      "time": 9.022,
      "duration": 0.625,
      "midi": 64,
      "noteNumber": 64,
      "velocity": 0.6,
      "track": "(unnamed)",
      "channel": 2,
      "lane": "J"
    },
    {
      "time": 9.214,
      "duration": 0.098,
      "midi": 35,
      "noteNumber": 35,
      "velocity": 0.57,
      "track": "(unnamed)",
      "channel": 1,
      "lane": "D"
    },
    {
      "time": 9.214,
      "duration": 0.214,
      "midi": 35,
      "noteNumber": 35,
      "velocity": 0.5,
      "track": "DRUMS",
      "channel": 9,
      "lane": "D"
    },
    {
      "time": 9.214,
      "duration": 0.214,
      "midi": 42,
      "noteNumber": 42,
      "velocity": 0.58,
      "track": "DRUMS",
      "channel": 9,
      "lane": "D"
    },
    {
      "time": 9.214,
      "duration": 0.214,
      "midi": 69,
      "noteNumber": 69,
      "velocity": 0.5,
      "track": "DRUMS",
      "channel": 9,
      "lane": "K"
    },
    {
      "time": 9.223,
      "duration": 0.176,
      "midi": 57,
      "noteNumber": 57,
      "velocity": 0.7,
      "track": "(unnamed)",
      "channel": 2,
      "lane": "J"
    },
    {
      "time": 9.429,
      "duration": 0.467,
      "midi": 40,
      "noteNumber": 40,
      "velocity": 0.55,
      "track": "(unnamed)",
      "channel": 1,
      "lane": "D"
    },
    {
      "time": 9.429,
      "duration": 0.214,
      "midi": 35,
      "noteNumber": 35,
      "velocity": 0.5,
      "track": "DRUMS",
      "channel": 9,
      "lane": "D"
    },
    {
      "time": 9.429,
      "duration": 0.214,
      "midi": 42,
      "noteNumber": 42,
      "velocity": 0.58,
      "track": "DRUMS",
      "channel": 9,
      "lane": "D"
    },
    {
      "time": 9.429,
      "duration": 0.214,
      "midi": 69,
      "noteNumber": 69,
      "velocity": 0.5,
      "track": "DRUMS",
      "channel": 9,
      "lane": "K"
    },
    {
      "time": 9.433,
      "duration": 0.714,
      "midi": 56,
      "noteNumber": 56,
      "velocity": 0.76,
      "track": "(unnamed)",
      "channel": 2,
      "lane": "F"
    },
    {
      "time": 9.643,
      "duration": 0.214,
      "midi": 37,
      "noteNumber": 37,
      "velocity": 0.74,
      "track": "DRUMS",
      "channel": 9,
      "lane": "D"
    },
    {
      "time": 9.643,
      "duration": 0.214,
      "midi": 42,
      "noteNumber": 42,
      "velocity": 0.58,
      "track": "DRUMS",
      "channel": 9,
      "lane": "D"
    },
    {
      "time": 9.643,
      "duration": 0.214,
      "midi": 69,
      "noteNumber": 69,
      "velocity": 0.43,
      "track": "DRUMS",
      "channel": 9,
      "lane": "K"
    },
    {
      "time": 9.665,
      "duration": 0.482,
      "midi": 64,
      "noteNumber": 64,
      "velocity": 0.65,
      "track": "(unnamed)",
      "channel": 2,
      "lane": "J"
    },
    {
      "time": 9.672,
      "duration": 0.453,
      "midi": 62,
      "noteNumber": 62,
      "velocity": 0.69,
      "track": "(unnamed)",
      "channel": 2,
      "lane": "J"
    },
    {
      "time": 9.857,
      "duration": 0.214,
      "midi": 42,
      "noteNumber": 42,
      "velocity": 0.58,
      "track": "DRUMS",
      "channel": 9,
      "lane": "D"
    },
    {
      "time": 9.857,
      "duration": 0.214,
      "midi": 69,
      "noteNumber": 69,
      "velocity": 0.43,
      "track": "DRUMS",
      "channel": 9,
      "lane": "K"
    },
    {
      "time": 10.071,
      "duration": 0.098,
      "midi": 40,
      "noteNumber": 40,
      "velocity": 0.57,
      "track": "(unnamed)",
      "channel": 1,
      "lane": "D"
    },
    {
      "time": 10.071,
      "duration": 0.214,
      "midi": 35,
      "noteNumber": 35,
      "velocity": 0.58,
      "track": "DRUMS",
      "channel": 9,
      "lane": "D"
    },
    {
      "time": 10.071,
      "duration": 0.214,
      "midi": 46,
      "noteNumber": 46,
      "velocity": 0.5,
      "track": "DRUMS",
      "channel": 9,
      "lane": "F"
    },
    {
      "time": 10.071,
      "duration": 0.214,
      "midi": 69,
      "noteNumber": 69,
      "velocity": 0.5,
      "track": "DRUMS",
      "channel": 9,
      "lane": "K"
    },
    {
      "time": 10.286,
      "duration": 0.585,
      "midi": 33,
      "noteNumber": 33,
      "velocity": 0.57,
      "track": "(unnamed)",
      "channel": 1,
      "lane": "D"
    },
    {
      "time": 10.286,
      "duration": 0.214,
      "midi": 35,
      "noteNumber": 35,
      "velocity": 0.5,
      "track": "DRUMS",
      "channel": 9,
      "lane": "D"
    },
    {
      "time": 10.286,
      "duration": 0.214,
      "midi": 37,
      "noteNumber": 37,
      "velocity": 0.66,
      "track": "DRUMS",
      "channel": 9,
      "lane": "D"
    },
    {
      "time": 10.286,
      "duration": 0.214,
      "midi": 42,
      "noteNumber": 42,
      "velocity": 0.69,
      "track": "DRUMS",
      "channel": 9,
      "lane": "D"
    },
    {
      "time": 10.286,
      "duration": 0.214,
      "midi": 69,
      "noteNumber": 69,
      "velocity": 0.5,
      "track": "DRUMS",
      "channel": 9,
      "lane": "K"
    },
    {
      "time": 10.308,
      "duration": 1.071,
      "midi": 64,
      "noteNumber": 64,
      "velocity": 0.79,
      "track": "(unnamed)",
      "channel": 2,
      "lane": "J"
    },
    {
      "time": 10.321,
      "duration": 1.036,
      "midi": 72,
      "noteNumber": 72,
      "velocity": 0.99,
      "track": "(unnamed)",
      "channel": 2,
      "lane": "K"
    },
    {
      "time": 10.5,
      "duration": 0.214,
      "midi": 42,
      "noteNumber": 42,
      "velocity": 0.5,
      "track": "DRUMS",
      "channel": 9,
      "lane": "D"
    },
    {
      "time": 10.5,
      "duration": 0.214,
      "midi": 69,
      "noteNumber": 69,
      "velocity": 0.43,
      "track": "DRUMS",
      "channel": 9,
      "lane": "K"
    },
    {
      "time": 10.714,
      "duration": 0.214,
      "midi": 42,
      "noteNumber": 42,
      "velocity": 0.5,
      "track": "DRUMS",
      "channel": 9,
      "lane": "D"
    },
    {
      "time": 10.714,
      "duration": 0.214,
      "midi": 69,
      "noteNumber": 69,
      "velocity": 0.43,
      "track": "DRUMS",
      "channel": 9,
      "lane": "K"
    },
    {
      "time": 10.929,
      "duration": 0.109,
      "midi": 40,
      "noteNumber": 40,
      "velocity": 0.55,
      "track": "(unnamed)",
      "channel": 1,
      "lane": "D"
    },
    {
      "time": 10.929,
      "duration": 0.214,
      "midi": 35,
      "noteNumber": 35,
      "velocity": 0.43,
      "track": "DRUMS",
      "channel": 9,
      "lane": "D"
    },
    {
      "time": 10.929,
      "duration": 0.214,
      "midi": 37,
      "noteNumber": 37,
      "velocity": 0.74,
      "track": "DRUMS",
      "channel": 9,
      "lane": "D"
    },
    {
      "time": 10.929,
      "duration": 0.214,
      "midi": 46,
      "noteNumber": 46,
      "velocity": 0.5,
      "track": "DRUMS",
      "channel": 9,
      "lane": "F"
    },
    {
      "time": 10.929,
      "duration": 0.214,
      "midi": 69,
      "noteNumber": 69,
      "velocity": 0.43,
      "track": "DRUMS",
      "channel": 9,
      "lane": "K"
    },
    {
      "time": 11.143,
      "duration": 0.471,
      "midi": 40,
      "noteNumber": 40,
      "velocity": 0.56,
      "track": "(unnamed)",
      "channel": 1,
      "lane": "D"
    },
    {
      "time": 11.143,
      "duration": 0.214,
      "midi": 35,
      "noteNumber": 35,
      "velocity": 0.5,
      "track": "DRUMS",
      "channel": 9,
      "lane": "D"
    },
    {
      "time": 11.143,
      "duration": 0.214,
      "midi": 42,
      "noteNumber": 42,
      "velocity": 0.58,
      "track": "DRUMS",
      "channel": 9,
      "lane": "D"
    },
    {
      "time": 11.143,
      "duration": 0.214,
      "midi": 69,
      "noteNumber": 69,
      "velocity": 0.5,
      "track": "DRUMS",
      "channel": 9,
      "lane": "K"
    },
    {
      "time": 11.357,
      "duration": 0.214,
      "midi": 42,
      "noteNumber": 42,
      "velocity": 0.5,
      "track": "DRUMS",
      "channel": 9,
      "lane": "D"
    },
    {
      "time": 11.357,
      "duration": 0.214,
      "midi": 69,
      "noteNumber": 69,
      "velocity": 0.43,
      "track": "DRUMS",
      "channel": 9,
      "lane": "K"
    },
    {
      "time": 11.37,
      "duration": 0.275,
      "midi": 71,
      "noteNumber": 71,
      "velocity": 0.88,
      "track": "(unnamed)",
      "channel": 2,
      "lane": "K"
    },
    {
      "time": 11.377,
      "duration": 0.292,
      "midi": 62,
      "noteNumber": 62,
      "velocity": 0.77,
      "track": "(unnamed)",
      "channel": 2,
      "lane": "J"
    },
    {
      "time": 11.571,
      "duration": 0.214,
      "midi": 37,
      "noteNumber": 37,
      "velocity": 0.66,
      "track": "DRUMS",
      "channel": 9,
      "lane": "D"
    },
    {
      "time": 11.571,
      "duration": 0.214,
      "midi": 42,
      "noteNumber": 42,
      "velocity": 0.58,
      "track": "DRUMS",
      "channel": 9,
      "lane": "D"
    },
    {
      "time": 11.571,
      "duration": 0.214,
      "midi": 45,
      "noteNumber": 45,
      "velocity": 0.5,
      "track": "DRUMS",
      "channel": 9,
      "lane": "F"
    },
    {
      "time": 11.571,
      "duration": 0.214,
      "midi": 69,
      "noteNumber": 69,
      "velocity": 0.43,
      "track": "DRUMS",
      "channel": 9,
      "lane": "K"
    },
    {
      "time": 11.77,
      "duration": 0.254,
      "midi": 69,
      "noteNumber": 69,
      "velocity": 0.77,
      "track": "(unnamed)",
      "channel": 2,
      "lane": "K"
    },
    {
      "time": 11.777,
      "duration": 0.257,
      "midi": 60,
      "noteNumber": 60,
      "velocity": 0.71,
      "track": "(unnamed)",
      "channel": 2,
      "lane": "J"
    },
    {
      "time": 11.786,
      "duration": 0.121,
      "midi": 33,
      "noteNumber": 33,
      "velocity": 0.47,
      "track": "(unnamed)",
      "channel": 1,
      "lane": "D"
    },
    {
      "time": 11.786,
      "duration": 0.214,
      "midi": 35,
      "noteNumber": 35,
      "velocity": 0.43,
      "track": "DRUMS",
      "channel": 9,
      "lane": "D"
    },
    {
      "time": 11.786,
      "duration": 0.214,
      "midi": 45,
      "noteNumber": 45,
      "velocity": 0.5,
      "track": "DRUMS",
      "channel": 9,
      "lane": "F"
    },
    {
      "time": 11.786,
      "duration": 0.214,
      "midi": 46,
      "noteNumber": 46,
      "velocity": 0.66,
      "track": "DRUMS",
      "channel": 9,
      "lane": "F"
    },
    {
      "time": 11.786,
      "duration": 0.214,
      "midi": 69,
      "noteNumber": 69,
      "velocity": 0.43,
      "track": "DRUMS",
      "channel": 9,
      "lane": "K"
    },
    {
      "time": 12,
      "duration": 0.538,
      "midi": 38,
      "noteNumber": 38,
      "velocity": 0.51,
      "track": "(unnamed)",
      "channel": 1,
      "lane": "D"
    },
    {
      "time": 12,
      "duration": 0.214,
      "midi": 35,
      "noteNumber": 35,
      "velocity": 0.5,
      "track": "DRUMS",
      "channel": 9,
      "lane": "D"
    },
    {
      "time": 12,
      "duration": 0.214,
      "midi": 42,
      "noteNumber": 42,
      "velocity": 0.58,
      "track": "DRUMS",
      "channel": 9,
      "lane": "D"
    },
    {
      "time": 12,
      "duration": 0.214,
      "midi": 69,
      "noteNumber": 69,
      "velocity": 0.5,
      "track": "DRUMS",
      "channel": 9,
      "lane": "K"
    },
    {
      "time": 12.025,
      "duration": 0.571,
      "midi": 69,
      "noteNumber": 69,
      "velocity": 0.88,
      "track": "(unnamed)",
      "channel": 2,
      "lane": "K"
    },
    {
      "time": 12.033,
      "duration": 0.529,
      "midi": 60,
      "noteNumber": 60,
      "velocity": 0.7,
      "track": "(unnamed)",
      "channel": 2,
      "lane": "J"
    },
    {
      "time": 12.214,
      "duration": 0.214,
      "midi": 42,
      "noteNumber": 42,
      "velocity": 0.5,
      "track": "DRUMS",
      "channel": 9,
      "lane": "D"
    },
    {
      "time": 12.214,
      "duration": 0.214,
      "midi": 69,
      "noteNumber": 69,
      "velocity": 0.43,
      "track": "DRUMS",
      "channel": 9,
      "lane": "K"
    },
    {
      "time": 12.429,
      "duration": 0.214,
      "midi": 37,
      "noteNumber": 37,
      "velocity": 0.66,
      "track": "DRUMS",
      "channel": 9,
      "lane": "D"
    },
    {
      "time": 12.429,
      "duration": 0.214,
      "midi": 42,
      "noteNumber": 42,
      "velocity": 0.58,
      "track": "DRUMS",
      "channel": 9,
      "lane": "D"
    },
    {
      "time": 12.429,
      "duration": 0.214,
      "midi": 69,
      "noteNumber": 69,
      "velocity": 0.43,
      "track": "DRUMS",
      "channel": 9,
      "lane": "K"
    },
    {
      "time": 12.643,
      "duration": 0.098,
      "midi": 38,
      "noteNumber": 38,
      "velocity": 0.44,
      "track": "(unnamed)",
      "channel": 1,
      "lane": "D"
    },
    {
      "time": 12.643,
      "duration": 0.214,
      "midi": 35,
      "noteNumber": 35,
      "velocity": 0.5,
      "track": "DRUMS",
      "channel": 9,
      "lane": "D"
    },
    {
      "time": 12.643,
      "duration": 0.214,
      "midi": 42,
      "noteNumber": 42,
      "velocity": 0.58,
      "track": "DRUMS",
      "channel": 9,
      "lane": "D"
    },
    {
      "time": 12.643,
      "duration": 0.214,
      "midi": 69,
      "noteNumber": 69,
      "velocity": 0.5,
      "track": "DRUMS",
      "channel": 9,
      "lane": "K"
    },
    {
      "time": 12.652,
      "duration": 0.426,
      "midi": 59,
      "noteNumber": 59,
      "velocity": 0.74,
      "track": "(unnamed)",
      "channel": 2,
      "lane": "J"
    },
    {
      "time": 12.661,
      "duration": 0.4,
      "midi": 67,
      "noteNumber": 67,
      "velocity": 0.65,
      "track": "(unnamed)",
      "channel": 2,
      "lane": "J"
    },
    {
      "time": 12.857,
      "duration": 0.509,
      "midi": 43,
      "noteNumber": 43,
      "velocity": 0.56,
      "track": "(unnamed)",
      "channel": 1,
      "lane": "D"
    },
    {
      "time": 12.857,
      "duration": 0.214,
      "midi": 35,
      "noteNumber": 35,
      "velocity": 0.5,
      "track": "DRUMS",
      "channel": 9,
      "lane": "D"
    },
    {
      "time": 12.857,
      "duration": 0.214,
      "midi": 42,
      "noteNumber": 42,
      "velocity": 0.58,
      "track": "DRUMS",
      "channel": 9,
      "lane": "D"
    },
    {
      "time": 12.857,
      "duration": 0.214,
      "midi": 69,
      "noteNumber": 69,
      "velocity": 0.5,
      "track": "DRUMS",
      "channel": 9,
      "lane": "K"
    },
    {
      "time": 13.071,
      "duration": 0.214,
      "midi": 37,
      "noteNumber": 37,
      "velocity": 0.74,
      "track": "DRUMS",
      "channel": 9,
      "lane": "D"
    },
    {
      "time": 13.071,
      "duration": 0.214,
      "midi": 42,
      "noteNumber": 42,
      "velocity": 0.58,
      "track": "DRUMS",
      "channel": 9,
      "lane": "D"
    },
    {
      "time": 13.071,
      "duration": 0.214,
      "midi": 69,
      "noteNumber": 69,
      "velocity": 0.43,
      "track": "DRUMS",
      "channel": 9,
      "lane": "K"
    },
    {
      "time": 13.091,
      "duration": 0.266,
      "midi": 71,
      "noteNumber": 71,
      "velocity": 0.79,
      "track": "(unnamed)",
      "channel": 2,
      "lane": "K"
    },
    {
      "time": 13.098,
      "duration": 0.292,
      "midi": 62,
      "noteNumber": 62,
      "velocity": 0.74,
      "track": "(unnamed)",
      "channel": 2,
      "lane": "J"
    },
    {
      "time": 13.286,
      "duration": 0.214,
      "midi": 42,
      "noteNumber": 42,
      "velocity": 0.58,
      "track": "DRUMS",
      "channel": 9,
      "lane": "D"
    },
    {
      "time": 13.286,
      "duration": 0.214,
      "midi": 69,
      "noteNumber": 69,
      "velocity": 0.43,
      "track": "DRUMS",
      "channel": 9,
      "lane": "K"
    },
    {
      "time": 13.5,
      "duration": 0.114,
      "midi": 43,
      "noteNumber": 43,
      "velocity": 0.51,
      "track": "(unnamed)",
      "channel": 1,
      "lane": "D"
    },
    {
      "time": 13.5,
      "duration": 0.214,
      "midi": 35,
      "noteNumber": 35,
      "velocity": 0.58,
      "track": "DRUMS",
      "channel": 9,
      "lane": "D"
    },
    {
      "time": 13.5,
      "duration": 0.214,
      "midi": 42,
      "noteNumber": 42,
      "velocity": 0.5,
      "track": "DRUMS",
      "channel": 9,
      "lane": "D"
    },
    {
      "time": 13.5,
      "duration": 0.214,
      "midi": 69,
      "noteNumber": 69,
      "velocity": 0.5,
      "track": "DRUMS",
      "channel": 9,
      "lane": "K"
    },
    {
      "time": 13.525,
      "duration": 0.873,
      "midi": 64,
      "noteNumber": 64,
      "velocity": 0.85,
      "track": "(unnamed)",
      "channel": 2,
      "lane": "J"
    },
    {
      "time": 13.529,
      "duration": 1.672,
      "midi": 59,
      "noteNumber": 59,
      "velocity": 0.79,
      "track": "(unnamed)",
      "channel": 2,
      "lane": "J"
    },
    {
      "time": 13.538,
      "duration": 0.614,
      "midi": 55,
      "noteNumber": 55,
      "velocity": 0.8,
      "track": "(unnamed)",
      "channel": 2,
      "lane": "F"
    },
    {
      "time": 13.714,
      "duration": 0.471,
      "midi": 36,
      "noteNumber": 36,
      "velocity": 0.61,
      "track": "(unnamed)",
      "channel": 1,
      "lane": "D"
    },
    {
      "time": 13.714,
      "duration": 0.214,
      "midi": 35,
      "noteNumber": 35,
      "velocity": 0.5,
      "track": "DRUMS",
      "channel": 9,
      "lane": "D"
    },
    {
      "time": 13.714,
      "duration": 0.214,
      "midi": 37,
      "noteNumber": 37,
      "velocity": 0.66,
      "track": "DRUMS",
      "channel": 9,
      "lane": "D"
    },
    {
      "time": 13.714,
      "duration": 0.214,
      "midi": 42,
      "noteNumber": 42,
      "velocity": 0.69,
      "track": "DRUMS",
      "channel": 9,
      "lane": "D"
    },
    {
      "time": 13.714,
      "duration": 0.214,
      "midi": 69,
      "noteNumber": 69,
      "velocity": 0.5,
      "track": "DRUMS",
      "channel": 9,
      "lane": "K"
    },
    {
      "time": 13.929,
      "duration": 0.214,
      "midi": 42,
      "noteNumber": 42,
      "velocity": 0.5,
      "track": "DRUMS",
      "channel": 9,
      "lane": "D"
    },
    {
      "time": 13.929,
      "duration": 0.214,
      "midi": 69,
      "noteNumber": 69,
      "velocity": 0.43,
      "track": "DRUMS",
      "channel": 9,
      "lane": "K"
    },
    {
      "time": 13.949,
      "duration": 0.864,
      "midi": 48,
      "noteNumber": 48,
      "velocity": 0.74,
      "track": "(unnamed)",
      "channel": 2,
      "lane": "F"
    },
    {
      "time": 14.143,
      "duration": 0.214,
      "midi": 42,
      "noteNumber": 42,
      "velocity": 0.5,
      "track": "DRUMS",
      "channel": 9,
      "lane": "D"
    },
    {
      "time": 14.143,
      "duration": 0.214,
      "midi": 69,
      "noteNumber": 69,
      "velocity": 0.43,
      "track": "DRUMS",
      "channel": 9,
      "lane": "K"
    },
    {
      "time": 14.152,
      "duration": 0.871,
      "midi": 55,
      "noteNumber": 55,
      "velocity": 0.71,
      "track": "(unnamed)",
      "channel": 2,
      "lane": "F"
    },
    {
      "time": 14.357,
      "duration": 0.098,
      "midi": 42,
      "noteNumber": 42,
      "velocity": 0.56,
      "track": "(unnamed)",
      "channel": 1,
      "lane": "D"
    },
    {
      "time": 14.357,
      "duration": 0.214,
      "midi": 35,
      "noteNumber": 35,
      "velocity": 0.43,
      "track": "DRUMS",
      "channel": 9,
      "lane": "D"
    },
    {
      "time": 14.357,
      "duration": 0.214,
      "midi": 37,
      "noteNumber": 37,
      "velocity": 0.74,
      "track": "DRUMS",
      "channel": 9,
      "lane": "D"
    },
    {
      "time": 14.357,
      "duration": 0.214,
      "midi": 46,
      "noteNumber": 46,
      "velocity": 0.5,
      "track": "DRUMS",
      "channel": 9,
      "lane": "F"
    },
    {
      "time": 14.357,
      "duration": 0.214,
      "midi": 69,
      "noteNumber": 69,
      "velocity": 0.43,
      "track": "DRUMS",
      "channel": 9,
      "lane": "K"
    },
    {
      "time": 14.397,
      "duration": 1.714,
      "midi": 64,
      "noteNumber": 64,
      "velocity": 0.66,
      "track": "(unnamed)",
      "channel": 2,
      "lane": "J"
    },
    {
      "time": 14.571,
      "duration": 0.478,
      "midi": 43,
      "noteNumber": 43,
      "velocity": 0.61,
      "track": "(unnamed)",
      "channel": 1,
      "lane": "D"
    },
    {
      "time": 14.571,
      "duration": 0.214,
      "midi": 35,
      "noteNumber": 35,
      "velocity": 0.5,
      "track": "DRUMS",
      "channel": 9,
      "lane": "D"
    },
    {
      "time": 14.571,
      "duration": 0.214,
      "midi": 42,
      "noteNumber": 42,
      "velocity": 0.58,
      "track": "DRUMS",
      "channel": 9,
      "lane": "D"
    },
    {
      "time": 14.571,
      "duration": 0.214,
      "midi": 69,
      "noteNumber": 69,
      "velocity": 0.5,
      "track": "DRUMS",
      "channel": 9,
      "lane": "K"
    },
    {
      "time": 14.786,
      "duration": 0.214,
      "midi": 42,
      "noteNumber": 42,
      "velocity": 0.5,
      "track": "DRUMS",
      "channel": 9,
      "lane": "D"
    },
    {
      "time": 14.786,
      "duration": 0.214,
      "midi": 69,
      "noteNumber": 69,
      "velocity": 0.43,
      "track": "DRUMS",
      "channel": 9,
      "lane": "K"
    },
    {
      "time": 14.812,
      "duration": 0.353,
      "midi": 48,
      "noteNumber": 48,
      "velocity": 0.73,
      "track": "(unnamed)",
      "channel": 2,
      "lane": "F"
    },
    {
      "time": 15,
      "duration": 0.214,
      "midi": 37,
      "noteNumber": 37,
      "velocity": 0.66,
      "track": "DRUMS",
      "channel": 9,
      "lane": "D"
    },
    {
      "time": 15,
      "duration": 0.214,
      "midi": 42,
      "noteNumber": 42,
      "velocity": 0.58,
      "track": "DRUMS",
      "channel": 9,
      "lane": "D"
    },
    {
      "time": 15,
      "duration": 0.214,
      "midi": 69,
      "noteNumber": 69,
      "velocity": 0.43,
      "track": "DRUMS",
      "channel": 9,
      "lane": "K"
    },
    {
      "time": 15.022,
      "duration": 0.252,
      "midi": 55,
      "noteNumber": 55,
      "velocity": 0.74,
      "track": "(unnamed)",
      "channel": 2,
      "lane": "F"
    },
    {
      "time": 15.214,
      "duration": 0.096,
      "midi": 36,
      "noteNumber": 36,
      "velocity": 0.54,
      "track": "(unnamed)",
      "channel": 1,
      "lane": "D"
    },
    {
      "time": 15.214,
      "duration": 0.214,
      "midi": 35,
      "noteNumber": 35,
      "velocity": 0.43,
      "track": "DRUMS",
      "channel": 9,
      "lane": "D"
    },
    {
      "time": 15.214,
      "duration": 0.214,
      "midi": 42,
      "noteNumber": 42,
      "velocity": 0.66,
      "track": "DRUMS",
      "channel": 9,
      "lane": "D"
    },
    {
      "time": 15.214,
      "duration": 0.214,
      "midi": 69,
      "noteNumber": 69,
      "velocity": 0.43,
      "track": "DRUMS",
      "channel": 9,
      "lane": "K"
    },
    {
      "time": 15.429,
      "duration": 0.446,
      "midi": 37,
      "noteNumber": 37,
      "velocity": 0.57,
      "track": "(unnamed)",
      "channel": 1,
      "lane": "D"
    },
    {
      "time": 15.429,
      "duration": 0.214,
      "midi": 42,
      "noteNumber": 42,
      "velocity": 0.5,
      "track": "DRUMS",
      "channel": 9,
      "lane": "D"
    },
    {
      "time": 15.429,
      "duration": 0.214,
      "midi": 69,
      "noteNumber": 69,
      "velocity": 0.66,
      "track": "DRUMS",
      "channel": 9,
      "lane": "K"
    },
    {
      "time": 15.446,
      "duration": 1.225,
      "midi": 49,
      "noteNumber": 49,
      "velocity": 0.79,
      "track": "(unnamed)",
      "channel": 2,
      "lane": "F"
    },
    {
      "time": 15.643,
      "duration": 0.214,
      "midi": 42,
      "noteNumber": 42,
      "velocity": 0.43,
      "track": "DRUMS",
      "channel": 9,
      "lane": "D"
    },
    {
      "time": 15.643,
      "duration": 0.214,
      "midi": 48,
      "noteNumber": 48,
      "velocity": 0.43,
      "track": "DRUMS",
      "channel": 9,
      "lane": "F"
    },
    {
      "time": 15.643,
      "duration": 0.214,
      "midi": 69,
      "noteNumber": 69,
      "velocity": 0.43,
      "track": "DRUMS",
      "channel": 9,
      "lane": "K"
    },
    {
      "time": 15.661,
      "duration": 0.078,
      "midi": 48,
      "noteNumber": 48,
      "velocity": 0.67,
      "track": "(unnamed)",
      "channel": 2,
      "lane": "F"
    },
    {
      "time": 15.667,
      "duration": 0.935,
      "midi": 55,
      "noteNumber": 55,
      "velocity": 0.67,
      "track": "(unnamed)",
      "channel": 2,
      "lane": "F"
    },
    {
      "time": 15.857,
      "duration": 0.001,
      "midi": 37,
      "noteNumber": 37,
      "velocity": 0.66,
      "track": "DRUMS",
      "channel": 9,
      "lane": "D"
    },
    {
      "time": 15.857,
      "duration": 0.214,
      "midi": 37,
      "noteNumber": 37,
      "velocity": 0.43,
      "track": "DRUMS",
      "channel": 9,
      "lane": "D"
    },
    {
      "time": 15.857,
      "duration": 0.214,
      "midi": 42,
      "noteNumber": 42,
      "velocity": 0.5,
      "track": "DRUMS",
      "channel": 9,
      "lane": "D"
    },
    {
      "time": 15.877,
      "duration": 0.692,
      "midi": 58,
      "noteNumber": 58,
      "velocity": 0.72,
      "track": "(unnamed)",
      "channel": 2,
      "lane": "J"
    },
    {
      "time": 16.071,
      "duration": 0.109,
      "midi": 43,
      "noteNumber": 43,
      "velocity": 0.54,
      "track": "(unnamed)",
      "channel": 1,
      "lane": "D"
    },
    {
      "time": 16.071,
      "duration": 0.214,
      "midi": 37,
      "noteNumber": 37,
      "velocity": 0.43,
      "track": "DRUMS",
      "channel": 9,
      "lane": "D"
    },
    {
      "time": 16.071,
      "duration": 0.214,
      "midi": 42,
      "noteNumber": 42,
      "velocity": 0.5,
      "track": "DRUMS",
      "channel": 9,
      "lane": "D"
    },
    {
      "time": 16.071,
      "duration": 0.214,
      "midi": 45,
      "noteNumber": 45,
      "velocity": 0.43,
      "track": "DRUMS",
      "channel": 9,
      "lane": "F"
    },
    {
      "time": 16.112,
      "duration": 0.205,
      "midi": 64,
      "noteNumber": 64,
      "velocity": 0.69,
      "track": "(unnamed)",
      "channel": 2,
      "lane": "J"
    },
    {
      "time": 16.286,
      "duration": 0.449,
      "midi": 43,
      "noteNumber": 43,
      "velocity": 0.58,
      "track": "(unnamed)",
      "channel": 1,
      "lane": "D"
    },
    {
      "time": 16.286,
      "duration": 0.214,
      "midi": 37,
      "noteNumber": 37,
      "velocity": 0.5,
      "track": "DRUMS",
      "channel": 9,
      "lane": "D"
    },
    {
      "time": 16.286,
      "duration": 0.214,
      "midi": 42,
      "noteNumber": 42,
      "velocity": 0.5,
      "track": "DRUMS",
      "channel": 9,
      "lane": "D"
    },
    {
      "time": 16.286,
      "duration": 0.214,
      "midi": 48,
      "noteNumber": 48,
      "velocity": 0.5,
      "track": "DRUMS",
      "channel": 9,
      "lane": "F"
    },
    {
      "time": 16.317,
      "duration": 0.259,
      "midi": 64,
      "noteNumber": 64,
      "velocity": 0.83,
      "track": "(unnamed)",
      "channel": 2,
      "lane": "J"
    },
    {
      "time": 16.5,
      "duration": 0.214,
      "midi": 37,
      "noteNumber": 37,
      "velocity": 0.43,
      "track": "DRUMS",
      "channel": 9,
      "lane": "D"
    },
    {
      "time": 16.5,
      "duration": 0.214,
      "midi": 42,
      "noteNumber": 42,
      "velocity": 0.5,
      "track": "DRUMS",
      "channel": 9,
      "lane": "D"
    },
    {
      "time": 16.5,
      "duration": 0.214,
      "midi": 48,
      "noteNumber": 48,
      "velocity": 0.5,
      "track": "DRUMS",
      "channel": 9,
      "lane": "F"
    },
    {
      "time": 16.609,
      "duration": 0.219,
      "midi": 65,
      "noteNumber": 65,
      "velocity": 0.69,
      "track": "(unnamed)",
      "channel": 2,
      "lane": "J"
    },
    {
      "time": 16.714,
      "duration": 0.214,
      "midi": 37,
      "noteNumber": 37,
      "velocity": 0.43,
      "track": "DRUMS",
      "channel": 9,
      "lane": "D"
    },
    {
      "time": 16.714,
      "duration": 0.214,
      "midi": 42,
      "noteNumber": 42,
      "velocity": 0.5,
      "track": "DRUMS",
      "channel": 9,
      "lane": "D"
    },
    {
      "time": 16.714,
      "duration": 0.214,
      "midi": 48,
      "noteNumber": 48,
      "velocity": 0.54,
      "track": "DRUMS",
      "channel": 9,
      "lane": "F"
    },
    {
      "time": 16.913,
      "duration": 0.217,
      "midi": 67,
      "noteNumber": 67,
      "velocity": 0.72,
      "track": "(unnamed)",
      "channel": 2,
      "lane": "J"
    },
    {
      "time": 16.929,
      "duration": 0.098,
      "midi": 37,
      "noteNumber": 37,
      "velocity": 0.56,
      "track": "(unnamed)",
      "channel": 1,
      "lane": "D"
    },
    {
      "time": 16.929,
      "duration": 0.214,
      "midi": 37,
      "noteNumber": 37,
      "velocity": 0.43,
      "track": "DRUMS",
      "channel": 9,
      "lane": "D"
    },
    {
      "time": 16.929,
      "duration": 0.214,
      "midi": 42,
      "noteNumber": 42,
      "velocity": 0.5,
      "track": "DRUMS",
      "channel": 9,
      "lane": "D"
    },
    {
      "time": 16.929,
      "duration": 0.214,
      "midi": 45,
      "noteNumber": 45,
      "velocity": 0.5,
      "track": "DRUMS",
      "channel": 9,
      "lane": "F"
    },
    {
      "time": 17.143,
      "duration": 0.542,
      "midi": 38,
      "noteNumber": 38,
      "velocity": 0.61,
      "track": "(unnamed)",
      "channel": 1,
      "lane": "D"
    },
    {
      "time": 17.143,
      "duration": 0.214,
      "midi": 35,
      "noteNumber": 35,
      "velocity": 0.5,
      "track": "DRUMS",
      "channel": 9,
      "lane": "D"
    },
    {
      "time": 17.143,
      "duration": 0.214,
      "midi": 37,
      "noteNumber": 37,
      "velocity": 0.66,
      "track": "DRUMS",
      "channel": 9,
      "lane": "D"
    },
    {
      "time": 17.143,
      "duration": 0.214,
      "midi": 42,
      "noteNumber": 42,
      "velocity": 0.69,
      "track": "DRUMS",
      "channel": 9,
      "lane": "D"
    },
    {
      "time": 17.143,
      "duration": 0.214,
      "midi": 69,
      "noteNumber": 69,
      "velocity": 0.5,
      "track": "DRUMS",
      "channel": 9,
      "lane": "K"
    },
    {
      "time": 17.167,
      "duration": 0.817,
      "midi": 50,
      "noteNumber": 50,
      "velocity": 0.87,
      "track": "(unnamed)",
      "channel": 2,
      "lane": "F"
    },
    {
      "time": 17.201,
      "duration": 0.406,
      "midi": 53,
      "noteNumber": 53,
      "velocity": 0.77,
      "track": "(unnamed)",
      "channel": 2,
      "lane": "F"
    },
    {
      "time": 17.228,
      "duration": 0.824,
      "midi": 60,
      "noteNumber": 60,
      "velocity": 0.71,
      "track": "(unnamed)",
      "channel": 2,
      "lane": "J"
    },
    {
      "time": 17.254,
      "duration": 0.799,
      "midi": 65,
      "noteNumber": 65,
      "velocity": 0.76,
      "track": "(unnamed)",
      "channel": 2,
      "lane": "J"
    },
    {
      "time": 17.306,
      "duration": 0.723,
      "midi": 69,
      "noteNumber": 69,
      "velocity": 0.82,
      "track": "(unnamed)",
      "channel": 2,
      "lane": "K"
    },
    {
      "time": 17.357,
      "duration": 0.214,
      "midi": 42,
      "noteNumber": 42,
      "velocity": 0.5,
      "track": "DRUMS",
      "channel": 9,
      "lane": "D"
    },
    {
      "time": 17.357,
      "duration": 0.214,
      "midi": 69,
      "noteNumber": 69,
      "velocity": 0.43,
      "track": "DRUMS",
      "channel": 9,
      "lane": "K"
    },
    {
      "time": 17.571,
      "duration": 0.214,
      "midi": 42,
      "noteNumber": 42,
      "velocity": 0.5,
      "track": "DRUMS",
      "channel": 9,
      "lane": "D"
    },
    {
      "time": 17.571,
      "duration": 0.214,
      "midi": 69,
      "noteNumber": 69,
      "velocity": 0.43,
      "track": "DRUMS",
      "channel": 9,
      "lane": "K"
    },
    {
      "time": 17.786,
      "duration": 0.096,
      "midi": 44,
      "noteNumber": 44,
      "velocity": 0.5,
      "track": "(unnamed)",
      "channel": 1,
      "lane": "D"
    },
    {
      "time": 17.786,
      "duration": 0.214,
      "midi": 35,
      "noteNumber": 35,
      "velocity": 0.43,
      "track": "DRUMS",
      "channel": 9,
      "lane": "D"
    },
    {
      "time": 17.786,
      "duration": 0.214,
      "midi": 37,
      "noteNumber": 37,
      "velocity": 0.74,
      "track": "DRUMS",
      "channel": 9,
      "lane": "D"
    },
    {
      "time": 17.786,
      "duration": 0.214,
      "midi": 42,
      "noteNumber": 42,
      "velocity": 0.5,
      "track": "DRUMS",
      "channel": 9,
      "lane": "D"
    },
    {
      "time": 17.786,
      "duration": 0.214,
      "midi": 69,
      "noteNumber": 69,
      "velocity": 0.43,
      "track": "DRUMS",
      "channel": 9,
      "lane": "K"
    },
    {
      "time": 18,
      "duration": 0.592,
      "midi": 45,
      "noteNumber": 45,
      "velocity": 0.53,
      "track": "(unnamed)",
      "channel": 1,
      "lane": "F"
    },
    {
      "time": 18,
      "duration": 0.214,
      "midi": 35,
      "noteNumber": 35,
      "velocity": 0.5,
      "track": "DRUMS",
      "channel": 9,
      "lane": "D"
    },
    {
      "time": 18,
      "duration": 0.214,
      "midi": 42,
      "noteNumber": 42,
      "velocity": 0.58,
      "track": "DRUMS",
      "channel": 9,
      "lane": "D"
    },
    {
      "time": 18,
      "duration": 0.214,
      "midi": 69,
      "noteNumber": 69,
      "velocity": 0.5,
      "track": "DRUMS",
      "channel": 9,
      "lane": "K"
    },
    {
      "time": 18.214,
      "duration": 0.214,
      "midi": 42,
      "noteNumber": 42,
      "velocity": 0.5,
      "track": "DRUMS",
      "channel": 9,
      "lane": "D"
    },
    {
      "time": 18.214,
      "duration": 0.214,
      "midi": 69,
      "noteNumber": 69,
      "velocity": 0.43,
      "track": "DRUMS",
      "channel": 9,
      "lane": "K"
    },
    {
      "time": 18.234,
      "duration": 0.393,
      "midi": 48,
      "noteNumber": 48,
      "velocity": 0.71,
      "track": "(unnamed)",
      "channel": 2,
      "lane": "F"
    },
    {
      "time": 18.266,
      "duration": 0.386,
      "midi": 53,
      "noteNumber": 53,
      "velocity": 0.75,
      "track": "(unnamed)",
      "channel": 2,
      "lane": "F"
    },
    {
      "time": 18.277,
      "duration": 0.386,
      "midi": 57,
      "noteNumber": 57,
      "velocity": 0.69,
      "track": "(unnamed)",
      "channel": 2,
      "lane": "J"
    },
    {
      "time": 18.312,
      "duration": 0.319,
      "midi": 62,
      "noteNumber": 62,
      "velocity": 0.85,
      "track": "(unnamed)",
      "channel": 2,
      "lane": "J"
    },
    {
      "time": 18.429,
      "duration": 0.214,
      "midi": 37,
      "noteNumber": 37,
      "velocity": 0.66,
      "track": "DRUMS",
      "channel": 9,
      "lane": "D"
    },
    {
      "time": 18.429,
      "duration": 0.214,
      "midi": 42,
      "noteNumber": 42,
      "velocity": 0.58,
      "track": "DRUMS",
      "channel": 9,
      "lane": "D"
    },
    {
      "time": 18.429,
      "duration": 0.214,
      "midi": 69,
      "noteNumber": 69,
      "velocity": 0.43,
      "track": "DRUMS",
      "channel": 9,
      "lane": "K"
    },
    {
      "time": 18.643,
      "duration": 0.116,
      "midi": 38,
      "noteNumber": 38,
      "velocity": 0.51,
      "track": "(unnamed)",
      "channel": 1,
      "lane": "D"
    },
    {
      "time": 18.643,
      "duration": 0.214,
      "midi": 35,
      "noteNumber": 35,
      "velocity": 0.43,
      "track": "DRUMS",
      "channel": 9,
      "lane": "D"
    },
    {
      "time": 18.643,
      "duration": 0.214,
      "midi": 46,
      "noteNumber": 46,
      "velocity": 0.66,
      "track": "DRUMS",
      "channel": 9,
      "lane": "F"
    },
    {
      "time": 18.643,
      "duration": 0.214,
      "midi": 69,
      "noteNumber": 69,
      "velocity": 0.43,
      "track": "DRUMS",
      "channel": 9,
      "lane": "K"
    },
    {
      "time": 18.826,
      "duration": 1.121,
      "midi": 47,
      "noteNumber": 47,
      "velocity": 0.72,
      "track": "(unnamed)",
      "channel": 2,
      "lane": "F"
    },
    {
      "time": 18.857,
      "duration": 0.473,
      "midi": 43,
      "noteNumber": 43,
      "velocity": 0.61,
      "track": "(unnamed)",
      "channel": 1,
      "lane": "D"
    },
    {
      "time": 18.857,
      "duration": 0.214,
      "midi": 35,
      "noteNumber": 35,
      "velocity": 0.5,
      "track": "DRUMS",
      "channel": 9,
      "lane": "D"
    },
    {
      "time": 18.857,
      "duration": 0.214,
      "midi": 42,
      "noteNumber": 42,
      "velocity": 0.58,
      "track": "DRUMS",
      "channel": 9,
      "lane": "D"
    },
    {
      "time": 18.857,
      "duration": 0.214,
      "midi": 69,
      "noteNumber": 69,
      "velocity": 0.5,
      "track": "DRUMS",
      "channel": 9,
      "lane": "K"
    },
    {
      "time": 18.859,
      "duration": 1.083,
      "midi": 53,
      "noteNumber": 53,
      "velocity": 0.73,
      "track": "(unnamed)",
      "channel": 2,
      "lane": "F"
    },
    {
      "time": 18.891,
      "duration": 1.022,
      "midi": 56,
      "noteNumber": 56,
      "velocity": 0.72,
      "track": "(unnamed)",
      "channel": 2,
      "lane": "F"
    },
    {
      "time": 18.931,
      "duration": 0.587,
      "midi": 62,
      "noteNumber": 62,
      "velocity": 0.86,
      "track": "(unnamed)",
      "channel": 2,
      "lane": "J"
    },
    {
      "time": 19.071,
      "duration": 0.214,
      "midi": 42,
      "noteNumber": 42,
      "velocity": 0.5,
      "track": "DRUMS",
      "channel": 9,
      "lane": "D"
    },
    {
      "time": 19.071,
      "duration": 0.214,
      "midi": 69,
      "noteNumber": 69,
      "velocity": 0.43,
      "track": "DRUMS",
      "channel": 9,
      "lane": "K"
    },
    {
      "time": 19.286,
      "duration": 0.214,
      "midi": 37,
      "noteNumber": 37,
      "velocity": 0.66,
      "track": "DRUMS",
      "channel": 9,
      "lane": "D"
    },
    {
      "time": 19.286,
      "duration": 0.214,
      "midi": 42,
      "noteNumber": 42,
      "velocity": 0.58,
      "track": "DRUMS",
      "channel": 9,
      "lane": "D"
    },
    {
      "time": 19.286,
      "duration": 0.214,
      "midi": 48,
      "noteNumber": 48,
      "velocity": 0.5,
      "track": "DRUMS",
      "channel": 9,
      "lane": "F"
    },
    {
      "time": 19.286,
      "duration": 0.214,
      "midi": 69,
      "noteNumber": 69,
      "velocity": 0.43,
      "track": "DRUMS",
      "channel": 9,
      "lane": "K"
    },
    {
      "time": 19.5,
      "duration": 0.092,
      "midi": 49,
      "noteNumber": 49,
      "velocity": 0.47,
      "track": "(unnamed)",
      "channel": 1,
      "lane": "F"
    },
    {
      "time": 19.5,
      "duration": 0.214,
      "midi": 35,
      "noteNumber": 35,
      "velocity": 0.5,
      "track": "DRUMS",
      "channel": 9,
      "lane": "D"
    },
    {
      "time": 19.5,
      "duration": 0.214,
      "midi": 46,
      "noteNumber": 46,
      "velocity": 0.58,
      "track": "DRUMS",
      "channel": 9,
      "lane": "F"
    },
    {
      "time": 19.5,
      "duration": 0.214,
      "midi": 69,
      "noteNumber": 69,
      "velocity": 0.5,
      "track": "DRUMS",
      "channel": 9,
      "lane": "K"
    },
    {
      "time": 19.518,
      "duration": 0.217,
      "midi": 62,
      "noteNumber": 62,
      "velocity": 0.83,
      "track": "(unnamed)",
      "channel": 2,
      "lane": "J"
    },
    {
      "time": 19.714,
      "duration": 0.614,
      "midi": 50,
      "noteNumber": 50,
      "velocity": 0.61,
      "track": "(unnamed)",
      "channel": 1,
      "lane": "F"
    },
    {
      "time": 19.714,
      "duration": 0.214,
      "midi": 35,
      "noteNumber": 35,
      "velocity": 0.5,
      "track": "DRUMS",
      "channel": 9,
      "lane": "D"
    },
    {
      "time": 19.714,
      "duration": 0.214,
      "midi": 42,
      "noteNumber": 42,
      "velocity": 0.58,
      "track": "DRUMS",
      "channel": 9,
      "lane": "D"
    },
    {
      "time": 19.714,
      "duration": 0.214,
      "midi": 69,
      "noteNumber": 69,
      "velocity": 0.5,
      "track": "DRUMS",
      "channel": 9,
      "lane": "K"
    },
    {
      "time": 19.734,
      "duration": 0.223,
      "midi": 62,
      "noteNumber": 62,
      "velocity": 0.83,
      "track": "(unnamed)",
      "channel": 2,
      "lane": "J"
    },
    {
      "time": 19.929,
      "duration": 0.214,
      "midi": 37,
      "noteNumber": 37,
      "velocity": 0.74,
      "track": "DRUMS",
      "channel": 9,
      "lane": "D"
    },
    {
      "time": 19.929,
      "duration": 0.214,
      "midi": 42,
      "noteNumber": 42,
      "velocity": 0.58,
      "track": "DRUMS",
      "channel": 9,
      "lane": "D"
    },
    {
      "time": 19.929,
      "duration": 0.214,
      "midi": 69,
      "noteNumber": 69,
      "velocity": 0.43,
      "track": "DRUMS",
      "channel": 9,
      "lane": "K"
    },
    {
      "time": 20.011,
      "duration": 0.261,
      "midi": 64,
      "noteNumber": 64,
      "velocity": 0.79,
      "track": "(unnamed)",
      "channel": 2,
      "lane": "J"
    },
    {
      "time": 20.143,
      "duration": 0.214,
      "midi": 42,
      "noteNumber": 42,
      "velocity": 0.58,
      "track": "DRUMS",
      "channel": 9,
      "lane": "D"
    },
    {
      "time": 20.143,
      "duration": 0.214,
      "midi": 69,
      "noteNumber": 69,
      "velocity": 0.43,
      "track": "DRUMS",
      "channel": 9,
      "lane": "K"
    },
    {
      "time": 20.292,
      "duration": 0.275,
      "midi": 65,
      "noteNumber": 65,
      "velocity": 0.84,
      "track": "(unnamed)",
      "channel": 2,
      "lane": "J"
    },
    {
      "time": 20.357,
      "duration": 0.092,
      "midi": 43,
      "noteNumber": 43,
      "velocity": 0.43,
      "track": "(unnamed)",
      "channel": 1,
      "lane": "D"
    },
    {
      "time": 20.357,
      "duration": 0.214,
      "midi": 35,
      "noteNumber": 35,
      "velocity": 0.58,
      "track": "DRUMS",
      "channel": 9,
      "lane": "D"
    },
    {
      "time": 20.357,
      "duration": 0.214,
      "midi": 46,
      "noteNumber": 46,
      "velocity": 0.5,
      "track": "DRUMS",
      "channel": 9,
      "lane": "F"
    },
    {
      "time": 20.357,
      "duration": 0.214,
      "midi": 69,
      "noteNumber": 69,
      "velocity": 0.5,
      "track": "DRUMS",
      "channel": 9,
      "lane": "K"
    },
    {
      "time": 20.571,
      "duration": 0.478,
      "midi": 36,
      "noteNumber": 36,
      "velocity": 0.58,
      "track": "(unnamed)",
      "channel": 1,
      "lane": "D"
    },
    {
      "time": 20.571,
      "duration": 0.214,
      "midi": 35,
      "noteNumber": 35,
      "velocity": 0.5,
      "track": "DRUMS",
      "channel": 9,
      "lane": "D"
    },
    {
      "time": 20.571,
      "duration": 0.214,
      "midi": 37,
      "noteNumber": 37,
      "velocity": 0.66,
      "track": "DRUMS",
      "channel": 9,
      "lane": "D"
    },
    {
      "time": 20.571,
      "duration": 0.214,
      "midi": 42,
      "noteNumber": 42,
      "velocity": 0.69,
      "track": "DRUMS",
      "channel": 9,
      "lane": "D"
    },
    {
      "time": 20.571,
      "duration": 0.214,
      "midi": 69,
      "noteNumber": 69,
      "velocity": 0.5,
      "track": "DRUMS",
      "channel": 9,
      "lane": "K"
    },
    {
      "time": 20.625,
      "duration": 0.304,
      "midi": 67,
      "noteNumber": 67,
      "velocity": 0.77,
      "track": "(unnamed)",
      "channel": 2,
      "lane": "J"
    },
    {
      "time": 20.786,
      "duration": 0.214,
      "midi": 42,
      "noteNumber": 42,
      "velocity": 0.5,
      "track": "DRUMS",
      "channel": 9,
      "lane": "D"
    },
    {
      "time": 20.786,
      "duration": 0.214,
      "midi": 69,
      "noteNumber": 69,
      "velocity": 0.43,
      "track": "DRUMS",
      "channel": 9,
      "lane": "K"
    },
    {
      "time": 21,
      "duration": 0.214,
      "midi": 42,
      "noteNumber": 42,
      "velocity": 0.5,
      "track": "DRUMS",
      "channel": 9,
      "lane": "D"
    },
    {
      "time": 21,
      "duration": 0.214,
      "midi": 69,
      "noteNumber": 69,
      "velocity": 0.43,
      "track": "DRUMS",
      "channel": 9,
      "lane": "K"
    },
    {
      "time": 21.049,
      "duration": 0.23,
      "midi": 60,
      "noteNumber": 60,
      "velocity": 0.83,
      "track": "(unnamed)",
      "channel": 2,
      "lane": "J"
    },
    {
      "time": 21.214,
      "duration": 0.114,
      "midi": 43,
      "noteNumber": 43,
      "velocity": 0.49,
      "track": "(unnamed)",
      "channel": 1,
      "lane": "D"
    },
    {
      "time": 21.214,
      "duration": 0.214,
      "midi": 35,
      "noteNumber": 35,
      "velocity": 0.43,
      "track": "DRUMS",
      "channel": 9,
      "lane": "D"
    },
    {
      "time": 21.214,
      "duration": 0.214,
      "midi": 37,
      "noteNumber": 37,
      "velocity": 0.74,
      "track": "DRUMS",
      "channel": 9,
      "lane": "D"
    },
    {
      "time": 21.214,
      "duration": 0.214,
      "midi": 46,
      "noteNumber": 46,
      "velocity": 0.5,
      "track": "DRUMS",
      "channel": 9,
      "lane": "F"
    },
    {
      "time": 21.214,
      "duration": 0.214,
      "midi": 69,
      "noteNumber": 69,
      "velocity": 0.43,
      "track": "DRUMS",
      "channel": 9,
      "lane": "K"
    },
    {
      "time": 21.279,
      "duration": 0.393,
      "midi": 60,
      "noteNumber": 60,
      "velocity": 0.85,
      "track": "(unnamed)",
      "channel": 2,
      "lane": "J"
    },
    {
      "time": 21.429,
      "duration": 0.592,
      "midi": 43,
      "noteNumber": 43,
      "velocity": 0.58,
      "track": "(unnamed)",
      "channel": 1,
      "lane": "D"
    },
    {
      "time": 21.429,
      "duration": 0.214,
      "midi": 35,
      "noteNumber": 35,
      "velocity": 0.5,
      "track": "DRUMS",
      "channel": 9,
      "lane": "D"
    },
    {
      "time": 21.429,
      "duration": 0.214,
      "midi": 42,
      "noteNumber": 42,
      "velocity": 0.58,
      "track": "DRUMS",
      "channel": 9,
      "lane": "D"
    },
    {
      "time": 21.429,
      "duration": 0.214,
      "midi": 69,
      "noteNumber": 69,
      "velocity": 0.5,
      "track": "DRUMS",
      "channel": 9,
      "lane": "K"
    },
    {
      "time": 21.643,
      "duration": 0.214,
      "midi": 42,
      "noteNumber": 42,
      "velocity": 0.5,
      "track": "DRUMS",
      "channel": 9,
      "lane": "D"
    },
    {
      "time": 21.643,
      "duration": 0.214,
      "midi": 69,
      "noteNumber": 69,
      "velocity": 0.43,
      "track": "DRUMS",
      "channel": 9,
      "lane": "K"
    },
    {
      "time": 21.678,
      "duration": 0.223,
      "midi": 53,
      "noteNumber": 53,
      "velocity": 0.71,
      "track": "(unnamed)",
      "channel": 2,
      "lane": "F"
    },
    {
      "time": 21.857,
      "duration": 0.214,
      "midi": 37,
      "noteNumber": 37,
      "velocity": 0.66,
      "track": "DRUMS",
      "channel": 9,
      "lane": "D"
    },
    {
      "time": 21.857,
      "duration": 0.214,
      "midi": 42,
      "noteNumber": 42,
      "velocity": 0.58,
      "track": "DRUMS",
      "channel": 9,
      "lane": "D"
    },
    {
      "time": 21.857,
      "duration": 0.214,
      "midi": 69,
      "noteNumber": 69,
      "velocity": 0.43,
      "track": "DRUMS",
      "channel": 9,
      "lane": "K"
    },
    {
      "time": 21.886,
      "duration": 0.232,
      "midi": 52,
      "noteNumber": 52,
      "velocity": 0.74,
      "track": "(unnamed)",
      "channel": 2,
      "lane": "F"
    },
    {
      "time": 21.891,
      "duration": 0.214,
      "midi": 58,
      "noteNumber": 58,
      "velocity": 0.58,
      "track": "(unnamed)",
      "channel": 2,
      "lane": "J"
    },
    {
      "time": 22.071,
      "duration": 0.121,
      "midi": 36,
      "noteNumber": 36,
      "velocity": 0.5,
      "track": "(unnamed)",
      "channel": 1,
      "lane": "D"
    },
    {
      "time": 22.071,
      "duration": 0.214,
      "midi": 35,
      "noteNumber": 35,
      "velocity": 0.43,
      "track": "DRUMS",
      "channel": 9,
      "lane": "D"
    },
    {
      "time": 22.071,
      "duration": 0.214,
      "midi": 46,
      "noteNumber": 46,
      "velocity": 0.66,
      "track": "DRUMS",
      "channel": 9,
      "lane": "F"
    },
    {
      "time": 22.071,
      "duration": 0.214,
      "midi": 69,
      "noteNumber": 69,
      "velocity": 0.43,
      "track": "DRUMS",
      "channel": 9,
      "lane": "K"
    },
    {
      "time": 22.286,
      "duration": 0.538,
      "midi": 41,
      "noteNumber": 41,
      "velocity": 0.63,
      "track": "(unnamed)",
      "channel": 1,
      "lane": "D"
    },
    {
      "time": 22.286,
      "duration": 0.991,
      "midi": 52,
      "noteNumber": 52,
      "velocity": 0.72,
      "track": "(unnamed)",
      "channel": 2,
      "lane": "F"
    },
    {
      "time": 22.286,
      "duration": 0.214,
      "midi": 35,
      "noteNumber": 35,
      "velocity": 0.5,
      "track": "DRUMS",
      "channel": 9,
      "lane": "D"
    },
    {
      "time": 22.286,
      "duration": 0.214,
      "midi": 42,
      "noteNumber": 42,
      "velocity": 0.58,
      "track": "DRUMS",
      "channel": 9,
      "lane": "D"
    },
    {
      "time": 22.286,
      "duration": 0.214,
      "midi": 69,
      "noteNumber": 69,
      "velocity": 0.5,
      "track": "DRUMS",
      "channel": 9,
      "lane": "K"
    },
    {
      "time": 22.319,
      "duration": 1,
      "midi": 57,
      "noteNumber": 57,
      "velocity": 0.66,
      "track": "(unnamed)",
      "channel": 2,
      "lane": "J"
    },
    {
      "time": 22.373,
      "duration": 1.038,
      "midi": 60,
      "noteNumber": 60,
      "velocity": 0.72,
      "track": "(unnamed)",
      "channel": 2,
      "lane": "J"
    },
    {
      "time": 22.5,
      "duration": 0.214,
      "midi": 42,
      "noteNumber": 42,
      "velocity": 0.5,
      "track": "DRUMS",
      "channel": 9,
      "lane": "D"
    },
    {
      "time": 22.5,
      "duration": 0.214,
      "midi": 69,
      "noteNumber": 69,
      "velocity": 0.43,
      "track": "DRUMS",
      "channel": 9,
      "lane": "K"
    },
    {
      "time": 22.714,
      "duration": 0.214,
      "midi": 37,
      "noteNumber": 37,
      "velocity": 0.66,
      "track": "DRUMS",
      "channel": 9,
      "lane": "D"
    },
    {
      "time": 22.714,
      "duration": 0.214,
      "midi": 42,
      "noteNumber": 42,
      "velocity": 0.58,
      "track": "DRUMS",
      "channel": 9,
      "lane": "D"
    },
    {
      "time": 22.714,
      "duration": 0.214,
      "midi": 69,
      "noteNumber": 69,
      "velocity": 0.43,
      "track": "DRUMS",
      "channel": 9,
      "lane": "K"
    },
    {
      "time": 22.928,
      "duration": 0.121,
      "midi": 47,
      "noteNumber": 47,
      "velocity": 0.57,
      "track": "(unnamed)",
      "channel": 1,
      "lane": "F"
    },
    {
      "time": 22.928,
      "duration": 0.214,
      "midi": 35,
      "noteNumber": 35,
      "velocity": 0.5,
      "track": "DRUMS",
      "channel": 9,
      "lane": "D"
    },
    {
      "time": 22.928,
      "duration": 0.214,
      "midi": 46,
      "noteNumber": 46,
      "velocity": 0.58,
      "track": "DRUMS",
      "channel": 9,
      "lane": "F"
    },
    {
      "time": 22.928,
      "duration": 0.214,
      "midi": 69,
      "noteNumber": 69,
      "velocity": 0.5,
      "track": "DRUMS",
      "channel": 9,
      "lane": "K"
    },
    {
      "time": 23.143,
      "duration": 0.518,
      "midi": 48,
      "noteNumber": 48,
      "velocity": 0.63,
      "track": "(unnamed)",
      "channel": 1,
      "lane": "F"
    },
    {
      "time": 23.143,
      "duration": 0.214,
      "midi": 35,
      "noteNumber": 35,
      "velocity": 0.5,
      "track": "DRUMS",
      "channel": 9,
      "lane": "D"
    },
    {
      "time": 23.143,
      "duration": 0.214,
      "midi": 42,
      "noteNumber": 42,
      "velocity": 0.58,
      "track": "DRUMS",
      "channel": 9,
      "lane": "D"
    },
    {
      "time": 23.143,
      "duration": 0.214,
      "midi": 69,
      "noteNumber": 69,
      "velocity": 0.5,
      "track": "DRUMS",
      "channel": 9,
      "lane": "K"
    },
    {
      "time": 23.357,
      "duration": 0.214,
      "midi": 37,
      "noteNumber": 37,
      "velocity": 0.74,
      "track": "DRUMS",
      "channel": 9,
      "lane": "D"
    },
    {
      "time": 23.357,
      "duration": 0.214,
      "midi": 42,
      "noteNumber": 42,
      "velocity": 0.58,
      "track": "DRUMS",
      "channel": 9,
      "lane": "D"
    },
    {
      "time": 23.357,
      "duration": 0.214,
      "midi": 69,
      "noteNumber": 69,
      "velocity": 0.43,
      "track": "DRUMS",
      "channel": 9,
      "lane": "K"
    },
    {
      "time": 23.377,
      "duration": 0.266,
      "midi": 62,
      "noteNumber": 62,
      "velocity": 0.83,
      "track": "(unnamed)",
      "channel": 2,
      "lane": "J"
    },
    {
      "time": 23.571,
      "duration": 0.214,
      "midi": 42,
      "noteNumber": 42,
      "velocity": 0.58,
      "track": "DRUMS",
      "channel": 9,
      "lane": "D"
    },
    {
      "time": 23.571,
      "duration": 0.214,
      "midi": 69,
      "noteNumber": 69,
      "velocity": 0.43,
      "track": "DRUMS",
      "channel": 9,
      "lane": "K"
    },
    {
      "time": 23.578,
      "duration": 0.275,
      "midi": 64,
      "noteNumber": 64,
      "velocity": 0.81,
      "track": "(unnamed)",
      "channel": 2,
      "lane": "J"
    },
    {
      "time": 23.786,
      "duration": 0.092,
      "midi": 41,
      "noteNumber": 41,
      "velocity": 0.54,
      "track": "(unnamed)",
      "channel": 1,
      "lane": "D"
    },
    {
      "time": 23.786,
      "duration": 0.214,
      "midi": 35,
      "noteNumber": 35,
      "velocity": 0.58,
      "track": "DRUMS",
      "channel": 9,
      "lane": "D"
    },
    {
      "time": 23.786,
      "duration": 0.214,
      "midi": 46,
      "noteNumber": 46,
      "velocity": 0.5,
      "track": "DRUMS",
      "channel": 9,
      "lane": "F"
    },
    {
      "time": 23.786,
      "duration": 0.214,
      "midi": 69,
      "noteNumber": 69,
      "velocity": 0.5,
      "track": "DRUMS",
      "channel": 9,
      "lane": "K"
    },
    {
      "time": 23.817,
      "duration": 1.089,
      "midi": 65,
      "noteNumber": 65,
      "velocity": 0.8,
      "track": "(unnamed)",
      "channel": 2,
      "lane": "J"
    },
    {
      "time": 24,
      "duration": 0.502,
      "midi": 35,
      "noteNumber": 35,
      "velocity": 0.59,
      "track": "(unnamed)",
      "channel": 1,
      "lane": "D"
    },
    {
      "time": 24,
      "duration": 0.214,
      "midi": 35,
      "noteNumber": 35,
      "velocity": 0.5,
      "track": "DRUMS",
      "channel": 9,
      "lane": "D"
    },
    {
      "time": 24,
      "duration": 0.214,
      "midi": 37,
      "noteNumber": 37,
      "velocity": 0.66,
      "track": "DRUMS",
      "channel": 9,
      "lane": "D"
    },
    {
      "time": 24,
      "duration": 0.214,
      "midi": 42,
      "noteNumber": 42,
      "velocity": 0.69,
      "track": "DRUMS",
      "channel": 9,
      "lane": "D"
    },
    {
      "time": 24,
      "duration": 0.214,
      "midi": 69,
      "noteNumber": 69,
      "velocity": 0.5,
      "track": "DRUMS",
      "channel": 9,
      "lane": "K"
    },
    {
      "time": 24.214,
      "duration": 0.214,
      "midi": 42,
      "noteNumber": 42,
      "velocity": 0.5,
      "track": "DRUMS",
      "channel": 9,
      "lane": "D"
    },
    {
      "time": 24.214,
      "duration": 0.214,
      "midi": 69,
      "noteNumber": 69,
      "velocity": 0.43,
      "track": "DRUMS",
      "channel": 9,
      "lane": "K"
    },
    {
      "time": 24.243,
      "duration": 1.112,
      "midi": 47,
      "noteNumber": 47,
      "velocity": 0.87,
      "track": "(unnamed)",
      "channel": 2,
      "lane": "F"
    },
    {
      "time": 24.428,
      "duration": 0.214,
      "midi": 42,
      "noteNumber": 42,
      "velocity": 0.5,
      "track": "DRUMS",
      "channel": 9,
      "lane": "D"
    },
    {
      "time": 24.428,
      "duration": 0.214,
      "midi": 69,
      "noteNumber": 69,
      "velocity": 0.43,
      "track": "DRUMS",
      "channel": 9,
      "lane": "K"
    },
    {
      "time": 24.449,
      "duration": 1.007,
      "midi": 57,
      "noteNumber": 57,
      "velocity": 0.76,
      "track": "(unnamed)",
      "channel": 2,
      "lane": "J"
    },
    {
      "time": 24.643,
      "duration": 0.109,
      "midi": 41,
      "noteNumber": 41,
      "velocity": 0.43,
      "track": "(unnamed)",
      "channel": 1,
      "lane": "D"
    },
    {
      "time": 24.643,
      "duration": 0.214,
      "midi": 35,
      "noteNumber": 35,
      "velocity": 0.43,
      "track": "DRUMS",
      "channel": 9,
      "lane": "D"
    },
    {
      "time": 24.643,
      "duration": 0.214,
      "midi": 37,
      "noteNumber": 37,
      "velocity": 0.74,
      "track": "DRUMS",
      "channel": 9,
      "lane": "D"
    },
    {
      "time": 24.643,
      "duration": 0.214,
      "midi": 42,
      "noteNumber": 42,
      "velocity": 0.5,
      "track": "DRUMS",
      "channel": 9,
      "lane": "D"
    },
    {
      "time": 24.643,
      "duration": 0.214,
      "midi": 69,
      "noteNumber": 69,
      "velocity": 0.43,
      "track": "DRUMS",
      "channel": 9,
      "lane": "K"
    },
    {
      "time": 24.656,
      "duration": 0.868,
      "midi": 62,
      "noteNumber": 62,
      "velocity": 0.78,
      "track": "(unnamed)",
      "channel": 2,
      "lane": "J"
    },
    {
      "time": 24.857,
      "duration": 0.545,
      "midi": 41,
      "noteNumber": 41,
      "velocity": 0.54,
      "track": "(unnamed)",
      "channel": 1,
      "lane": "D"
    },
    {
      "time": 24.857,
      "duration": 0.214,
      "midi": 35,
      "noteNumber": 35,
      "velocity": 0.5,
      "track": "DRUMS",
      "channel": 9,
      "lane": "D"
    },
    {
      "time": 24.857,
      "duration": 0.214,
      "midi": 42,
      "noteNumber": 42,
      "velocity": 0.58,
      "track": "DRUMS",
      "channel": 9,
      "lane": "D"
    },
    {
      "time": 24.857,
      "duration": 0.214,
      "midi": 69,
      "noteNumber": 69,
      "velocity": 0.5,
      "track": "DRUMS",
      "channel": 9,
      "lane": "K"
    },
    {
      "time": 24.906,
      "duration": 0.491,
      "midi": 65,
      "noteNumber": 65,
      "velocity": 0.76,
      "track": "(unnamed)",
      "channel": 2,
      "lane": "J"
    },
    {
      "time": 25.071,
      "duration": 0.214,
      "midi": 42,
      "noteNumber": 42,
      "velocity": 0.5,
      "track": "DRUMS",
      "channel": 9,
      "lane": "D"
    },
    {
      "time": 25.071,
      "duration": 0.214,
      "midi": 69,
      "noteNumber": 69,
      "velocity": 0.43,
      "track": "DRUMS",
      "channel": 9,
      "lane": "K"
    },
    {
      "time": 25.286,
      "duration": 0.214,
      "midi": 37,
      "noteNumber": 37,
      "velocity": 0.66,
      "track": "DRUMS",
      "channel": 9,
      "lane": "D"
    },
    {
      "time": 25.286,
      "duration": 0.214,
      "midi": 42,
      "noteNumber": 42,
      "velocity": 0.58,
      "track": "DRUMS",
      "channel": 9,
      "lane": "D"
    },
    {
      "time": 25.286,
      "duration": 0.214,
      "midi": 45,
      "noteNumber": 45,
      "velocity": 0.5,
      "track": "DRUMS",
      "channel": 9,
      "lane": "F"
    },
    {
      "time": 25.286,
      "duration": 0.214,
      "midi": 69,
      "noteNumber": 69,
      "velocity": 0.43,
      "track": "DRUMS",
      "channel": 9,
      "lane": "K"
    },
    {
      "time": 25.5,
      "duration": 0.107,
      "midi": 35,
      "noteNumber": 35,
      "velocity": 0.47,
      "track": "(unnamed)",
      "channel": 1,
      "lane": "D"
    },
    {
      "time": 25.5,
      "duration": 0.214,
      "midi": 35,
      "noteNumber": 35,
      "velocity": 0.43,
      "track": "DRUMS",
      "channel": 9,
      "lane": "D"
    },
    {
      "time": 25.5,
      "duration": 0.214,
      "midi": 45,
      "noteNumber": 45,
      "velocity": 0.5,
      "track": "DRUMS",
      "channel": 9,
      "lane": "F"
    },
    {
      "time": 25.5,
      "duration": 0.214,
      "midi": 46,
      "noteNumber": 46,
      "velocity": 0.66,
      "track": "DRUMS",
      "channel": 9,
      "lane": "F"
    },
    {
      "time": 25.5,
      "duration": 0.214,
      "midi": 69,
      "noteNumber": 69,
      "velocity": 0.43,
      "track": "DRUMS",
      "channel": 9,
      "lane": "K"
    },
    {
      "time": 25.52,
      "duration": 0.23,
      "midi": 59,
      "noteNumber": 59,
      "velocity": 0.8,
      "track": "(unnamed)",
      "channel": 2,
      "lane": "J"
    },
    {
      "time": 25.714,
      "duration": 0.538,
      "midi": 40,
      "noteNumber": 40,
      "velocity": 0.65,
      "track": "(unnamed)",
      "channel": 1,
      "lane": "D"
    },
    {
      "time": 25.714,
      "duration": 0.214,
      "midi": 35,
      "noteNumber": 35,
      "velocity": 0.5,
      "track": "DRUMS",
      "channel": 9,
      "lane": "D"
    },
    {
      "time": 25.714,
      "duration": 0.214,
      "midi": 42,
      "noteNumber": 42,
      "velocity": 0.58,
      "track": "DRUMS",
      "channel": 9,
      "lane": "D"
    },
    {
      "time": 25.714,
      "duration": 0.214,
      "midi": 69,
      "noteNumber": 69,
      "velocity": 0.5,
      "track": "DRUMS",
      "channel": 9,
      "lane": "K"
    },
    {
      "time": 25.75,
      "duration": 0.603,
      "midi": 59,
      "noteNumber": 59,
      "velocity": 0.72,
      "track": "(unnamed)",
      "channel": 2,
      "lane": "J"
    },
    {
      "time": 25.928,
      "duration": 0.214,
      "midi": 42,
      "noteNumber": 42,
      "velocity": 0.5,
      "track": "DRUMS",
      "channel": 9,
      "lane": "D"
    },
    {
      "time": 25.928,
      "duration": 0.214,
      "midi": 69,
      "noteNumber": 69,
      "velocity": 0.43,
      "track": "DRUMS",
      "channel": 9,
      "lane": "K"
    },
    {
      "time": 26.143,
      "duration": 0.214,
      "midi": 37,
      "noteNumber": 37,
      "velocity": 0.66,
      "track": "DRUMS",
      "channel": 9,
      "lane": "D"
    },
    {
      "time": 26.143,
      "duration": 0.214,
      "midi": 42,
      "noteNumber": 42,
      "velocity": 0.58,
      "track": "DRUMS",
      "channel": 9,
      "lane": "D"
    },
    {
      "time": 26.143,
      "duration": 0.214,
      "midi": 69,
      "noteNumber": 69,
      "velocity": 0.43,
      "track": "DRUMS",
      "channel": 9,
      "lane": "K"
    },
    {
      "time": 26.357,
      "duration": 0.114,
      "midi": 47,
      "noteNumber": 47,
      "velocity": 0.5,
      "track": "(unnamed)",
      "channel": 1,
      "lane": "F"
    },
    {
      "time": 26.357,
      "duration": 0.214,
      "midi": 35,
      "noteNumber": 35,
      "velocity": 0.5,
      "track": "DRUMS",
      "channel": 9,
      "lane": "D"
    },
    {
      "time": 26.357,
      "duration": 0.214,
      "midi": 46,
      "noteNumber": 46,
      "velocity": 0.58,
      "track": "DRUMS",
      "channel": 9,
      "lane": "F"
    },
    {
      "time": 26.357,
      "duration": 0.214,
      "midi": 69,
      "noteNumber": 69,
      "velocity": 0.5,
      "track": "DRUMS",
      "channel": 9,
      "lane": "K"
    },
    {
      "time": 26.571,
      "duration": 0.609,
      "midi": 47,
      "noteNumber": 47,
      "velocity": 0.65,
      "track": "(unnamed)",
      "channel": 1,
      "lane": "F"
    },
    {
      "time": 26.571,
      "duration": 0.214,
      "midi": 35,
      "noteNumber": 35,
      "velocity": 0.5,
      "track": "DRUMS",
      "channel": 9,
      "lane": "D"
    },
    {
      "time": 26.571,
      "duration": 0.214,
      "midi": 42,
      "noteNumber": 42,
      "velocity": 0.58,
      "track": "DRUMS",
      "channel": 9,
      "lane": "D"
    },
    {
      "time": 26.571,
      "duration": 0.214,
      "midi": 69,
      "noteNumber": 69,
      "velocity": 0.5,
      "track": "DRUMS",
      "channel": 9,
      "lane": "K"
    },
    {
      "time": 26.591,
      "duration": 0.239,
      "midi": 52,
      "noteNumber": 52,
      "velocity": 0.8,
      "track": "(unnamed)",
      "channel": 2,
      "lane": "F"
    },
    {
      "time": 26.786,
      "duration": 0.214,
      "midi": 37,
      "noteNumber": 37,
      "velocity": 0.74,
      "track": "DRUMS",
      "channel": 9,
      "lane": "D"
    },
    {
      "time": 26.786,
      "duration": 0.214,
      "midi": 42,
      "noteNumber": 42,
      "velocity": 0.58,
      "track": "DRUMS",
      "channel": 9,
      "lane": "D"
    },
    {
      "time": 26.786,
      "duration": 0.214,
      "midi": 69,
      "noteNumber": 69,
      "velocity": 0.43,
      "track": "DRUMS",
      "channel": 9,
      "lane": "K"
    },
    {
      "time": 26.81,
      "duration": 0.21,
      "midi": 56,
      "noteNumber": 56,
      "velocity": 0.77,
      "track": "(unnamed)",
      "channel": 2,
      "lane": "F"
    },
    {
      "time": 27,
      "duration": 0.214,
      "midi": 42,
      "noteNumber": 42,
      "velocity": 0.58,
      "track": "DRUMS",
      "channel": 9,
      "lane": "D"
    },
    {
      "time": 27,
      "duration": 0.214,
      "midi": 45,
      "noteNumber": 45,
      "velocity": 0.5,
      "track": "DRUMS",
      "channel": 9,
      "lane": "F"
    },
    {
      "time": 27,
      "duration": 0.214,
      "midi": 69,
      "noteNumber": 69,
      "velocity": 0.43,
      "track": "DRUMS",
      "channel": 9,
      "lane": "K"
    },
    {
      "time": 27.029,
      "duration": 0.192,
      "midi": 59,
      "noteNumber": 59,
      "velocity": 0.88,
      "track": "(unnamed)",
      "channel": 2,
      "lane": "J"
    },
    {
      "time": 27.214,
      "duration": 0.089,
      "midi": 40,
      "noteNumber": 40,
      "velocity": 0.57,
      "track": "(unnamed)",
      "channel": 1,
      "lane": "D"
    },
    {
      "time": 27.214,
      "duration": 0.214,
      "midi": 35,
      "noteNumber": 35,
      "velocity": 0.58,
      "track": "DRUMS",
      "channel": 9,
      "lane": "D"
    },
    {
      "time": 27.214,
      "duration": 0.214,
      "midi": 42,
      "noteNumber": 42,
      "velocity": 0.5,
      "track": "DRUMS",
      "channel": 9,
      "lane": "D"
    },
    {
      "time": 27.214,
      "duration": 0.214,
      "midi": 45,
      "noteNumber": 45,
      "velocity": 0.5,
      "track": "DRUMS",
      "channel": 9,
      "lane": "F"
    },
    {
      "time": 27.214,
      "duration": 0.214,
      "midi": 69,
      "noteNumber": 69,
      "velocity": 0.5,
      "track": "DRUMS",
      "channel": 9,
      "lane": "K"
    },
    {
      "time": 27.234,
      "duration": 0.234,
      "midi": 62,
      "noteNumber": 62,
      "velocity": 0.83,
      "track": "(unnamed)",
      "channel": 2,
      "lane": "J"
    },
    {
      "time": 27.428,
      "duration": 0.507,
      "midi": 33,
      "noteNumber": 33,
      "velocity": 0.63,
      "track": "(unnamed)",
      "channel": 1,
      "lane": "D"
    },
    {
      "time": 27.428,
      "duration": 0.214,
      "midi": 35,
      "noteNumber": 35,
      "velocity": 0.5,
      "track": "DRUMS",
      "channel": 9,
      "lane": "D"
    },
    {
      "time": 27.428,
      "duration": 0.214,
      "midi": 37,
      "noteNumber": 37,
      "velocity": 0.66,
      "track": "DRUMS",
      "channel": 9,
      "lane": "D"
    },
    {
      "time": 27.428,
      "duration": 0.214,
      "midi": 42,
      "noteNumber": 42,
      "velocity": 0.69,
      "track": "DRUMS",
      "channel": 9,
      "lane": "D"
    },
    {
      "time": 27.428,
      "duration": 0.214,
      "midi": 69,
      "noteNumber": 69,
      "velocity": 0.5,
      "track": "DRUMS",
      "channel": 9,
      "lane": "K"
    },
    {
      "time": 27.453,
      "duration": 0.167,
      "midi": 63,
      "noteNumber": 63,
      "velocity": 0.75,
      "track": "(unnamed)",
      "channel": 2,
      "lane": "J"
    },
    {
      "time": 27.551,
      "duration": 0.279,
      "midi": 64,
      "noteNumber": 64,
      "velocity": 0.75,
      "track": "(unnamed)",
      "channel": 2,
      "lane": "J"
    },
    {
      "time": 27.643,
      "duration": 0.214,
      "midi": 42,
      "noteNumber": 42,
      "velocity": 0.5,
      "track": "DRUMS",
      "channel": 9,
      "lane": "D"
    },
    {
      "time": 27.643,
      "duration": 0.214,
      "midi": 69,
      "noteNumber": 69,
      "velocity": 0.43,
      "track": "DRUMS",
      "channel": 9,
      "lane": "K"
    },
    {
      "time": 27.857,
      "duration": 0.214,
      "midi": 42,
      "noteNumber": 42,
      "velocity": 0.5,
      "track": "DRUMS",
      "channel": 9,
      "lane": "D"
    },
    {
      "time": 27.857,
      "duration": 0.214,
      "midi": 48,
      "noteNumber": 48,
      "velocity": 0.5,
      "track": "DRUMS",
      "channel": 9,
      "lane": "F"
    },
    {
      "time": 27.857,
      "duration": 0.214,
      "midi": 69,
      "noteNumber": 69,
      "velocity": 0.43,
      "track": "DRUMS",
      "channel": 9,
      "lane": "K"
    },
    {
      "time": 27.888,
      "duration": 0.225,
      "midi": 60,
      "noteNumber": 60,
      "velocity": 0.78,
      "track": "(unnamed)",
      "channel": 2,
      "lane": "J"
    },
    {
      "time": 28.071,
      "duration": 0.114,
      "midi": 33,
      "noteNumber": 33,
      "velocity": 0.53,
      "track": "(unnamed)",
      "channel": 1,
      "lane": "D"
    },
    {
      "time": 28.071,
      "duration": 0.214,
      "midi": 35,
      "noteNumber": 35,
      "velocity": 0.43,
      "track": "DRUMS",
      "channel": 9,
      "lane": "D"
    },
    {
      "time": 28.071,
      "duration": 0.214,
      "midi": 37,
      "noteNumber": 37,
      "velocity": 0.74,
      "track": "DRUMS",
      "channel": 9,
      "lane": "D"
    },
    {
      "time": 28.071,
      "duration": 0.214,
      "midi": 42,
      "noteNumber": 42,
      "velocity": 0.5,
      "track": "DRUMS",
      "channel": 9,
      "lane": "D"
    },
    {
      "time": 28.071,
      "duration": 0.214,
      "midi": 69,
      "noteNumber": 69,
      "velocity": 0.43,
      "track": "DRUMS",
      "channel": 9,
      "lane": "K"
    },
    {
      "time": 28.109,
      "duration": 0.795,
      "midi": 57,
      "noteNumber": 57,
      "velocity": 0.65,
      "track": "(unnamed)",
      "channel": 2,
      "lane": "J"
    },
    {
      "time": 28.286,
      "duration": 0.484,
      "midi": 42,
      "noteNumber": 42,
      "velocity": 0.61,
      "track": "(unnamed)",
      "channel": 1,
      "lane": "D"
    },
    {
      "time": 28.286,
      "duration": 0.214,
      "midi": 35,
      "noteNumber": 35,
      "velocity": 0.5,
      "track": "DRUMS",
      "channel": 9,
      "lane": "D"
    },
    {
      "time": 28.286,
      "duration": 0.214,
      "midi": 42,
      "noteNumber": 42,
      "velocity": 0.58,
      "track": "DRUMS",
      "channel": 9,
      "lane": "D"
    },
    {
      "time": 28.286,
      "duration": 0.214,
      "midi": 69,
      "noteNumber": 69,
      "velocity": 0.5,
      "track": "DRUMS",
      "channel": 9,
      "lane": "K"
    },
    {
      "time": 28.5,
      "duration": 0.214,
      "midi": 42,
      "noteNumber": 42,
      "velocity": 0.5,
      "track": "DRUMS",
      "channel": 9,
      "lane": "D"
    },
    {
      "time": 28.5,
      "duration": 0.214,
      "midi": 69,
      "noteNumber": 69,
      "velocity": 0.43,
      "track": "DRUMS",
      "channel": 9,
      "lane": "K"
    },
    {
      "time": 28.714,
      "duration": 0.214,
      "midi": 37,
      "noteNumber": 37,
      "velocity": 0.66,
      "track": "DRUMS",
      "channel": 9,
      "lane": "D"
    },
    {
      "time": 28.714,
      "duration": 0.214,
      "midi": 42,
      "noteNumber": 42,
      "velocity": 0.58,
      "track": "DRUMS",
      "channel": 9,
      "lane": "D"
    },
    {
      "time": 28.714,
      "duration": 0.214,
      "midi": 69,
      "noteNumber": 69,
      "velocity": 0.43,
      "track": "DRUMS",
      "channel": 9,
      "lane": "K"
    },
    {
      "time": 28.928,
      "duration": 0.092,
      "midi": 42,
      "noteNumber": 42,
      "velocity": 0.46,
      "track": "(unnamed)",
      "channel": 1,
      "lane": "D"
    },
    {
      "time": 28.928,
      "duration": 0.214,
      "midi": 35,
      "noteNumber": 35,
      "velocity": 0.43,
      "track": "DRUMS",
      "channel": 9,
      "lane": "D"
    },
    {
      "time": 28.928,
      "duration": 0.214,
      "midi": 46,
      "noteNumber": 46,
      "velocity": 0.66,
      "track": "DRUMS",
      "channel": 9,
      "lane": "F"
    },
    {
      "time": 28.928,
      "duration": 0.214,
      "midi": 69,
      "noteNumber": 69,
      "velocity": 0.43,
      "track": "DRUMS",
      "channel": 9,
      "lane": "K"
    },
    {
      "time": 28.949,
      "duration": 0.205,
      "midi": 54,
      "noteNumber": 54,
      "velocity": 0.84,
      "track": "(unnamed)",
      "channel": 2,
      "lane": "F"
    },
    {
      "time": 29.143,
      "duration": 0.46,
      "midi": 35,
      "noteNumber": 35,
      "velocity": 0.59,
      "track": "(unnamed)",
      "channel": 1,
      "lane": "D"
    },
    {
      "time": 29.143,
      "duration": 0.214,
      "midi": 42,
      "noteNumber": 42,
      "velocity": 0.5,
      "track": "DRUMS",
      "channel": 9,
      "lane": "D"
    },
    {
      "time": 29.143,
      "duration": 0.214,
      "midi": 69,
      "noteNumber": 69,
      "velocity": 0.66,
      "track": "DRUMS",
      "channel": 9,
      "lane": "K"
    },
    {
      "time": 29.25,
      "duration": 0.098,
      "midi": 63,
      "noteNumber": 63,
      "velocity": 0.59,
      "track": "(unnamed)",
      "channel": 2,
      "lane": "J"
    },
    {
      "time": 29.288,
      "duration": 0.185,
      "midi": 64,
      "noteNumber": 64,
      "velocity": 0.85,
      "track": "(unnamed)",
      "channel": 2,
      "lane": "J"
    },
    {
      "time": 29.357,
      "duration": 0.214,
      "midi": 42,
      "noteNumber": 42,
      "velocity": 0.43,
      "track": "DRUMS",
      "channel": 9,
      "lane": "D"
    },
    {
      "time": 29.357,
      "duration": 0.214,
      "midi": 48,
      "noteNumber": 48,
      "velocity": 0.43,
      "track": "DRUMS",
      "channel": 9,
      "lane": "F"
    },
    {
      "time": 29.357,
      "duration": 0.214,
      "midi": 69,
      "noteNumber": 69,
      "velocity": 0.43,
      "track": "DRUMS",
      "channel": 9,
      "lane": "K"
    },
    {
      "time": 29.435,
      "duration": 0.181,
      "midi": 62,
      "noteNumber": 62,
      "velocity": 0.8,
      "track": "(unnamed)",
      "channel": 2,
      "lane": "J"
    },
    {
      "time": 29.571,
      "duration": 0.001,
      "midi": 37,
      "noteNumber": 37,
      "velocity": 0.66,
      "track": "DRUMS",
      "channel": 9,
      "lane": "D"
    },
    {
      "time": 29.571,
      "duration": 0.214,
      "midi": 37,
      "noteNumber": 37,
      "velocity": 0.43,
      "track": "DRUMS",
      "channel": 9,
      "lane": "D"
    },
    {
      "time": 29.571,
      "duration": 0.214,
      "midi": 42,
      "noteNumber": 42,
      "velocity": 0.5,
      "track": "DRUMS",
      "channel": 9,
      "lane": "D"
    },
    {
      "time": 29.603,
      "duration": 0.281,
      "midi": 60,
      "noteNumber": 60,
      "velocity": 0.69,
      "track": "(unnamed)",
      "channel": 2,
      "lane": "J"
    },
    {
      "time": 29.786,
      "duration": 0.121,
      "midi": 35,
      "noteNumber": 35,
      "velocity": 0.48,
      "track": "(unnamed)",
      "channel": 1,
      "lane": "D"
    },
    {
      "time": 29.786,
      "duration": 0.214,
      "midi": 37,
      "noteNumber": 37,
      "velocity": 0.43,
      "track": "DRUMS",
      "channel": 9,
      "lane": "D"
    },
    {
      "time": 29.786,
      "duration": 0.214,
      "midi": 42,
      "noteNumber": 42,
      "velocity": 0.5,
      "track": "DRUMS",
      "channel": 9,
      "lane": "D"
    },
    {
      "time": 29.786,
      "duration": 0.214,
      "midi": 45,
      "noteNumber": 45,
      "velocity": 0.43,
      "track": "DRUMS",
      "channel": 9,
      "lane": "F"
    },
    {
      "time": 29.839,
      "duration": 0.406,
      "midi": 62,
      "noteNumber": 62,
      "velocity": 0.8,
      "track": "(unnamed)",
      "channel": 2,
      "lane": "J"
    },
    {
      "time": 30,
      "duration": 0.614,
      "midi": 40,
      "noteNumber": 40,
      "velocity": 0.62,
      "track": "(unnamed)",
      "channel": 1,
      "lane": "D"
    },
    {
      "time": 30,
      "duration": 0.214,
      "midi": 37,
      "noteNumber": 37,
      "velocity": 0.5,
      "track": "DRUMS",
      "channel": 9,
      "lane": "D"
    },
    {
      "time": 30,
      "duration": 0.214,
      "midi": 42,
      "noteNumber": 42,
      "velocity": 0.5,
      "track": "DRUMS",
      "channel": 9,
      "lane": "D"
    },
    {
      "time": 30,
      "duration": 0.214,
      "midi": 48,
      "noteNumber": 48,
      "velocity": 0.5,
      "track": "DRUMS",
      "channel": 9,
      "lane": "F"
    },
    {
      "time": 30.214,
      "duration": 0.214,
      "midi": 37,
      "noteNumber": 37,
      "velocity": 0.43,
      "track": "DRUMS",
      "channel": 9,
      "lane": "D"
    },
    {
      "time": 30.214,
      "duration": 0.214,
      "midi": 42,
      "noteNumber": 42,
      "velocity": 0.5,
      "track": "DRUMS",
      "channel": 9,
      "lane": "D"
    },
    {
      "time": 30.214,
      "duration": 0.214,
      "midi": 48,
      "noteNumber": 48,
      "velocity": 0.5,
      "track": "DRUMS",
      "channel": 9,
      "lane": "F"
    },
    {
      "time": 30.228,
      "duration": 0.516,
      "midi": 64,
      "noteNumber": 64,
      "velocity": 0.88,
      "track": "(unnamed)",
      "channel": 2,
      "lane": "J"
    },
    {
      "time": 30.428,
      "duration": 0.214,
      "midi": 37,
      "noteNumber": 37,
      "velocity": 0.43,
      "track": "DRUMS",
      "channel": 9,
      "lane": "D"
    },
    {
      "time": 30.428,
      "duration": 0.214,
      "midi": 42,
      "noteNumber": 42,
      "velocity": 0.5,
      "track": "DRUMS",
      "channel": 9,
      "lane": "D"
    },
    {
      "time": 30.428,
      "duration": 0.214,
      "midi": 48,
      "noteNumber": 48,
      "velocity": 0.54,
      "track": "DRUMS",
      "channel": 9,
      "lane": "F"
    },
    {
      "time": 30.643,
      "duration": 0.089,
      "midi": 40,
      "noteNumber": 40,
      "velocity": 0.45,
      "track": "(unnamed)",
      "channel": 1,
      "lane": "D"
    },
    {
      "time": 30.643,
      "duration": 0.214,
      "midi": 37,
      "noteNumber": 37,
      "velocity": 0.43,
      "track": "DRUMS",
      "channel": 9,
      "lane": "D"
    },
    {
      "time": 30.643,
      "duration": 0.214,
      "midi": 42,
      "noteNumber": 42,
      "velocity": 0.5,
      "track": "DRUMS",
      "channel": 9,
      "lane": "D"
    },
    {
      "time": 30.643,
      "duration": 0.214,
      "midi": 48,
      "noteNumber": 48,
      "velocity": 0.5,
      "track": "DRUMS",
      "channel": 9,
      "lane": "F"
    },
    {
      "time": 30.857,
      "duration": 0.536,
      "midi": 33,
      "noteNumber": 33,
      "velocity": 0.6,
      "track": "(unnamed)",
      "channel": 1,
      "lane": "D"
    },
    {
      "time": 30.857,
      "duration": 0.214,
      "midi": 35,
      "noteNumber": 35,
      "velocity": 0.5,
      "track": "DRUMS",
      "channel": 9,
      "lane": "D"
    },
    {
      "time": 30.857,
      "duration": 0.214,
      "midi": 37,
      "noteNumber": 37,
      "velocity": 0.66,
      "track": "DRUMS",
      "channel": 9,
      "lane": "D"
    },
    {
      "time": 30.857,
      "duration": 0.214,
      "midi": 42,
      "noteNumber": 42,
      "velocity": 0.69,
      "track": "DRUMS",
      "channel": 9,
      "lane": "D"
    },
    {
      "time": 30.857,
      "duration": 0.214,
      "midi": 69,
      "noteNumber": 69,
      "velocity": 0.5,
      "track": "DRUMS",
      "channel": 9,
      "lane": "K"
    },
    {
      "time": 30.897,
      "duration": 0.654,
      "midi": 64,
      "noteNumber": 64,
      "velocity": 0.79,
      "track": "(unnamed)",
      "channel": 2,
      "lane": "J"
    },
    {
      "time": 30.906,
      "duration": 0.625,
      "midi": 72,
      "noteNumber": 72,
      "velocity": 0.83,
      "track": "(unnamed)",
      "channel": 2,
      "lane": "K"
    },
    {
      "time": 31.071,
      "duration": 0.214,
      "midi": 42,
      "noteNumber": 42,
      "velocity": 0.5,
      "track": "DRUMS",
      "channel": 9,
      "lane": "D"
    },
    {
      "time": 31.071,
      "duration": 0.214,
      "midi": 69,
      "noteNumber": 69,
      "velocity": 0.43,
      "track": "DRUMS",
      "channel": 9,
      "lane": "K"
    },
    {
      "time": 31.286,
      "duration": 0.214,
      "midi": 42,
      "noteNumber": 42,
      "velocity": 0.5,
      "track": "DRUMS",
      "channel": 9,
      "lane": "D"
    },
    {
      "time": 31.286,
      "duration": 0.214,
      "midi": 69,
      "noteNumber": 69,
      "velocity": 0.43,
      "track": "DRUMS",
      "channel": 9,
      "lane": "K"
    },
    {
      "time": 31.5,
      "duration": 0.121,
      "midi": 40,
      "noteNumber": 40,
      "velocity": 0.54,
      "track": "(unnamed)",
      "channel": 1,
      "lane": "D"
    },
    {
      "time": 31.5,
      "duration": 0.214,
      "midi": 35,
      "noteNumber": 35,
      "velocity": 0.43,
      "track": "DRUMS",
      "channel": 9,
      "lane": "D"
    },
    {
      "time": 31.5,
      "duration": 0.214,
      "midi": 37,
      "noteNumber": 37,
      "velocity": 0.74,
      "track": "DRUMS",
      "channel": 9,
      "lane": "D"
    },
    {
      "time": 31.5,
      "duration": 0.214,
      "midi": 42,
      "noteNumber": 42,
      "velocity": 0.5,
      "track": "DRUMS",
      "channel": 9,
      "lane": "D"
    },
    {
      "time": 31.5,
      "duration": 0.214,
      "midi": 69,
      "noteNumber": 69,
      "velocity": 0.43,
      "track": "DRUMS",
      "channel": 9,
      "lane": "K"
    },
    {
      "time": 31.527,
      "duration": 0.585,
      "midi": 62,
      "noteNumber": 62,
      "velocity": 0.79,
      "track": "(unnamed)",
      "channel": 2,
      "lane": "J"
    },
    {
      "time": 31.531,
      "duration": 0.558,
      "midi": 71,
      "noteNumber": 71,
      "velocity": 0.86,
      "track": "(unnamed)",
      "channel": 2,
      "lane": "K"
    },
    {
      "time": 31.714,
      "duration": 0.616,
      "midi": 40,
      "noteNumber": 40,
      "velocity": 0.51,
      "track": "(unnamed)",
      "channel": 1,
      "lane": "D"
    },
    {
      "time": 31.714,
      "duration": 0.214,
      "midi": 35,
      "noteNumber": 35,
      "velocity": 0.5,
      "track": "DRUMS",
      "channel": 9,
      "lane": "D"
    },
    {
      "time": 31.714,
      "duration": 0.214,
      "midi": 42,
      "noteNumber": 42,
      "velocity": 0.58,
      "track": "DRUMS",
      "channel": 9,
      "lane": "D"
    },
    {
      "time": 31.714,
      "duration": 0.214,
      "midi": 69,
      "noteNumber": 69,
      "velocity": 0.5,
      "track": "DRUMS",
      "channel": 9,
      "lane": "K"
    },
    {
      "time": 31.928,
      "duration": 0.214,
      "midi": 42,
      "noteNumber": 42,
      "velocity": 0.5,
      "track": "DRUMS",
      "channel": 9,
      "lane": "D"
    },
    {
      "time": 31.928,
      "duration": 0.214,
      "midi": 69,
      "noteNumber": 69,
      "velocity": 0.43,
      "track": "DRUMS",
      "channel": 9,
      "lane": "K"
    },
    {
      "time": 32.143,
      "duration": 0.214,
      "midi": 37,
      "noteNumber": 37,
      "velocity": 0.66,
      "track": "DRUMS",
      "channel": 9,
      "lane": "D"
    },
    {
      "time": 32.143,
      "duration": 0.214,
      "midi": 42,
      "noteNumber": 42,
      "velocity": 0.58,
      "track": "DRUMS",
      "channel": 9,
      "lane": "D"
    },
    {
      "time": 32.143,
      "duration": 0.214,
      "midi": 45,
      "noteNumber": 45,
      "velocity": 0.5,
      "track": "DRUMS",
      "channel": 9,
      "lane": "F"
    },
    {
      "time": 32.143,
      "duration": 0.214,
      "midi": 69,
      "noteNumber": 69,
      "velocity": 0.43,
      "track": "DRUMS",
      "channel": 9,
      "lane": "K"
    },
    {
      "time": 32.161,
      "duration": 0.362,
      "midi": 69,
      "noteNumber": 69,
      "velocity": 0.89,
      "track": "(unnamed)",
      "channel": 2,
      "lane": "K"
    },
    {
      "time": 32.17,
      "duration": 0.362,
      "midi": 60,
      "noteNumber": 60,
      "velocity": 0.67,
      "track": "(unnamed)",
      "channel": 2,
      "lane": "J"
    },
    {
      "time": 32.357,
      "duration": 0.098,
      "midi": 33,
      "noteNumber": 33,
      "velocity": 0.45,
      "track": "(unnamed)",
      "channel": 1,
      "lane": "D"
    },
    {
      "time": 32.357,
      "duration": 0.214,
      "midi": 35,
      "noteNumber": 35,
      "velocity": 0.43,
      "track": "DRUMS",
      "channel": 9,
      "lane": "D"
    },
    {
      "time": 32.357,
      "duration": 0.214,
      "midi": 45,
      "noteNumber": 45,
      "velocity": 0.5,
      "track": "DRUMS",
      "channel": 9,
      "lane": "F"
    },
    {
      "time": 32.357,
      "duration": 0.214,
      "midi": 46,
      "noteNumber": 46,
      "velocity": 0.66,
      "track": "DRUMS",
      "channel": 9,
      "lane": "F"
    },
    {
      "time": 32.357,
      "duration": 0.214,
      "midi": 69,
      "noteNumber": 69,
      "velocity": 0.43,
      "track": "DRUMS",
      "channel": 9,
      "lane": "K"
    },
    {
      "time": 32.571,
      "duration": 0.585,
      "midi": 35,
      "noteNumber": 35,
      "velocity": 0.51,
      "track": "(unnamed)",
      "channel": 1,
      "lane": "D"
    },
    {
      "time": 32.571,
      "duration": 0.214,
      "midi": 35,
      "noteNumber": 35,
      "velocity": 0.5,
      "track": "DRUMS",
      "channel": 9,
      "lane": "D"
    },
    {
      "time": 32.571,
      "duration": 0.214,
      "midi": 42,
      "noteNumber": 42,
      "velocity": 0.58,
      "track": "DRUMS",
      "channel": 9,
      "lane": "D"
    },
    {
      "time": 32.571,
      "duration": 0.214,
      "midi": 69,
      "noteNumber": 69,
      "velocity": 0.5,
      "track": "DRUMS",
      "channel": 9,
      "lane": "K"
    },
    {
      "time": 32.594,
      "duration": 0.54,
      "midi": 69,
      "noteNumber": 69,
      "velocity": 0.99,
      "track": "(unnamed)",
      "channel": 2,
      "lane": "K"
    },
    {
      "time": 32.611,
      "duration": 0.538,
      "midi": 60,
      "noteNumber": 60,
      "velocity": 0.72,
      "track": "(unnamed)",
      "channel": 2,
      "lane": "J"
    },
    {
      "time": 32.786,
      "duration": 0.214,
      "midi": 42,
      "noteNumber": 42,
      "velocity": 0.5,
      "track": "DRUMS",
      "channel": 9,
      "lane": "D"
    },
    {
      "time": 32.786,
      "duration": 0.214,
      "midi": 69,
      "noteNumber": 69,
      "velocity": 0.43,
      "track": "DRUMS",
      "channel": 9,
      "lane": "K"
    },
    {
      "time": 33,
      "duration": 0.214,
      "midi": 37,
      "noteNumber": 37,
      "velocity": 0.66,
      "track": "DRUMS",
      "channel": 9,
      "lane": "D"
    },
    {
      "time": 33,
      "duration": 0.214,
      "midi": 42,
      "noteNumber": 42,
      "velocity": 0.58,
      "track": "DRUMS",
      "channel": 9,
      "lane": "D"
    },
    {
      "time": 33,
      "duration": 0.214,
      "midi": 69,
      "noteNumber": 69,
      "velocity": 0.43,
      "track": "DRUMS",
      "channel": 9,
      "lane": "K"
    },
    {
      "time": 33.214,
      "duration": 0.114,
      "midi": 35,
      "noteNumber": 35,
      "velocity": 0.49,
      "track": "(unnamed)",
      "channel": 1,
      "lane": "D"
    },
    {
      "time": 33.214,
      "duration": 0.214,
      "midi": 35,
      "noteNumber": 35,
      "velocity": 0.5,
      "track": "DRUMS",
      "channel": 9,
      "lane": "D"
    },
    {
      "time": 33.214,
      "duration": 0.214,
      "midi": 42,
      "noteNumber": 42,
      "velocity": 0.58,
      "track": "DRUMS",
      "channel": 9,
      "lane": "D"
    },
    {
      "time": 33.214,
      "duration": 0.214,
      "midi": 69,
      "noteNumber": 69,
      "velocity": 0.5,
      "track": "DRUMS",
      "channel": 9,
      "lane": "K"
    },
    {
      "time": 33.241,
      "duration": 0.781,
      "midi": 68,
      "noteNumber": 68,
      "velocity": 0.86,
      "track": "(unnamed)",
      "channel": 2,
      "lane": "K"
    },
    {
      "time": 33.248,
      "duration": 0.73,
      "midi": 59,
      "noteNumber": 59,
      "velocity": 0.69,
      "track": "(unnamed)",
      "channel": 2,
      "lane": "J"
    },
    {
      "time": 33.428,
      "duration": 0.473,
      "midi": 40,
      "noteNumber": 40,
      "velocity": 0.53,
      "track": "(unnamed)",
      "channel": 1,
      "lane": "D"
    },
    {
      "time": 33.428,
      "duration": 0.214,
      "midi": 35,
      "noteNumber": 35,
      "velocity": 0.5,
      "track": "DRUMS",
      "channel": 9,
      "lane": "D"
    },
    {
      "time": 33.428,
      "duration": 0.214,
      "midi": 42,
      "noteNumber": 42,
      "velocity": 0.58,
      "track": "DRUMS",
      "channel": 9,
      "lane": "D"
    },
    {
      "time": 33.428,
      "duration": 0.214,
      "midi": 69,
      "noteNumber": 69,
      "velocity": 0.5,
      "track": "DRUMS",
      "channel": 9,
      "lane": "K"
    },
    {
      "time": 33.643,
      "duration": 0.214,
      "midi": 37,
      "noteNumber": 37,
      "velocity": 0.74,
      "track": "DRUMS",
      "channel": 9,
      "lane": "D"
    },
    {
      "time": 33.643,
      "duration": 0.214,
      "midi": 42,
      "noteNumber": 42,
      "velocity": 0.58,
      "track": "DRUMS",
      "channel": 9,
      "lane": "D"
    },
    {
      "time": 33.643,
      "duration": 0.214,
      "midi": 69,
      "noteNumber": 69,
      "velocity": 0.43,
      "track": "DRUMS",
      "channel": 9,
      "lane": "K"
    },
    {
      "time": 33.857,
      "duration": 0.214,
      "midi": 42,
      "noteNumber": 42,
      "velocity": 0.58,
      "track": "DRUMS",
      "channel": 9,
      "lane": "D"
    },
    {
      "time": 33.857,
      "duration": 0.214,
      "midi": 45,
      "noteNumber": 45,
      "velocity": 0.5,
      "track": "DRUMS",
      "channel": 9,
      "lane": "F"
    },
    {
      "time": 33.857,
      "duration": 0.214,
      "midi": 69,
      "noteNumber": 69,
      "velocity": 0.43,
      "track": "DRUMS",
      "channel": 9,
      "lane": "K"
    },
    {
      "time": 34.056,
      "duration": 0.232,
      "midi": 71,
      "noteNumber": 71,
      "velocity": 0.65,
      "track": "(unnamed)",
      "channel": 2,
      "lane": "K"
    },
    {
      "time": 34.065,
      "duration": 0.228,
      "midi": 62,
      "noteNumber": 62,
      "velocity": 0.72,
      "track": "(unnamed)",
      "channel": 2,
      "lane": "J"
    },
    {
      "time": 34.071,
      "duration": 0.121,
      "midi": 40,
      "noteNumber": 40,
      "velocity": 0.49,
      "track": "(unnamed)",
      "channel": 1,
      "lane": "D"
    },
    {
      "time": 34.071,
      "duration": 0.214,
      "midi": 35,
      "noteNumber": 35,
      "velocity": 0.58,
      "track": "DRUMS",
      "channel": 9,
      "lane": "D"
    },
    {
      "time": 34.071,
      "duration": 0.214,
      "midi": 42,
      "noteNumber": 42,
      "velocity": 0.5,
      "track": "DRUMS",
      "channel": 9,
      "lane": "D"
    },
    {
      "time": 34.071,
      "duration": 0.214,
      "midi": 45,
      "noteNumber": 45,
      "velocity": 0.5,
      "track": "DRUMS",
      "channel": 9,
      "lane": "F"
    },
    {
      "time": 34.071,
      "duration": 0.214,
      "midi": 69,
      "noteNumber": 69,
      "velocity": 0.5,
      "track": "DRUMS",
      "channel": 9,
      "lane": "K"
    },
    {
      "time": 34.286,
      "duration": 0.578,
      "midi": 33,
      "noteNumber": 33,
      "velocity": 0.56,
      "track": "(unnamed)",
      "channel": 1,
      "lane": "D"
    },
    {
      "time": 34.286,
      "duration": 0.214,
      "midi": 35,
      "noteNumber": 35,
      "velocity": 0.5,
      "track": "DRUMS",
      "channel": 9,
      "lane": "D"
    },
    {
      "time": 34.286,
      "duration": 0.214,
      "midi": 37,
      "noteNumber": 37,
      "velocity": 0.66,
      "track": "DRUMS",
      "channel": 9,
      "lane": "D"
    },
    {
      "time": 34.286,
      "duration": 0.214,
      "midi": 42,
      "noteNumber": 42,
      "velocity": 0.69,
      "track": "DRUMS",
      "channel": 9,
      "lane": "D"
    },
    {
      "time": 34.286,
      "duration": 0.214,
      "midi": 69,
      "noteNumber": 69,
      "velocity": 0.5,
      "track": "DRUMS",
      "channel": 9,
      "lane": "K"
    },
    {
      "time": 34.288,
      "duration": 0.667,
      "midi": 64,
      "noteNumber": 64,
      "velocity": 0.74,
      "track": "(unnamed)",
      "channel": 2,
      "lane": "J"
    },
    {
      "time": 34.292,
      "duration": 0.69,
      "midi": 55,
      "noteNumber": 55,
      "velocity": 0.61,
      "track": "(unnamed)",
      "channel": 2,
      "lane": "F"
    },
    {
      "time": 34.5,
      "duration": 0.214,
      "midi": 42,
      "noteNumber": 42,
      "velocity": 0.5,
      "track": "DRUMS",
      "channel": 9,
      "lane": "D"
    },
    {
      "time": 34.5,
      "duration": 0.214,
      "midi": 69,
      "noteNumber": 69,
      "velocity": 0.43,
      "track": "DRUMS",
      "channel": 9,
      "lane": "K"
    },
    {
      "time": 34.714,
      "duration": 0.214,
      "midi": 42,
      "noteNumber": 42,
      "velocity": 0.5,
      "track": "DRUMS",
      "channel": 9,
      "lane": "D"
    },
    {
      "time": 34.714,
      "duration": 0.214,
      "midi": 69,
      "noteNumber": 69,
      "velocity": 0.43,
      "track": "DRUMS",
      "channel": 9,
      "lane": "K"
    },
    {
      "time": 34.928,
      "duration": 0.089,
      "midi": 39,
      "noteNumber": 39,
      "velocity": 0.5,
      "track": "(unnamed)",
      "channel": 1,
      "lane": "D"
    },
    {
      "time": 34.928,
      "duration": 0.214,
      "midi": 35,
      "noteNumber": 35,
      "velocity": 0.43,
      "track": "DRUMS",
      "channel": 9,
      "lane": "D"
    },
    {
      "time": 34.928,
      "duration": 0.214,
      "midi": 37,
      "noteNumber": 37,
      "velocity": 0.74,
      "track": "DRUMS",
      "channel": 9,
      "lane": "D"
    },
    {
      "time": 34.928,
      "duration": 0.214,
      "midi": 42,
      "noteNumber": 42,
      "velocity": 0.5,
      "track": "DRUMS",
      "channel": 9,
      "lane": "D"
    },
    {
      "time": 34.928,
      "duration": 0.214,
      "midi": 69,
      "noteNumber": 69,
      "velocity": 0.43,
      "track": "DRUMS",
      "channel": 9,
      "lane": "K"
    },
    {
      "time": 34.957,
      "duration": 0.634,
      "midi": 59,
      "noteNumber": 59,
      "velocity": 0.66,
      "track": "(unnamed)",
      "channel": 2,
      "lane": "J"
    },
    {
      "time": 35.143,
      "duration": 0.598,
      "midi": 40,
      "noteNumber": 40,
      "velocity": 0.63,
      "track": "(unnamed)",
      "channel": 1,
      "lane": "D"
    },
    {
      "time": 35.143,
      "duration": 0.214,
      "midi": 35,
      "noteNumber": 35,
      "velocity": 0.5,
      "track": "DRUMS",
      "channel": 9,
      "lane": "D"
    },
    {
      "time": 35.143,
      "duration": 0.214,
      "midi": 42,
      "noteNumber": 42,
      "velocity": 0.58,
      "track": "DRUMS",
      "channel": 9,
      "lane": "D"
    },
    {
      "time": 35.143,
      "duration": 0.214,
      "midi": 69,
      "noteNumber": 69,
      "velocity": 0.5,
      "track": "DRUMS",
      "channel": 9,
      "lane": "K"
    },
    {
      "time": 35.357,
      "duration": 0.214,
      "midi": 42,
      "noteNumber": 42,
      "velocity": 0.5,
      "track": "DRUMS",
      "channel": 9,
      "lane": "D"
    },
    {
      "time": 35.357,
      "duration": 0.214,
      "midi": 69,
      "noteNumber": 69,
      "velocity": 0.43,
      "track": "DRUMS",
      "channel": 9,
      "lane": "K"
    },
    {
      "time": 35.571,
      "duration": 0.214,
      "midi": 37,
      "noteNumber": 37,
      "velocity": 0.66,
      "track": "DRUMS",
      "channel": 9,
      "lane": "D"
    },
    {
      "time": 35.571,
      "duration": 0.214,
      "midi": 42,
      "noteNumber": 42,
      "velocity": 0.58,
      "track": "DRUMS",
      "channel": 9,
      "lane": "D"
    },
    {
      "time": 35.571,
      "duration": 0.214,
      "midi": 69,
      "noteNumber": 69,
      "velocity": 0.43,
      "track": "DRUMS",
      "channel": 9,
      "lane": "K"
    },
    {
      "time": 35.574,
      "duration": 0.663,
      "midi": 57,
      "noteNumber": 57,
      "velocity": 0.66,
      "track": "(unnamed)",
      "channel": 2,
      "lane": "J"
    },
    {
      "time": 35.786,
      "duration": 0.092,
      "midi": 33,
      "noteNumber": 33,
      "velocity": 0.44,
      "track": "(unnamed)",
      "channel": 1,
      "lane": "D"
    },
    {
      "time": 35.786,
      "duration": 0.214,
      "midi": 35,
      "noteNumber": 35,
      "velocity": 0.43,
      "track": "DRUMS",
      "channel": 9,
      "lane": "D"
    },
    {
      "time": 35.786,
      "duration": 0.214,
      "midi": 42,
      "noteNumber": 42,
      "velocity": 0.66,
      "track": "DRUMS",
      "channel": 9,
      "lane": "D"
    },
    {
      "time": 35.786,
      "duration": 0.214,
      "midi": 69,
      "noteNumber": 69,
      "velocity": 0.43,
      "track": "DRUMS",
      "channel": 9,
      "lane": "K"
    },
    {
      "time": 36,
      "duration": 0.542,
      "midi": 35,
      "noteNumber": 35,
      "velocity": 0.65,
      "track": "(unnamed)",
      "channel": 1,
      "lane": "D"
    },
    {
      "time": 36,
      "duration": 0.214,
      "midi": 35,
      "noteNumber": 35,
      "velocity": 0.5,
      "track": "DRUMS",
      "channel": 9,
      "lane": "D"
    },
    {
      "time": 36,
      "duration": 0.214,
      "midi": 42,
      "noteNumber": 42,
      "velocity": 0.58,
      "track": "DRUMS",
      "channel": 9,
      "lane": "D"
    },
    {
      "time": 36,
      "duration": 0.214,
      "midi": 69,
      "noteNumber": 69,
      "velocity": 0.5,
      "track": "DRUMS",
      "channel": 9,
      "lane": "K"
    },
    {
      "time": 36.214,
      "duration": 0.214,
      "midi": 42,
      "noteNumber": 42,
      "velocity": 0.5,
      "track": "DRUMS",
      "channel": 9,
      "lane": "D"
    },
    {
      "time": 36.214,
      "duration": 0.214,
      "midi": 69,
      "noteNumber": 69,
      "velocity": 0.43,
      "track": "DRUMS",
      "channel": 9,
      "lane": "K"
    },
    {
      "time": 36.236,
      "duration": 0.426,
      "midi": 57,
      "noteNumber": 57,
      "velocity": 0.8,
      "track": "(unnamed)",
      "channel": 2,
      "lane": "J"
    },
    {
      "time": 36.424,
      "duration": 0.641,
      "midi": 64,
      "noteNumber": 64,
      "velocity": 0.57,
      "track": "(unnamed)",
      "channel": 2,
      "lane": "J"
    },
    {
      "time": 36.428,
      "duration": 0.214,
      "midi": 37,
      "noteNumber": 37,
      "velocity": 0.66,
      "track": "DRUMS",
      "channel": 9,
      "lane": "D"
    },
    {
      "time": 36.428,
      "duration": 0.214,
      "midi": 42,
      "noteNumber": 42,
      "velocity": 0.58,
      "track": "DRUMS",
      "channel": 9,
      "lane": "D"
    },
    {
      "time": 36.428,
      "duration": 0.214,
      "midi": 69,
      "noteNumber": 69,
      "velocity": 0.43,
      "track": "DRUMS",
      "channel": 9,
      "lane": "K"
    },
    {
      "time": 36.431,
      "duration": 0.487,
      "midi": 62,
      "noteNumber": 62,
      "velocity": 0.65,
      "track": "(unnamed)",
      "channel": 2,
      "lane": "J"
    },
    {
      "time": 36.643,
      "duration": 0.116,
      "midi": 35,
      "noteNumber": 35,
      "velocity": 0.48,
      "track": "(unnamed)",
      "channel": 1,
      "lane": "D"
    },
    {
      "time": 36.643,
      "duration": 0.214,
      "midi": 35,
      "noteNumber": 35,
      "velocity": 0.5,
      "track": "DRUMS",
      "channel": 9,
      "lane": "D"
    },
    {
      "time": 36.643,
      "duration": 0.214,
      "midi": 42,
      "noteNumber": 42,
      "velocity": 0.58,
      "track": "DRUMS",
      "channel": 9,
      "lane": "D"
    },
    {
      "time": 36.643,
      "duration": 0.214,
      "midi": 69,
      "noteNumber": 69,
      "velocity": 0.5,
      "track": "DRUMS",
      "channel": 9,
      "lane": "K"
    },
    {
      "time": 36.663,
      "duration": 0.17,
      "midi": 57,
      "noteNumber": 57,
      "velocity": 0.69,
      "track": "(unnamed)",
      "channel": 2,
      "lane": "J"
    },
    {
      "time": 36.857,
      "duration": 0.467,
      "midi": 40,
      "noteNumber": 40,
      "velocity": 0.57,
      "track": "(unnamed)",
      "channel": 1,
      "lane": "D"
    },
    {
      "time": 36.857,
      "duration": 0.214,
      "midi": 35,
      "noteNumber": 35,
      "velocity": 0.5,
      "track": "DRUMS",
      "channel": 9,
      "lane": "D"
    },
    {
      "time": 36.857,
      "duration": 0.214,
      "midi": 42,
      "noteNumber": 42,
      "velocity": 0.58,
      "track": "DRUMS",
      "channel": 9,
      "lane": "D"
    },
    {
      "time": 36.857,
      "duration": 0.214,
      "midi": 69,
      "noteNumber": 69,
      "velocity": 0.5,
      "track": "DRUMS",
      "channel": 9,
      "lane": "K"
    },
    {
      "time": 36.868,
      "duration": 0.471,
      "midi": 56,
      "noteNumber": 56,
      "velocity": 0.59,
      "track": "(unnamed)",
      "channel": 2,
      "lane": "F"
    },
    {
      "time": 37.071,
      "duration": 0.214,
      "midi": 37,
      "noteNumber": 37,
      "velocity": 0.74,
      "track": "DRUMS",
      "channel": 9,
      "lane": "D"
    },
    {
      "time": 37.071,
      "duration": 0.214,
      "midi": 42,
      "noteNumber": 42,
      "velocity": 0.58,
      "track": "DRUMS",
      "channel": 9,
      "lane": "D"
    },
    {
      "time": 37.071,
      "duration": 0.214,
      "midi": 69,
      "noteNumber": 69,
      "velocity": 0.43,
      "track": "DRUMS",
      "channel": 9,
      "lane": "K"
    },
    {
      "time": 37.082,
      "duration": 0.342,
      "midi": 64,
      "noteNumber": 64,
      "velocity": 0.69,
      "track": "(unnamed)",
      "channel": 2,
      "lane": "J"
    },
    {
      "time": 37.089,
      "duration": 0.315,
      "midi": 62,
      "noteNumber": 62,
      "velocity": 0.6,
      "track": "(unnamed)",
      "channel": 2,
      "lane": "J"
    },
    {
      "time": 37.286,
      "duration": 0.214,
      "midi": 42,
      "noteNumber": 42,
      "velocity": 0.58,
      "track": "DRUMS",
      "channel": 9,
      "lane": "D"
    },
    {
      "time": 37.286,
      "duration": 0.214,
      "midi": 69,
      "noteNumber": 69,
      "velocity": 0.43,
      "track": "DRUMS",
      "channel": 9,
      "lane": "K"
    },
    {
      "time": 37.5,
      "duration": 0.109,
      "midi": 40,
      "noteNumber": 40,
      "velocity": 0.52,
      "track": "(unnamed)",
      "channel": 1,
      "lane": "D"
    },
    {
      "time": 37.5,
      "duration": 0.214,
      "midi": 35,
      "noteNumber": 35,
      "velocity": 0.58,
      "track": "DRUMS",
      "channel": 9,
      "lane": "D"
    },
    {
      "time": 37.5,
      "duration": 0.214,
      "midi": 46,
      "noteNumber": 46,
      "velocity": 0.5,
      "track": "DRUMS",
      "channel": 9,
      "lane": "F"
    },
    {
      "time": 37.5,
      "duration": 0.214,
      "midi": 69,
      "noteNumber": 69,
      "velocity": 0.5,
      "track": "DRUMS",
      "channel": 9,
      "lane": "K"
    },
    {
      "time": 37.6,
      "duration": 1.136,
      "midi": 52,
      "noteNumber": 52,
      "velocity": 0.68,
      "track": "(unnamed)",
      "channel": 2,
      "lane": "F"
    },
    {
      "time": 37.705,
      "duration": 1.087,
      "midi": 62,
      "noteNumber": 62,
      "velocity": 0.84,
      "track": "(unnamed)",
      "channel": 2,
      "lane": "J"
    },
    {
      "time": 37.714,
      "duration": 0.598,
      "midi": 40,
      "noteNumber": 40,
      "velocity": 0.55,
      "track": "(unnamed)",
      "channel": 1,
      "lane": "D"
    },
    {
      "time": 37.714,
      "duration": 0.214,
      "midi": 35,
      "noteNumber": 35,
      "velocity": 0.5,
      "track": "DRUMS",
      "channel": 9,
      "lane": "D"
    },
    {
      "time": 37.714,
      "duration": 0.214,
      "midi": 37,
      "noteNumber": 37,
      "velocity": 0.66,
      "track": "DRUMS",
      "channel": 9,
      "lane": "D"
    },
    {
      "time": 37.714,
      "duration": 0.214,
      "midi": 42,
      "noteNumber": 42,
      "velocity": 0.69,
      "track": "DRUMS",
      "channel": 9,
      "lane": "D"
    },
    {
      "time": 37.714,
      "duration": 0.214,
      "midi": 69,
      "noteNumber": 69,
      "velocity": 0.5,
      "track": "DRUMS",
      "channel": 9,
      "lane": "K"
    },
    {
      "time": 37.75,
      "duration": 1.036,
      "midi": 67,
      "noteNumber": 67,
      "velocity": 0.79,
      "track": "(unnamed)",
      "channel": 2,
      "lane": "J"
    },
    {
      "time": 37.808,
      "duration": 0.908,
      "midi": 70,
      "noteNumber": 70,
      "velocity": 0.8,
      "track": "(unnamed)",
      "channel": 2,
      "lane": "K"
    },
    {
      "time": 37.928,
      "duration": 0.214,
      "midi": 42,
      "noteNumber": 42,
      "velocity": 0.5,
      "track": "DRUMS",
      "channel": 9,
      "lane": "D"
    },
    {
      "time": 37.928,
      "duration": 0.214,
      "midi": 69,
      "noteNumber": 69,
      "velocity": 0.43,
      "track": "DRUMS",
      "channel": 9,
      "lane": "K"
    },
    {
      "time": 38.143,
      "duration": 0.214,
      "midi": 42,
      "noteNumber": 42,
      "velocity": 0.5,
      "track": "DRUMS",
      "channel": 9,
      "lane": "D"
    },
    {
      "time": 38.143,
      "duration": 0.214,
      "midi": 69,
      "noteNumber": 69,
      "velocity": 0.43,
      "track": "DRUMS",
      "channel": 9,
      "lane": "K"
    },
    {
      "time": 38.357,
      "duration": 0.107,
      "midi": 46,
      "noteNumber": 46,
      "velocity": 0.44,
      "track": "(unnamed)",
      "channel": 1,
      "lane": "F"
    },
    {
      "time": 38.357,
      "duration": 0.214,
      "midi": 35,
      "noteNumber": 35,
      "velocity": 0.43,
      "track": "DRUMS",
      "channel": 9,
      "lane": "D"
    },
    {
      "time": 38.357,
      "duration": 0.214,
      "midi": 37,
      "noteNumber": 37,
      "velocity": 0.74,
      "track": "DRUMS",
      "channel": 9,
      "lane": "D"
    },
    {
      "time": 38.357,
      "duration": 0.214,
      "midi": 42,
      "noteNumber": 42,
      "velocity": 0.5,
      "track": "DRUMS",
      "channel": 9,
      "lane": "D"
    },
    {
      "time": 38.357,
      "duration": 0.214,
      "midi": 69,
      "noteNumber": 69,
      "velocity": 0.43,
      "track": "DRUMS",
      "channel": 9,
      "lane": "K"
    },
    {
      "time": 38.571,
      "duration": 0.538,
      "midi": 46,
      "noteNumber": 46,
      "velocity": 0.57,
      "track": "(unnamed)",
      "channel": 1,
      "lane": "F"
    },
    {
      "time": 38.571,
      "duration": 0.214,
      "midi": 35,
      "noteNumber": 35,
      "velocity": 0.5,
      "track": "DRUMS",
      "channel": 9,
      "lane": "D"
    },
    {
      "time": 38.571,
      "duration": 0.214,
      "midi": 42,
      "noteNumber": 42,
      "velocity": 0.58,
      "track": "DRUMS",
      "channel": 9,
      "lane": "D"
    },
    {
      "time": 38.571,
      "duration": 0.214,
      "midi": 69,
      "noteNumber": 69,
      "velocity": 0.5,
      "track": "DRUMS",
      "channel": 9,
      "lane": "K"
    },
    {
      "time": 38.781,
      "duration": 0.27,
      "midi": 69,
      "noteNumber": 69,
      "velocity": 0.95,
      "track": "(unnamed)",
      "channel": 2,
      "lane": "K"
    },
    {
      "time": 38.786,
      "duration": 0.214,
      "midi": 42,
      "noteNumber": 42,
      "velocity": 0.5,
      "track": "DRUMS",
      "channel": 9,
      "lane": "D"
    },
    {
      "time": 38.786,
      "duration": 0.214,
      "midi": 69,
      "noteNumber": 69,
      "velocity": 0.43,
      "track": "DRUMS",
      "channel": 9,
      "lane": "K"
    },
    {
      "time": 39,
      "duration": 0.214,
      "midi": 37,
      "noteNumber": 37,
      "velocity": 0.66,
      "track": "DRUMS",
      "channel": 9,
      "lane": "D"
    },
    {
      "time": 39,
      "duration": 0.214,
      "midi": 42,
      "noteNumber": 42,
      "velocity": 0.58,
      "track": "DRUMS",
      "channel": 9,
      "lane": "D"
    },
    {
      "time": 39,
      "duration": 0.214,
      "midi": 69,
      "noteNumber": 69,
      "velocity": 0.43,
      "track": "DRUMS",
      "channel": 9,
      "lane": "K"
    },
    {
      "time": 39.033,
      "duration": 0.234,
      "midi": 67,
      "noteNumber": 67,
      "velocity": 0.86,
      "track": "(unnamed)",
      "channel": 2,
      "lane": "J"
    },
    {
      "time": 39.214,
      "duration": 0.114,
      "midi": 40,
      "noteNumber": 40,
      "velocity": 0.43,
      "track": "(unnamed)",
      "channel": 1,
      "lane": "D"
    },
    {
      "time": 39.214,
      "duration": 0.214,
      "midi": 35,
      "noteNumber": 35,
      "velocity": 0.43,
      "track": "DRUMS",
      "channel": 9,
      "lane": "D"
    },
    {
      "time": 39.214,
      "duration": 0.214,
      "midi": 42,
      "noteNumber": 42,
      "velocity": 0.66,
      "track": "DRUMS",
      "channel": 9,
      "lane": "D"
    },
    {
      "time": 39.214,
      "duration": 0.214,
      "midi": 69,
      "noteNumber": 69,
      "velocity": 0.43,
      "track": "DRUMS",
      "channel": 9,
      "lane": "K"
    },
    {
      "time": 39.268,
      "duration": 1.239,
      "midi": 67,
      "noteNumber": 67,
      "velocity": 0.85,
      "track": "(unnamed)",
      "channel": 2,
      "lane": "J"
    },
    {
      "time": 39.428,
      "duration": 0.549,
      "midi": 33,
      "noteNumber": 33,
      "velocity": 0.65,
      "track": "(unnamed)",
      "channel": 1,
      "lane": "D"
    },
    {
      "time": 39.428,
      "duration": 0.214,
      "midi": 35,
      "noteNumber": 35,
      "velocity": 0.5,
      "track": "DRUMS",
      "channel": 9,
      "lane": "D"
    },
    {
      "time": 39.428,
      "duration": 0.214,
      "midi": 42,
      "noteNumber": 42,
      "velocity": 0.58,
      "track": "DRUMS",
      "channel": 9,
      "lane": "D"
    },
    {
      "time": 39.428,
      "duration": 0.214,
      "midi": 69,
      "noteNumber": 69,
      "velocity": 0.5,
      "track": "DRUMS",
      "channel": 9,
      "lane": "K"
    },
    {
      "time": 39.643,
      "duration": 0.214,
      "midi": 42,
      "noteNumber": 42,
      "velocity": 0.5,
      "track": "DRUMS",
      "channel": 9,
      "lane": "D"
    },
    {
      "time": 39.643,
      "duration": 0.214,
      "midi": 69,
      "noteNumber": 69,
      "velocity": 0.43,
      "track": "DRUMS",
      "channel": 9,
      "lane": "K"
    },
    {
      "time": 39.663,
      "duration": 0.212,
      "midi": 56,
      "noteNumber": 56,
      "velocity": 0.73,
      "track": "(unnamed)",
      "channel": 2,
      "lane": "F"
    },
    {
      "time": 39.674,
      "duration": 0.203,
      "midi": 62,
      "noteNumber": 62,
      "velocity": 0.77,
      "track": "(unnamed)",
      "channel": 2,
      "lane": "J"
    },
    {
      "time": 39.857,
      "duration": 0.214,
      "midi": 37,
      "noteNumber": 37,
      "velocity": 0.66,
      "track": "DRUMS",
      "channel": 9,
      "lane": "D"
    },
    {
      "time": 39.857,
      "duration": 0.214,
      "midi": 42,
      "noteNumber": 42,
      "velocity": 0.58,
      "track": "DRUMS",
      "channel": 9,
      "lane": "D"
    },
    {
      "time": 39.857,
      "duration": 0.214,
      "midi": 69,
      "noteNumber": 69,
      "velocity": 0.43,
      "track": "DRUMS",
      "channel": 9,
      "lane": "K"
    },
    {
      "time": 40.071,
      "duration": 0.092,
      "midi": 40,
      "noteNumber": 40,
      "velocity": 0.48,
      "track": "(unnamed)",
      "channel": 1,
      "lane": "D"
    },
    {
      "time": 40.071,
      "duration": 0.214,
      "midi": 35,
      "noteNumber": 35,
      "velocity": 0.5,
      "track": "DRUMS",
      "channel": 9,
      "lane": "D"
    },
    {
      "time": 40.071,
      "duration": 0.214,
      "midi": 42,
      "noteNumber": 42,
      "velocity": 0.58,
      "track": "DRUMS",
      "channel": 9,
      "lane": "D"
    },
    {
      "time": 40.071,
      "duration": 0.214,
      "midi": 69,
      "noteNumber": 69,
      "velocity": 0.5,
      "track": "DRUMS",
      "channel": 9,
      "lane": "K"
    },
    {
      "time": 40.094,
      "duration": 0.665,
      "midi": 55,
      "noteNumber": 55,
      "velocity": 0.87,
      "track": "(unnamed)",
      "channel": 2,
      "lane": "F"
    },
    {
      "time": 40.114,
      "duration": 0.752,
      "midi": 61,
      "noteNumber": 61,
      "velocity": 0.63,
      "track": "(unnamed)",
      "channel": 2,
      "lane": "J"
    },
    {
      "time": 40.286,
      "duration": 0.446,
      "midi": 40,
      "noteNumber": 40,
      "velocity": 0.6,
      "track": "(unnamed)",
      "channel": 1,
      "lane": "D"
    },
    {
      "time": 40.286,
      "duration": 0.214,
      "midi": 35,
      "noteNumber": 35,
      "velocity": 0.5,
      "track": "DRUMS",
      "channel": 9,
      "lane": "D"
    },
    {
      "time": 40.286,
      "duration": 0.214,
      "midi": 42,
      "noteNumber": 42,
      "velocity": 0.58,
      "track": "DRUMS",
      "channel": 9,
      "lane": "D"
    },
    {
      "time": 40.286,
      "duration": 0.214,
      "midi": 69,
      "noteNumber": 69,
      "velocity": 0.5,
      "track": "DRUMS",
      "channel": 9,
      "lane": "K"
    },
    {
      "time": 40.5,
      "duration": 0.214,
      "midi": 37,
      "noteNumber": 37,
      "velocity": 0.74,
      "track": "DRUMS",
      "channel": 9,
      "lane": "D"
    },
    {
      "time": 40.5,
      "duration": 0.214,
      "midi": 42,
      "noteNumber": 42,
      "velocity": 0.58,
      "track": "DRUMS",
      "channel": 9,
      "lane": "D"
    },
    {
      "time": 40.5,
      "duration": 0.214,
      "midi": 69,
      "noteNumber": 69,
      "velocity": 0.43,
      "track": "DRUMS",
      "channel": 9,
      "lane": "K"
    },
    {
      "time": 40.549,
      "duration": 0.333,
      "midi": 65,
      "noteNumber": 65,
      "velocity": 0.71,
      "track": "(unnamed)",
      "channel": 2,
      "lane": "J"
    },
    {
      "time": 40.714,
      "duration": 0.214,
      "midi": 42,
      "noteNumber": 42,
      "velocity": 0.58,
      "track": "DRUMS",
      "channel": 9,
      "lane": "D"
    },
    {
      "time": 40.714,
      "duration": 0.214,
      "midi": 45,
      "noteNumber": 45,
      "velocity": 0.5,
      "track": "DRUMS",
      "channel": 9,
      "lane": "F"
    },
    {
      "time": 40.714,
      "duration": 0.214,
      "midi": 69,
      "noteNumber": 69,
      "velocity": 0.43,
      "track": "DRUMS",
      "channel": 9,
      "lane": "K"
    },
    {
      "time": 40.87,
      "duration": 0.217,
      "midi": 64,
      "noteNumber": 64,
      "velocity": 0.81,
      "track": "(unnamed)",
      "channel": 2,
      "lane": "J"
    },
    {
      "time": 40.928,
      "duration": 0.116,
      "midi": 33,
      "noteNumber": 33,
      "velocity": 0.54,
      "track": "(unnamed)",
      "channel": 1,
      "lane": "D"
    },
    {
      "time": 40.928,
      "duration": 0.214,
      "midi": 35,
      "noteNumber": 35,
      "velocity": 0.58,
      "track": "DRUMS",
      "channel": 9,
      "lane": "D"
    },
    {
      "time": 40.928,
      "duration": 0.214,
      "midi": 42,
      "noteNumber": 42,
      "velocity": 0.5,
      "track": "DRUMS",
      "channel": 9,
      "lane": "D"
    },
    {
      "time": 40.928,
      "duration": 0.214,
      "midi": 45,
      "noteNumber": 45,
      "velocity": 0.5,
      "track": "DRUMS",
      "channel": 9,
      "lane": "F"
    },
    {
      "time": 40.928,
      "duration": 0.214,
      "midi": 69,
      "noteNumber": 69,
      "velocity": 0.5,
      "track": "DRUMS",
      "channel": 9,
      "lane": "K"
    },
    {
      "time": 41.143,
      "duration": 0.513,
      "midi": 38,
      "noteNumber": 38,
      "velocity": 0.58,
      "track": "(unnamed)",
      "channel": 1,
      "lane": "D"
    },
    {
      "time": 41.143,
      "duration": 0.214,
      "midi": 35,
      "noteNumber": 35,
      "velocity": 0.5,
      "track": "DRUMS",
      "channel": 9,
      "lane": "D"
    },
    {
      "time": 41.143,
      "duration": 0.214,
      "midi": 37,
      "noteNumber": 37,
      "velocity": 0.66,
      "track": "DRUMS",
      "channel": 9,
      "lane": "D"
    },
    {
      "time": 41.143,
      "duration": 0.214,
      "midi": 42,
      "noteNumber": 42,
      "velocity": 0.69,
      "track": "DRUMS",
      "channel": 9,
      "lane": "D"
    },
    {
      "time": 41.143,
      "duration": 0.214,
      "midi": 69,
      "noteNumber": 69,
      "velocity": 0.5,
      "track": "DRUMS",
      "channel": 9,
      "lane": "K"
    },
    {
      "time": 41.185,
      "duration": 0.263,
      "midi": 69,
      "noteNumber": 69,
      "velocity": 0.72,
      "track": "(unnamed)",
      "channel": 2,
      "lane": "K"
    },
    {
      "time": 41.357,
      "duration": 0.214,
      "midi": 42,
      "noteNumber": 42,
      "velocity": 0.5,
      "track": "DRUMS",
      "channel": 9,
      "lane": "D"
    },
    {
      "time": 41.357,
      "duration": 0.214,
      "midi": 69,
      "noteNumber": 69,
      "velocity": 0.43,
      "track": "DRUMS",
      "channel": 9,
      "lane": "K"
    },
    {
      "time": 41.435,
      "duration": 0.58,
      "midi": 57,
      "noteNumber": 57,
      "velocity": 0.62,
      "track": "(unnamed)",
      "channel": 2,
      "lane": "J"
    },
    {
      "time": 41.571,
      "duration": 0.214,
      "midi": 42,
      "noteNumber": 42,
      "velocity": 0.5,
      "track": "DRUMS",
      "channel": 9,
      "lane": "D"
    },
    {
      "time": 41.571,
      "duration": 0.214,
      "midi": 48,
      "noteNumber": 48,
      "velocity": 0.5,
      "track": "DRUMS",
      "channel": 9,
      "lane": "F"
    },
    {
      "time": 41.571,
      "duration": 0.214,
      "midi": 69,
      "noteNumber": 69,
      "velocity": 0.43,
      "track": "DRUMS",
      "channel": 9,
      "lane": "K"
    },
    {
      "time": 41.591,
      "duration": 0.607,
      "midi": 62,
      "noteNumber": 62,
      "velocity": 0.65,
      "track": "(unnamed)",
      "channel": 2,
      "lane": "J"
    },
    {
      "time": 41.786,
      "duration": 0.107,
      "midi": 45,
      "noteNumber": 45,
      "velocity": 0.5,
      "track": "(unnamed)",
      "channel": 1,
      "lane": "F"
    },
    {
      "time": 41.786,
      "duration": 0.214,
      "midi": 35,
      "noteNumber": 35,
      "velocity": 0.43,
      "track": "DRUMS",
      "channel": 9,
      "lane": "D"
    },
    {
      "time": 41.786,
      "duration": 0.214,
      "midi": 37,
      "noteNumber": 37,
      "velocity": 0.74,
      "track": "DRUMS",
      "channel": 9,
      "lane": "D"
    },
    {
      "time": 41.786,
      "duration": 0.214,
      "midi": 46,
      "noteNumber": 46,
      "velocity": 0.5,
      "track": "DRUMS",
      "channel": 9,
      "lane": "F"
    },
    {
      "time": 41.786,
      "duration": 0.214,
      "midi": 69,
      "noteNumber": 69,
      "velocity": 0.43,
      "track": "DRUMS",
      "channel": 9,
      "lane": "K"
    },
    {
      "time": 41.815,
      "duration": 0.241,
      "midi": 65,
      "noteNumber": 65,
      "velocity": 0.76,
      "track": "(unnamed)",
      "channel": 2,
      "lane": "J"
    },
    {
      "time": 42,
      "duration": 0.562,
      "midi": 45,
      "noteNumber": 45,
      "velocity": 0.58,
      "track": "(unnamed)",
      "channel": 1,
      "lane": "F"
    },
    {
      "time": 42,
      "duration": 0.214,
      "midi": 35,
      "noteNumber": 35,
      "velocity": 0.5,
      "track": "DRUMS",
      "channel": 9,
      "lane": "D"
    },
    {
      "time": 42,
      "duration": 0.214,
      "midi": 42,
      "noteNumber": 42,
      "velocity": 0.58,
      "track": "DRUMS",
      "channel": 9,
      "lane": "D"
    },
    {
      "time": 42,
      "duration": 0.214,
      "midi": 69,
      "noteNumber": 69,
      "velocity": 0.5,
      "track": "DRUMS",
      "channel": 9,
      "lane": "K"
    },
    {
      "time": 42.011,
      "duration": 0.453,
      "midi": 61,
      "noteNumber": 61,
      "velocity": 0.68,
      "track": "(unnamed)",
      "channel": 2,
      "lane": "J"
    },
    {
      "time": 42.214,
      "duration": 0.214,
      "midi": 42,
      "noteNumber": 42,
      "velocity": 0.5,
      "track": "DRUMS",
      "channel": 9,
      "lane": "D"
    },
    {
      "time": 42.214,
      "duration": 0.214,
      "midi": 69,
      "noteNumber": 69,
      "velocity": 0.43,
      "track": "DRUMS",
      "channel": 9,
      "lane": "K"
    },
    {
      "time": 42.428,
      "duration": 0.214,
      "midi": 37,
      "noteNumber": 37,
      "velocity": 0.66,
      "track": "DRUMS",
      "channel": 9,
      "lane": "D"
    },
    {
      "time": 42.428,
      "duration": 0.214,
      "midi": 42,
      "noteNumber": 42,
      "velocity": 0.58,
      "track": "DRUMS",
      "channel": 9,
      "lane": "D"
    },
    {
      "time": 42.428,
      "duration": 0.214,
      "midi": 45,
      "noteNumber": 45,
      "velocity": 0.5,
      "track": "DRUMS",
      "channel": 9,
      "lane": "F"
    },
    {
      "time": 42.428,
      "duration": 0.214,
      "midi": 69,
      "noteNumber": 69,
      "velocity": 0.43,
      "track": "DRUMS",
      "channel": 9,
      "lane": "K"
    },
    {
      "time": 42.643,
      "duration": 0.114,
      "midi": 38,
      "noteNumber": 38,
      "velocity": 0.57,
      "track": "(unnamed)",
      "channel": 1,
      "lane": "D"
    },
    {
      "time": 42.643,
      "duration": 0.214,
      "midi": 35,
      "noteNumber": 35,
      "velocity": 0.43,
      "track": "DRUMS",
      "channel": 9,
      "lane": "D"
    },
    {
      "time": 42.643,
      "duration": 0.214,
      "midi": 42,
      "noteNumber": 42,
      "velocity": 0.66,
      "track": "DRUMS",
      "channel": 9,
      "lane": "D"
    },
    {
      "time": 42.643,
      "duration": 0.214,
      "midi": 45,
      "noteNumber": 45,
      "velocity": 0.5,
      "track": "DRUMS",
      "channel": 9,
      "lane": "F"
    },
    {
      "time": 42.643,
      "duration": 0.214,
      "midi": 69,
      "noteNumber": 69,
      "velocity": 0.43,
      "track": "DRUMS",
      "channel": 9,
      "lane": "K"
    },
    {
      "time": 42.676,
      "duration": 0.239,
      "midi": 57,
      "noteNumber": 57,
      "velocity": 0.7,
      "track": "(unnamed)",
      "channel": 2,
      "lane": "J"
    },
    {
      "time": 42.857,
      "duration": 0.596,
      "midi": 38,
      "noteNumber": 38,
      "velocity": 0.58,
      "track": "(unnamed)",
      "channel": 1,
      "lane": "D"
    },
    {
      "time": 42.857,
      "duration": 0.214,
      "midi": 42,
      "noteNumber": 42,
      "velocity": 0.5,
      "track": "DRUMS",
      "channel": 9,
      "lane": "D"
    },
    {
      "time": 42.857,
      "duration": 0.214,
      "midi": 69,
      "noteNumber": 69,
      "velocity": 0.66,
      "track": "DRUMS",
      "channel": 9,
      "lane": "K"
    },
    {
      "time": 42.879,
      "duration": 0.268,
      "midi": 64,
      "noteNumber": 64,
      "velocity": 0.78,
      "track": "(unnamed)",
      "channel": 2,
      "lane": "J"
    },
    {
      "time": 43.007,
      "duration": 0.165,
      "midi": 61,
      "noteNumber": 61,
      "velocity": 0.51,
      "track": "(unnamed)",
      "channel": 2,
      "lane": "J"
    },
    {
      "time": 43.071,
      "duration": 0.214,
      "midi": 42,
      "noteNumber": 42,
      "velocity": 0.43,
      "track": "DRUMS",
      "channel": 9,
      "lane": "D"
    },
    {
      "time": 43.071,
      "duration": 0.214,
      "midi": 48,
      "noteNumber": 48,
      "velocity": 0.43,
      "track": "DRUMS",
      "channel": 9,
      "lane": "F"
    },
    {
      "time": 43.071,
      "duration": 0.214,
      "midi": 69,
      "noteNumber": 69,
      "velocity": 0.43,
      "track": "DRUMS",
      "channel": 9,
      "lane": "K"
    },
    {
      "time": 43.143,
      "duration": 0.203,
      "midi": 62,
      "noteNumber": 62,
      "velocity": 0.57,
      "track": "(unnamed)",
      "channel": 2,
      "lane": "J"
    },
    {
      "time": 43.286,
      "duration": 0.001,
      "midi": 37,
      "noteNumber": 37,
      "velocity": 0.66,
      "track": "DRUMS",
      "channel": 9,
      "lane": "D"
    },
    {
      "time": 43.286,
      "duration": 0.214,
      "midi": 37,
      "noteNumber": 37,
      "velocity": 0.43,
      "track": "DRUMS",
      "channel": 9,
      "lane": "D"
    },
    {
      "time": 43.286,
      "duration": 0.214,
      "midi": 42,
      "noteNumber": 42,
      "velocity": 0.5,
      "track": "DRUMS",
      "channel": 9,
      "lane": "D"
    },
    {
      "time": 43.301,
      "duration": 0.725,
      "midi": 57,
      "noteNumber": 57,
      "velocity": 0.75,
      "track": "(unnamed)",
      "channel": 2,
      "lane": "J"
    },
    {
      "time": 43.5,
      "duration": 0.089,
      "midi": 45,
      "noteNumber": 45,
      "velocity": 0.46,
      "track": "(unnamed)",
      "channel": 1,
      "lane": "F"
    },
    {
      "time": 43.5,
      "duration": 0.214,
      "midi": 37,
      "noteNumber": 37,
      "velocity": 0.43,
      "track": "DRUMS",
      "channel": 9,
      "lane": "D"
    },
    {
      "time": 43.5,
      "duration": 0.214,
      "midi": 42,
      "noteNumber": 42,
      "velocity": 0.5,
      "track": "DRUMS",
      "channel": 9,
      "lane": "D"
    },
    {
      "time": 43.5,
      "duration": 0.214,
      "midi": 45,
      "noteNumber": 45,
      "velocity": 0.43,
      "track": "DRUMS",
      "channel": 9,
      "lane": "F"
    },
    {
      "time": 43.714,
      "duration": 0.614,
      "midi": 45,
      "noteNumber": 45,
      "velocity": 0.56,
      "track": "(unnamed)",
      "channel": 1,
      "lane": "F"
    },
    {
      "time": 43.714,
      "duration": 0.214,
      "midi": 37,
      "noteNumber": 37,
      "velocity": 0.5,
      "track": "DRUMS",
      "channel": 9,
      "lane": "D"
    },
    {
      "time": 43.714,
      "duration": 0.214,
      "midi": 42,
      "noteNumber": 42,
      "velocity": 0.5,
      "track": "DRUMS",
      "channel": 9,
      "lane": "D"
    },
    {
      "time": 43.714,
      "duration": 0.214,
      "midi": 48,
      "noteNumber": 48,
      "velocity": 0.5,
      "track": "DRUMS",
      "channel": 9,
      "lane": "F"
    },
    {
      "time": 43.928,
      "duration": 0.214,
      "midi": 37,
      "noteNumber": 37,
      "velocity": 0.43,
      "track": "DRUMS",
      "channel": 9,
      "lane": "D"
    },
    {
      "time": 43.928,
      "duration": 0.214,
      "midi": 42,
      "noteNumber": 42,
      "velocity": 0.5,
      "track": "DRUMS",
      "channel": 9,
      "lane": "D"
    },
    {
      "time": 43.928,
      "duration": 0.214,
      "midi": 45,
      "noteNumber": 45,
      "velocity": 0.5,
      "track": "DRUMS",
      "channel": 9,
      "lane": "F"
    },
    {
      "time": 44.143,
      "duration": 0.214,
      "midi": 37,
      "noteNumber": 37,
      "velocity": 0.43,
      "track": "DRUMS",
      "channel": 9,
      "lane": "D"
    },
    {
      "time": 44.143,
      "duration": 0.214,
      "midi": 42,
      "noteNumber": 42,
      "velocity": 0.5,
      "track": "DRUMS",
      "channel": 9,
      "lane": "D"
    },
    {
      "time": 44.143,
      "duration": 0.214,
      "midi": 48,
      "noteNumber": 48,
      "velocity": 0.54,
      "track": "DRUMS",
      "channel": 9,
      "lane": "F"
    },
    {
      "time": 44.158,
      "duration": 0.232,
      "midi": 65,
      "noteNumber": 65,
      "velocity": 0.94,
      "track": "(unnamed)",
      "channel": 2,
      "lane": "J"
    },
    {
      "time": 44.357,
      "duration": 0.116,
      "midi": 34,
      "noteNumber": 34,
      "velocity": 0.48,
      "track": "(unnamed)",
      "channel": 1,
      "lane": "D"
    },
    {
      "time": 44.357,
      "duration": 0.214,
      "midi": 37,
      "noteNumber": 37,
      "velocity": 0.43,
      "track": "DRUMS",
      "channel": 9,
      "lane": "D"
    },
    {
      "time": 44.357,
      "duration": 0.214,
      "midi": 42,
      "noteNumber": 42,
      "velocity": 0.5,
      "track": "DRUMS",
      "channel": 9,
      "lane": "D"
    },
    {
      "time": 44.357,
      "duration": 0.214,
      "midi": 48,
      "noteNumber": 48,
      "velocity": 0.5,
      "track": "DRUMS",
      "channel": 9,
      "lane": "F"
    },
    {
      "time": 44.386,
      "duration": 0.116,
      "midi": 64,
      "noteNumber": 64,
      "velocity": 0.83,
      "track": "(unnamed)",
      "channel": 2,
      "lane": "J"
    },
    {
      "time": 44.431,
      "duration": 0.152,
      "midi": 65,
      "noteNumber": 65,
      "velocity": 0.83,
      "track": "(unnamed)",
      "channel": 2,
      "lane": "J"
    },
    {
      "time": 44.513,
      "duration": 0.183,
      "midi": 64,
      "noteNumber": 64,
      "velocity": 0.83,
      "track": "(unnamed)",
      "channel": 2,
      "lane": "J"
    },
    {
      "time": 44.571,
      "duration": 0.536,
      "midi": 35,
      "noteNumber": 35,
      "velocity": 0.63,
      "track": "(unnamed)",
      "channel": 1,
      "lane": "D"
    },
    {
      "time": 44.571,
      "duration": 0.214,
      "midi": 35,
      "noteNumber": 35,
      "velocity": 0.5,
      "track": "DRUMS",
      "channel": 9,
      "lane": "D"
    },
    {
      "time": 44.571,
      "duration": 0.214,
      "midi": 37,
      "noteNumber": 37,
      "velocity": 0.66,
      "track": "DRUMS",
      "channel": 9,
      "lane": "D"
    },
    {
      "time": 44.571,
      "duration": 0.214,
      "midi": 42,
      "noteNumber": 42,
      "velocity": 0.69,
      "track": "DRUMS",
      "channel": 9,
      "lane": "D"
    },
    {
      "time": 44.571,
      "duration": 0.214,
      "midi": 69,
      "noteNumber": 69,
      "velocity": 0.5,
      "track": "DRUMS",
      "channel": 9,
      "lane": "K"
    },
    {
      "time": 44.611,
      "duration": 1.319,
      "midi": 62,
      "noteNumber": 62,
      "velocity": 0.69,
      "track": "(unnamed)",
      "channel": 2,
      "lane": "J"
    },
    {
      "time": 44.786,
      "duration": 0.214,
      "midi": 42,
      "noteNumber": 42,
      "velocity": 0.5,
      "track": "DRUMS",
      "channel": 9,
      "lane": "D"
    },
    {
      "time": 44.786,
      "duration": 0.214,
      "midi": 69,
      "noteNumber": 69,
      "velocity": 0.43,
      "track": "DRUMS",
      "channel": 9,
      "lane": "K"
    },
    {
      "time": 44.799,
      "duration": 0.225,
      "midi": 64,
      "noteNumber": 64,
      "velocity": 0.79,
      "track": "(unnamed)",
      "channel": 2,
      "lane": "J"
    },
    {
      "time": 45,
      "duration": 0.214,
      "midi": 42,
      "noteNumber": 42,
      "velocity": 0.5,
      "track": "DRUMS",
      "channel": 9,
      "lane": "D"
    },
    {
      "time": 45,
      "duration": 0.214,
      "midi": 69,
      "noteNumber": 69,
      "velocity": 0.43,
      "track": "DRUMS",
      "channel": 9,
      "lane": "K"
    },
    {
      "time": 45.007,
      "duration": 0.931,
      "midi": 65,
      "noteNumber": 65,
      "velocity": 0.8,
      "track": "(unnamed)",
      "channel": 2,
      "lane": "J"
    },
    {
      "time": 45.214,
      "duration": 0.109,
      "midi": 41,
      "noteNumber": 41,
      "velocity": 0.5,
      "track": "(unnamed)",
      "channel": 1,
      "lane": "D"
    },
    {
      "time": 45.214,
      "duration": 0.214,
      "midi": 35,
      "noteNumber": 35,
      "velocity": 0.43,
      "track": "DRUMS",
      "channel": 9,
      "lane": "D"
    },
    {
      "time": 45.214,
      "duration": 0.214,
      "midi": 37,
      "noteNumber": 37,
      "velocity": 0.74,
      "track": "DRUMS",
      "channel": 9,
      "lane": "D"
    },
    {
      "time": 45.214,
      "duration": 0.214,
      "midi": 42,
      "noteNumber": 42,
      "velocity": 0.5,
      "track": "DRUMS",
      "channel": 9,
      "lane": "D"
    },
    {
      "time": 45.214,
      "duration": 0.214,
      "midi": 69,
      "noteNumber": 69,
      "velocity": 0.43,
      "track": "DRUMS",
      "channel": 9,
      "lane": "K"
    },
    {
      "time": 45.265,
      "duration": 0.402,
      "midi": 71,
      "noteNumber": 71,
      "velocity": 0.72,
      "track": "(unnamed)",
      "channel": 2,
      "lane": "K"
    },
    {
      "time": 45.428,
      "duration": 0.609,
      "midi": 41,
      "noteNumber": 41,
      "velocity": 0.57,
      "track": "(unnamed)",
      "channel": 1,
      "lane": "D"
    },
    {
      "time": 45.428,
      "duration": 0.214,
      "midi": 35,
      "noteNumber": 35,
      "velocity": 0.5,
      "track": "DRUMS",
      "channel": 9,
      "lane": "D"
    },
    {
      "time": 45.428,
      "duration": 0.214,
      "midi": 42,
      "noteNumber": 42,
      "velocity": 0.58,
      "track": "DRUMS",
      "channel": 9,
      "lane": "D"
    },
    {
      "time": 45.428,
      "duration": 0.214,
      "midi": 69,
      "noteNumber": 69,
      "velocity": 0.5,
      "track": "DRUMS",
      "channel": 9,
      "lane": "K"
    },
    {
      "time": 45.643,
      "duration": 0.214,
      "midi": 42,
      "noteNumber": 42,
      "velocity": 0.5,
      "track": "DRUMS",
      "channel": 9,
      "lane": "D"
    },
    {
      "time": 45.643,
      "duration": 0.214,
      "midi": 69,
      "noteNumber": 69,
      "velocity": 0.43,
      "track": "DRUMS",
      "channel": 9,
      "lane": "K"
    },
    {
      "time": 45.667,
      "duration": 0.442,
      "midi": 71,
      "noteNumber": 71,
      "velocity": 0.87,
      "track": "(unnamed)",
      "channel": 2,
      "lane": "K"
    },
    {
      "time": 45.857,
      "duration": 0.214,
      "midi": 37,
      "noteNumber": 37,
      "velocity": 0.66,
      "track": "DRUMS",
      "channel": 9,
      "lane": "D"
    },
    {
      "time": 45.857,
      "duration": 0.214,
      "midi": 42,
      "noteNumber": 42,
      "velocity": 0.58,
      "track": "DRUMS",
      "channel": 9,
      "lane": "D"
    },
    {
      "time": 45.857,
      "duration": 0.214,
      "midi": 69,
      "noteNumber": 69,
      "velocity": 0.43,
      "track": "DRUMS",
      "channel": 9,
      "lane": "K"
    },
    {
      "time": 46.071,
      "duration": 0.092,
      "midi": 35,
      "noteNumber": 35,
      "velocity": 0.56,
      "track": "(unnamed)",
      "channel": 1,
      "lane": "D"
    },
    {
      "time": 46.071,
      "duration": 0.214,
      "midi": 35,
      "noteNumber": 35,
      "velocity": 0.43,
      "track": "DRUMS",
      "channel": 9,
      "lane": "D"
    },
    {
      "time": 46.071,
      "duration": 0.214,
      "midi": 42,
      "noteNumber": 42,
      "velocity": 0.66,
      "track": "DRUMS",
      "channel": 9,
      "lane": "D"
    },
    {
      "time": 46.071,
      "duration": 0.214,
      "midi": 69,
      "noteNumber": 69,
      "velocity": 0.43,
      "track": "DRUMS",
      "channel": 9,
      "lane": "K"
    },
    {
      "time": 46.109,
      "duration": 1.054,
      "midi": 71,
      "noteNumber": 71,
      "velocity": 0.74,
      "track": "(unnamed)",
      "channel": 2,
      "lane": "K"
    },
    {
      "time": 46.286,
      "duration": 0.491,
      "midi": 40,
      "noteNumber": 40,
      "velocity": 0.63,
      "track": "(unnamed)",
      "channel": 1,
      "lane": "D"
    },
    {
      "time": 46.286,
      "duration": 0.214,
      "midi": 35,
      "noteNumber": 35,
      "velocity": 0.5,
      "track": "DRUMS",
      "channel": 9,
      "lane": "D"
    },
    {
      "time": 46.286,
      "duration": 0.214,
      "midi": 42,
      "noteNumber": 42,
      "velocity": 0.58,
      "track": "DRUMS",
      "channel": 9,
      "lane": "D"
    },
    {
      "time": 46.286,
      "duration": 0.214,
      "midi": 69,
      "noteNumber": 69,
      "velocity": 0.5,
      "track": "DRUMS",
      "channel": 9,
      "lane": "K"
    },
    {
      "time": 46.495,
      "duration": 0.587,
      "midi": 65,
      "noteNumber": 65,
      "velocity": 0.65,
      "track": "(unnamed)",
      "channel": 2,
      "lane": "J"
    },
    {
      "time": 46.5,
      "duration": 0.214,
      "midi": 42,
      "noteNumber": 42,
      "velocity": 0.5,
      "track": "DRUMS",
      "channel": 9,
      "lane": "D"
    },
    {
      "time": 46.5,
      "duration": 0.214,
      "midi": 69,
      "noteNumber": 69,
      "velocity": 0.43,
      "track": "DRUMS",
      "channel": 9,
      "lane": "K"
    },
    {
      "time": 46.504,
      "duration": 0.623,
      "midi": 57,
      "noteNumber": 57,
      "velocity": 0.63,
      "track": "(unnamed)",
      "channel": 2,
      "lane": "J"
    },
    {
      "time": 46.509,
      "duration": 0.661,
      "midi": 62,
      "noteNumber": 62,
      "velocity": 0.61,
      "track": "(unnamed)",
      "channel": 2,
      "lane": "J"
    },
    {
      "time": 46.714,
      "duration": 0.214,
      "midi": 37,
      "noteNumber": 37,
      "velocity": 0.66,
      "track": "DRUMS",
      "channel": 9,
      "lane": "D"
    },
    {
      "time": 46.714,
      "duration": 0.214,
      "midi": 42,
      "noteNumber": 42,
      "velocity": 0.58,
      "track": "DRUMS",
      "channel": 9,
      "lane": "D"
    },
    {
      "time": 46.714,
      "duration": 0.214,
      "midi": 69,
      "noteNumber": 69,
      "velocity": 0.43,
      "track": "DRUMS",
      "channel": 9,
      "lane": "K"
    },
    {
      "time": 46.928,
      "duration": 0.092,
      "midi": 47,
      "noteNumber": 47,
      "velocity": 0.53,
      "track": "(unnamed)",
      "channel": 1,
      "lane": "F"
    },
    {
      "time": 46.928,
      "duration": 0.214,
      "midi": 35,
      "noteNumber": 35,
      "velocity": 0.5,
      "track": "DRUMS",
      "channel": 9,
      "lane": "D"
    },
    {
      "time": 46.928,
      "duration": 0.214,
      "midi": 42,
      "noteNumber": 42,
      "velocity": 0.58,
      "track": "DRUMS",
      "channel": 9,
      "lane": "D"
    },
    {
      "time": 46.928,
      "duration": 0.214,
      "midi": 69,
      "noteNumber": 69,
      "velocity": 0.5,
      "track": "DRUMS",
      "channel": 9,
      "lane": "K"
    },
    {
      "time": 47.143,
      "duration": 0.545,
      "midi": 47,
      "noteNumber": 47,
      "velocity": 0.51,
      "track": "(unnamed)",
      "channel": 1,
      "lane": "F"
    },
    {
      "time": 47.143,
      "duration": 0.214,
      "midi": 35,
      "noteNumber": 35,
      "velocity": 0.5,
      "track": "DRUMS",
      "channel": 9,
      "lane": "D"
    },
    {
      "time": 47.143,
      "duration": 0.214,
      "midi": 42,
      "noteNumber": 42,
      "velocity": 0.58,
      "track": "DRUMS",
      "channel": 9,
      "lane": "D"
    },
    {
      "time": 47.143,
      "duration": 0.214,
      "midi": 69,
      "noteNumber": 69,
      "velocity": 0.5,
      "track": "DRUMS",
      "channel": 9,
      "lane": "K"
    },
    {
      "time": 47.147,
      "duration": 0.388,
      "midi": 64,
      "noteNumber": 64,
      "velocity": 0.58,
      "track": "(unnamed)",
      "channel": 2,
      "lane": "J"
    },
    {
      "time": 47.154,
      "duration": 0.777,
      "midi": 56,
      "noteNumber": 56,
      "velocity": 0.67,
      "track": "(unnamed)",
      "channel": 2,
      "lane": "F"
    },
    {
      "time": 47.357,
      "duration": 0.214,
      "midi": 37,
      "noteNumber": 37,
      "velocity": 0.74,
      "track": "DRUMS",
      "channel": 9,
      "lane": "D"
    },
    {
      "time": 47.357,
      "duration": 0.214,
      "midi": 42,
      "noteNumber": 42,
      "velocity": 0.58,
      "track": "DRUMS",
      "channel": 9,
      "lane": "D"
    },
    {
      "time": 47.357,
      "duration": 0.214,
      "midi": 69,
      "noteNumber": 69,
      "velocity": 0.43,
      "track": "DRUMS",
      "channel": 9,
      "lane": "K"
    },
    {
      "time": 47.455,
      "duration": 0.5,
      "midi": 72,
      "noteNumber": 72,
      "velocity": 0.92,
      "track": "(unnamed)",
      "channel": 2,
      "lane": "K"
    },
    {
      "time": 47.571,
      "duration": 0.214,
      "midi": 42,
      "noteNumber": 42,
      "velocity": 0.58,
      "track": "DRUMS",
      "channel": 9,
      "lane": "D"
    },
    {
      "time": 47.571,
      "duration": 0.214,
      "midi": 69,
      "noteNumber": 69,
      "velocity": 0.43,
      "track": "DRUMS",
      "channel": 9,
      "lane": "K"
    },
    {
      "time": 47.786,
      "duration": 0.121,
      "midi": 40,
      "noteNumber": 40,
      "velocity": 0.46,
      "track": "(unnamed)",
      "channel": 1,
      "lane": "D"
    },
    {
      "time": 47.786,
      "duration": 0.214,
      "midi": 35,
      "noteNumber": 35,
      "velocity": 0.58,
      "track": "DRUMS",
      "channel": 9,
      "lane": "D"
    },
    {
      "time": 47.786,
      "duration": 0.214,
      "midi": 42,
      "noteNumber": 42,
      "velocity": 0.5,
      "track": "DRUMS",
      "channel": 9,
      "lane": "D"
    },
    {
      "time": 47.786,
      "duration": 0.214,
      "midi": 69,
      "noteNumber": 69,
      "velocity": 0.5,
      "track": "DRUMS",
      "channel": 9,
      "lane": "K"
    },
    {
      "time": 48,
      "duration": 0.542,
      "midi": 33,
      "noteNumber": 33,
      "velocity": 0.54,
      "track": "(unnamed)",
      "channel": 1,
      "lane": "D"
    },
    {
      "time": 48,
      "duration": 0.214,
      "midi": 35,
      "noteNumber": 35,
      "velocity": 0.5,
      "track": "DRUMS",
      "channel": 9,
      "lane": "D"
    },
    {
      "time": 48,
      "duration": 0.214,
      "midi": 37,
      "noteNumber": 37,
      "velocity": 0.66,
      "track": "DRUMS",
      "channel": 9,
      "lane": "D"
    },
    {
      "time": 48,
      "duration": 0.214,
      "midi": 42,
      "noteNumber": 42,
      "velocity": 0.69,
      "track": "DRUMS",
      "channel": 9,
      "lane": "D"
    },
    {
      "time": 48,
      "duration": 0.214,
      "midi": 69,
      "noteNumber": 69,
      "velocity": 0.5,
      "track": "DRUMS",
      "channel": 9,
      "lane": "K"
    },
    {
      "time": 48.033,
      "duration": 0.087,
      "midi": 54,
      "noteNumber": 54,
      "velocity": 0.62,
      "track": "(unnamed)",
      "channel": 2,
      "lane": "F"
    },
    {
      "time": 48.036,
      "duration": 0.612,
      "midi": 60,
      "noteNumber": 60,
      "velocity": 0.68,
      "track": "(unnamed)",
      "channel": 2,
      "lane": "J"
    },
    {
      "time": 48.042,
      "duration": 0.868,
      "midi": 45,
      "noteNumber": 45,
      "velocity": 0.78,
      "track": "(unnamed)",
      "channel": 2,
      "lane": "F"
    },
    {
      "time": 48.051,
      "duration": 0.502,
      "midi": 55,
      "noteNumber": 55,
      "velocity": 0.62,
      "track": "(unnamed)",
      "channel": 2,
      "lane": "F"
    },
    {
      "time": 48.214,
      "duration": 0.214,
      "midi": 42,
      "noteNumber": 42,
      "velocity": 0.5,
      "track": "DRUMS",
      "channel": 9,
      "lane": "D"
    },
    {
      "time": 48.214,
      "duration": 0.214,
      "midi": 69,
      "noteNumber": 69,
      "velocity": 0.43,
      "track": "DRUMS",
      "channel": 9,
      "lane": "K"
    },
    {
      "time": 48.428,
      "duration": 0.214,
      "midi": 42,
      "noteNumber": 42,
      "velocity": 0.5,
      "track": "DRUMS",
      "channel": 9,
      "lane": "D"
    },
    {
      "time": 48.428,
      "duration": 0.214,
      "midi": 69,
      "noteNumber": 69,
      "velocity": 0.43,
      "track": "DRUMS",
      "channel": 9,
      "lane": "K"
    },
    {
      "time": 48.643,
      "duration": 0.109,
      "midi": 39,
      "noteNumber": 39,
      "velocity": 0.54,
      "track": "(unnamed)",
      "channel": 1,
      "lane": "D"
    },
    {
      "time": 48.643,
      "duration": 0.214,
      "midi": 35,
      "noteNumber": 35,
      "velocity": 0.43,
      "track": "DRUMS",
      "channel": 9,
      "lane": "D"
    },
    {
      "time": 48.643,
      "duration": 0.214,
      "midi": 37,
      "noteNumber": 37,
      "velocity": 0.74,
      "track": "DRUMS",
      "channel": 9,
      "lane": "D"
    },
    {
      "time": 48.643,
      "duration": 0.214,
      "midi": 46,
      "noteNumber": 46,
      "velocity": 0.5,
      "track": "DRUMS",
      "channel": 9,
      "lane": "F"
    },
    {
      "time": 48.643,
      "duration": 0.214,
      "midi": 69,
      "noteNumber": 69,
      "velocity": 0.43,
      "track": "DRUMS",
      "channel": 9,
      "lane": "K"
    },
    {
      "time": 48.652,
      "duration": 0.475,
      "midi": 62,
      "noteNumber": 62,
      "velocity": 0.72,
      "track": "(unnamed)",
      "channel": 2,
      "lane": "J"
    },
    {
      "time": 48.857,
      "duration": 0.603,
      "midi": 40,
      "noteNumber": 40,
      "velocity": 0.61,
      "track": "(unnamed)",
      "channel": 1,
      "lane": "D"
    },
    {
      "time": 48.857,
      "duration": 0.214,
      "midi": 35,
      "noteNumber": 35,
      "velocity": 0.5,
      "track": "DRUMS",
      "channel": 9,
      "lane": "D"
    },
    {
      "time": 48.857,
      "duration": 0.214,
      "midi": 42,
      "noteNumber": 42,
      "velocity": 0.58,
      "track": "DRUMS",
      "channel": 9,
      "lane": "D"
    },
    {
      "time": 48.857,
      "duration": 0.214,
      "midi": 69,
      "noteNumber": 69,
      "velocity": 0.5,
      "track": "DRUMS",
      "channel": 9,
      "lane": "K"
    },
    {
      "time": 49.071,
      "duration": 0.214,
      "midi": 42,
      "noteNumber": 42,
      "velocity": 0.5,
      "track": "DRUMS",
      "channel": 9,
      "lane": "D"
    },
    {
      "time": 49.071,
      "duration": 0.214,
      "midi": 69,
      "noteNumber": 69,
      "velocity": 0.43,
      "track": "DRUMS",
      "channel": 9,
      "lane": "K"
    },
    {
      "time": 49.116,
      "duration": 0.301,
      "midi": 64,
      "noteNumber": 64,
      "velocity": 0.78,
      "track": "(unnamed)",
      "channel": 2,
      "lane": "J"
    },
    {
      "time": 49.286,
      "duration": 0.214,
      "midi": 37,
      "noteNumber": 37,
      "velocity": 0.66,
      "track": "DRUMS",
      "channel": 9,
      "lane": "D"
    },
    {
      "time": 49.286,
      "duration": 0.214,
      "midi": 42,
      "noteNumber": 42,
      "velocity": 0.58,
      "track": "DRUMS",
      "channel": 9,
      "lane": "D"
    },
    {
      "time": 49.286,
      "duration": 0.214,
      "midi": 69,
      "noteNumber": 69,
      "velocity": 0.43,
      "track": "DRUMS",
      "channel": 9,
      "lane": "K"
    },
    {
      "time": 49.5,
      "duration": 0.096,
      "midi": 33,
      "noteNumber": 33,
      "velocity": 0.47,
      "track": "(unnamed)",
      "channel": 1,
      "lane": "D"
    },
    {
      "time": 49.5,
      "duration": 0.214,
      "midi": 35,
      "noteNumber": 35,
      "velocity": 0.43,
      "track": "DRUMS",
      "channel": 9,
      "lane": "D"
    },
    {
      "time": 49.5,
      "duration": 0.214,
      "midi": 42,
      "noteNumber": 42,
      "velocity": 0.66,
      "track": "DRUMS",
      "channel": 9,
      "lane": "D"
    },
    {
      "time": 49.5,
      "duration": 0.214,
      "midi": 69,
      "noteNumber": 69,
      "velocity": 0.43,
      "track": "DRUMS",
      "channel": 9,
      "lane": "K"
    },
    {
      "time": 49.547,
      "duration": 0.127,
      "midi": 68,
      "noteNumber": 68,
      "velocity": 0.61,
      "track": "(unnamed)",
      "channel": 2,
      "lane": "K"
    },
    {
      "time": 49.603,
      "duration": 1.607,
      "midi": 69,
      "noteNumber": 69,
      "velocity": 0.83,
      "track": "(unnamed)",
      "channel": 2,
      "lane": "K"
    },
    {
      "time": 49.714,
      "duration": 0.603,
      "midi": 41,
      "noteNumber": 41,
      "velocity": 0.64,
      "track": "(unnamed)",
      "channel": 1,
      "lane": "D"
    },
    {
      "time": 49.714,
      "duration": 0.214,
      "midi": 35,
      "noteNumber": 35,
      "velocity": 0.5,
      "track": "DRUMS",
      "channel": 9,
      "lane": "D"
    },
    {
      "time": 49.714,
      "duration": 0.214,
      "midi": 42,
      "noteNumber": 42,
      "velocity": 0.58,
      "track": "DRUMS",
      "channel": 9,
      "lane": "D"
    },
    {
      "time": 49.714,
      "duration": 0.214,
      "midi": 69,
      "noteNumber": 69,
      "velocity": 0.5,
      "track": "DRUMS",
      "channel": 9,
      "lane": "K"
    },
    {
      "time": 49.928,
      "duration": 0.214,
      "midi": 42,
      "noteNumber": 42,
      "velocity": 0.5,
      "track": "DRUMS",
      "channel": 9,
      "lane": "D"
    },
    {
      "time": 49.928,
      "duration": 0.214,
      "midi": 69,
      "noteNumber": 69,
      "velocity": 0.43,
      "track": "DRUMS",
      "channel": 9,
      "lane": "K"
    },
    {
      "time": 50.143,
      "duration": 0.214,
      "midi": 37,
      "noteNumber": 37,
      "velocity": 0.66,
      "track": "DRUMS",
      "channel": 9,
      "lane": "D"
    },
    {
      "time": 50.143,
      "duration": 0.214,
      "midi": 42,
      "noteNumber": 42,
      "velocity": 0.58,
      "track": "DRUMS",
      "channel": 9,
      "lane": "D"
    },
    {
      "time": 50.143,
      "duration": 0.214,
      "midi": 48,
      "noteNumber": 48,
      "velocity": 0.5,
      "track": "DRUMS",
      "channel": 9,
      "lane": "F"
    },
    {
      "time": 50.143,
      "duration": 0.214,
      "midi": 69,
      "noteNumber": 69,
      "velocity": 0.43,
      "track": "DRUMS",
      "channel": 9,
      "lane": "K"
    },
    {
      "time": 50.357,
      "duration": 0.089,
      "midi": 47,
      "noteNumber": 47,
      "velocity": 0.52,
      "track": "(unnamed)",
      "channel": 1,
      "lane": "F"
    },
    {
      "time": 50.357,
      "duration": 0.214,
      "midi": 35,
      "noteNumber": 35,
      "velocity": 0.5,
      "track": "DRUMS",
      "channel": 9,
      "lane": "D"
    },
    {
      "time": 50.357,
      "duration": 0.214,
      "midi": 46,
      "noteNumber": 46,
      "velocity": 0.58,
      "track": "DRUMS",
      "channel": 9,
      "lane": "F"
    },
    {
      "time": 50.357,
      "duration": 0.214,
      "midi": 69,
      "noteNumber": 69,
      "velocity": 0.5,
      "track": "DRUMS",
      "channel": 9,
      "lane": "K"
    },
    {
      "time": 50.379,
      "duration": 0.507,
      "midi": 53,
      "noteNumber": 53,
      "velocity": 0.72,
      "track": "(unnamed)",
      "channel": 2,
      "lane": "F"
    },
    {
      "time": 50.384,
      "duration": 0.578,
      "midi": 64,
      "noteNumber": 64,
      "velocity": 0.69,
      "track": "(unnamed)",
      "channel": 2,
      "lane": "J"
    },
    {
      "time": 50.393,
      "duration": 0.565,
      "midi": 60,
      "noteNumber": 60,
      "velocity": 0.7,
      "track": "(unnamed)",
      "channel": 2,
      "lane": "J"
    },
    {
      "time": 50.571,
      "duration": 0.525,
      "midi": 48,
      "noteNumber": 48,
      "velocity": 0.58,
      "track": "(unnamed)",
      "channel": 1,
      "lane": "F"
    },
    {
      "time": 50.571,
      "duration": 0.214,
      "midi": 35,
      "noteNumber": 35,
      "velocity": 0.5,
      "track": "DRUMS",
      "channel": 9,
      "lane": "D"
    },
    {
      "time": 50.571,
      "duration": 0.214,
      "midi": 42,
      "noteNumber": 42,
      "velocity": 0.58,
      "track": "DRUMS",
      "channel": 9,
      "lane": "D"
    },
    {
      "time": 50.571,
      "duration": 0.214,
      "midi": 69,
      "noteNumber": 69,
      "velocity": 0.5,
      "track": "DRUMS",
      "channel": 9,
      "lane": "K"
    },
    {
      "time": 50.786,
      "duration": 0.214,
      "midi": 37,
      "noteNumber": 37,
      "velocity": 0.74,
      "track": "DRUMS",
      "channel": 9,
      "lane": "D"
    },
    {
      "time": 50.786,
      "duration": 0.214,
      "midi": 42,
      "noteNumber": 42,
      "velocity": 0.58,
      "track": "DRUMS",
      "channel": 9,
      "lane": "D"
    },
    {
      "time": 50.786,
      "duration": 0.214,
      "midi": 69,
      "noteNumber": 69,
      "velocity": 0.43,
      "track": "DRUMS",
      "channel": 9,
      "lane": "K"
    },
    {
      "time": 51,
      "duration": 0.214,
      "midi": 42,
      "noteNumber": 42,
      "velocity": 0.58,
      "track": "DRUMS",
      "channel": 9,
      "lane": "D"
    },
    {
      "time": 51,
      "duration": 0.214,
      "midi": 69,
      "noteNumber": 69,
      "velocity": 0.43,
      "track": "DRUMS",
      "channel": 9,
      "lane": "K"
    },
    {
      "time": 51.214,
      "duration": 0.116,
      "midi": 41,
      "noteNumber": 41,
      "velocity": 0.5,
      "track": "(unnamed)",
      "channel": 1,
      "lane": "D"
    },
    {
      "time": 51.214,
      "duration": 0.214,
      "midi": 35,
      "noteNumber": 35,
      "velocity": 0.58,
      "track": "DRUMS",
      "channel": 9,
      "lane": "D"
    },
    {
      "time": 51.214,
      "duration": 0.214,
      "midi": 46,
      "noteNumber": 46,
      "velocity": 0.5,
      "track": "DRUMS",
      "channel": 9,
      "lane": "F"
    },
    {
      "time": 51.214,
      "duration": 0.214,
      "midi": 69,
      "noteNumber": 69,
      "velocity": 0.5,
      "track": "DRUMS",
      "channel": 9,
      "lane": "K"
    },
    {
      "time": 51.225,
      "duration": 0.163,
      "midi": 68,
      "noteNumber": 68,
      "velocity": 0.81,
      "track": "(unnamed)",
      "channel": 2,
      "lane": "K"
    },
    {
      "time": 51.428,
      "duration": 0.571,
      "midi": 35,
      "noteNumber": 35,
      "velocity": 0.66,
      "track": "(unnamed)",
      "channel": 1,
      "lane": "D"
    },
    {
      "time": 51.428,
      "duration": 0.214,
      "midi": 35,
      "noteNumber": 35,
      "velocity": 0.5,
      "track": "DRUMS",
      "channel": 9,
      "lane": "D"
    },
    {
      "time": 51.428,
      "duration": 0.214,
      "midi": 37,
      "noteNumber": 37,
      "velocity": 0.66,
      "track": "DRUMS",
      "channel": 9,
      "lane": "D"
    },
    {
      "time": 51.428,
      "duration": 0.214,
      "midi": 42,
      "noteNumber": 42,
      "velocity": 0.69,
      "track": "DRUMS",
      "channel": 9,
      "lane": "D"
    },
    {
      "time": 51.428,
      "duration": 0.214,
      "midi": 69,
      "noteNumber": 69,
      "velocity": 0.5,
      "track": "DRUMS",
      "channel": 9,
      "lane": "K"
    },
    {
      "time": 51.437,
      "duration": 0.652,
      "midi": 64,
      "noteNumber": 64,
      "velocity": 0.76,
      "track": "(unnamed)",
      "channel": 2,
      "lane": "J"
    },
    {
      "time": 51.643,
      "duration": 0.214,
      "midi": 42,
      "noteNumber": 42,
      "velocity": 0.5,
      "track": "DRUMS",
      "channel": 9,
      "lane": "D"
    },
    {
      "time": 51.643,
      "duration": 0.214,
      "midi": 69,
      "noteNumber": 69,
      "velocity": 0.43,
      "track": "DRUMS",
      "channel": 9,
      "lane": "K"
    },
    {
      "time": 51.85,
      "duration": 1.105,
      "midi": 57,
      "noteNumber": 57,
      "velocity": 0.7,
      "track": "(unnamed)",
      "channel": 2,
      "lane": "J"
    },
    {
      "time": 51.857,
      "duration": 0.214,
      "midi": 42,
      "noteNumber": 42,
      "velocity": 0.5,
      "track": "DRUMS",
      "channel": 9,
      "lane": "D"
    },
    {
      "time": 51.857,
      "duration": 0.214,
      "midi": 69,
      "noteNumber": 69,
      "velocity": 0.43,
      "track": "DRUMS",
      "channel": 9,
      "lane": "K"
    },
    {
      "time": 52.071,
      "duration": 0.116,
      "midi": 41,
      "noteNumber": 41,
      "velocity": 0.47,
      "track": "(unnamed)",
      "channel": 1,
      "lane": "D"
    },
    {
      "time": 52.071,
      "duration": 0.214,
      "midi": 35,
      "noteNumber": 35,
      "velocity": 0.43,
      "track": "DRUMS",
      "channel": 9,
      "lane": "D"
    },
    {
      "time": 52.071,
      "duration": 0.214,
      "midi": 37,
      "noteNumber": 37,
      "velocity": 0.74,
      "track": "DRUMS",
      "channel": 9,
      "lane": "D"
    },
    {
      "time": 52.071,
      "duration": 0.214,
      "midi": 42,
      "noteNumber": 42,
      "velocity": 0.5,
      "track": "DRUMS",
      "channel": 9,
      "lane": "D"
    },
    {
      "time": 52.071,
      "duration": 0.214,
      "midi": 69,
      "noteNumber": 69,
      "velocity": 0.43,
      "track": "DRUMS",
      "channel": 9,
      "lane": "K"
    },
    {
      "time": 52.098,
      "duration": 1.281,
      "midi": 62,
      "noteNumber": 62,
      "velocity": 0.6,
      "track": "(unnamed)",
      "channel": 2,
      "lane": "J"
    },
    {
      "time": 52.286,
      "duration": 0.531,
      "midi": 41,
      "noteNumber": 41,
      "velocity": 0.61,
      "track": "(unnamed)",
      "channel": 1,
      "lane": "D"
    },
    {
      "time": 52.286,
      "duration": 0.214,
      "midi": 35,
      "noteNumber": 35,
      "velocity": 0.5,
      "track": "DRUMS",
      "channel": 9,
      "lane": "D"
    },
    {
      "time": 52.286,
      "duration": 0.214,
      "midi": 42,
      "noteNumber": 42,
      "velocity": 0.58,
      "track": "DRUMS",
      "channel": 9,
      "lane": "D"
    },
    {
      "time": 52.286,
      "duration": 0.214,
      "midi": 69,
      "noteNumber": 69,
      "velocity": 0.5,
      "track": "DRUMS",
      "channel": 9,
      "lane": "K"
    },
    {
      "time": 52.5,
      "duration": 0.214,
      "midi": 42,
      "noteNumber": 42,
      "velocity": 0.5,
      "track": "DRUMS",
      "channel": 9,
      "lane": "D"
    },
    {
      "time": 52.5,
      "duration": 0.214,
      "midi": 69,
      "noteNumber": 69,
      "velocity": 0.43,
      "track": "DRUMS",
      "channel": 9,
      "lane": "K"
    },
    {
      "time": 52.714,
      "duration": 0.214,
      "midi": 37,
      "noteNumber": 37,
      "velocity": 0.66,
      "track": "DRUMS",
      "channel": 9,
      "lane": "D"
    },
    {
      "time": 52.714,
      "duration": 0.214,
      "midi": 42,
      "noteNumber": 42,
      "velocity": 0.58,
      "track": "DRUMS",
      "channel": 9,
      "lane": "D"
    },
    {
      "time": 52.714,
      "duration": 0.214,
      "midi": 45,
      "noteNumber": 45,
      "velocity": 0.5,
      "track": "DRUMS",
      "channel": 9,
      "lane": "F"
    },
    {
      "time": 52.714,
      "duration": 0.214,
      "midi": 69,
      "noteNumber": 69,
      "velocity": 0.43,
      "track": "DRUMS",
      "channel": 9,
      "lane": "K"
    },
    {
      "time": 52.928,
      "duration": 0.103,
      "midi": 35,
      "noteNumber": 35,
      "velocity": 0.56,
      "track": "(unnamed)",
      "channel": 1,
      "lane": "D"
    },
    {
      "time": 52.928,
      "duration": 0.214,
      "midi": 35,
      "noteNumber": 35,
      "velocity": 0.43,
      "track": "DRUMS",
      "channel": 9,
      "lane": "D"
    },
    {
      "time": 52.928,
      "duration": 0.214,
      "midi": 45,
      "noteNumber": 45,
      "velocity": 0.5,
      "track": "DRUMS",
      "channel": 9,
      "lane": "F"
    },
    {
      "time": 52.928,
      "duration": 0.214,
      "midi": 46,
      "noteNumber": 46,
      "velocity": 0.66,
      "track": "DRUMS",
      "channel": 9,
      "lane": "F"
    },
    {
      "time": 52.928,
      "duration": 0.214,
      "midi": 69,
      "noteNumber": 69,
      "velocity": 0.43,
      "track": "DRUMS",
      "channel": 9,
      "lane": "K"
    },
    {
      "time": 52.955,
      "duration": 0.112,
      "midi": 57,
      "noteNumber": 57,
      "velocity": 0.63,
      "track": "(unnamed)",
      "channel": 2,
      "lane": "J"
    },
    {
      "time": 53.143,
      "duration": 0.609,
      "midi": 40,
      "noteNumber": 40,
      "velocity": 0.63,
      "track": "(unnamed)",
      "channel": 1,
      "lane": "D"
    },
    {
      "time": 53.143,
      "duration": 0.076,
      "midi": 50,
      "noteNumber": 50,
      "velocity": 0.66,
      "track": "(unnamed)",
      "channel": 2,
      "lane": "F"
    },
    {
      "time": 53.143,
      "duration": 0.214,
      "midi": 35,
      "noteNumber": 35,
      "velocity": 0.5,
      "track": "DRUMS",
      "channel": 9,
      "lane": "D"
    },
    {
      "time": 53.143,
      "duration": 0.214,
      "midi": 42,
      "noteNumber": 42,
      "velocity": 0.58,
      "track": "DRUMS",
      "channel": 9,
      "lane": "D"
    },
    {
      "time": 53.143,
      "duration": 0.214,
      "midi": 69,
      "noteNumber": 69,
      "velocity": 0.5,
      "track": "DRUMS",
      "channel": 9,
      "lane": "K"
    },
    {
      "time": 53.149,
      "duration": 0.556,
      "midi": 56,
      "noteNumber": 56,
      "velocity": 0.66,
      "track": "(unnamed)",
      "channel": 2,
      "lane": "F"
    },
    {
      "time": 53.357,
      "duration": 0.214,
      "midi": 42,
      "noteNumber": 42,
      "velocity": 0.5,
      "track": "DRUMS",
      "channel": 9,
      "lane": "D"
    },
    {
      "time": 53.357,
      "duration": 0.214,
      "midi": 69,
      "noteNumber": 69,
      "velocity": 0.43,
      "track": "DRUMS",
      "channel": 9,
      "lane": "K"
    },
    {
      "time": 53.375,
      "duration": 0.324,
      "midi": 64,
      "noteNumber": 64,
      "velocity": 0.93,
      "track": "(unnamed)",
      "channel": 2,
      "lane": "J"
    },
    {
      "time": 53.379,
      "duration": 0.359,
      "midi": 62,
      "noteNumber": 62,
      "velocity": 0.84,
      "track": "(unnamed)",
      "channel": 2,
      "lane": "J"
    },
    {
      "time": 53.571,
      "duration": 0.214,
      "midi": 37,
      "noteNumber": 37,
      "velocity": 0.66,
      "track": "DRUMS",
      "channel": 9,
      "lane": "D"
    },
    {
      "time": 53.571,
      "duration": 0.214,
      "midi": 42,
      "noteNumber": 42,
      "velocity": 0.58,
      "track": "DRUMS",
      "channel": 9,
      "lane": "D"
    },
    {
      "time": 53.571,
      "duration": 0.214,
      "midi": 69,
      "noteNumber": 69,
      "velocity": 0.43,
      "track": "DRUMS",
      "channel": 9,
      "lane": "K"
    },
    {
      "time": 53.786,
      "duration": 0.089,
      "midi": 46,
      "noteNumber": 46,
      "velocity": 0.53,
      "track": "(unnamed)",
      "channel": 1,
      "lane": "F"
    },
    {
      "time": 53.786,
      "duration": 0.214,
      "midi": 35,
      "noteNumber": 35,
      "velocity": 0.5,
      "track": "DRUMS",
      "channel": 9,
      "lane": "D"
    },
    {
      "time": 53.786,
      "duration": 0.214,
      "midi": 42,
      "noteNumber": 42,
      "velocity": 0.58,
      "track": "DRUMS",
      "channel": 9,
      "lane": "D"
    },
    {
      "time": 53.786,
      "duration": 0.214,
      "midi": 69,
      "noteNumber": 69,
      "velocity": 0.5,
      "track": "DRUMS",
      "channel": 9,
      "lane": "K"
    },
    {
      "time": 54,
      "duration": 0.549,
      "midi": 47,
      "noteNumber": 47,
      "velocity": 0.62,
      "track": "(unnamed)",
      "channel": 1,
      "lane": "F"
    },
    {
      "time": 54,
      "duration": 0.214,
      "midi": 35,
      "noteNumber": 35,
      "velocity": 0.5,
      "track": "DRUMS",
      "channel": 9,
      "lane": "D"
    },
    {
      "time": 54,
      "duration": 0.214,
      "midi": 42,
      "noteNumber": 42,
      "velocity": 0.58,
      "track": "DRUMS",
      "channel": 9,
      "lane": "D"
    },
    {
      "time": 54,
      "duration": 0.214,
      "midi": 69,
      "noteNumber": 69,
      "velocity": 0.5,
      "track": "DRUMS",
      "channel": 9,
      "lane": "K"
    },
    {
      "time": 54.007,
      "duration": 0.25,
      "midi": 68,
      "noteNumber": 68,
      "velocity": 0.85,
      "track": "(unnamed)",
      "channel": 2,
      "lane": "K"
    },
    {
      "time": 54.015,
      "duration": 0.248,
      "midi": 59,
      "noteNumber": 59,
      "velocity": 0.79,
      "track": "(unnamed)",
      "channel": 2,
      "lane": "J"
    },
    {
      "time": 54.02,
      "duration": 0.221,
      "midi": 62,
      "noteNumber": 62,
      "velocity": 0.57,
      "track": "(unnamed)",
      "channel": 2,
      "lane": "J"
    },
    {
      "time": 54.214,
      "duration": 0.214,
      "midi": 37,
      "noteNumber": 37,
      "velocity": 0.74,
      "track": "DRUMS",
      "channel": 9,
      "lane": "D"
    },
    {
      "time": 54.214,
      "duration": 0.214,
      "midi": 42,
      "noteNumber": 42,
      "velocity": 0.58,
      "track": "DRUMS",
      "channel": 9,
      "lane": "D"
    },
    {
      "time": 54.214,
      "duration": 0.214,
      "midi": 69,
      "noteNumber": 69,
      "velocity": 0.43,
      "track": "DRUMS",
      "channel": 9,
      "lane": "K"
    },
    {
      "time": 54.428,
      "duration": 0.214,
      "midi": 42,
      "noteNumber": 42,
      "velocity": 0.58,
      "track": "DRUMS",
      "channel": 9,
      "lane": "D"
    },
    {
      "time": 54.428,
      "duration": 0.214,
      "midi": 69,
      "noteNumber": 69,
      "velocity": 0.43,
      "track": "DRUMS",
      "channel": 9,
      "lane": "K"
    },
    {
      "time": 54.448,
      "duration": 0.317,
      "midi": 71,
      "noteNumber": 71,
      "velocity": 0.57,
      "track": "(unnamed)",
      "channel": 2,
      "lane": "K"
    },
    {
      "time": 54.453,
      "duration": 0.301,
      "midi": 62,
      "noteNumber": 62,
      "velocity": 0.64,
      "track": "(unnamed)",
      "channel": 2,
      "lane": "J"
    },
    {
      "time": 54.457,
      "duration": 0.234,
      "midi": 65,
      "noteNumber": 65,
      "velocity": 0.63,
      "track": "(unnamed)",
      "channel": 2,
      "lane": "J"
    },
    {
      "time": 54.466,
      "duration": 0.234,
      "midi": 56,
      "noteNumber": 56,
      "velocity": 0.74,
      "track": "(unnamed)",
      "channel": 2,
      "lane": "F"
    },
    {
      "time": 54.643,
      "duration": 0.089,
      "midi": 40,
      "noteNumber": 40,
      "velocity": 0.51,
      "track": "(unnamed)",
      "channel": 1,
      "lane": "D"
    },
    {
      "time": 54.643,
      "duration": 0.214,
      "midi": 35,
      "noteNumber": 35,
      "velocity": 0.58,
      "track": "DRUMS",
      "channel": 9,
      "lane": "D"
    },
    {
      "time": 54.643,
      "duration": 0.214,
      "midi": 42,
      "noteNumber": 42,
      "velocity": 0.5,
      "track": "DRUMS",
      "channel": 9,
      "lane": "D"
    },
    {
      "time": 54.643,
      "duration": 0.214,
      "midi": 69,
      "noteNumber": 69,
      "velocity": 0.5,
      "track": "DRUMS",
      "channel": 9,
      "lane": "K"
    },
    {
      "time": 54.857,
      "duration": 0.467,
      "midi": 33,
      "noteNumber": 33,
      "velocity": 0.66,
      "track": "(unnamed)",
      "channel": 1,
      "lane": "D"
    },
    {
      "time": 54.857,
      "duration": 0.214,
      "midi": 35,
      "noteNumber": 35,
      "velocity": 0.5,
      "track": "DRUMS",
      "channel": 9,
      "lane": "D"
    },
    {
      "time": 54.857,
      "duration": 0.214,
      "midi": 37,
      "noteNumber": 37,
      "velocity": 0.66,
      "track": "DRUMS",
      "channel": 9,
      "lane": "D"
    },
    {
      "time": 54.857,
      "duration": 0.214,
      "midi": 42,
      "noteNumber": 42,
      "velocity": 0.69,
      "track": "DRUMS",
      "channel": 9,
      "lane": "D"
    },
    {
      "time": 54.857,
      "duration": 0.214,
      "midi": 69,
      "noteNumber": 69,
      "velocity": 0.5,
      "track": "DRUMS",
      "channel": 9,
      "lane": "K"
    },
    {
      "time": 54.864,
      "duration": 0.556,
      "midi": 69,
      "noteNumber": 69,
      "velocity": 0.65,
      "track": "(unnamed)",
      "channel": 2,
      "lane": "K"
    },
    {
      "time": 54.873,
      "duration": 0.462,
      "midi": 55,
      "noteNumber": 55,
      "velocity": 0.65,
      "track": "(unnamed)",
      "channel": 2,
      "lane": "F"
    },
    {
      "time": 54.877,
      "duration": 0.513,
      "midi": 64,
      "noteNumber": 64,
      "velocity": 0.64,
      "track": "(unnamed)",
      "channel": 2,
      "lane": "J"
    },
    {
      "time": 55.071,
      "duration": 0.214,
      "midi": 42,
      "noteNumber": 42,
      "velocity": 0.5,
      "track": "DRUMS",
      "channel": 9,
      "lane": "D"
    },
    {
      "time": 55.071,
      "duration": 0.214,
      "midi": 69,
      "noteNumber": 69,
      "velocity": 0.43,
      "track": "DRUMS",
      "channel": 9,
      "lane": "K"
    },
    {
      "time": 55.286,
      "duration": 0.214,
      "midi": 42,
      "noteNumber": 42,
      "velocity": 0.5,
      "track": "DRUMS",
      "channel": 9,
      "lane": "D"
    },
    {
      "time": 55.286,
      "duration": 0.214,
      "midi": 69,
      "noteNumber": 69,
      "velocity": 0.43,
      "track": "DRUMS",
      "channel": 9,
      "lane": "K"
    },
    {
      "time": 55.315,
      "duration": 0.221,
      "midi": 57,
      "noteNumber": 57,
      "velocity": 0.75,
      "track": "(unnamed)",
      "channel": 2,
      "lane": "J"
    },
    {
      "time": 55.5,
      "duration": 0.103,
      "midi": 40,
      "noteNumber": 40,
      "velocity": 0.48,
      "track": "(unnamed)",
      "channel": 1,
      "lane": "D"
    },
    {
      "time": 55.5,
      "duration": 0.214,
      "midi": 35,
      "noteNumber": 35,
      "velocity": 0.43,
      "track": "DRUMS",
      "channel": 9,
      "lane": "D"
    },
    {
      "time": 55.5,
      "duration": 0.214,
      "midi": 37,
      "noteNumber": 37,
      "velocity": 0.74,
      "track": "DRUMS",
      "channel": 9,
      "lane": "D"
    },
    {
      "time": 55.5,
      "duration": 0.214,
      "midi": 42,
      "noteNumber": 42,
      "velocity": 0.5,
      "track": "DRUMS",
      "channel": 9,
      "lane": "D"
    },
    {
      "time": 55.5,
      "duration": 0.214,
      "midi": 69,
      "noteNumber": 69,
      "velocity": 0.43,
      "track": "DRUMS",
      "channel": 9,
      "lane": "K"
    },
    {
      "time": 55.52,
      "duration": 0.154,
      "midi": 55,
      "noteNumber": 55,
      "velocity": 0.66,
      "track": "(unnamed)",
      "channel": 2,
      "lane": "F"
    },
    {
      "time": 55.714,
      "duration": 0.614,
      "midi": 40,
      "noteNumber": 40,
      "velocity": 0.54,
      "track": "(unnamed)",
      "channel": 1,
      "lane": "D"
    },
    {
      "time": 55.714,
      "duration": 0.214,
      "midi": 35,
      "noteNumber": 35,
      "velocity": 0.5,
      "track": "DRUMS",
      "channel": 9,
      "lane": "D"
    },
    {
      "time": 55.714,
      "duration": 0.214,
      "midi": 42,
      "noteNumber": 42,
      "velocity": 0.58,
      "track": "DRUMS",
      "channel": 9,
      "lane": "D"
    },
    {
      "time": 55.714,
      "duration": 0.214,
      "midi": 69,
      "noteNumber": 69,
      "velocity": 0.5,
      "track": "DRUMS",
      "channel": 9,
      "lane": "K"
    },
    {
      "time": 55.732,
      "duration": 0.645,
      "midi": 54,
      "noteNumber": 54,
      "velocity": 0.69,
      "track": "(unnamed)",
      "channel": 2,
      "lane": "F"
    },
    {
      "time": 55.928,
      "duration": 0.214,
      "midi": 42,
      "noteNumber": 42,
      "velocity": 0.5,
      "track": "DRUMS",
      "channel": 9,
      "lane": "D"
    },
    {
      "time": 55.928,
      "duration": 0.214,
      "midi": 69,
      "noteNumber": 69,
      "velocity": 0.43,
      "track": "DRUMS",
      "channel": 9,
      "lane": "K"
    },
    {
      "time": 55.96,
      "duration": 0.475,
      "midi": 60,
      "noteNumber": 60,
      "velocity": 0.64,
      "track": "(unnamed)",
      "channel": 2,
      "lane": "J"
    },
    {
      "time": 55.964,
      "duration": 0.473,
      "midi": 64,
      "noteNumber": 64,
      "velocity": 0.59,
      "track": "(unnamed)",
      "channel": 2,
      "lane": "J"
    },
    {
      "time": 55.969,
      "duration": 0.431,
      "midi": 69,
      "noteNumber": 69,
      "velocity": 0.76,
      "track": "(unnamed)",
      "channel": 2,
      "lane": "K"
    },
    {
      "time": 56.143,
      "duration": 0.214,
      "midi": 37,
      "noteNumber": 37,
      "velocity": 0.66,
      "track": "DRUMS",
      "channel": 9,
      "lane": "D"
    },
    {
      "time": 56.143,
      "duration": 0.214,
      "midi": 42,
      "noteNumber": 42,
      "velocity": 0.58,
      "track": "DRUMS",
      "channel": 9,
      "lane": "D"
    },
    {
      "time": 56.143,
      "duration": 0.214,
      "midi": 69,
      "noteNumber": 69,
      "velocity": 0.43,
      "track": "DRUMS",
      "channel": 9,
      "lane": "K"
    },
    {
      "time": 56.357,
      "duration": 0.092,
      "midi": 33,
      "noteNumber": 33,
      "velocity": 0.58,
      "track": "(unnamed)",
      "channel": 1,
      "lane": "D"
    },
    {
      "time": 56.357,
      "duration": 0.214,
      "midi": 35,
      "noteNumber": 35,
      "velocity": 0.43,
      "track": "DRUMS",
      "channel": 9,
      "lane": "D"
    },
    {
      "time": 56.357,
      "duration": 0.214,
      "midi": 46,
      "noteNumber": 46,
      "velocity": 0.66,
      "track": "DRUMS",
      "channel": 9,
      "lane": "F"
    },
    {
      "time": 56.357,
      "duration": 0.214,
      "midi": 69,
      "noteNumber": 69,
      "velocity": 0.43,
      "track": "DRUMS",
      "channel": 9,
      "lane": "K"
    },
    {
      "time": 56.571,
      "duration": 0.464,
      "midi": 35,
      "noteNumber": 35,
      "velocity": 0.55,
      "track": "(unnamed)",
      "channel": 1,
      "lane": "D"
    },
    {
      "time": 56.571,
      "duration": 0.429,
      "midi": 35,
      "noteNumber": 35,
      "velocity": 0.43,
      "track": "DRUMS",
      "channel": 9,
      "lane": "D"
    },
    {
      "time": 56.571,
      "duration": 0.429,
      "midi": 42,
      "noteNumber": 42,
      "velocity": 0.5,
      "track": "DRUMS",
      "channel": 9,
      "lane": "D"
    },
    {
      "time": 56.578,
      "duration": 0.679,
      "midi": 64,
      "noteNumber": 64,
      "velocity": 0.57,
      "track": "(unnamed)",
      "channel": 2,
      "lane": "J"
    },
    {
      "time": 56.806,
      "duration": 0.424,
      "midi": 57,
      "noteNumber": 57,
      "velocity": 0.72,
      "track": "(unnamed)",
      "channel": 2,
      "lane": "J"
    },
    {
      "time": 57,
      "duration": 0.429,
      "midi": 42,
      "noteNumber": 42,
      "velocity": 0.5,
      "track": "DRUMS",
      "channel": 9,
      "lane": "D"
    },
    {
      "time": 57,
      "duration": 0.429,
      "midi": 49,
      "noteNumber": 49,
      "velocity": 0.66,
      "track": "DRUMS",
      "channel": 9,
      "lane": "F"
    },
    {
      "time": 57.015,
      "duration": 0.647,
      "midi": 62,
      "noteNumber": 62,
      "velocity": 0.65,
      "track": "(unnamed)",
      "channel": 2,
      "lane": "J"
    },
    {
      "time": 57.214,
      "duration": 0.114,
      "midi": 35,
      "noteNumber": 35,
      "velocity": 0.43,
      "track": "(unnamed)",
      "channel": 1,
      "lane": "D"
    },
    {
      "time": 57.257,
      "duration": 0.379,
      "midi": 64,
      "noteNumber": 64,
      "velocity": 0.69,
      "track": "(unnamed)",
      "channel": 2,
      "lane": "J"
    },
    {
      "time": 57.428,
      "duration": 0.513,
      "midi": 40,
      "noteNumber": 40,
      "velocity": 0.59,
      "track": "(unnamed)",
      "channel": 1,
      "lane": "D"
    },
    {
      "time": 57.428,
      "duration": 0.214,
      "midi": 38,
      "noteNumber": 38,
      "velocity": 0.5,
      "track": "DRUMS",
      "channel": 9,
      "lane": "D"
    },
    {
      "time": 57.643,
      "duration": 0.429,
      "midi": 45,
      "noteNumber": 45,
      "velocity": 0.5,
      "track": "DRUMS",
      "channel": 9,
      "lane": "F"
    },
    {
      "time": 57.685,
      "duration": 0.174,
      "midi": 64,
      "noteNumber": 64,
      "velocity": 0.74,
      "track": "(unnamed)",
      "channel": 2,
      "lane": "J"
    },
    {
      "time": 57.884,
      "duration": 0.187,
      "midi": 69,
      "noteNumber": 69,
      "velocity": 0.89,
      "track": "(unnamed)",
      "channel": 2,
      "lane": "K"
    },
    {
      "time": 58.071,
      "duration": 0.089,
      "midi": 40,
      "noteNumber": 40,
      "velocity": 0.54,
      "track": "(unnamed)",
      "channel": 1,
      "lane": "D"
    },
    {
      "time": 58.071,
      "duration": 0.214,
      "midi": 45,
      "noteNumber": 45,
      "velocity": 0.66,
      "track": "DRUMS",
      "channel": 9,
      "lane": "F"
    },
    {
      "time": 58.091,
      "duration": 0.205,
      "midi": 72,
      "noteNumber": 72,
      "velocity": 0.95,
      "track": "(unnamed)",
      "channel": 2,
      "lane": "K"
    },
    {
      "time": 58.286,
      "duration": 0.607,
      "midi": 33,
      "noteNumber": 33,
      "velocity": 0.63,
      "track": "(unnamed)",
      "channel": 1,
      "lane": "D"
    },
    {
      "time": 58.286,
      "duration": 0.214,
      "midi": 35,
      "noteNumber": 35,
      "velocity": 0.5,
      "track": "DRUMS",
      "channel": 9,
      "lane": "D"
    },
    {
      "time": 58.286,
      "duration": 0.214,
      "midi": 37,
      "noteNumber": 37,
      "velocity": 0.66,
      "track": "DRUMS",
      "channel": 9,
      "lane": "D"
    },
    {
      "time": 58.286,
      "duration": 0.214,
      "midi": 42,
      "noteNumber": 42,
      "velocity": 0.69,
      "track": "DRUMS",
      "channel": 9,
      "lane": "D"
    },
    {
      "time": 58.286,
      "duration": 0.214,
      "midi": 62,
      "noteNumber": 62,
      "velocity": 0.5,
      "track": "DRUMS",
      "channel": 9,
      "lane": "J"
    },
    {
      "time": 58.308,
      "duration": 0.214,
      "midi": 74,
      "noteNumber": 74,
      "velocity": 0.87,
      "track": "(unnamed)",
      "channel": 2,
      "lane": "K"
    },
    {
      "time": 58.5,
      "duration": 0.214,
      "midi": 51,
      "noteNumber": 51,
      "velocity": 0.5,
      "track": "DRUMS",
      "channel": 9,
      "lane": "F"
    },
    {
      "time": 58.522,
      "duration": 0.185,
      "midi": 74,
      "noteNumber": 74,
      "velocity": 0.79,
      "track": "(unnamed)",
      "channel": 2,
      "lane": "K"
    },
    {
      "time": 58.714,
      "duration": 0.214,
      "midi": 51,
      "noteNumber": 51,
      "velocity": 0.5,
      "track": "DRUMS",
      "channel": 9,
      "lane": "F"
    },
    {
      "time": 58.714,
      "duration": 0.214,
      "midi": 62,
      "noteNumber": 62,
      "velocity": 0.43,
      "track": "DRUMS",
      "channel": 9,
      "lane": "J"
    },
    {
      "time": 58.911,
      "duration": 0.458,
      "midi": 55,
      "noteNumber": 55,
      "velocity": 0.69,
      "track": "(unnamed)",
      "channel": 2,
      "lane": "F"
    },
    {
      "time": 58.928,
      "duration": 0.098,
      "midi": 40,
      "noteNumber": 40,
      "velocity": 0.46,
      "track": "(unnamed)",
      "channel": 1,
      "lane": "D"
    },
    {
      "time": 58.928,
      "duration": 0.214,
      "midi": 35,
      "noteNumber": 35,
      "velocity": 0.43,
      "track": "DRUMS",
      "channel": 9,
      "lane": "D"
    },
    {
      "time": 58.928,
      "duration": 0.214,
      "midi": 37,
      "noteNumber": 37,
      "velocity": 0.74,
      "track": "DRUMS",
      "channel": 9,
      "lane": "D"
    },
    {
      "time": 58.928,
      "duration": 0.214,
      "midi": 51,
      "noteNumber": 51,
      "velocity": 0.5,
      "track": "DRUMS",
      "channel": 9,
      "lane": "F"
    },
    {
      "time": 58.931,
      "duration": 0.491,
      "midi": 60,
      "noteNumber": 60,
      "velocity": 0.73,
      "track": "(unnamed)",
      "channel": 2,
      "lane": "J"
    },
    {
      "time": 58.944,
      "duration": 0.482,
      "midi": 64,
      "noteNumber": 64,
      "velocity": 0.59,
      "track": "(unnamed)",
      "channel": 2,
      "lane": "J"
    },
    {
      "time": 59.143,
      "duration": 0.58,
      "midi": 40,
      "noteNumber": 40,
      "velocity": 0.59,
      "track": "(unnamed)",
      "channel": 1,
      "lane": "D"
    },
    {
      "time": 59.143,
      "duration": 0.214,
      "midi": 35,
      "noteNumber": 35,
      "velocity": 0.5,
      "track": "DRUMS",
      "channel": 9,
      "lane": "D"
    },
    {
      "time": 59.143,
      "duration": 0.214,
      "midi": 51,
      "noteNumber": 51,
      "velocity": 0.58,
      "track": "DRUMS",
      "channel": 9,
      "lane": "F"
    },
    {
      "time": 59.143,
      "duration": 0.214,
      "midi": 63,
      "noteNumber": 63,
      "velocity": 0.5,
      "track": "DRUMS",
      "channel": 9,
      "lane": "J"
    },
    {
      "time": 59.357,
      "duration": 0.214,
      "midi": 51,
      "noteNumber": 51,
      "velocity": 0.5,
      "track": "DRUMS",
      "channel": 9,
      "lane": "F"
    },
    {
      "time": 59.393,
      "duration": 0.083,
      "midi": 73,
      "noteNumber": 73,
      "velocity": 0.58,
      "track": "(unnamed)",
      "channel": 2,
      "lane": "K"
    },
    {
      "time": 59.404,
      "duration": 0.25,
      "midi": 74,
      "noteNumber": 74,
      "velocity": 0.89,
      "track": "(unnamed)",
      "channel": 2,
      "lane": "K"
    },
    {
      "time": 59.571,
      "duration": 0.214,
      "midi": 37,
      "noteNumber": 37,
      "velocity": 0.66,
      "track": "DRUMS",
      "channel": 9,
      "lane": "D"
    },
    {
      "time": 59.571,
      "duration": 0.214,
      "midi": 51,
      "noteNumber": 51,
      "velocity": 0.58,
      "track": "DRUMS",
      "channel": 9,
      "lane": "F"
    },
    {
      "time": 59.571,
      "duration": 0.214,
      "midi": 62,
      "noteNumber": 62,
      "velocity": 0.43,
      "track": "DRUMS",
      "channel": 9,
      "lane": "J"
    },
    {
      "time": 59.62,
      "duration": 0.187,
      "midi": 72,
      "noteNumber": 72,
      "velocity": 0.86,
      "track": "(unnamed)",
      "channel": 2,
      "lane": "K"
    },
    {
      "time": 59.786,
      "duration": 0.098,
      "midi": 33,
      "noteNumber": 33,
      "velocity": 0.44,
      "track": "(unnamed)",
      "channel": 1,
      "lane": "D"
    },
    {
      "time": 59.786,
      "duration": 0.214,
      "midi": 35,
      "noteNumber": 35,
      "velocity": 0.43,
      "track": "DRUMS",
      "channel": 9,
      "lane": "D"
    },
    {
      "time": 59.786,
      "duration": 0.214,
      "midi": 51,
      "noteNumber": 51,
      "velocity": 0.66,
      "track": "DRUMS",
      "channel": 9,
      "lane": "F"
    },
    {
      "time": 59.83,
      "duration": 0.165,
      "midi": 69,
      "noteNumber": 69,
      "velocity": 0.83,
      "track": "(unnamed)",
      "channel": 2,
      "lane": "K"
    },
    {
      "time": 60,
      "duration": 0.567,
      "midi": 35,
      "noteNumber": 35,
      "velocity": 0.61,
      "track": "(unnamed)",
      "channel": 1,
      "lane": "D"
    },
    {
      "time": 60,
      "duration": 0.214,
      "midi": 35,
      "noteNumber": 35,
      "velocity": 0.5,
      "track": "DRUMS",
      "channel": 9,
      "lane": "D"
    },
    {
      "time": 60,
      "duration": 0.214,
      "midi": 51,
      "noteNumber": 51,
      "velocity": 0.58,
      "track": "DRUMS",
      "channel": 9,
      "lane": "F"
    },
    {
      "time": 60,
      "duration": 0.214,
      "midi": 62,
      "noteNumber": 62,
      "velocity": 0.5,
      "track": "DRUMS",
      "channel": 9,
      "lane": "J"
    },
    {
      "time": 60.029,
      "duration": 0.23,
      "midi": 64,
      "noteNumber": 64,
      "velocity": 0.76,
      "track": "(unnamed)",
      "channel": 2,
      "lane": "J"
    },
    {
      "time": 60.214,
      "duration": 0.214,
      "midi": 51,
      "noteNumber": 51,
      "velocity": 0.5,
      "track": "DRUMS",
      "channel": 9,
      "lane": "F"
    },
    {
      "time": 60.214,
      "duration": 0.214,
      "midi": 62,
      "noteNumber": 62,
      "velocity": 0.43,
      "track": "DRUMS",
      "channel": 9,
      "lane": "J"
    },
    {
      "time": 60.259,
      "duration": 0.721,
      "midi": 64,
      "noteNumber": 64,
      "velocity": 0.72,
      "track": "(unnamed)",
      "channel": 2,
      "lane": "J"
    },
    {
      "time": 60.428,
      "duration": 0.214,
      "midi": 37,
      "noteNumber": 37,
      "velocity": 0.66,
      "track": "DRUMS",
      "channel": 9,
      "lane": "D"
    },
    {
      "time": 60.428,
      "duration": 0.214,
      "midi": 51,
      "noteNumber": 51,
      "velocity": 0.58,
      "track": "DRUMS",
      "channel": 9,
      "lane": "F"
    },
    {
      "time": 60.643,
      "duration": 0.096,
      "midi": 35,
      "noteNumber": 35,
      "velocity": 0.52,
      "track": "(unnamed)",
      "channel": 1,
      "lane": "D"
    },
    {
      "time": 60.643,
      "duration": 0.214,
      "midi": 35,
      "noteNumber": 35,
      "velocity": 0.5,
      "track": "DRUMS",
      "channel": 9,
      "lane": "D"
    },
    {
      "time": 60.643,
      "duration": 0.214,
      "midi": 51,
      "noteNumber": 51,
      "velocity": 0.58,
      "track": "DRUMS",
      "channel": 9,
      "lane": "F"
    },
    {
      "time": 60.643,
      "duration": 0.214,
      "midi": 62,
      "noteNumber": 62,
      "velocity": 0.5,
      "track": "DRUMS",
      "channel": 9,
      "lane": "J"
    },
    {
      "time": 60.661,
      "duration": 0.185,
      "midi": 57,
      "noteNumber": 57,
      "velocity": 0.77,
      "track": "(unnamed)",
      "channel": 2,
      "lane": "J"
    },
    {
      "time": 60.667,
      "duration": 0.384,
      "midi": 62,
      "noteNumber": 62,
      "velocity": 0.72,
      "track": "(unnamed)",
      "channel": 2,
      "lane": "J"
    },
    {
      "time": 60.857,
      "duration": 0.598,
      "midi": 40,
      "noteNumber": 40,
      "velocity": 0.59,
      "track": "(unnamed)",
      "channel": 1,
      "lane": "D"
    },
    {
      "time": 60.857,
      "duration": 0.214,
      "midi": 35,
      "noteNumber": 35,
      "velocity": 0.5,
      "track": "DRUMS",
      "channel": 9,
      "lane": "D"
    },
    {
      "time": 60.857,
      "duration": 0.214,
      "midi": 51,
      "noteNumber": 51,
      "velocity": 0.58,
      "track": "DRUMS",
      "channel": 9,
      "lane": "F"
    },
    {
      "time": 61.071,
      "duration": 0.214,
      "midi": 37,
      "noteNumber": 37,
      "velocity": 0.74,
      "track": "DRUMS",
      "channel": 9,
      "lane": "D"
    },
    {
      "time": 61.071,
      "duration": 0.214,
      "midi": 51,
      "noteNumber": 51,
      "velocity": 0.58,
      "track": "DRUMS",
      "channel": 9,
      "lane": "F"
    },
    {
      "time": 61.114,
      "duration": 0.123,
      "midi": 63,
      "noteNumber": 63,
      "velocity": 0.6,
      "track": "(unnamed)",
      "channel": 2,
      "lane": "J"
    },
    {
      "time": 61.165,
      "duration": 0.161,
      "midi": 64,
      "noteNumber": 64,
      "velocity": 0.9,
      "track": "(unnamed)",
      "channel": 2,
      "lane": "J"
    },
    {
      "time": 61.286,
      "duration": 0.214,
      "midi": 51,
      "noteNumber": 51,
      "velocity": 0.58,
      "track": "DRUMS",
      "channel": 9,
      "lane": "F"
    },
    {
      "time": 61.286,
      "duration": 0.214,
      "midi": 62,
      "noteNumber": 62,
      "velocity": 0.43,
      "track": "DRUMS",
      "channel": 9,
      "lane": "J"
    },
    {
      "time": 61.321,
      "duration": 0.219,
      "midi": 62,
      "noteNumber": 62,
      "velocity": 0.76,
      "track": "(unnamed)",
      "channel": 2,
      "lane": "J"
    },
    {
      "time": 61.5,
      "duration": 0.103,
      "midi": 40,
      "noteNumber": 40,
      "velocity": 0.5,
      "track": "(unnamed)",
      "channel": 1,
      "lane": "D"
    },
    {
      "time": 61.5,
      "duration": 0.214,
      "midi": 35,
      "noteNumber": 35,
      "velocity": 0.58,
      "track": "DRUMS",
      "channel": 9,
      "lane": "D"
    },
    {
      "time": 61.5,
      "duration": 0.214,
      "midi": 51,
      "noteNumber": 51,
      "velocity": 0.5,
      "track": "DRUMS",
      "channel": 9,
      "lane": "F"
    },
    {
      "time": 61.52,
      "duration": 0.23,
      "midi": 60,
      "noteNumber": 60,
      "velocity": 0.87,
      "track": "(unnamed)",
      "channel": 2,
      "lane": "J"
    },
    {
      "time": 61.714,
      "duration": 0.509,
      "midi": 33,
      "noteNumber": 33,
      "velocity": 0.58,
      "track": "(unnamed)",
      "channel": 1,
      "lane": "D"
    },
    {
      "time": 61.714,
      "duration": 0.214,
      "midi": 35,
      "noteNumber": 35,
      "velocity": 0.5,
      "track": "DRUMS",
      "channel": 9,
      "lane": "D"
    },
    {
      "time": 61.714,
      "duration": 0.214,
      "midi": 37,
      "noteNumber": 37,
      "velocity": 0.66,
      "track": "DRUMS",
      "channel": 9,
      "lane": "D"
    },
    {
      "time": 61.714,
      "duration": 0.214,
      "midi": 42,
      "noteNumber": 42,
      "velocity": 0.69,
      "track": "DRUMS",
      "channel": 9,
      "lane": "D"
    },
    {
      "time": 61.714,
      "duration": 0.214,
      "midi": 63,
      "noteNumber": 63,
      "velocity": 0.5,
      "track": "DRUMS",
      "channel": 9,
      "lane": "J"
    },
    {
      "time": 61.73,
      "duration": 0.214,
      "midi": 57,
      "noteNumber": 57,
      "velocity": 0.77,
      "track": "(unnamed)",
      "channel": 2,
      "lane": "J"
    },
    {
      "time": 61.928,
      "duration": 0.214,
      "midi": 51,
      "noteNumber": 51,
      "velocity": 0.5,
      "track": "DRUMS",
      "channel": 9,
      "lane": "F"
    },
    {
      "time": 61.928,
      "duration": 0.214,
      "midi": 63,
      "noteNumber": 63,
      "velocity": 0.43,
      "track": "DRUMS",
      "channel": 9,
      "lane": "J"
    },
    {
      "time": 61.944,
      "duration": 0.239,
      "midi": 57,
      "noteNumber": 57,
      "velocity": 0.7,
      "track": "(unnamed)",
      "channel": 2,
      "lane": "J"
    },
    {
      "time": 62.143,
      "duration": 0.214,
      "midi": 51,
      "noteNumber": 51,
      "velocity": 0.5,
      "track": "DRUMS",
      "channel": 9,
      "lane": "F"
    },
    {
      "time": 62.143,
      "duration": 0.214,
      "midi": 62,
      "noteNumber": 62,
      "velocity": 0.43,
      "track": "DRUMS",
      "channel": 9,
      "lane": "J"
    },
    {
      "time": 62.357,
      "duration": 0.092,
      "midi": 40,
      "noteNumber": 40,
      "velocity": 0.53,
      "track": "(unnamed)",
      "channel": 1,
      "lane": "D"
    },
    {
      "time": 62.357,
      "duration": 0.214,
      "midi": 35,
      "noteNumber": 35,
      "velocity": 0.43,
      "track": "DRUMS",
      "channel": 9,
      "lane": "D"
    },
    {
      "time": 62.357,
      "duration": 0.214,
      "midi": 37,
      "noteNumber": 37,
      "velocity": 0.74,
      "track": "DRUMS",
      "channel": 9,
      "lane": "D"
    },
    {
      "time": 62.357,
      "duration": 0.214,
      "midi": 51,
      "noteNumber": 51,
      "velocity": 0.5,
      "track": "DRUMS",
      "channel": 9,
      "lane": "F"
    },
    {
      "time": 62.373,
      "duration": 0.422,
      "midi": 52,
      "noteNumber": 52,
      "velocity": 0.79,
      "track": "(unnamed)",
      "channel": 2,
      "lane": "F"
    },
    {
      "time": 62.377,
      "duration": 0.446,
      "midi": 57,
      "noteNumber": 57,
      "velocity": 0.75,
      "track": "(unnamed)",
      "channel": 2,
      "lane": "J"
    },
    {
      "time": 62.571,
      "duration": 0.449,
      "midi": 40,
      "noteNumber": 40,
      "velocity": 0.56,
      "track": "(unnamed)",
      "channel": 1,
      "lane": "D"
    },
    {
      "time": 62.571,
      "duration": 0.214,
      "midi": 35,
      "noteNumber": 35,
      "velocity": 0.5,
      "track": "DRUMS",
      "channel": 9,
      "lane": "D"
    },
    {
      "time": 62.571,
      "duration": 0.214,
      "midi": 51,
      "noteNumber": 51,
      "velocity": 0.58,
      "track": "DRUMS",
      "channel": 9,
      "lane": "F"
    },
    {
      "time": 62.571,
      "duration": 0.214,
      "midi": 62,
      "noteNumber": 62,
      "velocity": 0.5,
      "track": "DRUMS",
      "channel": 9,
      "lane": "J"
    },
    {
      "time": 62.786,
      "duration": 0.214,
      "midi": 51,
      "noteNumber": 51,
      "velocity": 0.5,
      "track": "DRUMS",
      "channel": 9,
      "lane": "F"
    },
    {
      "time": 62.786,
      "duration": 0.214,
      "midi": 63,
      "noteNumber": 63,
      "velocity": 0.43,
      "track": "DRUMS",
      "channel": 9,
      "lane": "J"
    },
    {
      "time": 62.815,
      "duration": 0.21,
      "midi": 60,
      "noteNumber": 60,
      "velocity": 0.87,
      "track": "(unnamed)",
      "channel": 2,
      "lane": "J"
    },
    {
      "time": 63,
      "duration": 0.214,
      "midi": 37,
      "noteNumber": 37,
      "velocity": 0.66,
      "track": "DRUMS",
      "channel": 9,
      "lane": "D"
    },
    {
      "time": 63,
      "duration": 0.214,
      "midi": 51,
      "noteNumber": 51,
      "velocity": 0.58,
      "track": "DRUMS",
      "channel": 9,
      "lane": "F"
    },
    {
      "time": 63,
      "duration": 0.214,
      "midi": 63,
      "noteNumber": 63,
      "velocity": 0.43,
      "track": "DRUMS",
      "channel": 9,
      "lane": "J"
    },
    {
      "time": 63.036,
      "duration": 0.201,
      "midi": 64,
      "noteNumber": 64,
      "velocity": 0.84,
      "track": "(unnamed)",
      "channel": 2,
      "lane": "J"
    },
    {
      "time": 63.214,
      "duration": 0.109,
      "midi": 33,
      "noteNumber": 33,
      "velocity": 0.53,
      "track": "(unnamed)",
      "channel": 1,
      "lane": "D"
    },
    {
      "time": 63.214,
      "duration": 0.214,
      "midi": 35,
      "noteNumber": 35,
      "velocity": 0.43,
      "track": "DRUMS",
      "channel": 9,
      "lane": "D"
    },
    {
      "time": 63.214,
      "duration": 0.214,
      "midi": 51,
      "noteNumber": 51,
      "velocity": 0.66,
      "track": "DRUMS",
      "channel": 9,
      "lane": "F"
    },
    {
      "time": 63.214,
      "duration": 0.214,
      "midi": 63,
      "noteNumber": 63,
      "velocity": 0.43,
      "track": "DRUMS",
      "channel": 9,
      "lane": "J"
    },
    {
      "time": 63.248,
      "duration": 0.295,
      "midi": 62,
      "noteNumber": 62,
      "velocity": 0.72,
      "track": "(unnamed)",
      "channel": 2,
      "lane": "J"
    },
    {
      "time": 63.428,
      "duration": 0.578,
      "midi": 35,
      "noteNumber": 35,
      "velocity": 0.54,
      "track": "(unnamed)",
      "channel": 1,
      "lane": "D"
    },
    {
      "time": 63.428,
      "duration": 0.214,
      "midi": 35,
      "noteNumber": 35,
      "velocity": 0.5,
      "track": "DRUMS",
      "channel": 9,
      "lane": "D"
    },
    {
      "time": 63.428,
      "duration": 0.214,
      "midi": 51,
      "noteNumber": 51,
      "velocity": 0.58,
      "track": "DRUMS",
      "channel": 9,
      "lane": "F"
    },
    {
      "time": 63.44,
      "duration": 0.248,
      "midi": 67,
      "noteNumber": 67,
      "velocity": 0.72,
      "track": "(unnamed)",
      "channel": 2,
      "lane": "J"
    },
    {
      "time": 63.643,
      "duration": 0.214,
      "midi": 51,
      "noteNumber": 51,
      "velocity": 0.5,
      "track": "DRUMS",
      "channel": 9,
      "lane": "F"
    },
    {
      "time": 63.643,
      "duration": 0.214,
      "midi": 63,
      "noteNumber": 63,
      "velocity": 0.43,
      "track": "DRUMS",
      "channel": 9,
      "lane": "J"
    },
    {
      "time": 63.687,
      "duration": 0.817,
      "midi": 67,
      "noteNumber": 67,
      "velocity": 0.71,
      "track": "(unnamed)",
      "channel": 2,
      "lane": "J"
    },
    {
      "time": 63.857,
      "duration": 0.214,
      "midi": 37,
      "noteNumber": 37,
      "velocity": 0.66,
      "track": "DRUMS",
      "channel": 9,
      "lane": "D"
    },
    {
      "time": 63.857,
      "duration": 0.214,
      "midi": 51,
      "noteNumber": 51,
      "velocity": 0.58,
      "track": "DRUMS",
      "channel": 9,
      "lane": "F"
    },
    {
      "time": 63.857,
      "duration": 0.214,
      "midi": 62,
      "noteNumber": 62,
      "velocity": 0.43,
      "track": "DRUMS",
      "channel": 9,
      "lane": "J"
    },
    {
      "time": 64.071,
      "duration": 0.116,
      "midi": 35,
      "noteNumber": 35,
      "velocity": 0.58,
      "track": "(unnamed)",
      "channel": 1,
      "lane": "D"
    },
    {
      "time": 64.071,
      "duration": 0.214,
      "midi": 35,
      "noteNumber": 35,
      "velocity": 0.5,
      "track": "DRUMS",
      "channel": 9,
      "lane": "D"
    },
    {
      "time": 64.071,
      "duration": 0.214,
      "midi": 51,
      "noteNumber": 51,
      "velocity": 0.58,
      "track": "DRUMS",
      "channel": 9,
      "lane": "F"
    },
    {
      "time": 64.071,
      "duration": 0.214,
      "midi": 63,
      "noteNumber": 63,
      "velocity": 0.5,
      "track": "DRUMS",
      "channel": 9,
      "lane": "J"
    },
    {
      "time": 64.08,
      "duration": 0.408,
      "midi": 52,
      "noteNumber": 52,
      "velocity": 0.83,
      "track": "(unnamed)",
      "channel": 2,
      "lane": "F"
    },
    {
      "time": 64.089,
      "duration": 0.35,
      "midi": 56,
      "noteNumber": 56,
      "velocity": 0.76,
      "track": "(unnamed)",
      "channel": 2,
      "lane": "F"
    },
    {
      "time": 64.1,
      "duration": 0.411,
      "midi": 62,
      "noteNumber": 62,
      "velocity": 0.61,
      "track": "(unnamed)",
      "channel": 2,
      "lane": "J"
    },
    {
      "time": 64.286,
      "duration": 0.5,
      "midi": 40,
      "noteNumber": 40,
      "velocity": 0.52,
      "track": "(unnamed)",
      "channel": 1,
      "lane": "D"
    },
    {
      "time": 64.286,
      "duration": 0.214,
      "midi": 35,
      "noteNumber": 35,
      "velocity": 0.5,
      "track": "DRUMS",
      "channel": 9,
      "lane": "D"
    },
    {
      "time": 64.286,
      "duration": 0.214,
      "midi": 51,
      "noteNumber": 51,
      "velocity": 0.58,
      "track": "DRUMS",
      "channel": 9,
      "lane": "F"
    },
    {
      "time": 64.5,
      "duration": 0.214,
      "midi": 37,
      "noteNumber": 37,
      "velocity": 0.74,
      "track": "DRUMS",
      "channel": 9,
      "lane": "D"
    },
    {
      "time": 64.5,
      "duration": 0.214,
      "midi": 51,
      "noteNumber": 51,
      "velocity": 0.58,
      "track": "DRUMS",
      "channel": 9,
      "lane": "F"
    },
    {
      "time": 64.5,
      "duration": 0.214,
      "midi": 63,
      "noteNumber": 63,
      "velocity": 0.43,
      "track": "DRUMS",
      "channel": 9,
      "lane": "J"
    },
    {
      "time": 64.515,
      "duration": 0.228,
      "midi": 64,
      "noteNumber": 64,
      "velocity": 0.93,
      "track": "(unnamed)",
      "channel": 2,
      "lane": "J"
    },
    {
      "time": 64.714,
      "duration": 0.214,
      "midi": 51,
      "noteNumber": 51,
      "velocity": 0.58,
      "track": "DRUMS",
      "channel": 9,
      "lane": "F"
    },
    {
      "time": 64.714,
      "duration": 0.214,
      "midi": 63,
      "noteNumber": 63,
      "velocity": 0.43,
      "track": "DRUMS",
      "channel": 9,
      "lane": "J"
    },
    {
      "time": 64.741,
      "duration": 0.257,
      "midi": 62,
      "noteNumber": 62,
      "velocity": 0.63,
      "track": "(unnamed)",
      "channel": 2,
      "lane": "J"
    },
    {
      "time": 64.928,
      "duration": 0.114,
      "midi": 40,
      "noteNumber": 40,
      "velocity": 0.55,
      "track": "(unnamed)",
      "channel": 1,
      "lane": "D"
    },
    {
      "time": 64.928,
      "duration": 0.214,
      "midi": 35,
      "noteNumber": 35,
      "velocity": 0.58,
      "track": "DRUMS",
      "channel": 9,
      "lane": "D"
    },
    {
      "time": 64.928,
      "duration": 0.214,
      "midi": 51,
      "noteNumber": 51,
      "velocity": 0.5,
      "track": "DRUMS",
      "channel": 9,
      "lane": "F"
    },
    {
      "time": 64.928,
      "duration": 0.214,
      "midi": 63,
      "noteNumber": 63,
      "velocity": 0.5,
      "track": "DRUMS",
      "channel": 9,
      "lane": "J"
    },
    {
      "time": 64.948,
      "duration": 0.225,
      "midi": 72,
      "noteNumber": 72,
      "velocity": 0.93,
      "track": "(unnamed)",
      "channel": 2,
      "lane": "K"
    },
    {
      "time": 65.143,
      "duration": 0.607,
      "midi": 33,
      "noteNumber": 33,
      "velocity": 0.66,
      "track": "(unnamed)",
      "channel": 1,
      "lane": "D"
    },
    {
      "time": 65.143,
      "duration": 0.214,
      "midi": 35,
      "noteNumber": 35,
      "velocity": 0.5,
      "track": "DRUMS",
      "channel": 9,
      "lane": "D"
    },
    {
      "time": 65.143,
      "duration": 0.214,
      "midi": 37,
      "noteNumber": 37,
      "velocity": 0.66,
      "track": "DRUMS",
      "channel": 9,
      "lane": "D"
    },
    {
      "time": 65.143,
      "duration": 0.214,
      "midi": 42,
      "noteNumber": 42,
      "velocity": 0.69,
      "track": "DRUMS",
      "channel": 9,
      "lane": "D"
    },
    {
      "time": 65.167,
      "duration": 0.25,
      "midi": 71,
      "noteNumber": 71,
      "velocity": 0.71,
      "track": "(unnamed)",
      "channel": 2,
      "lane": "K"
    },
    {
      "time": 65.357,
      "duration": 0.214,
      "midi": 51,
      "noteNumber": 51,
      "velocity": 0.5,
      "track": "DRUMS",
      "channel": 9,
      "lane": "F"
    },
    {
      "time": 65.357,
      "duration": 0.214,
      "midi": 63,
      "noteNumber": 63,
      "velocity": 0.43,
      "track": "DRUMS",
      "channel": 9,
      "lane": "J"
    },
    {
      "time": 65.388,
      "duration": 0.518,
      "midi": 67,
      "noteNumber": 67,
      "velocity": 0.59,
      "track": "(unnamed)",
      "channel": 2,
      "lane": "J"
    },
    {
      "time": 65.571,
      "duration": 0.214,
      "midi": 51,
      "noteNumber": 51,
      "velocity": 0.5,
      "track": "DRUMS",
      "channel": 9,
      "lane": "F"
    },
    {
      "time": 65.571,
      "duration": 0.214,
      "midi": 63,
      "noteNumber": 63,
      "velocity": 0.43,
      "track": "DRUMS",
      "channel": 9,
      "lane": "J"
    },
    {
      "time": 65.785,
      "duration": 0.096,
      "midi": 39,
      "noteNumber": 39,
      "velocity": 0.44,
      "track": "(unnamed)",
      "channel": 1,
      "lane": "D"
    },
    {
      "time": 65.785,
      "duration": 0.214,
      "midi": 35,
      "noteNumber": 35,
      "velocity": 0.43,
      "track": "DRUMS",
      "channel": 9,
      "lane": "D"
    },
    {
      "time": 65.785,
      "duration": 0.214,
      "midi": 37,
      "noteNumber": 37,
      "velocity": 0.74,
      "track": "DRUMS",
      "channel": 9,
      "lane": "D"
    },
    {
      "time": 65.785,
      "duration": 0.214,
      "midi": 51,
      "noteNumber": 51,
      "velocity": 0.5,
      "track": "DRUMS",
      "channel": 9,
      "lane": "F"
    },
    {
      "time": 65.785,
      "duration": 0.214,
      "midi": 63,
      "noteNumber": 63,
      "velocity": 0.43,
      "track": "DRUMS",
      "channel": 9,
      "lane": "J"
    },
    {
      "time": 66,
      "duration": 0.574,
      "midi": 40,
      "noteNumber": 40,
      "velocity": 0.58,
      "track": "(unnamed)",
      "channel": 1,
      "lane": "D"
    },
    {
      "time": 66,
      "duration": 0.214,
      "midi": 35,
      "noteNumber": 35,
      "velocity": 0.5,
      "track": "DRUMS",
      "channel": 9,
      "lane": "D"
    },
    {
      "time": 66,
      "duration": 0.214,
      "midi": 51,
      "noteNumber": 51,
      "velocity": 0.58,
      "track": "DRUMS",
      "channel": 9,
      "lane": "F"
    },
    {
      "time": 66.214,
      "duration": 0.214,
      "midi": 51,
      "noteNumber": 51,
      "velocity": 0.5,
      "track": "DRUMS",
      "channel": 9,
      "lane": "F"
    },
    {
      "time": 66.214,
      "duration": 0.214,
      "midi": 63,
      "noteNumber": 63,
      "velocity": 0.43,
      "track": "DRUMS",
      "channel": 9,
      "lane": "J"
    },
    {
      "time": 66.227,
      "duration": 0.223,
      "midi": 64,
      "noteNumber": 64,
      "velocity": 0.82,
      "track": "(unnamed)",
      "channel": 2,
      "lane": "J"
    },
    {
      "time": 66.428,
      "duration": 0.214,
      "midi": 37,
      "noteNumber": 37,
      "velocity": 0.66,
      "track": "DRUMS",
      "channel": 9,
      "lane": "D"
    },
    {
      "time": 66.428,
      "duration": 0.214,
      "midi": 51,
      "noteNumber": 51,
      "velocity": 0.58,
      "track": "DRUMS",
      "channel": 9,
      "lane": "F"
    },
    {
      "time": 66.433,
      "duration": 0.221,
      "midi": 67,
      "noteNumber": 67,
      "velocity": 0.7,
      "track": "(unnamed)",
      "channel": 2,
      "lane": "J"
    },
    {
      "time": 66.643,
      "duration": 0.096,
      "midi": 33,
      "noteNumber": 33,
      "velocity": 0.57,
      "track": "(unnamed)",
      "channel": 1,
      "lane": "D"
    },
    {
      "time": 66.643,
      "duration": 0.214,
      "midi": 35,
      "noteNumber": 35,
      "velocity": 0.43,
      "track": "DRUMS",
      "channel": 9,
      "lane": "D"
    },
    {
      "time": 66.643,
      "duration": 0.214,
      "midi": 51,
      "noteNumber": 51,
      "velocity": 0.66,
      "track": "DRUMS",
      "channel": 9,
      "lane": "F"
    },
    {
      "time": 66.663,
      "duration": 0.141,
      "midi": 71,
      "noteNumber": 71,
      "velocity": 0.5,
      "track": "(unnamed)",
      "channel": 2,
      "lane": "K"
    },
    {
      "time": 66.734,
      "duration": 0.203,
      "midi": 72,
      "noteNumber": 72,
      "velocity": 0.79,
      "track": "(unnamed)",
      "channel": 2,
      "lane": "K"
    },
    {
      "time": 66.857,
      "duration": 0.545,
      "midi": 38,
      "noteNumber": 38,
      "velocity": 0.62,
      "track": "(unnamed)",
      "channel": 1,
      "lane": "D"
    },
    {
      "time": 66.857,
      "duration": 0.214,
      "midi": 35,
      "noteNumber": 35,
      "velocity": 0.5,
      "track": "DRUMS",
      "channel": 9,
      "lane": "D"
    },
    {
      "time": 66.857,
      "duration": 0.214,
      "midi": 51,
      "noteNumber": 51,
      "velocity": 0.58,
      "track": "DRUMS",
      "channel": 9,
      "lane": "F"
    },
    {
      "time": 66.897,
      "duration": 0.288,
      "midi": 69,
      "noteNumber": 69,
      "velocity": 0.72,
      "track": "(unnamed)",
      "channel": 2,
      "lane": "K"
    },
    {
      "time": 67.071,
      "duration": 0.214,
      "midi": 51,
      "noteNumber": 51,
      "velocity": 0.5,
      "track": "DRUMS",
      "channel": 9,
      "lane": "F"
    },
    {
      "time": 67.071,
      "duration": 0.214,
      "midi": 62,
      "noteNumber": 62,
      "velocity": 0.43,
      "track": "DRUMS",
      "channel": 9,
      "lane": "J"
    },
    {
      "time": 67.085,
      "duration": 0.297,
      "midi": 65,
      "noteNumber": 65,
      "velocity": 0.74,
      "track": "(unnamed)",
      "channel": 2,
      "lane": "J"
    },
    {
      "time": 67.285,
      "duration": 0.214,
      "midi": 37,
      "noteNumber": 37,
      "velocity": 0.66,
      "track": "DRUMS",
      "channel": 9,
      "lane": "D"
    },
    {
      "time": 67.285,
      "duration": 0.214,
      "midi": 51,
      "noteNumber": 51,
      "velocity": 0.58,
      "track": "DRUMS",
      "channel": 9,
      "lane": "F"
    },
    {
      "time": 67.285,
      "duration": 0.214,
      "midi": 62,
      "noteNumber": 62,
      "velocity": 0.43,
      "track": "DRUMS",
      "channel": 9,
      "lane": "J"
    },
    {
      "time": 67.335,
      "duration": 0.558,
      "midi": 62,
      "noteNumber": 62,
      "velocity": 0.81,
      "track": "(unnamed)",
      "channel": 2,
      "lane": "J"
    },
    {
      "time": 67.5,
      "duration": 0.096,
      "midi": 38,
      "noteNumber": 38,
      "velocity": 0.45,
      "track": "(unnamed)",
      "channel": 1,
      "lane": "D"
    },
    {
      "time": 67.5,
      "duration": 0.214,
      "midi": 35,
      "noteNumber": 35,
      "velocity": 0.5,
      "track": "DRUMS",
      "channel": 9,
      "lane": "D"
    },
    {
      "time": 67.5,
      "duration": 0.214,
      "midi": 51,
      "noteNumber": 51,
      "velocity": 0.58,
      "track": "DRUMS",
      "channel": 9,
      "lane": "F"
    },
    {
      "time": 67.5,
      "duration": 0.214,
      "midi": 63,
      "noteNumber": 63,
      "velocity": 0.5,
      "track": "DRUMS",
      "channel": 9,
      "lane": "J"
    },
    {
      "time": 67.714,
      "duration": 0.609,
      "midi": 43,
      "noteNumber": 43,
      "velocity": 0.56,
      "track": "(unnamed)",
      "channel": 1,
      "lane": "D"
    },
    {
      "time": 67.714,
      "duration": 0.214,
      "midi": 35,
      "noteNumber": 35,
      "velocity": 0.5,
      "track": "DRUMS",
      "channel": 9,
      "lane": "D"
    },
    {
      "time": 67.714,
      "duration": 0.214,
      "midi": 51,
      "noteNumber": 51,
      "velocity": 0.58,
      "track": "DRUMS",
      "channel": 9,
      "lane": "F"
    },
    {
      "time": 67.928,
      "duration": 0.214,
      "midi": 37,
      "noteNumber": 37,
      "velocity": 0.74,
      "track": "DRUMS",
      "channel": 9,
      "lane": "D"
    },
    {
      "time": 67.928,
      "duration": 0.214,
      "midi": 51,
      "noteNumber": 51,
      "velocity": 0.58,
      "track": "DRUMS",
      "channel": 9,
      "lane": "F"
    },
    {
      "time": 67.928,
      "duration": 0.214,
      "midi": 63,
      "noteNumber": 63,
      "velocity": 0.43,
      "track": "DRUMS",
      "channel": 9,
      "lane": "J"
    },
    {
      "time": 67.951,
      "duration": 0.234,
      "midi": 74,
      "noteNumber": 74,
      "velocity": 0.99,
      "track": "(unnamed)",
      "channel": 2,
      "lane": "K"
    },
    {
      "time": 68.143,
      "duration": 0.214,
      "midi": 51,
      "noteNumber": 51,
      "velocity": 0.58,
      "track": "DRUMS",
      "channel": 9,
      "lane": "F"
    },
    {
      "time": 68.178,
      "duration": 0.205,
      "midi": 71,
      "noteNumber": 71,
      "velocity": 0.65,
      "track": "(unnamed)",
      "channel": 2,
      "lane": "K"
    },
    {
      "time": 68.357,
      "duration": 0.109,
      "midi": 43,
      "noteNumber": 43,
      "velocity": 0.44,
      "track": "(unnamed)",
      "channel": 1,
      "lane": "D"
    },
    {
      "time": 68.357,
      "duration": 0.214,
      "midi": 35,
      "noteNumber": 35,
      "velocity": 0.58,
      "track": "DRUMS",
      "channel": 9,
      "lane": "D"
    },
    {
      "time": 68.357,
      "duration": 0.214,
      "midi": 51,
      "noteNumber": 51,
      "velocity": 0.5,
      "track": "DRUMS",
      "channel": 9,
      "lane": "F"
    },
    {
      "time": 68.357,
      "duration": 0.214,
      "midi": 62,
      "noteNumber": 62,
      "velocity": 0.5,
      "track": "DRUMS",
      "channel": 9,
      "lane": "J"
    },
    {
      "time": 68.375,
      "duration": 0.239,
      "midi": 68,
      "noteNumber": 68,
      "velocity": 0.83,
      "track": "(unnamed)",
      "channel": 2,
      "lane": "K"
    },
    {
      "time": 68.571,
      "duration": 0.531,
      "midi": 36,
      "noteNumber": 36,
      "velocity": 0.55,
      "track": "(unnamed)",
      "channel": 1,
      "lane": "D"
    },
    {
      "time": 68.571,
      "duration": 0.214,
      "midi": 35,
      "noteNumber": 35,
      "velocity": 0.5,
      "track": "DRUMS",
      "channel": 9,
      "lane": "D"
    },
    {
      "time": 68.571,
      "duration": 0.214,
      "midi": 37,
      "noteNumber": 37,
      "velocity": 0.66,
      "track": "DRUMS",
      "channel": 9,
      "lane": "D"
    },
    {
      "time": 68.571,
      "duration": 0.214,
      "midi": 42,
      "noteNumber": 42,
      "velocity": 0.69,
      "track": "DRUMS",
      "channel": 9,
      "lane": "D"
    },
    {
      "time": 68.571,
      "duration": 0.214,
      "midi": 63,
      "noteNumber": 63,
      "velocity": 0.5,
      "track": "DRUMS",
      "channel": 9,
      "lane": "J"
    },
    {
      "time": 68.589,
      "duration": 1.121,
      "midi": 67,
      "noteNumber": 67,
      "velocity": 0.76,
      "track": "(unnamed)",
      "channel": 2,
      "lane": "J"
    },
    {
      "time": 68.785,
      "duration": 0.214,
      "midi": 51,
      "noteNumber": 51,
      "velocity": 0.5,
      "track": "DRUMS",
      "channel": 9,
      "lane": "F"
    },
    {
      "time": 68.785,
      "duration": 0.214,
      "midi": 62,
      "noteNumber": 62,
      "velocity": 0.43,
      "track": "DRUMS",
      "channel": 9,
      "lane": "J"
    },
    {
      "time": 69,
      "duration": 0.214,
      "midi": 48,
      "noteNumber": 48,
      "velocity": 0.5,
      "track": "DRUMS",
      "channel": 9,
      "lane": "F"
    },
    {
      "time": 69,
      "duration": 0.214,
      "midi": 51,
      "noteNumber": 51,
      "velocity": 0.5,
      "track": "DRUMS",
      "channel": 9,
      "lane": "F"
    },
    {
      "time": 69,
      "duration": 0.214,
      "midi": 62,
      "noteNumber": 62,
      "velocity": 0.43,
      "track": "DRUMS",
      "channel": 9,
      "lane": "J"
    },
    {
      "time": 69.011,
      "duration": 1.203,
      "midi": 48,
      "noteNumber": 48,
      "velocity": 0.72,
      "track": "(unnamed)",
      "channel": 2,
      "lane": "F"
    },
    {
      "time": 69.214,
      "duration": 0.092,
      "midi": 43,
      "noteNumber": 43,
      "velocity": 0.56,
      "track": "(unnamed)",
      "channel": 1,
      "lane": "D"
    },
    {
      "time": 69.214,
      "duration": 0.214,
      "midi": 35,
      "noteNumber": 35,
      "velocity": 0.43,
      "track": "DRUMS",
      "channel": 9,
      "lane": "D"
    },
    {
      "time": 69.214,
      "duration": 0.214,
      "midi": 37,
      "noteNumber": 37,
      "velocity": 0.74,
      "track": "DRUMS",
      "channel": 9,
      "lane": "D"
    },
    {
      "time": 69.214,
      "duration": 0.214,
      "midi": 51,
      "noteNumber": 51,
      "velocity": 0.5,
      "track": "DRUMS",
      "channel": 9,
      "lane": "F"
    },
    {
      "time": 69.245,
      "duration": 0.44,
      "midi": 59,
      "noteNumber": 59,
      "velocity": 0.74,
      "track": "(unnamed)",
      "channel": 2,
      "lane": "J"
    },
    {
      "time": 69.25,
      "duration": 0.446,
      "midi": 64,
      "noteNumber": 64,
      "velocity": 0.87,
      "track": "(unnamed)",
      "channel": 2,
      "lane": "J"
    },
    {
      "time": 69.428,
      "duration": 0.46,
      "midi": 43,
      "noteNumber": 43,
      "velocity": 0.61,
      "track": "(unnamed)",
      "channel": 1,
      "lane": "D"
    },
    {
      "time": 69.428,
      "duration": 0.214,
      "midi": 35,
      "noteNumber": 35,
      "velocity": 0.5,
      "track": "DRUMS",
      "channel": 9,
      "lane": "D"
    },
    {
      "time": 69.428,
      "duration": 0.214,
      "midi": 51,
      "noteNumber": 51,
      "velocity": 0.58,
      "track": "DRUMS",
      "channel": 9,
      "lane": "F"
    },
    {
      "time": 69.428,
      "duration": 0.214,
      "midi": 62,
      "noteNumber": 62,
      "velocity": 0.5,
      "track": "DRUMS",
      "channel": 9,
      "lane": "J"
    },
    {
      "time": 69.643,
      "duration": 0.214,
      "midi": 51,
      "noteNumber": 51,
      "velocity": 0.5,
      "track": "DRUMS",
      "channel": 9,
      "lane": "F"
    },
    {
      "time": 69.643,
      "duration": 0.214,
      "midi": 63,
      "noteNumber": 63,
      "velocity": 0.43,
      "track": "DRUMS",
      "channel": 9,
      "lane": "J"
    },
    {
      "time": 69.685,
      "duration": 0.547,
      "midi": 59,
      "noteNumber": 59,
      "velocity": 0.83,
      "track": "(unnamed)",
      "channel": 2,
      "lane": "J"
    },
    {
      "time": 69.696,
      "duration": 0.578,
      "midi": 64,
      "noteNumber": 64,
      "velocity": 0.76,
      "track": "(unnamed)",
      "channel": 2,
      "lane": "J"
    },
    {
      "time": 69.71,
      "duration": 0.554,
      "midi": 67,
      "noteNumber": 67,
      "velocity": 0.74,
      "track": "(unnamed)",
      "channel": 2,
      "lane": "J"
    },
    {
      "time": 69.857,
      "duration": 0.214,
      "midi": 37,
      "noteNumber": 37,
      "velocity": 0.66,
      "track": "DRUMS",
      "channel": 9,
      "lane": "D"
    },
    {
      "time": 69.857,
      "duration": 0.214,
      "midi": 51,
      "noteNumber": 51,
      "velocity": 0.58,
      "track": "DRUMS",
      "channel": 9,
      "lane": "F"
    },
    {
      "time": 70.071,
      "duration": 0.114,
      "midi": 36,
      "noteNumber": 36,
      "velocity": 0.46,
      "track": "(unnamed)",
      "channel": 1,
      "lane": "D"
    },
    {
      "time": 70.071,
      "duration": 0.214,
      "midi": 35,
      "noteNumber": 35,
      "velocity": 0.43,
      "track": "DRUMS",
      "channel": 9,
      "lane": "D"
    },
    {
      "time": 70.071,
      "duration": 0.214,
      "midi": 51,
      "noteNumber": 51,
      "velocity": 0.66,
      "track": "DRUMS",
      "channel": 9,
      "lane": "F"
    },
    {
      "time": 70.071,
      "duration": 0.214,
      "midi": 63,
      "noteNumber": 63,
      "velocity": 0.43,
      "track": "DRUMS",
      "channel": 9,
      "lane": "J"
    },
    {
      "time": 70.285,
      "duration": 0.513,
      "midi": 37,
      "noteNumber": 37,
      "velocity": 0.66,
      "track": "(unnamed)",
      "channel": 1,
      "lane": "D"
    },
    {
      "time": 70.285,
      "duration": 0.429,
      "midi": 35,
      "noteNumber": 35,
      "velocity": 0.43,
      "track": "DRUMS",
      "channel": 9,
      "lane": "D"
    },
    {
      "time": 70.285,
      "duration": 0.429,
      "midi": 42,
      "noteNumber": 42,
      "velocity": 0.5,
      "track": "DRUMS",
      "channel": 9,
      "lane": "D"
    },
    {
      "time": 70.544,
      "duration": 0.208,
      "midi": 52,
      "noteNumber": 52,
      "velocity": 0.9,
      "track": "(unnamed)",
      "channel": 2,
      "lane": "F"
    },
    {
      "time": 70.71,
      "duration": 0.185,
      "midi": 55,
      "noteNumber": 55,
      "velocity": 0.72,
      "track": "(unnamed)",
      "channel": 2,
      "lane": "F"
    },
    {
      "time": 70.714,
      "duration": 0.429,
      "midi": 42,
      "noteNumber": 42,
      "velocity": 0.5,
      "track": "DRUMS",
      "channel": 9,
      "lane": "D"
    },
    {
      "time": 70.714,
      "duration": 0.429,
      "midi": 49,
      "noteNumber": 49,
      "velocity": 0.66,
      "track": "DRUMS",
      "channel": 9,
      "lane": "F"
    },
    {
      "time": 70.857,
      "duration": 0.185,
      "midi": 58,
      "noteNumber": 58,
      "velocity": 0.75,
      "track": "(unnamed)",
      "channel": 2,
      "lane": "J"
    },
    {
      "time": 70.928,
      "duration": 0.114,
      "midi": 43,
      "noteNumber": 43,
      "velocity": 0.44,
      "track": "(unnamed)",
      "channel": 1,
      "lane": "D"
    },
    {
      "time": 71.022,
      "duration": 0.185,
      "midi": 62,
      "noteNumber": 62,
      "velocity": 0.72,
      "track": "(unnamed)",
      "channel": 2,
      "lane": "J"
    },
    {
      "time": 71.143,
      "duration": 0.464,
      "midi": 43,
      "noteNumber": 43,
      "velocity": 0.53,
      "track": "(unnamed)",
      "channel": 1,
      "lane": "D"
    },
    {
      "time": 71.143,
      "duration": 0.214,
      "midi": 38,
      "noteNumber": 38,
      "velocity": 0.5,
      "track": "DRUMS",
      "channel": 9,
      "lane": "D"
    },
    {
      "time": 71.178,
      "duration": 0.201,
      "midi": 61,
      "noteNumber": 61,
      "velocity": 0.91,
      "track": "(unnamed)",
      "channel": 2,
      "lane": "J"
    },
    {
      "time": 71.328,
      "duration": 0.194,
      "midi": 64,
      "noteNumber": 64,
      "velocity": 0.74,
      "track": "(unnamed)",
      "channel": 2,
      "lane": "J"
    },
    {
      "time": 71.357,
      "duration": 0.429,
      "midi": 45,
      "noteNumber": 45,
      "velocity": 0.5,
      "track": "DRUMS",
      "channel": 9,
      "lane": "F"
    },
    {
      "time": 71.471,
      "duration": 0.196,
      "midi": 67,
      "noteNumber": 67,
      "velocity": 0.84,
      "track": "(unnamed)",
      "channel": 2,
      "lane": "J"
    },
    {
      "time": 71.625,
      "duration": 0.187,
      "midi": 70,
      "noteNumber": 70,
      "velocity": 0.99,
      "track": "(unnamed)",
      "channel": 2,
      "lane": "K"
    },
    {
      "time": 71.768,
      "duration": 0.165,
      "midi": 67,
      "noteNumber": 67,
      "velocity": 0.67,
      "track": "(unnamed)",
      "channel": 2,
      "lane": "J"
    },
    {
      "time": 71.785,
      "duration": 0.103,
      "midi": 37,
      "noteNumber": 37,
      "velocity": 0.52,
      "track": "(unnamed)",
      "channel": 1,
      "lane": "D"
    },
    {
      "time": 71.785,
      "duration": 0.214,
      "midi": 45,
      "noteNumber": 45,
      "velocity": 0.66,
      "track": "DRUMS",
      "channel": 9,
      "lane": "F"
    },
    {
      "time": 71.904,
      "duration": 0.201,
      "midi": 68,
      "noteNumber": 68,
      "velocity": 0.95,
      "track": "(unnamed)",
      "channel": 2,
      "lane": "K"
    },
    {
      "time": 72,
      "duration": 0.603,
      "midi": 38,
      "noteNumber": 38,
      "velocity": 0.64,
      "track": "(unnamed)",
      "channel": 1,
      "lane": "D"
    },
    {
      "time": 72,
      "duration": 0.214,
      "midi": 35,
      "noteNumber": 35,
      "velocity": 0.5,
      "track": "DRUMS",
      "channel": 9,
      "lane": "D"
    },
    {
      "time": 72,
      "duration": 0.214,
      "midi": 37,
      "noteNumber": 37,
      "velocity": 0.66,
      "track": "DRUMS",
      "channel": 9,
      "lane": "D"
    },
    {
      "time": 72,
      "duration": 0.214,
      "midi": 42,
      "noteNumber": 42,
      "velocity": 0.69,
      "track": "DRUMS",
      "channel": 9,
      "lane": "D"
    },
    {
      "time": 72,
      "duration": 0.214,
      "midi": 62,
      "noteNumber": 62,
      "velocity": 0.5,
      "track": "DRUMS",
      "channel": 9,
      "lane": "J"
    },
    {
      "time": 72.078,
      "duration": 0.239,
      "midi": 69,
      "noteNumber": 69,
      "velocity": 0.93,
      "track": "(unnamed)",
      "channel": 2,
      "lane": "K"
    },
    {
      "time": 72.214,
      "duration": 0.214,
      "midi": 51,
      "noteNumber": 51,
      "velocity": 0.5,
      "track": "DRUMS",
      "channel": 9,
      "lane": "F"
    },
    {
      "time": 72.214,
      "duration": 0.214,
      "midi": 62,
      "noteNumber": 62,
      "velocity": 0.43,
      "track": "DRUMS",
      "channel": 9,
      "lane": "J"
    },
    {
      "time": 72.428,
      "duration": 0.214,
      "midi": 51,
      "noteNumber": 51,
      "velocity": 0.5,
      "track": "DRUMS",
      "channel": 9,
      "lane": "F"
    },
    {
      "time": 72.464,
      "duration": 0.467,
      "midi": 76,
      "noteNumber": 76,
      "velocity": 0.89,
      "track": "(unnamed)",
      "channel": 2,
      "lane": "K"
    },
    {
      "time": 72.643,
      "duration": 0.114,
      "midi": 44,
      "noteNumber": 44,
      "velocity": 0.43,
      "track": "(unnamed)",
      "channel": 1,
      "lane": "D"
    },
    {
      "time": 72.643,
      "duration": 0.214,
      "midi": 35,
      "noteNumber": 35,
      "velocity": 0.43,
      "track": "DRUMS",
      "channel": 9,
      "lane": "D"
    },
    {
      "time": 72.643,
      "duration": 0.214,
      "midi": 37,
      "noteNumber": 37,
      "velocity": 0.74,
      "track": "DRUMS",
      "channel": 9,
      "lane": "D"
    },
    {
      "time": 72.643,
      "duration": 0.214,
      "midi": 51,
      "noteNumber": 51,
      "velocity": 0.5,
      "track": "DRUMS",
      "channel": 9,
      "lane": "F"
    },
    {
      "time": 72.643,
      "duration": 0.214,
      "midi": 62,
      "noteNumber": 62,
      "velocity": 0.43,
      "track": "DRUMS",
      "channel": 9,
      "lane": "J"
    },
    {
      "time": 72.857,
      "duration": 0.607,
      "midi": 45,
      "noteNumber": 45,
      "velocity": 0.58,
      "track": "(unnamed)",
      "channel": 1,
      "lane": "F"
    },
    {
      "time": 72.857,
      "duration": 0.214,
      "midi": 35,
      "noteNumber": 35,
      "velocity": 0.5,
      "track": "DRUMS",
      "channel": 9,
      "lane": "D"
    },
    {
      "time": 72.857,
      "duration": 0.214,
      "midi": 51,
      "noteNumber": 51,
      "velocity": 0.58,
      "track": "DRUMS",
      "channel": 9,
      "lane": "F"
    },
    {
      "time": 73.071,
      "duration": 0.214,
      "midi": 51,
      "noteNumber": 51,
      "velocity": 0.5,
      "track": "DRUMS",
      "channel": 9,
      "lane": "F"
    },
    {
      "time": 73.071,
      "duration": 0.214,
      "midi": 63,
      "noteNumber": 63,
      "velocity": 0.43,
      "track": "DRUMS",
      "channel": 9,
      "lane": "J"
    },
    {
      "time": 73.285,
      "duration": 0.214,
      "midi": 37,
      "noteNumber": 37,
      "velocity": 0.66,
      "track": "DRUMS",
      "channel": 9,
      "lane": "D"
    },
    {
      "time": 73.285,
      "duration": 0.214,
      "midi": 45,
      "noteNumber": 45,
      "velocity": 0.5,
      "track": "DRUMS",
      "channel": 9,
      "lane": "F"
    },
    {
      "time": 73.285,
      "duration": 0.214,
      "midi": 51,
      "noteNumber": 51,
      "velocity": 0.58,
      "track": "DRUMS",
      "channel": 9,
      "lane": "F"
    },
    {
      "time": 73.285,
      "duration": 0.214,
      "midi": 63,
      "noteNumber": 63,
      "velocity": 0.43,
      "track": "DRUMS",
      "channel": 9,
      "lane": "J"
    },
    {
      "time": 73.5,
      "duration": 0.121,
      "midi": 38,
      "noteNumber": 38,
      "velocity": 0.47,
      "track": "(unnamed)",
      "channel": 1,
      "lane": "D"
    },
    {
      "time": 73.5,
      "duration": 0.214,
      "midi": 35,
      "noteNumber": 35,
      "velocity": 0.43,
      "track": "DRUMS",
      "channel": 9,
      "lane": "D"
    },
    {
      "time": 73.5,
      "duration": 0.214,
      "midi": 45,
      "noteNumber": 45,
      "velocity": 0.5,
      "track": "DRUMS",
      "channel": 9,
      "lane": "F"
    },
    {
      "time": 73.5,
      "duration": 0.214,
      "midi": 51,
      "noteNumber": 51,
      "velocity": 0.66,
      "track": "DRUMS",
      "channel": 9,
      "lane": "F"
    },
    {
      "time": 73.5,
      "duration": 0.214,
      "midi": 62,
      "noteNumber": 62,
      "velocity": 0.43,
      "track": "DRUMS",
      "channel": 9,
      "lane": "J"
    },
    {
      "time": 73.542,
      "duration": 0.176,
      "midi": 72,
      "noteNumber": 72,
      "velocity": 0.82,
      "track": "(unnamed)",
      "channel": 2,
      "lane": "K"
    },
    {
      "time": 73.714,
      "duration": 0.489,
      "midi": 43,
      "noteNumber": 43,
      "velocity": 0.64,
      "track": "(unnamed)",
      "channel": 1,
      "lane": "D"
    },
    {
      "time": 73.714,
      "duration": 0.214,
      "midi": 35,
      "noteNumber": 35,
      "velocity": 0.5,
      "track": "DRUMS",
      "channel": 9,
      "lane": "D"
    },
    {
      "time": 73.714,
      "duration": 0.214,
      "midi": 51,
      "noteNumber": 51,
      "velocity": 0.58,
      "track": "DRUMS",
      "channel": 9,
      "lane": "F"
    },
    {
      "time": 73.748,
      "duration": 0.277,
      "midi": 69,
      "noteNumber": 69,
      "velocity": 0.84,
      "track": "(unnamed)",
      "channel": 2,
      "lane": "K"
    },
    {
      "time": 73.928,
      "duration": 0.214,
      "midi": 51,
      "noteNumber": 51,
      "velocity": 0.5,
      "track": "DRUMS",
      "channel": 9,
      "lane": "F"
    },
    {
      "time": 73.928,
      "duration": 0.214,
      "midi": 62,
      "noteNumber": 62,
      "velocity": 0.43,
      "track": "DRUMS",
      "channel": 9,
      "lane": "J"
    },
    {
      "time": 73.948,
      "duration": 0.221,
      "midi": 65,
      "noteNumber": 65,
      "velocity": 0.78,
      "track": "(unnamed)",
      "channel": 2,
      "lane": "J"
    },
    {
      "time": 74.143,
      "duration": 0.214,
      "midi": 37,
      "noteNumber": 37,
      "velocity": 0.66,
      "track": "DRUMS",
      "channel": 9,
      "lane": "D"
    },
    {
      "time": 74.143,
      "duration": 0.214,
      "midi": 51,
      "noteNumber": 51,
      "velocity": 0.58,
      "track": "DRUMS",
      "channel": 9,
      "lane": "F"
    },
    {
      "time": 74.143,
      "duration": 0.214,
      "midi": 63,
      "noteNumber": 63,
      "velocity": 0.43,
      "track": "DRUMS",
      "channel": 9,
      "lane": "J"
    },
    {
      "time": 74.154,
      "duration": 0.114,
      "midi": 64,
      "noteNumber": 64,
      "velocity": 0.83,
      "track": "(unnamed)",
      "channel": 2,
      "lane": "J"
    },
    {
      "time": 74.196,
      "duration": 0.158,
      "midi": 65,
      "noteNumber": 65,
      "velocity": 0.83,
      "track": "(unnamed)",
      "channel": 2,
      "lane": "J"
    },
    {
      "time": 74.283,
      "duration": 0.172,
      "midi": 64,
      "noteNumber": 64,
      "velocity": 0.83,
      "track": "(unnamed)",
      "channel": 2,
      "lane": "J"
    },
    {
      "time": 74.357,
      "duration": 0.089,
      "midi": 50,
      "noteNumber": 50,
      "velocity": 0.47,
      "track": "(unnamed)",
      "channel": 1,
      "lane": "F"
    },
    {
      "time": 74.357,
      "duration": 0.214,
      "midi": 35,
      "noteNumber": 35,
      "velocity": 0.5,
      "track": "DRUMS",
      "channel": 9,
      "lane": "D"
    },
    {
      "time": 74.357,
      "duration": 0.214,
      "midi": 51,
      "noteNumber": 51,
      "velocity": 0.58,
      "track": "DRUMS",
      "channel": 9,
      "lane": "F"
    },
    {
      "time": 74.357,
      "duration": 0.214,
      "midi": 63,
      "noteNumber": 63,
      "velocity": 0.5,
      "track": "DRUMS",
      "channel": 9,
      "lane": "J"
    },
    {
      "time": 74.381,
      "duration": 0.23,
      "midi": 62,
      "noteNumber": 62,
      "velocity": 0.72,
      "track": "(unnamed)",
      "channel": 2,
      "lane": "J"
    },
    {
      "time": 74.571,
      "duration": 0.478,
      "midi": 50,
      "noteNumber": 50,
      "velocity": 0.65,
      "track": "(unnamed)",
      "channel": 1,
      "lane": "F"
    },
    {
      "time": 74.571,
      "duration": 0.214,
      "midi": 35,
      "noteNumber": 35,
      "velocity": 0.5,
      "track": "DRUMS",
      "channel": 9,
      "lane": "D"
    },
    {
      "time": 74.571,
      "duration": 0.214,
      "midi": 51,
      "noteNumber": 51,
      "velocity": 0.58,
      "track": "DRUMS",
      "channel": 9,
      "lane": "F"
    },
    {
      "time": 74.578,
      "duration": 0.23,
      "midi": 68,
      "noteNumber": 68,
      "velocity": 0.98,
      "track": "(unnamed)",
      "channel": 2,
      "lane": "K"
    },
    {
      "time": 74.785,
      "duration": 0.214,
      "midi": 37,
      "noteNumber": 37,
      "velocity": 0.74,
      "track": "DRUMS",
      "channel": 9,
      "lane": "D"
    },
    {
      "time": 74.785,
      "duration": 0.214,
      "midi": 51,
      "noteNumber": 51,
      "velocity": 0.58,
      "track": "DRUMS",
      "channel": 9,
      "lane": "F"
    },
    {
      "time": 74.785,
      "duration": 0.214,
      "midi": 62,
      "noteNumber": 62,
      "velocity": 0.43,
      "track": "DRUMS",
      "channel": 9,
      "lane": "J"
    },
    {
      "time": 74.799,
      "duration": 0.237,
      "midi": 65,
      "noteNumber": 65,
      "velocity": 0.88,
      "track": "(unnamed)",
      "channel": 2,
      "lane": "J"
    },
    {
      "time": 75,
      "duration": 0.214,
      "midi": 51,
      "noteNumber": 51,
      "velocity": 0.58,
      "track": "DRUMS",
      "channel": 9,
      "lane": "F"
    },
    {
      "time": 75,
      "duration": 0.214,
      "midi": 63,
      "noteNumber": 63,
      "velocity": 0.43,
      "track": "DRUMS",
      "channel": 9,
      "lane": "J"
    },
    {
      "time": 75.018,
      "duration": 0.228,
      "midi": 64,
      "noteNumber": 64,
      "velocity": 0.82,
      "track": "(unnamed)",
      "channel": 2,
      "lane": "J"
    },
    {
      "time": 75.214,
      "duration": 0.096,
      "midi": 43,
      "noteNumber": 43,
      "velocity": 0.55,
      "track": "(unnamed)",
      "channel": 1,
      "lane": "D"
    },
    {
      "time": 75.214,
      "duration": 0.214,
      "midi": 35,
      "noteNumber": 35,
      "velocity": 0.58,
      "track": "DRUMS",
      "channel": 9,
      "lane": "D"
    },
    {
      "time": 75.214,
      "duration": 0.214,
      "midi": 51,
      "noteNumber": 51,
      "velocity": 0.5,
      "track": "DRUMS",
      "channel": 9,
      "lane": "F"
    },
    {
      "time": 75.214,
      "duration": 0.214,
      "midi": 63,
      "noteNumber": 63,
      "velocity": 0.5,
      "track": "DRUMS",
      "channel": 9,
      "lane": "J"
    },
    {
      "time": 75.225,
      "duration": 0.203,
      "midi": 62,
      "noteNumber": 62,
      "velocity": 0.69,
      "track": "(unnamed)",
      "channel": 2,
      "lane": "J"
    },
    {
      "time": 75.428,
      "duration": 0.5,
      "midi": 36,
      "noteNumber": 36,
      "velocity": 0.57,
      "track": "(unnamed)",
      "channel": 1,
      "lane": "D"
    },
    {
      "time": 75.428,
      "duration": 0.214,
      "midi": 35,
      "noteNumber": 35,
      "velocity": 0.5,
      "track": "DRUMS",
      "channel": 9,
      "lane": "D"
    },
    {
      "time": 75.428,
      "duration": 0.214,
      "midi": 37,
      "noteNumber": 37,
      "velocity": 0.66,
      "track": "DRUMS",
      "channel": 9,
      "lane": "D"
    },
    {
      "time": 75.428,
      "duration": 0.214,
      "midi": 42,
      "noteNumber": 42,
      "velocity": 0.69,
      "track": "DRUMS",
      "channel": 9,
      "lane": "D"
    },
    {
      "time": 75.46,
      "duration": 0.277,
      "midi": 67,
      "noteNumber": 67,
      "velocity": 0.76,
      "track": "(unnamed)",
      "channel": 2,
      "lane": "J"
    },
    {
      "time": 75.643,
      "duration": 0.214,
      "midi": 51,
      "noteNumber": 51,
      "velocity": 0.5,
      "track": "DRUMS",
      "channel": 9,
      "lane": "F"
    },
    {
      "time": 75.857,
      "duration": 0.214,
      "midi": 51,
      "noteNumber": 51,
      "velocity": 0.5,
      "track": "DRUMS",
      "channel": 9,
      "lane": "F"
    },
    {
      "time": 75.857,
      "duration": 0.214,
      "midi": 63,
      "noteNumber": 63,
      "velocity": 0.43,
      "track": "DRUMS",
      "channel": 9,
      "lane": "J"
    },
    {
      "time": 75.879,
      "duration": 0.266,
      "midi": 74,
      "noteNumber": 74,
      "velocity": 0.81,
      "track": "(unnamed)",
      "channel": 2,
      "lane": "K"
    },
    {
      "time": 76.071,
      "duration": 0.096,
      "midi": 42,
      "noteNumber": 42,
      "velocity": 0.52,
      "track": "(unnamed)",
      "channel": 1,
      "lane": "D"
    },
    {
      "time": 76.071,
      "duration": 0.214,
      "midi": 35,
      "noteNumber": 35,
      "velocity": 0.43,
      "track": "DRUMS",
      "channel": 9,
      "lane": "D"
    },
    {
      "time": 76.071,
      "duration": 0.214,
      "midi": 37,
      "noteNumber": 37,
      "velocity": 0.74,
      "track": "DRUMS",
      "channel": 9,
      "lane": "D"
    },
    {
      "time": 76.071,
      "duration": 0.214,
      "midi": 51,
      "noteNumber": 51,
      "velocity": 0.5,
      "track": "DRUMS",
      "channel": 9,
      "lane": "F"
    },
    {
      "time": 76.071,
      "duration": 0.214,
      "midi": 63,
      "noteNumber": 63,
      "velocity": 0.43,
      "track": "DRUMS",
      "channel": 9,
      "lane": "J"
    },
    {
      "time": 76.136,
      "duration": 0.719,
      "midi": 72,
      "noteNumber": 72,
      "velocity": 0.92,
      "track": "(unnamed)",
      "channel": 2,
      "lane": "K"
    },
    {
      "time": 76.285,
      "duration": 0.502,
      "midi": 43,
      "noteNumber": 43,
      "velocity": 0.51,
      "track": "(unnamed)",
      "channel": 1,
      "lane": "D"
    },
    {
      "time": 76.285,
      "duration": 0.214,
      "midi": 35,
      "noteNumber": 35,
      "velocity": 0.5,
      "track": "DRUMS",
      "channel": 9,
      "lane": "D"
    },
    {
      "time": 76.285,
      "duration": 0.214,
      "midi": 51,
      "noteNumber": 51,
      "velocity": 0.58,
      "track": "DRUMS",
      "channel": 9,
      "lane": "F"
    },
    {
      "time": 76.5,
      "duration": 0.214,
      "midi": 51,
      "noteNumber": 51,
      "velocity": 0.5,
      "track": "DRUMS",
      "channel": 9,
      "lane": "F"
    },
    {
      "time": 76.714,
      "duration": 0.214,
      "midi": 37,
      "noteNumber": 37,
      "velocity": 0.66,
      "track": "DRUMS",
      "channel": 9,
      "lane": "D"
    },
    {
      "time": 76.714,
      "duration": 0.214,
      "midi": 45,
      "noteNumber": 45,
      "velocity": 0.5,
      "track": "DRUMS",
      "channel": 9,
      "lane": "F"
    },
    {
      "time": 76.714,
      "duration": 0.214,
      "midi": 51,
      "noteNumber": 51,
      "velocity": 0.58,
      "track": "DRUMS",
      "channel": 9,
      "lane": "F"
    },
    {
      "time": 76.714,
      "duration": 0.214,
      "midi": 62,
      "noteNumber": 62,
      "velocity": 0.43,
      "track": "DRUMS",
      "channel": 9,
      "lane": "J"
    },
    {
      "time": 76.928,
      "duration": 0.114,
      "midi": 36,
      "noteNumber": 36,
      "velocity": 0.44,
      "track": "(unnamed)",
      "channel": 1,
      "lane": "D"
    },
    {
      "time": 76.928,
      "duration": 0.214,
      "midi": 35,
      "noteNumber": 35,
      "velocity": 0.43,
      "track": "DRUMS",
      "channel": 9,
      "lane": "D"
    },
    {
      "time": 76.928,
      "duration": 0.214,
      "midi": 45,
      "noteNumber": 45,
      "velocity": 0.5,
      "track": "DRUMS",
      "channel": 9,
      "lane": "F"
    },
    {
      "time": 76.928,
      "duration": 0.214,
      "midi": 51,
      "noteNumber": 51,
      "velocity": 0.66,
      "track": "DRUMS",
      "channel": 9,
      "lane": "F"
    },
    {
      "time": 76.928,
      "duration": 0.214,
      "midi": 63,
      "noteNumber": 63,
      "velocity": 0.43,
      "track": "DRUMS",
      "channel": 9,
      "lane": "J"
    },
    {
      "time": 76.942,
      "duration": 0.205,
      "midi": 60,
      "noteNumber": 60,
      "velocity": 0.7,
      "track": "(unnamed)",
      "channel": 2,
      "lane": "J"
    },
    {
      "time": 77.143,
      "duration": 0.507,
      "midi": 41,
      "noteNumber": 41,
      "velocity": 0.61,
      "track": "(unnamed)",
      "channel": 1,
      "lane": "D"
    },
    {
      "time": 77.143,
      "duration": 0.214,
      "midi": 35,
      "noteNumber": 35,
      "velocity": 0.5,
      "track": "DRUMS",
      "channel": 9,
      "lane": "D"
    },
    {
      "time": 77.143,
      "duration": 0.214,
      "midi": 51,
      "noteNumber": 51,
      "velocity": 0.58,
      "track": "DRUMS",
      "channel": 9,
      "lane": "F"
    },
    {
      "time": 77.143,
      "duration": 0.214,
      "midi": 63,
      "noteNumber": 63,
      "velocity": 0.5,
      "track": "DRUMS",
      "channel": 9,
      "lane": "J"
    },
    {
      "time": 77.165,
      "duration": 0.275,
      "midi": 64,
      "noteNumber": 64,
      "velocity": 0.72,
      "track": "(unnamed)",
      "channel": 2,
      "lane": "J"
    },
    {
      "time": 77.176,
      "duration": 0.266,
      "midi": 67,
      "noteNumber": 67,
      "velocity": 0.75,
      "track": "(unnamed)",
      "channel": 2,
      "lane": "J"
    },
    {
      "time": 77.357,
      "duration": 0.214,
      "midi": 51,
      "noteNumber": 51,
      "velocity": 0.5,
      "track": "DRUMS",
      "channel": 9,
      "lane": "F"
    },
    {
      "time": 77.357,
      "duration": 0.214,
      "midi": 62,
      "noteNumber": 62,
      "velocity": 0.43,
      "track": "DRUMS",
      "channel": 9,
      "lane": "J"
    },
    {
      "time": 77.37,
      "duration": 0.217,
      "midi": 66,
      "noteNumber": 66,
      "velocity": 0.75,
      "track": "(unnamed)",
      "channel": 2,
      "lane": "J"
    },
    {
      "time": 77.377,
      "duration": 0.203,
      "midi": 63,
      "noteNumber": 63,
      "velocity": 0.7,
      "track": "(unnamed)",
      "channel": 2,
      "lane": "J"
    },
    {
      "time": 77.571,
      "duration": 0.261,
      "midi": 62,
      "noteNumber": 62,
      "velocity": 0.72,
      "track": "(unnamed)",
      "channel": 2,
      "lane": "J"
    },
    {
      "time": 77.571,
      "duration": 0.214,
      "midi": 37,
      "noteNumber": 37,
      "velocity": 0.66,
      "track": "DRUMS",
      "channel": 9,
      "lane": "D"
    },
    {
      "time": 77.571,
      "duration": 0.214,
      "midi": 51,
      "noteNumber": 51,
      "velocity": 0.58,
      "track": "DRUMS",
      "channel": 9,
      "lane": "F"
    },
    {
      "time": 77.571,
      "duration": 0.214,
      "midi": 63,
      "noteNumber": 63,
      "velocity": 0.43,
      "track": "DRUMS",
      "channel": 9,
      "lane": "J"
    },
    {
      "time": 77.589,
      "duration": 0.259,
      "midi": 65,
      "noteNumber": 65,
      "velocity": 0.65,
      "track": "(unnamed)",
      "channel": 2,
      "lane": "J"
    },
    {
      "time": 77.785,
      "duration": 0.107,
      "midi": 48,
      "noteNumber": 48,
      "velocity": 0.55,
      "track": "(unnamed)",
      "channel": 1,
      "lane": "F"
    },
    {
      "time": 77.785,
      "duration": 0.214,
      "midi": 35,
      "noteNumber": 35,
      "velocity": 0.5,
      "track": "DRUMS",
      "channel": 9,
      "lane": "D"
    },
    {
      "time": 77.785,
      "duration": 0.214,
      "midi": 51,
      "noteNumber": 51,
      "velocity": 0.58,
      "track": "DRUMS",
      "channel": 9,
      "lane": "F"
    },
    {
      "time": 77.785,
      "duration": 0.214,
      "midi": 63,
      "noteNumber": 63,
      "velocity": 0.5,
      "track": "DRUMS",
      "channel": 9,
      "lane": "J"
    },
    {
      "time": 77.859,
      "duration": 0.446,
      "midi": 57,
      "noteNumber": 57,
      "velocity": 0.64,
      "track": "(unnamed)",
      "channel": 2,
      "lane": "J"
    },
    {
      "time": 77.868,
      "duration": 0.261,
      "midi": 60,
      "noteNumber": 60,
      "velocity": 0.7,
      "track": "(unnamed)",
      "channel": 2,
      "lane": "J"
    },
    {
      "time": 78,
      "duration": 0.525,
      "midi": 48,
      "noteNumber": 48,
      "velocity": 0.63,
      "track": "(unnamed)",
      "channel": 1,
      "lane": "F"
    },
    {
      "time": 78,
      "duration": 0.214,
      "midi": 35,
      "noteNumber": 35,
      "velocity": 0.5,
      "track": "DRUMS",
      "channel": 9,
      "lane": "D"
    },
    {
      "time": 78,
      "duration": 0.214,
      "midi": 51,
      "noteNumber": 51,
      "velocity": 0.58,
      "track": "DRUMS",
      "channel": 9,
      "lane": "F"
    },
    {
      "time": 78,
      "duration": 0.214,
      "midi": 62,
      "noteNumber": 62,
      "velocity": 0.5,
      "track": "DRUMS",
      "channel": 9,
      "lane": "J"
    },
    {
      "time": 78.214,
      "duration": 0.214,
      "midi": 37,
      "noteNumber": 37,
      "velocity": 0.74,
      "track": "DRUMS",
      "channel": 9,
      "lane": "D"
    },
    {
      "time": 78.214,
      "duration": 0.214,
      "midi": 51,
      "noteNumber": 51,
      "velocity": 0.58,
      "track": "DRUMS",
      "channel": 9,
      "lane": "F"
    },
    {
      "time": 78.236,
      "duration": 0.241,
      "midi": 60,
      "noteNumber": 60,
      "velocity": 0.83,
      "track": "(unnamed)",
      "channel": 2,
      "lane": "J"
    },
    {
      "time": 78.428,
      "duration": 0.214,
      "midi": 51,
      "noteNumber": 51,
      "velocity": 0.58,
      "track": "DRUMS",
      "channel": 9,
      "lane": "F"
    },
    {
      "time": 78.428,
      "duration": 0.214,
      "midi": 62,
      "noteNumber": 62,
      "velocity": 0.43,
      "track": "DRUMS",
      "channel": 9,
      "lane": "J"
    },
    {
      "time": 78.433,
      "duration": 0.259,
      "midi": 62,
      "noteNumber": 62,
      "velocity": 0.89,
      "track": "(unnamed)",
      "channel": 2,
      "lane": "J"
    },
    {
      "time": 78.643,
      "duration": 0.092,
      "midi": 41,
      "noteNumber": 41,
      "velocity": 0.47,
      "track": "(unnamed)",
      "channel": 1,
      "lane": "D"
    },
    {
      "time": 78.643,
      "duration": 0.214,
      "midi": 35,
      "noteNumber": 35,
      "velocity": 0.58,
      "track": "DRUMS",
      "channel": 9,
      "lane": "D"
    },
    {
      "time": 78.643,
      "duration": 0.214,
      "midi": 51,
      "noteNumber": 51,
      "velocity": 0.5,
      "track": "DRUMS",
      "channel": 9,
      "lane": "F"
    },
    {
      "time": 78.643,
      "duration": 0.214,
      "midi": 63,
      "noteNumber": 63,
      "velocity": 0.5,
      "track": "DRUMS",
      "channel": 9,
      "lane": "J"
    },
    {
      "time": 78.857,
      "duration": 0.578,
      "midi": 35,
      "noteNumber": 35,
      "velocity": 0.63,
      "track": "(unnamed)",
      "channel": 1,
      "lane": "D"
    },
    {
      "time": 78.857,
      "duration": 0.214,
      "midi": 35,
      "noteNumber": 35,
      "velocity": 0.5,
      "track": "DRUMS",
      "channel": 9,
      "lane": "D"
    },
    {
      "time": 78.857,
      "duration": 0.214,
      "midi": 37,
      "noteNumber": 37,
      "velocity": 0.66,
      "track": "DRUMS",
      "channel": 9,
      "lane": "D"
    },
    {
      "time": 78.857,
      "duration": 0.214,
      "midi": 42,
      "noteNumber": 42,
      "velocity": 0.69,
      "track": "DRUMS",
      "channel": 9,
      "lane": "D"
    },
    {
      "time": 78.857,
      "duration": 0.214,
      "midi": 63,
      "noteNumber": 63,
      "velocity": 0.5,
      "track": "DRUMS",
      "channel": 9,
      "lane": "J"
    },
    {
      "time": 78.873,
      "duration": 0.237,
      "midi": 64,
      "noteNumber": 64,
      "velocity": 0.58,
      "track": "(unnamed)",
      "channel": 2,
      "lane": "J"
    },
    {
      "time": 79.071,
      "duration": 0.214,
      "midi": 51,
      "noteNumber": 51,
      "velocity": 0.5,
      "track": "DRUMS",
      "channel": 9,
      "lane": "F"
    },
    {
      "time": 79.1,
      "duration": 1.011,
      "midi": 57,
      "noteNumber": 57,
      "velocity": 0.75,
      "track": "(unnamed)",
      "channel": 2,
      "lane": "J"
    },
    {
      "time": 79.285,
      "duration": 0.214,
      "midi": 48,
      "noteNumber": 48,
      "velocity": 0.5,
      "track": "DRUMS",
      "channel": 9,
      "lane": "F"
    },
    {
      "time": 79.285,
      "duration": 0.214,
      "midi": 51,
      "noteNumber": 51,
      "velocity": 0.5,
      "track": "DRUMS",
      "channel": 9,
      "lane": "F"
    },
    {
      "time": 79.285,
      "duration": 0.214,
      "midi": 63,
      "noteNumber": 63,
      "velocity": 0.43,
      "track": "DRUMS",
      "channel": 9,
      "lane": "J"
    },
    {
      "time": 79.314,
      "duration": 0.799,
      "midi": 62,
      "noteNumber": 62,
      "velocity": 0.65,
      "track": "(unnamed)",
      "channel": 2,
      "lane": "J"
    },
    {
      "time": 79.5,
      "duration": 0.109,
      "midi": 41,
      "noteNumber": 41,
      "velocity": 0.45,
      "track": "(unnamed)",
      "channel": 1,
      "lane": "D"
    },
    {
      "time": 79.5,
      "duration": 0.214,
      "midi": 35,
      "noteNumber": 35,
      "velocity": 0.43,
      "track": "DRUMS",
      "channel": 9,
      "lane": "D"
    },
    {
      "time": 79.5,
      "duration": 0.214,
      "midi": 37,
      "noteNumber": 37,
      "velocity": 0.74,
      "track": "DRUMS",
      "channel": 9,
      "lane": "D"
    },
    {
      "time": 79.5,
      "duration": 0.214,
      "midi": 51,
      "noteNumber": 51,
      "velocity": 0.5,
      "track": "DRUMS",
      "channel": 9,
      "lane": "F"
    },
    {
      "time": 79.5,
      "duration": 0.214,
      "midi": 63,
      "noteNumber": 63,
      "velocity": 0.43,
      "track": "DRUMS",
      "channel": 9,
      "lane": "J"
    },
    {
      "time": 79.547,
      "duration": 0.58,
      "midi": 64,
      "noteNumber": 64,
      "velocity": 0.8,
      "track": "(unnamed)",
      "channel": 2,
      "lane": "J"
    },
    {
      "time": 79.714,
      "duration": 0.554,
      "midi": 41,
      "noteNumber": 41,
      "velocity": 0.58,
      "track": "(unnamed)",
      "channel": 1,
      "lane": "D"
    },
    {
      "time": 79.714,
      "duration": 0.214,
      "midi": 35,
      "noteNumber": 35,
      "velocity": 0.5,
      "track": "DRUMS",
      "channel": 9,
      "lane": "D"
    },
    {
      "time": 79.714,
      "duration": 0.214,
      "midi": 51,
      "noteNumber": 51,
      "velocity": 0.58,
      "track": "DRUMS",
      "channel": 9,
      "lane": "F"
    },
    {
      "time": 79.928,
      "duration": 0.214,
      "midi": 51,
      "noteNumber": 51,
      "velocity": 0.5,
      "track": "DRUMS",
      "channel": 9,
      "lane": "F"
    },
    {
      "time": 80.143,
      "duration": 0.214,
      "midi": 37,
      "noteNumber": 37,
      "velocity": 0.66,
      "track": "DRUMS",
      "channel": 9,
      "lane": "D"
    },
    {
      "time": 80.143,
      "duration": 0.214,
      "midi": 51,
      "noteNumber": 51,
      "velocity": 0.58,
      "track": "DRUMS",
      "channel": 9,
      "lane": "F"
    },
    {
      "time": 80.143,
      "duration": 0.214,
      "midi": 62,
      "noteNumber": 62,
      "velocity": 0.43,
      "track": "DRUMS",
      "channel": 9,
      "lane": "J"
    },
    {
      "time": 80.154,
      "duration": 0.4,
      "midi": 64,
      "noteNumber": 64,
      "velocity": 0.85,
      "track": "(unnamed)",
      "channel": 2,
      "lane": "J"
    },
    {
      "time": 80.357,
      "duration": 0.114,
      "midi": 35,
      "noteNumber": 35,
      "velocity": 0.55,
      "track": "(unnamed)",
      "channel": 1,
      "lane": "D"
    },
    {
      "time": 80.357,
      "duration": 0.295,
      "midi": 69,
      "noteNumber": 69,
      "velocity": 0.99,
      "track": "(unnamed)",
      "channel": 2,
      "lane": "K"
    },
    {
      "time": 80.357,
      "duration": 0.214,
      "midi": 35,
      "noteNumber": 35,
      "velocity": 0.43,
      "track": "DRUMS",
      "channel": 9,
      "lane": "D"
    },
    {
      "time": 80.357,
      "duration": 0.214,
      "midi": 51,
      "noteNumber": 51,
      "velocity": 0.66,
      "track": "DRUMS",
      "channel": 9,
      "lane": "F"
    },
    {
      "time": 80.357,
      "duration": 0.214,
      "midi": 62,
      "noteNumber": 62,
      "velocity": 0.43,
      "track": "DRUMS",
      "channel": 9,
      "lane": "J"
    },
    {
      "time": 80.571,
      "duration": 0.58,
      "midi": 40,
      "noteNumber": 40,
      "velocity": 0.53,
      "track": "(unnamed)",
      "channel": 1,
      "lane": "D"
    },
    {
      "time": 80.571,
      "duration": 0.214,
      "midi": 35,
      "noteNumber": 35,
      "velocity": 0.5,
      "track": "DRUMS",
      "channel": 9,
      "lane": "D"
    },
    {
      "time": 80.571,
      "duration": 0.214,
      "midi": 51,
      "noteNumber": 51,
      "velocity": 0.58,
      "track": "DRUMS",
      "channel": 9,
      "lane": "F"
    },
    {
      "time": 80.571,
      "duration": 0.214,
      "midi": 63,
      "noteNumber": 63,
      "velocity": 0.5,
      "track": "DRUMS",
      "channel": 9,
      "lane": "J"
    },
    {
      "time": 80.596,
      "duration": 0.174,
      "midi": 63,
      "noteNumber": 63,
      "velocity": 0.72,
      "track": "(unnamed)",
      "channel": 2,
      "lane": "J"
    },
    {
      "time": 80.698,
      "duration": 0.196,
      "midi": 62,
      "noteNumber": 62,
      "velocity": 0.65,
      "track": "(unnamed)",
      "channel": 2,
      "lane": "J"
    },
    {
      "time": 80.785,
      "duration": 0.214,
      "midi": 51,
      "noteNumber": 51,
      "velocity": 0.5,
      "track": "DRUMS",
      "channel": 9,
      "lane": "F"
    },
    {
      "time": 80.83,
      "duration": 0.183,
      "midi": 60,
      "noteNumber": 60,
      "velocity": 0.7,
      "track": "(unnamed)",
      "channel": 2,
      "lane": "J"
    },
    {
      "time": 80.989,
      "duration": 0.056,
      "midi": 62,
      "noteNumber": 62,
      "velocity": 0.6,
      "track": "(unnamed)",
      "channel": 2,
      "lane": "J"
    },
    {
      "time": 81,
      "duration": 0.214,
      "midi": 37,
      "noteNumber": 37,
      "velocity": 0.66,
      "track": "DRUMS",
      "channel": 9,
      "lane": "D"
    },
    {
      "time": 81,
      "duration": 0.214,
      "midi": 51,
      "noteNumber": 51,
      "velocity": 0.58,
      "track": "DRUMS",
      "channel": 9,
      "lane": "F"
    },
    {
      "time": 81.044,
      "duration": 0.183,
      "midi": 62,
      "noteNumber": 62,
      "velocity": 0.73,
      "track": "(unnamed)",
      "channel": 2,
      "lane": "J"
    },
    {
      "time": 81.214,
      "duration": 0.098,
      "midi": 47,
      "noteNumber": 47,
      "velocity": 0.48,
      "track": "(unnamed)",
      "channel": 1,
      "lane": "F"
    },
    {
      "time": 81.214,
      "duration": 0.214,
      "midi": 35,
      "noteNumber": 35,
      "velocity": 0.5,
      "track": "DRUMS",
      "channel": 9,
      "lane": "D"
    },
    {
      "time": 81.214,
      "duration": 0.214,
      "midi": 51,
      "noteNumber": 51,
      "velocity": 0.58,
      "track": "DRUMS",
      "channel": 9,
      "lane": "F"
    },
    {
      "time": 81.214,
      "duration": 0.214,
      "midi": 63,
      "noteNumber": 63,
      "velocity": 0.5,
      "track": "DRUMS",
      "channel": 9,
      "lane": "J"
    },
    {
      "time": 81.25,
      "duration": 0.234,
      "midi": 57,
      "noteNumber": 57,
      "velocity": 0.72,
      "track": "(unnamed)",
      "channel": 2,
      "lane": "J"
    },
    {
      "time": 81.428,
      "duration": 0.489,
      "midi": 47,
      "noteNumber": 47,
      "velocity": 0.58,
      "track": "(unnamed)",
      "channel": 1,
      "lane": "F"
    },
    {
      "time": 81.428,
      "duration": 0.214,
      "midi": 35,
      "noteNumber": 35,
      "velocity": 0.5,
      "track": "DRUMS",
      "channel": 9,
      "lane": "D"
    },
    {
      "time": 81.428,
      "duration": 0.214,
      "midi": 51,
      "noteNumber": 51,
      "velocity": 0.58,
      "track": "DRUMS",
      "channel": 9,
      "lane": "F"
    },
    {
      "time": 81.462,
      "duration": 0.411,
      "midi": 60,
      "noteNumber": 60,
      "velocity": 0.85,
      "track": "(unnamed)",
      "channel": 2,
      "lane": "J"
    },
    {
      "time": 81.643,
      "duration": 0.214,
      "midi": 37,
      "noteNumber": 37,
      "velocity": 0.74,
      "track": "DRUMS",
      "channel": 9,
      "lane": "D"
    },
    {
      "time": 81.643,
      "duration": 0.214,
      "midi": 51,
      "noteNumber": 51,
      "velocity": 0.58,
      "track": "DRUMS",
      "channel": 9,
      "lane": "F"
    },
    {
      "time": 81.643,
      "duration": 0.214,
      "midi": 63,
      "noteNumber": 63,
      "velocity": 0.43,
      "track": "DRUMS",
      "channel": 9,
      "lane": "J"
    },
    {
      "time": 81.852,
      "duration": 0.431,
      "midi": 62,
      "noteNumber": 62,
      "velocity": 0.95,
      "track": "(unnamed)",
      "channel": 2,
      "lane": "J"
    },
    {
      "time": 81.857,
      "duration": 0.214,
      "midi": 51,
      "noteNumber": 51,
      "velocity": 0.58,
      "track": "DRUMS",
      "channel": 9,
      "lane": "F"
    },
    {
      "time": 81.857,
      "duration": 0.214,
      "midi": 63,
      "noteNumber": 63,
      "velocity": 0.43,
      "track": "DRUMS",
      "channel": 9,
      "lane": "J"
    },
    {
      "time": 82.071,
      "duration": 0.089,
      "midi": 40,
      "noteNumber": 40,
      "velocity": 0.5,
      "track": "(unnamed)",
      "channel": 1,
      "lane": "D"
    },
    {
      "time": 82.071,
      "duration": 0.214,
      "midi": 35,
      "noteNumber": 35,
      "velocity": 0.58,
      "track": "DRUMS",
      "channel": 9,
      "lane": "D"
    },
    {
      "time": 82.071,
      "duration": 0.214,
      "midi": 51,
      "noteNumber": 51,
      "velocity": 0.5,
      "track": "DRUMS",
      "channel": 9,
      "lane": "F"
    },
    {
      "time": 82.071,
      "duration": 0.214,
      "midi": 62,
      "noteNumber": 62,
      "velocity": 0.5,
      "track": "DRUMS",
      "channel": 9,
      "lane": "J"
    },
    {
      "time": 82.285,
      "duration": 0.542,
      "midi": 33,
      "noteNumber": 33,
      "velocity": 0.56,
      "track": "(unnamed)",
      "channel": 1,
      "lane": "D"
    },
    {
      "time": 82.285,
      "duration": 0.214,
      "midi": 35,
      "noteNumber": 35,
      "velocity": 0.5,
      "track": "DRUMS",
      "channel": 9,
      "lane": "D"
    },
    {
      "time": 82.285,
      "duration": 0.214,
      "midi": 37,
      "noteNumber": 37,
      "velocity": 0.66,
      "track": "DRUMS",
      "channel": 9,
      "lane": "D"
    },
    {
      "time": 82.285,
      "duration": 0.214,
      "midi": 42,
      "noteNumber": 42,
      "velocity": 0.69,
      "track": "DRUMS",
      "channel": 9,
      "lane": "D"
    },
    {
      "time": 82.285,
      "duration": 0.214,
      "midi": 62,
      "noteNumber": 62,
      "velocity": 0.5,
      "track": "DRUMS",
      "channel": 9,
      "lane": "J"
    },
    {
      "time": 82.288,
      "duration": 0.127,
      "midi": 63,
      "noteNumber": 63,
      "velocity": 0.52,
      "track": "(unnamed)",
      "channel": 2,
      "lane": "J"
    },
    {
      "time": 82.343,
      "duration": 0.176,
      "midi": 64,
      "noteNumber": 64,
      "velocity": 0.83,
      "track": "(unnamed)",
      "channel": 2,
      "lane": "J"
    },
    {
      "time": 82.5,
      "duration": 0.214,
      "midi": 51,
      "noteNumber": 51,
      "velocity": 0.5,
      "track": "DRUMS",
      "channel": 9,
      "lane": "F"
    },
    {
      "time": 82.5,
      "duration": 0.214,
      "midi": 62,
      "noteNumber": 62,
      "velocity": 0.43,
      "track": "DRUMS",
      "channel": 9,
      "lane": "J"
    },
    {
      "time": 82.535,
      "duration": 0.154,
      "midi": 69,
      "noteNumber": 69,
      "velocity": 0.83,
      "track": "(unnamed)",
      "channel": 2,
      "lane": "K"
    },
    {
      "time": 82.714,
      "duration": 0.214,
      "midi": 51,
      "noteNumber": 51,
      "velocity": 0.5,
      "track": "DRUMS",
      "channel": 9,
      "lane": "F"
    },
    {
      "time": 82.732,
      "duration": 0.225,
      "midi": 69,
      "noteNumber": 69,
      "velocity": 0.77,
      "track": "(unnamed)",
      "channel": 2,
      "lane": "K"
    },
    {
      "time": 82.928,
      "duration": 0.107,
      "midi": 33,
      "noteNumber": 33,
      "velocity": 0.53,
      "track": "(unnamed)",
      "channel": 1,
      "lane": "D"
    },
    {
      "time": 82.928,
      "duration": 0.214,
      "midi": 35,
      "noteNumber": 35,
      "velocity": 0.43,
      "track": "DRUMS",
      "channel": 9,
      "lane": "D"
    },
    {
      "time": 82.928,
      "duration": 0.214,
      "midi": 37,
      "noteNumber": 37,
      "velocity": 0.74,
      "track": "DRUMS",
      "channel": 9,
      "lane": "D"
    },
    {
      "time": 82.928,
      "duration": 0.214,
      "midi": 51,
      "noteNumber": 51,
      "velocity": 0.5,
      "track": "DRUMS",
      "channel": 9,
      "lane": "F"
    },
    {
      "time": 82.928,
      "duration": 0.214,
      "midi": 62,
      "noteNumber": 62,
      "velocity": 0.43,
      "track": "DRUMS",
      "channel": 9,
      "lane": "J"
    },
    {
      "time": 82.962,
      "duration": 0.165,
      "midi": 64,
      "noteNumber": 64,
      "velocity": 0.61,
      "track": "(unnamed)",
      "channel": 2,
      "lane": "J"
    },
    {
      "time": 83.143,
      "duration": 0.513,
      "midi": 42,
      "noteNumber": 42,
      "velocity": 0.57,
      "track": "(unnamed)",
      "channel": 1,
      "lane": "D"
    },
    {
      "time": 83.143,
      "duration": 0.214,
      "midi": 35,
      "noteNumber": 35,
      "velocity": 0.5,
      "track": "DRUMS",
      "channel": 9,
      "lane": "D"
    },
    {
      "time": 83.143,
      "duration": 0.214,
      "midi": 51,
      "noteNumber": 51,
      "velocity": 0.58,
      "track": "DRUMS",
      "channel": 9,
      "lane": "F"
    },
    {
      "time": 83.147,
      "duration": 0.348,
      "midi": 69,
      "noteNumber": 69,
      "velocity": 0.92,
      "track": "(unnamed)",
      "channel": 2,
      "lane": "K"
    },
    {
      "time": 83.357,
      "duration": 0.214,
      "midi": 51,
      "noteNumber": 51,
      "velocity": 0.5,
      "track": "DRUMS",
      "channel": 9,
      "lane": "F"
    },
    {
      "time": 83.357,
      "duration": 0.214,
      "midi": 63,
      "noteNumber": 63,
      "velocity": 0.43,
      "track": "DRUMS",
      "channel": 9,
      "lane": "J"
    },
    {
      "time": 83.571,
      "duration": 0.214,
      "midi": 37,
      "noteNumber": 37,
      "velocity": 0.66,
      "track": "DRUMS",
      "channel": 9,
      "lane": "D"
    },
    {
      "time": 83.571,
      "duration": 0.214,
      "midi": 51,
      "noteNumber": 51,
      "velocity": 0.58,
      "track": "DRUMS",
      "channel": 9,
      "lane": "F"
    },
    {
      "time": 83.598,
      "duration": 0.429,
      "midi": 74,
      "noteNumber": 74,
      "velocity": 0.94,
      "track": "(unnamed)",
      "channel": 2,
      "lane": "K"
    },
    {
      "time": 83.785,
      "duration": 0.114,
      "midi": 42,
      "noteNumber": 42,
      "velocity": 0.54,
      "track": "(unnamed)",
      "channel": 1,
      "lane": "D"
    },
    {
      "time": 83.785,
      "duration": 0.214,
      "midi": 35,
      "noteNumber": 35,
      "velocity": 0.43,
      "track": "DRUMS",
      "channel": 9,
      "lane": "D"
    },
    {
      "time": 83.785,
      "duration": 0.214,
      "midi": 51,
      "noteNumber": 51,
      "velocity": 0.66,
      "track": "DRUMS",
      "channel": 9,
      "lane": "F"
    },
    {
      "time": 83.785,
      "duration": 0.214,
      "midi": 62,
      "noteNumber": 62,
      "velocity": 0.43,
      "track": "DRUMS",
      "channel": 9,
      "lane": "J"
    },
    {
      "time": 84,
      "duration": 0.489,
      "midi": 35,
      "noteNumber": 35,
      "velocity": 0.64,
      "track": "(unnamed)",
      "channel": 1,
      "lane": "D"
    },
    {
      "time": 84,
      "duration": 0.429,
      "midi": 35,
      "noteNumber": 35,
      "velocity": 0.43,
      "track": "DRUMS",
      "channel": 9,
      "lane": "D"
    },
    {
      "time": 84,
      "duration": 0.429,
      "midi": 42,
      "noteNumber": 42,
      "velocity": 0.5,
      "track": "DRUMS",
      "channel": 9,
      "lane": "D"
    },
    {
      "time": 84.232,
      "duration": 0.243,
      "midi": 62,
      "noteNumber": 62,
      "velocity": 0.95,
      "track": "(unnamed)",
      "channel": 2,
      "lane": "J"
    },
    {
      "time": 84.239,
      "duration": 0.134,
      "midi": 56,
      "noteNumber": 56,
      "velocity": 0.6,
      "track": "(unnamed)",
      "channel": 2,
      "lane": "F"
    },
    {
      "time": 84.25,
      "duration": 0.219,
      "midi": 47,
      "noteNumber": 47,
      "velocity": 0.76,
      "track": "(unnamed)",
      "channel": 2,
      "lane": "F"
    },
    {
      "time": 84.303,
      "duration": 0.181,
      "midi": 57,
      "noteNumber": 57,
      "velocity": 0.6,
      "track": "(unnamed)",
      "channel": 2,
      "lane": "J"
    },
    {
      "time": 84.428,
      "duration": 0.429,
      "midi": 42,
      "noteNumber": 42,
      "velocity": 0.5,
      "track": "DRUMS",
      "channel": 9,
      "lane": "D"
    },
    {
      "time": 84.428,
      "duration": 0.429,
      "midi": 49,
      "noteNumber": 49,
      "velocity": 0.66,
      "track": "DRUMS",
      "channel": 9,
      "lane": "F"
    },
    {
      "time": 84.643,
      "duration": 0.098,
      "midi": 35,
      "noteNumber": 35,
      "velocity": 0.48,
      "track": "(unnamed)",
      "channel": 1,
      "lane": "D"
    },
    {
      "time": 84.656,
      "duration": 0.243,
      "midi": 56,
      "noteNumber": 56,
      "velocity": 0.64,
      "track": "(unnamed)",
      "channel": 2,
      "lane": "F"
    },
    {
      "time": 84.658,
      "duration": 0.25,
      "midi": 62,
      "noteNumber": 62,
      "velocity": 0.76,
      "track": "(unnamed)",
      "channel": 2,
      "lane": "J"
    },
    {
      "time": 84.663,
      "duration": 0.257,
      "midi": 67,
      "noteNumber": 67,
      "velocity": 0.76,
      "track": "(unnamed)",
      "channel": 2,
      "lane": "J"
    },
    {
      "time": 84.669,
      "duration": 0.237,
      "midi": 52,
      "noteNumber": 52,
      "velocity": 0.7,
      "track": "(unnamed)",
      "channel": 2,
      "lane": "F"
    },
    {
      "time": 84.857,
      "duration": 0.614,
      "midi": 40,
      "noteNumber": 40,
      "velocity": 0.64,
      "track": "(unnamed)",
      "channel": 1,
      "lane": "D"
    },
    {
      "time": 84.857,
      "duration": 0.214,
      "midi": 38,
      "noteNumber": 38,
      "velocity": 0.5,
      "track": "DRUMS",
      "channel": 9,
      "lane": "D"
    },
    {
      "time": 85.071,
      "duration": 0.429,
      "midi": 45,
      "noteNumber": 45,
      "velocity": 0.5,
      "track": "DRUMS",
      "channel": 9,
      "lane": "F"
    },
    {
      "time": 85.091,
      "duration": 0.348,
      "midi": 53,
      "noteNumber": 53,
      "velocity": 0.68,
      "track": "(unnamed)",
      "channel": 2,
      "lane": "F"
    },
    {
      "time": 85.093,
      "duration": 0.395,
      "midi": 64,
      "noteNumber": 64,
      "velocity": 0.72,
      "track": "(unnamed)",
      "channel": 2,
      "lane": "J"
    },
    {
      "time": 85.105,
      "duration": 0.348,
      "midi": 59,
      "noteNumber": 59,
      "velocity": 0.81,
      "track": "(unnamed)",
      "channel": 2,
      "lane": "J"
    },
    {
      "time": 85.111,
      "duration": 0.321,
      "midi": 44,
      "noteNumber": 44,
      "velocity": 0.7,
      "track": "(unnamed)",
      "channel": 2,
      "lane": "D"
    },
    {
      "time": 85.5,
      "duration": 0.098,
      "midi": 40,
      "noteNumber": 40,
      "velocity": 0.54,
      "track": "(unnamed)",
      "channel": 1,
      "lane": "D"
    },
    {
      "time": 85.5,
      "duration": 0.214,
      "midi": 45,
      "noteNumber": 45,
      "velocity": 0.66,
      "track": "DRUMS",
      "channel": 9,
      "lane": "F"
    },
    {
      "time": 85.714,
      "duration": 0.578,
      "midi": 33,
      "noteNumber": 33,
      "velocity": 0.55,
      "track": "(unnamed)",
      "channel": 1,
      "lane": "D"
    },
    {
      "time": 85.714,
      "duration": 0.214,
      "midi": 35,
      "noteNumber": 35,
      "velocity": 0.5,
      "track": "DRUMS",
      "channel": 9,
      "lane": "D"
    },
    {
      "time": 85.714,
      "duration": 0.214,
      "midi": 37,
      "noteNumber": 37,
      "velocity": 0.66,
      "track": "DRUMS",
      "channel": 9,
      "lane": "D"
    },
    {
      "time": 85.714,
      "duration": 0.214,
      "midi": 42,
      "noteNumber": 42,
      "velocity": 0.69,
      "track": "DRUMS",
      "channel": 9,
      "lane": "D"
    },
    {
      "time": 85.716,
      "duration": 0.292,
      "midi": 72,
      "noteNumber": 72,
      "velocity": 0.93,
      "track": "(unnamed)",
      "channel": 2,
      "lane": "K"
    },
    {
      "time": 85.727,
      "duration": 0.27,
      "midi": 64,
      "noteNumber": 64,
      "velocity": 0.65,
      "track": "(unnamed)",
      "channel": 2,
      "lane": "J"
    },
    {
      "time": 85.732,
      "duration": 0.283,
      "midi": 67,
      "noteNumber": 67,
      "velocity": 0.65,
      "track": "(unnamed)",
      "channel": 2,
      "lane": "J"
    },
    {
      "time": 85.739,
      "duration": 0.268,
      "midi": 57,
      "noteNumber": 57,
      "velocity": 0.67,
      "track": "(unnamed)",
      "channel": 2,
      "lane": "J"
    },
    {
      "time": 85.928,
      "duration": 0.214,
      "midi": 51,
      "noteNumber": 51,
      "velocity": 0.5,
      "track": "DRUMS",
      "channel": 9,
      "lane": "F"
    },
    {
      "time": 85.928,
      "duration": 0.214,
      "midi": 63,
      "noteNumber": 63,
      "velocity": 0.43,
      "track": "DRUMS",
      "channel": 9,
      "lane": "J"
    },
    {
      "time": 85.997,
      "duration": 0.951,
      "midi": 64,
      "noteNumber": 64,
      "velocity": 0.61,
      "track": "(unnamed)",
      "channel": 2,
      "lane": "J"
    },
    {
      "time": 86.009,
      "duration": 0.951,
      "midi": 66,
      "noteNumber": 66,
      "velocity": 0.63,
      "track": "(unnamed)",
      "channel": 2,
      "lane": "J"
    },
    {
      "time": 86.009,
      "duration": 0.984,
      "midi": 72,
      "noteNumber": 72,
      "velocity": 0.74,
      "track": "(unnamed)",
      "channel": 2,
      "lane": "K"
    },
    {
      "time": 86.013,
      "duration": 0.937,
      "midi": 57,
      "noteNumber": 57,
      "velocity": 0.72,
      "track": "(unnamed)",
      "channel": 2,
      "lane": "J"
    },
    {
      "time": 86.143,
      "duration": 0.214,
      "midi": 48,
      "noteNumber": 48,
      "velocity": 0.5,
      "track": "DRUMS",
      "channel": 9,
      "lane": "F"
    },
    {
      "time": 86.143,
      "duration": 0.214,
      "midi": 51,
      "noteNumber": 51,
      "velocity": 0.5,
      "track": "DRUMS",
      "channel": 9,
      "lane": "F"
    },
    {
      "time": 86.357,
      "duration": 0.096,
      "midi": 40,
      "noteNumber": 40,
      "velocity": 0.52,
      "track": "(unnamed)",
      "channel": 1,
      "lane": "D"
    },
    {
      "time": 86.357,
      "duration": 0.214,
      "midi": 35,
      "noteNumber": 35,
      "velocity": 0.43,
      "track": "DRUMS",
      "channel": 9,
      "lane": "D"
    },
    {
      "time": 86.357,
      "duration": 0.214,
      "midi": 37,
      "noteNumber": 37,
      "velocity": 0.74,
      "track": "DRUMS",
      "channel": 9,
      "lane": "D"
    },
    {
      "time": 86.357,
      "duration": 0.214,
      "midi": 51,
      "noteNumber": 51,
      "velocity": 0.5,
      "track": "DRUMS",
      "channel": 9,
      "lane": "F"
    },
    {
      "time": 86.357,
      "duration": 0.214,
      "midi": 63,
      "noteNumber": 63,
      "velocity": 0.43,
      "track": "DRUMS",
      "channel": 9,
      "lane": "J"
    },
    {
      "time": 86.571,
      "duration": 0.518,
      "midi": 40,
      "noteNumber": 40,
      "velocity": 0.65,
      "track": "(unnamed)",
      "channel": 1,
      "lane": "D"
    },
    {
      "time": 86.571,
      "duration": 0.214,
      "midi": 35,
      "noteNumber": 35,
      "velocity": 0.5,
      "track": "DRUMS",
      "channel": 9,
      "lane": "D"
    },
    {
      "time": 86.571,
      "duration": 0.214,
      "midi": 51,
      "noteNumber": 51,
      "velocity": 0.58,
      "track": "DRUMS",
      "channel": 9,
      "lane": "F"
    },
    {
      "time": 86.785,
      "duration": 0.214,
      "midi": 51,
      "noteNumber": 51,
      "velocity": 0.5,
      "track": "DRUMS",
      "channel": 9,
      "lane": "F"
    },
    {
      "time": 86.785,
      "duration": 0.214,
      "midi": 62,
      "noteNumber": 62,
      "velocity": 0.43,
      "track": "DRUMS",
      "channel": 9,
      "lane": "J"
    },
    {
      "time": 87,
      "duration": 0.214,
      "midi": 37,
      "noteNumber": 37,
      "velocity": 0.66,
      "track": "DRUMS",
      "channel": 9,
      "lane": "D"
    },
    {
      "time": 87,
      "duration": 0.214,
      "midi": 51,
      "noteNumber": 51,
      "velocity": 0.58,
      "track": "DRUMS",
      "channel": 9,
      "lane": "F"
    },
    {
      "time": 87,
      "duration": 0.214,
      "midi": 63,
      "noteNumber": 63,
      "velocity": 0.43,
      "track": "DRUMS",
      "channel": 9,
      "lane": "J"
    },
    {
      "time": 87.214,
      "duration": 0.107,
      "midi": 33,
      "noteNumber": 33,
      "velocity": 0.55,
      "track": "(unnamed)",
      "channel": 1,
      "lane": "D"
    },
    {
      "time": 87.214,
      "duration": 0.214,
      "midi": 35,
      "noteNumber": 35,
      "velocity": 0.43,
      "track": "DRUMS",
      "channel": 9,
      "lane": "D"
    },
    {
      "time": 87.214,
      "duration": 0.214,
      "midi": 51,
      "noteNumber": 51,
      "velocity": 0.66,
      "track": "DRUMS",
      "channel": 9,
      "lane": "F"
    },
    {
      "time": 87.214,
      "duration": 0.214,
      "midi": 62,
      "noteNumber": 62,
      "velocity": 0.43,
      "track": "DRUMS",
      "channel": 9,
      "lane": "J"
    },
    {
      "time": 87.428,
      "duration": 0.473,
      "midi": 35,
      "noteNumber": 35,
      "velocity": 0.62,
      "track": "(unnamed)",
      "channel": 1,
      "lane": "D"
    },
    {
      "time": 87.428,
      "duration": 0.214,
      "midi": 35,
      "noteNumber": 35,
      "velocity": 0.5,
      "track": "DRUMS",
      "channel": 9,
      "lane": "D"
    },
    {
      "time": 87.428,
      "duration": 0.214,
      "midi": 51,
      "noteNumber": 51,
      "velocity": 0.58,
      "track": "DRUMS",
      "channel": 9,
      "lane": "F"
    },
    {
      "time": 87.428,
      "duration": 0.214,
      "midi": 62,
      "noteNumber": 62,
      "velocity": 0.5,
      "track": "DRUMS",
      "channel": 9,
      "lane": "J"
    },
    {
      "time": 87.439,
      "duration": 0.239,
      "midi": 76,
      "noteNumber": 76,
      "velocity": 0.91,
      "track": "(unnamed)",
      "channel": 2,
      "lane": "K"
    },
    {
      "time": 87.448,
      "duration": 0.219,
      "midi": 59,
      "noteNumber": 59,
      "velocity": 0.84,
      "track": "(unnamed)",
      "channel": 2,
      "lane": "J"
    },
    {
      "time": 87.451,
      "duration": 0.261,
      "midi": 69,
      "noteNumber": 69,
      "velocity": 0.65,
      "track": "(unnamed)",
      "channel": 2,
      "lane": "K"
    },
    {
      "time": 87.462,
      "duration": 0.248,
      "midi": 66,
      "noteNumber": 66,
      "velocity": 0.68,
      "track": "(unnamed)",
      "channel": 2,
      "lane": "J"
    },
    {
      "time": 87.643,
      "duration": 0.214,
      "midi": 51,
      "noteNumber": 51,
      "velocity": 0.5,
      "track": "DRUMS",
      "channel": 9,
      "lane": "F"
    },
    {
      "time": 87.643,
      "duration": 0.214,
      "midi": 63,
      "noteNumber": 63,
      "velocity": 0.43,
      "track": "DRUMS",
      "channel": 9,
      "lane": "J"
    },
    {
      "time": 87.667,
      "duration": 0.196,
      "midi": 59,
      "noteNumber": 59,
      "velocity": 0.59,
      "track": "(unnamed)",
      "channel": 2,
      "lane": "J"
    },
    {
      "time": 87.678,
      "duration": 0.176,
      "midi": 76,
      "noteNumber": 76,
      "velocity": 0.69,
      "track": "(unnamed)",
      "channel": 2,
      "lane": "K"
    },
    {
      "time": 87.855,
      "duration": 0.232,
      "midi": 76,
      "noteNumber": 76,
      "velocity": 0.76,
      "track": "(unnamed)",
      "channel": 2,
      "lane": "K"
    },
    {
      "time": 87.857,
      "duration": 0.214,
      "midi": 37,
      "noteNumber": 37,
      "velocity": 0.66,
      "track": "DRUMS",
      "channel": 9,
      "lane": "D"
    },
    {
      "time": 87.857,
      "duration": 0.214,
      "midi": 51,
      "noteNumber": 51,
      "velocity": 0.58,
      "track": "DRUMS",
      "channel": 9,
      "lane": "F"
    },
    {
      "time": 87.857,
      "duration": 0.214,
      "midi": 63,
      "noteNumber": 63,
      "velocity": 0.43,
      "track": "DRUMS",
      "channel": 9,
      "lane": "J"
    },
    {
      "time": 87.864,
      "duration": 0.23,
      "midi": 59,
      "noteNumber": 59,
      "velocity": 0.61,
      "track": "(unnamed)",
      "channel": 2,
      "lane": "J"
    },
    {
      "time": 87.87,
      "duration": 0.23,
      "midi": 66,
      "noteNumber": 66,
      "velocity": 0.58,
      "track": "(unnamed)",
      "channel": 2,
      "lane": "J"
    },
    {
      "time": 87.875,
      "duration": 0.248,
      "midi": 69,
      "noteNumber": 69,
      "velocity": 0.58,
      "track": "(unnamed)",
      "channel": 2,
      "lane": "K"
    },
    {
      "time": 88.071,
      "duration": 0.092,
      "midi": 35,
      "noteNumber": 35,
      "velocity": 0.48,
      "track": "(unnamed)",
      "channel": 1,
      "lane": "D"
    },
    {
      "time": 88.071,
      "duration": 0.214,
      "midi": 35,
      "noteNumber": 35,
      "velocity": 0.5,
      "track": "DRUMS",
      "channel": 9,
      "lane": "D"
    },
    {
      "time": 88.071,
      "duration": 0.214,
      "midi": 51,
      "noteNumber": 51,
      "velocity": 0.58,
      "track": "DRUMS",
      "channel": 9,
      "lane": "F"
    },
    {
      "time": 88.071,
      "duration": 0.214,
      "midi": 63,
      "noteNumber": 63,
      "velocity": 0.5,
      "track": "DRUMS",
      "channel": 9,
      "lane": "J"
    },
    {
      "time": 88.087,
      "duration": 0.181,
      "midi": 76,
      "noteNumber": 76,
      "velocity": 0.83,
      "track": "(unnamed)",
      "channel": 2,
      "lane": "K"
    },
    {
      "time": 88.093,
      "duration": 0.132,
      "midi": 59,
      "noteNumber": 59,
      "velocity": 0.68,
      "track": "(unnamed)",
      "channel": 2,
      "lane": "J"
    },
    {
      "time": 88.1,
      "duration": 0.098,
      "midi": 66,
      "noteNumber": 66,
      "velocity": 0.56,
      "track": "(unnamed)",
      "channel": 2,
      "lane": "J"
    },
    {
      "time": 88.285,
      "duration": 0.621,
      "midi": 40,
      "noteNumber": 40,
      "velocity": 0.58,
      "track": "(unnamed)",
      "channel": 1,
      "lane": "D"
    },
    {
      "time": 88.285,
      "duration": 0.214,
      "midi": 35,
      "noteNumber": 35,
      "velocity": 0.5,
      "track": "DRUMS",
      "channel": 9,
      "lane": "D"
    },
    {
      "time": 88.285,
      "duration": 0.214,
      "midi": 51,
      "noteNumber": 51,
      "velocity": 0.58,
      "track": "DRUMS",
      "channel": 9,
      "lane": "F"
    },
    {
      "time": 88.285,
      "duration": 0.214,
      "midi": 63,
      "noteNumber": 63,
      "velocity": 0.5,
      "track": "DRUMS",
      "channel": 9,
      "lane": "J"
    },
    {
      "time": 88.288,
      "duration": 0.429,
      "midi": 74,
      "noteNumber": 74,
      "velocity": 0.95,
      "track": "(unnamed)",
      "channel": 2,
      "lane": "K"
    },
    {
      "time": 88.301,
      "duration": 0.254,
      "midi": 65,
      "noteNumber": 65,
      "velocity": 0.57,
      "track": "(unnamed)",
      "channel": 2,
      "lane": "J"
    },
    {
      "time": 88.31,
      "duration": 0.237,
      "midi": 59,
      "noteNumber": 59,
      "velocity": 0.65,
      "track": "(unnamed)",
      "channel": 2,
      "lane": "J"
    },
    {
      "time": 88.484,
      "duration": 0.085,
      "midi": 64,
      "noteNumber": 64,
      "velocity": 0.57,
      "track": "(unnamed)",
      "channel": 2,
      "lane": "J"
    },
    {
      "time": 88.5,
      "duration": 0.214,
      "midi": 37,
      "noteNumber": 37,
      "velocity": 0.74,
      "track": "DRUMS",
      "channel": 9,
      "lane": "D"
    },
    {
      "time": 88.5,
      "duration": 0.214,
      "midi": 51,
      "noteNumber": 51,
      "velocity": 0.58,
      "track": "DRUMS",
      "channel": 9,
      "lane": "F"
    },
    {
      "time": 88.714,
      "duration": 0.214,
      "midi": 51,
      "noteNumber": 51,
      "velocity": 0.58,
      "track": "DRUMS",
      "channel": 9,
      "lane": "F"
    },
    {
      "time": 88.732,
      "duration": 0.252,
      "midi": 76,
      "noteNumber": 76,
      "velocity": 0.92,
      "track": "(unnamed)",
      "channel": 2,
      "lane": "K"
    },
    {
      "time": 88.739,
      "duration": 0.194,
      "midi": 68,
      "noteNumber": 68,
      "velocity": 0.59,
      "track": "(unnamed)",
      "channel": 2,
      "lane": "K"
    },
    {
      "time": 88.75,
      "duration": 0.23,
      "midi": 59,
      "noteNumber": 59,
      "velocity": 0.67,
      "track": "(unnamed)",
      "channel": 2,
      "lane": "J"
    },
    {
      "time": 88.75,
      "duration": 0.217,
      "midi": 65,
      "noteNumber": 65,
      "velocity": 0.84,
      "track": "(unnamed)",
      "channel": 2,
      "lane": "J"
    },
    {
      "time": 88.928,
      "duration": 0.092,
      "midi": 40,
      "noteNumber": 40,
      "velocity": 0.44,
      "track": "(unnamed)",
      "channel": 1,
      "lane": "D"
    },
    {
      "time": 88.928,
      "duration": 0.214,
      "midi": 35,
      "noteNumber": 35,
      "velocity": 0.58,
      "track": "DRUMS",
      "channel": 9,
      "lane": "D"
    },
    {
      "time": 88.928,
      "duration": 0.214,
      "midi": 51,
      "noteNumber": 51,
      "velocity": 0.5,
      "track": "DRUMS",
      "channel": 9,
      "lane": "F"
    },
    {
      "time": 89.143,
      "duration": 0.542,
      "midi": 33,
      "noteNumber": 33,
      "velocity": 0.61,
      "track": "(unnamed)",
      "channel": 1,
      "lane": "D"
    },
    {
      "time": 89.143,
      "duration": 0.154,
      "midi": 66,
      "noteNumber": 66,
      "velocity": 0.61,
      "track": "(unnamed)",
      "channel": 2,
      "lane": "J"
    },
    {
      "time": 89.143,
      "duration": 0.214,
      "midi": 35,
      "noteNumber": 35,
      "velocity": 0.5,
      "track": "DRUMS",
      "channel": 9,
      "lane": "D"
    },
    {
      "time": 89.143,
      "duration": 0.214,
      "midi": 37,
      "noteNumber": 37,
      "velocity": 0.66,
      "track": "DRUMS",
      "channel": 9,
      "lane": "D"
    },
    {
      "time": 89.143,
      "duration": 0.214,
      "midi": 42,
      "noteNumber": 42,
      "velocity": 0.69,
      "track": "DRUMS",
      "channel": 9,
      "lane": "D"
    },
    {
      "time": 89.143,
      "duration": 0.214,
      "midi": 62,
      "noteNumber": 62,
      "velocity": 0.5,
      "track": "DRUMS",
      "channel": 9,
      "lane": "J"
    },
    {
      "time": 89.147,
      "duration": 0.612,
      "midi": 72,
      "noteNumber": 72,
      "velocity": 0.85,
      "track": "(unnamed)",
      "channel": 2,
      "lane": "K"
    },
    {
      "time": 89.154,
      "duration": 0.578,
      "midi": 57,
      "noteNumber": 57,
      "velocity": 0.66,
      "track": "(unnamed)",
      "channel": 2,
      "lane": "J"
    },
    {
      "time": 89.158,
      "duration": 0.576,
      "midi": 64,
      "noteNumber": 64,
      "velocity": 0.57,
      "track": "(unnamed)",
      "channel": 2,
      "lane": "J"
    },
    {
      "time": 89.227,
      "duration": 0.509,
      "midi": 67,
      "noteNumber": 67,
      "velocity": 0.61,
      "track": "(unnamed)",
      "channel": 2,
      "lane": "J"
    },
    {
      "time": 89.357,
      "duration": 0.214,
      "midi": 51,
      "noteNumber": 51,
      "velocity": 0.5,
      "track": "DRUMS",
      "channel": 9,
      "lane": "F"
    },
    {
      "time": 89.571,
      "duration": 0.214,
      "midi": 48,
      "noteNumber": 48,
      "velocity": 0.5,
      "track": "DRUMS",
      "channel": 9,
      "lane": "F"
    },
    {
      "time": 89.571,
      "duration": 0.214,
      "midi": 51,
      "noteNumber": 51,
      "velocity": 0.5,
      "track": "DRUMS",
      "channel": 9,
      "lane": "F"
    },
    {
      "time": 89.785,
      "duration": 0.092,
      "midi": 39,
      "noteNumber": 39,
      "velocity": 0.49,
      "track": "(unnamed)",
      "channel": 1,
      "lane": "D"
    },
    {
      "time": 89.785,
      "duration": 0.214,
      "midi": 35,
      "noteNumber": 35,
      "velocity": 0.43,
      "track": "DRUMS",
      "channel": 9,
      "lane": "D"
    },
    {
      "time": 89.785,
      "duration": 0.214,
      "midi": 37,
      "noteNumber": 37,
      "velocity": 0.74,
      "track": "DRUMS",
      "channel": 9,
      "lane": "D"
    },
    {
      "time": 89.785,
      "duration": 0.214,
      "midi": 51,
      "noteNumber": 51,
      "velocity": 0.5,
      "track": "DRUMS",
      "channel": 9,
      "lane": "F"
    },
    {
      "time": 89.785,
      "duration": 0.214,
      "midi": 63,
      "noteNumber": 63,
      "velocity": 0.43,
      "track": "DRUMS",
      "channel": 9,
      "lane": "J"
    },
    {
      "time": 89.821,
      "duration": 0.567,
      "midi": 69,
      "noteNumber": 69,
      "velocity": 0.82,
      "track": "(unnamed)",
      "channel": 2,
      "lane": "K"
    },
    {
      "time": 89.828,
      "duration": 0.576,
      "midi": 64,
      "noteNumber": 64,
      "velocity": 0.62,
      "track": "(unnamed)",
      "channel": 2,
      "lane": "J"
    },
    {
      "time": 89.835,
      "duration": 0.462,
      "midi": 54,
      "noteNumber": 54,
      "velocity": 0.65,
      "track": "(unnamed)",
      "channel": 2,
      "lane": "F"
    },
    {
      "time": 89.839,
      "duration": 0.562,
      "midi": 60,
      "noteNumber": 60,
      "velocity": 0.64,
      "track": "(unnamed)",
      "channel": 2,
      "lane": "J"
    },
    {
      "time": 90,
      "duration": 0.453,
      "midi": 40,
      "noteNumber": 40,
      "velocity": 0.61,
      "track": "(unnamed)",
      "channel": 1,
      "lane": "D"
    },
    {
      "time": 90,
      "duration": 0.214,
      "midi": 35,
      "noteNumber": 35,
      "velocity": 0.5,
      "track": "DRUMS",
      "channel": 9,
      "lane": "D"
    },
    {
      "time": 90,
      "duration": 0.214,
      "midi": 51,
      "noteNumber": 51,
      "velocity": 0.58,
      "track": "DRUMS",
      "channel": 9,
      "lane": "F"
    },
    {
      "time": 90,
      "duration": 0.214,
      "midi": 62,
      "noteNumber": 62,
      "velocity": 0.5,
      "track": "DRUMS",
      "channel": 9,
      "lane": "J"
    },
    {
      "time": 90.214,
      "duration": 0.214,
      "midi": 51,
      "noteNumber": 51,
      "velocity": 0.5,
      "track": "DRUMS",
      "channel": 9,
      "lane": "F"
    },
    {
      "time": 90.428,
      "duration": 0.214,
      "midi": 37,
      "noteNumber": 37,
      "velocity": 0.66,
      "track": "DRUMS",
      "channel": 9,
      "lane": "D"
    },
    {
      "time": 90.428,
      "duration": 0.214,
      "midi": 51,
      "noteNumber": 51,
      "velocity": 0.58,
      "track": "DRUMS",
      "channel": 9,
      "lane": "F"
    },
    {
      "time": 90.46,
      "duration": 0.402,
      "midi": 64,
      "noteNumber": 64,
      "velocity": 0.8,
      "track": "(unnamed)",
      "channel": 2,
      "lane": "J"
    },
    {
      "time": 90.643,
      "duration": 0.103,
      "midi": 33,
      "noteNumber": 33,
      "velocity": 0.47,
      "track": "(unnamed)",
      "channel": 1,
      "lane": "D"
    },
    {
      "time": 90.643,
      "duration": 0.214,
      "midi": 35,
      "noteNumber": 35,
      "velocity": 0.43,
      "track": "DRUMS",
      "channel": 9,
      "lane": "D"
    },
    {
      "time": 90.643,
      "duration": 0.214,
      "midi": 51,
      "noteNumber": 51,
      "velocity": 0.66,
      "track": "DRUMS",
      "channel": 9,
      "lane": "F"
    },
    {
      "time": 90.663,
      "duration": 0.201,
      "midi": 69,
      "noteNumber": 69,
      "velocity": 0.89,
      "track": "(unnamed)",
      "channel": 2,
      "lane": "K"
    },
    {
      "time": 90.857,
      "duration": 0.531,
      "midi": 35,
      "noteNumber": 35,
      "velocity": 0.51,
      "track": "(unnamed)",
      "channel": 1,
      "lane": "D"
    },
    {
      "time": 90.857,
      "duration": 0.214,
      "midi": 35,
      "noteNumber": 35,
      "velocity": 0.5,
      "track": "DRUMS",
      "channel": 9,
      "lane": "D"
    },
    {
      "time": 90.857,
      "duration": 0.214,
      "midi": 51,
      "noteNumber": 51,
      "velocity": 0.58,
      "track": "DRUMS",
      "channel": 9,
      "lane": "F"
    },
    {
      "time": 90.857,
      "duration": 0.214,
      "midi": 62,
      "noteNumber": 62,
      "velocity": 0.5,
      "track": "DRUMS",
      "channel": 9,
      "lane": "J"
    },
    {
      "time": 90.861,
      "duration": 0.125,
      "midi": 62,
      "noteNumber": 62,
      "velocity": 0.64,
      "track": "(unnamed)",
      "channel": 2,
      "lane": "J"
    },
    {
      "time": 90.917,
      "duration": 0.136,
      "midi": 63,
      "noteNumber": 63,
      "velocity": 0.89,
      "track": "(unnamed)",
      "channel": 2,
      "lane": "J"
    },
    {
      "time": 91.071,
      "duration": 0.214,
      "midi": 51,
      "noteNumber": 51,
      "velocity": 0.5,
      "track": "DRUMS",
      "channel": 9,
      "lane": "F"
    },
    {
      "time": 91.091,
      "duration": 0.538,
      "midi": 62,
      "noteNumber": 62,
      "velocity": 0.74,
      "track": "(unnamed)",
      "channel": 2,
      "lane": "J"
    },
    {
      "time": 91.285,
      "duration": 0.214,
      "midi": 37,
      "noteNumber": 37,
      "velocity": 0.66,
      "track": "DRUMS",
      "channel": 9,
      "lane": "D"
    },
    {
      "time": 91.285,
      "duration": 0.214,
      "midi": 51,
      "noteNumber": 51,
      "velocity": 0.58,
      "track": "DRUMS",
      "channel": 9,
      "lane": "F"
    },
    {
      "time": 91.285,
      "duration": 0.214,
      "midi": 63,
      "noteNumber": 63,
      "velocity": 0.43,
      "track": "DRUMS",
      "channel": 9,
      "lane": "J"
    },
    {
      "time": 91.5,
      "duration": 0.089,
      "midi": 35,
      "noteNumber": 35,
      "velocity": 0.44,
      "track": "(unnamed)",
      "channel": 1,
      "lane": "D"
    },
    {
      "time": 91.5,
      "duration": 0.214,
      "midi": 35,
      "noteNumber": 35,
      "velocity": 0.5,
      "track": "DRUMS",
      "channel": 9,
      "lane": "D"
    },
    {
      "time": 91.5,
      "duration": 0.214,
      "midi": 51,
      "noteNumber": 51,
      "velocity": 0.58,
      "track": "DRUMS",
      "channel": 9,
      "lane": "F"
    },
    {
      "time": 91.714,
      "duration": 0.464,
      "midi": 40,
      "noteNumber": 40,
      "velocity": 0.58,
      "track": "(unnamed)",
      "channel": 1,
      "lane": "D"
    },
    {
      "time": 91.714,
      "duration": 0.214,
      "midi": 35,
      "noteNumber": 35,
      "velocity": 0.5,
      "track": "DRUMS",
      "channel": 9,
      "lane": "D"
    },
    {
      "time": 91.714,
      "duration": 0.214,
      "midi": 51,
      "noteNumber": 51,
      "velocity": 0.58,
      "track": "DRUMS",
      "channel": 9,
      "lane": "F"
    },
    {
      "time": 91.714,
      "duration": 0.214,
      "midi": 62,
      "noteNumber": 62,
      "velocity": 0.5,
      "track": "DRUMS",
      "channel": 9,
      "lane": "J"
    },
    {
      "time": 91.727,
      "duration": 0.509,
      "midi": 47,
      "noteNumber": 47,
      "velocity": 0.75,
      "track": "(unnamed)",
      "channel": 2,
      "lane": "F"
    },
    {
      "time": 91.928,
      "duration": 0.339,
      "midi": 56,
      "noteNumber": 56,
      "velocity": 0.83,
      "track": "(unnamed)",
      "channel": 2,
      "lane": "F"
    },
    {
      "time": 91.928,
      "duration": 0.214,
      "midi": 37,
      "noteNumber": 37,
      "velocity": 0.74,
      "track": "DRUMS",
      "channel": 9,
      "lane": "D"
    },
    {
      "time": 91.928,
      "duration": 0.214,
      "midi": 51,
      "noteNumber": 51,
      "velocity": 0.58,
      "track": "DRUMS",
      "channel": 9,
      "lane": "F"
    },
    {
      "time": 91.928,
      "duration": 0.214,
      "midi": 63,
      "noteNumber": 63,
      "velocity": 0.43,
      "track": "DRUMS",
      "channel": 9,
      "lane": "J"
    },
    {
      "time": 91.933,
      "duration": 0.355,
      "midi": 62,
      "noteNumber": 62,
      "velocity": 0.9,
      "track": "(unnamed)",
      "channel": 2,
      "lane": "J"
    },
    {
      "time": 92.143,
      "duration": 0.214,
      "midi": 45,
      "noteNumber": 45,
      "velocity": 0.5,
      "track": "DRUMS",
      "channel": 9,
      "lane": "F"
    },
    {
      "time": 92.143,
      "duration": 0.214,
      "midi": 51,
      "noteNumber": 51,
      "velocity": 0.58,
      "track": "DRUMS",
      "channel": 9,
      "lane": "F"
    },
    {
      "time": 92.357,
      "duration": 0.098,
      "midi": 40,
      "noteNumber": 40,
      "velocity": 0.47,
      "track": "(unnamed)",
      "channel": 1,
      "lane": "D"
    },
    {
      "time": 92.357,
      "duration": 0.214,
      "midi": 35,
      "noteNumber": 35,
      "velocity": 0.58,
      "track": "DRUMS",
      "channel": 9,
      "lane": "D"
    },
    {
      "time": 92.357,
      "duration": 0.214,
      "midi": 45,
      "noteNumber": 45,
      "velocity": 0.5,
      "track": "DRUMS",
      "channel": 9,
      "lane": "F"
    },
    {
      "time": 92.357,
      "duration": 0.214,
      "midi": 51,
      "noteNumber": 51,
      "velocity": 0.5,
      "track": "DRUMS",
      "channel": 9,
      "lane": "F"
    },
    {
      "time": 92.571,
      "duration": 0.525,
      "midi": 40,
      "noteNumber": 40,
      "velocity": 0.65,
      "track": "(unnamed)",
      "channel": 1,
      "lane": "D"
    },
    {
      "time": 92.571,
      "duration": 0.214,
      "midi": 35,
      "noteNumber": 35,
      "velocity": 0.5,
      "track": "DRUMS",
      "channel": 9,
      "lane": "D"
    },
    {
      "time": 92.571,
      "duration": 0.214,
      "midi": 37,
      "noteNumber": 37,
      "velocity": 0.66,
      "track": "DRUMS",
      "channel": 9,
      "lane": "D"
    },
    {
      "time": 92.571,
      "duration": 0.214,
      "midi": 42,
      "noteNumber": 42,
      "velocity": 0.69,
      "track": "DRUMS",
      "channel": 9,
      "lane": "D"
    },
    {
      "time": 92.571,
      "duration": 0.214,
      "midi": 63,
      "noteNumber": 63,
      "velocity": 0.5,
      "track": "DRUMS",
      "channel": 9,
      "lane": "J"
    },
    {
      "time": 92.573,
      "duration": 0.286,
      "midi": 70,
      "noteNumber": 70,
      "velocity": 0.78,
      "track": "(unnamed)",
      "channel": 2,
      "lane": "K"
    },
    {
      "time": 92.582,
      "duration": 0.317,
      "midi": 67,
      "noteNumber": 67,
      "velocity": 0.7,
      "track": "(unnamed)",
      "channel": 2,
      "lane": "J"
    },
    {
      "time": 92.596,
      "duration": 0.277,
      "midi": 52,
      "noteNumber": 52,
      "velocity": 0.63,
      "track": "(unnamed)",
      "channel": 2,
      "lane": "F"
    },
    {
      "time": 92.6,
      "duration": 0.283,
      "midi": 62,
      "noteNumber": 62,
      "velocity": 0.76,
      "track": "(unnamed)",
      "channel": 2,
      "lane": "J"
    },
    {
      "time": 92.785,
      "duration": 0.214,
      "midi": 51,
      "noteNumber": 51,
      "velocity": 0.5,
      "track": "DRUMS",
      "channel": 9,
      "lane": "F"
    },
    {
      "time": 93,
      "duration": 0.214,
      "midi": 51,
      "noteNumber": 51,
      "velocity": 0.5,
      "track": "DRUMS",
      "channel": 9,
      "lane": "F"
    },
    {
      "time": 93,
      "duration": 0.214,
      "midi": 63,
      "noteNumber": 63,
      "velocity": 0.43,
      "track": "DRUMS",
      "channel": 9,
      "lane": "J"
    },
    {
      "time": 93.013,
      "duration": 0.266,
      "midi": 69,
      "noteNumber": 69,
      "velocity": 0.99,
      "track": "(unnamed)",
      "channel": 2,
      "lane": "K"
    },
    {
      "time": 93.214,
      "duration": 0.098,
      "midi": 46,
      "noteNumber": 46,
      "velocity": 0.58,
      "track": "(unnamed)",
      "channel": 1,
      "lane": "F"
    },
    {
      "time": 93.214,
      "duration": 0.214,
      "midi": 35,
      "noteNumber": 35,
      "velocity": 0.43,
      "track": "DRUMS",
      "channel": 9,
      "lane": "D"
    },
    {
      "time": 93.214,
      "duration": 0.214,
      "midi": 37,
      "noteNumber": 37,
      "velocity": 0.74,
      "track": "DRUMS",
      "channel": 9,
      "lane": "D"
    },
    {
      "time": 93.214,
      "duration": 0.214,
      "midi": 51,
      "noteNumber": 51,
      "velocity": 0.5,
      "track": "DRUMS",
      "channel": 9,
      "lane": "F"
    },
    {
      "time": 93.214,
      "duration": 0.214,
      "midi": 63,
      "noteNumber": 63,
      "velocity": 0.43,
      "track": "DRUMS",
      "channel": 9,
      "lane": "J"
    },
    {
      "time": 93.259,
      "duration": 0.297,
      "midi": 70,
      "noteNumber": 70,
      "velocity": 0.91,
      "track": "(unnamed)",
      "channel": 2,
      "lane": "K"
    },
    {
      "time": 93.428,
      "duration": 0.556,
      "midi": 46,
      "noteNumber": 46,
      "velocity": 0.57,
      "track": "(unnamed)",
      "channel": 1,
      "lane": "F"
    },
    {
      "time": 93.428,
      "duration": 0.214,
      "midi": 35,
      "noteNumber": 35,
      "velocity": 0.5,
      "track": "DRUMS",
      "channel": 9,
      "lane": "D"
    },
    {
      "time": 93.428,
      "duration": 0.214,
      "midi": 51,
      "noteNumber": 51,
      "velocity": 0.58,
      "track": "DRUMS",
      "channel": 9,
      "lane": "F"
    },
    {
      "time": 93.428,
      "duration": 0.214,
      "midi": 63,
      "noteNumber": 63,
      "velocity": 0.5,
      "track": "DRUMS",
      "channel": 9,
      "lane": "J"
    },
    {
      "time": 93.643,
      "duration": 0.214,
      "midi": 51,
      "noteNumber": 51,
      "velocity": 0.5,
      "track": "DRUMS",
      "channel": 9,
      "lane": "F"
    },
    {
      "time": 93.643,
      "duration": 0.214,
      "midi": 63,
      "noteNumber": 63,
      "velocity": 0.43,
      "track": "DRUMS",
      "channel": 9,
      "lane": "J"
    },
    {
      "time": 93.672,
      "duration": 0.21,
      "midi": 67,
      "noteNumber": 67,
      "velocity": 0.81,
      "track": "(unnamed)",
      "channel": 2,
      "lane": "J"
    },
    {
      "time": 93.857,
      "duration": 0.214,
      "midi": 37,
      "noteNumber": 37,
      "velocity": 0.66,
      "track": "DRUMS",
      "channel": 9,
      "lane": "D"
    },
    {
      "time": 93.857,
      "duration": 0.214,
      "midi": 51,
      "noteNumber": 51,
      "velocity": 0.58,
      "track": "DRUMS",
      "channel": 9,
      "lane": "F"
    },
    {
      "time": 93.857,
      "duration": 0.214,
      "midi": 62,
      "noteNumber": 62,
      "velocity": 0.43,
      "track": "DRUMS",
      "channel": 9,
      "lane": "J"
    },
    {
      "time": 93.877,
      "duration": 0.281,
      "midi": 62,
      "noteNumber": 62,
      "velocity": 0.86,
      "track": "(unnamed)",
      "channel": 2,
      "lane": "J"
    },
    {
      "time": 94.071,
      "duration": 0.121,
      "midi": 40,
      "noteNumber": 40,
      "velocity": 0.46,
      "track": "(unnamed)",
      "channel": 1,
      "lane": "D"
    },
    {
      "time": 94.071,
      "duration": 0.214,
      "midi": 35,
      "noteNumber": 35,
      "velocity": 0.43,
      "track": "DRUMS",
      "channel": 9,
      "lane": "D"
    },
    {
      "time": 94.071,
      "duration": 0.214,
      "midi": 51,
      "noteNumber": 51,
      "velocity": 0.66,
      "track": "DRUMS",
      "channel": 9,
      "lane": "F"
    },
    {
      "time": 94.12,
      "duration": 0.205,
      "midi": 58,
      "noteNumber": 58,
      "velocity": 0.65,
      "track": "(unnamed)",
      "channel": 2,
      "lane": "J"
    },
    {
      "time": 94.285,
      "duration": 0.621,
      "midi": 33,
      "noteNumber": 33,
      "velocity": 0.65,
      "track": "(unnamed)",
      "channel": 1,
      "lane": "D"
    },
    {
      "time": 94.285,
      "duration": 0.214,
      "midi": 35,
      "noteNumber": 35,
      "velocity": 0.5,
      "track": "DRUMS",
      "channel": 9,
      "lane": "D"
    },
    {
      "time": 94.285,
      "duration": 0.214,
      "midi": 51,
      "noteNumber": 51,
      "velocity": 0.58,
      "track": "DRUMS",
      "channel": 9,
      "lane": "F"
    },
    {
      "time": 94.285,
      "duration": 0.214,
      "midi": 63,
      "noteNumber": 63,
      "velocity": 0.5,
      "track": "DRUMS",
      "channel": 9,
      "lane": "J"
    },
    {
      "time": 94.314,
      "duration": 0.232,
      "midi": 55,
      "noteNumber": 55,
      "velocity": 0.7,
      "track": "(unnamed)",
      "channel": 2,
      "lane": "F"
    },
    {
      "time": 94.5,
      "duration": 0.214,
      "midi": 51,
      "noteNumber": 51,
      "velocity": 0.5,
      "track": "DRUMS",
      "channel": 9,
      "lane": "F"
    },
    {
      "time": 94.5,
      "duration": 0.214,
      "midi": 62,
      "noteNumber": 62,
      "velocity": 0.43,
      "track": "DRUMS",
      "channel": 9,
      "lane": "J"
    },
    {
      "time": 94.529,
      "duration": 0.219,
      "midi": 57,
      "noteNumber": 57,
      "velocity": 0.69,
      "track": "(unnamed)",
      "channel": 2,
      "lane": "J"
    },
    {
      "time": 94.714,
      "duration": 0.214,
      "midi": 37,
      "noteNumber": 37,
      "velocity": 0.66,
      "track": "DRUMS",
      "channel": 9,
      "lane": "D"
    },
    {
      "time": 94.714,
      "duration": 0.214,
      "midi": 51,
      "noteNumber": 51,
      "velocity": 0.58,
      "track": "DRUMS",
      "channel": 9,
      "lane": "F"
    },
    {
      "time": 94.718,
      "duration": 0.223,
      "midi": 58,
      "noteNumber": 58,
      "velocity": 0.73,
      "track": "(unnamed)",
      "channel": 2,
      "lane": "J"
    },
    {
      "time": 94.928,
      "duration": 0.109,
      "midi": 40,
      "noteNumber": 40,
      "velocity": 0.47,
      "track": "(unnamed)",
      "channel": 1,
      "lane": "D"
    },
    {
      "time": 94.928,
      "duration": 0.214,
      "midi": 35,
      "noteNumber": 35,
      "velocity": 0.5,
      "track": "DRUMS",
      "channel": 9,
      "lane": "D"
    },
    {
      "time": 94.928,
      "duration": 0.214,
      "midi": 51,
      "noteNumber": 51,
      "velocity": 0.58,
      "track": "DRUMS",
      "channel": 9,
      "lane": "F"
    },
    {
      "time": 94.928,
      "duration": 0.214,
      "midi": 62,
      "noteNumber": 62,
      "velocity": 0.5,
      "track": "DRUMS",
      "channel": 9,
      "lane": "J"
    },
    {
      "time": 94.944,
      "duration": 0.232,
      "midi": 62,
      "noteNumber": 62,
      "velocity": 0.94,
      "track": "(unnamed)",
      "channel": 2,
      "lane": "J"
    },
    {
      "time": 95.143,
      "duration": 0.549,
      "midi": 40,
      "noteNumber": 40,
      "velocity": 0.64,
      "track": "(unnamed)",
      "channel": 1,
      "lane": "D"
    },
    {
      "time": 95.143,
      "duration": 0.214,
      "midi": 35,
      "noteNumber": 35,
      "velocity": 0.5,
      "track": "DRUMS",
      "channel": 9,
      "lane": "D"
    },
    {
      "time": 95.143,
      "duration": 0.214,
      "midi": 51,
      "noteNumber": 51,
      "velocity": 0.58,
      "track": "DRUMS",
      "channel": 9,
      "lane": "F"
    },
    {
      "time": 95.154,
      "duration": 0.281,
      "midi": 61,
      "noteNumber": 61,
      "velocity": 0.76,
      "track": "(unnamed)",
      "channel": 2,
      "lane": "J"
    },
    {
      "time": 95.357,
      "duration": 0.214,
      "midi": 37,
      "noteNumber": 37,
      "velocity": 0.74,
      "track": "DRUMS",
      "channel": 9,
      "lane": "D"
    },
    {
      "time": 95.357,
      "duration": 0.214,
      "midi": 51,
      "noteNumber": 51,
      "velocity": 0.58,
      "track": "DRUMS",
      "channel": 9,
      "lane": "F"
    },
    {
      "time": 95.357,
      "duration": 0.214,
      "midi": 63,
      "noteNumber": 63,
      "velocity": 0.43,
      "track": "DRUMS",
      "channel": 9,
      "lane": "J"
    },
    {
      "time": 95.384,
      "duration": 0.199,
      "midi": 64,
      "noteNumber": 64,
      "velocity": 0.69,
      "track": "(unnamed)",
      "channel": 2,
      "lane": "J"
    },
    {
      "time": 95.567,
      "duration": 0.232,
      "midi": 69,
      "noteNumber": 69,
      "velocity": 0.76,
      "track": "(unnamed)",
      "channel": 2,
      "lane": "K"
    },
    {
      "time": 95.571,
      "duration": 0.214,
      "midi": 45,
      "noteNumber": 45,
      "velocity": 0.5,
      "track": "DRUMS",
      "channel": 9,
      "lane": "F"
    },
    {
      "time": 95.571,
      "duration": 0.214,
      "midi": 51,
      "noteNumber": 51,
      "velocity": 0.58,
      "track": "DRUMS",
      "channel": 9,
      "lane": "F"
    },
    {
      "time": 95.571,
      "duration": 0.214,
      "midi": 62,
      "noteNumber": 62,
      "velocity": 0.43,
      "track": "DRUMS",
      "channel": 9,
      "lane": "J"
    },
    {
      "time": 95.785,
      "duration": 0.096,
      "midi": 33,
      "noteNumber": 33,
      "velocity": 0.48,
      "track": "(unnamed)",
      "channel": 1,
      "lane": "D"
    },
    {
      "time": 95.785,
      "duration": 0.214,
      "midi": 35,
      "noteNumber": 35,
      "velocity": 0.58,
      "track": "DRUMS",
      "channel": 9,
      "lane": "D"
    },
    {
      "time": 95.785,
      "duration": 0.214,
      "midi": 45,
      "noteNumber": 45,
      "velocity": 0.5,
      "track": "DRUMS",
      "channel": 9,
      "lane": "F"
    },
    {
      "time": 95.785,
      "duration": 0.214,
      "midi": 51,
      "noteNumber": 51,
      "velocity": 0.5,
      "track": "DRUMS",
      "channel": 9,
      "lane": "F"
    },
    {
      "time": 95.785,
      "duration": 0.214,
      "midi": 63,
      "noteNumber": 63,
      "velocity": 0.5,
      "track": "DRUMS",
      "channel": 9,
      "lane": "J"
    },
    {
      "time": 95.797,
      "duration": 0.232,
      "midi": 67,
      "noteNumber": 67,
      "velocity": 0.76,
      "track": "(unnamed)",
      "channel": 2,
      "lane": "J"
    },
    {
      "time": 96,
      "duration": 0.545,
      "midi": 38,
      "noteNumber": 38,
      "velocity": 0.65,
      "track": "(unnamed)",
      "channel": 1,
      "lane": "D"
    },
    {
      "time": 96,
      "duration": 0.214,
      "midi": 35,
      "noteNumber": 35,
      "velocity": 0.5,
      "track": "DRUMS",
      "channel": 9,
      "lane": "D"
    },
    {
      "time": 96,
      "duration": 0.214,
      "midi": 37,
      "noteNumber": 37,
      "velocity": 0.66,
      "track": "DRUMS",
      "channel": 9,
      "lane": "D"
    },
    {
      "time": 96,
      "duration": 0.214,
      "midi": 42,
      "noteNumber": 42,
      "velocity": 0.69,
      "track": "DRUMS",
      "channel": 9,
      "lane": "D"
    },
    {
      "time": 96,
      "duration": 0.214,
      "midi": 63,
      "noteNumber": 63,
      "velocity": 0.5,
      "track": "DRUMS",
      "channel": 9,
      "lane": "J"
    },
    {
      "time": 96.011,
      "duration": 0.239,
      "midi": 65,
      "noteNumber": 65,
      "velocity": 0.82,
      "track": "(unnamed)",
      "channel": 2,
      "lane": "J"
    },
    {
      "time": 96.214,
      "duration": 0.214,
      "midi": 51,
      "noteNumber": 51,
      "velocity": 0.5,
      "track": "DRUMS",
      "channel": 9,
      "lane": "F"
    },
    {
      "time": 96.214,
      "duration": 0.214,
      "midi": 63,
      "noteNumber": 63,
      "velocity": 0.43,
      "track": "DRUMS",
      "channel": 9,
      "lane": "J"
    },
    {
      "time": 96.234,
      "duration": 0.172,
      "midi": 69,
      "noteNumber": 69,
      "velocity": 0.83,
      "track": "(unnamed)",
      "channel": 2,
      "lane": "K"
    },
    {
      "time": 96.428,
      "duration": 0.214,
      "midi": 51,
      "noteNumber": 51,
      "velocity": 0.5,
      "track": "DRUMS",
      "channel": 9,
      "lane": "F"
    },
    {
      "time": 96.437,
      "duration": 0.083,
      "midi": 75,
      "noteNumber": 75,
      "velocity": 0.64,
      "track": "(unnamed)",
      "channel": 2,
      "lane": "K"
    },
    {
      "time": 96.451,
      "duration": 0.254,
      "midi": 76,
      "noteNumber": 76,
      "velocity": 0.76,
      "track": "(unnamed)",
      "channel": 2,
      "lane": "K"
    },
    {
      "time": 96.643,
      "duration": 0.109,
      "midi": 44,
      "noteNumber": 44,
      "velocity": 0.58,
      "track": "(unnamed)",
      "channel": 1,
      "lane": "D"
    },
    {
      "time": 96.643,
      "duration": 0.214,
      "midi": 35,
      "noteNumber": 35,
      "velocity": 0.43,
      "track": "DRUMS",
      "channel": 9,
      "lane": "D"
    },
    {
      "time": 96.643,
      "duration": 0.214,
      "midi": 37,
      "noteNumber": 37,
      "velocity": 0.74,
      "track": "DRUMS",
      "channel": 9,
      "lane": "D"
    },
    {
      "time": 96.643,
      "duration": 0.214,
      "midi": 51,
      "noteNumber": 51,
      "velocity": 0.5,
      "track": "DRUMS",
      "channel": 9,
      "lane": "F"
    },
    {
      "time": 96.643,
      "duration": 0.214,
      "midi": 63,
      "noteNumber": 63,
      "velocity": 0.43,
      "track": "DRUMS",
      "channel": 9,
      "lane": "J"
    },
    {
      "time": 96.696,
      "duration": 0.906,
      "midi": 74,
      "noteNumber": 74,
      "velocity": 0.9,
      "track": "(unnamed)",
      "channel": 2,
      "lane": "K"
    },
    {
      "time": 96.857,
      "duration": 0.489,
      "midi": 45,
      "noteNumber": 45,
      "velocity": 0.51,
      "track": "(unnamed)",
      "channel": 1,
      "lane": "F"
    },
    {
      "time": 96.857,
      "duration": 0.214,
      "midi": 35,
      "noteNumber": 35,
      "velocity": 0.5,
      "track": "DRUMS",
      "channel": 9,
      "lane": "D"
    },
    {
      "time": 96.857,
      "duration": 0.214,
      "midi": 51,
      "noteNumber": 51,
      "velocity": 0.58,
      "track": "DRUMS",
      "channel": 9,
      "lane": "F"
    },
    {
      "time": 96.857,
      "duration": 0.214,
      "midi": 63,
      "noteNumber": 63,
      "velocity": 0.5,
      "track": "DRUMS",
      "channel": 9,
      "lane": "J"
    },
    {
      "time": 97.071,
      "duration": 0.214,
      "midi": 51,
      "noteNumber": 51,
      "velocity": 0.5,
      "track": "DRUMS",
      "channel": 9,
      "lane": "F"
    },
    {
      "time": 97.071,
      "duration": 0.214,
      "midi": 62,
      "noteNumber": 62,
      "velocity": 0.43,
      "track": "DRUMS",
      "channel": 9,
      "lane": "J"
    },
    {
      "time": 97.285,
      "duration": 0.214,
      "midi": 37,
      "noteNumber": 37,
      "velocity": 0.66,
      "track": "DRUMS",
      "channel": 9,
      "lane": "D"
    },
    {
      "time": 97.285,
      "duration": 0.214,
      "midi": 51,
      "noteNumber": 51,
      "velocity": 0.58,
      "track": "DRUMS",
      "channel": 9,
      "lane": "F"
    },
    {
      "time": 97.285,
      "duration": 0.214,
      "midi": 63,
      "noteNumber": 63,
      "velocity": 0.43,
      "track": "DRUMS",
      "channel": 9,
      "lane": "J"
    },
    {
      "time": 97.5,
      "duration": 0.109,
      "midi": 49,
      "noteNumber": 49,
      "velocity": 0.52,
      "track": "(unnamed)",
      "channel": 1,
      "lane": "F"
    },
    {
      "time": 97.5,
      "duration": 0.214,
      "midi": 35,
      "noteNumber": 35,
      "velocity": 0.43,
      "track": "DRUMS",
      "channel": 9,
      "lane": "D"
    },
    {
      "time": 97.5,
      "duration": 0.214,
      "midi": 51,
      "noteNumber": 51,
      "velocity": 0.66,
      "track": "DRUMS",
      "channel": 9,
      "lane": "F"
    },
    {
      "time": 97.714,
      "duration": 0.621,
      "midi": 50,
      "noteNumber": 50,
      "velocity": 0.56,
      "track": "(unnamed)",
      "channel": 1,
      "lane": "F"
    },
    {
      "time": 97.714,
      "duration": 0.429,
      "midi": 35,
      "noteNumber": 35,
      "velocity": 0.43,
      "track": "DRUMS",
      "channel": 9,
      "lane": "D"
    },
    {
      "time": 97.714,
      "duration": 0.429,
      "midi": 42,
      "noteNumber": 42,
      "velocity": 0.5,
      "track": "DRUMS",
      "channel": 9,
      "lane": "D"
    },
    {
      "time": 98.143,
      "duration": 0.429,
      "midi": 42,
      "noteNumber": 42,
      "velocity": 0.5,
      "track": "DRUMS",
      "channel": 9,
      "lane": "D"
    },
    {
      "time": 98.143,
      "duration": 0.429,
      "midi": 49,
      "noteNumber": 49,
      "velocity": 0.66,
      "track": "DRUMS",
      "channel": 9,
      "lane": "F"
    },
    {
      "time": 98.167,
      "duration": 0.199,
      "midi": 69,
      "noteNumber": 69,
      "velocity": 0.61,
      "track": "(unnamed)",
      "channel": 2,
      "lane": "K"
    },
    {
      "time": 98.174,
      "duration": 0.181,
      "midi": 53,
      "noteNumber": 53,
      "velocity": 0.77,
      "track": "(unnamed)",
      "channel": 2,
      "lane": "F"
    },
    {
      "time": 98.178,
      "duration": 0.183,
      "midi": 60,
      "noteNumber": 60,
      "velocity": 0.65,
      "track": "(unnamed)",
      "channel": 2,
      "lane": "J"
    },
    {
      "time": 98.183,
      "duration": 0.187,
      "midi": 64,
      "noteNumber": 64,
      "velocity": 0.55,
      "track": "(unnamed)",
      "channel": 2,
      "lane": "J"
    },
    {
      "time": 98.357,
      "duration": 0.092,
      "midi": 44,
      "noteNumber": 44,
      "velocity": 0.54,
      "track": "(unnamed)",
      "channel": 1,
      "lane": "D"
    },
    {
      "time": 98.571,
      "duration": 0.574,
      "midi": 45,
      "noteNumber": 45,
      "velocity": 0.61,
      "track": "(unnamed)",
      "channel": 1,
      "lane": "F"
    },
    {
      "time": 98.571,
      "duration": 0.214,
      "midi": 38,
      "noteNumber": 38,
      "velocity": 0.5,
      "track": "DRUMS",
      "channel": 9,
      "lane": "D"
    },
    {
      "time": 98.785,
      "duration": 0.429,
      "midi": 45,
      "noteNumber": 45,
      "velocity": 0.5,
      "track": "DRUMS",
      "channel": 9,
      "lane": "F"
    },
    {
      "time": 98.805,
      "duration": 0.08,
      "midi": 48,
      "noteNumber": 48,
      "velocity": 0.64,
      "track": "(unnamed)",
      "channel": 2,
      "lane": "F"
    },
    {
      "time": 98.814,
      "duration": 0.172,
      "midi": 53,
      "noteNumber": 53,
      "velocity": 0.64,
      "track": "(unnamed)",
      "channel": 2,
      "lane": "F"
    },
    {
      "time": 98.819,
      "duration": 0.174,
      "midi": 60,
      "noteNumber": 60,
      "velocity": 0.57,
      "track": "(unnamed)",
      "channel": 2,
      "lane": "J"
    },
    {
      "time": 98.821,
      "duration": 0.201,
      "midi": 64,
      "noteNumber": 64,
      "velocity": 0.58,
      "track": "(unnamed)",
      "channel": 2,
      "lane": "J"
    },
    {
      "time": 99.214,
      "duration": 0.089,
      "midi": 36,
      "noteNumber": 36,
      "velocity": 0.55,
      "track": "(unnamed)",
      "channel": 1,
      "lane": "D"
    },
    {
      "time": 99.214,
      "duration": 0.214,
      "midi": 45,
      "noteNumber": 45,
      "velocity": 0.66,
      "track": "DRUMS",
      "channel": 9,
      "lane": "F"
    },
    {
      "time": 99.428,
      "duration": 0.538,
      "midi": 35,
      "noteNumber": 35,
      "velocity": 0.54,
      "track": "(unnamed)",
      "channel": 1,
      "lane": "D"
    },
    {
      "time": 99.428,
      "duration": 0.214,
      "midi": 35,
      "noteNumber": 35,
      "velocity": 0.5,
      "track": "DRUMS",
      "channel": 9,
      "lane": "D"
    },
    {
      "time": 99.428,
      "duration": 0.214,
      "midi": 37,
      "noteNumber": 37,
      "velocity": 0.66,
      "track": "DRUMS",
      "channel": 9,
      "lane": "D"
    },
    {
      "time": 99.428,
      "duration": 0.214,
      "midi": 42,
      "noteNumber": 42,
      "velocity": 0.69,
      "track": "DRUMS",
      "channel": 9,
      "lane": "D"
    },
    {
      "time": 99.428,
      "duration": 0.214,
      "midi": 62,
      "noteNumber": 62,
      "velocity": 0.5,
      "track": "DRUMS",
      "channel": 9,
      "lane": "J"
    },
    {
      "time": 99.643,
      "duration": 0.214,
      "midi": 51,
      "noteNumber": 51,
      "velocity": 0.5,
      "track": "DRUMS",
      "channel": 9,
      "lane": "F"
    },
    {
      "time": 99.658,
      "duration": 0.225,
      "midi": 69,
      "noteNumber": 69,
      "velocity": 0.96,
      "track": "(unnamed)",
      "channel": 2,
      "lane": "K"
    },
    {
      "time": 99.857,
      "duration": 0.214,
      "midi": 48,
      "noteNumber": 48,
      "velocity": 0.5,
      "track": "DRUMS",
      "channel": 9,
      "lane": "F"
    },
    {
      "time": 99.857,
      "duration": 0.214,
      "midi": 51,
      "noteNumber": 51,
      "velocity": 0.5,
      "track": "DRUMS",
      "channel": 9,
      "lane": "F"
    },
    {
      "time": 99.877,
      "duration": 0.246,
      "midi": 79,
      "noteNumber": 79,
      "velocity": 0.79,
      "track": "(unnamed)",
      "channel": 2,
      "lane": "K"
    },
    {
      "time": 100.071,
      "duration": 0.103,
      "midi": 41,
      "noteNumber": 41,
      "velocity": 0.58,
      "track": "(unnamed)",
      "channel": 1,
      "lane": "D"
    },
    {
      "time": 100.071,
      "duration": 0.214,
      "midi": 35,
      "noteNumber": 35,
      "velocity": 0.43,
      "track": "DRUMS",
      "channel": 9,
      "lane": "D"
    },
    {
      "time": 100.071,
      "duration": 0.214,
      "midi": 37,
      "noteNumber": 37,
      "velocity": 0.74,
      "track": "DRUMS",
      "channel": 9,
      "lane": "D"
    },
    {
      "time": 100.071,
      "duration": 0.214,
      "midi": 51,
      "noteNumber": 51,
      "velocity": 0.5,
      "track": "DRUMS",
      "channel": 9,
      "lane": "F"
    },
    {
      "time": 100.071,
      "duration": 0.214,
      "midi": 62,
      "noteNumber": 62,
      "velocity": 0.43,
      "track": "DRUMS",
      "channel": 9,
      "lane": "J"
    },
    {
      "time": 100.102,
      "duration": 0.647,
      "midi": 77,
      "noteNumber": 77,
      "velocity": 0.95,
      "track": "(unnamed)",
      "channel": 2,
      "lane": "K"
    },
    {
      "time": 100.285,
      "duration": 0.455,
      "midi": 41,
      "noteNumber": 41,
      "velocity": 0.54,
      "track": "(unnamed)",
      "channel": 1,
      "lane": "D"
    },
    {
      "time": 100.285,
      "duration": 0.214,
      "midi": 35,
      "noteNumber": 35,
      "velocity": 0.5,
      "track": "DRUMS",
      "channel": 9,
      "lane": "D"
    },
    {
      "time": 100.285,
      "duration": 0.214,
      "midi": 51,
      "noteNumber": 51,
      "velocity": 0.58,
      "track": "DRUMS",
      "channel": 9,
      "lane": "F"
    },
    {
      "time": 100.285,
      "duration": 0.214,
      "midi": 63,
      "noteNumber": 63,
      "velocity": 0.5,
      "track": "DRUMS",
      "channel": 9,
      "lane": "J"
    },
    {
      "time": 100.5,
      "duration": 0.214,
      "midi": 51,
      "noteNumber": 51,
      "velocity": 0.5,
      "track": "DRUMS",
      "channel": 9,
      "lane": "F"
    },
    {
      "time": 100.5,
      "duration": 0.214,
      "midi": 63,
      "noteNumber": 63,
      "velocity": 0.43,
      "track": "DRUMS",
      "channel": 9,
      "lane": "J"
    },
    {
      "time": 100.714,
      "duration": 0.214,
      "midi": 37,
      "noteNumber": 37,
      "velocity": 0.66,
      "track": "DRUMS",
      "channel": 9,
      "lane": "D"
    },
    {
      "time": 100.714,
      "duration": 0.214,
      "midi": 51,
      "noteNumber": 51,
      "velocity": 0.58,
      "track": "DRUMS",
      "channel": 9,
      "lane": "F"
    },
    {
      "time": 100.714,
      "duration": 0.214,
      "midi": 62,
      "noteNumber": 62,
      "velocity": 0.43,
      "track": "DRUMS",
      "channel": 9,
      "lane": "J"
    },
    {
      "time": 100.745,
      "duration": 0.203,
      "midi": 76,
      "noteNumber": 76,
      "velocity": 0.79,
      "track": "(unnamed)",
      "channel": 2,
      "lane": "K"
    },
    {
      "time": 100.928,
      "duration": 0.096,
      "midi": 35,
      "noteNumber": 35,
      "velocity": 0.52,
      "track": "(unnamed)",
      "channel": 1,
      "lane": "D"
    },
    {
      "time": 100.928,
      "duration": 0.214,
      "midi": 35,
      "noteNumber": 35,
      "velocity": 0.43,
      "track": "DRUMS",
      "channel": 9,
      "lane": "D"
    },
    {
      "time": 100.928,
      "duration": 0.214,
      "midi": 51,
      "noteNumber": 51,
      "velocity": 0.66,
      "track": "DRUMS",
      "channel": 9,
      "lane": "F"
    },
    {
      "time": 100.928,
      "duration": 0.214,
      "midi": 62,
      "noteNumber": 62,
      "velocity": 0.43,
      "track": "DRUMS",
      "channel": 9,
      "lane": "J"
    },
    {
      "time": 100.942,
      "duration": 0.203,
      "midi": 74,
      "noteNumber": 74,
      "velocity": 0.72,
      "track": "(unnamed)",
      "channel": 2,
      "lane": "K"
    },
    {
      "time": 101.143,
      "duration": 0.545,
      "midi": 40,
      "noteNumber": 40,
      "velocity": 0.61,
      "track": "(unnamed)",
      "channel": 1,
      "lane": "D"
    },
    {
      "time": 101.143,
      "duration": 0.214,
      "midi": 35,
      "noteNumber": 35,
      "velocity": 0.5,
      "track": "DRUMS",
      "channel": 9,
      "lane": "D"
    },
    {
      "time": 101.143,
      "duration": 0.214,
      "midi": 51,
      "noteNumber": 51,
      "velocity": 0.58,
      "track": "DRUMS",
      "channel": 9,
      "lane": "F"
    },
    {
      "time": 101.143,
      "duration": 0.214,
      "midi": 63,
      "noteNumber": 63,
      "velocity": 0.5,
      "track": "DRUMS",
      "channel": 9,
      "lane": "J"
    },
    {
      "time": 101.149,
      "duration": 0.328,
      "midi": 77,
      "noteNumber": 77,
      "velocity": 0.78,
      "track": "(unnamed)",
      "channel": 2,
      "lane": "K"
    },
    {
      "time": 101.357,
      "duration": 0.214,
      "midi": 51,
      "noteNumber": 51,
      "velocity": 0.5,
      "track": "DRUMS",
      "channel": 9,
      "lane": "F"
    },
    {
      "time": 101.357,
      "duration": 0.214,
      "midi": 63,
      "noteNumber": 63,
      "velocity": 0.43,
      "track": "DRUMS",
      "channel": 9,
      "lane": "J"
    },
    {
      "time": 101.408,
      "duration": 0.19,
      "midi": 76,
      "noteNumber": 76,
      "velocity": 0.78,
      "track": "(unnamed)",
      "channel": 2,
      "lane": "K"
    },
    {
      "time": 101.571,
      "duration": 0.214,
      "midi": 37,
      "noteNumber": 37,
      "velocity": 0.66,
      "track": "DRUMS",
      "channel": 9,
      "lane": "D"
    },
    {
      "time": 101.571,
      "duration": 0.214,
      "midi": 51,
      "noteNumber": 51,
      "velocity": 0.58,
      "track": "DRUMS",
      "channel": 9,
      "lane": "F"
    },
    {
      "time": 101.571,
      "duration": 0.214,
      "midi": 63,
      "noteNumber": 63,
      "velocity": 0.43,
      "track": "DRUMS",
      "channel": 9,
      "lane": "J"
    },
    {
      "time": 101.582,
      "duration": 0.223,
      "midi": 74,
      "noteNumber": 74,
      "velocity": 0.8,
      "track": "(unnamed)",
      "channel": 2,
      "lane": "K"
    },
    {
      "time": 101.785,
      "duration": 0.121,
      "midi": 46,
      "noteNumber": 46,
      "velocity": 0.51,
      "track": "(unnamed)",
      "channel": 1,
      "lane": "F"
    },
    {
      "time": 101.785,
      "duration": 0.214,
      "midi": 35,
      "noteNumber": 35,
      "velocity": 0.5,
      "track": "DRUMS",
      "channel": 9,
      "lane": "D"
    },
    {
      "time": 101.785,
      "duration": 0.214,
      "midi": 51,
      "noteNumber": 51,
      "velocity": 0.58,
      "track": "DRUMS",
      "channel": 9,
      "lane": "F"
    },
    {
      "time": 101.785,
      "duration": 0.214,
      "midi": 63,
      "noteNumber": 63,
      "velocity": 0.5,
      "track": "DRUMS",
      "channel": 9,
      "lane": "J"
    },
    {
      "time": 101.801,
      "duration": 0.23,
      "midi": 69,
      "noteNumber": 69,
      "velocity": 0.79,
      "track": "(unnamed)",
      "channel": 2,
      "lane": "K"
    },
    {
      "time": 101.993,
      "duration": 0.25,
      "midi": 72,
      "noteNumber": 72,
      "velocity": 0.96,
      "track": "(unnamed)",
      "channel": 2,
      "lane": "K"
    },
    {
      "time": 102,
      "duration": 0.578,
      "midi": 47,
      "noteNumber": 47,
      "velocity": 0.53,
      "track": "(unnamed)",
      "channel": 1,
      "lane": "F"
    },
    {
      "time": 102,
      "duration": 0.214,
      "midi": 35,
      "noteNumber": 35,
      "velocity": 0.5,
      "track": "DRUMS",
      "channel": 9,
      "lane": "D"
    },
    {
      "time": 102,
      "duration": 0.214,
      "midi": 51,
      "noteNumber": 51,
      "velocity": 0.58,
      "track": "DRUMS",
      "channel": 9,
      "lane": "F"
    },
    {
      "time": 102,
      "duration": 0.214,
      "midi": 63,
      "noteNumber": 63,
      "velocity": 0.5,
      "track": "DRUMS",
      "channel": 9,
      "lane": "J"
    },
    {
      "time": 102.214,
      "duration": 0.214,
      "midi": 37,
      "noteNumber": 37,
      "velocity": 0.74,
      "track": "DRUMS",
      "channel": 9,
      "lane": "D"
    },
    {
      "time": 102.214,
      "duration": 0.214,
      "midi": 51,
      "noteNumber": 51,
      "velocity": 0.58,
      "track": "DRUMS",
      "channel": 9,
      "lane": "F"
    },
    {
      "time": 102.259,
      "duration": 0.172,
      "midi": 64,
      "noteNumber": 64,
      "velocity": 0.62,
      "track": "(unnamed)",
      "channel": 2,
      "lane": "J"
    },
    {
      "time": 102.422,
      "duration": 0.27,
      "midi": 68,
      "noteNumber": 68,
      "velocity": 0.86,
      "track": "(unnamed)",
      "channel": 2,
      "lane": "K"
    },
    {
      "time": 102.428,
      "duration": 0.214,
      "midi": 51,
      "noteNumber": 51,
      "velocity": 0.58,
      "track": "DRUMS",
      "channel": 9,
      "lane": "F"
    },
    {
      "time": 102.643,
      "duration": 0.109,
      "midi": 40,
      "noteNumber": 40,
      "velocity": 0.55,
      "track": "(unnamed)",
      "channel": 1,
      "lane": "D"
    },
    {
      "time": 102.643,
      "duration": 0.214,
      "midi": 35,
      "noteNumber": 35,
      "velocity": 0.58,
      "track": "DRUMS",
      "channel": 9,
      "lane": "D"
    },
    {
      "time": 102.643,
      "duration": 0.214,
      "midi": 51,
      "noteNumber": 51,
      "velocity": 0.5,
      "track": "DRUMS",
      "channel": 9,
      "lane": "F"
    },
    {
      "time": 102.643,
      "duration": 0.214,
      "midi": 63,
      "noteNumber": 63,
      "velocity": 0.5,
      "track": "DRUMS",
      "channel": 9,
      "lane": "J"
    },
    {
      "time": 102.647,
      "duration": 0.321,
      "midi": 71,
      "noteNumber": 71,
      "velocity": 0.91,
      "track": "(unnamed)",
      "channel": 2,
      "lane": "K"
    },
    {
      "time": 102.857,
      "duration": 0.549,
      "midi": 33,
      "noteNumber": 33,
      "velocity": 0.65,
      "track": "(unnamed)",
      "channel": 1,
      "lane": "D"
    },
    {
      "time": 102.857,
      "duration": 0.214,
      "midi": 35,
      "noteNumber": 35,
      "velocity": 0.5,
      "track": "DRUMS",
      "channel": 9,
      "lane": "D"
    },
    {
      "time": 102.857,
      "duration": 0.214,
      "midi": 37,
      "noteNumber": 37,
      "velocity": 0.66,
      "track": "DRUMS",
      "channel": 9,
      "lane": "D"
    },
    {
      "time": 102.857,
      "duration": 0.214,
      "midi": 42,
      "noteNumber": 42,
      "velocity": 0.69,
      "track": "DRUMS",
      "channel": 9,
      "lane": "D"
    },
    {
      "time": 103.071,
      "duration": 0.214,
      "midi": 51,
      "noteNumber": 51,
      "velocity": 0.5,
      "track": "DRUMS",
      "channel": 9,
      "lane": "F"
    },
    {
      "time": 103.091,
      "duration": 0.203,
      "midi": 69,
      "noteNumber": 69,
      "velocity": 0.61,
      "track": "(unnamed)",
      "channel": 2,
      "lane": "K"
    },
    {
      "time": 103.285,
      "duration": 0.214,
      "midi": 51,
      "noteNumber": 51,
      "velocity": 0.5,
      "track": "DRUMS",
      "channel": 9,
      "lane": "F"
    },
    {
      "time": 103.297,
      "duration": 0.252,
      "midi": 77,
      "noteNumber": 77,
      "velocity": 0.99,
      "track": "(unnamed)",
      "channel": 2,
      "lane": "K"
    },
    {
      "time": 103.5,
      "duration": 0.116,
      "midi": 39,
      "noteNumber": 39,
      "velocity": 0.53,
      "track": "(unnamed)",
      "channel": 1,
      "lane": "D"
    },
    {
      "time": 103.5,
      "duration": 0.214,
      "midi": 35,
      "noteNumber": 35,
      "velocity": 0.43,
      "track": "DRUMS",
      "channel": 9,
      "lane": "D"
    },
    {
      "time": 103.5,
      "duration": 0.214,
      "midi": 37,
      "noteNumber": 37,
      "velocity": 0.74,
      "track": "DRUMS",
      "channel": 9,
      "lane": "D"
    },
    {
      "time": 103.5,
      "duration": 0.214,
      "midi": 51,
      "noteNumber": 51,
      "velocity": 0.5,
      "track": "DRUMS",
      "channel": 9,
      "lane": "F"
    },
    {
      "time": 103.5,
      "duration": 0.214,
      "midi": 62,
      "noteNumber": 62,
      "velocity": 0.43,
      "track": "DRUMS",
      "channel": 9,
      "lane": "J"
    },
    {
      "time": 103.524,
      "duration": 0.714,
      "midi": 76,
      "noteNumber": 76,
      "velocity": 0.83,
      "track": "(unnamed)",
      "channel": 2,
      "lane": "K"
    },
    {
      "time": 103.714,
      "duration": 0.536,
      "midi": 40,
      "noteNumber": 40,
      "velocity": 0.61,
      "track": "(unnamed)",
      "channel": 1,
      "lane": "D"
    },
    {
      "time": 103.714,
      "duration": 0.214,
      "midi": 35,
      "noteNumber": 35,
      "velocity": 0.5,
      "track": "DRUMS",
      "channel": 9,
      "lane": "D"
    },
    {
      "time": 103.714,
      "duration": 0.214,
      "midi": 51,
      "noteNumber": 51,
      "velocity": 0.58,
      "track": "DRUMS",
      "channel": 9,
      "lane": "F"
    },
    {
      "time": 103.714,
      "duration": 0.214,
      "midi": 62,
      "noteNumber": 62,
      "velocity": 0.5,
      "track": "DRUMS",
      "channel": 9,
      "lane": "J"
    },
    {
      "time": 103.928,
      "duration": 0.214,
      "midi": 51,
      "noteNumber": 51,
      "velocity": 0.5,
      "track": "DRUMS",
      "channel": 9,
      "lane": "F"
    },
    {
      "time": 103.928,
      "duration": 0.214,
      "midi": 62,
      "noteNumber": 62,
      "velocity": 0.43,
      "track": "DRUMS",
      "channel": 9,
      "lane": "J"
    },
    {
      "time": 104.143,
      "duration": 0.214,
      "midi": 37,
      "noteNumber": 37,
      "velocity": 0.66,
      "track": "DRUMS",
      "channel": 9,
      "lane": "D"
    },
    {
      "time": 104.143,
      "duration": 0.214,
      "midi": 45,
      "noteNumber": 45,
      "velocity": 0.5,
      "track": "DRUMS",
      "channel": 9,
      "lane": "F"
    },
    {
      "time": 104.143,
      "duration": 0.214,
      "midi": 51,
      "noteNumber": 51,
      "velocity": 0.58,
      "track": "DRUMS",
      "channel": 9,
      "lane": "F"
    },
    {
      "time": 104.143,
      "duration": 0.214,
      "midi": 63,
      "noteNumber": 63,
      "velocity": 0.43,
      "track": "DRUMS",
      "channel": 9,
      "lane": "J"
    },
    {
      "time": 104.156,
      "duration": 0.23,
      "midi": 72,
      "noteNumber": 72,
      "velocity": 0.97,
      "track": "(unnamed)",
      "channel": 2,
      "lane": "K"
    },
    {
      "time": 104.357,
      "duration": 0.116,
      "midi": 33,
      "noteNumber": 33,
      "velocity": 0.56,
      "track": "(unnamed)",
      "channel": 1,
      "lane": "D"
    },
    {
      "time": 104.357,
      "duration": 0.214,
      "midi": 35,
      "noteNumber": 35,
      "velocity": 0.43,
      "track": "DRUMS",
      "channel": 9,
      "lane": "D"
    },
    {
      "time": 104.357,
      "duration": 0.214,
      "midi": 45,
      "noteNumber": 45,
      "velocity": 0.5,
      "track": "DRUMS",
      "channel": 9,
      "lane": "F"
    },
    {
      "time": 104.357,
      "duration": 0.214,
      "midi": 51,
      "noteNumber": 51,
      "velocity": 0.66,
      "track": "DRUMS",
      "channel": 9,
      "lane": "F"
    },
    {
      "time": 104.384,
      "duration": 0.225,
      "midi": 69,
      "noteNumber": 69,
      "velocity": 0.77,
      "track": "(unnamed)",
      "channel": 2,
      "lane": "K"
    },
    {
      "time": 104.571,
      "duration": 0.509,
      "midi": 41,
      "noteNumber": 41,
      "velocity": 0.59,
      "track": "(unnamed)",
      "channel": 1,
      "lane": "D"
    },
    {
      "time": 104.571,
      "duration": 0.214,
      "midi": 35,
      "noteNumber": 35,
      "velocity": 0.5,
      "track": "DRUMS",
      "channel": 9,
      "lane": "D"
    },
    {
      "time": 104.571,
      "duration": 0.214,
      "midi": 51,
      "noteNumber": 51,
      "velocity": 0.58,
      "track": "DRUMS",
      "channel": 9,
      "lane": "F"
    },
    {
      "time": 104.584,
      "duration": 0.29,
      "midi": 67,
      "noteNumber": 67,
      "velocity": 0.76,
      "track": "(unnamed)",
      "channel": 2,
      "lane": "J"
    },
    {
      "time": 104.785,
      "duration": 0.214,
      "midi": 51,
      "noteNumber": 51,
      "velocity": 0.5,
      "track": "DRUMS",
      "channel": 9,
      "lane": "F"
    },
    {
      "time": 104.785,
      "duration": 0.214,
      "midi": 63,
      "noteNumber": 63,
      "velocity": 0.43,
      "track": "DRUMS",
      "channel": 9,
      "lane": "J"
    },
    {
      "time": 104.826,
      "duration": 0.217,
      "midi": 64,
      "noteNumber": 64,
      "velocity": 0.68,
      "track": "(unnamed)",
      "channel": 2,
      "lane": "J"
    },
    {
      "time": 105,
      "duration": 0.214,
      "midi": 37,
      "noteNumber": 37,
      "velocity": 0.66,
      "track": "DRUMS",
      "channel": 9,
      "lane": "D"
    },
    {
      "time": 105,
      "duration": 0.214,
      "midi": 48,
      "noteNumber": 48,
      "velocity": 0.5,
      "track": "DRUMS",
      "channel": 9,
      "lane": "F"
    },
    {
      "time": 105,
      "duration": 0.214,
      "midi": 51,
      "noteNumber": 51,
      "velocity": 0.58,
      "track": "DRUMS",
      "channel": 9,
      "lane": "F"
    },
    {
      "time": 105.009,
      "duration": 0.259,
      "midi": 65,
      "noteNumber": 65,
      "velocity": 0.84,
      "track": "(unnamed)",
      "channel": 2,
      "lane": "J"
    },
    {
      "time": 105.214,
      "duration": 0.098,
      "midi": 48,
      "noteNumber": 48,
      "velocity": 0.45,
      "track": "(unnamed)",
      "channel": 1,
      "lane": "F"
    },
    {
      "time": 105.214,
      "duration": 0.214,
      "midi": 35,
      "noteNumber": 35,
      "velocity": 0.5,
      "track": "DRUMS",
      "channel": 9,
      "lane": "D"
    },
    {
      "time": 105.214,
      "duration": 0.214,
      "midi": 51,
      "noteNumber": 51,
      "velocity": 0.58,
      "track": "DRUMS",
      "channel": 9,
      "lane": "F"
    },
    {
      "time": 105.214,
      "duration": 0.214,
      "midi": 62,
      "noteNumber": 62,
      "velocity": 0.5,
      "track": "DRUMS",
      "channel": 9,
      "lane": "J"
    },
    {
      "time": 105.223,
      "duration": 0.237,
      "midi": 69,
      "noteNumber": 69,
      "velocity": 0.91,
      "track": "(unnamed)",
      "channel": 2,
      "lane": "K"
    },
    {
      "time": 105.428,
      "duration": 0.562,
      "midi": 48,
      "noteNumber": 48,
      "velocity": 0.61,
      "track": "(unnamed)",
      "channel": 1,
      "lane": "F"
    },
    {
      "time": 105.428,
      "duration": 0.214,
      "midi": 35,
      "noteNumber": 35,
      "velocity": 0.5,
      "track": "DRUMS",
      "channel": 9,
      "lane": "D"
    },
    {
      "time": 105.428,
      "duration": 0.214,
      "midi": 51,
      "noteNumber": 51,
      "velocity": 0.58,
      "track": "DRUMS",
      "channel": 9,
      "lane": "F"
    },
    {
      "time": 105.428,
      "duration": 0.214,
      "midi": 63,
      "noteNumber": 63,
      "velocity": 0.5,
      "track": "DRUMS",
      "channel": 9,
      "lane": "J"
    },
    {
      "time": 105.444,
      "duration": 0.415,
      "midi": 76,
      "noteNumber": 76,
      "velocity": 0.79,
      "track": "(unnamed)",
      "channel": 2,
      "lane": "K"
    },
    {
      "time": 105.643,
      "duration": 0.214,
      "midi": 37,
      "noteNumber": 37,
      "velocity": 0.74,
      "track": "DRUMS",
      "channel": 9,
      "lane": "D"
    },
    {
      "time": 105.643,
      "duration": 0.214,
      "midi": 51,
      "noteNumber": 51,
      "velocity": 0.58,
      "track": "DRUMS",
      "channel": 9,
      "lane": "F"
    },
    {
      "time": 105.857,
      "duration": 0.208,
      "midi": 72,
      "noteNumber": 72,
      "velocity": 0.67,
      "track": "(unnamed)",
      "channel": 2,
      "lane": "K"
    },
    {
      "time": 105.857,
      "duration": 0.214,
      "midi": 51,
      "noteNumber": 51,
      "velocity": 0.58,
      "track": "DRUMS",
      "channel": 9,
      "lane": "F"
    },
    {
      "time": 105.857,
      "duration": 0.214,
      "midi": 63,
      "noteNumber": 63,
      "velocity": 0.43,
      "track": "DRUMS",
      "channel": 9,
      "lane": "J"
    },
    {
      "time": 106.071,
      "duration": 0.089,
      "midi": 41,
      "noteNumber": 41,
      "velocity": 0.58,
      "track": "(unnamed)",
      "channel": 1,
      "lane": "D"
    },
    {
      "time": 106.071,
      "duration": 0.214,
      "midi": 35,
      "noteNumber": 35,
      "velocity": 0.58,
      "track": "DRUMS",
      "channel": 9,
      "lane": "D"
    },
    {
      "time": 106.071,
      "duration": 0.214,
      "midi": 51,
      "noteNumber": 51,
      "velocity": 0.5,
      "track": "DRUMS",
      "channel": 9,
      "lane": "F"
    },
    {
      "time": 106.078,
      "duration": 0.618,
      "midi": 74,
      "noteNumber": 74,
      "velocity": 0.91,
      "track": "(unnamed)",
      "channel": 2,
      "lane": "K"
    },
    {
      "time": 106.285,
      "duration": 0.496,
      "midi": 35,
      "noteNumber": 35,
      "velocity": 0.55,
      "track": "(unnamed)",
      "channel": 1,
      "lane": "D"
    },
    {
      "time": 106.285,
      "duration": 0.214,
      "midi": 35,
      "noteNumber": 35,
      "velocity": 0.5,
      "track": "DRUMS",
      "channel": 9,
      "lane": "D"
    },
    {
      "time": 106.285,
      "duration": 0.214,
      "midi": 37,
      "noteNumber": 37,
      "velocity": 0.66,
      "track": "DRUMS",
      "channel": 9,
      "lane": "D"
    },
    {
      "time": 106.285,
      "duration": 0.214,
      "midi": 42,
      "noteNumber": 42,
      "velocity": 0.69,
      "track": "DRUMS",
      "channel": 9,
      "lane": "D"
    },
    {
      "time": 106.285,
      "duration": 0.214,
      "midi": 62,
      "noteNumber": 62,
      "velocity": 0.5,
      "track": "DRUMS",
      "channel": 9,
      "lane": "J"
    },
    {
      "time": 106.5,
      "duration": 0.214,
      "midi": 51,
      "noteNumber": 51,
      "velocity": 0.5,
      "track": "DRUMS",
      "channel": 9,
      "lane": "F"
    },
    {
      "time": 106.5,
      "duration": 0.214,
      "midi": 62,
      "noteNumber": 62,
      "velocity": 0.43,
      "track": "DRUMS",
      "channel": 9,
      "lane": "J"
    },
    {
      "time": 106.714,
      "duration": 0.214,
      "midi": 48,
      "noteNumber": 48,
      "velocity": 0.5,
      "track": "DRUMS",
      "channel": 9,
      "lane": "F"
    },
    {
      "time": 106.714,
      "duration": 0.214,
      "midi": 51,
      "noteNumber": 51,
      "velocity": 0.5,
      "track": "DRUMS",
      "channel": 9,
      "lane": "F"
    },
    {
      "time": 106.714,
      "duration": 0.214,
      "midi": 63,
      "noteNumber": 63,
      "velocity": 0.43,
      "track": "DRUMS",
      "channel": 9,
      "lane": "J"
    },
    {
      "time": 106.928,
      "duration": 0.107,
      "midi": 40,
      "noteNumber": 40,
      "velocity": 0.54,
      "track": "(unnamed)",
      "channel": 1,
      "lane": "D"
    },
    {
      "time": 106.928,
      "duration": 0.214,
      "midi": 35,
      "noteNumber": 35,
      "velocity": 0.43,
      "track": "DRUMS",
      "channel": 9,
      "lane": "D"
    },
    {
      "time": 106.928,
      "duration": 0.214,
      "midi": 37,
      "noteNumber": 37,
      "velocity": 0.74,
      "track": "DRUMS",
      "channel": 9,
      "lane": "D"
    },
    {
      "time": 106.928,
      "duration": 0.214,
      "midi": 51,
      "noteNumber": 51,
      "velocity": 0.5,
      "track": "DRUMS",
      "channel": 9,
      "lane": "F"
    },
    {
      "time": 106.928,
      "duration": 0.214,
      "midi": 63,
      "noteNumber": 63,
      "velocity": 0.43,
      "track": "DRUMS",
      "channel": 9,
      "lane": "J"
    },
    {
      "time": 106.939,
      "duration": 0.449,
      "midi": 69,
      "noteNumber": 69,
      "velocity": 0.66,
      "track": "(unnamed)",
      "channel": 2,
      "lane": "K"
    },
    {
      "time": 106.946,
      "duration": 0.705,
      "midi": 65,
      "noteNumber": 65,
      "velocity": 0.63,
      "track": "(unnamed)",
      "channel": 2,
      "lane": "J"
    },
    {
      "time": 106.955,
      "duration": 0.676,
      "midi": 59,
      "noteNumber": 59,
      "velocity": 0.84,
      "track": "(unnamed)",
      "channel": 2,
      "lane": "J"
    },
    {
      "time": 107.143,
      "duration": 0.596,
      "midi": 41,
      "noteNumber": 41,
      "velocity": 0.66,
      "track": "(unnamed)",
      "channel": 1,
      "lane": "D"
    },
    {
      "time": 107.143,
      "duration": 0.214,
      "midi": 35,
      "noteNumber": 35,
      "velocity": 0.5,
      "track": "DRUMS",
      "channel": 9,
      "lane": "D"
    },
    {
      "time": 107.143,
      "duration": 0.214,
      "midi": 51,
      "noteNumber": 51,
      "velocity": 0.58,
      "track": "DRUMS",
      "channel": 9,
      "lane": "F"
    },
    {
      "time": 107.143,
      "duration": 0.214,
      "midi": 62,
      "noteNumber": 62,
      "velocity": 0.5,
      "track": "DRUMS",
      "channel": 9,
      "lane": "J"
    },
    {
      "time": 107.147,
      "duration": 0.511,
      "midi": 74,
      "noteNumber": 74,
      "velocity": 0.8,
      "track": "(unnamed)",
      "channel": 2,
      "lane": "K"
    },
    {
      "time": 107.357,
      "duration": 0.214,
      "midi": 51,
      "noteNumber": 51,
      "velocity": 0.5,
      "track": "DRUMS",
      "channel": 9,
      "lane": "F"
    },
    {
      "time": 107.357,
      "duration": 0.214,
      "midi": 63,
      "noteNumber": 63,
      "velocity": 0.43,
      "track": "DRUMS",
      "channel": 9,
      "lane": "J"
    },
    {
      "time": 107.388,
      "duration": 0.205,
      "midi": 69,
      "noteNumber": 69,
      "velocity": 0.8,
      "track": "(unnamed)",
      "channel": 2,
      "lane": "K"
    },
    {
      "time": 107.571,
      "duration": 0.214,
      "midi": 37,
      "noteNumber": 37,
      "velocity": 0.66,
      "track": "DRUMS",
      "channel": 9,
      "lane": "D"
    },
    {
      "time": 107.571,
      "duration": 0.214,
      "midi": 51,
      "noteNumber": 51,
      "velocity": 0.58,
      "track": "DRUMS",
      "channel": 9,
      "lane": "F"
    },
    {
      "time": 107.571,
      "duration": 0.214,
      "midi": 62,
      "noteNumber": 62,
      "velocity": 0.43,
      "track": "DRUMS",
      "channel": 9,
      "lane": "J"
    },
    {
      "time": 107.785,
      "duration": 0.098,
      "midi": 35,
      "noteNumber": 35,
      "velocity": 0.46,
      "track": "(unnamed)",
      "channel": 1,
      "lane": "D"
    },
    {
      "time": 107.785,
      "duration": 0.214,
      "midi": 35,
      "noteNumber": 35,
      "velocity": 0.43,
      "track": "DRUMS",
      "channel": 9,
      "lane": "D"
    },
    {
      "time": 107.785,
      "duration": 0.214,
      "midi": 51,
      "noteNumber": 51,
      "velocity": 0.66,
      "track": "DRUMS",
      "channel": 9,
      "lane": "F"
    },
    {
      "time": 107.812,
      "duration": 0.413,
      "midi": 79,
      "noteNumber": 79,
      "velocity": 0.8,
      "track": "(unnamed)",
      "channel": 2,
      "lane": "K"
    },
    {
      "time": 107.821,
      "duration": 0.411,
      "midi": 64,
      "noteNumber": 64,
      "velocity": 0.8,
      "track": "(unnamed)",
      "channel": 2,
      "lane": "J"
    },
    {
      "time": 107.826,
      "duration": 0.359,
      "midi": 68,
      "noteNumber": 68,
      "velocity": 0.58,
      "track": "(unnamed)",
      "channel": 2,
      "lane": "K"
    },
    {
      "time": 107.83,
      "duration": 0.413,
      "midi": 72,
      "noteNumber": 72,
      "velocity": 0.57,
      "track": "(unnamed)",
      "channel": 2,
      "lane": "K"
    },
    {
      "time": 108,
      "duration": 0.598,
      "midi": 40,
      "noteNumber": 40,
      "velocity": 0.51,
      "track": "(unnamed)",
      "channel": 1,
      "lane": "D"
    },
    {
      "time": 108,
      "duration": 0.214,
      "midi": 35,
      "noteNumber": 35,
      "velocity": 0.5,
      "track": "DRUMS",
      "channel": 9,
      "lane": "D"
    },
    {
      "time": 108,
      "duration": 0.214,
      "midi": 51,
      "noteNumber": 51,
      "velocity": 0.58,
      "track": "DRUMS",
      "channel": 9,
      "lane": "F"
    },
    {
      "time": 108,
      "duration": 0.214,
      "midi": 62,
      "noteNumber": 62,
      "velocity": 0.5,
      "track": "DRUMS",
      "channel": 9,
      "lane": "J"
    },
    {
      "time": 108.214,
      "duration": 0.214,
      "midi": 51,
      "noteNumber": 51,
      "velocity": 0.5,
      "track": "DRUMS",
      "channel": 9,
      "lane": "F"
    },
    {
      "time": 108.225,
      "duration": 0.359,
      "midi": 79,
      "noteNumber": 79,
      "velocity": 0.95,
      "track": "(unnamed)",
      "channel": 2,
      "lane": "K"
    },
    {
      "time": 108.232,
      "duration": 0.23,
      "midi": 64,
      "noteNumber": 64,
      "velocity": 0.86,
      "track": "(unnamed)",
      "channel": 2,
      "lane": "J"
    },
    {
      "time": 108.238,
      "duration": 0.174,
      "midi": 68,
      "noteNumber": 68,
      "velocity": 0.65,
      "track": "(unnamed)",
      "channel": 2,
      "lane": "K"
    },
    {
      "time": 108.243,
      "duration": 0.205,
      "midi": 72,
      "noteNumber": 72,
      "velocity": 0.72,
      "track": "(unnamed)",
      "channel": 2,
      "lane": "K"
    },
    {
      "time": 108.428,
      "duration": 0.214,
      "midi": 37,
      "noteNumber": 37,
      "velocity": 0.66,
      "track": "DRUMS",
      "channel": 9,
      "lane": "D"
    },
    {
      "time": 108.428,
      "duration": 0.214,
      "midi": 51,
      "noteNumber": 51,
      "velocity": 0.58,
      "track": "DRUMS",
      "channel": 9,
      "lane": "F"
    },
    {
      "time": 108.428,
      "duration": 0.214,
      "midi": 62,
      "noteNumber": 62,
      "velocity": 0.43,
      "track": "DRUMS",
      "channel": 9,
      "lane": "J"
    },
    {
      "time": 108.642,
      "duration": 0.103,
      "midi": 46,
      "noteNumber": 46,
      "velocity": 0.54,
      "track": "(unnamed)",
      "channel": 1,
      "lane": "F"
    },
    {
      "time": 108.642,
      "duration": 0.214,
      "midi": 35,
      "noteNumber": 35,
      "velocity": 0.5,
      "track": "DRUMS",
      "channel": 9,
      "lane": "D"
    },
    {
      "time": 108.642,
      "duration": 0.214,
      "midi": 51,
      "noteNumber": 51,
      "velocity": 0.58,
      "track": "DRUMS",
      "channel": 9,
      "lane": "F"
    },
    {
      "time": 108.642,
      "duration": 0.214,
      "midi": 63,
      "noteNumber": 63,
      "velocity": 0.5,
      "track": "DRUMS",
      "channel": 9,
      "lane": "J"
    },
    {
      "time": 108.66,
      "duration": 0.21,
      "midi": 76,
      "noteNumber": 76,
      "velocity": 0.72,
      "track": "(unnamed)",
      "channel": 2,
      "lane": "K"
    },
    {
      "time": 108.669,
      "duration": 0.21,
      "midi": 62,
      "noteNumber": 62,
      "velocity": 0.8,
      "track": "(unnamed)",
      "channel": 2,
      "lane": "J"
    },
    {
      "time": 108.674,
      "duration": 0.21,
      "midi": 68,
      "noteNumber": 68,
      "velocity": 0.56,
      "track": "(unnamed)",
      "channel": 2,
      "lane": "K"
    },
    {
      "time": 108.857,
      "duration": 0.603,
      "midi": 47,
      "noteNumber": 47,
      "velocity": 0.58,
      "track": "(unnamed)",
      "channel": 1,
      "lane": "F"
    },
    {
      "time": 108.857,
      "duration": 0.214,
      "midi": 35,
      "noteNumber": 35,
      "velocity": 0.5,
      "track": "DRUMS",
      "channel": 9,
      "lane": "D"
    },
    {
      "time": 108.857,
      "duration": 0.214,
      "midi": 51,
      "noteNumber": 51,
      "velocity": 0.58,
      "track": "DRUMS",
      "channel": 9,
      "lane": "F"
    },
    {
      "time": 108.87,
      "duration": 0.232,
      "midi": 76,
      "noteNumber": 76,
      "velocity": 0.83,
      "track": "(unnamed)",
      "channel": 2,
      "lane": "K"
    },
    {
      "time": 108.879,
      "duration": 0.23,
      "midi": 62,
      "noteNumber": 62,
      "velocity": 0.66,
      "track": "(unnamed)",
      "channel": 2,
      "lane": "J"
    },
    {
      "time": 108.884,
      "duration": 0.212,
      "midi": 68,
      "noteNumber": 68,
      "velocity": 0.57,
      "track": "(unnamed)",
      "channel": 2,
      "lane": "K"
    },
    {
      "time": 109.071,
      "duration": 0.214,
      "midi": 37,
      "noteNumber": 37,
      "velocity": 0.74,
      "track": "DRUMS",
      "channel": 9,
      "lane": "D"
    },
    {
      "time": 109.071,
      "duration": 0.214,
      "midi": 51,
      "noteNumber": 51,
      "velocity": 0.58,
      "track": "DRUMS",
      "channel": 9,
      "lane": "F"
    },
    {
      "time": 109.096,
      "duration": 0.522,
      "midi": 68,
      "noteNumber": 68,
      "velocity": 0.68,
      "track": "(unnamed)",
      "channel": 2,
      "lane": "K"
    },
    {
      "time": 109.102,
      "duration": 0.475,
      "midi": 76,
      "noteNumber": 76,
      "velocity": 0.92,
      "track": "(unnamed)",
      "channel": 2,
      "lane": "K"
    },
    {
      "time": 109.109,
      "duration": 0.475,
      "midi": 62,
      "noteNumber": 62,
      "velocity": 0.65,
      "track": "(unnamed)",
      "channel": 2,
      "lane": "J"
    },
    {
      "time": 109.285,
      "duration": 0.214,
      "midi": 51,
      "noteNumber": 51,
      "velocity": 0.58,
      "track": "DRUMS",
      "channel": 9,
      "lane": "F"
    },
    {
      "time": 109.5,
      "duration": 0.092,
      "midi": 40,
      "noteNumber": 40,
      "velocity": 0.56,
      "track": "(unnamed)",
      "channel": 1,
      "lane": "D"
    },
    {
      "time": 109.5,
      "duration": 0.214,
      "midi": 35,
      "noteNumber": 35,
      "velocity": 0.58,
      "track": "DRUMS",
      "channel": 9,
      "lane": "D"
    },
    {
      "time": 109.5,
      "duration": 0.214,
      "midi": 51,
      "noteNumber": 51,
      "velocity": 0.5,
      "track": "DRUMS",
      "channel": 9,
      "lane": "F"
    },
    {
      "time": 109.506,
      "duration": 0.212,
      "midi": 75,
      "noteNumber": 75,
      "velocity": 0.92,
      "track": "(unnamed)",
      "channel": 2,
      "lane": "K"
    },
    {
      "time": 109.714,
      "duration": 0.446,
      "midi": 33,
      "noteNumber": 33,
      "velocity": 0.59,
      "track": "(unnamed)",
      "channel": 1,
      "lane": "D"
    },
    {
      "time": 109.714,
      "duration": 0.214,
      "midi": 35,
      "noteNumber": 35,
      "velocity": 0.5,
      "track": "DRUMS",
      "channel": 9,
      "lane": "D"
    },
    {
      "time": 109.714,
      "duration": 0.214,
      "midi": 37,
      "noteNumber": 37,
      "velocity": 0.66,
      "track": "DRUMS",
      "channel": 9,
      "lane": "D"
    },
    {
      "time": 109.714,
      "duration": 0.214,
      "midi": 42,
      "noteNumber": 42,
      "velocity": 0.69,
      "track": "DRUMS",
      "channel": 9,
      "lane": "D"
    },
    {
      "time": 109.727,
      "duration": 0.263,
      "midi": 71,
      "noteNumber": 71,
      "velocity": 0.6,
      "track": "(unnamed)",
      "channel": 2,
      "lane": "K"
    },
    {
      "time": 109.732,
      "duration": 0.214,
      "midi": 74,
      "noteNumber": 74,
      "velocity": 0.65,
      "track": "(unnamed)",
      "channel": 2,
      "lane": "K"
    },
    {
      "time": 109.743,
      "duration": 0.21,
      "midi": 60,
      "noteNumber": 60,
      "velocity": 0.81,
      "track": "(unnamed)",
      "channel": 2,
      "lane": "J"
    },
    {
      "time": 109.745,
      "duration": 0.214,
      "midi": 67,
      "noteNumber": 67,
      "velocity": 0.68,
      "track": "(unnamed)",
      "channel": 2,
      "lane": "J"
    },
    {
      "time": 109.928,
      "duration": 0.214,
      "midi": 51,
      "noteNumber": 51,
      "velocity": 0.5,
      "track": "DRUMS",
      "channel": 9,
      "lane": "F"
    },
    {
      "time": 109.928,
      "duration": 0.214,
      "midi": 63,
      "noteNumber": 63,
      "velocity": 0.43,
      "track": "DRUMS",
      "channel": 9,
      "lane": "J"
    },
    {
      "time": 109.946,
      "duration": 0.214,
      "midi": 74,
      "noteNumber": 74,
      "velocity": 0.69,
      "track": "(unnamed)",
      "channel": 2,
      "lane": "K"
    },
    {
      "time": 109.953,
      "duration": 0.214,
      "midi": 60,
      "noteNumber": 60,
      "velocity": 0.69,
      "track": "(unnamed)",
      "channel": 2,
      "lane": "J"
    },
    {
      "time": 109.959,
      "duration": 0.192,
      "midi": 67,
      "noteNumber": 67,
      "velocity": 0.64,
      "track": "(unnamed)",
      "channel": 2,
      "lane": "J"
    },
    {
      "time": 110.142,
      "duration": 0.214,
      "midi": 48,
      "noteNumber": 48,
      "velocity": 0.5,
      "track": "DRUMS",
      "channel": 9,
      "lane": "F"
    },
    {
      "time": 110.142,
      "duration": 0.214,
      "midi": 51,
      "noteNumber": 51,
      "velocity": 0.5,
      "track": "DRUMS",
      "channel": 9,
      "lane": "F"
    },
    {
      "time": 110.142,
      "duration": 0.214,
      "midi": 62,
      "noteNumber": 62,
      "velocity": 0.43,
      "track": "DRUMS",
      "channel": 9,
      "lane": "J"
    },
    {
      "time": 110.151,
      "duration": 0.241,
      "midi": 67,
      "noteNumber": 67,
      "velocity": 0.61,
      "track": "(unnamed)",
      "channel": 2,
      "lane": "J"
    },
    {
      "time": 110.156,
      "duration": 0.221,
      "midi": 71,
      "noteNumber": 71,
      "velocity": 0.6,
      "track": "(unnamed)",
      "channel": 2,
      "lane": "K"
    },
    {
      "time": 110.16,
      "duration": 0.221,
      "midi": 74,
      "noteNumber": 74,
      "velocity": 0.66,
      "track": "(unnamed)",
      "channel": 2,
      "lane": "K"
    },
    {
      "time": 110.167,
      "duration": 0.223,
      "midi": 60,
      "noteNumber": 60,
      "velocity": 0.71,
      "track": "(unnamed)",
      "channel": 2,
      "lane": "J"
    },
    {
      "time": 110.357,
      "duration": 0.109,
      "midi": 40,
      "noteNumber": 40,
      "velocity": 0.43,
      "track": "(unnamed)",
      "channel": 1,
      "lane": "D"
    },
    {
      "time": 110.357,
      "duration": 0.214,
      "midi": 35,
      "noteNumber": 35,
      "velocity": 0.43,
      "track": "DRUMS",
      "channel": 9,
      "lane": "D"
    },
    {
      "time": 110.357,
      "duration": 0.214,
      "midi": 37,
      "noteNumber": 37,
      "velocity": 0.74,
      "track": "DRUMS",
      "channel": 9,
      "lane": "D"
    },
    {
      "time": 110.357,
      "duration": 0.214,
      "midi": 51,
      "noteNumber": 51,
      "velocity": 0.5,
      "track": "DRUMS",
      "channel": 9,
      "lane": "F"
    },
    {
      "time": 110.357,
      "duration": 0.214,
      "midi": 63,
      "noteNumber": 63,
      "velocity": 0.43,
      "track": "DRUMS",
      "channel": 9,
      "lane": "J"
    },
    {
      "time": 110.377,
      "duration": 0.422,
      "midi": 71,
      "noteNumber": 71,
      "velocity": 0.61,
      "track": "(unnamed)",
      "channel": 2,
      "lane": "K"
    },
    {
      "time": 110.381,
      "duration": 0.424,
      "midi": 74,
      "noteNumber": 74,
      "velocity": 0.76,
      "track": "(unnamed)",
      "channel": 2,
      "lane": "K"
    },
    {
      "time": 110.39,
      "duration": 0.422,
      "midi": 60,
      "noteNumber": 60,
      "velocity": 0.65,
      "track": "(unnamed)",
      "channel": 2,
      "lane": "J"
    },
    {
      "time": 110.392,
      "duration": 0.426,
      "midi": 67,
      "noteNumber": 67,
      "velocity": 0.69,
      "track": "(unnamed)",
      "channel": 2,
      "lane": "J"
    },
    {
      "time": 110.571,
      "duration": 0.609,
      "midi": 40,
      "noteNumber": 40,
      "velocity": 0.52,
      "track": "(unnamed)",
      "channel": 1,
      "lane": "D"
    },
    {
      "time": 110.571,
      "duration": 0.214,
      "midi": 35,
      "noteNumber": 35,
      "velocity": 0.5,
      "track": "DRUMS",
      "channel": 9,
      "lane": "D"
    },
    {
      "time": 110.571,
      "duration": 0.214,
      "midi": 51,
      "noteNumber": 51,
      "velocity": 0.58,
      "track": "DRUMS",
      "channel": 9,
      "lane": "F"
    },
    {
      "time": 110.785,
      "duration": 0.214,
      "midi": 51,
      "noteNumber": 51,
      "velocity": 0.5,
      "track": "DRUMS",
      "channel": 9,
      "lane": "F"
    },
    {
      "time": 110.785,
      "duration": 0.214,
      "midi": 63,
      "noteNumber": 63,
      "velocity": 0.43,
      "track": "DRUMS",
      "channel": 9,
      "lane": "J"
    },
    {
      "time": 110.799,
      "duration": 0.696,
      "midi": 71,
      "noteNumber": 71,
      "velocity": 0.68,
      "track": "(unnamed)",
      "channel": 2,
      "lane": "K"
    },
    {
      "time": 110.805,
      "duration": 0.683,
      "midi": 74,
      "noteNumber": 74,
      "velocity": 0.82,
      "track": "(unnamed)",
      "channel": 2,
      "lane": "K"
    },
    {
      "time": 110.812,
      "duration": 0.652,
      "midi": 60,
      "noteNumber": 60,
      "velocity": 0.81,
      "track": "(unnamed)",
      "channel": 2,
      "lane": "J"
    },
    {
      "time": 110.819,
      "duration": 0.647,
      "midi": 67,
      "noteNumber": 67,
      "velocity": 0.78,
      "track": "(unnamed)",
      "channel": 2,
      "lane": "J"
    },
    {
      "time": 111,
      "duration": 0.214,
      "midi": 37,
      "noteNumber": 37,
      "velocity": 0.66,
      "track": "DRUMS",
      "channel": 9,
      "lane": "D"
    },
    {
      "time": 111,
      "duration": 0.214,
      "midi": 51,
      "noteNumber": 51,
      "velocity": 0.58,
      "track": "DRUMS",
      "channel": 9,
      "lane": "F"
    },
    {
      "time": 111.214,
      "duration": 0.121,
      "midi": 33,
      "noteNumber": 33,
      "velocity": 0.48,
      "track": "(unnamed)",
      "channel": 1,
      "lane": "D"
    },
    {
      "time": 111.214,
      "duration": 0.214,
      "midi": 35,
      "noteNumber": 35,
      "velocity": 0.43,
      "track": "DRUMS",
      "channel": 9,
      "lane": "D"
    },
    {
      "time": 111.214,
      "duration": 0.214,
      "midi": 51,
      "noteNumber": 51,
      "velocity": 0.66,
      "track": "DRUMS",
      "channel": 9,
      "lane": "F"
    },
    {
      "time": 111.428,
      "duration": 0.473,
      "midi": 35,
      "noteNumber": 35,
      "velocity": 0.55,
      "track": "(unnamed)",
      "channel": 1,
      "lane": "D"
    },
    {
      "time": 111.428,
      "duration": 0.214,
      "midi": 42,
      "noteNumber": 42,
      "velocity": 0.5,
      "track": "DRUMS",
      "channel": 9,
      "lane": "D"
    },
    {
      "time": 111.428,
      "duration": 0.214,
      "midi": 62,
      "noteNumber": 62,
      "velocity": 0.66,
      "track": "DRUMS",
      "channel": 9,
      "lane": "J"
    },
    {
      "time": 111.642,
      "duration": 0.214,
      "midi": 42,
      "noteNumber": 42,
      "velocity": 0.43,
      "track": "DRUMS",
      "channel": 9,
      "lane": "D"
    },
    {
      "time": 111.642,
      "duration": 0.214,
      "midi": 48,
      "noteNumber": 48,
      "velocity": 0.43,
      "track": "DRUMS",
      "channel": 9,
      "lane": "F"
    },
    {
      "time": 111.642,
      "duration": 0.214,
      "midi": 63,
      "noteNumber": 63,
      "velocity": 0.43,
      "track": "DRUMS",
      "channel": 9,
      "lane": "J"
    },
    {
      "time": 111.645,
      "duration": 0.08,
      "midi": 71,
      "noteNumber": 71,
      "velocity": 0.87,
      "track": "(unnamed)",
      "channel": 2,
      "lane": "K"
    },
    {
      "time": 111.651,
      "duration": 0.275,
      "midi": 67,
      "noteNumber": 67,
      "velocity": 0.59,
      "track": "(unnamed)",
      "channel": 2,
      "lane": "J"
    },
    {
      "time": 111.656,
      "duration": 0.25,
      "midi": 72,
      "noteNumber": 72,
      "velocity": 0.87,
      "track": "(unnamed)",
      "channel": 2,
      "lane": "K"
    },
    {
      "time": 111.663,
      "duration": 0.194,
      "midi": 57,
      "noteNumber": 57,
      "velocity": 0.69,
      "track": "(unnamed)",
      "channel": 2,
      "lane": "J"
    },
    {
      "time": 111.665,
      "duration": 0.27,
      "midi": 63,
      "noteNumber": 63,
      "velocity": 0.62,
      "track": "(unnamed)",
      "channel": 2,
      "lane": "J"
    },
    {
      "time": 111.857,
      "duration": 0.001,
      "midi": 37,
      "noteNumber": 37,
      "velocity": 0.66,
      "track": "DRUMS",
      "channel": 9,
      "lane": "D"
    },
    {
      "time": 111.857,
      "duration": 0.214,
      "midi": 37,
      "noteNumber": 37,
      "velocity": 0.43,
      "track": "DRUMS",
      "channel": 9,
      "lane": "D"
    },
    {
      "time": 111.857,
      "duration": 0.214,
      "midi": 42,
      "noteNumber": 42,
      "velocity": 0.5,
      "track": "DRUMS",
      "channel": 9,
      "lane": "D"
    },
    {
      "time": 112.071,
      "duration": 0.109,
      "midi": 35,
      "noteNumber": 35,
      "velocity": 0.5,
      "track": "(unnamed)",
      "channel": 1,
      "lane": "D"
    },
    {
      "time": 112.071,
      "duration": 0.214,
      "midi": 37,
      "noteNumber": 37,
      "velocity": 0.43,
      "track": "DRUMS",
      "channel": 9,
      "lane": "D"
    },
    {
      "time": 112.071,
      "duration": 0.214,
      "midi": 42,
      "noteNumber": 42,
      "velocity": 0.5,
      "track": "DRUMS",
      "channel": 9,
      "lane": "D"
    },
    {
      "time": 112.071,
      "duration": 0.214,
      "midi": 45,
      "noteNumber": 45,
      "velocity": 0.43,
      "track": "DRUMS",
      "channel": 9,
      "lane": "F"
    },
    {
      "time": 112.283,
      "duration": 0.353,
      "midi": 72,
      "noteNumber": 72,
      "velocity": 0.8,
      "track": "(unnamed)",
      "channel": 2,
      "lane": "K"
    },
    {
      "time": 112.285,
      "duration": 0.616,
      "midi": 40,
      "noteNumber": 40,
      "velocity": 0.64,
      "track": "(unnamed)",
      "channel": 1,
      "lane": "D"
    },
    {
      "time": 112.285,
      "duration": 0.214,
      "midi": 37,
      "noteNumber": 37,
      "velocity": 0.5,
      "track": "DRUMS",
      "channel": 9,
      "lane": "D"
    },
    {
      "time": 112.285,
      "duration": 0.214,
      "midi": 42,
      "noteNumber": 42,
      "velocity": 0.5,
      "track": "DRUMS",
      "channel": 9,
      "lane": "D"
    },
    {
      "time": 112.285,
      "duration": 0.214,
      "midi": 48,
      "noteNumber": 48,
      "velocity": 0.5,
      "track": "DRUMS",
      "channel": 9,
      "lane": "F"
    },
    {
      "time": 112.29,
      "duration": 0.261,
      "midi": 65,
      "noteNumber": 65,
      "velocity": 0.62,
      "track": "(unnamed)",
      "channel": 2,
      "lane": "J"
    },
    {
      "time": 112.297,
      "duration": 0.344,
      "midi": 62,
      "noteNumber": 62,
      "velocity": 0.6,
      "track": "(unnamed)",
      "channel": 2,
      "lane": "J"
    },
    {
      "time": 112.305,
      "duration": 0.288,
      "midi": 56,
      "noteNumber": 56,
      "velocity": 0.62,
      "track": "(unnamed)",
      "channel": 2,
      "lane": "F"
    },
    {
      "time": 112.5,
      "duration": 0.214,
      "midi": 37,
      "noteNumber": 37,
      "velocity": 0.43,
      "track": "DRUMS",
      "channel": 9,
      "lane": "D"
    },
    {
      "time": 112.5,
      "duration": 0.214,
      "midi": 42,
      "noteNumber": 42,
      "velocity": 0.5,
      "track": "DRUMS",
      "channel": 9,
      "lane": "D"
    },
    {
      "time": 112.5,
      "duration": 0.214,
      "midi": 48,
      "noteNumber": 48,
      "velocity": 0.5,
      "track": "DRUMS",
      "channel": 9,
      "lane": "F"
    },
    {
      "time": 112.714,
      "duration": 0.214,
      "midi": 37,
      "noteNumber": 37,
      "velocity": 0.43,
      "track": "DRUMS",
      "channel": 9,
      "lane": "D"
    },
    {
      "time": 112.714,
      "duration": 0.214,
      "midi": 42,
      "noteNumber": 42,
      "velocity": 0.5,
      "track": "DRUMS",
      "channel": 9,
      "lane": "D"
    },
    {
      "time": 112.714,
      "duration": 0.214,
      "midi": 48,
      "noteNumber": 48,
      "velocity": 0.54,
      "track": "DRUMS",
      "channel": 9,
      "lane": "F"
    },
    {
      "time": 112.732,
      "duration": 0.225,
      "midi": 65,
      "noteNumber": 65,
      "velocity": 0.61,
      "track": "(unnamed)",
      "channel": 2,
      "lane": "J"
    },
    {
      "time": 112.736,
      "duration": 0.275,
      "midi": 72,
      "noteNumber": 72,
      "velocity": 0.72,
      "track": "(unnamed)",
      "channel": 2,
      "lane": "K"
    },
    {
      "time": 112.743,
      "duration": 0.212,
      "midi": 56,
      "noteNumber": 56,
      "velocity": 0.67,
      "track": "(unnamed)",
      "channel": 2,
      "lane": "F"
    },
    {
      "time": 112.747,
      "duration": 0.223,
      "midi": 62,
      "noteNumber": 62,
      "velocity": 0.7,
      "track": "(unnamed)",
      "channel": 2,
      "lane": "J"
    },
    {
      "time": 112.928,
      "duration": 0.103,
      "midi": 40,
      "noteNumber": 40,
      "velocity": 0.49,
      "track": "(unnamed)",
      "channel": 1,
      "lane": "D"
    },
    {
      "time": 112.928,
      "duration": 0.214,
      "midi": 37,
      "noteNumber": 37,
      "velocity": 0.43,
      "track": "DRUMS",
      "channel": 9,
      "lane": "D"
    },
    {
      "time": 112.928,
      "duration": 0.214,
      "midi": 42,
      "noteNumber": 42,
      "velocity": 0.5,
      "track": "DRUMS",
      "channel": 9,
      "lane": "D"
    },
    {
      "time": 112.928,
      "duration": 0.214,
      "midi": 45,
      "noteNumber": 45,
      "velocity": 0.5,
      "track": "DRUMS",
      "channel": 9,
      "lane": "F"
    },
    {
      "time": 113.142,
      "duration": 0.507,
      "midi": 33,
      "noteNumber": 33,
      "velocity": 0.6,
      "track": "(unnamed)",
      "channel": 1,
      "lane": "D"
    },
    {
      "time": 113.142,
      "duration": 0.214,
      "midi": 35,
      "noteNumber": 35,
      "velocity": 0.5,
      "track": "DRUMS",
      "channel": 9,
      "lane": "D"
    },
    {
      "time": 113.142,
      "duration": 0.214,
      "midi": 37,
      "noteNumber": 37,
      "velocity": 0.66,
      "track": "DRUMS",
      "channel": 9,
      "lane": "D"
    },
    {
      "time": 113.142,
      "duration": 0.214,
      "midi": 42,
      "noteNumber": 42,
      "velocity": 0.69,
      "track": "DRUMS",
      "channel": 9,
      "lane": "D"
    },
    {
      "time": 113.142,
      "duration": 0.214,
      "midi": 69,
      "noteNumber": 69,
      "velocity": 0.5,
      "track": "DRUMS",
      "channel": 9,
      "lane": "K"
    },
    {
      "time": 113.18,
      "duration": 1.103,
      "midi": 72,
      "noteNumber": 72,
      "velocity": 0.92,
      "track": "(unnamed)",
      "channel": 2,
      "lane": "K"
    },
    {
      "time": 113.357,
      "duration": 0.214,
      "midi": 42,
      "noteNumber": 42,
      "velocity": 0.5,
      "track": "DRUMS",
      "channel": 9,
      "lane": "D"
    },
    {
      "time": 113.357,
      "duration": 0.214,
      "midi": 69,
      "noteNumber": 69,
      "velocity": 0.43,
      "track": "DRUMS",
      "channel": 9,
      "lane": "K"
    },
    {
      "time": 113.401,
      "duration": 0.429,
      "midi": 67,
      "noteNumber": 67,
      "velocity": 0.66,
      "track": "(unnamed)",
      "channel": 2,
      "lane": "J"
    },
    {
      "time": 113.408,
      "duration": 0.426,
      "midi": 57,
      "noteNumber": 57,
      "velocity": 0.75,
      "track": "(unnamed)",
      "channel": 2,
      "lane": "J"
    },
    {
      "time": 113.413,
      "duration": 0.424,
      "midi": 64,
      "noteNumber": 64,
      "velocity": 0.62,
      "track": "(unnamed)",
      "channel": 2,
      "lane": "J"
    },
    {
      "time": 113.571,
      "duration": 0.214,
      "midi": 42,
      "noteNumber": 42,
      "velocity": 0.5,
      "track": "DRUMS",
      "channel": 9,
      "lane": "D"
    },
    {
      "time": 113.571,
      "duration": 0.214,
      "midi": 69,
      "noteNumber": 69,
      "velocity": 0.43,
      "track": "DRUMS",
      "channel": 9,
      "lane": "K"
    },
    {
      "time": 113.785,
      "duration": 0.116,
      "midi": 39,
      "noteNumber": 39,
      "velocity": 0.5,
      "track": "(unnamed)",
      "channel": 1,
      "lane": "D"
    },
    {
      "time": 113.785,
      "duration": 0.214,
      "midi": 35,
      "noteNumber": 35,
      "velocity": 0.43,
      "track": "DRUMS",
      "channel": 9,
      "lane": "D"
    },
    {
      "time": 113.785,
      "duration": 0.214,
      "midi": 37,
      "noteNumber": 37,
      "velocity": 0.74,
      "track": "DRUMS",
      "channel": 9,
      "lane": "D"
    },
    {
      "time": 113.785,
      "duration": 0.214,
      "midi": 42,
      "noteNumber": 42,
      "velocity": 0.5,
      "track": "DRUMS",
      "channel": 9,
      "lane": "D"
    },
    {
      "time": 113.785,
      "duration": 0.214,
      "midi": 69,
      "noteNumber": 69,
      "velocity": 0.43,
      "track": "DRUMS",
      "channel": 9,
      "lane": "K"
    },
    {
      "time": 113.834,
      "duration": 0.366,
      "midi": 57,
      "noteNumber": 57,
      "velocity": 0.65,
      "track": "(unnamed)",
      "channel": 2,
      "lane": "J"
    },
    {
      "time": 113.837,
      "duration": 0.426,
      "midi": 64,
      "noteNumber": 64,
      "velocity": 0.71,
      "track": "(unnamed)",
      "channel": 2,
      "lane": "J"
    },
    {
      "time": 113.843,
      "duration": 0.397,
      "midi": 66,
      "noteNumber": 66,
      "velocity": 0.79,
      "track": "(unnamed)",
      "channel": 2,
      "lane": "J"
    },
    {
      "time": 114,
      "duration": 0.496,
      "midi": 40,
      "noteNumber": 40,
      "velocity": 0.54,
      "track": "(unnamed)",
      "channel": 1,
      "lane": "D"
    },
    {
      "time": 114,
      "duration": 0.214,
      "midi": 35,
      "noteNumber": 35,
      "velocity": 0.5,
      "track": "DRUMS",
      "channel": 9,
      "lane": "D"
    },
    {
      "time": 114,
      "duration": 0.214,
      "midi": 42,
      "noteNumber": 42,
      "velocity": 0.58,
      "track": "DRUMS",
      "channel": 9,
      "lane": "D"
    },
    {
      "time": 114,
      "duration": 0.214,
      "midi": 69,
      "noteNumber": 69,
      "velocity": 0.5,
      "track": "DRUMS",
      "channel": 9,
      "lane": "K"
    },
    {
      "time": 114.214,
      "duration": 0.214,
      "midi": 42,
      "noteNumber": 42,
      "velocity": 0.5,
      "track": "DRUMS",
      "channel": 9,
      "lane": "D"
    },
    {
      "time": 114.214,
      "duration": 0.214,
      "midi": 69,
      "noteNumber": 69,
      "velocity": 0.43,
      "track": "DRUMS",
      "channel": 9,
      "lane": "K"
    },
    {
      "time": 114.263,
      "duration": 0.286,
      "midi": 71,
      "noteNumber": 71,
      "velocity": 0.87,
      "track": "(unnamed)",
      "channel": 2,
      "lane": "K"
    },
    {
      "time": 114.428,
      "duration": 0.214,
      "midi": 37,
      "noteNumber": 37,
      "velocity": 0.66,
      "track": "DRUMS",
      "channel": 9,
      "lane": "D"
    },
    {
      "time": 114.428,
      "duration": 0.214,
      "midi": 42,
      "noteNumber": 42,
      "velocity": 0.58,
      "track": "DRUMS",
      "channel": 9,
      "lane": "D"
    },
    {
      "time": 114.428,
      "duration": 0.214,
      "midi": 69,
      "noteNumber": 69,
      "velocity": 0.43,
      "track": "DRUMS",
      "channel": 9,
      "lane": "K"
    },
    {
      "time": 114.558,
      "duration": 0.317,
      "midi": 69,
      "noteNumber": 69,
      "velocity": 0.89,
      "track": "(unnamed)",
      "channel": 2,
      "lane": "K"
    },
    {
      "time": 114.642,
      "duration": 0.121,
      "midi": 33,
      "noteNumber": 33,
      "velocity": 0.48,
      "track": "(unnamed)",
      "channel": 1,
      "lane": "D"
    },
    {
      "time": 114.642,
      "duration": 0.214,
      "midi": 35,
      "noteNumber": 35,
      "velocity": 0.43,
      "track": "DRUMS",
      "channel": 9,
      "lane": "D"
    },
    {
      "time": 114.642,
      "duration": 0.214,
      "midi": 46,
      "noteNumber": 46,
      "velocity": 0.66,
      "track": "DRUMS",
      "channel": 9,
      "lane": "F"
    },
    {
      "time": 114.642,
      "duration": 0.214,
      "midi": 69,
      "noteNumber": 69,
      "velocity": 0.43,
      "track": "DRUMS",
      "channel": 9,
      "lane": "K"
    },
    {
      "time": 114.857,
      "duration": 0.545,
      "midi": 35,
      "noteNumber": 35,
      "velocity": 0.56,
      "track": "(unnamed)",
      "channel": 1,
      "lane": "D"
    },
    {
      "time": 114.857,
      "duration": 0.214,
      "midi": 35,
      "noteNumber": 35,
      "velocity": 0.5,
      "track": "DRUMS",
      "channel": 9,
      "lane": "D"
    },
    {
      "time": 114.857,
      "duration": 0.214,
      "midi": 42,
      "noteNumber": 42,
      "velocity": 0.58,
      "track": "DRUMS",
      "channel": 9,
      "lane": "D"
    },
    {
      "time": 114.857,
      "duration": 0.214,
      "midi": 69,
      "noteNumber": 69,
      "velocity": 0.5,
      "track": "DRUMS",
      "channel": 9,
      "lane": "K"
    },
    {
      "time": 114.875,
      "duration": 0.366,
      "midi": 69,
      "noteNumber": 69,
      "velocity": 0.87,
      "track": "(unnamed)",
      "channel": 2,
      "lane": "K"
    },
    {
      "time": 115.071,
      "duration": 0.214,
      "midi": 42,
      "noteNumber": 42,
      "velocity": 0.5,
      "track": "DRUMS",
      "channel": 9,
      "lane": "D"
    },
    {
      "time": 115.071,
      "duration": 0.214,
      "midi": 69,
      "noteNumber": 69,
      "velocity": 0.43,
      "track": "DRUMS",
      "channel": 9,
      "lane": "K"
    },
    {
      "time": 115.285,
      "duration": 0.214,
      "midi": 37,
      "noteNumber": 37,
      "velocity": 0.66,
      "track": "DRUMS",
      "channel": 9,
      "lane": "D"
    },
    {
      "time": 115.285,
      "duration": 0.214,
      "midi": 42,
      "noteNumber": 42,
      "velocity": 0.58,
      "track": "DRUMS",
      "channel": 9,
      "lane": "D"
    },
    {
      "time": 115.285,
      "duration": 0.214,
      "midi": 48,
      "noteNumber": 48,
      "velocity": 0.5,
      "track": "DRUMS",
      "channel": 9,
      "lane": "F"
    },
    {
      "time": 115.285,
      "duration": 0.214,
      "midi": 69,
      "noteNumber": 69,
      "velocity": 0.43,
      "track": "DRUMS",
      "channel": 9,
      "lane": "K"
    },
    {
      "time": 115.301,
      "duration": 0.232,
      "midi": 68,
      "noteNumber": 68,
      "velocity": 0.78,
      "track": "(unnamed)",
      "channel": 2,
      "lane": "K"
    },
    {
      "time": 115.31,
      "duration": 0.243,
      "midi": 59,
      "noteNumber": 59,
      "velocity": 0.6,
      "track": "(unnamed)",
      "channel": 2,
      "lane": "J"
    },
    {
      "time": 115.5,
      "duration": 0.092,
      "midi": 35,
      "noteNumber": 35,
      "velocity": 0.51,
      "track": "(unnamed)",
      "channel": 1,
      "lane": "D"
    },
    {
      "time": 115.5,
      "duration": 0.214,
      "midi": 35,
      "noteNumber": 35,
      "velocity": 0.5,
      "track": "DRUMS",
      "channel": 9,
      "lane": "D"
    },
    {
      "time": 115.5,
      "duration": 0.214,
      "midi": 46,
      "noteNumber": 46,
      "velocity": 0.58,
      "track": "DRUMS",
      "channel": 9,
      "lane": "F"
    },
    {
      "time": 115.5,
      "duration": 0.214,
      "midi": 69,
      "noteNumber": 69,
      "velocity": 0.5,
      "track": "DRUMS",
      "channel": 9,
      "lane": "K"
    },
    {
      "time": 115.533,
      "duration": 0.616,
      "midi": 68,
      "noteNumber": 68,
      "velocity": 0.79,
      "track": "(unnamed)",
      "channel": 2,
      "lane": "K"
    },
    {
      "time": 115.553,
      "duration": 0.567,
      "midi": 59,
      "noteNumber": 59,
      "velocity": 0.7,
      "track": "(unnamed)",
      "channel": 2,
      "lane": "J"
    },
    {
      "time": 115.714,
      "duration": 0.52,
      "midi": 40,
      "noteNumber": 40,
      "velocity": 0.57,
      "track": "(unnamed)",
      "channel": 1,
      "lane": "D"
    },
    {
      "time": 115.714,
      "duration": 0.214,
      "midi": 35,
      "noteNumber": 35,
      "velocity": 0.5,
      "track": "DRUMS",
      "channel": 9,
      "lane": "D"
    },
    {
      "time": 115.714,
      "duration": 0.214,
      "midi": 42,
      "noteNumber": 42,
      "velocity": 0.58,
      "track": "DRUMS",
      "channel": 9,
      "lane": "D"
    },
    {
      "time": 115.714,
      "duration": 0.214,
      "midi": 69,
      "noteNumber": 69,
      "velocity": 0.5,
      "track": "DRUMS",
      "channel": 9,
      "lane": "K"
    },
    {
      "time": 115.928,
      "duration": 0.214,
      "midi": 37,
      "noteNumber": 37,
      "velocity": 0.74,
      "track": "DRUMS",
      "channel": 9,
      "lane": "D"
    },
    {
      "time": 115.928,
      "duration": 0.214,
      "midi": 42,
      "noteNumber": 42,
      "velocity": 0.58,
      "track": "DRUMS",
      "channel": 9,
      "lane": "D"
    },
    {
      "time": 115.928,
      "duration": 0.214,
      "midi": 69,
      "noteNumber": 69,
      "velocity": 0.43,
      "track": "DRUMS",
      "channel": 9,
      "lane": "K"
    },
    {
      "time": 116.14,
      "duration": 0.243,
      "midi": 71,
      "noteNumber": 71,
      "velocity": 0.91,
      "track": "(unnamed)",
      "channel": 2,
      "lane": "K"
    },
    {
      "time": 116.142,
      "duration": 0.214,
      "midi": 42,
      "noteNumber": 42,
      "velocity": 0.58,
      "track": "DRUMS",
      "channel": 9,
      "lane": "D"
    },
    {
      "time": 116.142,
      "duration": 0.214,
      "midi": 69,
      "noteNumber": 69,
      "velocity": 0.43,
      "track": "DRUMS",
      "channel": 9,
      "lane": "K"
    },
    {
      "time": 116.147,
      "duration": 0.259,
      "midi": 62,
      "noteNumber": 62,
      "velocity": 0.69,
      "track": "(unnamed)",
      "channel": 2,
      "lane": "J"
    },
    {
      "time": 116.357,
      "duration": 0.098,
      "midi": 40,
      "noteNumber": 40,
      "velocity": 0.51,
      "track": "(unnamed)",
      "channel": 1,
      "lane": "D"
    },
    {
      "time": 116.357,
      "duration": 0.214,
      "midi": 35,
      "noteNumber": 35,
      "velocity": 0.58,
      "track": "DRUMS",
      "channel": 9,
      "lane": "D"
    },
    {
      "time": 116.357,
      "duration": 0.214,
      "midi": 42,
      "noteNumber": 42,
      "velocity": 0.5,
      "track": "DRUMS",
      "channel": 9,
      "lane": "D"
    },
    {
      "time": 116.357,
      "duration": 0.214,
      "midi": 69,
      "noteNumber": 69,
      "velocity": 0.5,
      "track": "DRUMS",
      "channel": 9,
      "lane": "K"
    },
    {
      "time": 116.571,
      "duration": 0.446,
      "midi": 33,
      "noteNumber": 33,
      "velocity": 0.51,
      "track": "(unnamed)",
      "channel": 1,
      "lane": "D"
    },
    {
      "time": 116.571,
      "duration": 0.429,
      "midi": 55,
      "noteNumber": 55,
      "velocity": 0.66,
      "track": "(unnamed)",
      "channel": 2,
      "lane": "F"
    },
    {
      "time": 116.571,
      "duration": 0.214,
      "midi": 35,
      "noteNumber": 35,
      "velocity": 0.5,
      "track": "DRUMS",
      "channel": 9,
      "lane": "D"
    },
    {
      "time": 116.571,
      "duration": 0.214,
      "midi": 37,
      "noteNumber": 37,
      "velocity": 0.66,
      "track": "DRUMS",
      "channel": 9,
      "lane": "D"
    },
    {
      "time": 116.571,
      "duration": 0.214,
      "midi": 42,
      "noteNumber": 42,
      "velocity": 0.69,
      "track": "DRUMS",
      "channel": 9,
      "lane": "D"
    },
    {
      "time": 116.571,
      "duration": 0.214,
      "midi": 69,
      "noteNumber": 69,
      "velocity": 0.5,
      "track": "DRUMS",
      "channel": 9,
      "lane": "K"
    },
    {
      "time": 116.576,
      "duration": 1.315,
      "midi": 64,
      "noteNumber": 64,
      "velocity": 0.69,
      "track": "(unnamed)",
      "channel": 2,
      "lane": "J"
    },
    {
      "time": 116.785,
      "duration": 0.214,
      "midi": 42,
      "noteNumber": 42,
      "velocity": 0.5,
      "track": "DRUMS",
      "channel": 9,
      "lane": "D"
    },
    {
      "time": 116.785,
      "duration": 0.214,
      "midi": 69,
      "noteNumber": 69,
      "velocity": 0.43,
      "track": "DRUMS",
      "channel": 9,
      "lane": "K"
    },
    {
      "time": 117,
      "duration": 0.214,
      "midi": 42,
      "noteNumber": 42,
      "velocity": 0.5,
      "track": "DRUMS",
      "channel": 9,
      "lane": "D"
    },
    {
      "time": 117,
      "duration": 0.214,
      "midi": 69,
      "noteNumber": 69,
      "velocity": 0.43,
      "track": "DRUMS",
      "channel": 9,
      "lane": "K"
    },
    {
      "time": 117.017,
      "duration": 0.261,
      "midi": 57,
      "noteNumber": 57,
      "velocity": 0.74,
      "track": "(unnamed)",
      "channel": 2,
      "lane": "J"
    },
    {
      "time": 117.205,
      "duration": 0.263,
      "midi": 55,
      "noteNumber": 55,
      "velocity": 0.76,
      "track": "(unnamed)",
      "channel": 2,
      "lane": "F"
    },
    {
      "time": 117.214,
      "duration": 0.096,
      "midi": 39,
      "noteNumber": 39,
      "velocity": 0.48,
      "track": "(unnamed)",
      "channel": 1,
      "lane": "D"
    },
    {
      "time": 117.214,
      "duration": 0.214,
      "midi": 35,
      "noteNumber": 35,
      "velocity": 0.43,
      "track": "DRUMS",
      "channel": 9,
      "lane": "D"
    },
    {
      "time": 117.214,
      "duration": 0.214,
      "midi": 37,
      "noteNumber": 37,
      "velocity": 0.74,
      "track": "DRUMS",
      "channel": 9,
      "lane": "D"
    },
    {
      "time": 117.214,
      "duration": 0.214,
      "midi": 42,
      "noteNumber": 42,
      "velocity": 0.5,
      "track": "DRUMS",
      "channel": 9,
      "lane": "D"
    },
    {
      "time": 117.214,
      "duration": 0.214,
      "midi": 69,
      "noteNumber": 69,
      "velocity": 0.43,
      "track": "DRUMS",
      "channel": 9,
      "lane": "K"
    },
    {
      "time": 117.428,
      "duration": 0.562,
      "midi": 40,
      "noteNumber": 40,
      "velocity": 0.51,
      "track": "(unnamed)",
      "channel": 1,
      "lane": "D"
    },
    {
      "time": 117.428,
      "duration": 0.214,
      "midi": 35,
      "noteNumber": 35,
      "velocity": 0.5,
      "track": "DRUMS",
      "channel": 9,
      "lane": "D"
    },
    {
      "time": 117.428,
      "duration": 0.214,
      "midi": 42,
      "noteNumber": 42,
      "velocity": 0.58,
      "track": "DRUMS",
      "channel": 9,
      "lane": "D"
    },
    {
      "time": 117.428,
      "duration": 0.214,
      "midi": 69,
      "noteNumber": 69,
      "velocity": 0.5,
      "track": "DRUMS",
      "channel": 9,
      "lane": "K"
    },
    {
      "time": 117.444,
      "duration": 0.696,
      "midi": 54,
      "noteNumber": 54,
      "velocity": 0.76,
      "track": "(unnamed)",
      "channel": 2,
      "lane": "F"
    },
    {
      "time": 117.642,
      "duration": 0.214,
      "midi": 42,
      "noteNumber": 42,
      "velocity": 0.5,
      "track": "DRUMS",
      "channel": 9,
      "lane": "D"
    },
    {
      "time": 117.642,
      "duration": 0.214,
      "midi": 69,
      "noteNumber": 69,
      "velocity": 0.43,
      "track": "DRUMS",
      "channel": 9,
      "lane": "K"
    },
    {
      "time": 117.857,
      "duration": 0.214,
      "midi": 37,
      "noteNumber": 37,
      "velocity": 0.66,
      "track": "DRUMS",
      "channel": 9,
      "lane": "D"
    },
    {
      "time": 117.857,
      "duration": 0.214,
      "midi": 42,
      "noteNumber": 42,
      "velocity": 0.58,
      "track": "DRUMS",
      "channel": 9,
      "lane": "D"
    },
    {
      "time": 117.857,
      "duration": 0.214,
      "midi": 45,
      "noteNumber": 45,
      "velocity": 0.5,
      "track": "DRUMS",
      "channel": 9,
      "lane": "F"
    },
    {
      "time": 117.857,
      "duration": 0.214,
      "midi": 69,
      "noteNumber": 69,
      "velocity": 0.43,
      "track": "DRUMS",
      "channel": 9,
      "lane": "K"
    },
    {
      "time": 118.071,
      "duration": 0.089,
      "midi": 33,
      "noteNumber": 33,
      "velocity": 0.47,
      "track": "(unnamed)",
      "channel": 1,
      "lane": "D"
    },
    {
      "time": 118.071,
      "duration": 0.214,
      "midi": 35,
      "noteNumber": 35,
      "velocity": 0.43,
      "track": "DRUMS",
      "channel": 9,
      "lane": "D"
    },
    {
      "time": 118.071,
      "duration": 0.214,
      "midi": 42,
      "noteNumber": 42,
      "velocity": 0.66,
      "track": "DRUMS",
      "channel": 9,
      "lane": "D"
    },
    {
      "time": 118.071,
      "duration": 0.214,
      "midi": 45,
      "noteNumber": 45,
      "velocity": 0.5,
      "track": "DRUMS",
      "channel": 9,
      "lane": "F"
    },
    {
      "time": 118.071,
      "duration": 0.214,
      "midi": 69,
      "noteNumber": 69,
      "velocity": 0.43,
      "track": "DRUMS",
      "channel": 9,
      "lane": "K"
    },
    {
      "time": 118.285,
      "duration": 0.518,
      "midi": 35,
      "noteNumber": 35,
      "velocity": 0.64,
      "track": "(unnamed)",
      "channel": 1,
      "lane": "D"
    },
    {
      "time": 118.285,
      "duration": 0.214,
      "midi": 35,
      "noteNumber": 35,
      "velocity": 0.5,
      "track": "DRUMS",
      "channel": 9,
      "lane": "D"
    },
    {
      "time": 118.285,
      "duration": 0.214,
      "midi": 42,
      "noteNumber": 42,
      "velocity": 0.58,
      "track": "DRUMS",
      "channel": 9,
      "lane": "D"
    },
    {
      "time": 118.285,
      "duration": 0.214,
      "midi": 69,
      "noteNumber": 69,
      "velocity": 0.5,
      "track": "DRUMS",
      "channel": 9,
      "lane": "K"
    },
    {
      "time": 118.296,
      "duration": 0.426,
      "midi": 57,
      "noteNumber": 57,
      "velocity": 0.72,
      "track": "(unnamed)",
      "channel": 2,
      "lane": "J"
    },
    {
      "time": 118.5,
      "duration": 0.214,
      "midi": 42,
      "noteNumber": 42,
      "velocity": 0.5,
      "track": "DRUMS",
      "channel": 9,
      "lane": "D"
    },
    {
      "time": 118.5,
      "duration": 0.214,
      "midi": 69,
      "noteNumber": 69,
      "velocity": 0.43,
      "track": "DRUMS",
      "channel": 9,
      "lane": "K"
    },
    {
      "time": 118.509,
      "duration": 0.866,
      "midi": 64,
      "noteNumber": 64,
      "velocity": 0.83,
      "track": "(unnamed)",
      "channel": 2,
      "lane": "J"
    },
    {
      "time": 118.517,
      "duration": 0.866,
      "midi": 62,
      "noteNumber": 62,
      "velocity": 0.92,
      "track": "(unnamed)",
      "channel": 2,
      "lane": "J"
    },
    {
      "time": 118.714,
      "duration": 0.214,
      "midi": 37,
      "noteNumber": 37,
      "velocity": 0.66,
      "track": "DRUMS",
      "channel": 9,
      "lane": "D"
    },
    {
      "time": 118.714,
      "duration": 0.214,
      "midi": 42,
      "noteNumber": 42,
      "velocity": 0.58,
      "track": "DRUMS",
      "channel": 9,
      "lane": "D"
    },
    {
      "time": 118.714,
      "duration": 0.214,
      "midi": 69,
      "noteNumber": 69,
      "velocity": 0.43,
      "track": "DRUMS",
      "channel": 9,
      "lane": "K"
    },
    {
      "time": 118.723,
      "duration": 0.21,
      "midi": 57,
      "noteNumber": 57,
      "velocity": 0.79,
      "track": "(unnamed)",
      "channel": 2,
      "lane": "J"
    },
    {
      "time": 118.928,
      "duration": 0.114,
      "midi": 35,
      "noteNumber": 35,
      "velocity": 0.54,
      "track": "(unnamed)",
      "channel": 1,
      "lane": "D"
    },
    {
      "time": 118.928,
      "duration": 0.214,
      "midi": 35,
      "noteNumber": 35,
      "velocity": 0.5,
      "track": "DRUMS",
      "channel": 9,
      "lane": "D"
    },
    {
      "time": 118.928,
      "duration": 0.214,
      "midi": 42,
      "noteNumber": 42,
      "velocity": 0.58,
      "track": "DRUMS",
      "channel": 9,
      "lane": "D"
    },
    {
      "time": 118.928,
      "duration": 0.214,
      "midi": 69,
      "noteNumber": 69,
      "velocity": 0.5,
      "track": "DRUMS",
      "channel": 9,
      "lane": "K"
    },
    {
      "time": 118.933,
      "duration": 0.161,
      "midi": 57,
      "noteNumber": 57,
      "velocity": 0.73,
      "track": "(unnamed)",
      "channel": 2,
      "lane": "J"
    },
    {
      "time": 119.142,
      "duration": 0.603,
      "midi": 40,
      "noteNumber": 40,
      "velocity": 0.51,
      "track": "(unnamed)",
      "channel": 1,
      "lane": "D"
    },
    {
      "time": 119.142,
      "duration": 0.214,
      "midi": 35,
      "noteNumber": 35,
      "velocity": 0.5,
      "track": "DRUMS",
      "channel": 9,
      "lane": "D"
    },
    {
      "time": 119.142,
      "duration": 0.214,
      "midi": 42,
      "noteNumber": 42,
      "velocity": 0.58,
      "track": "DRUMS",
      "channel": 9,
      "lane": "D"
    },
    {
      "time": 119.142,
      "duration": 0.214,
      "midi": 69,
      "noteNumber": 69,
      "velocity": 0.5,
      "track": "DRUMS",
      "channel": 9,
      "lane": "K"
    },
    {
      "time": 119.147,
      "duration": 0.587,
      "midi": 56,
      "noteNumber": 56,
      "velocity": 0.78,
      "track": "(unnamed)",
      "channel": 2,
      "lane": "F"
    },
    {
      "time": 119.357,
      "duration": 0.214,
      "midi": 37,
      "noteNumber": 37,
      "velocity": 0.74,
      "track": "DRUMS",
      "channel": 9,
      "lane": "D"
    },
    {
      "time": 119.357,
      "duration": 0.214,
      "midi": 42,
      "noteNumber": 42,
      "velocity": 0.58,
      "track": "DRUMS",
      "channel": 9,
      "lane": "D"
    },
    {
      "time": 119.357,
      "duration": 0.214,
      "midi": 69,
      "noteNumber": 69,
      "velocity": 0.43,
      "track": "DRUMS",
      "channel": 9,
      "lane": "K"
    },
    {
      "time": 119.377,
      "duration": 0.359,
      "midi": 64,
      "noteNumber": 64,
      "velocity": 0.72,
      "track": "(unnamed)",
      "channel": 2,
      "lane": "J"
    },
    {
      "time": 119.384,
      "duration": 0.373,
      "midi": 62,
      "noteNumber": 62,
      "velocity": 0.86,
      "track": "(unnamed)",
      "channel": 2,
      "lane": "J"
    },
    {
      "time": 119.571,
      "duration": 0.214,
      "midi": 42,
      "noteNumber": 42,
      "velocity": 0.58,
      "track": "DRUMS",
      "channel": 9,
      "lane": "D"
    },
    {
      "time": 119.571,
      "duration": 0.214,
      "midi": 45,
      "noteNumber": 45,
      "velocity": 0.5,
      "track": "DRUMS",
      "channel": 9,
      "lane": "F"
    },
    {
      "time": 119.571,
      "duration": 0.214,
      "midi": 69,
      "noteNumber": 69,
      "velocity": 0.43,
      "track": "DRUMS",
      "channel": 9,
      "lane": "K"
    },
    {
      "time": 119.785,
      "duration": 0.109,
      "midi": 40,
      "noteNumber": 40,
      "velocity": 0.53,
      "track": "(unnamed)",
      "channel": 1,
      "lane": "D"
    },
    {
      "time": 119.785,
      "duration": 0.214,
      "midi": 35,
      "noteNumber": 35,
      "velocity": 0.58,
      "track": "DRUMS",
      "channel": 9,
      "lane": "D"
    },
    {
      "time": 119.785,
      "duration": 0.214,
      "midi": 42,
      "noteNumber": 42,
      "velocity": 0.5,
      "track": "DRUMS",
      "channel": 9,
      "lane": "D"
    },
    {
      "time": 119.785,
      "duration": 0.214,
      "midi": 45,
      "noteNumber": 45,
      "velocity": 0.5,
      "track": "DRUMS",
      "channel": 9,
      "lane": "F"
    },
    {
      "time": 119.785,
      "duration": 0.214,
      "midi": 69,
      "noteNumber": 69,
      "velocity": 0.5,
      "track": "DRUMS",
      "channel": 9,
      "lane": "K"
    },
    {
      "time": 120,
      "duration": 0.5,
      "midi": 33,
      "noteNumber": 33,
      "velocity": 0.61,
      "track": "(unnamed)",
      "channel": 1,
      "lane": "D"
    },
    {
      "time": 120,
      "duration": 0.214,
      "midi": 35,
      "noteNumber": 35,
      "velocity": 0.5,
      "track": "DRUMS",
      "channel": 9,
      "lane": "D"
    },
    {
      "time": 120,
      "duration": 0.214,
      "midi": 37,
      "noteNumber": 37,
      "velocity": 0.66,
      "track": "DRUMS",
      "channel": 9,
      "lane": "D"
    },
    {
      "time": 120,
      "duration": 0.214,
      "midi": 42,
      "noteNumber": 42,
      "velocity": 0.69,
      "track": "DRUMS",
      "channel": 9,
      "lane": "D"
    },
    {
      "time": 120,
      "duration": 0.214,
      "midi": 69,
      "noteNumber": 69,
      "velocity": 0.5,
      "track": "DRUMS",
      "channel": 9,
      "lane": "K"
    },
    {
      "time": 120.024,
      "duration": 0.587,
      "midi": 72,
      "noteNumber": 72,
      "velocity": 0.83,
      "track": "(unnamed)",
      "channel": 2,
      "lane": "K"
    },
    {
      "time": 120.214,
      "duration": 0.214,
      "midi": 42,
      "noteNumber": 42,
      "velocity": 0.5,
      "track": "DRUMS",
      "channel": 9,
      "lane": "D"
    },
    {
      "time": 120.214,
      "duration": 0.214,
      "midi": 69,
      "noteNumber": 69,
      "velocity": 0.43,
      "track": "DRUMS",
      "channel": 9,
      "lane": "K"
    },
    {
      "time": 120.234,
      "duration": 0.375,
      "midi": 67,
      "noteNumber": 67,
      "velocity": 0.71,
      "track": "(unnamed)",
      "channel": 2,
      "lane": "J"
    },
    {
      "time": 120.241,
      "duration": 0.364,
      "midi": 57,
      "noteNumber": 57,
      "velocity": 0.76,
      "track": "(unnamed)",
      "channel": 2,
      "lane": "J"
    },
    {
      "time": 120.247,
      "duration": 0.359,
      "midi": 64,
      "noteNumber": 64,
      "velocity": 0.71,
      "track": "(unnamed)",
      "channel": 2,
      "lane": "J"
    },
    {
      "time": 120.428,
      "duration": 0.214,
      "midi": 42,
      "noteNumber": 42,
      "velocity": 0.5,
      "track": "DRUMS",
      "channel": 9,
      "lane": "D"
    },
    {
      "time": 120.428,
      "duration": 0.214,
      "midi": 69,
      "noteNumber": 69,
      "velocity": 0.43,
      "track": "DRUMS",
      "channel": 9,
      "lane": "K"
    },
    {
      "time": 120.642,
      "duration": 0.121,
      "midi": 40,
      "noteNumber": 40,
      "velocity": 0.5,
      "track": "(unnamed)",
      "channel": 1,
      "lane": "D"
    },
    {
      "time": 120.642,
      "duration": 0.214,
      "midi": 35,
      "noteNumber": 35,
      "velocity": 0.43,
      "track": "DRUMS",
      "channel": 9,
      "lane": "D"
    },
    {
      "time": 120.642,
      "duration": 0.214,
      "midi": 37,
      "noteNumber": 37,
      "velocity": 0.74,
      "track": "DRUMS",
      "channel": 9,
      "lane": "D"
    },
    {
      "time": 120.642,
      "duration": 0.214,
      "midi": 42,
      "noteNumber": 42,
      "velocity": 0.5,
      "track": "DRUMS",
      "channel": 9,
      "lane": "D"
    },
    {
      "time": 120.642,
      "duration": 0.214,
      "midi": 69,
      "noteNumber": 69,
      "velocity": 0.43,
      "track": "DRUMS",
      "channel": 9,
      "lane": "K"
    },
    {
      "time": 120.671,
      "duration": 0.326,
      "midi": 71,
      "noteNumber": 71,
      "velocity": 0.87,
      "track": "(unnamed)",
      "channel": 2,
      "lane": "K"
    },
    {
      "time": 120.683,
      "duration": 0.27,
      "midi": 62,
      "noteNumber": 62,
      "velocity": 0.67,
      "track": "(unnamed)",
      "channel": 2,
      "lane": "J"
    },
    {
      "time": 120.687,
      "duration": 0.252,
      "midi": 64,
      "noteNumber": 64,
      "velocity": 0.61,
      "track": "(unnamed)",
      "channel": 2,
      "lane": "J"
    },
    {
      "time": 120.694,
      "duration": 0.266,
      "midi": 55,
      "noteNumber": 55,
      "velocity": 0.69,
      "track": "(unnamed)",
      "channel": 2,
      "lane": "F"
    },
    {
      "time": 120.857,
      "duration": 0.585,
      "midi": 40,
      "noteNumber": 40,
      "velocity": 0.51,
      "track": "(unnamed)",
      "channel": 1,
      "lane": "D"
    },
    {
      "time": 120.857,
      "duration": 0.214,
      "midi": 35,
      "noteNumber": 35,
      "velocity": 0.5,
      "track": "DRUMS",
      "channel": 9,
      "lane": "D"
    },
    {
      "time": 120.857,
      "duration": 0.214,
      "midi": 42,
      "noteNumber": 42,
      "velocity": 0.58,
      "track": "DRUMS",
      "channel": 9,
      "lane": "D"
    },
    {
      "time": 120.857,
      "duration": 0.214,
      "midi": 69,
      "noteNumber": 69,
      "velocity": 0.5,
      "track": "DRUMS",
      "channel": 9,
      "lane": "K"
    },
    {
      "time": 121.071,
      "duration": 0.214,
      "midi": 42,
      "noteNumber": 42,
      "velocity": 0.5,
      "track": "DRUMS",
      "channel": 9,
      "lane": "D"
    },
    {
      "time": 121.071,
      "duration": 0.214,
      "midi": 69,
      "noteNumber": 69,
      "velocity": 0.43,
      "track": "DRUMS",
      "channel": 9,
      "lane": "K"
    },
    {
      "time": 121.091,
      "duration": 0.475,
      "midi": 69,
      "noteNumber": 69,
      "velocity": 0.74,
      "track": "(unnamed)",
      "channel": 2,
      "lane": "K"
    },
    {
      "time": 121.098,
      "duration": 0.531,
      "midi": 55,
      "noteNumber": 55,
      "velocity": 0.69,
      "track": "(unnamed)",
      "channel": 2,
      "lane": "F"
    },
    {
      "time": 121.102,
      "duration": 0.471,
      "midi": 61,
      "noteNumber": 61,
      "velocity": 0.65,
      "track": "(unnamed)",
      "channel": 2,
      "lane": "J"
    },
    {
      "time": 121.107,
      "duration": 0.44,
      "midi": 65,
      "noteNumber": 65,
      "velocity": 0.6,
      "track": "(unnamed)",
      "channel": 2,
      "lane": "J"
    },
    {
      "time": 121.285,
      "duration": 0.214,
      "midi": 37,
      "noteNumber": 37,
      "velocity": 0.66,
      "track": "DRUMS",
      "channel": 9,
      "lane": "D"
    },
    {
      "time": 121.285,
      "duration": 0.214,
      "midi": 42,
      "noteNumber": 42,
      "velocity": 0.58,
      "track": "DRUMS",
      "channel": 9,
      "lane": "D"
    },
    {
      "time": 121.285,
      "duration": 0.214,
      "midi": 69,
      "noteNumber": 69,
      "velocity": 0.43,
      "track": "DRUMS",
      "channel": 9,
      "lane": "K"
    },
    {
      "time": 121.5,
      "duration": 0.092,
      "midi": 33,
      "noteNumber": 33,
      "velocity": 0.5,
      "track": "(unnamed)",
      "channel": 1,
      "lane": "D"
    },
    {
      "time": 121.5,
      "duration": 0.214,
      "midi": 35,
      "noteNumber": 35,
      "velocity": 0.43,
      "track": "DRUMS",
      "channel": 9,
      "lane": "D"
    },
    {
      "time": 121.5,
      "duration": 0.214,
      "midi": 42,
      "noteNumber": 42,
      "velocity": 0.66,
      "track": "DRUMS",
      "channel": 9,
      "lane": "D"
    },
    {
      "time": 121.5,
      "duration": 0.214,
      "midi": 69,
      "noteNumber": 69,
      "velocity": 0.43,
      "track": "DRUMS",
      "channel": 9,
      "lane": "K"
    },
    {
      "time": 121.714,
      "duration": 0.446,
      "midi": 38,
      "noteNumber": 38,
      "velocity": 0.57,
      "track": "(unnamed)",
      "channel": 1,
      "lane": "D"
    },
    {
      "time": 121.714,
      "duration": 0.214,
      "midi": 35,
      "noteNumber": 35,
      "velocity": 0.5,
      "track": "DRUMS",
      "channel": 9,
      "lane": "D"
    },
    {
      "time": 121.714,
      "duration": 0.214,
      "midi": 42,
      "noteNumber": 42,
      "velocity": 0.58,
      "track": "DRUMS",
      "channel": 9,
      "lane": "D"
    },
    {
      "time": 121.714,
      "duration": 0.214,
      "midi": 69,
      "noteNumber": 69,
      "velocity": 0.5,
      "track": "DRUMS",
      "channel": 9,
      "lane": "K"
    },
    {
      "time": 121.716,
      "duration": 0.598,
      "midi": 69,
      "noteNumber": 69,
      "velocity": 0.9,
      "track": "(unnamed)",
      "channel": 2,
      "lane": "K"
    },
    {
      "time": 121.725,
      "duration": 0.542,
      "midi": 62,
      "noteNumber": 62,
      "velocity": 0.63,
      "track": "(unnamed)",
      "channel": 2,
      "lane": "J"
    },
    {
      "time": 121.732,
      "duration": 0.551,
      "midi": 53,
      "noteNumber": 53,
      "velocity": 0.74,
      "track": "(unnamed)",
      "channel": 2,
      "lane": "F"
    },
    {
      "time": 121.734,
      "duration": 0.556,
      "midi": 60,
      "noteNumber": 60,
      "velocity": 0.73,
      "track": "(unnamed)",
      "channel": 2,
      "lane": "J"
    },
    {
      "time": 121.928,
      "duration": 0.214,
      "midi": 42,
      "noteNumber": 42,
      "velocity": 0.5,
      "track": "DRUMS",
      "channel": 9,
      "lane": "D"
    },
    {
      "time": 121.928,
      "duration": 0.214,
      "midi": 69,
      "noteNumber": 69,
      "velocity": 0.43,
      "track": "DRUMS",
      "channel": 9,
      "lane": "K"
    },
    {
      "time": 122.142,
      "duration": 0.214,
      "midi": 37,
      "noteNumber": 37,
      "velocity": 0.66,
      "track": "DRUMS",
      "channel": 9,
      "lane": "D"
    },
    {
      "time": 122.142,
      "duration": 0.214,
      "midi": 42,
      "noteNumber": 42,
      "velocity": 0.58,
      "track": "DRUMS",
      "channel": 9,
      "lane": "D"
    },
    {
      "time": 122.142,
      "duration": 0.214,
      "midi": 69,
      "noteNumber": 69,
      "velocity": 0.43,
      "track": "DRUMS",
      "channel": 9,
      "lane": "K"
    },
    {
      "time": 122.357,
      "duration": 0.098,
      "midi": 38,
      "noteNumber": 38,
      "velocity": 0.54,
      "track": "(unnamed)",
      "channel": 1,
      "lane": "D"
    },
    {
      "time": 122.357,
      "duration": 0.214,
      "midi": 35,
      "noteNumber": 35,
      "velocity": 0.5,
      "track": "DRUMS",
      "channel": 9,
      "lane": "D"
    },
    {
      "time": 122.357,
      "duration": 0.214,
      "midi": 46,
      "noteNumber": 46,
      "velocity": 0.58,
      "track": "DRUMS",
      "channel": 9,
      "lane": "F"
    },
    {
      "time": 122.357,
      "duration": 0.214,
      "midi": 69,
      "noteNumber": 69,
      "velocity": 0.5,
      "track": "DRUMS",
      "channel": 9,
      "lane": "K"
    },
    {
      "time": 122.368,
      "duration": 0.263,
      "midi": 67,
      "noteNumber": 67,
      "velocity": 0.85,
      "track": "(unnamed)",
      "channel": 2,
      "lane": "J"
    },
    {
      "time": 122.375,
      "duration": 0.241,
      "midi": 53,
      "noteNumber": 53,
      "velocity": 0.64,
      "track": "(unnamed)",
      "channel": 2,
      "lane": "F"
    },
    {
      "time": 122.377,
      "duration": 0.252,
      "midi": 59,
      "noteNumber": 59,
      "velocity": 0.66,
      "track": "(unnamed)",
      "channel": 2,
      "lane": "J"
    },
    {
      "time": 122.379,
      "duration": 0.246,
      "midi": 62,
      "noteNumber": 62,
      "velocity": 0.61,
      "track": "(unnamed)",
      "channel": 2,
      "lane": "J"
    },
    {
      "time": 122.571,
      "duration": 0.545,
      "midi": 43,
      "noteNumber": 43,
      "velocity": 0.57,
      "track": "(unnamed)",
      "channel": 1,
      "lane": "D"
    },
    {
      "time": 122.571,
      "duration": 0.214,
      "midi": 35,
      "noteNumber": 35,
      "velocity": 0.5,
      "track": "DRUMS",
      "channel": 9,
      "lane": "D"
    },
    {
      "time": 122.571,
      "duration": 0.214,
      "midi": 42,
      "noteNumber": 42,
      "velocity": 0.58,
      "track": "DRUMS",
      "channel": 9,
      "lane": "D"
    },
    {
      "time": 122.571,
      "duration": 0.214,
      "midi": 69,
      "noteNumber": 69,
      "velocity": 0.5,
      "track": "DRUMS",
      "channel": 9,
      "lane": "K"
    },
    {
      "time": 122.785,
      "duration": 0.214,
      "midi": 37,
      "noteNumber": 37,
      "velocity": 0.74,
      "track": "DRUMS",
      "channel": 9,
      "lane": "D"
    },
    {
      "time": 122.785,
      "duration": 0.214,
      "midi": 42,
      "noteNumber": 42,
      "velocity": 0.58,
      "track": "DRUMS",
      "channel": 9,
      "lane": "D"
    },
    {
      "time": 122.785,
      "duration": 0.214,
      "midi": 69,
      "noteNumber": 69,
      "velocity": 0.43,
      "track": "DRUMS",
      "channel": 9,
      "lane": "K"
    },
    {
      "time": 122.812,
      "duration": 0.254,
      "midi": 71,
      "noteNumber": 71,
      "velocity": 0.78,
      "track": "(unnamed)",
      "channel": 2,
      "lane": "K"
    },
    {
      "time": 122.819,
      "duration": 0.225,
      "midi": 55,
      "noteNumber": 55,
      "velocity": 0.77,
      "track": "(unnamed)",
      "channel": 2,
      "lane": "F"
    },
    {
      "time": 122.823,
      "duration": 0.23,
      "midi": 62,
      "noteNumber": 62,
      "velocity": 0.7,
      "track": "(unnamed)",
      "channel": 2,
      "lane": "J"
    },
    {
      "time": 122.825,
      "duration": 0.212,
      "midi": 65,
      "noteNumber": 65,
      "velocity": 0.61,
      "track": "(unnamed)",
      "channel": 2,
      "lane": "J"
    },
    {
      "time": 123,
      "duration": 0.214,
      "midi": 42,
      "noteNumber": 42,
      "velocity": 0.58,
      "track": "DRUMS",
      "channel": 9,
      "lane": "D"
    },
    {
      "time": 123,
      "duration": 0.214,
      "midi": 45,
      "noteNumber": 45,
      "velocity": 0.5,
      "track": "DRUMS",
      "channel": 9,
      "lane": "F"
    },
    {
      "time": 123,
      "duration": 0.214,
      "midi": 69,
      "noteNumber": 69,
      "velocity": 0.43,
      "track": "DRUMS",
      "channel": 9,
      "lane": "K"
    },
    {
      "time": 123.214,
      "duration": 0.089,
      "midi": 43,
      "noteNumber": 43,
      "velocity": 0.5,
      "track": "(unnamed)",
      "channel": 1,
      "lane": "D"
    },
    {
      "time": 123.214,
      "duration": 0.214,
      "midi": 35,
      "noteNumber": 35,
      "velocity": 0.58,
      "track": "DRUMS",
      "channel": 9,
      "lane": "D"
    },
    {
      "time": 123.214,
      "duration": 0.214,
      "midi": 45,
      "noteNumber": 45,
      "velocity": 0.5,
      "track": "DRUMS",
      "channel": 9,
      "lane": "F"
    },
    {
      "time": 123.214,
      "duration": 0.214,
      "midi": 46,
      "noteNumber": 46,
      "velocity": 0.5,
      "track": "DRUMS",
      "channel": 9,
      "lane": "F"
    },
    {
      "time": 123.214,
      "duration": 0.214,
      "midi": 69,
      "noteNumber": 69,
      "velocity": 0.5,
      "track": "DRUMS",
      "channel": 9,
      "lane": "K"
    },
    {
      "time": 123.25,
      "duration": 0.437,
      "midi": 48,
      "noteNumber": 48,
      "velocity": 0.74,
      "track": "(unnamed)",
      "channel": 2,
      "lane": "F"
    },
    {
      "time": 123.254,
      "duration": 0.629,
      "midi": 55,
      "noteNumber": 55,
      "velocity": 0.66,
      "track": "(unnamed)",
      "channel": 2,
      "lane": "F"
    },
    {
      "time": 123.256,
      "duration": 0.833,
      "midi": 59,
      "noteNumber": 59,
      "velocity": 0.65,
      "track": "(unnamed)",
      "channel": 2,
      "lane": "J"
    },
    {
      "time": 123.261,
      "duration": 1.263,
      "midi": 64,
      "noteNumber": 64,
      "velocity": 0.75,
      "track": "(unnamed)",
      "channel": 2,
      "lane": "J"
    },
    {
      "time": 123.428,
      "duration": 0.567,
      "midi": 36,
      "noteNumber": 36,
      "velocity": 0.54,
      "track": "(unnamed)",
      "channel": 1,
      "lane": "D"
    },
    {
      "time": 123.428,
      "duration": 0.214,
      "midi": 35,
      "noteNumber": 35,
      "velocity": 0.5,
      "track": "DRUMS",
      "channel": 9,
      "lane": "D"
    },
    {
      "time": 123.428,
      "duration": 0.214,
      "midi": 37,
      "noteNumber": 37,
      "velocity": 0.66,
      "track": "DRUMS",
      "channel": 9,
      "lane": "D"
    },
    {
      "time": 123.428,
      "duration": 0.214,
      "midi": 42,
      "noteNumber": 42,
      "velocity": 0.69,
      "track": "DRUMS",
      "channel": 9,
      "lane": "D"
    },
    {
      "time": 123.428,
      "duration": 0.214,
      "midi": 69,
      "noteNumber": 69,
      "velocity": 0.5,
      "track": "DRUMS",
      "channel": 9,
      "lane": "K"
    },
    {
      "time": 123.642,
      "duration": 0.214,
      "midi": 42,
      "noteNumber": 42,
      "velocity": 0.5,
      "track": "DRUMS",
      "channel": 9,
      "lane": "D"
    },
    {
      "time": 123.642,
      "duration": 0.214,
      "midi": 69,
      "noteNumber": 69,
      "velocity": 0.43,
      "track": "DRUMS",
      "channel": 9,
      "lane": "K"
    },
    {
      "time": 123.687,
      "duration": 1.431,
      "midi": 48,
      "noteNumber": 48,
      "velocity": 0.78,
      "track": "(unnamed)",
      "channel": 2,
      "lane": "F"
    },
    {
      "time": 123.857,
      "duration": 0.214,
      "midi": 42,
      "noteNumber": 42,
      "velocity": 0.5,
      "track": "DRUMS",
      "channel": 9,
      "lane": "D"
    },
    {
      "time": 123.857,
      "duration": 0.214,
      "midi": 69,
      "noteNumber": 69,
      "velocity": 0.43,
      "track": "DRUMS",
      "channel": 9,
      "lane": "K"
    },
    {
      "time": 123.89,
      "duration": 1.074,
      "midi": 55,
      "noteNumber": 55,
      "velocity": 0.65,
      "track": "(unnamed)",
      "channel": 2,
      "lane": "F"
    },
    {
      "time": 124.071,
      "duration": 0.089,
      "midi": 43,
      "noteNumber": 43,
      "velocity": 0.45,
      "track": "(unnamed)",
      "channel": 1,
      "lane": "D"
    },
    {
      "time": 124.071,
      "duration": 0.214,
      "midi": 35,
      "noteNumber": 35,
      "velocity": 0.43,
      "track": "DRUMS",
      "channel": 9,
      "lane": "D"
    },
    {
      "time": 124.071,
      "duration": 0.214,
      "midi": 37,
      "noteNumber": 37,
      "velocity": 0.74,
      "track": "DRUMS",
      "channel": 9,
      "lane": "D"
    },
    {
      "time": 124.071,
      "duration": 0.214,
      "midi": 42,
      "noteNumber": 42,
      "velocity": 0.5,
      "track": "DRUMS",
      "channel": 9,
      "lane": "D"
    },
    {
      "time": 124.071,
      "duration": 0.214,
      "midi": 69,
      "noteNumber": 69,
      "velocity": 0.43,
      "track": "DRUMS",
      "channel": 9,
      "lane": "K"
    },
    {
      "time": 124.089,
      "duration": 0.663,
      "midi": 59,
      "noteNumber": 59,
      "velocity": 0.7,
      "track": "(unnamed)",
      "channel": 2,
      "lane": "J"
    },
    {
      "time": 124.285,
      "duration": 0.455,
      "midi": 43,
      "noteNumber": 43,
      "velocity": 0.56,
      "track": "(unnamed)",
      "channel": 1,
      "lane": "D"
    },
    {
      "time": 124.285,
      "duration": 0.214,
      "midi": 35,
      "noteNumber": 35,
      "velocity": 0.5,
      "track": "DRUMS",
      "channel": 9,
      "lane": "D"
    },
    {
      "time": 124.285,
      "duration": 0.214,
      "midi": 42,
      "noteNumber": 42,
      "velocity": 0.58,
      "track": "DRUMS",
      "channel": 9,
      "lane": "D"
    },
    {
      "time": 124.285,
      "duration": 0.214,
      "midi": 69,
      "noteNumber": 69,
      "velocity": 0.5,
      "track": "DRUMS",
      "channel": 9,
      "lane": "K"
    },
    {
      "time": 124.5,
      "duration": 0.214,
      "midi": 42,
      "noteNumber": 42,
      "velocity": 0.5,
      "track": "DRUMS",
      "channel": 9,
      "lane": "D"
    },
    {
      "time": 124.5,
      "duration": 0.214,
      "midi": 69,
      "noteNumber": 69,
      "velocity": 0.43,
      "track": "DRUMS",
      "channel": 9,
      "lane": "K"
    },
    {
      "time": 124.524,
      "duration": 1.054,
      "midi": 64,
      "noteNumber": 64,
      "velocity": 0.76,
      "track": "(unnamed)",
      "channel": 2,
      "lane": "J"
    },
    {
      "time": 124.714,
      "duration": 0.214,
      "midi": 37,
      "noteNumber": 37,
      "velocity": 0.66,
      "track": "DRUMS",
      "channel": 9,
      "lane": "D"
    },
    {
      "time": 124.714,
      "duration": 0.214,
      "midi": 42,
      "noteNumber": 42,
      "velocity": 0.58,
      "track": "DRUMS",
      "channel": 9,
      "lane": "D"
    },
    {
      "time": 124.714,
      "duration": 0.214,
      "midi": 69,
      "noteNumber": 69,
      "velocity": 0.43,
      "track": "DRUMS",
      "channel": 9,
      "lane": "K"
    },
    {
      "time": 124.752,
      "duration": 0.371,
      "midi": 59,
      "noteNumber": 59,
      "velocity": 0.8,
      "track": "(unnamed)",
      "channel": 2,
      "lane": "J"
    },
    {
      "time": 124.928,
      "duration": 0.092,
      "midi": 36,
      "noteNumber": 36,
      "velocity": 0.5,
      "track": "(unnamed)",
      "channel": 1,
      "lane": "D"
    },
    {
      "time": 124.928,
      "duration": 0.214,
      "midi": 35,
      "noteNumber": 35,
      "velocity": 0.43,
      "track": "DRUMS",
      "channel": 9,
      "lane": "D"
    },
    {
      "time": 124.928,
      "duration": 0.214,
      "midi": 42,
      "noteNumber": 42,
      "velocity": 0.66,
      "track": "DRUMS",
      "channel": 9,
      "lane": "D"
    },
    {
      "time": 124.928,
      "duration": 0.214,
      "midi": 69,
      "noteNumber": 69,
      "velocity": 0.43,
      "track": "DRUMS",
      "channel": 9,
      "lane": "K"
    },
    {
      "time": 124.964,
      "duration": 0.163,
      "midi": 55,
      "noteNumber": 55,
      "velocity": 0.65,
      "track": "(unnamed)",
      "channel": 2,
      "lane": "F"
    },
    {
      "time": 125.142,
      "duration": 0.621,
      "midi": 37,
      "noteNumber": 37,
      "velocity": 0.51,
      "track": "(unnamed)",
      "channel": 1,
      "lane": "D"
    },
    {
      "time": 125.142,
      "duration": 0.214,
      "midi": 42,
      "noteNumber": 42,
      "velocity": 0.5,
      "track": "DRUMS",
      "channel": 9,
      "lane": "D"
    },
    {
      "time": 125.142,
      "duration": 0.214,
      "midi": 69,
      "noteNumber": 69,
      "velocity": 0.66,
      "track": "DRUMS",
      "channel": 9,
      "lane": "K"
    },
    {
      "time": 125.16,
      "duration": 1.06,
      "midi": 49,
      "noteNumber": 49,
      "velocity": 0.81,
      "track": "(unnamed)",
      "channel": 2,
      "lane": "F"
    },
    {
      "time": 125.357,
      "duration": 0.214,
      "midi": 42,
      "noteNumber": 42,
      "velocity": 0.43,
      "track": "DRUMS",
      "channel": 9,
      "lane": "D"
    },
    {
      "time": 125.357,
      "duration": 0.214,
      "midi": 48,
      "noteNumber": 48,
      "velocity": 0.43,
      "track": "DRUMS",
      "channel": 9,
      "lane": "F"
    },
    {
      "time": 125.357,
      "duration": 0.214,
      "midi": 69,
      "noteNumber": 69,
      "velocity": 0.43,
      "track": "DRUMS",
      "channel": 9,
      "lane": "K"
    },
    {
      "time": 125.571,
      "duration": 0.001,
      "midi": 37,
      "noteNumber": 37,
      "velocity": 0.66,
      "track": "DRUMS",
      "channel": 9,
      "lane": "D"
    },
    {
      "time": 125.571,
      "duration": 0.214,
      "midi": 37,
      "noteNumber": 37,
      "velocity": 0.43,
      "track": "DRUMS",
      "channel": 9,
      "lane": "D"
    },
    {
      "time": 125.571,
      "duration": 0.214,
      "midi": 42,
      "noteNumber": 42,
      "velocity": 0.5,
      "track": "DRUMS",
      "channel": 9,
      "lane": "D"
    },
    {
      "time": 125.578,
      "duration": 0.219,
      "midi": 64,
      "noteNumber": 64,
      "velocity": 0.83,
      "track": "(unnamed)",
      "channel": 2,
      "lane": "J"
    },
    {
      "time": 125.584,
      "duration": 0.549,
      "midi": 55,
      "noteNumber": 55,
      "velocity": 0.8,
      "track": "(unnamed)",
      "channel": 2,
      "lane": "F"
    },
    {
      "time": 125.587,
      "duration": 0.223,
      "midi": 58,
      "noteNumber": 58,
      "velocity": 0.66,
      "track": "(unnamed)",
      "channel": 2,
      "lane": "J"
    },
    {
      "time": 125.785,
      "duration": 0.089,
      "midi": 43,
      "noteNumber": 43,
      "velocity": 0.46,
      "track": "(unnamed)",
      "channel": 1,
      "lane": "D"
    },
    {
      "time": 125.785,
      "duration": 0.214,
      "midi": 37,
      "noteNumber": 37,
      "velocity": 0.43,
      "track": "DRUMS",
      "channel": 9,
      "lane": "D"
    },
    {
      "time": 125.785,
      "duration": 0.214,
      "midi": 42,
      "noteNumber": 42,
      "velocity": 0.5,
      "track": "DRUMS",
      "channel": 9,
      "lane": "D"
    },
    {
      "time": 125.785,
      "duration": 0.214,
      "midi": 45,
      "noteNumber": 45,
      "velocity": 0.43,
      "track": "DRUMS",
      "channel": 9,
      "lane": "F"
    },
    {
      "time": 125.796,
      "duration": 0.214,
      "midi": 64,
      "noteNumber": 64,
      "velocity": 0.83,
      "track": "(unnamed)",
      "channel": 2,
      "lane": "J"
    },
    {
      "time": 126,
      "duration": 0.554,
      "midi": 43,
      "noteNumber": 43,
      "velocity": 0.65,
      "track": "(unnamed)",
      "channel": 1,
      "lane": "D"
    },
    {
      "time": 126,
      "duration": 0.214,
      "midi": 37,
      "noteNumber": 37,
      "velocity": 0.5,
      "track": "DRUMS",
      "channel": 9,
      "lane": "D"
    },
    {
      "time": 126,
      "duration": 0.214,
      "midi": 42,
      "noteNumber": 42,
      "velocity": 0.5,
      "track": "DRUMS",
      "channel": 9,
      "lane": "D"
    },
    {
      "time": 126,
      "duration": 0.214,
      "midi": 48,
      "noteNumber": 48,
      "velocity": 0.5,
      "track": "DRUMS",
      "channel": 9,
      "lane": "F"
    },
    {
      "time": 126.002,
      "duration": 0.246,
      "midi": 65,
      "noteNumber": 65,
      "velocity": 0.76,
      "track": "(unnamed)",
      "channel": 2,
      "lane": "J"
    },
    {
      "time": 126.214,
      "duration": 0.214,
      "midi": 37,
      "noteNumber": 37,
      "velocity": 0.43,
      "track": "DRUMS",
      "channel": 9,
      "lane": "D"
    },
    {
      "time": 126.214,
      "duration": 0.214,
      "midi": 42,
      "noteNumber": 42,
      "velocity": 0.5,
      "track": "DRUMS",
      "channel": 9,
      "lane": "D"
    },
    {
      "time": 126.214,
      "duration": 0.214,
      "midi": 48,
      "noteNumber": 48,
      "velocity": 0.5,
      "track": "DRUMS",
      "channel": 9,
      "lane": "F"
    },
    {
      "time": 126.247,
      "duration": 0.187,
      "midi": 65,
      "noteNumber": 65,
      "velocity": 0.66,
      "track": "(unnamed)",
      "channel": 2,
      "lane": "J"
    },
    {
      "time": 126.428,
      "duration": 0.214,
      "midi": 37,
      "noteNumber": 37,
      "velocity": 0.43,
      "track": "DRUMS",
      "channel": 9,
      "lane": "D"
    },
    {
      "time": 126.428,
      "duration": 0.214,
      "midi": 42,
      "noteNumber": 42,
      "velocity": 0.5,
      "track": "DRUMS",
      "channel": 9,
      "lane": "D"
    },
    {
      "time": 126.428,
      "duration": 0.214,
      "midi": 48,
      "noteNumber": 48,
      "velocity": 0.54,
      "track": "DRUMS",
      "channel": 9,
      "lane": "F"
    },
    {
      "time": 126.459,
      "duration": 0.208,
      "midi": 67,
      "noteNumber": 67,
      "velocity": 0.78,
      "track": "(unnamed)",
      "channel": 2,
      "lane": "J"
    },
    {
      "time": 126.642,
      "duration": 0.098,
      "midi": 37,
      "noteNumber": 37,
      "velocity": 0.47,
      "track": "(unnamed)",
      "channel": 1,
      "lane": "D"
    },
    {
      "time": 126.642,
      "duration": 0.214,
      "midi": 37,
      "noteNumber": 37,
      "velocity": 0.43,
      "track": "DRUMS",
      "channel": 9,
      "lane": "D"
    },
    {
      "time": 126.642,
      "duration": 0.214,
      "midi": 42,
      "noteNumber": 42,
      "velocity": 0.5,
      "track": "DRUMS",
      "channel": 9,
      "lane": "D"
    },
    {
      "time": 126.642,
      "duration": 0.214,
      "midi": 45,
      "noteNumber": 45,
      "velocity": 0.5,
      "track": "DRUMS",
      "channel": 9,
      "lane": "F"
    },
    {
      "time": 126.667,
      "duration": 0.234,
      "midi": 67,
      "noteNumber": 67,
      "velocity": 0.67,
      "track": "(unnamed)",
      "channel": 2,
      "lane": "J"
    },
    {
      "time": 126.857,
      "duration": 0.467,
      "midi": 38,
      "noteNumber": 38,
      "velocity": 0.54,
      "track": "(unnamed)",
      "channel": 1,
      "lane": "D"
    },
    {
      "time": 126.857,
      "duration": 0.214,
      "midi": 35,
      "noteNumber": 35,
      "velocity": 0.5,
      "track": "DRUMS",
      "channel": 9,
      "lane": "D"
    },
    {
      "time": 126.857,
      "duration": 0.214,
      "midi": 37,
      "noteNumber": 37,
      "velocity": 0.66,
      "track": "DRUMS",
      "channel": 9,
      "lane": "D"
    },
    {
      "time": 126.857,
      "duration": 0.214,
      "midi": 42,
      "noteNumber": 42,
      "velocity": 0.69,
      "track": "DRUMS",
      "channel": 9,
      "lane": "D"
    },
    {
      "time": 126.857,
      "duration": 0.214,
      "midi": 69,
      "noteNumber": 69,
      "velocity": 0.5,
      "track": "DRUMS",
      "channel": 9,
      "lane": "K"
    },
    {
      "time": 126.901,
      "duration": 0.225,
      "midi": 50,
      "noteNumber": 50,
      "velocity": 0.73,
      "track": "(unnamed)",
      "channel": 2,
      "lane": "F"
    },
    {
      "time": 126.906,
      "duration": 0.252,
      "midi": 69,
      "noteNumber": 69,
      "velocity": 0.75,
      "track": "(unnamed)",
      "channel": 2,
      "lane": "K"
    },
    {
      "time": 127.071,
      "duration": 0.214,
      "midi": 42,
      "noteNumber": 42,
      "velocity": 0.5,
      "track": "DRUMS",
      "channel": 9,
      "lane": "D"
    },
    {
      "time": 127.071,
      "duration": 0.214,
      "midi": 69,
      "noteNumber": 69,
      "velocity": 0.43,
      "track": "DRUMS",
      "channel": 9,
      "lane": "K"
    },
    {
      "time": 127.285,
      "duration": 0.214,
      "midi": 42,
      "noteNumber": 42,
      "velocity": 0.5,
      "track": "DRUMS",
      "channel": 9,
      "lane": "D"
    },
    {
      "time": 127.285,
      "duration": 0.214,
      "midi": 48,
      "noteNumber": 48,
      "velocity": 0.5,
      "track": "DRUMS",
      "channel": 9,
      "lane": "F"
    },
    {
      "time": 127.285,
      "duration": 0.214,
      "midi": 69,
      "noteNumber": 69,
      "velocity": 0.43,
      "track": "DRUMS",
      "channel": 9,
      "lane": "K"
    },
    {
      "time": 127.301,
      "duration": 0.638,
      "midi": 69,
      "noteNumber": 69,
      "velocity": 0.87,
      "track": "(unnamed)",
      "channel": 2,
      "lane": "K"
    },
    {
      "time": 127.308,
      "duration": 0.641,
      "midi": 60,
      "noteNumber": 60,
      "velocity": 0.71,
      "track": "(unnamed)",
      "channel": 2,
      "lane": "J"
    },
    {
      "time": 127.5,
      "duration": 0.114,
      "midi": 45,
      "noteNumber": 45,
      "velocity": 0.49,
      "track": "(unnamed)",
      "channel": 1,
      "lane": "F"
    },
    {
      "time": 127.5,
      "duration": 0.214,
      "midi": 35,
      "noteNumber": 35,
      "velocity": 0.43,
      "track": "DRUMS",
      "channel": 9,
      "lane": "D"
    },
    {
      "time": 127.5,
      "duration": 0.214,
      "midi": 37,
      "noteNumber": 37,
      "velocity": 0.74,
      "track": "DRUMS",
      "channel": 9,
      "lane": "D"
    },
    {
      "time": 127.5,
      "duration": 0.214,
      "midi": 46,
      "noteNumber": 46,
      "velocity": 0.5,
      "track": "DRUMS",
      "channel": 9,
      "lane": "F"
    },
    {
      "time": 127.5,
      "duration": 0.214,
      "midi": 69,
      "noteNumber": 69,
      "velocity": 0.43,
      "track": "DRUMS",
      "channel": 9,
      "lane": "K"
    },
    {
      "time": 127.531,
      "duration": 0.763,
      "midi": 50,
      "noteNumber": 50,
      "velocity": 0.63,
      "track": "(unnamed)",
      "channel": 2,
      "lane": "F"
    },
    {
      "time": 127.714,
      "duration": 0.467,
      "midi": 45,
      "noteNumber": 45,
      "velocity": 0.61,
      "track": "(unnamed)",
      "channel": 1,
      "lane": "F"
    },
    {
      "time": 127.714,
      "duration": 0.214,
      "midi": 35,
      "noteNumber": 35,
      "velocity": 0.5,
      "track": "DRUMS",
      "channel": 9,
      "lane": "D"
    },
    {
      "time": 127.714,
      "duration": 0.214,
      "midi": 42,
      "noteNumber": 42,
      "velocity": 0.58,
      "track": "DRUMS",
      "channel": 9,
      "lane": "D"
    },
    {
      "time": 127.714,
      "duration": 0.214,
      "midi": 69,
      "noteNumber": 69,
      "velocity": 0.5,
      "track": "DRUMS",
      "channel": 9,
      "lane": "K"
    },
    {
      "time": 127.928,
      "duration": 0.214,
      "midi": 42,
      "noteNumber": 42,
      "velocity": 0.5,
      "track": "DRUMS",
      "channel": 9,
      "lane": "D"
    },
    {
      "time": 127.928,
      "duration": 0.214,
      "midi": 69,
      "noteNumber": 69,
      "velocity": 0.43,
      "track": "DRUMS",
      "channel": 9,
      "lane": "K"
    },
    {
      "time": 127.939,
      "duration": 0.357,
      "midi": 69,
      "noteNumber": 69,
      "velocity": 0.75,
      "track": "(unnamed)",
      "channel": 2,
      "lane": "K"
    },
    {
      "time": 127.948,
      "duration": 0.339,
      "midi": 60,
      "noteNumber": 60,
      "velocity": 0.81,
      "track": "(unnamed)",
      "channel": 2,
      "lane": "J"
    },
    {
      "time": 127.953,
      "duration": 0.429,
      "midi": 65,
      "noteNumber": 65,
      "velocity": 0.72,
      "track": "(unnamed)",
      "channel": 2,
      "lane": "J"
    },
    {
      "time": 128.142,
      "duration": 0.214,
      "midi": 37,
      "noteNumber": 37,
      "velocity": 0.66,
      "track": "DRUMS",
      "channel": 9,
      "lane": "D"
    },
    {
      "time": 128.142,
      "duration": 0.214,
      "midi": 42,
      "noteNumber": 42,
      "velocity": 0.58,
      "track": "DRUMS",
      "channel": 9,
      "lane": "D"
    },
    {
      "time": 128.142,
      "duration": 0.214,
      "midi": 69,
      "noteNumber": 69,
      "velocity": 0.43,
      "track": "DRUMS",
      "channel": 9,
      "lane": "K"
    },
    {
      "time": 128.357,
      "duration": 0.089,
      "midi": 38,
      "noteNumber": 38,
      "velocity": 0.52,
      "track": "(unnamed)",
      "channel": 1,
      "lane": "D"
    },
    {
      "time": 128.357,
      "duration": 0.214,
      "midi": 35,
      "noteNumber": 35,
      "velocity": 0.43,
      "track": "DRUMS",
      "channel": 9,
      "lane": "D"
    },
    {
      "time": 128.357,
      "duration": 0.214,
      "midi": 42,
      "noteNumber": 42,
      "velocity": 0.66,
      "track": "DRUMS",
      "channel": 9,
      "lane": "D"
    },
    {
      "time": 128.357,
      "duration": 0.214,
      "midi": 69,
      "noteNumber": 69,
      "velocity": 0.43,
      "track": "DRUMS",
      "channel": 9,
      "lane": "K"
    },
    {
      "time": 128.377,
      "duration": 0.304,
      "midi": 60,
      "noteNumber": 60,
      "velocity": 0.76,
      "track": "(unnamed)",
      "channel": 2,
      "lane": "J"
    },
    {
      "time": 128.381,
      "duration": 0.435,
      "midi": 65,
      "noteNumber": 65,
      "velocity": 0.7,
      "track": "(unnamed)",
      "channel": 2,
      "lane": "J"
    },
    {
      "time": 128.386,
      "duration": 0.491,
      "midi": 69,
      "noteNumber": 69,
      "velocity": 0.76,
      "track": "(unnamed)",
      "channel": 2,
      "lane": "K"
    },
    {
      "time": 128.392,
      "duration": 0.386,
      "midi": 55,
      "noteNumber": 55,
      "velocity": 0.72,
      "track": "(unnamed)",
      "channel": 2,
      "lane": "F"
    },
    {
      "time": 128.571,
      "duration": 0.531,
      "midi": 43,
      "noteNumber": 43,
      "velocity": 0.52,
      "track": "(unnamed)",
      "channel": 1,
      "lane": "D"
    },
    {
      "time": 128.571,
      "duration": 0.214,
      "midi": 35,
      "noteNumber": 35,
      "velocity": 0.5,
      "track": "DRUMS",
      "channel": 9,
      "lane": "D"
    },
    {
      "time": 128.571,
      "duration": 0.214,
      "midi": 42,
      "noteNumber": 42,
      "velocity": 0.58,
      "track": "DRUMS",
      "channel": 9,
      "lane": "D"
    },
    {
      "time": 128.571,
      "duration": 0.214,
      "midi": 69,
      "noteNumber": 69,
      "velocity": 0.5,
      "track": "DRUMS",
      "channel": 9,
      "lane": "K"
    },
    {
      "time": 128.785,
      "duration": 0.214,
      "midi": 42,
      "noteNumber": 42,
      "velocity": 0.5,
      "track": "DRUMS",
      "channel": 9,
      "lane": "D"
    },
    {
      "time": 128.785,
      "duration": 0.214,
      "midi": 69,
      "noteNumber": 69,
      "velocity": 0.43,
      "track": "DRUMS",
      "channel": 9,
      "lane": "K"
    },
    {
      "time": 129,
      "duration": 0.214,
      "midi": 37,
      "noteNumber": 37,
      "velocity": 0.66,
      "track": "DRUMS",
      "channel": 9,
      "lane": "D"
    },
    {
      "time": 129,
      "duration": 0.214,
      "midi": 42,
      "noteNumber": 42,
      "velocity": 0.58,
      "track": "DRUMS",
      "channel": 9,
      "lane": "D"
    },
    {
      "time": 129,
      "duration": 0.214,
      "midi": 69,
      "noteNumber": 69,
      "velocity": 0.43,
      "track": "DRUMS",
      "channel": 9,
      "lane": "K"
    },
    {
      "time": 129.02,
      "duration": 0.469,
      "midi": 47,
      "noteNumber": 47,
      "velocity": 0.8,
      "track": "(unnamed)",
      "channel": 2,
      "lane": "F"
    },
    {
      "time": 129.022,
      "duration": 0.237,
      "midi": 62,
      "noteNumber": 62,
      "velocity": 0.75,
      "track": "(unnamed)",
      "channel": 2,
      "lane": "J"
    },
    {
      "time": 129.029,
      "duration": 0.516,
      "midi": 53,
      "noteNumber": 53,
      "velocity": 0.74,
      "track": "(unnamed)",
      "channel": 2,
      "lane": "F"
    },
    {
      "time": 129.033,
      "duration": 0.422,
      "midi": 57,
      "noteNumber": 57,
      "velocity": 0.64,
      "track": "(unnamed)",
      "channel": 2,
      "lane": "J"
    },
    {
      "time": 129.214,
      "duration": 0.109,
      "midi": 50,
      "noteNumber": 50,
      "velocity": 0.54,
      "track": "(unnamed)",
      "channel": 1,
      "lane": "F"
    },
    {
      "time": 129.214,
      "duration": 0.214,
      "midi": 35,
      "noteNumber": 35,
      "velocity": 0.5,
      "track": "DRUMS",
      "channel": 9,
      "lane": "D"
    },
    {
      "time": 129.214,
      "duration": 0.214,
      "midi": 42,
      "noteNumber": 42,
      "velocity": 0.58,
      "track": "DRUMS",
      "channel": 9,
      "lane": "D"
    },
    {
      "time": 129.214,
      "duration": 0.214,
      "midi": 69,
      "noteNumber": 69,
      "velocity": 0.5,
      "track": "DRUMS",
      "channel": 9,
      "lane": "K"
    },
    {
      "time": 129.258,
      "duration": 0.212,
      "midi": 62,
      "noteNumber": 62,
      "velocity": 0.75,
      "track": "(unnamed)",
      "channel": 2,
      "lane": "J"
    },
    {
      "time": 129.428,
      "duration": 0.554,
      "midi": 50,
      "noteNumber": 50,
      "velocity": 0.57,
      "track": "(unnamed)",
      "channel": 1,
      "lane": "F"
    },
    {
      "time": 129.428,
      "duration": 0.214,
      "midi": 35,
      "noteNumber": 35,
      "velocity": 0.5,
      "track": "DRUMS",
      "channel": 9,
      "lane": "D"
    },
    {
      "time": 129.428,
      "duration": 0.214,
      "midi": 42,
      "noteNumber": 42,
      "velocity": 0.58,
      "track": "DRUMS",
      "channel": 9,
      "lane": "D"
    },
    {
      "time": 129.428,
      "duration": 0.214,
      "midi": 69,
      "noteNumber": 69,
      "velocity": 0.5,
      "track": "DRUMS",
      "channel": 9,
      "lane": "K"
    },
    {
      "time": 129.464,
      "duration": 0.192,
      "midi": 64,
      "noteNumber": 64,
      "velocity": 0.76,
      "track": "(unnamed)",
      "channel": 2,
      "lane": "J"
    },
    {
      "time": 129.642,
      "duration": 0.214,
      "midi": 37,
      "noteNumber": 37,
      "velocity": 0.74,
      "track": "DRUMS",
      "channel": 9,
      "lane": "D"
    },
    {
      "time": 129.642,
      "duration": 0.214,
      "midi": 42,
      "noteNumber": 42,
      "velocity": 0.58,
      "track": "DRUMS",
      "channel": 9,
      "lane": "D"
    },
    {
      "time": 129.642,
      "duration": 0.214,
      "midi": 69,
      "noteNumber": 69,
      "velocity": 0.43,
      "track": "DRUMS",
      "channel": 9,
      "lane": "K"
    },
    {
      "time": 129.656,
      "duration": 0.208,
      "midi": 64,
      "noteNumber": 64,
      "velocity": 0.77,
      "track": "(unnamed)",
      "channel": 2,
      "lane": "J"
    },
    {
      "time": 129.857,
      "duration": 0.214,
      "midi": 42,
      "noteNumber": 42,
      "velocity": 0.58,
      "track": "DRUMS",
      "channel": 9,
      "lane": "D"
    },
    {
      "time": 129.857,
      "duration": 0.214,
      "midi": 69,
      "noteNumber": 69,
      "velocity": 0.43,
      "track": "DRUMS",
      "channel": 9,
      "lane": "K"
    },
    {
      "time": 129.868,
      "duration": 0.199,
      "midi": 65,
      "noteNumber": 65,
      "velocity": 0.74,
      "track": "(unnamed)",
      "channel": 2,
      "lane": "J"
    },
    {
      "time": 130.071,
      "duration": 0.109,
      "midi": 43,
      "noteNumber": 43,
      "velocity": 0.44,
      "track": "(unnamed)",
      "channel": 1,
      "lane": "D"
    },
    {
      "time": 130.071,
      "duration": 0.214,
      "midi": 35,
      "noteNumber": 35,
      "velocity": 0.58,
      "track": "DRUMS",
      "channel": 9,
      "lane": "D"
    },
    {
      "time": 130.071,
      "duration": 0.214,
      "midi": 46,
      "noteNumber": 46,
      "velocity": 0.5,
      "track": "DRUMS",
      "channel": 9,
      "lane": "F"
    },
    {
      "time": 130.071,
      "duration": 0.214,
      "midi": 69,
      "noteNumber": 69,
      "velocity": 0.5,
      "track": "DRUMS",
      "channel": 9,
      "lane": "K"
    },
    {
      "time": 130.08,
      "duration": 0.172,
      "midi": 65,
      "noteNumber": 65,
      "velocity": 0.72,
      "track": "(unnamed)",
      "channel": 2,
      "lane": "J"
    },
    {
      "time": 130.285,
      "duration": 0.482,
      "midi": 36,
      "noteNumber": 36,
      "velocity": 0.63,
      "track": "(unnamed)",
      "channel": 1,
      "lane": "D"
    },
    {
      "time": 130.285,
      "duration": 0.214,
      "midi": 35,
      "noteNumber": 35,
      "velocity": 0.5,
      "track": "DRUMS",
      "channel": 9,
      "lane": "D"
    },
    {
      "time": 130.285,
      "duration": 0.214,
      "midi": 37,
      "noteNumber": 37,
      "velocity": 0.66,
      "track": "DRUMS",
      "channel": 9,
      "lane": "D"
    },
    {
      "time": 130.285,
      "duration": 0.214,
      "midi": 42,
      "noteNumber": 42,
      "velocity": 0.69,
      "track": "DRUMS",
      "channel": 9,
      "lane": "D"
    },
    {
      "time": 130.285,
      "duration": 0.214,
      "midi": 69,
      "noteNumber": 69,
      "velocity": 0.5,
      "track": "DRUMS",
      "channel": 9,
      "lane": "K"
    },
    {
      "time": 130.319,
      "duration": 0.252,
      "midi": 67,
      "noteNumber": 67,
      "velocity": 0.8,
      "track": "(unnamed)",
      "channel": 2,
      "lane": "J"
    },
    {
      "time": 130.5,
      "duration": 0.214,
      "midi": 42,
      "noteNumber": 42,
      "velocity": 0.5,
      "track": "DRUMS",
      "channel": 9,
      "lane": "D"
    },
    {
      "time": 130.5,
      "duration": 0.214,
      "midi": 69,
      "noteNumber": 69,
      "velocity": 0.43,
      "track": "DRUMS",
      "channel": 9,
      "lane": "K"
    },
    {
      "time": 130.714,
      "duration": 0.214,
      "midi": 42,
      "noteNumber": 42,
      "velocity": 0.5,
      "track": "DRUMS",
      "channel": 9,
      "lane": "D"
    },
    {
      "time": 130.714,
      "duration": 0.214,
      "midi": 48,
      "noteNumber": 48,
      "velocity": 0.5,
      "track": "DRUMS",
      "channel": 9,
      "lane": "F"
    },
    {
      "time": 130.714,
      "duration": 0.214,
      "midi": 69,
      "noteNumber": 69,
      "velocity": 0.43,
      "track": "DRUMS",
      "channel": 9,
      "lane": "K"
    },
    {
      "time": 130.928,
      "duration": 0.107,
      "midi": 43,
      "noteNumber": 43,
      "velocity": 0.54,
      "track": "(unnamed)",
      "channel": 1,
      "lane": "D"
    },
    {
      "time": 130.928,
      "duration": 0.214,
      "midi": 35,
      "noteNumber": 35,
      "velocity": 0.43,
      "track": "DRUMS",
      "channel": 9,
      "lane": "D"
    },
    {
      "time": 130.928,
      "duration": 0.214,
      "midi": 37,
      "noteNumber": 37,
      "velocity": 0.74,
      "track": "DRUMS",
      "channel": 9,
      "lane": "D"
    },
    {
      "time": 130.928,
      "duration": 0.214,
      "midi": 42,
      "noteNumber": 42,
      "velocity": 0.5,
      "track": "DRUMS",
      "channel": 9,
      "lane": "D"
    },
    {
      "time": 130.928,
      "duration": 0.214,
      "midi": 69,
      "noteNumber": 69,
      "velocity": 0.43,
      "track": "DRUMS",
      "channel": 9,
      "lane": "K"
    },
    {
      "time": 130.964,
      "duration": 0.089,
      "midi": 52,
      "noteNumber": 52,
      "velocity": 0.77,
      "track": "(unnamed)",
      "channel": 2,
      "lane": "F"
    },
    {
      "time": 130.968,
      "duration": 0.203,
      "midi": 64,
      "noteNumber": 64,
      "velocity": 0.7,
      "track": "(unnamed)",
      "channel": 2,
      "lane": "J"
    },
    {
      "time": 130.973,
      "duration": 0.203,
      "midi": 67,
      "noteNumber": 67,
      "velocity": 0.72,
      "track": "(unnamed)",
      "channel": 2,
      "lane": "J"
    },
    {
      "time": 130.979,
      "duration": 0.232,
      "midi": 48,
      "noteNumber": 48,
      "velocity": 0.63,
      "track": "(unnamed)",
      "channel": 2,
      "lane": "F"
    },
    {
      "time": 130.984,
      "duration": 0.199,
      "midi": 59,
      "noteNumber": 59,
      "velocity": 0.77,
      "track": "(unnamed)",
      "channel": 2,
      "lane": "J"
    },
    {
      "time": 131.142,
      "duration": 0.567,
      "midi": 43,
      "noteNumber": 43,
      "velocity": 0.58,
      "track": "(unnamed)",
      "channel": 1,
      "lane": "D"
    },
    {
      "time": 131.142,
      "duration": 0.214,
      "midi": 35,
      "noteNumber": 35,
      "velocity": 0.5,
      "track": "DRUMS",
      "channel": 9,
      "lane": "D"
    },
    {
      "time": 131.142,
      "duration": 0.214,
      "midi": 42,
      "noteNumber": 42,
      "velocity": 0.58,
      "track": "DRUMS",
      "channel": 9,
      "lane": "D"
    },
    {
      "time": 131.142,
      "duration": 0.214,
      "midi": 69,
      "noteNumber": 69,
      "velocity": 0.5,
      "track": "DRUMS",
      "channel": 9,
      "lane": "K"
    },
    {
      "time": 131.167,
      "duration": 0.085,
      "midi": 52,
      "noteNumber": 52,
      "velocity": 0.65,
      "track": "(unnamed)",
      "channel": 2,
      "lane": "F"
    },
    {
      "time": 131.171,
      "duration": 0.225,
      "midi": 64,
      "noteNumber": 64,
      "velocity": 0.66,
      "track": "(unnamed)",
      "channel": 2,
      "lane": "J"
    },
    {
      "time": 131.176,
      "duration": 0.225,
      "midi": 67,
      "noteNumber": 67,
      "velocity": 0.64,
      "track": "(unnamed)",
      "channel": 2,
      "lane": "J"
    },
    {
      "time": 131.183,
      "duration": 0.21,
      "midi": 59,
      "noteNumber": 59,
      "velocity": 0.65,
      "track": "(unnamed)",
      "channel": 2,
      "lane": "J"
    },
    {
      "time": 131.357,
      "duration": 0.214,
      "midi": 42,
      "noteNumber": 42,
      "velocity": 0.5,
      "track": "DRUMS",
      "channel": 9,
      "lane": "D"
    },
    {
      "time": 131.357,
      "duration": 0.214,
      "midi": 69,
      "noteNumber": 69,
      "velocity": 0.43,
      "track": "DRUMS",
      "channel": 9,
      "lane": "K"
    },
    {
      "time": 131.392,
      "duration": 0.228,
      "midi": 59,
      "noteNumber": 59,
      "velocity": 0.8,
      "track": "(unnamed)",
      "channel": 2,
      "lane": "J"
    },
    {
      "time": 131.397,
      "duration": 0.248,
      "midi": 64,
      "noteNumber": 64,
      "velocity": 0.74,
      "track": "(unnamed)",
      "channel": 2,
      "lane": "J"
    },
    {
      "time": 131.401,
      "duration": 0.234,
      "midi": 67,
      "noteNumber": 67,
      "velocity": 0.81,
      "track": "(unnamed)",
      "channel": 2,
      "lane": "J"
    },
    {
      "time": 131.571,
      "duration": 0.214,
      "midi": 37,
      "noteNumber": 37,
      "velocity": 0.66,
      "track": "DRUMS",
      "channel": 9,
      "lane": "D"
    },
    {
      "time": 131.571,
      "duration": 0.214,
      "midi": 42,
      "noteNumber": 42,
      "velocity": 0.58,
      "track": "DRUMS",
      "channel": 9,
      "lane": "D"
    },
    {
      "time": 131.571,
      "duration": 0.214,
      "midi": 69,
      "noteNumber": 69,
      "velocity": 0.43,
      "track": "DRUMS",
      "channel": 9,
      "lane": "K"
    },
    {
      "time": 131.785,
      "duration": 0.092,
      "midi": 36,
      "noteNumber": 36,
      "velocity": 0.48,
      "track": "(unnamed)",
      "channel": 1,
      "lane": "D"
    },
    {
      "time": 131.785,
      "duration": 0.214,
      "midi": 35,
      "noteNumber": 35,
      "velocity": 0.43,
      "track": "DRUMS",
      "channel": 9,
      "lane": "D"
    },
    {
      "time": 131.785,
      "duration": 0.214,
      "midi": 42,
      "noteNumber": 42,
      "velocity": 0.66,
      "track": "DRUMS",
      "channel": 9,
      "lane": "D"
    },
    {
      "time": 131.785,
      "duration": 0.214,
      "midi": 69,
      "noteNumber": 69,
      "velocity": 0.43,
      "track": "DRUMS",
      "channel": 9,
      "lane": "K"
    },
    {
      "time": 131.819,
      "duration": 0.335,
      "midi": 57,
      "noteNumber": 57,
      "velocity": 0.64,
      "track": "(unnamed)",
      "channel": 2,
      "lane": "J"
    },
    {
      "time": 131.823,
      "duration": 0.357,
      "midi": 64,
      "noteNumber": 64,
      "velocity": 0.65,
      "track": "(unnamed)",
      "channel": 2,
      "lane": "J"
    },
    {
      "time": 131.828,
      "duration": 0.373,
      "midi": 67,
      "noteNumber": 67,
      "velocity": 0.69,
      "track": "(unnamed)",
      "channel": 2,
      "lane": "J"
    },
    {
      "time": 132,
      "duration": 0.536,
      "midi": 41,
      "noteNumber": 41,
      "velocity": 0.61,
      "track": "(unnamed)",
      "channel": 1,
      "lane": "D"
    },
    {
      "time": 132,
      "duration": 0.214,
      "midi": 35,
      "noteNumber": 35,
      "velocity": 0.5,
      "track": "DRUMS",
      "channel": 9,
      "lane": "D"
    },
    {
      "time": 132,
      "duration": 0.214,
      "midi": 42,
      "noteNumber": 42,
      "velocity": 0.58,
      "track": "DRUMS",
      "channel": 9,
      "lane": "D"
    },
    {
      "time": 132,
      "duration": 0.214,
      "midi": 69,
      "noteNumber": 69,
      "velocity": 0.5,
      "track": "DRUMS",
      "channel": 9,
      "lane": "K"
    },
    {
      "time": 132.214,
      "duration": 0.214,
      "midi": 42,
      "noteNumber": 42,
      "velocity": 0.5,
      "track": "DRUMS",
      "channel": 9,
      "lane": "D"
    },
    {
      "time": 132.214,
      "duration": 0.214,
      "midi": 69,
      "noteNumber": 69,
      "velocity": 0.43,
      "track": "DRUMS",
      "channel": 9,
      "lane": "K"
    },
    {
      "time": 132.229,
      "duration": 0.681,
      "midi": 60,
      "noteNumber": 60,
      "velocity": 0.84,
      "track": "(unnamed)",
      "channel": 2,
      "lane": "J"
    },
    {
      "time": 132.428,
      "duration": 0.214,
      "midi": 37,
      "noteNumber": 37,
      "velocity": 0.66,
      "track": "DRUMS",
      "channel": 9,
      "lane": "D"
    },
    {
      "time": 132.428,
      "duration": 0.214,
      "midi": 42,
      "noteNumber": 42,
      "velocity": 0.58,
      "track": "DRUMS",
      "channel": 9,
      "lane": "D"
    },
    {
      "time": 132.428,
      "duration": 0.214,
      "midi": 69,
      "noteNumber": 69,
      "velocity": 0.43,
      "track": "DRUMS",
      "channel": 9,
      "lane": "K"
    },
    {
      "time": 132.642,
      "duration": 0.109,
      "midi": 48,
      "noteNumber": 48,
      "velocity": 0.44,
      "track": "(unnamed)",
      "channel": 1,
      "lane": "F"
    },
    {
      "time": 132.642,
      "duration": 0.214,
      "midi": 35,
      "noteNumber": 35,
      "velocity": 0.5,
      "track": "DRUMS",
      "channel": 9,
      "lane": "D"
    },
    {
      "time": 132.642,
      "duration": 0.214,
      "midi": 42,
      "noteNumber": 42,
      "velocity": 0.58,
      "track": "DRUMS",
      "channel": 9,
      "lane": "D"
    },
    {
      "time": 132.642,
      "duration": 0.214,
      "midi": 69,
      "noteNumber": 69,
      "velocity": 0.5,
      "track": "DRUMS",
      "channel": 9,
      "lane": "K"
    },
    {
      "time": 132.857,
      "duration": 0.609,
      "midi": 48,
      "noteNumber": 48,
      "velocity": 0.61,
      "track": "(unnamed)",
      "channel": 1,
      "lane": "F"
    },
    {
      "time": 132.857,
      "duration": 0.214,
      "midi": 35,
      "noteNumber": 35,
      "velocity": 0.5,
      "track": "DRUMS",
      "channel": 9,
      "lane": "D"
    },
    {
      "time": 132.857,
      "duration": 0.214,
      "midi": 42,
      "noteNumber": 42,
      "velocity": 0.58,
      "track": "DRUMS",
      "channel": 9,
      "lane": "D"
    },
    {
      "time": 132.857,
      "duration": 0.214,
      "midi": 69,
      "noteNumber": 69,
      "velocity": 0.5,
      "track": "DRUMS",
      "channel": 9,
      "lane": "K"
    },
    {
      "time": 132.866,
      "duration": 0.333,
      "midi": 62,
      "noteNumber": 62,
      "velocity": 0.83,
      "track": "(unnamed)",
      "channel": 2,
      "lane": "J"
    },
    {
      "time": 133.071,
      "duration": 0.214,
      "midi": 37,
      "noteNumber": 37,
      "velocity": 0.74,
      "track": "DRUMS",
      "channel": 9,
      "lane": "D"
    },
    {
      "time": 133.071,
      "duration": 0.214,
      "midi": 42,
      "noteNumber": 42,
      "velocity": 0.58,
      "track": "DRUMS",
      "channel": 9,
      "lane": "D"
    },
    {
      "time": 133.071,
      "duration": 0.214,
      "midi": 69,
      "noteNumber": 69,
      "velocity": 0.43,
      "track": "DRUMS",
      "channel": 9,
      "lane": "K"
    },
    {
      "time": 133.272,
      "duration": 0.234,
      "midi": 64,
      "noteNumber": 64,
      "velocity": 0.92,
      "track": "(unnamed)",
      "channel": 2,
      "lane": "J"
    },
    {
      "time": 133.285,
      "duration": 0.214,
      "midi": 42,
      "noteNumber": 42,
      "velocity": 0.58,
      "track": "DRUMS",
      "channel": 9,
      "lane": "D"
    },
    {
      "time": 133.285,
      "duration": 0.214,
      "midi": 69,
      "noteNumber": 69,
      "velocity": 0.43,
      "track": "DRUMS",
      "channel": 9,
      "lane": "K"
    },
    {
      "time": 133.5,
      "duration": 0.114,
      "midi": 41,
      "noteNumber": 41,
      "velocity": 0.46,
      "track": "(unnamed)",
      "channel": 1,
      "lane": "D"
    },
    {
      "time": 133.5,
      "duration": 0.214,
      "midi": 35,
      "noteNumber": 35,
      "velocity": 0.58,
      "track": "DRUMS",
      "channel": 9,
      "lane": "D"
    },
    {
      "time": 133.5,
      "duration": 0.214,
      "midi": 42,
      "noteNumber": 42,
      "velocity": 0.5,
      "track": "DRUMS",
      "channel": 9,
      "lane": "D"
    },
    {
      "time": 133.5,
      "duration": 0.214,
      "midi": 69,
      "noteNumber": 69,
      "velocity": 0.5,
      "track": "DRUMS",
      "channel": 9,
      "lane": "K"
    },
    {
      "time": 133.714,
      "duration": 0.531,
      "midi": 35,
      "noteNumber": 35,
      "velocity": 0.61,
      "track": "(unnamed)",
      "channel": 1,
      "lane": "D"
    },
    {
      "time": 133.714,
      "duration": 0.214,
      "midi": 35,
      "noteNumber": 35,
      "velocity": 0.5,
      "track": "DRUMS",
      "channel": 9,
      "lane": "D"
    },
    {
      "time": 133.714,
      "duration": 0.214,
      "midi": 37,
      "noteNumber": 37,
      "velocity": 0.66,
      "track": "DRUMS",
      "channel": 9,
      "lane": "D"
    },
    {
      "time": 133.714,
      "duration": 0.214,
      "midi": 42,
      "noteNumber": 42,
      "velocity": 0.69,
      "track": "DRUMS",
      "channel": 9,
      "lane": "D"
    },
    {
      "time": 133.714,
      "duration": 0.214,
      "midi": 69,
      "noteNumber": 69,
      "velocity": 0.5,
      "track": "DRUMS",
      "channel": 9,
      "lane": "K"
    },
    {
      "time": 133.721,
      "duration": 0.681,
      "midi": 65,
      "noteNumber": 65,
      "velocity": 0.89,
      "track": "(unnamed)",
      "channel": 2,
      "lane": "J"
    },
    {
      "time": 133.928,
      "duration": 0.214,
      "midi": 42,
      "noteNumber": 42,
      "velocity": 0.5,
      "track": "DRUMS",
      "channel": 9,
      "lane": "D"
    },
    {
      "time": 133.928,
      "duration": 0.214,
      "midi": 69,
      "noteNumber": 69,
      "velocity": 0.43,
      "track": "DRUMS",
      "channel": 9,
      "lane": "K"
    },
    {
      "time": 133.937,
      "duration": 1.304,
      "midi": 47,
      "noteNumber": 47,
      "velocity": 0.81,
      "track": "(unnamed)",
      "channel": 2,
      "lane": "F"
    },
    {
      "time": 134.14,
      "duration": 0.884,
      "midi": 57,
      "noteNumber": 57,
      "velocity": 0.87,
      "track": "(unnamed)",
      "channel": 2,
      "lane": "J"
    },
    {
      "time": 134.142,
      "duration": 0.214,
      "midi": 42,
      "noteNumber": 42,
      "velocity": 0.5,
      "track": "DRUMS",
      "channel": 9,
      "lane": "D"
    },
    {
      "time": 134.142,
      "duration": 0.214,
      "midi": 69,
      "noteNumber": 69,
      "velocity": 0.43,
      "track": "DRUMS",
      "channel": 9,
      "lane": "K"
    },
    {
      "time": 134.145,
      "duration": 0.873,
      "midi": 62,
      "noteNumber": 62,
      "velocity": 0.73,
      "track": "(unnamed)",
      "channel": 2,
      "lane": "J"
    },
    {
      "time": 134.357,
      "duration": 0.114,
      "midi": 41,
      "noteNumber": 41,
      "velocity": 0.57,
      "track": "(unnamed)",
      "channel": 1,
      "lane": "D"
    },
    {
      "time": 134.357,
      "duration": 0.214,
      "midi": 35,
      "noteNumber": 35,
      "velocity": 0.43,
      "track": "DRUMS",
      "channel": 9,
      "lane": "D"
    },
    {
      "time": 134.357,
      "duration": 0.214,
      "midi": 37,
      "noteNumber": 37,
      "velocity": 0.74,
      "track": "DRUMS",
      "channel": 9,
      "lane": "D"
    },
    {
      "time": 134.357,
      "duration": 0.214,
      "midi": 42,
      "noteNumber": 42,
      "velocity": 0.5,
      "track": "DRUMS",
      "channel": 9,
      "lane": "D"
    },
    {
      "time": 134.357,
      "duration": 0.214,
      "midi": 69,
      "noteNumber": 69,
      "velocity": 0.43,
      "track": "DRUMS",
      "channel": 9,
      "lane": "K"
    },
    {
      "time": 134.401,
      "duration": 0.625,
      "midi": 65,
      "noteNumber": 65,
      "velocity": 0.75,
      "track": "(unnamed)",
      "channel": 2,
      "lane": "J"
    },
    {
      "time": 134.571,
      "duration": 0.545,
      "midi": 41,
      "noteNumber": 41,
      "velocity": 0.64,
      "track": "(unnamed)",
      "channel": 1,
      "lane": "D"
    },
    {
      "time": 134.571,
      "duration": 0.214,
      "midi": 35,
      "noteNumber": 35,
      "velocity": 0.5,
      "track": "DRUMS",
      "channel": 9,
      "lane": "D"
    },
    {
      "time": 134.571,
      "duration": 0.214,
      "midi": 42,
      "noteNumber": 42,
      "velocity": 0.58,
      "track": "DRUMS",
      "channel": 9,
      "lane": "D"
    },
    {
      "time": 134.571,
      "duration": 0.214,
      "midi": 69,
      "noteNumber": 69,
      "velocity": 0.5,
      "track": "DRUMS",
      "channel": 9,
      "lane": "K"
    },
    {
      "time": 134.785,
      "duration": 0.214,
      "midi": 42,
      "noteNumber": 42,
      "velocity": 0.5,
      "track": "DRUMS",
      "channel": 9,
      "lane": "D"
    },
    {
      "time": 134.785,
      "duration": 0.214,
      "midi": 69,
      "noteNumber": 69,
      "velocity": 0.43,
      "track": "DRUMS",
      "channel": 9,
      "lane": "K"
    },
    {
      "time": 135,
      "duration": 0.214,
      "midi": 37,
      "noteNumber": 37,
      "velocity": 0.66,
      "track": "DRUMS",
      "channel": 9,
      "lane": "D"
    },
    {
      "time": 135,
      "duration": 0.214,
      "midi": 42,
      "noteNumber": 42,
      "velocity": 0.58,
      "track": "DRUMS",
      "channel": 9,
      "lane": "D"
    },
    {
      "time": 135,
      "duration": 0.214,
      "midi": 69,
      "noteNumber": 69,
      "velocity": 0.43,
      "track": "DRUMS",
      "channel": 9,
      "lane": "K"
    },
    {
      "time": 135.017,
      "duration": 0.279,
      "midi": 62,
      "noteNumber": 62,
      "velocity": 0.81,
      "track": "(unnamed)",
      "channel": 2,
      "lane": "J"
    },
    {
      "time": 135.024,
      "duration": 0.257,
      "midi": 57,
      "noteNumber": 57,
      "velocity": 0.69,
      "track": "(unnamed)",
      "channel": 2,
      "lane": "J"
    },
    {
      "time": 135.214,
      "duration": 0.089,
      "midi": 35,
      "noteNumber": 35,
      "velocity": 0.56,
      "track": "(unnamed)",
      "channel": 1,
      "lane": "D"
    },
    {
      "time": 135.214,
      "duration": 0.214,
      "midi": 35,
      "noteNumber": 35,
      "velocity": 0.43,
      "track": "DRUMS",
      "channel": 9,
      "lane": "D"
    },
    {
      "time": 135.214,
      "duration": 0.214,
      "midi": 42,
      "noteNumber": 42,
      "velocity": 0.66,
      "track": "DRUMS",
      "channel": 9,
      "lane": "D"
    },
    {
      "time": 135.214,
      "duration": 0.214,
      "midi": 69,
      "noteNumber": 69,
      "velocity": 0.43,
      "track": "DRUMS",
      "channel": 9,
      "lane": "K"
    },
    {
      "time": 135.428,
      "duration": 0.574,
      "midi": 40,
      "noteNumber": 40,
      "velocity": 0.58,
      "track": "(unnamed)",
      "channel": 1,
      "lane": "D"
    },
    {
      "time": 135.428,
      "duration": 0.214,
      "midi": 35,
      "noteNumber": 35,
      "velocity": 0.5,
      "track": "DRUMS",
      "channel": 9,
      "lane": "D"
    },
    {
      "time": 135.428,
      "duration": 0.214,
      "midi": 42,
      "noteNumber": 42,
      "velocity": 0.58,
      "track": "DRUMS",
      "channel": 9,
      "lane": "D"
    },
    {
      "time": 135.428,
      "duration": 0.214,
      "midi": 69,
      "noteNumber": 69,
      "velocity": 0.5,
      "track": "DRUMS",
      "channel": 9,
      "lane": "K"
    },
    {
      "time": 135.437,
      "duration": 0.69,
      "midi": 52,
      "noteNumber": 52,
      "velocity": 0.76,
      "track": "(unnamed)",
      "channel": 2,
      "lane": "F"
    },
    {
      "time": 135.642,
      "duration": 0.214,
      "midi": 42,
      "noteNumber": 42,
      "velocity": 0.5,
      "track": "DRUMS",
      "channel": 9,
      "lane": "D"
    },
    {
      "time": 135.642,
      "duration": 0.214,
      "midi": 69,
      "noteNumber": 69,
      "velocity": 0.43,
      "track": "DRUMS",
      "channel": 9,
      "lane": "K"
    },
    {
      "time": 135.647,
      "duration": 0.487,
      "midi": 62,
      "noteNumber": 62,
      "velocity": 0.76,
      "track": "(unnamed)",
      "channel": 2,
      "lane": "J"
    },
    {
      "time": 135.654,
      "duration": 0.228,
      "midi": 67,
      "noteNumber": 67,
      "velocity": 0.83,
      "track": "(unnamed)",
      "channel": 2,
      "lane": "J"
    },
    {
      "time": 135.66,
      "duration": 0.462,
      "midi": 56,
      "noteNumber": 56,
      "velocity": 0.83,
      "track": "(unnamed)",
      "channel": 2,
      "lane": "F"
    },
    {
      "time": 135.857,
      "duration": 0.214,
      "midi": 37,
      "noteNumber": 37,
      "velocity": 0.66,
      "track": "DRUMS",
      "channel": 9,
      "lane": "D"
    },
    {
      "time": 135.857,
      "duration": 0.214,
      "midi": 42,
      "noteNumber": 42,
      "velocity": 0.58,
      "track": "DRUMS",
      "channel": 9,
      "lane": "D"
    },
    {
      "time": 135.857,
      "duration": 0.214,
      "midi": 69,
      "noteNumber": 69,
      "velocity": 0.43,
      "track": "DRUMS",
      "channel": 9,
      "lane": "K"
    },
    {
      "time": 135.883,
      "duration": 0.199,
      "midi": 65,
      "noteNumber": 65,
      "velocity": 0.65,
      "track": "(unnamed)",
      "channel": 2,
      "lane": "J"
    },
    {
      "time": 136.067,
      "duration": 0.223,
      "midi": 40,
      "noteNumber": 40,
      "velocity": 0.75,
      "track": "(unnamed)",
      "channel": 2,
      "lane": "D"
    },
    {
      "time": 136.071,
      "duration": 0.116,
      "midi": 47,
      "noteNumber": 47,
      "velocity": 0.54,
      "track": "(unnamed)",
      "channel": 1,
      "lane": "F"
    },
    {
      "time": 136.071,
      "duration": 0.214,
      "midi": 35,
      "noteNumber": 35,
      "velocity": 0.5,
      "track": "DRUMS",
      "channel": 9,
      "lane": "D"
    },
    {
      "time": 136.071,
      "duration": 0.214,
      "midi": 42,
      "noteNumber": 42,
      "velocity": 0.58,
      "track": "DRUMS",
      "channel": 9,
      "lane": "D"
    },
    {
      "time": 136.071,
      "duration": 0.214,
      "midi": 69,
      "noteNumber": 69,
      "velocity": 0.5,
      "track": "DRUMS",
      "channel": 9,
      "lane": "K"
    },
    {
      "time": 136.285,
      "duration": 0.502,
      "midi": 47,
      "noteNumber": 47,
      "velocity": 0.55,
      "track": "(unnamed)",
      "channel": 1,
      "lane": "F"
    },
    {
      "time": 136.285,
      "duration": 0.214,
      "midi": 35,
      "noteNumber": 35,
      "velocity": 0.5,
      "track": "DRUMS",
      "channel": 9,
      "lane": "D"
    },
    {
      "time": 136.285,
      "duration": 0.214,
      "midi": 42,
      "noteNumber": 42,
      "velocity": 0.58,
      "track": "DRUMS",
      "channel": 9,
      "lane": "D"
    },
    {
      "time": 136.285,
      "duration": 0.214,
      "midi": 69,
      "noteNumber": 69,
      "velocity": 0.5,
      "track": "DRUMS",
      "channel": 9,
      "lane": "K"
    },
    {
      "time": 136.292,
      "duration": 0.583,
      "midi": 53,
      "noteNumber": 53,
      "velocity": 0.8,
      "track": "(unnamed)",
      "channel": 2,
      "lane": "F"
    },
    {
      "time": 136.294,
      "duration": 0.556,
      "midi": 59,
      "noteNumber": 59,
      "velocity": 0.7,
      "track": "(unnamed)",
      "channel": 2,
      "lane": "J"
    },
    {
      "time": 136.299,
      "duration": 0.281,
      "midi": 64,
      "noteNumber": 64,
      "velocity": 0.74,
      "track": "(unnamed)",
      "channel": 2,
      "lane": "J"
    },
    {
      "time": 136.303,
      "duration": 0.556,
      "midi": 44,
      "noteNumber": 44,
      "velocity": 0.8,
      "track": "(unnamed)",
      "channel": 2,
      "lane": "D"
    },
    {
      "time": 136.5,
      "duration": 0.214,
      "midi": 37,
      "noteNumber": 37,
      "velocity": 0.74,
      "track": "DRUMS",
      "channel": 9,
      "lane": "D"
    },
    {
      "time": 136.5,
      "duration": 0.214,
      "midi": 42,
      "noteNumber": 42,
      "velocity": 0.58,
      "track": "DRUMS",
      "channel": 9,
      "lane": "D"
    },
    {
      "time": 136.5,
      "duration": 0.214,
      "midi": 69,
      "noteNumber": 69,
      "velocity": 0.43,
      "track": "DRUMS",
      "channel": 9,
      "lane": "K"
    },
    {
      "time": 136.593,
      "duration": 0.239,
      "midi": 62,
      "noteNumber": 62,
      "velocity": 0.76,
      "track": "(unnamed)",
      "channel": 2,
      "lane": "J"
    },
    {
      "time": 136.714,
      "duration": 0.214,
      "midi": 42,
      "noteNumber": 42,
      "velocity": 0.58,
      "track": "DRUMS",
      "channel": 9,
      "lane": "D"
    },
    {
      "time": 136.714,
      "duration": 0.214,
      "midi": 69,
      "noteNumber": 69,
      "velocity": 0.43,
      "track": "DRUMS",
      "channel": 9,
      "lane": "K"
    },
    {
      "time": 136.928,
      "duration": 0.114,
      "midi": 40,
      "noteNumber": 40,
      "velocity": 0.52,
      "track": "(unnamed)",
      "channel": 1,
      "lane": "D"
    },
    {
      "time": 136.928,
      "duration": 0.214,
      "midi": 35,
      "noteNumber": 35,
      "velocity": 0.58,
      "track": "DRUMS",
      "channel": 9,
      "lane": "D"
    },
    {
      "time": 136.928,
      "duration": 0.214,
      "midi": 42,
      "noteNumber": 42,
      "velocity": 0.5,
      "track": "DRUMS",
      "channel": 9,
      "lane": "D"
    },
    {
      "time": 136.928,
      "duration": 0.214,
      "midi": 69,
      "noteNumber": 69,
      "velocity": 0.5,
      "track": "DRUMS",
      "channel": 9,
      "lane": "K"
    },
    {
      "time": 136.955,
      "duration": 1.094,
      "midi": 64,
      "noteNumber": 64,
      "velocity": 0.65,
      "track": "(unnamed)",
      "channel": 2,
      "lane": "J"
    },
    {
      "time": 136.964,
      "duration": 1.103,
      "midi": 60,
      "noteNumber": 60,
      "velocity": 0.67,
      "track": "(unnamed)",
      "channel": 2,
      "lane": "J"
    },
    {
      "time": 136.968,
      "duration": 1.103,
      "midi": 45,
      "noteNumber": 45,
      "velocity": 0.8,
      "track": "(unnamed)",
      "channel": 2,
      "lane": "F"
    },
    {
      "time": 136.973,
      "duration": 1.092,
      "midi": 55,
      "noteNumber": 55,
      "velocity": 0.6,
      "track": "(unnamed)",
      "channel": 2,
      "lane": "F"
    },
    {
      "time": 137.142,
      "duration": 0.482,
      "midi": 33,
      "noteNumber": 33,
      "velocity": 0.58,
      "track": "(unnamed)",
      "channel": 1,
      "lane": "D"
    },
    {
      "time": 137.142,
      "duration": 0.214,
      "midi": 35,
      "noteNumber": 35,
      "velocity": 0.5,
      "track": "DRUMS",
      "channel": 9,
      "lane": "D"
    },
    {
      "time": 137.142,
      "duration": 0.214,
      "midi": 37,
      "noteNumber": 37,
      "velocity": 0.66,
      "track": "DRUMS",
      "channel": 9,
      "lane": "D"
    },
    {
      "time": 137.142,
      "duration": 0.214,
      "midi": 42,
      "noteNumber": 42,
      "velocity": 0.69,
      "track": "DRUMS",
      "channel": 9,
      "lane": "D"
    },
    {
      "time": 137.142,
      "duration": 0.214,
      "midi": 69,
      "noteNumber": 69,
      "velocity": 0.5,
      "track": "DRUMS",
      "channel": 9,
      "lane": "K"
    },
    {
      "time": 137.357,
      "duration": 0.214,
      "midi": 42,
      "noteNumber": 42,
      "velocity": 0.5,
      "track": "DRUMS",
      "channel": 9,
      "lane": "D"
    },
    {
      "time": 137.357,
      "duration": 0.214,
      "midi": 69,
      "noteNumber": 69,
      "velocity": 0.43,
      "track": "DRUMS",
      "channel": 9,
      "lane": "K"
    },
    {
      "time": 137.571,
      "duration": 0.214,
      "midi": 42,
      "noteNumber": 42,
      "velocity": 0.5,
      "track": "DRUMS",
      "channel": 9,
      "lane": "D"
    },
    {
      "time": 137.571,
      "duration": 0.214,
      "midi": 48,
      "noteNumber": 48,
      "velocity": 0.5,
      "track": "DRUMS",
      "channel": 9,
      "lane": "F"
    },
    {
      "time": 137.571,
      "duration": 0.214,
      "midi": 69,
      "noteNumber": 69,
      "velocity": 0.43,
      "track": "DRUMS",
      "channel": 9,
      "lane": "K"
    },
    {
      "time": 137.785,
      "duration": 0.089,
      "midi": 33,
      "noteNumber": 33,
      "velocity": 0.43,
      "track": "(unnamed)",
      "channel": 1,
      "lane": "D"
    },
    {
      "time": 137.785,
      "duration": 0.214,
      "midi": 35,
      "noteNumber": 35,
      "velocity": 0.43,
      "track": "DRUMS",
      "channel": 9,
      "lane": "D"
    },
    {
      "time": 137.785,
      "duration": 0.214,
      "midi": 37,
      "noteNumber": 37,
      "velocity": 0.74,
      "track": "DRUMS",
      "channel": 9,
      "lane": "D"
    },
    {
      "time": 137.785,
      "duration": 0.214,
      "midi": 46,
      "noteNumber": 46,
      "velocity": 0.5,
      "track": "DRUMS",
      "channel": 9,
      "lane": "F"
    },
    {
      "time": 137.785,
      "duration": 0.214,
      "midi": 69,
      "noteNumber": 69,
      "velocity": 0.43,
      "track": "DRUMS",
      "channel": 9,
      "lane": "K"
    },
    {
      "time": 138,
      "duration": 0.536,
      "midi": 42,
      "noteNumber": 42,
      "velocity": 0.54,
      "track": "(unnamed)",
      "channel": 1,
      "lane": "D"
    },
    {
      "time": 138,
      "duration": 0.214,
      "midi": 35,
      "noteNumber": 35,
      "velocity": 0.5,
      "track": "DRUMS",
      "channel": 9,
      "lane": "D"
    },
    {
      "time": 138,
      "duration": 0.214,
      "midi": 42,
      "noteNumber": 42,
      "velocity": 0.58,
      "track": "DRUMS",
      "channel": 9,
      "lane": "D"
    },
    {
      "time": 138,
      "duration": 0.214,
      "midi": 69,
      "noteNumber": 69,
      "velocity": 0.5,
      "track": "DRUMS",
      "channel": 9,
      "lane": "K"
    },
    {
      "time": 138.214,
      "duration": 0.214,
      "midi": 42,
      "noteNumber": 42,
      "velocity": 0.5,
      "track": "DRUMS",
      "channel": 9,
      "lane": "D"
    },
    {
      "time": 138.214,
      "duration": 0.214,
      "midi": 69,
      "noteNumber": 69,
      "velocity": 0.43,
      "track": "DRUMS",
      "channel": 9,
      "lane": "K"
    },
    {
      "time": 138.236,
      "duration": 0.116,
      "midi": 56,
      "noteNumber": 56,
      "velocity": 0.69,
      "track": "(unnamed)",
      "channel": 2,
      "lane": "F"
    },
    {
      "time": 138.283,
      "duration": 0.172,
      "midi": 57,
      "noteNumber": 57,
      "velocity": 0.83,
      "track": "(unnamed)",
      "channel": 2,
      "lane": "J"
    },
    {
      "time": 138.428,
      "duration": 0.214,
      "midi": 37,
      "noteNumber": 37,
      "velocity": 0.66,
      "track": "DRUMS",
      "channel": 9,
      "lane": "D"
    },
    {
      "time": 138.428,
      "duration": 0.214,
      "midi": 42,
      "noteNumber": 42,
      "velocity": 0.58,
      "track": "DRUMS",
      "channel": 9,
      "lane": "D"
    },
    {
      "time": 138.428,
      "duration": 0.214,
      "midi": 69,
      "noteNumber": 69,
      "velocity": 0.43,
      "track": "DRUMS",
      "channel": 9,
      "lane": "K"
    },
    {
      "time": 138.444,
      "duration": 0.192,
      "midi": 60,
      "noteNumber": 60,
      "velocity": 0.84,
      "track": "(unnamed)",
      "channel": 2,
      "lane": "J"
    },
    {
      "time": 138.642,
      "duration": 0.092,
      "midi": 42,
      "noteNumber": 42,
      "velocity": 0.5,
      "track": "(unnamed)",
      "channel": 1,
      "lane": "D"
    },
    {
      "time": 138.642,
      "duration": 0.214,
      "midi": 35,
      "noteNumber": 35,
      "velocity": 0.43,
      "track": "DRUMS",
      "channel": 9,
      "lane": "D"
    },
    {
      "time": 138.642,
      "duration": 0.214,
      "midi": 46,
      "noteNumber": 46,
      "velocity": 0.66,
      "track": "DRUMS",
      "channel": 9,
      "lane": "F"
    },
    {
      "time": 138.642,
      "duration": 0.214,
      "midi": 69,
      "noteNumber": 69,
      "velocity": 0.43,
      "track": "DRUMS",
      "channel": 9,
      "lane": "K"
    },
    {
      "time": 138.654,
      "duration": 0.223,
      "midi": 64,
      "noteNumber": 64,
      "velocity": 0.87,
      "track": "(unnamed)",
      "channel": 2,
      "lane": "J"
    },
    {
      "time": 138.857,
      "duration": 0.455,
      "midi": 35,
      "noteNumber": 35,
      "velocity": 0.61,
      "track": "(unnamed)",
      "channel": 1,
      "lane": "D"
    },
    {
      "time": 138.857,
      "duration": 0.214,
      "midi": 42,
      "noteNumber": 42,
      "velocity": 0.5,
      "track": "DRUMS",
      "channel": 9,
      "lane": "D"
    },
    {
      "time": 138.857,
      "duration": 0.214,
      "midi": 69,
      "noteNumber": 69,
      "velocity": 0.66,
      "track": "DRUMS",
      "channel": 9,
      "lane": "K"
    },
    {
      "time": 138.866,
      "duration": 0.147,
      "midi": 62,
      "noteNumber": 62,
      "velocity": 0.67,
      "track": "(unnamed)",
      "channel": 2,
      "lane": "J"
    },
    {
      "time": 138.944,
      "duration": 0.145,
      "midi": 63,
      "noteNumber": 63,
      "velocity": 0.77,
      "track": "(unnamed)",
      "channel": 2,
      "lane": "J"
    },
    {
      "time": 139.071,
      "duration": 0.214,
      "midi": 42,
      "noteNumber": 42,
      "velocity": 0.43,
      "track": "DRUMS",
      "channel": 9,
      "lane": "D"
    },
    {
      "time": 139.071,
      "duration": 0.214,
      "midi": 48,
      "noteNumber": 48,
      "velocity": 0.43,
      "track": "DRUMS",
      "channel": 9,
      "lane": "F"
    },
    {
      "time": 139.071,
      "duration": 0.214,
      "midi": 69,
      "noteNumber": 69,
      "velocity": 0.43,
      "track": "DRUMS",
      "channel": 9,
      "lane": "K"
    },
    {
      "time": 139.089,
      "duration": 0.208,
      "midi": 60,
      "noteNumber": 60,
      "velocity": 0.8,
      "track": "(unnamed)",
      "channel": 2,
      "lane": "J"
    },
    {
      "time": 139.285,
      "duration": 0.001,
      "midi": 37,
      "noteNumber": 37,
      "velocity": 0.66,
      "track": "DRUMS",
      "channel": 9,
      "lane": "D"
    },
    {
      "time": 139.285,
      "duration": 0.214,
      "midi": 37,
      "noteNumber": 37,
      "velocity": 0.43,
      "track": "DRUMS",
      "channel": 9,
      "lane": "D"
    },
    {
      "time": 139.285,
      "duration": 0.214,
      "midi": 42,
      "noteNumber": 42,
      "velocity": 0.5,
      "track": "DRUMS",
      "channel": 9,
      "lane": "D"
    },
    {
      "time": 139.294,
      "duration": 0.596,
      "midi": 62,
      "noteNumber": 62,
      "velocity": 0.86,
      "track": "(unnamed)",
      "channel": 2,
      "lane": "J"
    },
    {
      "time": 139.5,
      "duration": 0.116,
      "midi": 35,
      "noteNumber": 35,
      "velocity": 0.49,
      "track": "(unnamed)",
      "channel": 1,
      "lane": "D"
    },
    {
      "time": 139.5,
      "duration": 0.214,
      "midi": 37,
      "noteNumber": 37,
      "velocity": 0.43,
      "track": "DRUMS",
      "channel": 9,
      "lane": "D"
    },
    {
      "time": 139.5,
      "duration": 0.214,
      "midi": 42,
      "noteNumber": 42,
      "velocity": 0.5,
      "track": "DRUMS",
      "channel": 9,
      "lane": "D"
    },
    {
      "time": 139.5,
      "duration": 0.214,
      "midi": 45,
      "noteNumber": 45,
      "velocity": 0.43,
      "track": "DRUMS",
      "channel": 9,
      "lane": "F"
    },
    {
      "time": 139.714,
      "duration": 0.5,
      "midi": 40,
      "noteNumber": 40,
      "velocity": 0.66,
      "track": "(unnamed)",
      "channel": 1,
      "lane": "D"
    },
    {
      "time": 139.714,
      "duration": 0.214,
      "midi": 37,
      "noteNumber": 37,
      "velocity": 0.5,
      "track": "DRUMS",
      "channel": 9,
      "lane": "D"
    },
    {
      "time": 139.714,
      "duration": 0.214,
      "midi": 42,
      "noteNumber": 42,
      "velocity": 0.5,
      "track": "DRUMS",
      "channel": 9,
      "lane": "D"
    },
    {
      "time": 139.714,
      "duration": 0.214,
      "midi": 48,
      "noteNumber": 48,
      "velocity": 0.5,
      "track": "DRUMS",
      "channel": 9,
      "lane": "F"
    },
    {
      "time": 139.928,
      "duration": 0.214,
      "midi": 37,
      "noteNumber": 37,
      "velocity": 0.43,
      "track": "DRUMS",
      "channel": 9,
      "lane": "D"
    },
    {
      "time": 139.928,
      "duration": 0.214,
      "midi": 42,
      "noteNumber": 42,
      "velocity": 0.5,
      "track": "DRUMS",
      "channel": 9,
      "lane": "D"
    },
    {
      "time": 139.928,
      "duration": 0.214,
      "midi": 45,
      "noteNumber": 45,
      "velocity": 0.5,
      "track": "DRUMS",
      "channel": 9,
      "lane": "F"
    },
    {
      "time": 140.142,
      "duration": 0.214,
      "midi": 37,
      "noteNumber": 37,
      "velocity": 0.43,
      "track": "DRUMS",
      "channel": 9,
      "lane": "D"
    },
    {
      "time": 140.142,
      "duration": 0.214,
      "midi": 42,
      "noteNumber": 42,
      "velocity": 0.5,
      "track": "DRUMS",
      "channel": 9,
      "lane": "D"
    },
    {
      "time": 140.142,
      "duration": 0.214,
      "midi": 48,
      "noteNumber": 48,
      "velocity": 0.54,
      "track": "DRUMS",
      "channel": 9,
      "lane": "F"
    },
    {
      "time": 140.154,
      "duration": 0.239,
      "midi": 64,
      "noteNumber": 64,
      "velocity": 0.98,
      "track": "(unnamed)",
      "channel": 2,
      "lane": "J"
    },
    {
      "time": 140.357,
      "duration": 0.098,
      "midi": 40,
      "noteNumber": 40,
      "velocity": 0.43,
      "track": "(unnamed)",
      "channel": 1,
      "lane": "D"
    },
    {
      "time": 140.357,
      "duration": 0.214,
      "midi": 37,
      "noteNumber": 37,
      "velocity": 0.43,
      "track": "DRUMS",
      "channel": 9,
      "lane": "D"
    },
    {
      "time": 140.357,
      "duration": 0.214,
      "midi": 42,
      "noteNumber": 42,
      "velocity": 0.5,
      "track": "DRUMS",
      "channel": 9,
      "lane": "D"
    },
    {
      "time": 140.357,
      "duration": 0.214,
      "midi": 48,
      "noteNumber": 48,
      "velocity": 0.5,
      "track": "DRUMS",
      "channel": 9,
      "lane": "F"
    },
    {
      "time": 140.571,
      "duration": 0.592,
      "midi": 33,
      "noteNumber": 33,
      "velocity": 0.58,
      "track": "(unnamed)",
      "channel": 1,
      "lane": "D"
    },
    {
      "time": 140.571,
      "duration": 0.214,
      "midi": 35,
      "noteNumber": 35,
      "velocity": 0.5,
      "track": "DRUMS",
      "channel": 9,
      "lane": "D"
    },
    {
      "time": 140.571,
      "duration": 0.214,
      "midi": 37,
      "noteNumber": 37,
      "velocity": 0.66,
      "track": "DRUMS",
      "channel": 9,
      "lane": "D"
    },
    {
      "time": 140.571,
      "duration": 0.214,
      "midi": 42,
      "noteNumber": 42,
      "velocity": 0.69,
      "track": "DRUMS",
      "channel": 9,
      "lane": "D"
    },
    {
      "time": 140.571,
      "duration": 0.214,
      "midi": 69,
      "noteNumber": 69,
      "velocity": 0.5,
      "track": "DRUMS",
      "channel": 9,
      "lane": "K"
    },
    {
      "time": 140.607,
      "duration": 0.92,
      "midi": 72,
      "noteNumber": 72,
      "velocity": 0.91,
      "track": "(unnamed)",
      "channel": 2,
      "lane": "K"
    },
    {
      "time": 140.613,
      "duration": 0.933,
      "midi": 57,
      "noteNumber": 57,
      "velocity": 0.81,
      "track": "(unnamed)",
      "channel": 2,
      "lane": "J"
    },
    {
      "time": 140.618,
      "duration": 0.933,
      "midi": 64,
      "noteNumber": 64,
      "velocity": 0.63,
      "track": "(unnamed)",
      "channel": 2,
      "lane": "J"
    },
    {
      "time": 140.622,
      "duration": 0.902,
      "midi": 67,
      "noteNumber": 67,
      "velocity": 0.67,
      "track": "(unnamed)",
      "channel": 2,
      "lane": "J"
    },
    {
      "time": 140.785,
      "duration": 0.214,
      "midi": 42,
      "noteNumber": 42,
      "velocity": 0.5,
      "track": "DRUMS",
      "channel": 9,
      "lane": "D"
    },
    {
      "time": 140.785,
      "duration": 0.214,
      "midi": 69,
      "noteNumber": 69,
      "velocity": 0.43,
      "track": "DRUMS",
      "channel": 9,
      "lane": "K"
    },
    {
      "time": 141,
      "duration": 0.214,
      "midi": 42,
      "noteNumber": 42,
      "velocity": 0.5,
      "track": "DRUMS",
      "channel": 9,
      "lane": "D"
    },
    {
      "time": 141,
      "duration": 0.214,
      "midi": 69,
      "noteNumber": 69,
      "velocity": 0.43,
      "track": "DRUMS",
      "channel": 9,
      "lane": "K"
    },
    {
      "time": 141.214,
      "duration": 0.121,
      "midi": 40,
      "noteNumber": 40,
      "velocity": 0.54,
      "track": "(unnamed)",
      "channel": 1,
      "lane": "D"
    },
    {
      "time": 141.214,
      "duration": 0.214,
      "midi": 35,
      "noteNumber": 35,
      "velocity": 0.43,
      "track": "DRUMS",
      "channel": 9,
      "lane": "D"
    },
    {
      "time": 141.214,
      "duration": 0.214,
      "midi": 37,
      "noteNumber": 37,
      "velocity": 0.74,
      "track": "DRUMS",
      "channel": 9,
      "lane": "D"
    },
    {
      "time": 141.214,
      "duration": 0.214,
      "midi": 42,
      "noteNumber": 42,
      "velocity": 0.5,
      "track": "DRUMS",
      "channel": 9,
      "lane": "D"
    },
    {
      "time": 141.214,
      "duration": 0.214,
      "midi": 69,
      "noteNumber": 69,
      "velocity": 0.43,
      "track": "DRUMS",
      "channel": 9,
      "lane": "K"
    },
    {
      "time": 141.428,
      "duration": 0.592,
      "midi": 40,
      "noteNumber": 40,
      "velocity": 0.64,
      "track": "(unnamed)",
      "channel": 1,
      "lane": "D"
    },
    {
      "time": 141.428,
      "duration": 0.214,
      "midi": 35,
      "noteNumber": 35,
      "velocity": 0.5,
      "track": "DRUMS",
      "channel": 9,
      "lane": "D"
    },
    {
      "time": 141.428,
      "duration": 0.214,
      "midi": 42,
      "noteNumber": 42,
      "velocity": 0.58,
      "track": "DRUMS",
      "channel": 9,
      "lane": "D"
    },
    {
      "time": 141.428,
      "duration": 0.214,
      "midi": 69,
      "noteNumber": 69,
      "velocity": 0.5,
      "track": "DRUMS",
      "channel": 9,
      "lane": "K"
    },
    {
      "time": 141.642,
      "duration": 0.214,
      "midi": 42,
      "noteNumber": 42,
      "velocity": 0.5,
      "track": "DRUMS",
      "channel": 9,
      "lane": "D"
    },
    {
      "time": 141.642,
      "duration": 0.214,
      "midi": 69,
      "noteNumber": 69,
      "velocity": 0.43,
      "track": "DRUMS",
      "channel": 9,
      "lane": "K"
    },
    {
      "time": 141.647,
      "duration": 0.246,
      "midi": 71,
      "noteNumber": 71,
      "velocity": 0.83,
      "track": "(unnamed)",
      "channel": 2,
      "lane": "K"
    },
    {
      "time": 141.654,
      "duration": 0.237,
      "midi": 62,
      "noteNumber": 62,
      "velocity": 0.81,
      "track": "(unnamed)",
      "channel": 2,
      "lane": "J"
    },
    {
      "time": 141.857,
      "duration": 0.214,
      "midi": 37,
      "noteNumber": 37,
      "velocity": 0.66,
      "track": "DRUMS",
      "channel": 9,
      "lane": "D"
    },
    {
      "time": 141.857,
      "duration": 0.214,
      "midi": 42,
      "noteNumber": 42,
      "velocity": 0.58,
      "track": "DRUMS",
      "channel": 9,
      "lane": "D"
    },
    {
      "time": 141.857,
      "duration": 0.214,
      "midi": 69,
      "noteNumber": 69,
      "velocity": 0.43,
      "track": "DRUMS",
      "channel": 9,
      "lane": "K"
    },
    {
      "time": 142.053,
      "duration": 0.19,
      "midi": 69,
      "noteNumber": 69,
      "velocity": 0.98,
      "track": "(unnamed)",
      "channel": 2,
      "lane": "K"
    },
    {
      "time": 142.066,
      "duration": 0.183,
      "midi": 60,
      "noteNumber": 60,
      "velocity": 0.72,
      "track": "(unnamed)",
      "channel": 2,
      "lane": "J"
    },
    {
      "time": 142.071,
      "duration": 0.121,
      "midi": 33,
      "noteNumber": 33,
      "velocity": 0.57,
      "track": "(unnamed)",
      "channel": 1,
      "lane": "D"
    },
    {
      "time": 142.071,
      "duration": 0.214,
      "midi": 35,
      "noteNumber": 35,
      "velocity": 0.43,
      "track": "DRUMS",
      "channel": 9,
      "lane": "D"
    },
    {
      "time": 142.071,
      "duration": 0.214,
      "midi": 42,
      "noteNumber": 42,
      "velocity": 0.66,
      "track": "DRUMS",
      "channel": 9,
      "lane": "D"
    },
    {
      "time": 142.071,
      "duration": 0.214,
      "midi": 69,
      "noteNumber": 69,
      "velocity": 0.43,
      "track": "DRUMS",
      "channel": 9,
      "lane": "K"
    },
    {
      "time": 142.285,
      "duration": 0.453,
      "midi": 35,
      "noteNumber": 35,
      "velocity": 0.53,
      "track": "(unnamed)",
      "channel": 1,
      "lane": "D"
    },
    {
      "time": 142.285,
      "duration": 0.214,
      "midi": 35,
      "noteNumber": 35,
      "velocity": 0.5,
      "track": "DRUMS",
      "channel": 9,
      "lane": "D"
    },
    {
      "time": 142.285,
      "duration": 0.214,
      "midi": 42,
      "noteNumber": 42,
      "velocity": 0.58,
      "track": "DRUMS",
      "channel": 9,
      "lane": "D"
    },
    {
      "time": 142.285,
      "duration": 0.214,
      "midi": 69,
      "noteNumber": 69,
      "velocity": 0.5,
      "track": "DRUMS",
      "channel": 9,
      "lane": "K"
    },
    {
      "time": 142.325,
      "duration": 0.567,
      "midi": 69,
      "noteNumber": 69,
      "velocity": 0.92,
      "track": "(unnamed)",
      "channel": 2,
      "lane": "K"
    },
    {
      "time": 142.332,
      "duration": 0.589,
      "midi": 60,
      "noteNumber": 60,
      "velocity": 0.74,
      "track": "(unnamed)",
      "channel": 2,
      "lane": "J"
    },
    {
      "time": 142.5,
      "duration": 0.214,
      "midi": 42,
      "noteNumber": 42,
      "velocity": 0.5,
      "track": "DRUMS",
      "channel": 9,
      "lane": "D"
    },
    {
      "time": 142.5,
      "duration": 0.214,
      "midi": 69,
      "noteNumber": 69,
      "velocity": 0.43,
      "track": "DRUMS",
      "channel": 9,
      "lane": "K"
    },
    {
      "time": 142.714,
      "duration": 0.214,
      "midi": 37,
      "noteNumber": 37,
      "velocity": 0.66,
      "track": "DRUMS",
      "channel": 9,
      "lane": "D"
    },
    {
      "time": 142.714,
      "duration": 0.214,
      "midi": 42,
      "noteNumber": 42,
      "velocity": 0.58,
      "track": "DRUMS",
      "channel": 9,
      "lane": "D"
    },
    {
      "time": 142.714,
      "duration": 0.214,
      "midi": 69,
      "noteNumber": 69,
      "velocity": 0.43,
      "track": "DRUMS",
      "channel": 9,
      "lane": "K"
    },
    {
      "time": 142.928,
      "duration": 0.121,
      "midi": 35,
      "noteNumber": 35,
      "velocity": 0.55,
      "track": "(unnamed)",
      "channel": 1,
      "lane": "D"
    },
    {
      "time": 142.928,
      "duration": 0.214,
      "midi": 35,
      "noteNumber": 35,
      "velocity": 0.5,
      "track": "DRUMS",
      "channel": 9,
      "lane": "D"
    },
    {
      "time": 142.928,
      "duration": 0.214,
      "midi": 42,
      "noteNumber": 42,
      "velocity": 0.58,
      "track": "DRUMS",
      "channel": 9,
      "lane": "D"
    },
    {
      "time": 142.928,
      "duration": 0.214,
      "midi": 69,
      "noteNumber": 69,
      "velocity": 0.5,
      "track": "DRUMS",
      "channel": 9,
      "lane": "K"
    },
    {
      "time": 142.966,
      "duration": 0.554,
      "midi": 59,
      "noteNumber": 59,
      "velocity": 0.67,
      "track": "(unnamed)",
      "channel": 2,
      "lane": "J"
    },
    {
      "time": 142.971,
      "duration": 0.569,
      "midi": 68,
      "noteNumber": 68,
      "velocity": 0.99,
      "track": "(unnamed)",
      "channel": 2,
      "lane": "K"
    },
    {
      "time": 143.142,
      "duration": 0.471,
      "midi": 40,
      "noteNumber": 40,
      "velocity": 0.52,
      "track": "(unnamed)",
      "channel": 1,
      "lane": "D"
    },
    {
      "time": 143.142,
      "duration": 0.214,
      "midi": 35,
      "noteNumber": 35,
      "velocity": 0.5,
      "track": "DRUMS",
      "channel": 9,
      "lane": "D"
    },
    {
      "time": 143.142,
      "duration": 0.214,
      "midi": 42,
      "noteNumber": 42,
      "velocity": 0.58,
      "track": "DRUMS",
      "channel": 9,
      "lane": "D"
    },
    {
      "time": 143.142,
      "duration": 0.214,
      "midi": 69,
      "noteNumber": 69,
      "velocity": 0.5,
      "track": "DRUMS",
      "channel": 9,
      "lane": "K"
    },
    {
      "time": 143.357,
      "duration": 0.214,
      "midi": 37,
      "noteNumber": 37,
      "velocity": 0.74,
      "track": "DRUMS",
      "channel": 9,
      "lane": "D"
    },
    {
      "time": 143.357,
      "duration": 0.214,
      "midi": 42,
      "noteNumber": 42,
      "velocity": 0.58,
      "track": "DRUMS",
      "channel": 9,
      "lane": "D"
    },
    {
      "time": 143.357,
      "duration": 0.214,
      "midi": 69,
      "noteNumber": 69,
      "velocity": 0.43,
      "track": "DRUMS",
      "channel": 9,
      "lane": "K"
    },
    {
      "time": 143.571,
      "duration": 0.214,
      "midi": 42,
      "noteNumber": 42,
      "velocity": 0.58,
      "track": "DRUMS",
      "channel": 9,
      "lane": "D"
    },
    {
      "time": 143.571,
      "duration": 0.214,
      "midi": 45,
      "noteNumber": 45,
      "velocity": 0.5,
      "track": "DRUMS",
      "channel": 9,
      "lane": "F"
    },
    {
      "time": 143.571,
      "duration": 0.214,
      "midi": 69,
      "noteNumber": 69,
      "velocity": 0.43,
      "track": "DRUMS",
      "channel": 9,
      "lane": "K"
    },
    {
      "time": 143.582,
      "duration": 0.266,
      "midi": 71,
      "noteNumber": 71,
      "velocity": 0.88,
      "track": "(unnamed)",
      "channel": 2,
      "lane": "K"
    },
    {
      "time": 143.591,
      "duration": 0.234,
      "midi": 62,
      "noteNumber": 62,
      "velocity": 0.76,
      "track": "(unnamed)",
      "channel": 2,
      "lane": "J"
    },
    {
      "time": 143.785,
      "duration": 0.096,
      "midi": 40,
      "noteNumber": 40,
      "velocity": 0.5,
      "track": "(unnamed)",
      "channel": 1,
      "lane": "D"
    },
    {
      "time": 143.785,
      "duration": 0.214,
      "midi": 35,
      "noteNumber": 35,
      "velocity": 0.58,
      "track": "DRUMS",
      "channel": 9,
      "lane": "D"
    },
    {
      "time": 143.785,
      "duration": 0.214,
      "midi": 45,
      "noteNumber": 45,
      "velocity": 0.5,
      "track": "DRUMS",
      "channel": 9,
      "lane": "F"
    },
    {
      "time": 143.785,
      "duration": 0.214,
      "midi": 46,
      "noteNumber": 46,
      "velocity": 0.5,
      "track": "DRUMS",
      "channel": 9,
      "lane": "F"
    },
    {
      "time": 143.785,
      "duration": 0.214,
      "midi": 69,
      "noteNumber": 69,
      "velocity": 0.5,
      "track": "DRUMS",
      "channel": 9,
      "lane": "K"
    },
    {
      "time": 144,
      "duration": 0.538,
      "midi": 33,
      "noteNumber": 33,
      "velocity": 0.52,
      "track": "(unnamed)",
      "channel": 1,
      "lane": "D"
    },
    {
      "time": 144,
      "duration": 0.214,
      "midi": 35,
      "noteNumber": 35,
      "velocity": 0.5,
      "track": "DRUMS",
      "channel": 9,
      "lane": "D"
    },
    {
      "time": 144,
      "duration": 0.214,
      "midi": 37,
      "noteNumber": 37,
      "velocity": 0.66,
      "track": "DRUMS",
      "channel": 9,
      "lane": "D"
    },
    {
      "time": 144,
      "duration": 0.214,
      "midi": 42,
      "noteNumber": 42,
      "velocity": 0.69,
      "track": "DRUMS",
      "channel": 9,
      "lane": "D"
    },
    {
      "time": 144,
      "duration": 0.214,
      "midi": 69,
      "noteNumber": 69,
      "velocity": 0.5,
      "track": "DRUMS",
      "channel": 9,
      "lane": "K"
    },
    {
      "time": 144.011,
      "duration": 0.955,
      "midi": 64,
      "noteNumber": 64,
      "velocity": 0.72,
      "track": "(unnamed)",
      "channel": 2,
      "lane": "J"
    },
    {
      "time": 144.017,
      "duration": 0.973,
      "midi": 55,
      "noteNumber": 55,
      "velocity": 0.7,
      "track": "(unnamed)",
      "channel": 2,
      "lane": "F"
    },
    {
      "time": 144.02,
      "duration": 0.973,
      "midi": 60,
      "noteNumber": 60,
      "velocity": 0.72,
      "track": "(unnamed)",
      "channel": 2,
      "lane": "J"
    },
    {
      "time": 144.04,
      "duration": 0.967,
      "midi": 45,
      "noteNumber": 45,
      "velocity": 0.61,
      "track": "(unnamed)",
      "channel": 2,
      "lane": "F"
    },
    {
      "time": 144.214,
      "duration": 0.214,
      "midi": 42,
      "noteNumber": 42,
      "velocity": 0.5,
      "track": "DRUMS",
      "channel": 9,
      "lane": "D"
    },
    {
      "time": 144.214,
      "duration": 0.214,
      "midi": 69,
      "noteNumber": 69,
      "velocity": 0.43,
      "track": "DRUMS",
      "channel": 9,
      "lane": "K"
    },
    {
      "time": 144.428,
      "duration": 0.214,
      "midi": 42,
      "noteNumber": 42,
      "velocity": 0.5,
      "track": "DRUMS",
      "channel": 9,
      "lane": "D"
    },
    {
      "time": 144.428,
      "duration": 0.214,
      "midi": 69,
      "noteNumber": 69,
      "velocity": 0.43,
      "track": "DRUMS",
      "channel": 9,
      "lane": "K"
    },
    {
      "time": 144.642,
      "duration": 0.089,
      "midi": 40,
      "noteNumber": 40,
      "velocity": 0.54,
      "track": "(unnamed)",
      "channel": 1,
      "lane": "D"
    },
    {
      "time": 144.642,
      "duration": 0.214,
      "midi": 35,
      "noteNumber": 35,
      "velocity": 0.43,
      "track": "DRUMS",
      "channel": 9,
      "lane": "D"
    },
    {
      "time": 144.642,
      "duration": 0.214,
      "midi": 37,
      "noteNumber": 37,
      "velocity": 0.74,
      "track": "DRUMS",
      "channel": 9,
      "lane": "D"
    },
    {
      "time": 144.642,
      "duration": 0.214,
      "midi": 42,
      "noteNumber": 42,
      "velocity": 0.5,
      "track": "DRUMS",
      "channel": 9,
      "lane": "D"
    },
    {
      "time": 144.642,
      "duration": 0.214,
      "midi": 69,
      "noteNumber": 69,
      "velocity": 0.43,
      "track": "DRUMS",
      "channel": 9,
      "lane": "K"
    },
    {
      "time": 144.857,
      "duration": 0.453,
      "midi": 40,
      "noteNumber": 40,
      "velocity": 0.53,
      "track": "(unnamed)",
      "channel": 1,
      "lane": "D"
    },
    {
      "time": 144.857,
      "duration": 0.214,
      "midi": 35,
      "noteNumber": 35,
      "velocity": 0.5,
      "track": "DRUMS",
      "channel": 9,
      "lane": "D"
    },
    {
      "time": 144.857,
      "duration": 0.214,
      "midi": 42,
      "noteNumber": 42,
      "velocity": 0.58,
      "track": "DRUMS",
      "channel": 9,
      "lane": "D"
    },
    {
      "time": 144.857,
      "duration": 0.214,
      "midi": 69,
      "noteNumber": 69,
      "velocity": 0.5,
      "track": "DRUMS",
      "channel": 9,
      "lane": "K"
    },
    {
      "time": 145.071,
      "duration": 0.214,
      "midi": 42,
      "noteNumber": 42,
      "velocity": 0.5,
      "track": "DRUMS",
      "channel": 9,
      "lane": "D"
    },
    {
      "time": 145.071,
      "duration": 0.214,
      "midi": 69,
      "noteNumber": 69,
      "velocity": 0.43,
      "track": "DRUMS",
      "channel": 9,
      "lane": "K"
    },
    {
      "time": 145.089,
      "duration": 0.527,
      "midi": 64,
      "noteNumber": 64,
      "velocity": 0.71,
      "track": "(unnamed)",
      "channel": 2,
      "lane": "J"
    },
    {
      "time": 145.093,
      "duration": 0.496,
      "midi": 54,
      "noteNumber": 54,
      "velocity": 0.77,
      "track": "(unnamed)",
      "channel": 2,
      "lane": "F"
    },
    {
      "time": 145.098,
      "duration": 0.522,
      "midi": 60,
      "noteNumber": 60,
      "velocity": 0.69,
      "track": "(unnamed)",
      "channel": 2,
      "lane": "J"
    },
    {
      "time": 145.285,
      "duration": 0.214,
      "midi": 37,
      "noteNumber": 37,
      "velocity": 0.66,
      "track": "DRUMS",
      "channel": 9,
      "lane": "D"
    },
    {
      "time": 145.285,
      "duration": 0.214,
      "midi": 42,
      "noteNumber": 42,
      "velocity": 0.58,
      "track": "DRUMS",
      "channel": 9,
      "lane": "D"
    },
    {
      "time": 145.285,
      "duration": 0.214,
      "midi": 45,
      "noteNumber": 45,
      "velocity": 0.5,
      "track": "DRUMS",
      "channel": 9,
      "lane": "F"
    },
    {
      "time": 145.285,
      "duration": 0.214,
      "midi": 69,
      "noteNumber": 69,
      "velocity": 0.43,
      "track": "DRUMS",
      "channel": 9,
      "lane": "K"
    },
    {
      "time": 145.5,
      "duration": 0.109,
      "midi": 33,
      "noteNumber": 33,
      "velocity": 0.5,
      "track": "(unnamed)",
      "channel": 1,
      "lane": "D"
    },
    {
      "time": 145.5,
      "duration": 0.214,
      "midi": 35,
      "noteNumber": 35,
      "velocity": 0.43,
      "track": "DRUMS",
      "channel": 9,
      "lane": "D"
    },
    {
      "time": 145.5,
      "duration": 0.214,
      "midi": 42,
      "noteNumber": 42,
      "velocity": 0.66,
      "track": "DRUMS",
      "channel": 9,
      "lane": "D"
    },
    {
      "time": 145.5,
      "duration": 0.214,
      "midi": 45,
      "noteNumber": 45,
      "velocity": 0.5,
      "track": "DRUMS",
      "channel": 9,
      "lane": "F"
    },
    {
      "time": 145.5,
      "duration": 0.214,
      "midi": 69,
      "noteNumber": 69,
      "velocity": 0.43,
      "track": "DRUMS",
      "channel": 9,
      "lane": "K"
    },
    {
      "time": 145.714,
      "duration": 0.527,
      "midi": 35,
      "noteNumber": 35,
      "velocity": 0.56,
      "track": "(unnamed)",
      "channel": 1,
      "lane": "D"
    },
    {
      "time": 145.714,
      "duration": 0.214,
      "midi": 35,
      "noteNumber": 35,
      "velocity": 0.5,
      "track": "DRUMS",
      "channel": 9,
      "lane": "D"
    },
    {
      "time": 145.714,
      "duration": 0.214,
      "midi": 42,
      "noteNumber": 42,
      "velocity": 0.58,
      "track": "DRUMS",
      "channel": 9,
      "lane": "D"
    },
    {
      "time": 145.714,
      "duration": 0.214,
      "midi": 69,
      "noteNumber": 69,
      "velocity": 0.5,
      "track": "DRUMS",
      "channel": 9,
      "lane": "K"
    },
    {
      "time": 145.727,
      "duration": 0.589,
      "midi": 47,
      "noteNumber": 47,
      "velocity": 0.69,
      "track": "(unnamed)",
      "channel": 2,
      "lane": "F"
    },
    {
      "time": 145.928,
      "duration": 0.214,
      "midi": 42,
      "noteNumber": 42,
      "velocity": 0.5,
      "track": "DRUMS",
      "channel": 9,
      "lane": "D"
    },
    {
      "time": 145.928,
      "duration": 0.214,
      "midi": 69,
      "noteNumber": 69,
      "velocity": 0.43,
      "track": "DRUMS",
      "channel": 9,
      "lane": "K"
    },
    {
      "time": 145.953,
      "duration": 0.623,
      "midi": 62,
      "noteNumber": 62,
      "velocity": 0.78,
      "track": "(unnamed)",
      "channel": 2,
      "lane": "J"
    },
    {
      "time": 145.955,
      "duration": 0.632,
      "midi": 64,
      "noteNumber": 64,
      "velocity": 0.67,
      "track": "(unnamed)",
      "channel": 2,
      "lane": "J"
    },
    {
      "time": 145.962,
      "duration": 0.366,
      "midi": 57,
      "noteNumber": 57,
      "velocity": 0.83,
      "track": "(unnamed)",
      "channel": 2,
      "lane": "J"
    },
    {
      "time": 146.142,
      "duration": 0.214,
      "midi": 37,
      "noteNumber": 37,
      "velocity": 0.66,
      "track": "DRUMS",
      "channel": 9,
      "lane": "D"
    },
    {
      "time": 146.142,
      "duration": 0.214,
      "midi": 42,
      "noteNumber": 42,
      "velocity": 0.58,
      "track": "DRUMS",
      "channel": 9,
      "lane": "D"
    },
    {
      "time": 146.142,
      "duration": 0.214,
      "midi": 69,
      "noteNumber": 69,
      "velocity": 0.43,
      "track": "DRUMS",
      "channel": 9,
      "lane": "K"
    },
    {
      "time": 146.357,
      "duration": 0.096,
      "midi": 35,
      "noteNumber": 35,
      "velocity": 0.44,
      "track": "(unnamed)",
      "channel": 1,
      "lane": "D"
    },
    {
      "time": 146.357,
      "duration": 0.214,
      "midi": 35,
      "noteNumber": 35,
      "velocity": 0.5,
      "track": "DRUMS",
      "channel": 9,
      "lane": "D"
    },
    {
      "time": 146.357,
      "duration": 0.214,
      "midi": 46,
      "noteNumber": 46,
      "velocity": 0.58,
      "track": "DRUMS",
      "channel": 9,
      "lane": "F"
    },
    {
      "time": 146.357,
      "duration": 0.214,
      "midi": 69,
      "noteNumber": 69,
      "velocity": 0.5,
      "track": "DRUMS",
      "channel": 9,
      "lane": "K"
    },
    {
      "time": 146.571,
      "duration": 0.455,
      "midi": 40,
      "noteNumber": 40,
      "velocity": 0.62,
      "track": "(unnamed)",
      "channel": 1,
      "lane": "D"
    },
    {
      "time": 146.571,
      "duration": 0.214,
      "midi": 35,
      "noteNumber": 35,
      "velocity": 0.5,
      "track": "DRUMS",
      "channel": 9,
      "lane": "D"
    },
    {
      "time": 146.571,
      "duration": 0.214,
      "midi": 42,
      "noteNumber": 42,
      "velocity": 0.58,
      "track": "DRUMS",
      "channel": 9,
      "lane": "D"
    },
    {
      "time": 146.571,
      "duration": 0.214,
      "midi": 69,
      "noteNumber": 69,
      "velocity": 0.5,
      "track": "DRUMS",
      "channel": 9,
      "lane": "K"
    },
    {
      "time": 146.584,
      "duration": 0.542,
      "midi": 56,
      "noteNumber": 56,
      "velocity": 0.76,
      "track": "(unnamed)",
      "channel": 2,
      "lane": "F"
    },
    {
      "time": 146.589,
      "duration": 0.571,
      "midi": 62,
      "noteNumber": 62,
      "velocity": 0.63,
      "track": "(unnamed)",
      "channel": 2,
      "lane": "J"
    },
    {
      "time": 146.591,
      "duration": 0.578,
      "midi": 64,
      "noteNumber": 64,
      "velocity": 0.72,
      "track": "(unnamed)",
      "channel": 2,
      "lane": "J"
    },
    {
      "time": 146.785,
      "duration": 0.214,
      "midi": 37,
      "noteNumber": 37,
      "velocity": 0.74,
      "track": "DRUMS",
      "channel": 9,
      "lane": "D"
    },
    {
      "time": 146.785,
      "duration": 0.214,
      "midi": 42,
      "noteNumber": 42,
      "velocity": 0.58,
      "track": "DRUMS",
      "channel": 9,
      "lane": "D"
    },
    {
      "time": 146.785,
      "duration": 0.214,
      "midi": 69,
      "noteNumber": 69,
      "velocity": 0.43,
      "track": "DRUMS",
      "channel": 9,
      "lane": "K"
    },
    {
      "time": 147,
      "duration": 0.214,
      "midi": 42,
      "noteNumber": 42,
      "velocity": 0.58,
      "track": "DRUMS",
      "channel": 9,
      "lane": "D"
    },
    {
      "time": 147,
      "duration": 0.214,
      "midi": 69,
      "noteNumber": 69,
      "velocity": 0.43,
      "track": "DRUMS",
      "channel": 9,
      "lane": "K"
    },
    {
      "time": 147.214,
      "duration": 0.092,
      "midi": 40,
      "noteNumber": 40,
      "velocity": 0.57,
      "track": "(unnamed)",
      "channel": 1,
      "lane": "D"
    },
    {
      "time": 147.214,
      "duration": 0.214,
      "midi": 35,
      "noteNumber": 35,
      "velocity": 0.58,
      "track": "DRUMS",
      "channel": 9,
      "lane": "D"
    },
    {
      "time": 147.214,
      "duration": 0.214,
      "midi": 46,
      "noteNumber": 46,
      "velocity": 0.5,
      "track": "DRUMS",
      "channel": 9,
      "lane": "F"
    },
    {
      "time": 147.214,
      "duration": 0.214,
      "midi": 69,
      "noteNumber": 69,
      "velocity": 0.5,
      "track": "DRUMS",
      "channel": 9,
      "lane": "K"
    },
    {
      "time": 147.428,
      "duration": 0.5,
      "midi": 40,
      "noteNumber": 40,
      "velocity": 0.66,
      "track": "(unnamed)",
      "channel": 1,
      "lane": "D"
    },
    {
      "time": 147.428,
      "duration": 0.214,
      "midi": 35,
      "noteNumber": 35,
      "velocity": 0.5,
      "track": "DRUMS",
      "channel": 9,
      "lane": "D"
    },
    {
      "time": 147.428,
      "duration": 0.214,
      "midi": 37,
      "noteNumber": 37,
      "velocity": 0.66,
      "track": "DRUMS",
      "channel": 9,
      "lane": "D"
    },
    {
      "time": 147.428,
      "duration": 0.214,
      "midi": 42,
      "noteNumber": 42,
      "velocity": 0.69,
      "track": "DRUMS",
      "channel": 9,
      "lane": "D"
    },
    {
      "time": 147.428,
      "duration": 0.214,
      "midi": 69,
      "noteNumber": 69,
      "velocity": 0.5,
      "track": "DRUMS",
      "channel": 9,
      "lane": "K"
    },
    {
      "time": 147.453,
      "duration": 0.953,
      "midi": 70,
      "noteNumber": 70,
      "velocity": 0.76,
      "track": "(unnamed)",
      "channel": 2,
      "lane": "K"
    },
    {
      "time": 147.457,
      "duration": 0.98,
      "midi": 52,
      "noteNumber": 52,
      "velocity": 0.72,
      "track": "(unnamed)",
      "channel": 2,
      "lane": "F"
    },
    {
      "time": 147.462,
      "duration": 0.978,
      "midi": 62,
      "noteNumber": 62,
      "velocity": 0.8,
      "track": "(unnamed)",
      "channel": 2,
      "lane": "J"
    },
    {
      "time": 147.466,
      "duration": 0.975,
      "midi": 67,
      "noteNumber": 67,
      "velocity": 0.79,
      "track": "(unnamed)",
      "channel": 2,
      "lane": "J"
    },
    {
      "time": 147.642,
      "duration": 0.214,
      "midi": 42,
      "noteNumber": 42,
      "velocity": 0.5,
      "track": "DRUMS",
      "channel": 9,
      "lane": "D"
    },
    {
      "time": 147.642,
      "duration": 0.214,
      "midi": 69,
      "noteNumber": 69,
      "velocity": 0.43,
      "track": "DRUMS",
      "channel": 9,
      "lane": "K"
    },
    {
      "time": 147.857,
      "duration": 0.214,
      "midi": 42,
      "noteNumber": 42,
      "velocity": 0.5,
      "track": "DRUMS",
      "channel": 9,
      "lane": "D"
    },
    {
      "time": 147.857,
      "duration": 0.214,
      "midi": 48,
      "noteNumber": 48,
      "velocity": 0.5,
      "track": "DRUMS",
      "channel": 9,
      "lane": "F"
    },
    {
      "time": 147.857,
      "duration": 0.214,
      "midi": 69,
      "noteNumber": 69,
      "velocity": 0.43,
      "track": "DRUMS",
      "channel": 9,
      "lane": "K"
    },
    {
      "time": 148.071,
      "duration": 0.092,
      "midi": 46,
      "noteNumber": 46,
      "velocity": 0.44,
      "track": "(unnamed)",
      "channel": 1,
      "lane": "F"
    },
    {
      "time": 148.071,
      "duration": 0.214,
      "midi": 35,
      "noteNumber": 35,
      "velocity": 0.43,
      "track": "DRUMS",
      "channel": 9,
      "lane": "D"
    },
    {
      "time": 148.071,
      "duration": 0.214,
      "midi": 37,
      "noteNumber": 37,
      "velocity": 0.74,
      "track": "DRUMS",
      "channel": 9,
      "lane": "D"
    },
    {
      "time": 148.071,
      "duration": 0.214,
      "midi": 42,
      "noteNumber": 42,
      "velocity": 0.5,
      "track": "DRUMS",
      "channel": 9,
      "lane": "D"
    },
    {
      "time": 148.071,
      "duration": 0.214,
      "midi": 69,
      "noteNumber": 69,
      "velocity": 0.43,
      "track": "DRUMS",
      "channel": 9,
      "lane": "K"
    },
    {
      "time": 148.285,
      "duration": 0.527,
      "midi": 46,
      "noteNumber": 46,
      "velocity": 0.55,
      "track": "(unnamed)",
      "channel": 1,
      "lane": "F"
    },
    {
      "time": 148.285,
      "duration": 0.214,
      "midi": 35,
      "noteNumber": 35,
      "velocity": 0.5,
      "track": "DRUMS",
      "channel": 9,
      "lane": "D"
    },
    {
      "time": 148.285,
      "duration": 0.214,
      "midi": 42,
      "noteNumber": 42,
      "velocity": 0.58,
      "track": "DRUMS",
      "channel": 9,
      "lane": "D"
    },
    {
      "time": 148.285,
      "duration": 0.214,
      "midi": 69,
      "noteNumber": 69,
      "velocity": 0.5,
      "track": "DRUMS",
      "channel": 9,
      "lane": "K"
    },
    {
      "time": 148.5,
      "duration": 0.214,
      "midi": 42,
      "noteNumber": 42,
      "velocity": 0.5,
      "track": "DRUMS",
      "channel": 9,
      "lane": "D"
    },
    {
      "time": 148.5,
      "duration": 0.214,
      "midi": 69,
      "noteNumber": 69,
      "velocity": 0.43,
      "track": "DRUMS",
      "channel": 9,
      "lane": "K"
    },
    {
      "time": 148.502,
      "duration": 0.241,
      "midi": 69,
      "noteNumber": 69,
      "velocity": 0.8,
      "track": "(unnamed)",
      "channel": 2,
      "lane": "K"
    },
    {
      "time": 148.714,
      "duration": 0.214,
      "midi": 37,
      "noteNumber": 37,
      "velocity": 0.66,
      "track": "DRUMS",
      "channel": 9,
      "lane": "D"
    },
    {
      "time": 148.714,
      "duration": 0.214,
      "midi": 42,
      "noteNumber": 42,
      "velocity": 0.58,
      "track": "DRUMS",
      "channel": 9,
      "lane": "D"
    },
    {
      "time": 148.714,
      "duration": 0.214,
      "midi": 69,
      "noteNumber": 69,
      "velocity": 0.43,
      "track": "DRUMS",
      "channel": 9,
      "lane": "K"
    },
    {
      "time": 148.738,
      "duration": 0.254,
      "midi": 67,
      "noteNumber": 67,
      "velocity": 0.68,
      "track": "(unnamed)",
      "channel": 2,
      "lane": "J"
    },
    {
      "time": 148.928,
      "duration": 0.092,
      "midi": 40,
      "noteNumber": 40,
      "velocity": 0.55,
      "track": "(unnamed)",
      "channel": 1,
      "lane": "D"
    },
    {
      "time": 148.928,
      "duration": 0.214,
      "midi": 35,
      "noteNumber": 35,
      "velocity": 0.43,
      "track": "DRUMS",
      "channel": 9,
      "lane": "D"
    },
    {
      "time": 148.928,
      "duration": 0.214,
      "midi": 46,
      "noteNumber": 46,
      "velocity": 0.66,
      "track": "DRUMS",
      "channel": 9,
      "lane": "F"
    },
    {
      "time": 148.928,
      "duration": 0.214,
      "midi": 69,
      "noteNumber": 69,
      "velocity": 0.43,
      "track": "DRUMS",
      "channel": 9,
      "lane": "K"
    },
    {
      "time": 149.142,
      "duration": 0.527,
      "midi": 33,
      "noteNumber": 33,
      "velocity": 0.54,
      "track": "(unnamed)",
      "channel": 1,
      "lane": "D"
    },
    {
      "time": 149.142,
      "duration": 0.089,
      "midi": 57,
      "noteNumber": 57,
      "velocity": 0.8,
      "track": "(unnamed)",
      "channel": 2,
      "lane": "J"
    },
    {
      "time": 149.142,
      "duration": 0.214,
      "midi": 35,
      "noteNumber": 35,
      "velocity": 0.5,
      "track": "DRUMS",
      "channel": 9,
      "lane": "D"
    },
    {
      "time": 149.142,
      "duration": 0.214,
      "midi": 42,
      "noteNumber": 42,
      "velocity": 0.58,
      "track": "DRUMS",
      "channel": 9,
      "lane": "D"
    },
    {
      "time": 149.142,
      "duration": 0.214,
      "midi": 69,
      "noteNumber": 69,
      "velocity": 0.5,
      "track": "DRUMS",
      "channel": 9,
      "lane": "K"
    },
    {
      "time": 149.147,
      "duration": 0.569,
      "midi": 62,
      "noteNumber": 62,
      "velocity": 0.76,
      "track": "(unnamed)",
      "channel": 2,
      "lane": "J"
    },
    {
      "time": 149.151,
      "duration": 0.618,
      "midi": 67,
      "noteNumber": 67,
      "velocity": 0.79,
      "track": "(unnamed)",
      "channel": 2,
      "lane": "J"
    },
    {
      "time": 149.156,
      "duration": 0.574,
      "midi": 52,
      "noteNumber": 52,
      "velocity": 0.72,
      "track": "(unnamed)",
      "channel": 2,
      "lane": "F"
    },
    {
      "time": 149.16,
      "duration": 0.592,
      "midi": 58,
      "noteNumber": 58,
      "velocity": 0.8,
      "track": "(unnamed)",
      "channel": 2,
      "lane": "J"
    },
    {
      "time": 149.357,
      "duration": 0.214,
      "midi": 42,
      "noteNumber": 42,
      "velocity": 0.5,
      "track": "DRUMS",
      "channel": 9,
      "lane": "D"
    },
    {
      "time": 149.357,
      "duration": 0.214,
      "midi": 69,
      "noteNumber": 69,
      "velocity": 0.43,
      "track": "DRUMS",
      "channel": 9,
      "lane": "K"
    },
    {
      "time": 149.571,
      "duration": 0.214,
      "midi": 37,
      "noteNumber": 37,
      "velocity": 0.66,
      "track": "DRUMS",
      "channel": 9,
      "lane": "D"
    },
    {
      "time": 149.571,
      "duration": 0.214,
      "midi": 42,
      "noteNumber": 42,
      "velocity": 0.58,
      "track": "DRUMS",
      "channel": 9,
      "lane": "D"
    },
    {
      "time": 149.571,
      "duration": 0.214,
      "midi": 48,
      "noteNumber": 48,
      "velocity": 0.5,
      "track": "DRUMS",
      "channel": 9,
      "lane": "F"
    },
    {
      "time": 149.571,
      "duration": 0.214,
      "midi": 69,
      "noteNumber": 69,
      "velocity": 0.43,
      "track": "DRUMS",
      "channel": 9,
      "lane": "K"
    },
    {
      "time": 149.785,
      "duration": 0.103,
      "midi": 40,
      "noteNumber": 40,
      "velocity": 0.46,
      "track": "(unnamed)",
      "channel": 1,
      "lane": "D"
    },
    {
      "time": 149.785,
      "duration": 0.214,
      "midi": 35,
      "noteNumber": 35,
      "velocity": 0.5,
      "track": "DRUMS",
      "channel": 9,
      "lane": "D"
    },
    {
      "time": 149.785,
      "duration": 0.214,
      "midi": 42,
      "noteNumber": 42,
      "velocity": 0.58,
      "track": "DRUMS",
      "channel": 9,
      "lane": "D"
    },
    {
      "time": 149.785,
      "duration": 0.214,
      "midi": 69,
      "noteNumber": 69,
      "velocity": 0.5,
      "track": "DRUMS",
      "channel": 9,
      "lane": "K"
    },
    {
      "time": 149.821,
      "duration": 0.283,
      "midi": 65,
      "noteNumber": 65,
      "velocity": 0.75,
      "track": "(unnamed)",
      "channel": 2,
      "lane": "J"
    },
    {
      "time": 149.828,
      "duration": 0.263,
      "midi": 56,
      "noteNumber": 56,
      "velocity": 0.76,
      "track": "(unnamed)",
      "channel": 2,
      "lane": "F"
    },
    {
      "time": 149.83,
      "duration": 0.096,
      "midi": 60,
      "noteNumber": 60,
      "velocity": 0.73,
      "track": "(unnamed)",
      "channel": 2,
      "lane": "J"
    },
    {
      "time": 150,
      "duration": 0.496,
      "midi": 40,
      "noteNumber": 40,
      "velocity": 0.61,
      "track": "(unnamed)",
      "channel": 1,
      "lane": "D"
    },
    {
      "time": 150,
      "duration": 0.214,
      "midi": 35,
      "noteNumber": 35,
      "velocity": 0.5,
      "track": "DRUMS",
      "channel": 9,
      "lane": "D"
    },
    {
      "time": 150,
      "duration": 0.214,
      "midi": 42,
      "noteNumber": 42,
      "velocity": 0.58,
      "track": "DRUMS",
      "channel": 9,
      "lane": "D"
    },
    {
      "time": 150,
      "duration": 0.214,
      "midi": 69,
      "noteNumber": 69,
      "velocity": 0.5,
      "track": "DRUMS",
      "channel": 9,
      "lane": "K"
    },
    {
      "time": 150.214,
      "duration": 0.214,
      "midi": 37,
      "noteNumber": 37,
      "velocity": 0.74,
      "track": "DRUMS",
      "channel": 9,
      "lane": "D"
    },
    {
      "time": 150.214,
      "duration": 0.214,
      "midi": 42,
      "noteNumber": 42,
      "velocity": 0.58,
      "track": "DRUMS",
      "channel": 9,
      "lane": "D"
    },
    {
      "time": 150.214,
      "duration": 0.214,
      "midi": 69,
      "noteNumber": 69,
      "velocity": 0.43,
      "track": "DRUMS",
      "channel": 9,
      "lane": "K"
    },
    {
      "time": 150.232,
      "duration": 0.283,
      "midi": 55,
      "noteNumber": 55,
      "velocity": 0.78,
      "track": "(unnamed)",
      "channel": 2,
      "lane": "F"
    },
    {
      "time": 150.236,
      "duration": 0.279,
      "midi": 64,
      "noteNumber": 64,
      "velocity": 0.72,
      "track": "(unnamed)",
      "channel": 2,
      "lane": "J"
    },
    {
      "time": 150.245,
      "duration": 0.257,
      "midi": 59,
      "noteNumber": 59,
      "velocity": 0.65,
      "track": "(unnamed)",
      "channel": 2,
      "lane": "J"
    },
    {
      "time": 150.428,
      "duration": 0.214,
      "midi": 42,
      "noteNumber": 42,
      "velocity": 0.58,
      "track": "DRUMS",
      "channel": 9,
      "lane": "D"
    },
    {
      "time": 150.428,
      "duration": 0.214,
      "midi": 45,
      "noteNumber": 45,
      "velocity": 0.5,
      "track": "DRUMS",
      "channel": 9,
      "lane": "F"
    },
    {
      "time": 150.428,
      "duration": 0.214,
      "midi": 69,
      "noteNumber": 69,
      "velocity": 0.43,
      "track": "DRUMS",
      "channel": 9,
      "lane": "K"
    },
    {
      "time": 150.642,
      "duration": 0.114,
      "midi": 33,
      "noteNumber": 33,
      "velocity": 0.53,
      "track": "(unnamed)",
      "channel": 1,
      "lane": "D"
    },
    {
      "time": 150.642,
      "duration": 0.214,
      "midi": 35,
      "noteNumber": 35,
      "velocity": 0.58,
      "track": "DRUMS",
      "channel": 9,
      "lane": "D"
    },
    {
      "time": 150.642,
      "duration": 0.214,
      "midi": 42,
      "noteNumber": 42,
      "velocity": 0.5,
      "track": "DRUMS",
      "channel": 9,
      "lane": "D"
    },
    {
      "time": 150.642,
      "duration": 0.214,
      "midi": 45,
      "noteNumber": 45,
      "velocity": 0.5,
      "track": "DRUMS",
      "channel": 9,
      "lane": "F"
    },
    {
      "time": 150.642,
      "duration": 0.214,
      "midi": 69,
      "noteNumber": 69,
      "velocity": 0.5,
      "track": "DRUMS",
      "channel": 9,
      "lane": "K"
    },
    {
      "time": 150.66,
      "duration": 1.408,
      "midi": 69,
      "noteNumber": 69,
      "velocity": 0.74,
      "track": "(unnamed)",
      "channel": 2,
      "lane": "K"
    },
    {
      "time": 150.667,
      "duration": 1.335,
      "midi": 62,
      "noteNumber": 62,
      "velocity": 0.66,
      "track": "(unnamed)",
      "channel": 2,
      "lane": "J"
    },
    {
      "time": 150.671,
      "duration": 0.596,
      "midi": 53,
      "noteNumber": 53,
      "velocity": 0.76,
      "track": "(unnamed)",
      "channel": 2,
      "lane": "F"
    },
    {
      "time": 150.676,
      "duration": 1.371,
      "midi": 60,
      "noteNumber": 60,
      "velocity": 0.61,
      "track": "(unnamed)",
      "channel": 2,
      "lane": "J"
    },
    {
      "time": 150.857,
      "duration": 0.502,
      "midi": 38,
      "noteNumber": 38,
      "velocity": 0.57,
      "track": "(unnamed)",
      "channel": 1,
      "lane": "D"
    },
    {
      "time": 150.857,
      "duration": 0.214,
      "midi": 35,
      "noteNumber": 35,
      "velocity": 0.5,
      "track": "DRUMS",
      "channel": 9,
      "lane": "D"
    },
    {
      "time": 150.857,
      "duration": 0.214,
      "midi": 37,
      "noteNumber": 37,
      "velocity": 0.66,
      "track": "DRUMS",
      "channel": 9,
      "lane": "D"
    },
    {
      "time": 150.857,
      "duration": 0.214,
      "midi": 42,
      "noteNumber": 42,
      "velocity": 0.69,
      "track": "DRUMS",
      "channel": 9,
      "lane": "D"
    },
    {
      "time": 150.857,
      "duration": 0.214,
      "midi": 69,
      "noteNumber": 69,
      "velocity": 0.5,
      "track": "DRUMS",
      "channel": 9,
      "lane": "K"
    },
    {
      "time": 151.071,
      "duration": 0.214,
      "midi": 42,
      "noteNumber": 42,
      "velocity": 0.5,
      "track": "DRUMS",
      "channel": 9,
      "lane": "D"
    },
    {
      "time": 151.071,
      "duration": 0.214,
      "midi": 69,
      "noteNumber": 69,
      "velocity": 0.43,
      "track": "DRUMS",
      "channel": 9,
      "lane": "K"
    },
    {
      "time": 151.285,
      "duration": 0.214,
      "midi": 42,
      "noteNumber": 42,
      "velocity": 0.5,
      "track": "DRUMS",
      "channel": 9,
      "lane": "D"
    },
    {
      "time": 151.285,
      "duration": 0.214,
      "midi": 69,
      "noteNumber": 69,
      "velocity": 0.43,
      "track": "DRUMS",
      "channel": 9,
      "lane": "K"
    },
    {
      "time": 151.499,
      "duration": 0.109,
      "midi": 45,
      "noteNumber": 45,
      "velocity": 0.43,
      "track": "(unnamed)",
      "channel": 1,
      "lane": "F"
    },
    {
      "time": 151.499,
      "duration": 0.214,
      "midi": 35,
      "noteNumber": 35,
      "velocity": 0.43,
      "track": "DRUMS",
      "channel": 9,
      "lane": "D"
    },
    {
      "time": 151.499,
      "duration": 0.214,
      "midi": 37,
      "noteNumber": 37,
      "velocity": 0.74,
      "track": "DRUMS",
      "channel": 9,
      "lane": "D"
    },
    {
      "time": 151.499,
      "duration": 0.214,
      "midi": 42,
      "noteNumber": 42,
      "velocity": 0.5,
      "track": "DRUMS",
      "channel": 9,
      "lane": "D"
    },
    {
      "time": 151.499,
      "duration": 0.214,
      "midi": 69,
      "noteNumber": 69,
      "velocity": 0.43,
      "track": "DRUMS",
      "channel": 9,
      "lane": "K"
    },
    {
      "time": 151.714,
      "duration": 0.455,
      "midi": 45,
      "noteNumber": 45,
      "velocity": 0.56,
      "track": "(unnamed)",
      "channel": 1,
      "lane": "F"
    },
    {
      "time": 151.714,
      "duration": 0.214,
      "midi": 35,
      "noteNumber": 35,
      "velocity": 0.5,
      "track": "DRUMS",
      "channel": 9,
      "lane": "D"
    },
    {
      "time": 151.714,
      "duration": 0.214,
      "midi": 42,
      "noteNumber": 42,
      "velocity": 0.58,
      "track": "DRUMS",
      "channel": 9,
      "lane": "D"
    },
    {
      "time": 151.714,
      "duration": 0.214,
      "midi": 69,
      "noteNumber": 69,
      "velocity": 0.5,
      "track": "DRUMS",
      "channel": 9,
      "lane": "K"
    },
    {
      "time": 151.928,
      "duration": 0.214,
      "midi": 42,
      "noteNumber": 42,
      "velocity": 0.5,
      "track": "DRUMS",
      "channel": 9,
      "lane": "D"
    },
    {
      "time": 151.928,
      "duration": 0.214,
      "midi": 69,
      "noteNumber": 69,
      "velocity": 0.43,
      "track": "DRUMS",
      "channel": 9,
      "lane": "K"
    },
    {
      "time": 152.142,
      "duration": 0.214,
      "midi": 37,
      "noteNumber": 37,
      "velocity": 0.66,
      "track": "DRUMS",
      "channel": 9,
      "lane": "D"
    },
    {
      "time": 152.142,
      "duration": 0.214,
      "midi": 42,
      "noteNumber": 42,
      "velocity": 0.58,
      "track": "DRUMS",
      "channel": 9,
      "lane": "D"
    },
    {
      "time": 152.142,
      "duration": 0.214,
      "midi": 69,
      "noteNumber": 69,
      "velocity": 0.43,
      "track": "DRUMS",
      "channel": 9,
      "lane": "K"
    },
    {
      "time": 152.299,
      "duration": 0.17,
      "midi": 64,
      "noteNumber": 64,
      "velocity": 0.57,
      "track": "(unnamed)",
      "channel": 2,
      "lane": "J"
    },
    {
      "time": 152.357,
      "duration": 0.107,
      "midi": 38,
      "noteNumber": 38,
      "velocity": 0.57,
      "track": "(unnamed)",
      "channel": 1,
      "lane": "D"
    },
    {
      "time": 152.357,
      "duration": 0.214,
      "midi": 35,
      "noteNumber": 35,
      "velocity": 0.43,
      "track": "DRUMS",
      "channel": 9,
      "lane": "D"
    },
    {
      "time": 152.357,
      "duration": 0.214,
      "midi": 42,
      "noteNumber": 42,
      "velocity": 0.66,
      "track": "DRUMS",
      "channel": 9,
      "lane": "D"
    },
    {
      "time": 152.357,
      "duration": 0.214,
      "midi": 69,
      "noteNumber": 69,
      "velocity": 0.43,
      "track": "DRUMS",
      "channel": 9,
      "lane": "K"
    },
    {
      "time": 152.437,
      "duration": 0.156,
      "midi": 67,
      "noteNumber": 67,
      "velocity": 0.57,
      "track": "(unnamed)",
      "channel": 2,
      "lane": "J"
    },
    {
      "time": 152.571,
      "duration": 0.592,
      "midi": 38,
      "noteNumber": 38,
      "velocity": 0.61,
      "track": "(unnamed)",
      "channel": 1,
      "lane": "D"
    },
    {
      "time": 152.571,
      "duration": 0.214,
      "midi": 42,
      "noteNumber": 42,
      "velocity": 0.5,
      "track": "DRUMS",
      "channel": 9,
      "lane": "D"
    },
    {
      "time": 152.571,
      "duration": 0.214,
      "midi": 69,
      "noteNumber": 69,
      "velocity": 0.66,
      "track": "DRUMS",
      "channel": 9,
      "lane": "K"
    },
    {
      "time": 152.58,
      "duration": 0.304,
      "midi": 65,
      "noteNumber": 65,
      "velocity": 0.89,
      "track": "(unnamed)",
      "channel": 2,
      "lane": "J"
    },
    {
      "time": 152.785,
      "duration": 0.214,
      "midi": 42,
      "noteNumber": 42,
      "velocity": 0.43,
      "track": "DRUMS",
      "channel": 9,
      "lane": "D"
    },
    {
      "time": 152.785,
      "duration": 0.214,
      "midi": 48,
      "noteNumber": 48,
      "velocity": 0.43,
      "track": "DRUMS",
      "channel": 9,
      "lane": "F"
    },
    {
      "time": 152.785,
      "duration": 0.214,
      "midi": 69,
      "noteNumber": 69,
      "velocity": 0.43,
      "track": "DRUMS",
      "channel": 9,
      "lane": "K"
    },
    {
      "time": 152.81,
      "duration": 0.199,
      "midi": 62,
      "noteNumber": 62,
      "velocity": 0.91,
      "track": "(unnamed)",
      "channel": 2,
      "lane": "J"
    },
    {
      "time": 152.999,
      "duration": 0.001,
      "midi": 37,
      "noteNumber": 37,
      "velocity": 0.66,
      "track": "DRUMS",
      "channel": 9,
      "lane": "D"
    },
    {
      "time": 152.999,
      "duration": 0.214,
      "midi": 37,
      "noteNumber": 37,
      "velocity": 0.43,
      "track": "DRUMS",
      "channel": 9,
      "lane": "D"
    },
    {
      "time": 152.999,
      "duration": 0.214,
      "midi": 42,
      "noteNumber": 42,
      "velocity": 0.5,
      "track": "DRUMS",
      "channel": 9,
      "lane": "D"
    },
    {
      "time": 153.006,
      "duration": 0.252,
      "midi": 57,
      "noteNumber": 57,
      "velocity": 0.69,
      "track": "(unnamed)",
      "channel": 2,
      "lane": "J"
    },
    {
      "time": 153.214,
      "duration": 0.116,
      "midi": 45,
      "noteNumber": 45,
      "velocity": 0.45,
      "track": "(unnamed)",
      "channel": 1,
      "lane": "F"
    },
    {
      "time": 153.214,
      "duration": 0.214,
      "midi": 37,
      "noteNumber": 37,
      "velocity": 0.43,
      "track": "DRUMS",
      "channel": 9,
      "lane": "D"
    },
    {
      "time": 153.214,
      "duration": 0.214,
      "midi": 42,
      "noteNumber": 42,
      "velocity": 0.5,
      "track": "DRUMS",
      "channel": 9,
      "lane": "D"
    },
    {
      "time": 153.214,
      "duration": 0.214,
      "midi": 48,
      "noteNumber": 48,
      "velocity": 0.43,
      "track": "DRUMS",
      "channel": 9,
      "lane": "F"
    },
    {
      "time": 153.223,
      "duration": 0.214,
      "midi": 53,
      "noteNumber": 53,
      "velocity": 0.79,
      "track": "(unnamed)",
      "channel": 2,
      "lane": "F"
    },
    {
      "time": 153.428,
      "duration": 0.321,
      "midi": 45,
      "noteNumber": 45,
      "velocity": 0.53,
      "track": "(unnamed)",
      "channel": 1,
      "lane": "F"
    },
    {
      "time": 153.428,
      "duration": 0.214,
      "midi": 37,
      "noteNumber": 37,
      "velocity": 0.5,
      "track": "DRUMS",
      "channel": 9,
      "lane": "D"
    },
    {
      "time": 153.428,
      "duration": 0.214,
      "midi": 42,
      "noteNumber": 42,
      "velocity": 0.5,
      "track": "DRUMS",
      "channel": 9,
      "lane": "D"
    },
    {
      "time": 153.428,
      "duration": 0.214,
      "midi": 48,
      "noteNumber": 48,
      "velocity": 0.5,
      "track": "DRUMS",
      "channel": 9,
      "lane": "F"
    },
    {
      "time": 153.433,
      "duration": 0.246,
      "midi": 52,
      "noteNumber": 52,
      "velocity": 0.73,
      "track": "(unnamed)",
      "channel": 2,
      "lane": "F"
    },
    {
      "time": 153.642,
      "duration": 0.214,
      "midi": 37,
      "noteNumber": 37,
      "velocity": 0.43,
      "track": "DRUMS",
      "channel": 9,
      "lane": "D"
    },
    {
      "time": 153.642,
      "duration": 0.214,
      "midi": 42,
      "noteNumber": 42,
      "velocity": 0.5,
      "track": "DRUMS",
      "channel": 9,
      "lane": "D"
    },
    {
      "time": 153.642,
      "duration": 0.214,
      "midi": 48,
      "noteNumber": 48,
      "velocity": 0.5,
      "track": "DRUMS",
      "channel": 9,
      "lane": "F"
    },
    {
      "time": 153.676,
      "duration": 0.52,
      "midi": 50,
      "noteNumber": 50,
      "velocity": 0.73,
      "track": "(unnamed)",
      "channel": 2,
      "lane": "F"
    },
    {
      "time": 153.857,
      "duration": 0.321,
      "midi": 33,
      "noteNumber": 33,
      "velocity": 0.61,
      "track": "(unnamed)",
      "channel": 1,
      "lane": "D"
    },
    {
      "time": 153.857,
      "duration": 0.214,
      "midi": 37,
      "noteNumber": 37,
      "velocity": 0.43,
      "track": "DRUMS",
      "channel": 9,
      "lane": "D"
    },
    {
      "time": 153.857,
      "duration": 0.214,
      "midi": 42,
      "noteNumber": 42,
      "velocity": 0.5,
      "track": "DRUMS",
      "channel": 9,
      "lane": "D"
    },
    {
      "time": 153.857,
      "duration": 0.214,
      "midi": 48,
      "noteNumber": 48,
      "velocity": 0.54,
      "track": "DRUMS",
      "channel": 9,
      "lane": "F"
    },
    {
      "time": 154.071,
      "duration": 0.214,
      "midi": 37,
      "noteNumber": 37,
      "velocity": 0.43,
      "track": "DRUMS",
      "channel": 9,
      "lane": "D"
    },
    {
      "time": 154.071,
      "duration": 0.214,
      "midi": 42,
      "noteNumber": 42,
      "velocity": 0.5,
      "track": "DRUMS",
      "channel": 9,
      "lane": "D"
    },
    {
      "time": 154.071,
      "duration": 0.214,
      "midi": 45,
      "noteNumber": 45,
      "velocity": 0.5,
      "track": "DRUMS",
      "channel": 9,
      "lane": "F"
    },
    {
      "time": 154.285,
      "duration": 0.489,
      "midi": 35,
      "noteNumber": 35,
      "velocity": 0.66,
      "track": "(unnamed)",
      "channel": 1,
      "lane": "D"
    },
    {
      "time": 154.285,
      "duration": 0.214,
      "midi": 35,
      "noteNumber": 35,
      "velocity": 0.5,
      "track": "DRUMS",
      "channel": 9,
      "lane": "D"
    },
    {
      "time": 154.285,
      "duration": 0.214,
      "midi": 37,
      "noteNumber": 37,
      "velocity": 0.66,
      "track": "DRUMS",
      "channel": 9,
      "lane": "D"
    },
    {
      "time": 154.285,
      "duration": 0.214,
      "midi": 42,
      "noteNumber": 42,
      "velocity": 0.69,
      "track": "DRUMS",
      "channel": 9,
      "lane": "D"
    },
    {
      "time": 154.285,
      "duration": 0.214,
      "midi": 69,
      "noteNumber": 69,
      "velocity": 0.5,
      "track": "DRUMS",
      "channel": 9,
      "lane": "K"
    },
    {
      "time": 154.31,
      "duration": 1.085,
      "midi": 47,
      "noteNumber": 47,
      "velocity": 0.84,
      "track": "(unnamed)",
      "channel": 2,
      "lane": "F"
    },
    {
      "time": 154.499,
      "duration": 0.214,
      "midi": 42,
      "noteNumber": 42,
      "velocity": 0.5,
      "track": "DRUMS",
      "channel": 9,
      "lane": "D"
    },
    {
      "time": 154.499,
      "duration": 0.214,
      "midi": 69,
      "noteNumber": 69,
      "velocity": 0.43,
      "track": "DRUMS",
      "channel": 9,
      "lane": "K"
    },
    {
      "time": 154.531,
      "duration": 0.908,
      "midi": 62,
      "noteNumber": 62,
      "velocity": 0.71,
      "track": "(unnamed)",
      "channel": 2,
      "lane": "J"
    },
    {
      "time": 154.537,
      "duration": 0.9,
      "midi": 57,
      "noteNumber": 57,
      "velocity": 0.69,
      "track": "(unnamed)",
      "channel": 2,
      "lane": "J"
    },
    {
      "time": 154.714,
      "duration": 0.214,
      "midi": 42,
      "noteNumber": 42,
      "velocity": 0.5,
      "track": "DRUMS",
      "channel": 9,
      "lane": "D"
    },
    {
      "time": 154.714,
      "duration": 0.214,
      "midi": 69,
      "noteNumber": 69,
      "velocity": 0.43,
      "track": "DRUMS",
      "channel": 9,
      "lane": "K"
    },
    {
      "time": 154.928,
      "duration": 0.114,
      "midi": 41,
      "noteNumber": 41,
      "velocity": 0.57,
      "track": "(unnamed)",
      "channel": 1,
      "lane": "D"
    },
    {
      "time": 154.928,
      "duration": 0.214,
      "midi": 35,
      "noteNumber": 35,
      "velocity": 0.43,
      "track": "DRUMS",
      "channel": 9,
      "lane": "D"
    },
    {
      "time": 154.928,
      "duration": 0.214,
      "midi": 37,
      "noteNumber": 37,
      "velocity": 0.74,
      "track": "DRUMS",
      "channel": 9,
      "lane": "D"
    },
    {
      "time": 154.928,
      "duration": 0.214,
      "midi": 42,
      "noteNumber": 42,
      "velocity": 0.5,
      "track": "DRUMS",
      "channel": 9,
      "lane": "D"
    },
    {
      "time": 154.928,
      "duration": 0.214,
      "midi": 69,
      "noteNumber": 69,
      "velocity": 0.43,
      "track": "DRUMS",
      "channel": 9,
      "lane": "K"
    },
    {
      "time": 155.142,
      "duration": 0.478,
      "midi": 41,
      "noteNumber": 41,
      "velocity": 0.51,
      "track": "(unnamed)",
      "channel": 1,
      "lane": "D"
    },
    {
      "time": 155.142,
      "duration": 0.214,
      "midi": 35,
      "noteNumber": 35,
      "velocity": 0.5,
      "track": "DRUMS",
      "channel": 9,
      "lane": "D"
    },
    {
      "time": 155.142,
      "duration": 0.214,
      "midi": 42,
      "noteNumber": 42,
      "velocity": 0.58,
      "track": "DRUMS",
      "channel": 9,
      "lane": "D"
    },
    {
      "time": 155.142,
      "duration": 0.214,
      "midi": 69,
      "noteNumber": 69,
      "velocity": 0.5,
      "track": "DRUMS",
      "channel": 9,
      "lane": "K"
    },
    {
      "time": 155.167,
      "duration": 0.252,
      "midi": 64,
      "noteNumber": 64,
      "velocity": 0.91,
      "track": "(unnamed)",
      "channel": 2,
      "lane": "J"
    },
    {
      "time": 155.357,
      "duration": 0.214,
      "midi": 42,
      "noteNumber": 42,
      "velocity": 0.5,
      "track": "DRUMS",
      "channel": 9,
      "lane": "D"
    },
    {
      "time": 155.357,
      "duration": 0.214,
      "midi": 69,
      "noteNumber": 69,
      "velocity": 0.43,
      "track": "DRUMS",
      "channel": 9,
      "lane": "K"
    },
    {
      "time": 155.406,
      "duration": 0.433,
      "midi": 65,
      "noteNumber": 65,
      "velocity": 0.77,
      "track": "(unnamed)",
      "channel": 2,
      "lane": "J"
    },
    {
      "time": 155.571,
      "duration": 0.214,
      "midi": 37,
      "noteNumber": 37,
      "velocity": 0.66,
      "track": "DRUMS",
      "channel": 9,
      "lane": "D"
    },
    {
      "time": 155.571,
      "duration": 0.214,
      "midi": 42,
      "noteNumber": 42,
      "velocity": 0.58,
      "track": "DRUMS",
      "channel": 9,
      "lane": "D"
    },
    {
      "time": 155.571,
      "duration": 0.214,
      "midi": 45,
      "noteNumber": 45,
      "velocity": 0.5,
      "track": "DRUMS",
      "channel": 9,
      "lane": "F"
    },
    {
      "time": 155.571,
      "duration": 0.214,
      "midi": 69,
      "noteNumber": 69,
      "velocity": 0.43,
      "track": "DRUMS",
      "channel": 9,
      "lane": "K"
    },
    {
      "time": 155.785,
      "duration": 0.103,
      "midi": 35,
      "noteNumber": 35,
      "velocity": 0.43,
      "track": "(unnamed)",
      "channel": 1,
      "lane": "D"
    },
    {
      "time": 155.785,
      "duration": 0.214,
      "midi": 35,
      "noteNumber": 35,
      "velocity": 0.43,
      "track": "DRUMS",
      "channel": 9,
      "lane": "D"
    },
    {
      "time": 155.785,
      "duration": 0.214,
      "midi": 42,
      "noteNumber": 42,
      "velocity": 0.66,
      "track": "DRUMS",
      "channel": 9,
      "lane": "D"
    },
    {
      "time": 155.785,
      "duration": 0.214,
      "midi": 45,
      "noteNumber": 45,
      "velocity": 0.5,
      "track": "DRUMS",
      "channel": 9,
      "lane": "F"
    },
    {
      "time": 155.785,
      "duration": 0.214,
      "midi": 69,
      "noteNumber": 69,
      "velocity": 0.43,
      "track": "DRUMS",
      "channel": 9,
      "lane": "K"
    },
    {
      "time": 155.999,
      "duration": 0.453,
      "midi": 40,
      "noteNumber": 40,
      "velocity": 0.63,
      "track": "(unnamed)",
      "channel": 1,
      "lane": "D"
    },
    {
      "time": 155.999,
      "duration": 0.214,
      "midi": 35,
      "noteNumber": 35,
      "velocity": 0.5,
      "track": "DRUMS",
      "channel": 9,
      "lane": "D"
    },
    {
      "time": 155.999,
      "duration": 0.214,
      "midi": 42,
      "noteNumber": 42,
      "velocity": 0.58,
      "track": "DRUMS",
      "channel": 9,
      "lane": "D"
    },
    {
      "time": 155.999,
      "duration": 0.214,
      "midi": 69,
      "noteNumber": 69,
      "velocity": 0.5,
      "track": "DRUMS",
      "channel": 9,
      "lane": "K"
    },
    {
      "time": 156.015,
      "duration": 0.252,
      "midi": 71,
      "noteNumber": 71,
      "velocity": 0.56,
      "track": "(unnamed)",
      "channel": 2,
      "lane": "K"
    },
    {
      "time": 156.022,
      "duration": 0.234,
      "midi": 56,
      "noteNumber": 56,
      "velocity": 0.65,
      "track": "(unnamed)",
      "channel": 2,
      "lane": "F"
    },
    {
      "time": 156.205,
      "duration": 0.217,
      "midi": 68,
      "noteNumber": 68,
      "velocity": 0.61,
      "track": "(unnamed)",
      "channel": 2,
      "lane": "K"
    },
    {
      "time": 156.209,
      "duration": 0.205,
      "midi": 72,
      "noteNumber": 72,
      "velocity": 0.94,
      "track": "(unnamed)",
      "channel": 2,
      "lane": "K"
    },
    {
      "time": 156.214,
      "duration": 0.214,
      "midi": 42,
      "noteNumber": 42,
      "velocity": 0.5,
      "track": "DRUMS",
      "channel": 9,
      "lane": "D"
    },
    {
      "time": 156.214,
      "duration": 0.214,
      "midi": 69,
      "noteNumber": 69,
      "velocity": 0.43,
      "track": "DRUMS",
      "channel": 9,
      "lane": "K"
    },
    {
      "time": 156.216,
      "duration": 0.194,
      "midi": 57,
      "noteNumber": 57,
      "velocity": 0.75,
      "track": "(unnamed)",
      "channel": 2,
      "lane": "J"
    },
    {
      "time": 156.22,
      "duration": 0.208,
      "midi": 63,
      "noteNumber": 63,
      "velocity": 0.65,
      "track": "(unnamed)",
      "channel": 2,
      "lane": "J"
    },
    {
      "time": 156.428,
      "duration": 0.214,
      "midi": 37,
      "noteNumber": 37,
      "velocity": 0.66,
      "track": "DRUMS",
      "channel": 9,
      "lane": "D"
    },
    {
      "time": 156.428,
      "duration": 0.214,
      "midi": 42,
      "noteNumber": 42,
      "velocity": 0.58,
      "track": "DRUMS",
      "channel": 9,
      "lane": "D"
    },
    {
      "time": 156.428,
      "duration": 0.214,
      "midi": 48,
      "noteNumber": 48,
      "velocity": 0.5,
      "track": "DRUMS",
      "channel": 9,
      "lane": "F"
    },
    {
      "time": 156.428,
      "duration": 0.214,
      "midi": 69,
      "noteNumber": 69,
      "velocity": 0.43,
      "track": "DRUMS",
      "channel": 9,
      "lane": "K"
    },
    {
      "time": 156.439,
      "duration": 0.788,
      "midi": 67,
      "noteNumber": 67,
      "velocity": 0.61,
      "track": "(unnamed)",
      "channel": 2,
      "lane": "J"
    },
    {
      "time": 156.444,
      "duration": 0.792,
      "midi": 71,
      "noteNumber": 71,
      "velocity": 0.78,
      "track": "(unnamed)",
      "channel": 2,
      "lane": "K"
    },
    {
      "time": 156.45,
      "duration": 0.768,
      "midi": 56,
      "noteNumber": 56,
      "velocity": 0.75,
      "track": "(unnamed)",
      "channel": 2,
      "lane": "F"
    },
    {
      "time": 156.455,
      "duration": 0.788,
      "midi": 62,
      "noteNumber": 62,
      "velocity": 0.61,
      "track": "(unnamed)",
      "channel": 2,
      "lane": "J"
    },
    {
      "time": 156.642,
      "duration": 0.096,
      "midi": 46,
      "noteNumber": 46,
      "velocity": 0.58,
      "track": "(unnamed)",
      "channel": 1,
      "lane": "F"
    },
    {
      "time": 156.642,
      "duration": 0.214,
      "midi": 35,
      "noteNumber": 35,
      "velocity": 0.5,
      "track": "DRUMS",
      "channel": 9,
      "lane": "D"
    },
    {
      "time": 156.642,
      "duration": 0.214,
      "midi": 46,
      "noteNumber": 46,
      "velocity": 0.58,
      "track": "DRUMS",
      "channel": 9,
      "lane": "F"
    },
    {
      "time": 156.642,
      "duration": 0.214,
      "midi": 69,
      "noteNumber": 69,
      "velocity": 0.5,
      "track": "DRUMS",
      "channel": 9,
      "lane": "K"
    },
    {
      "time": 156.857,
      "duration": 0.545,
      "midi": 47,
      "noteNumber": 47,
      "velocity": 0.51,
      "track": "(unnamed)",
      "channel": 1,
      "lane": "F"
    },
    {
      "time": 156.857,
      "duration": 0.214,
      "midi": 35,
      "noteNumber": 35,
      "velocity": 0.5,
      "track": "DRUMS",
      "channel": 9,
      "lane": "D"
    },
    {
      "time": 156.857,
      "duration": 0.214,
      "midi": 42,
      "noteNumber": 42,
      "velocity": 0.58,
      "track": "DRUMS",
      "channel": 9,
      "lane": "D"
    },
    {
      "time": 156.857,
      "duration": 0.214,
      "midi": 69,
      "noteNumber": 69,
      "velocity": 0.5,
      "track": "DRUMS",
      "channel": 9,
      "lane": "K"
    },
    {
      "time": 157.071,
      "duration": 0.214,
      "midi": 37,
      "noteNumber": 37,
      "velocity": 0.74,
      "track": "DRUMS",
      "channel": 9,
      "lane": "D"
    },
    {
      "time": 157.071,
      "duration": 0.214,
      "midi": 42,
      "noteNumber": 42,
      "velocity": 0.58,
      "track": "DRUMS",
      "channel": 9,
      "lane": "D"
    },
    {
      "time": 157.071,
      "duration": 0.214,
      "midi": 69,
      "noteNumber": 69,
      "velocity": 0.43,
      "track": "DRUMS",
      "channel": 9,
      "lane": "K"
    },
    {
      "time": 157.285,
      "duration": 0.214,
      "midi": 42,
      "noteNumber": 42,
      "velocity": 0.58,
      "track": "DRUMS",
      "channel": 9,
      "lane": "D"
    },
    {
      "time": 157.285,
      "duration": 0.214,
      "midi": 45,
      "noteNumber": 45,
      "velocity": 0.5,
      "track": "DRUMS",
      "channel": 9,
      "lane": "F"
    },
    {
      "time": 157.285,
      "duration": 0.214,
      "midi": 69,
      "noteNumber": 69,
      "velocity": 0.43,
      "track": "DRUMS",
      "channel": 9,
      "lane": "K"
    },
    {
      "time": 157.301,
      "duration": 0.225,
      "midi": 67,
      "noteNumber": 67,
      "velocity": 0.8,
      "track": "(unnamed)",
      "channel": 2,
      "lane": "J"
    },
    {
      "time": 157.305,
      "duration": 0.196,
      "midi": 56,
      "noteNumber": 56,
      "velocity": 0.72,
      "track": "(unnamed)",
      "channel": 2,
      "lane": "F"
    },
    {
      "time": 157.31,
      "duration": 0.225,
      "midi": 62,
      "noteNumber": 62,
      "velocity": 0.77,
      "track": "(unnamed)",
      "channel": 2,
      "lane": "J"
    },
    {
      "time": 157.499,
      "duration": 0.098,
      "midi": 40,
      "noteNumber": 40,
      "velocity": 0.43,
      "track": "(unnamed)",
      "channel": 1,
      "lane": "D"
    },
    {
      "time": 157.499,
      "duration": 0.214,
      "midi": 35,
      "noteNumber": 35,
      "velocity": 0.58,
      "track": "DRUMS",
      "channel": 9,
      "lane": "D"
    },
    {
      "time": 157.499,
      "duration": 0.214,
      "midi": 42,
      "noteNumber": 42,
      "velocity": 0.5,
      "track": "DRUMS",
      "channel": 9,
      "lane": "D"
    },
    {
      "time": 157.499,
      "duration": 0.214,
      "midi": 45,
      "noteNumber": 45,
      "velocity": 0.5,
      "track": "DRUMS",
      "channel": 9,
      "lane": "F"
    },
    {
      "time": 157.499,
      "duration": 0.214,
      "midi": 69,
      "noteNumber": 69,
      "velocity": 0.5,
      "track": "DRUMS",
      "channel": 9,
      "lane": "K"
    },
    {
      "time": 157.714,
      "duration": 0.5,
      "midi": 33,
      "noteNumber": 33,
      "velocity": 0.51,
      "track": "(unnamed)",
      "channel": 1,
      "lane": "D"
    },
    {
      "time": 157.714,
      "duration": 0.214,
      "midi": 35,
      "noteNumber": 35,
      "velocity": 0.5,
      "track": "DRUMS",
      "channel": 9,
      "lane": "D"
    },
    {
      "time": 157.714,
      "duration": 0.214,
      "midi": 37,
      "noteNumber": 37,
      "velocity": 0.66,
      "track": "DRUMS",
      "channel": 9,
      "lane": "D"
    },
    {
      "time": 157.714,
      "duration": 0.214,
      "midi": 42,
      "noteNumber": 42,
      "velocity": 0.69,
      "track": "DRUMS",
      "channel": 9,
      "lane": "D"
    },
    {
      "time": 157.714,
      "duration": 0.214,
      "midi": 69,
      "noteNumber": 69,
      "velocity": 0.5,
      "track": "DRUMS",
      "channel": 9,
      "lane": "K"
    },
    {
      "time": 157.752,
      "duration": 0.496,
      "midi": 45,
      "noteNumber": 45,
      "velocity": 0.8,
      "track": "(unnamed)",
      "channel": 2,
      "lane": "F"
    },
    {
      "time": 157.928,
      "duration": 0.214,
      "midi": 42,
      "noteNumber": 42,
      "velocity": 0.5,
      "track": "DRUMS",
      "channel": 9,
      "lane": "D"
    },
    {
      "time": 157.928,
      "duration": 0.214,
      "midi": 69,
      "noteNumber": 69,
      "velocity": 0.43,
      "track": "DRUMS",
      "channel": 9,
      "lane": "K"
    },
    {
      "time": 157.966,
      "duration": 0.292,
      "midi": 55,
      "noteNumber": 55,
      "velocity": 0.72,
      "track": "(unnamed)",
      "channel": 2,
      "lane": "F"
    },
    {
      "time": 157.968,
      "duration": 0.272,
      "midi": 60,
      "noteNumber": 60,
      "velocity": 0.76,
      "track": "(unnamed)",
      "channel": 2,
      "lane": "J"
    },
    {
      "time": 158.142,
      "duration": 0.214,
      "midi": 42,
      "noteNumber": 42,
      "velocity": 0.5,
      "track": "DRUMS",
      "channel": 9,
      "lane": "D"
    },
    {
      "time": 158.142,
      "duration": 0.214,
      "midi": 69,
      "noteNumber": 69,
      "velocity": 0.43,
      "track": "DRUMS",
      "channel": 9,
      "lane": "K"
    },
    {
      "time": 158.357,
      "duration": 0.107,
      "midi": 40,
      "noteNumber": 40,
      "velocity": 0.57,
      "track": "(unnamed)",
      "channel": 1,
      "lane": "D"
    },
    {
      "time": 158.357,
      "duration": 0.214,
      "midi": 35,
      "noteNumber": 35,
      "velocity": 0.43,
      "track": "DRUMS",
      "channel": 9,
      "lane": "D"
    },
    {
      "time": 158.357,
      "duration": 0.214,
      "midi": 37,
      "noteNumber": 37,
      "velocity": 0.74,
      "track": "DRUMS",
      "channel": 9,
      "lane": "D"
    },
    {
      "time": 158.357,
      "duration": 0.214,
      "midi": 42,
      "noteNumber": 42,
      "velocity": 0.5,
      "track": "DRUMS",
      "channel": 9,
      "lane": "D"
    },
    {
      "time": 158.357,
      "duration": 0.214,
      "midi": 69,
      "noteNumber": 69,
      "velocity": 0.43,
      "track": "DRUMS",
      "channel": 9,
      "lane": "K"
    },
    {
      "time": 158.383,
      "duration": 0.431,
      "midi": 62,
      "noteNumber": 62,
      "velocity": 0.83,
      "track": "(unnamed)",
      "channel": 2,
      "lane": "J"
    },
    {
      "time": 158.571,
      "duration": 0.471,
      "midi": 40,
      "noteNumber": 40,
      "velocity": 0.51,
      "track": "(unnamed)",
      "channel": 1,
      "lane": "D"
    },
    {
      "time": 158.571,
      "duration": 0.214,
      "midi": 35,
      "noteNumber": 35,
      "velocity": 0.5,
      "track": "DRUMS",
      "channel": 9,
      "lane": "D"
    },
    {
      "time": 158.571,
      "duration": 0.214,
      "midi": 42,
      "noteNumber": 42,
      "velocity": 0.58,
      "track": "DRUMS",
      "channel": 9,
      "lane": "D"
    },
    {
      "time": 158.571,
      "duration": 0.214,
      "midi": 69,
      "noteNumber": 69,
      "velocity": 0.5,
      "track": "DRUMS",
      "channel": 9,
      "lane": "K"
    },
    {
      "time": 158.785,
      "duration": 0.214,
      "midi": 42,
      "noteNumber": 42,
      "velocity": 0.5,
      "track": "DRUMS",
      "channel": 9,
      "lane": "D"
    },
    {
      "time": 158.785,
      "duration": 0.214,
      "midi": 69,
      "noteNumber": 69,
      "velocity": 0.43,
      "track": "DRUMS",
      "channel": 9,
      "lane": "K"
    },
    {
      "time": 158.801,
      "duration": 0.585,
      "midi": 64,
      "noteNumber": 64,
      "velocity": 0.88,
      "track": "(unnamed)",
      "channel": 2,
      "lane": "J"
    },
    {
      "time": 158.999,
      "duration": 0.214,
      "midi": 37,
      "noteNumber": 37,
      "velocity": 0.66,
      "track": "DRUMS",
      "channel": 9,
      "lane": "D"
    },
    {
      "time": 158.999,
      "duration": 0.214,
      "midi": 42,
      "noteNumber": 42,
      "velocity": 0.58,
      "track": "DRUMS",
      "channel": 9,
      "lane": "D"
    },
    {
      "time": 158.999,
      "duration": 0.214,
      "midi": 69,
      "noteNumber": 69,
      "velocity": 0.43,
      "track": "DRUMS",
      "channel": 9,
      "lane": "K"
    },
    {
      "time": 159.214,
      "duration": 0.116,
      "midi": 33,
      "noteNumber": 33,
      "velocity": 0.48,
      "track": "(unnamed)",
      "channel": 1,
      "lane": "D"
    },
    {
      "time": 159.214,
      "duration": 0.214,
      "midi": 35,
      "noteNumber": 35,
      "velocity": 0.43,
      "track": "DRUMS",
      "channel": 9,
      "lane": "D"
    },
    {
      "time": 159.214,
      "duration": 0.214,
      "midi": 42,
      "noteNumber": 42,
      "velocity": 0.66,
      "track": "DRUMS",
      "channel": 9,
      "lane": "D"
    },
    {
      "time": 159.214,
      "duration": 0.214,
      "midi": 69,
      "noteNumber": 69,
      "velocity": 0.43,
      "track": "DRUMS",
      "channel": 9,
      "lane": "K"
    },
    {
      "time": 159.421,
      "duration": 0.536,
      "midi": 69,
      "noteNumber": 69,
      "velocity": 0.85,
      "track": "(unnamed)",
      "channel": 2,
      "lane": "K"
    },
    {
      "time": 159.428,
      "duration": 0.598,
      "midi": 41,
      "noteNumber": 41,
      "velocity": 0.62,
      "track": "(unnamed)",
      "channel": 1,
      "lane": "D"
    },
    {
      "time": 159.428,
      "duration": 0.214,
      "midi": 35,
      "noteNumber": 35,
      "velocity": 0.5,
      "track": "DRUMS",
      "channel": 9,
      "lane": "D"
    },
    {
      "time": 159.428,
      "duration": 0.214,
      "midi": 42,
      "noteNumber": 42,
      "velocity": 0.58,
      "track": "DRUMS",
      "channel": 9,
      "lane": "D"
    },
    {
      "time": 159.428,
      "duration": 0.214,
      "midi": 69,
      "noteNumber": 69,
      "velocity": 0.5,
      "track": "DRUMS",
      "channel": 9,
      "lane": "K"
    },
    {
      "time": 159.642,
      "duration": 0.214,
      "midi": 42,
      "noteNumber": 42,
      "velocity": 0.5,
      "track": "DRUMS",
      "channel": 9,
      "lane": "D"
    },
    {
      "time": 159.642,
      "duration": 0.214,
      "midi": 69,
      "noteNumber": 69,
      "velocity": 0.43,
      "track": "DRUMS",
      "channel": 9,
      "lane": "K"
    },
    {
      "time": 159.857,
      "duration": 0.214,
      "midi": 37,
      "noteNumber": 37,
      "velocity": 0.66,
      "track": "DRUMS",
      "channel": 9,
      "lane": "D"
    },
    {
      "time": 159.857,
      "duration": 0.214,
      "midi": 42,
      "noteNumber": 42,
      "velocity": 0.58,
      "track": "DRUMS",
      "channel": 9,
      "lane": "D"
    },
    {
      "time": 159.857,
      "duration": 0.214,
      "midi": 69,
      "noteNumber": 69,
      "velocity": 0.43,
      "track": "DRUMS",
      "channel": 9,
      "lane": "K"
    },
    {
      "time": 159.993,
      "duration": 0.127,
      "midi": 63,
      "noteNumber": 63,
      "velocity": 0.68,
      "track": "(unnamed)",
      "channel": 2,
      "lane": "J"
    },
    {
      "time": 160.049,
      "duration": 0.241,
      "midi": 64,
      "noteNumber": 64,
      "velocity": 0.77,
      "track": "(unnamed)",
      "channel": 2,
      "lane": "J"
    },
    {
      "time": 160.071,
      "duration": 0.092,
      "midi": 47,
      "noteNumber": 47,
      "velocity": 0.48,
      "track": "(unnamed)",
      "channel": 1,
      "lane": "F"
    },
    {
      "time": 160.071,
      "duration": 0.214,
      "midi": 35,
      "noteNumber": 35,
      "velocity": 0.5,
      "track": "DRUMS",
      "channel": 9,
      "lane": "D"
    },
    {
      "time": 160.071,
      "duration": 0.214,
      "midi": 42,
      "noteNumber": 42,
      "velocity": 0.58,
      "track": "DRUMS",
      "channel": 9,
      "lane": "D"
    },
    {
      "time": 160.071,
      "duration": 0.214,
      "midi": 69,
      "noteNumber": 69,
      "velocity": 0.5,
      "track": "DRUMS",
      "channel": 9,
      "lane": "K"
    },
    {
      "time": 160.281,
      "duration": 0.299,
      "midi": 62,
      "noteNumber": 62,
      "velocity": 0.85,
      "track": "(unnamed)",
      "channel": 2,
      "lane": "J"
    },
    {
      "time": 160.285,
      "duration": 0.478,
      "midi": 48,
      "noteNumber": 48,
      "velocity": 0.52,
      "track": "(unnamed)",
      "channel": 1,
      "lane": "F"
    },
    {
      "time": 160.285,
      "duration": 0.214,
      "midi": 35,
      "noteNumber": 35,
      "velocity": 0.5,
      "track": "DRUMS",
      "channel": 9,
      "lane": "D"
    },
    {
      "time": 160.285,
      "duration": 0.214,
      "midi": 42,
      "noteNumber": 42,
      "velocity": 0.58,
      "track": "DRUMS",
      "channel": 9,
      "lane": "D"
    },
    {
      "time": 160.285,
      "duration": 0.214,
      "midi": 69,
      "noteNumber": 69,
      "velocity": 0.5,
      "track": "DRUMS",
      "channel": 9,
      "lane": "K"
    },
    {
      "time": 160.499,
      "duration": 0.214,
      "midi": 37,
      "noteNumber": 37,
      "velocity": 0.74,
      "track": "DRUMS",
      "channel": 9,
      "lane": "D"
    },
    {
      "time": 160.499,
      "duration": 0.214,
      "midi": 42,
      "noteNumber": 42,
      "velocity": 0.58,
      "track": "DRUMS",
      "channel": 9,
      "lane": "D"
    },
    {
      "time": 160.499,
      "duration": 0.214,
      "midi": 69,
      "noteNumber": 69,
      "velocity": 0.43,
      "track": "DRUMS",
      "channel": 9,
      "lane": "K"
    },
    {
      "time": 160.593,
      "duration": 0.299,
      "midi": 60,
      "noteNumber": 60,
      "velocity": 0.68,
      "track": "(unnamed)",
      "channel": 2,
      "lane": "J"
    },
    {
      "time": 160.714,
      "duration": 0.214,
      "midi": 42,
      "noteNumber": 42,
      "velocity": 0.58,
      "track": "DRUMS",
      "channel": 9,
      "lane": "D"
    },
    {
      "time": 160.714,
      "duration": 0.214,
      "midi": 69,
      "noteNumber": 69,
      "velocity": 0.43,
      "track": "DRUMS",
      "channel": 9,
      "lane": "K"
    },
    {
      "time": 160.928,
      "duration": 0.092,
      "midi": 41,
      "noteNumber": 41,
      "velocity": 0.46,
      "track": "(unnamed)",
      "channel": 1,
      "lane": "D"
    },
    {
      "time": 160.928,
      "duration": 0.214,
      "midi": 35,
      "noteNumber": 35,
      "velocity": 0.58,
      "track": "DRUMS",
      "channel": 9,
      "lane": "D"
    },
    {
      "time": 160.928,
      "duration": 0.214,
      "midi": 46,
      "noteNumber": 46,
      "velocity": 0.5,
      "track": "DRUMS",
      "channel": 9,
      "lane": "F"
    },
    {
      "time": 160.928,
      "duration": 0.214,
      "midi": 69,
      "noteNumber": 69,
      "velocity": 0.5,
      "track": "DRUMS",
      "channel": 9,
      "lane": "K"
    },
    {
      "time": 160.953,
      "duration": 0.154,
      "midi": 63,
      "noteNumber": 63,
      "velocity": 0.72,
      "track": "(unnamed)",
      "channel": 2,
      "lane": "J"
    },
    {
      "time": 161.035,
      "duration": 0.603,
      "midi": 64,
      "noteNumber": 64,
      "velocity": 0.72,
      "track": "(unnamed)",
      "channel": 2,
      "lane": "J"
    },
    {
      "time": 161.142,
      "duration": 0.562,
      "midi": 35,
      "noteNumber": 35,
      "velocity": 0.51,
      "track": "(unnamed)",
      "channel": 1,
      "lane": "D"
    },
    {
      "time": 161.142,
      "duration": 0.214,
      "midi": 35,
      "noteNumber": 35,
      "velocity": 0.5,
      "track": "DRUMS",
      "channel": 9,
      "lane": "D"
    },
    {
      "time": 161.142,
      "duration": 0.214,
      "midi": 37,
      "noteNumber": 37,
      "velocity": 0.66,
      "track": "DRUMS",
      "channel": 9,
      "lane": "D"
    },
    {
      "time": 161.142,
      "duration": 0.214,
      "midi": 42,
      "noteNumber": 42,
      "velocity": 0.69,
      "track": "DRUMS",
      "channel": 9,
      "lane": "D"
    },
    {
      "time": 161.142,
      "duration": 0.214,
      "midi": 69,
      "noteNumber": 69,
      "velocity": 0.5,
      "track": "DRUMS",
      "channel": 9,
      "lane": "K"
    },
    {
      "time": 161.357,
      "duration": 0.214,
      "midi": 42,
      "noteNumber": 42,
      "velocity": 0.5,
      "track": "DRUMS",
      "channel": 9,
      "lane": "D"
    },
    {
      "time": 161.357,
      "duration": 0.214,
      "midi": 69,
      "noteNumber": 69,
      "velocity": 0.43,
      "track": "DRUMS",
      "channel": 9,
      "lane": "K"
    },
    {
      "time": 161.571,
      "duration": 0.214,
      "midi": 42,
      "noteNumber": 42,
      "velocity": 0.5,
      "track": "DRUMS",
      "channel": 9,
      "lane": "D"
    },
    {
      "time": 161.571,
      "duration": 0.214,
      "midi": 69,
      "noteNumber": 69,
      "velocity": 0.43,
      "track": "DRUMS",
      "channel": 9,
      "lane": "K"
    },
    {
      "time": 161.587,
      "duration": 0.875,
      "midi": 47,
      "noteNumber": 47,
      "velocity": 0.75,
      "track": "(unnamed)",
      "channel": 2,
      "lane": "F"
    },
    {
      "time": 161.785,
      "duration": 0.109,
      "midi": 41,
      "noteNumber": 41,
      "velocity": 0.54,
      "track": "(unnamed)",
      "channel": 1,
      "lane": "D"
    },
    {
      "time": 161.785,
      "duration": 0.214,
      "midi": 35,
      "noteNumber": 35,
      "velocity": 0.43,
      "track": "DRUMS",
      "channel": 9,
      "lane": "D"
    },
    {
      "time": 161.785,
      "duration": 0.214,
      "midi": 37,
      "noteNumber": 37,
      "velocity": 0.74,
      "track": "DRUMS",
      "channel": 9,
      "lane": "D"
    },
    {
      "time": 161.785,
      "duration": 0.214,
      "midi": 42,
      "noteNumber": 42,
      "velocity": 0.5,
      "track": "DRUMS",
      "channel": 9,
      "lane": "D"
    },
    {
      "time": 161.785,
      "duration": 0.214,
      "midi": 69,
      "noteNumber": 69,
      "velocity": 0.43,
      "track": "DRUMS",
      "channel": 9,
      "lane": "K"
    },
    {
      "time": 161.816,
      "duration": 0.67,
      "midi": 57,
      "noteNumber": 57,
      "velocity": 0.75,
      "track": "(unnamed)",
      "channel": 2,
      "lane": "J"
    },
    {
      "time": 161.821,
      "duration": 0.708,
      "midi": 62,
      "noteNumber": 62,
      "velocity": 0.68,
      "track": "(unnamed)",
      "channel": 2,
      "lane": "J"
    },
    {
      "time": 161.999,
      "duration": 0.554,
      "midi": 41,
      "noteNumber": 41,
      "velocity": 0.54,
      "track": "(unnamed)",
      "channel": 1,
      "lane": "D"
    },
    {
      "time": 161.999,
      "duration": 0.214,
      "midi": 35,
      "noteNumber": 35,
      "velocity": 0.5,
      "track": "DRUMS",
      "channel": 9,
      "lane": "D"
    },
    {
      "time": 161.999,
      "duration": 0.214,
      "midi": 42,
      "noteNumber": 42,
      "velocity": 0.58,
      "track": "DRUMS",
      "channel": 9,
      "lane": "D"
    },
    {
      "time": 161.999,
      "duration": 0.214,
      "midi": 69,
      "noteNumber": 69,
      "velocity": 0.5,
      "track": "DRUMS",
      "channel": 9,
      "lane": "K"
    },
    {
      "time": 162.214,
      "duration": 0.214,
      "midi": 42,
      "noteNumber": 42,
      "velocity": 0.5,
      "track": "DRUMS",
      "channel": 9,
      "lane": "D"
    },
    {
      "time": 162.214,
      "duration": 0.214,
      "midi": 69,
      "noteNumber": 69,
      "velocity": 0.43,
      "track": "DRUMS",
      "channel": 9,
      "lane": "K"
    },
    {
      "time": 162.218,
      "duration": 0.286,
      "midi": 64,
      "noteNumber": 64,
      "velocity": 0.78,
      "track": "(unnamed)",
      "channel": 2,
      "lane": "J"
    },
    {
      "time": 162.428,
      "duration": 0.214,
      "midi": 37,
      "noteNumber": 37,
      "velocity": 0.66,
      "track": "DRUMS",
      "channel": 9,
      "lane": "D"
    },
    {
      "time": 162.428,
      "duration": 0.214,
      "midi": 42,
      "noteNumber": 42,
      "velocity": 0.58,
      "track": "DRUMS",
      "channel": 9,
      "lane": "D"
    },
    {
      "time": 162.428,
      "duration": 0.214,
      "midi": 69,
      "noteNumber": 69,
      "velocity": 0.43,
      "track": "DRUMS",
      "channel": 9,
      "lane": "K"
    },
    {
      "time": 162.642,
      "duration": 0.114,
      "midi": 35,
      "noteNumber": 35,
      "velocity": 0.54,
      "track": "(unnamed)",
      "channel": 1,
      "lane": "D"
    },
    {
      "time": 162.642,
      "duration": 0.214,
      "midi": 35,
      "noteNumber": 35,
      "velocity": 0.43,
      "track": "DRUMS",
      "channel": 9,
      "lane": "D"
    },
    {
      "time": 162.642,
      "duration": 0.214,
      "midi": 46,
      "noteNumber": 46,
      "velocity": 0.66,
      "track": "DRUMS",
      "channel": 9,
      "lane": "F"
    },
    {
      "time": 162.642,
      "duration": 0.214,
      "midi": 69,
      "noteNumber": 69,
      "velocity": 0.43,
      "track": "DRUMS",
      "channel": 9,
      "lane": "K"
    },
    {
      "time": 162.653,
      "duration": 0.542,
      "midi": 67,
      "noteNumber": 67,
      "velocity": 0.78,
      "track": "(unnamed)",
      "channel": 2,
      "lane": "J"
    },
    {
      "time": 162.662,
      "duration": 0.545,
      "midi": 62,
      "noteNumber": 62,
      "velocity": 0.69,
      "track": "(unnamed)",
      "channel": 2,
      "lane": "J"
    },
    {
      "time": 162.669,
      "duration": 0.542,
      "midi": 52,
      "noteNumber": 52,
      "velocity": 0.67,
      "track": "(unnamed)",
      "channel": 2,
      "lane": "F"
    },
    {
      "time": 162.674,
      "duration": 0.487,
      "midi": 56,
      "noteNumber": 56,
      "velocity": 0.73,
      "track": "(unnamed)",
      "channel": 2,
      "lane": "F"
    },
    {
      "time": 162.857,
      "duration": 0.562,
      "midi": 40,
      "noteNumber": 40,
      "velocity": 0.66,
      "track": "(unnamed)",
      "channel": 1,
      "lane": "D"
    },
    {
      "time": 162.857,
      "duration": 0.214,
      "midi": 35,
      "noteNumber": 35,
      "velocity": 0.5,
      "track": "DRUMS",
      "channel": 9,
      "lane": "D"
    },
    {
      "time": 162.857,
      "duration": 0.214,
      "midi": 42,
      "noteNumber": 42,
      "velocity": 0.58,
      "track": "DRUMS",
      "channel": 9,
      "lane": "D"
    },
    {
      "time": 162.857,
      "duration": 0.214,
      "midi": 69,
      "noteNumber": 69,
      "velocity": 0.5,
      "track": "DRUMS",
      "channel": 9,
      "lane": "K"
    },
    {
      "time": 163.071,
      "duration": 0.214,
      "midi": 42,
      "noteNumber": 42,
      "velocity": 0.5,
      "track": "DRUMS",
      "channel": 9,
      "lane": "D"
    },
    {
      "time": 163.071,
      "duration": 0.214,
      "midi": 69,
      "noteNumber": 69,
      "velocity": 0.43,
      "track": "DRUMS",
      "channel": 9,
      "lane": "K"
    },
    {
      "time": 163.285,
      "duration": 0.214,
      "midi": 37,
      "noteNumber": 37,
      "velocity": 0.66,
      "track": "DRUMS",
      "channel": 9,
      "lane": "D"
    },
    {
      "time": 163.285,
      "duration": 0.214,
      "midi": 42,
      "noteNumber": 42,
      "velocity": 0.58,
      "track": "DRUMS",
      "channel": 9,
      "lane": "D"
    },
    {
      "time": 163.285,
      "duration": 0.214,
      "midi": 69,
      "noteNumber": 69,
      "velocity": 0.43,
      "track": "DRUMS",
      "channel": 9,
      "lane": "K"
    },
    {
      "time": 163.299,
      "duration": 0.165,
      "midi": 64,
      "noteNumber": 64,
      "velocity": 0.85,
      "track": "(unnamed)",
      "channel": 2,
      "lane": "J"
    },
    {
      "time": 163.499,
      "duration": 0.109,
      "midi": 46,
      "noteNumber": 46,
      "velocity": 0.5,
      "track": "(unnamed)",
      "channel": 1,
      "lane": "F"
    },
    {
      "time": 163.499,
      "duration": 0.214,
      "midi": 35,
      "noteNumber": 35,
      "velocity": 0.5,
      "track": "DRUMS",
      "channel": 9,
      "lane": "D"
    },
    {
      "time": 163.499,
      "duration": 0.214,
      "midi": 46,
      "noteNumber": 46,
      "velocity": 0.58,
      "track": "DRUMS",
      "channel": 9,
      "lane": "F"
    },
    {
      "time": 163.499,
      "duration": 0.214,
      "midi": 69,
      "noteNumber": 69,
      "velocity": 0.5,
      "track": "DRUMS",
      "channel": 9,
      "lane": "K"
    },
    {
      "time": 163.502,
      "duration": 0.141,
      "midi": 69,
      "noteNumber": 69,
      "velocity": 0.72,
      "track": "(unnamed)",
      "channel": 2,
      "lane": "K"
    },
    {
      "time": 163.714,
      "duration": 0.455,
      "midi": 47,
      "noteNumber": 47,
      "velocity": 0.61,
      "track": "(unnamed)",
      "channel": 1,
      "lane": "F"
    },
    {
      "time": 163.714,
      "duration": 0.214,
      "midi": 35,
      "noteNumber": 35,
      "velocity": 0.5,
      "track": "DRUMS",
      "channel": 9,
      "lane": "D"
    },
    {
      "time": 163.714,
      "duration": 0.214,
      "midi": 42,
      "noteNumber": 42,
      "velocity": 0.58,
      "track": "DRUMS",
      "channel": 9,
      "lane": "D"
    },
    {
      "time": 163.714,
      "duration": 0.214,
      "midi": 69,
      "noteNumber": 69,
      "velocity": 0.5,
      "track": "DRUMS",
      "channel": 9,
      "lane": "K"
    },
    {
      "time": 163.727,
      "duration": 0.223,
      "midi": 74,
      "noteNumber": 74,
      "velocity": 0.78,
      "track": "(unnamed)",
      "channel": 2,
      "lane": "K"
    },
    {
      "time": 163.924,
      "duration": 0.232,
      "midi": 72,
      "noteNumber": 72,
      "velocity": 0.91,
      "track": "(unnamed)",
      "channel": 2,
      "lane": "K"
    },
    {
      "time": 163.928,
      "duration": 0.214,
      "midi": 37,
      "noteNumber": 37,
      "velocity": 0.74,
      "track": "DRUMS",
      "channel": 9,
      "lane": "D"
    },
    {
      "time": 163.928,
      "duration": 0.214,
      "midi": 42,
      "noteNumber": 42,
      "velocity": 0.58,
      "track": "DRUMS",
      "channel": 9,
      "lane": "D"
    },
    {
      "time": 163.928,
      "duration": 0.214,
      "midi": 69,
      "noteNumber": 69,
      "velocity": 0.43,
      "track": "DRUMS",
      "channel": 9,
      "lane": "K"
    },
    {
      "time": 164.127,
      "duration": 0.248,
      "midi": 69,
      "noteNumber": 69,
      "velocity": 0.85,
      "track": "(unnamed)",
      "channel": 2,
      "lane": "K"
    },
    {
      "time": 164.142,
      "duration": 0.214,
      "midi": 42,
      "noteNumber": 42,
      "velocity": 0.58,
      "track": "DRUMS",
      "channel": 9,
      "lane": "D"
    },
    {
      "time": 164.142,
      "duration": 0.214,
      "midi": 69,
      "noteNumber": 69,
      "velocity": 0.43,
      "track": "DRUMS",
      "channel": 9,
      "lane": "K"
    },
    {
      "time": 164.357,
      "duration": 0.098,
      "midi": 40,
      "noteNumber": 40,
      "velocity": 0.44,
      "track": "(unnamed)",
      "channel": 1,
      "lane": "D"
    },
    {
      "time": 164.357,
      "duration": 0.214,
      "midi": 35,
      "noteNumber": 35,
      "velocity": 0.58,
      "track": "DRUMS",
      "channel": 9,
      "lane": "D"
    },
    {
      "time": 164.357,
      "duration": 0.214,
      "midi": 42,
      "noteNumber": 42,
      "velocity": 0.5,
      "track": "DRUMS",
      "channel": 9,
      "lane": "D"
    },
    {
      "time": 164.357,
      "duration": 0.214,
      "midi": 69,
      "noteNumber": 69,
      "velocity": 0.5,
      "track": "DRUMS",
      "channel": 9,
      "lane": "K"
    },
    {
      "time": 164.37,
      "duration": 0.232,
      "midi": 67,
      "noteNumber": 67,
      "velocity": 0.65,
      "track": "(unnamed)",
      "channel": 2,
      "lane": "J"
    },
    {
      "time": 164.571,
      "duration": 0.507,
      "midi": 33,
      "noteNumber": 33,
      "velocity": 0.65,
      "track": "(unnamed)",
      "channel": 1,
      "lane": "D"
    },
    {
      "time": 164.571,
      "duration": 0.214,
      "midi": 35,
      "noteNumber": 35,
      "velocity": 0.5,
      "track": "DRUMS",
      "channel": 9,
      "lane": "D"
    },
    {
      "time": 164.571,
      "duration": 0.214,
      "midi": 37,
      "noteNumber": 37,
      "velocity": 0.66,
      "track": "DRUMS",
      "channel": 9,
      "lane": "D"
    },
    {
      "time": 164.571,
      "duration": 0.214,
      "midi": 42,
      "noteNumber": 42,
      "velocity": 0.69,
      "track": "DRUMS",
      "channel": 9,
      "lane": "D"
    },
    {
      "time": 164.571,
      "duration": 0.214,
      "midi": 69,
      "noteNumber": 69,
      "velocity": 0.5,
      "track": "DRUMS",
      "channel": 9,
      "lane": "K"
    },
    {
      "time": 164.582,
      "duration": 0.337,
      "midi": 69,
      "noteNumber": 69,
      "velocity": 0.68,
      "track": "(unnamed)",
      "channel": 2,
      "lane": "K"
    },
    {
      "time": 164.785,
      "duration": 0.214,
      "midi": 42,
      "noteNumber": 42,
      "velocity": 0.5,
      "track": "DRUMS",
      "channel": 9,
      "lane": "D"
    },
    {
      "time": 164.785,
      "duration": 0.214,
      "midi": 69,
      "noteNumber": 69,
      "velocity": 0.43,
      "track": "DRUMS",
      "channel": 9,
      "lane": "K"
    },
    {
      "time": 164.999,
      "duration": 0.214,
      "midi": 42,
      "noteNumber": 42,
      "velocity": 0.5,
      "track": "DRUMS",
      "channel": 9,
      "lane": "D"
    },
    {
      "time": 164.999,
      "duration": 0.214,
      "midi": 69,
      "noteNumber": 69,
      "velocity": 0.43,
      "track": "DRUMS",
      "channel": 9,
      "lane": "K"
    },
    {
      "time": 165.004,
      "duration": 0.52,
      "midi": 55,
      "noteNumber": 55,
      "velocity": 0.68,
      "track": "(unnamed)",
      "channel": 2,
      "lane": "F"
    },
    {
      "time": 165.015,
      "duration": 0.54,
      "midi": 60,
      "noteNumber": 60,
      "velocity": 0.69,
      "track": "(unnamed)",
      "channel": 2,
      "lane": "J"
    },
    {
      "time": 165.214,
      "duration": 0.089,
      "midi": 40,
      "noteNumber": 40,
      "velocity": 0.5,
      "track": "(unnamed)",
      "channel": 1,
      "lane": "D"
    },
    {
      "time": 165.214,
      "duration": 0.214,
      "midi": 35,
      "noteNumber": 35,
      "velocity": 0.43,
      "track": "DRUMS",
      "channel": 9,
      "lane": "D"
    },
    {
      "time": 165.214,
      "duration": 0.214,
      "midi": 37,
      "noteNumber": 37,
      "velocity": 0.74,
      "track": "DRUMS",
      "channel": 9,
      "lane": "D"
    },
    {
      "time": 165.214,
      "duration": 0.214,
      "midi": 42,
      "noteNumber": 42,
      "velocity": 0.5,
      "track": "DRUMS",
      "channel": 9,
      "lane": "D"
    },
    {
      "time": 165.214,
      "duration": 0.214,
      "midi": 69,
      "noteNumber": 69,
      "velocity": 0.43,
      "track": "DRUMS",
      "channel": 9,
      "lane": "K"
    },
    {
      "time": 165.428,
      "duration": 0.598,
      "midi": 40,
      "noteNumber": 40,
      "velocity": 0.64,
      "track": "(unnamed)",
      "channel": 1,
      "lane": "D"
    },
    {
      "time": 165.428,
      "duration": 0.214,
      "midi": 35,
      "noteNumber": 35,
      "velocity": 0.5,
      "track": "DRUMS",
      "channel": 9,
      "lane": "D"
    },
    {
      "time": 165.428,
      "duration": 0.214,
      "midi": 42,
      "noteNumber": 42,
      "velocity": 0.58,
      "track": "DRUMS",
      "channel": 9,
      "lane": "D"
    },
    {
      "time": 165.428,
      "duration": 0.214,
      "midi": 69,
      "noteNumber": 69,
      "velocity": 0.5,
      "track": "DRUMS",
      "channel": 9,
      "lane": "K"
    },
    {
      "time": 165.642,
      "duration": 0.214,
      "midi": 42,
      "noteNumber": 42,
      "velocity": 0.5,
      "track": "DRUMS",
      "channel": 9,
      "lane": "D"
    },
    {
      "time": 165.642,
      "duration": 0.214,
      "midi": 69,
      "noteNumber": 69,
      "velocity": 0.43,
      "track": "DRUMS",
      "channel": 9,
      "lane": "K"
    },
    {
      "time": 165.66,
      "duration": 0.748,
      "midi": 64,
      "noteNumber": 64,
      "velocity": 0.6,
      "track": "(unnamed)",
      "channel": 2,
      "lane": "J"
    },
    {
      "time": 165.667,
      "duration": 0.819,
      "midi": 55,
      "noteNumber": 55,
      "velocity": 0.72,
      "track": "(unnamed)",
      "channel": 2,
      "lane": "F"
    },
    {
      "time": 165.669,
      "duration": 0.857,
      "midi": 60,
      "noteNumber": 60,
      "velocity": 0.68,
      "track": "(unnamed)",
      "channel": 2,
      "lane": "J"
    },
    {
      "time": 165.857,
      "duration": 0.214,
      "midi": 37,
      "noteNumber": 37,
      "velocity": 0.66,
      "track": "DRUMS",
      "channel": 9,
      "lane": "D"
    },
    {
      "time": 165.857,
      "duration": 0.214,
      "midi": 42,
      "noteNumber": 42,
      "velocity": 0.58,
      "track": "DRUMS",
      "channel": 9,
      "lane": "D"
    },
    {
      "time": 165.857,
      "duration": 0.214,
      "midi": 69,
      "noteNumber": 69,
      "velocity": 0.43,
      "track": "DRUMS",
      "channel": 9,
      "lane": "K"
    },
    {
      "time": 166.071,
      "duration": 0.116,
      "midi": 33,
      "noteNumber": 33,
      "velocity": 0.55,
      "track": "(unnamed)",
      "channel": 1,
      "lane": "D"
    },
    {
      "time": 166.071,
      "duration": 0.214,
      "midi": 35,
      "noteNumber": 35,
      "velocity": 0.43,
      "track": "DRUMS",
      "channel": 9,
      "lane": "D"
    },
    {
      "time": 166.071,
      "duration": 0.214,
      "midi": 46,
      "noteNumber": 46,
      "velocity": 0.66,
      "track": "DRUMS",
      "channel": 9,
      "lane": "F"
    },
    {
      "time": 166.071,
      "duration": 0.214,
      "midi": 69,
      "noteNumber": 69,
      "velocity": 0.43,
      "track": "DRUMS",
      "channel": 9,
      "lane": "K"
    },
    {
      "time": 166.285,
      "duration": 0.513,
      "midi": 35,
      "noteNumber": 35,
      "velocity": 0.61,
      "track": "(unnamed)",
      "channel": 1,
      "lane": "D"
    },
    {
      "time": 166.285,
      "duration": 0.214,
      "midi": 42,
      "noteNumber": 42,
      "velocity": 0.5,
      "track": "DRUMS",
      "channel": 9,
      "lane": "D"
    },
    {
      "time": 166.285,
      "duration": 0.214,
      "midi": 69,
      "noteNumber": 69,
      "velocity": 0.66,
      "track": "DRUMS",
      "channel": 9,
      "lane": "K"
    },
    {
      "time": 166.499,
      "duration": 0.214,
      "midi": 42,
      "noteNumber": 42,
      "velocity": 0.43,
      "track": "DRUMS",
      "channel": 9,
      "lane": "D"
    },
    {
      "time": 166.499,
      "duration": 0.214,
      "midi": 48,
      "noteNumber": 48,
      "velocity": 0.43,
      "track": "DRUMS",
      "channel": 9,
      "lane": "F"
    },
    {
      "time": 166.499,
      "duration": 0.214,
      "midi": 69,
      "noteNumber": 69,
      "velocity": 0.43,
      "track": "DRUMS",
      "channel": 9,
      "lane": "K"
    },
    {
      "time": 166.714,
      "duration": 0.001,
      "midi": 37,
      "noteNumber": 37,
      "velocity": 0.66,
      "track": "DRUMS",
      "channel": 9,
      "lane": "D"
    },
    {
      "time": 166.714,
      "duration": 0.214,
      "midi": 37,
      "noteNumber": 37,
      "velocity": 0.43,
      "track": "DRUMS",
      "channel": 9,
      "lane": "D"
    },
    {
      "time": 166.714,
      "duration": 0.214,
      "midi": 42,
      "noteNumber": 42,
      "velocity": 0.5,
      "track": "DRUMS",
      "channel": 9,
      "lane": "D"
    },
    {
      "time": 166.714,
      "duration": 0.214,
      "midi": 48,
      "noteNumber": 48,
      "velocity": 0.5,
      "track": "DRUMS",
      "channel": 9,
      "lane": "F"
    },
    {
      "time": 166.928,
      "duration": 0.098,
      "midi": 35,
      "noteNumber": 35,
      "velocity": 0.57,
      "track": "(unnamed)",
      "channel": 1,
      "lane": "D"
    },
    {
      "time": 166.928,
      "duration": 0.214,
      "midi": 37,
      "noteNumber": 37,
      "velocity": 0.43,
      "track": "DRUMS",
      "channel": 9,
      "lane": "D"
    },
    {
      "time": 166.928,
      "duration": 0.214,
      "midi": 42,
      "noteNumber": 42,
      "velocity": 0.5,
      "track": "DRUMS",
      "channel": 9,
      "lane": "D"
    },
    {
      "time": 166.928,
      "duration": 0.214,
      "midi": 45,
      "noteNumber": 45,
      "velocity": 0.43,
      "track": "DRUMS",
      "channel": 9,
      "lane": "F"
    },
    {
      "time": 166.939,
      "duration": 0.239,
      "midi": 57,
      "noteNumber": 57,
      "velocity": 0.64,
      "track": "(unnamed)",
      "channel": 2,
      "lane": "J"
    },
    {
      "time": 166.941,
      "duration": 0.239,
      "midi": 62,
      "noteNumber": 62,
      "velocity": 0.64,
      "track": "(unnamed)",
      "channel": 2,
      "lane": "J"
    },
    {
      "time": 166.946,
      "duration": 0.239,
      "midi": 64,
      "noteNumber": 64,
      "velocity": 0.64,
      "track": "(unnamed)",
      "channel": 2,
      "lane": "J"
    },
    {
      "time": 167.142,
      "duration": 0.607,
      "midi": 40,
      "noteNumber": 40,
      "velocity": 0.58,
      "track": "(unnamed)",
      "channel": 1,
      "lane": "D"
    },
    {
      "time": 167.142,
      "duration": 0.214,
      "midi": 37,
      "noteNumber": 37,
      "velocity": 0.5,
      "track": "DRUMS",
      "channel": 9,
      "lane": "D"
    },
    {
      "time": 167.142,
      "duration": 0.214,
      "midi": 42,
      "noteNumber": 42,
      "velocity": 0.5,
      "track": "DRUMS",
      "channel": 9,
      "lane": "D"
    },
    {
      "time": 167.142,
      "duration": 0.214,
      "midi": 48,
      "noteNumber": 48,
      "velocity": 0.5,
      "track": "DRUMS",
      "channel": 9,
      "lane": "F"
    },
    {
      "time": 167.357,
      "duration": 0.214,
      "midi": 37,
      "noteNumber": 37,
      "velocity": 0.43,
      "track": "DRUMS",
      "channel": 9,
      "lane": "D"
    },
    {
      "time": 167.357,
      "duration": 0.214,
      "midi": 42,
      "noteNumber": 42,
      "velocity": 0.5,
      "track": "DRUMS",
      "channel": 9,
      "lane": "D"
    },
    {
      "time": 167.357,
      "duration": 0.214,
      "midi": 48,
      "noteNumber": 48,
      "velocity": 0.5,
      "track": "DRUMS",
      "channel": 9,
      "lane": "F"
    },
    {
      "time": 167.571,
      "duration": 0.214,
      "midi": 37,
      "noteNumber": 37,
      "velocity": 0.43,
      "track": "DRUMS",
      "channel": 9,
      "lane": "D"
    },
    {
      "time": 167.571,
      "duration": 0.214,
      "midi": 42,
      "noteNumber": 42,
      "velocity": 0.5,
      "track": "DRUMS",
      "channel": 9,
      "lane": "D"
    },
    {
      "time": 167.571,
      "duration": 0.214,
      "midi": 48,
      "noteNumber": 48,
      "velocity": 0.54,
      "track": "DRUMS",
      "channel": 9,
      "lane": "F"
    },
    {
      "time": 167.575,
      "duration": 0.326,
      "midi": 69,
      "noteNumber": 69,
      "velocity": 0.75,
      "track": "(unnamed)",
      "channel": 2,
      "lane": "K"
    },
    {
      "time": 167.785,
      "duration": 0.098,
      "midi": 40,
      "noteNumber": 40,
      "velocity": 0.55,
      "track": "(unnamed)",
      "channel": 1,
      "lane": "D"
    },
    {
      "time": 167.785,
      "duration": 0.214,
      "midi": 37,
      "noteNumber": 37,
      "velocity": 0.43,
      "track": "DRUMS",
      "channel": 9,
      "lane": "D"
    },
    {
      "time": 167.785,
      "duration": 0.214,
      "midi": 42,
      "noteNumber": 42,
      "velocity": 0.5,
      "track": "DRUMS",
      "channel": 9,
      "lane": "D"
    },
    {
      "time": 167.785,
      "duration": 0.214,
      "midi": 45,
      "noteNumber": 45,
      "velocity": 0.5,
      "track": "DRUMS",
      "channel": 9,
      "lane": "F"
    },
    {
      "time": 167.799,
      "duration": 0.23,
      "midi": 71,
      "noteNumber": 71,
      "velocity": 0.79,
      "track": "(unnamed)",
      "channel": 2,
      "lane": "K"
    },
    {
      "time": 167.988,
      "duration": 0.942,
      "midi": 53,
      "noteNumber": 53,
      "velocity": 0.76,
      "track": "(unnamed)",
      "channel": 2,
      "lane": "F"
    },
    {
      "time": 167.999,
      "duration": 0.542,
      "midi": 38,
      "noteNumber": 38,
      "velocity": 0.61,
      "track": "(unnamed)",
      "channel": 1,
      "lane": "D"
    },
    {
      "time": 167.999,
      "duration": 0.214,
      "midi": 35,
      "noteNumber": 35,
      "velocity": 0.5,
      "track": "DRUMS",
      "channel": 9,
      "lane": "D"
    },
    {
      "time": 167.999,
      "duration": 0.214,
      "midi": 37,
      "noteNumber": 37,
      "velocity": 0.66,
      "track": "DRUMS",
      "channel": 9,
      "lane": "D"
    },
    {
      "time": 167.999,
      "duration": 0.214,
      "midi": 42,
      "noteNumber": 42,
      "velocity": 0.69,
      "track": "DRUMS",
      "channel": 9,
      "lane": "D"
    },
    {
      "time": 167.999,
      "duration": 0.214,
      "midi": 69,
      "noteNumber": 69,
      "velocity": 0.5,
      "track": "DRUMS",
      "channel": 9,
      "lane": "K"
    },
    {
      "time": 168.028,
      "duration": 0.964,
      "midi": 60,
      "noteNumber": 60,
      "velocity": 0.76,
      "track": "(unnamed)",
      "channel": 2,
      "lane": "J"
    },
    {
      "time": 168.064,
      "duration": 0.951,
      "midi": 64,
      "noteNumber": 64,
      "velocity": 0.6,
      "track": "(unnamed)",
      "channel": 2,
      "lane": "J"
    },
    {
      "time": 168.098,
      "duration": 0.888,
      "midi": 69,
      "noteNumber": 69,
      "velocity": 0.58,
      "track": "(unnamed)",
      "channel": 2,
      "lane": "K"
    },
    {
      "time": 168.176,
      "duration": 0.772,
      "midi": 72,
      "noteNumber": 72,
      "velocity": 0.76,
      "track": "(unnamed)",
      "channel": 2,
      "lane": "K"
    },
    {
      "time": 168.214,
      "duration": 0.214,
      "midi": 42,
      "noteNumber": 42,
      "velocity": 0.5,
      "track": "DRUMS",
      "channel": 9,
      "lane": "D"
    },
    {
      "time": 168.214,
      "duration": 0.214,
      "midi": 69,
      "noteNumber": 69,
      "velocity": 0.43,
      "track": "DRUMS",
      "channel": 9,
      "lane": "K"
    },
    {
      "time": 168.428,
      "duration": 0.214,
      "midi": 42,
      "noteNumber": 42,
      "velocity": 0.5,
      "track": "DRUMS",
      "channel": 9,
      "lane": "D"
    },
    {
      "time": 168.428,
      "duration": 0.214,
      "midi": 69,
      "noteNumber": 69,
      "velocity": 0.43,
      "track": "DRUMS",
      "channel": 9,
      "lane": "K"
    },
    {
      "time": 168.642,
      "duration": 0.089,
      "midi": 45,
      "noteNumber": 45,
      "velocity": 0.57,
      "track": "(unnamed)",
      "channel": 1,
      "lane": "F"
    },
    {
      "time": 168.642,
      "duration": 0.214,
      "midi": 35,
      "noteNumber": 35,
      "velocity": 0.43,
      "track": "DRUMS",
      "channel": 9,
      "lane": "D"
    },
    {
      "time": 168.642,
      "duration": 0.214,
      "midi": 37,
      "noteNumber": 37,
      "velocity": 0.74,
      "track": "DRUMS",
      "channel": 9,
      "lane": "D"
    },
    {
      "time": 168.642,
      "duration": 0.214,
      "midi": 42,
      "noteNumber": 42,
      "velocity": 0.5,
      "track": "DRUMS",
      "channel": 9,
      "lane": "D"
    },
    {
      "time": 168.642,
      "duration": 0.214,
      "midi": 69,
      "noteNumber": 69,
      "velocity": 0.43,
      "track": "DRUMS",
      "channel": 9,
      "lane": "K"
    },
    {
      "time": 168.857,
      "duration": 0.527,
      "midi": 45,
      "noteNumber": 45,
      "velocity": 0.65,
      "track": "(unnamed)",
      "channel": 1,
      "lane": "F"
    },
    {
      "time": 168.857,
      "duration": 0.214,
      "midi": 35,
      "noteNumber": 35,
      "velocity": 0.5,
      "track": "DRUMS",
      "channel": 9,
      "lane": "D"
    },
    {
      "time": 168.857,
      "duration": 0.214,
      "midi": 42,
      "noteNumber": 42,
      "velocity": 0.58,
      "track": "DRUMS",
      "channel": 9,
      "lane": "D"
    },
    {
      "time": 168.857,
      "duration": 0.214,
      "midi": 69,
      "noteNumber": 69,
      "velocity": 0.5,
      "track": "DRUMS",
      "channel": 9,
      "lane": "K"
    },
    {
      "time": 169.071,
      "duration": 0.214,
      "midi": 42,
      "noteNumber": 42,
      "velocity": 0.5,
      "track": "DRUMS",
      "channel": 9,
      "lane": "D"
    },
    {
      "time": 169.071,
      "duration": 0.214,
      "midi": 69,
      "noteNumber": 69,
      "velocity": 0.43,
      "track": "DRUMS",
      "channel": 9,
      "lane": "K"
    },
    {
      "time": 169.111,
      "duration": 0.23,
      "midi": 74,
      "noteNumber": 74,
      "velocity": 0.72,
      "track": "(unnamed)",
      "channel": 2,
      "lane": "K"
    },
    {
      "time": 169.285,
      "duration": 0.214,
      "midi": 37,
      "noteNumber": 37,
      "velocity": 0.66,
      "track": "DRUMS",
      "channel": 9,
      "lane": "D"
    },
    {
      "time": 169.285,
      "duration": 0.214,
      "midi": 42,
      "noteNumber": 42,
      "velocity": 0.58,
      "track": "DRUMS",
      "channel": 9,
      "lane": "D"
    },
    {
      "time": 169.285,
      "duration": 0.214,
      "midi": 69,
      "noteNumber": 69,
      "velocity": 0.43,
      "track": "DRUMS",
      "channel": 9,
      "lane": "K"
    },
    {
      "time": 169.39,
      "duration": 0.199,
      "midi": 72,
      "noteNumber": 72,
      "velocity": 0.76,
      "track": "(unnamed)",
      "channel": 2,
      "lane": "K"
    },
    {
      "time": 169.499,
      "duration": 0.116,
      "midi": 38,
      "noteNumber": 38,
      "velocity": 0.55,
      "track": "(unnamed)",
      "channel": 1,
      "lane": "D"
    },
    {
      "time": 169.499,
      "duration": 0.214,
      "midi": 35,
      "noteNumber": 35,
      "velocity": 0.43,
      "track": "DRUMS",
      "channel": 9,
      "lane": "D"
    },
    {
      "time": 169.499,
      "duration": 0.214,
      "midi": 42,
      "noteNumber": 42,
      "velocity": 0.66,
      "track": "DRUMS",
      "channel": 9,
      "lane": "D"
    },
    {
      "time": 169.499,
      "duration": 0.214,
      "midi": 69,
      "noteNumber": 69,
      "velocity": 0.43,
      "track": "DRUMS",
      "channel": 9,
      "lane": "K"
    },
    {
      "time": 169.703,
      "duration": 1.288,
      "midi": 52,
      "noteNumber": 52,
      "velocity": 0.73,
      "track": "(unnamed)",
      "channel": 2,
      "lane": "F"
    },
    {
      "time": 169.714,
      "duration": 0.502,
      "midi": 40,
      "noteNumber": 40,
      "velocity": 0.61,
      "track": "(unnamed)",
      "channel": 1,
      "lane": "D"
    },
    {
      "time": 169.714,
      "duration": 0.214,
      "midi": 35,
      "noteNumber": 35,
      "velocity": 0.5,
      "track": "DRUMS",
      "channel": 9,
      "lane": "D"
    },
    {
      "time": 169.714,
      "duration": 0.214,
      "midi": 42,
      "noteNumber": 42,
      "velocity": 0.58,
      "track": "DRUMS",
      "channel": 9,
      "lane": "D"
    },
    {
      "time": 169.714,
      "duration": 0.214,
      "midi": 69,
      "noteNumber": 69,
      "velocity": 0.5,
      "track": "DRUMS",
      "channel": 9,
      "lane": "K"
    },
    {
      "time": 169.743,
      "duration": 1.382,
      "midi": 59,
      "noteNumber": 59,
      "velocity": 0.65,
      "track": "(unnamed)",
      "channel": 2,
      "lane": "J"
    },
    {
      "time": 169.767,
      "duration": 1.192,
      "midi": 62,
      "noteNumber": 62,
      "velocity": 0.56,
      "track": "(unnamed)",
      "channel": 2,
      "lane": "J"
    },
    {
      "time": 169.814,
      "duration": 1.167,
      "midi": 67,
      "noteNumber": 67,
      "velocity": 0.61,
      "track": "(unnamed)",
      "channel": 2,
      "lane": "J"
    },
    {
      "time": 169.85,
      "duration": 1.029,
      "midi": 71,
      "noteNumber": 71,
      "velocity": 0.74,
      "track": "(unnamed)",
      "channel": 2,
      "lane": "K"
    },
    {
      "time": 169.928,
      "duration": 0.214,
      "midi": 42,
      "noteNumber": 42,
      "velocity": 0.5,
      "track": "DRUMS",
      "channel": 9,
      "lane": "D"
    },
    {
      "time": 169.928,
      "duration": 0.214,
      "midi": 69,
      "noteNumber": 69,
      "velocity": 0.43,
      "track": "DRUMS",
      "channel": 9,
      "lane": "K"
    },
    {
      "time": 170.142,
      "duration": 0.214,
      "midi": 37,
      "noteNumber": 37,
      "velocity": 0.66,
      "track": "DRUMS",
      "channel": 9,
      "lane": "D"
    },
    {
      "time": 170.142,
      "duration": 0.214,
      "midi": 42,
      "noteNumber": 42,
      "velocity": 0.58,
      "track": "DRUMS",
      "channel": 9,
      "lane": "D"
    },
    {
      "time": 170.142,
      "duration": 0.214,
      "midi": 69,
      "noteNumber": 69,
      "velocity": 0.43,
      "track": "DRUMS",
      "channel": 9,
      "lane": "K"
    },
    {
      "time": 170.357,
      "duration": 0.107,
      "midi": 47,
      "noteNumber": 47,
      "velocity": 0.51,
      "track": "(unnamed)",
      "channel": 1,
      "lane": "F"
    },
    {
      "time": 170.357,
      "duration": 0.214,
      "midi": 35,
      "noteNumber": 35,
      "velocity": 0.5,
      "track": "DRUMS",
      "channel": 9,
      "lane": "D"
    },
    {
      "time": 170.357,
      "duration": 0.214,
      "midi": 42,
      "noteNumber": 42,
      "velocity": 0.58,
      "track": "DRUMS",
      "channel": 9,
      "lane": "D"
    },
    {
      "time": 170.357,
      "duration": 0.214,
      "midi": 69,
      "noteNumber": 69,
      "velocity": 0.5,
      "track": "DRUMS",
      "channel": 9,
      "lane": "K"
    },
    {
      "time": 170.571,
      "duration": 0.518,
      "midi": 47,
      "noteNumber": 47,
      "velocity": 0.52,
      "track": "(unnamed)",
      "channel": 1,
      "lane": "F"
    },
    {
      "time": 170.571,
      "duration": 0.214,
      "midi": 35,
      "noteNumber": 35,
      "velocity": 0.5,
      "track": "DRUMS",
      "channel": 9,
      "lane": "D"
    },
    {
      "time": 170.571,
      "duration": 0.214,
      "midi": 42,
      "noteNumber": 42,
      "velocity": 0.58,
      "track": "DRUMS",
      "channel": 9,
      "lane": "D"
    },
    {
      "time": 170.571,
      "duration": 0.214,
      "midi": 69,
      "noteNumber": 69,
      "velocity": 0.5,
      "track": "DRUMS",
      "channel": 9,
      "lane": "K"
    },
    {
      "time": 170.785,
      "duration": 0.214,
      "midi": 37,
      "noteNumber": 37,
      "velocity": 0.74,
      "track": "DRUMS",
      "channel": 9,
      "lane": "D"
    },
    {
      "time": 170.785,
      "duration": 0.214,
      "midi": 42,
      "noteNumber": 42,
      "velocity": 0.58,
      "track": "DRUMS",
      "channel": 9,
      "lane": "D"
    },
    {
      "time": 170.785,
      "duration": 0.214,
      "midi": 69,
      "noteNumber": 69,
      "velocity": 0.43,
      "track": "DRUMS",
      "channel": 9,
      "lane": "K"
    },
    {
      "time": 170.955,
      "duration": 0.275,
      "midi": 69,
      "noteNumber": 69,
      "velocity": 0.64,
      "track": "(unnamed)",
      "channel": 2,
      "lane": "K"
    },
    {
      "time": 170.999,
      "duration": 0.214,
      "midi": 42,
      "noteNumber": 42,
      "velocity": 0.58,
      "track": "DRUMS",
      "channel": 9,
      "lane": "D"
    },
    {
      "time": 170.999,
      "duration": 0.214,
      "midi": 69,
      "noteNumber": 69,
      "velocity": 0.43,
      "track": "DRUMS",
      "channel": 9,
      "lane": "K"
    },
    {
      "time": 171.191,
      "duration": 0.263,
      "midi": 71,
      "noteNumber": 71,
      "velocity": 0.78,
      "track": "(unnamed)",
      "channel": 2,
      "lane": "K"
    },
    {
      "time": 171.214,
      "duration": 0.116,
      "midi": 40,
      "noteNumber": 40,
      "velocity": 0.54,
      "track": "(unnamed)",
      "channel": 1,
      "lane": "D"
    },
    {
      "time": 171.214,
      "duration": 0.214,
      "midi": 35,
      "noteNumber": 35,
      "velocity": 0.58,
      "track": "DRUMS",
      "channel": 9,
      "lane": "D"
    },
    {
      "time": 171.214,
      "duration": 0.214,
      "midi": 42,
      "noteNumber": 42,
      "velocity": 0.5,
      "track": "DRUMS",
      "channel": 9,
      "lane": "D"
    },
    {
      "time": 171.214,
      "duration": 0.214,
      "midi": 69,
      "noteNumber": 69,
      "velocity": 0.5,
      "track": "DRUMS",
      "channel": 9,
      "lane": "K"
    },
    {
      "time": 171.428,
      "duration": 0.596,
      "midi": 41,
      "noteNumber": 41,
      "velocity": 0.57,
      "track": "(unnamed)",
      "channel": 1,
      "lane": "D"
    },
    {
      "time": 171.428,
      "duration": 0.214,
      "midi": 35,
      "noteNumber": 35,
      "velocity": 0.5,
      "track": "DRUMS",
      "channel": 9,
      "lane": "D"
    },
    {
      "time": 171.428,
      "duration": 0.214,
      "midi": 37,
      "noteNumber": 37,
      "velocity": 0.66,
      "track": "DRUMS",
      "channel": 9,
      "lane": "D"
    },
    {
      "time": 171.428,
      "duration": 0.214,
      "midi": 42,
      "noteNumber": 42,
      "velocity": 0.69,
      "track": "DRUMS",
      "channel": 9,
      "lane": "D"
    },
    {
      "time": 171.428,
      "duration": 0.214,
      "midi": 69,
      "noteNumber": 69,
      "velocity": 0.5,
      "track": "DRUMS",
      "channel": 9,
      "lane": "K"
    },
    {
      "time": 171.448,
      "duration": 1.194,
      "midi": 53,
      "noteNumber": 53,
      "velocity": 0.77,
      "track": "(unnamed)",
      "channel": 2,
      "lane": "F"
    },
    {
      "time": 171.484,
      "duration": 1.161,
      "midi": 60,
      "noteNumber": 60,
      "velocity": 0.7,
      "track": "(unnamed)",
      "channel": 2,
      "lane": "J"
    },
    {
      "time": 171.524,
      "duration": 1.167,
      "midi": 64,
      "noteNumber": 64,
      "velocity": 0.6,
      "track": "(unnamed)",
      "channel": 2,
      "lane": "J"
    },
    {
      "time": 171.569,
      "duration": 1.08,
      "midi": 69,
      "noteNumber": 69,
      "velocity": 0.57,
      "track": "(unnamed)",
      "channel": 2,
      "lane": "K"
    },
    {
      "time": 171.642,
      "duration": 0.214,
      "midi": 42,
      "noteNumber": 42,
      "velocity": 0.5,
      "track": "DRUMS",
      "channel": 9,
      "lane": "D"
    },
    {
      "time": 171.642,
      "duration": 0.214,
      "midi": 69,
      "noteNumber": 69,
      "velocity": 0.43,
      "track": "DRUMS",
      "channel": 9,
      "lane": "K"
    },
    {
      "time": 171.649,
      "duration": 1.02,
      "midi": 72,
      "noteNumber": 72,
      "velocity": 0.7,
      "track": "(unnamed)",
      "channel": 2,
      "lane": "K"
    },
    {
      "time": 171.857,
      "duration": 0.214,
      "midi": 42,
      "noteNumber": 42,
      "velocity": 0.5,
      "track": "DRUMS",
      "channel": 9,
      "lane": "D"
    },
    {
      "time": 171.857,
      "duration": 0.214,
      "midi": 69,
      "noteNumber": 69,
      "velocity": 0.43,
      "track": "DRUMS",
      "channel": 9,
      "lane": "K"
    },
    {
      "time": 172.071,
      "duration": 0.116,
      "midi": 47,
      "noteNumber": 47,
      "velocity": 0.45,
      "track": "(unnamed)",
      "channel": 1,
      "lane": "F"
    },
    {
      "time": 172.071,
      "duration": 0.214,
      "midi": 35,
      "noteNumber": 35,
      "velocity": 0.43,
      "track": "DRUMS",
      "channel": 9,
      "lane": "D"
    },
    {
      "time": 172.071,
      "duration": 0.214,
      "midi": 37,
      "noteNumber": 37,
      "velocity": 0.74,
      "track": "DRUMS",
      "channel": 9,
      "lane": "D"
    },
    {
      "time": 172.071,
      "duration": 0.214,
      "midi": 42,
      "noteNumber": 42,
      "velocity": 0.5,
      "track": "DRUMS",
      "channel": 9,
      "lane": "D"
    },
    {
      "time": 172.071,
      "duration": 0.214,
      "midi": 69,
      "noteNumber": 69,
      "velocity": 0.43,
      "track": "DRUMS",
      "channel": 9,
      "lane": "K"
    },
    {
      "time": 172.285,
      "duration": 0.455,
      "midi": 48,
      "noteNumber": 48,
      "velocity": 0.65,
      "track": "(unnamed)",
      "channel": 1,
      "lane": "F"
    },
    {
      "time": 172.285,
      "duration": 0.214,
      "midi": 35,
      "noteNumber": 35,
      "velocity": 0.5,
      "track": "DRUMS",
      "channel": 9,
      "lane": "D"
    },
    {
      "time": 172.285,
      "duration": 0.214,
      "midi": 42,
      "noteNumber": 42,
      "velocity": 0.58,
      "track": "DRUMS",
      "channel": 9,
      "lane": "D"
    },
    {
      "time": 172.285,
      "duration": 0.214,
      "midi": 69,
      "noteNumber": 69,
      "velocity": 0.5,
      "track": "DRUMS",
      "channel": 9,
      "lane": "K"
    },
    {
      "time": 172.499,
      "duration": 0.214,
      "midi": 42,
      "noteNumber": 42,
      "velocity": 0.5,
      "track": "DRUMS",
      "channel": 9,
      "lane": "D"
    },
    {
      "time": 172.499,
      "duration": 0.214,
      "midi": 69,
      "noteNumber": 69,
      "velocity": 0.43,
      "track": "DRUMS",
      "channel": 9,
      "lane": "K"
    },
    {
      "time": 172.714,
      "duration": 0.214,
      "midi": 37,
      "noteNumber": 37,
      "velocity": 0.66,
      "track": "DRUMS",
      "channel": 9,
      "lane": "D"
    },
    {
      "time": 172.714,
      "duration": 0.214,
      "midi": 42,
      "noteNumber": 42,
      "velocity": 0.58,
      "track": "DRUMS",
      "channel": 9,
      "lane": "D"
    },
    {
      "time": 172.714,
      "duration": 0.214,
      "midi": 69,
      "noteNumber": 69,
      "velocity": 0.43,
      "track": "DRUMS",
      "channel": 9,
      "lane": "K"
    },
    {
      "time": 172.729,
      "duration": 0.21,
      "midi": 74,
      "noteNumber": 74,
      "velocity": 0.69,
      "track": "(unnamed)",
      "channel": 2,
      "lane": "K"
    },
    {
      "time": 172.928,
      "duration": 0.089,
      "midi": 41,
      "noteNumber": 41,
      "velocity": 0.56,
      "track": "(unnamed)",
      "channel": 1,
      "lane": "D"
    },
    {
      "time": 172.928,
      "duration": 0.179,
      "midi": 72,
      "noteNumber": 72,
      "velocity": 0.78,
      "track": "(unnamed)",
      "channel": 2,
      "lane": "K"
    },
    {
      "time": 172.928,
      "duration": 0.214,
      "midi": 35,
      "noteNumber": 35,
      "velocity": 0.43,
      "track": "DRUMS",
      "channel": 9,
      "lane": "D"
    },
    {
      "time": 172.928,
      "duration": 0.214,
      "midi": 42,
      "noteNumber": 42,
      "velocity": 0.66,
      "track": "DRUMS",
      "channel": 9,
      "lane": "D"
    },
    {
      "time": 172.928,
      "duration": 0.214,
      "midi": 69,
      "noteNumber": 69,
      "velocity": 0.43,
      "track": "DRUMS",
      "channel": 9,
      "lane": "K"
    },
    {
      "time": 173.142,
      "duration": 0.549,
      "midi": 40,
      "noteNumber": 40,
      "velocity": 0.58,
      "track": "(unnamed)",
      "channel": 1,
      "lane": "D"
    },
    {
      "time": 173.142,
      "duration": 0.214,
      "midi": 35,
      "noteNumber": 35,
      "velocity": 0.5,
      "track": "DRUMS",
      "channel": 9,
      "lane": "D"
    },
    {
      "time": 173.142,
      "duration": 0.214,
      "midi": 42,
      "noteNumber": 42,
      "velocity": 0.58,
      "track": "DRUMS",
      "channel": 9,
      "lane": "D"
    },
    {
      "time": 173.142,
      "duration": 0.214,
      "midi": 69,
      "noteNumber": 69,
      "velocity": 0.5,
      "track": "DRUMS",
      "channel": 9,
      "lane": "K"
    },
    {
      "time": 173.223,
      "duration": 1.011,
      "midi": 52,
      "noteNumber": 52,
      "velocity": 0.69,
      "track": "(unnamed)",
      "channel": 2,
      "lane": "F"
    },
    {
      "time": 173.258,
      "duration": 0.056,
      "midi": 55,
      "noteNumber": 55,
      "velocity": 0.57,
      "track": "(unnamed)",
      "channel": 2,
      "lane": "F"
    },
    {
      "time": 173.265,
      "duration": 1.042,
      "midi": 59,
      "noteNumber": 59,
      "velocity": 0.57,
      "track": "(unnamed)",
      "channel": 2,
      "lane": "J"
    },
    {
      "time": 173.305,
      "duration": 0.875,
      "midi": 62,
      "noteNumber": 62,
      "velocity": 0.66,
      "track": "(unnamed)",
      "channel": 2,
      "lane": "J"
    },
    {
      "time": 173.341,
      "duration": 0.888,
      "midi": 67,
      "noteNumber": 67,
      "velocity": 0.51,
      "track": "(unnamed)",
      "channel": 2,
      "lane": "J"
    },
    {
      "time": 173.357,
      "duration": 0.214,
      "midi": 42,
      "noteNumber": 42,
      "velocity": 0.5,
      "track": "DRUMS",
      "channel": 9,
      "lane": "D"
    },
    {
      "time": 173.357,
      "duration": 0.214,
      "midi": 69,
      "noteNumber": 69,
      "velocity": 0.43,
      "track": "DRUMS",
      "channel": 9,
      "lane": "K"
    },
    {
      "time": 173.41,
      "duration": 0.801,
      "midi": 71,
      "noteNumber": 71,
      "velocity": 0.78,
      "track": "(unnamed)",
      "channel": 2,
      "lane": "K"
    },
    {
      "time": 173.571,
      "duration": 0.214,
      "midi": 37,
      "noteNumber": 37,
      "velocity": 0.66,
      "track": "DRUMS",
      "channel": 9,
      "lane": "D"
    },
    {
      "time": 173.571,
      "duration": 0.214,
      "midi": 42,
      "noteNumber": 42,
      "velocity": 0.58,
      "track": "DRUMS",
      "channel": 9,
      "lane": "D"
    },
    {
      "time": 173.571,
      "duration": 0.214,
      "midi": 69,
      "noteNumber": 69,
      "velocity": 0.43,
      "track": "DRUMS",
      "channel": 9,
      "lane": "K"
    },
    {
      "time": 173.785,
      "duration": 0.109,
      "midi": 47,
      "noteNumber": 47,
      "velocity": 0.52,
      "track": "(unnamed)",
      "channel": 1,
      "lane": "F"
    },
    {
      "time": 173.785,
      "duration": 0.214,
      "midi": 35,
      "noteNumber": 35,
      "velocity": 0.5,
      "track": "DRUMS",
      "channel": 9,
      "lane": "D"
    },
    {
      "time": 173.785,
      "duration": 0.214,
      "midi": 42,
      "noteNumber": 42,
      "velocity": 0.58,
      "track": "DRUMS",
      "channel": 9,
      "lane": "D"
    },
    {
      "time": 173.785,
      "duration": 0.214,
      "midi": 69,
      "noteNumber": 69,
      "velocity": 0.5,
      "track": "DRUMS",
      "channel": 9,
      "lane": "K"
    },
    {
      "time": 173.999,
      "duration": 0.596,
      "midi": 47,
      "noteNumber": 47,
      "velocity": 0.57,
      "track": "(unnamed)",
      "channel": 1,
      "lane": "F"
    },
    {
      "time": 173.999,
      "duration": 0.214,
      "midi": 35,
      "noteNumber": 35,
      "velocity": 0.5,
      "track": "DRUMS",
      "channel": 9,
      "lane": "D"
    },
    {
      "time": 173.999,
      "duration": 0.214,
      "midi": 42,
      "noteNumber": 42,
      "velocity": 0.58,
      "track": "DRUMS",
      "channel": 9,
      "lane": "D"
    },
    {
      "time": 173.999,
      "duration": 0.214,
      "midi": 69,
      "noteNumber": 69,
      "velocity": 0.5,
      "track": "DRUMS",
      "channel": 9,
      "lane": "K"
    },
    {
      "time": 174.214,
      "duration": 0.214,
      "midi": 37,
      "noteNumber": 37,
      "velocity": 0.74,
      "track": "DRUMS",
      "channel": 9,
      "lane": "D"
    },
    {
      "time": 174.214,
      "duration": 0.214,
      "midi": 42,
      "noteNumber": 42,
      "velocity": 0.58,
      "track": "DRUMS",
      "channel": 9,
      "lane": "D"
    },
    {
      "time": 174.214,
      "duration": 0.214,
      "midi": 69,
      "noteNumber": 69,
      "velocity": 0.43,
      "track": "DRUMS",
      "channel": 9,
      "lane": "K"
    },
    {
      "time": 174.225,
      "duration": 0.217,
      "midi": 69,
      "noteNumber": 69,
      "velocity": 0.65,
      "track": "(unnamed)",
      "channel": 2,
      "lane": "K"
    },
    {
      "time": 174.428,
      "duration": 0.214,
      "midi": 42,
      "noteNumber": 42,
      "velocity": 0.58,
      "track": "DRUMS",
      "channel": 9,
      "lane": "D"
    },
    {
      "time": 174.428,
      "duration": 0.214,
      "midi": 69,
      "noteNumber": 69,
      "velocity": 0.43,
      "track": "DRUMS",
      "channel": 9,
      "lane": "K"
    },
    {
      "time": 174.535,
      "duration": 0.19,
      "midi": 71,
      "noteNumber": 71,
      "velocity": 0.71,
      "track": "(unnamed)",
      "channel": 2,
      "lane": "K"
    },
    {
      "time": 174.642,
      "duration": 0.092,
      "midi": 40,
      "noteNumber": 40,
      "velocity": 0.46,
      "track": "(unnamed)",
      "channel": 1,
      "lane": "D"
    },
    {
      "time": 174.642,
      "duration": 0.214,
      "midi": 35,
      "noteNumber": 35,
      "velocity": 0.58,
      "track": "DRUMS",
      "channel": 9,
      "lane": "D"
    },
    {
      "time": 174.642,
      "duration": 0.214,
      "midi": 42,
      "noteNumber": 42,
      "velocity": 0.5,
      "track": "DRUMS",
      "channel": 9,
      "lane": "D"
    },
    {
      "time": 174.642,
      "duration": 0.214,
      "midi": 69,
      "noteNumber": 69,
      "velocity": 0.5,
      "track": "DRUMS",
      "channel": 9,
      "lane": "K"
    },
    {
      "time": 174.825,
      "duration": 1.368,
      "midi": 53,
      "noteNumber": 53,
      "velocity": 0.76,
      "track": "(unnamed)",
      "channel": 2,
      "lane": "F"
    },
    {
      "time": 174.857,
      "duration": 0.496,
      "midi": 38,
      "noteNumber": 38,
      "velocity": 0.59,
      "track": "(unnamed)",
      "channel": 1,
      "lane": "D"
    },
    {
      "time": 174.857,
      "duration": 0.214,
      "midi": 35,
      "noteNumber": 35,
      "velocity": 0.5,
      "track": "DRUMS",
      "channel": 9,
      "lane": "D"
    },
    {
      "time": 174.857,
      "duration": 0.214,
      "midi": 37,
      "noteNumber": 37,
      "velocity": 0.66,
      "track": "DRUMS",
      "channel": 9,
      "lane": "D"
    },
    {
      "time": 174.857,
      "duration": 0.214,
      "midi": 42,
      "noteNumber": 42,
      "velocity": 0.69,
      "track": "DRUMS",
      "channel": 9,
      "lane": "D"
    },
    {
      "time": 174.857,
      "duration": 0.214,
      "midi": 69,
      "noteNumber": 69,
      "velocity": 0.5,
      "track": "DRUMS",
      "channel": 9,
      "lane": "K"
    },
    {
      "time": 174.859,
      "duration": 1.373,
      "midi": 60,
      "noteNumber": 60,
      "velocity": 0.68,
      "track": "(unnamed)",
      "channel": 2,
      "lane": "J"
    },
    {
      "time": 174.886,
      "duration": 1.364,
      "midi": 64,
      "noteNumber": 64,
      "velocity": 0.63,
      "track": "(unnamed)",
      "channel": 2,
      "lane": "J"
    },
    {
      "time": 174.926,
      "duration": 1.308,
      "midi": 69,
      "noteNumber": 69,
      "velocity": 0.57,
      "track": "(unnamed)",
      "channel": 2,
      "lane": "K"
    },
    {
      "time": 174.977,
      "duration": 1.219,
      "midi": 72,
      "noteNumber": 72,
      "velocity": 0.77,
      "track": "(unnamed)",
      "channel": 2,
      "lane": "K"
    },
    {
      "time": 175.071,
      "duration": 0.214,
      "midi": 42,
      "noteNumber": 42,
      "velocity": 0.5,
      "track": "DRUMS",
      "channel": 9,
      "lane": "D"
    },
    {
      "time": 175.071,
      "duration": 0.214,
      "midi": 69,
      "noteNumber": 69,
      "velocity": 0.43,
      "track": "DRUMS",
      "channel": 9,
      "lane": "K"
    },
    {
      "time": 175.285,
      "duration": 0.214,
      "midi": 42,
      "noteNumber": 42,
      "velocity": 0.5,
      "track": "DRUMS",
      "channel": 9,
      "lane": "D"
    },
    {
      "time": 175.285,
      "duration": 0.214,
      "midi": 48,
      "noteNumber": 48,
      "velocity": 0.5,
      "track": "DRUMS",
      "channel": 9,
      "lane": "F"
    },
    {
      "time": 175.285,
      "duration": 0.214,
      "midi": 69,
      "noteNumber": 69,
      "velocity": 0.43,
      "track": "DRUMS",
      "channel": 9,
      "lane": "K"
    },
    {
      "time": 175.499,
      "duration": 0.114,
      "midi": 45,
      "noteNumber": 45,
      "velocity": 0.45,
      "track": "(unnamed)",
      "channel": 1,
      "lane": "F"
    },
    {
      "time": 175.499,
      "duration": 0.214,
      "midi": 35,
      "noteNumber": 35,
      "velocity": 0.43,
      "track": "DRUMS",
      "channel": 9,
      "lane": "D"
    },
    {
      "time": 175.499,
      "duration": 0.214,
      "midi": 37,
      "noteNumber": 37,
      "velocity": 0.74,
      "track": "DRUMS",
      "channel": 9,
      "lane": "D"
    },
    {
      "time": 175.499,
      "duration": 0.214,
      "midi": 42,
      "noteNumber": 42,
      "velocity": 0.5,
      "track": "DRUMS",
      "channel": 9,
      "lane": "D"
    },
    {
      "time": 175.499,
      "duration": 0.214,
      "midi": 69,
      "noteNumber": 69,
      "velocity": 0.43,
      "track": "DRUMS",
      "channel": 9,
      "lane": "K"
    },
    {
      "time": 175.714,
      "duration": 0.554,
      "midi": 45,
      "noteNumber": 45,
      "velocity": 0.61,
      "track": "(unnamed)",
      "channel": 1,
      "lane": "F"
    },
    {
      "time": 175.714,
      "duration": 0.214,
      "midi": 35,
      "noteNumber": 35,
      "velocity": 0.5,
      "track": "DRUMS",
      "channel": 9,
      "lane": "D"
    },
    {
      "time": 175.714,
      "duration": 0.214,
      "midi": 42,
      "noteNumber": 42,
      "velocity": 0.58,
      "track": "DRUMS",
      "channel": 9,
      "lane": "D"
    },
    {
      "time": 175.714,
      "duration": 0.214,
      "midi": 69,
      "noteNumber": 69,
      "velocity": 0.5,
      "track": "DRUMS",
      "channel": 9,
      "lane": "K"
    },
    {
      "time": 175.928,
      "duration": 0.214,
      "midi": 42,
      "noteNumber": 42,
      "velocity": 0.5,
      "track": "DRUMS",
      "channel": 9,
      "lane": "D"
    },
    {
      "time": 175.928,
      "duration": 0.214,
      "midi": 69,
      "noteNumber": 69,
      "velocity": 0.43,
      "track": "DRUMS",
      "channel": 9,
      "lane": "K"
    },
    {
      "time": 175.946,
      "duration": 0.19,
      "midi": 74,
      "noteNumber": 74,
      "velocity": 0.78,
      "track": "(unnamed)",
      "channel": 2,
      "lane": "K"
    },
    {
      "time": 176.142,
      "duration": 0.214,
      "midi": 37,
      "noteNumber": 37,
      "velocity": 0.66,
      "track": "DRUMS",
      "channel": 9,
      "lane": "D"
    },
    {
      "time": 176.142,
      "duration": 0.214,
      "midi": 42,
      "noteNumber": 42,
      "velocity": 0.58,
      "track": "DRUMS",
      "channel": 9,
      "lane": "D"
    },
    {
      "time": 176.142,
      "duration": 0.214,
      "midi": 69,
      "noteNumber": 69,
      "velocity": 0.43,
      "track": "DRUMS",
      "channel": 9,
      "lane": "K"
    },
    {
      "time": 176.196,
      "duration": 0.181,
      "midi": 72,
      "noteNumber": 72,
      "velocity": 0.73,
      "track": "(unnamed)",
      "channel": 2,
      "lane": "K"
    },
    {
      "time": 176.357,
      "duration": 0.103,
      "midi": 38,
      "noteNumber": 38,
      "velocity": 0.49,
      "track": "(unnamed)",
      "channel": 1,
      "lane": "D"
    },
    {
      "time": 176.357,
      "duration": 0.214,
      "midi": 35,
      "noteNumber": 35,
      "velocity": 0.43,
      "track": "DRUMS",
      "channel": 9,
      "lane": "D"
    },
    {
      "time": 176.357,
      "duration": 0.214,
      "midi": 42,
      "noteNumber": 42,
      "velocity": 0.66,
      "track": "DRUMS",
      "channel": 9,
      "lane": "D"
    },
    {
      "time": 176.357,
      "duration": 0.214,
      "midi": 69,
      "noteNumber": 69,
      "velocity": 0.43,
      "track": "DRUMS",
      "channel": 9,
      "lane": "K"
    },
    {
      "time": 176.506,
      "duration": 0.73,
      "midi": 56,
      "noteNumber": 56,
      "velocity": 0.68,
      "track": "(unnamed)",
      "channel": 2,
      "lane": "F"
    },
    {
      "time": 176.544,
      "duration": 0.734,
      "midi": 62,
      "noteNumber": 62,
      "velocity": 0.69,
      "track": "(unnamed)",
      "channel": 2,
      "lane": "J"
    },
    {
      "time": 176.571,
      "duration": 0.589,
      "midi": 35,
      "noteNumber": 35,
      "velocity": 0.59,
      "track": "(unnamed)",
      "channel": 1,
      "lane": "D"
    },
    {
      "time": 176.571,
      "duration": 0.214,
      "midi": 42,
      "noteNumber": 42,
      "velocity": 0.5,
      "track": "DRUMS",
      "channel": 9,
      "lane": "D"
    },
    {
      "time": 176.571,
      "duration": 0.214,
      "midi": 69,
      "noteNumber": 69,
      "velocity": 0.66,
      "track": "DRUMS",
      "channel": 9,
      "lane": "K"
    },
    {
      "time": 176.575,
      "duration": 0.725,
      "midi": 67,
      "noteNumber": 67,
      "velocity": 0.61,
      "track": "(unnamed)",
      "channel": 2,
      "lane": "J"
    },
    {
      "time": 176.613,
      "duration": 1.257,
      "midi": 71,
      "noteNumber": 71,
      "velocity": 0.72,
      "track": "(unnamed)",
      "channel": 2,
      "lane": "K"
    },
    {
      "time": 176.785,
      "duration": 0.214,
      "midi": 42,
      "noteNumber": 42,
      "velocity": 0.43,
      "track": "DRUMS",
      "channel": 9,
      "lane": "D"
    },
    {
      "time": 176.785,
      "duration": 0.214,
      "midi": 48,
      "noteNumber": 48,
      "velocity": 0.43,
      "track": "DRUMS",
      "channel": 9,
      "lane": "F"
    },
    {
      "time": 176.785,
      "duration": 0.214,
      "midi": 69,
      "noteNumber": 69,
      "velocity": 0.43,
      "track": "DRUMS",
      "channel": 9,
      "lane": "K"
    },
    {
      "time": 176.999,
      "duration": 0.001,
      "midi": 37,
      "noteNumber": 37,
      "velocity": 0.66,
      "track": "DRUMS",
      "channel": 9,
      "lane": "D"
    },
    {
      "time": 176.999,
      "duration": 0.214,
      "midi": 37,
      "noteNumber": 37,
      "velocity": 0.43,
      "track": "DRUMS",
      "channel": 9,
      "lane": "D"
    },
    {
      "time": 176.999,
      "duration": 0.214,
      "midi": 42,
      "noteNumber": 42,
      "velocity": 0.5,
      "track": "DRUMS",
      "channel": 9,
      "lane": "D"
    },
    {
      "time": 177.214,
      "duration": 0.089,
      "midi": 35,
      "noteNumber": 35,
      "velocity": 0.55,
      "track": "(unnamed)",
      "channel": 1,
      "lane": "D"
    },
    {
      "time": 177.214,
      "duration": 0.214,
      "midi": 37,
      "noteNumber": 37,
      "velocity": 0.43,
      "track": "DRUMS",
      "channel": 9,
      "lane": "D"
    },
    {
      "time": 177.214,
      "duration": 0.214,
      "midi": 42,
      "noteNumber": 42,
      "velocity": 0.5,
      "track": "DRUMS",
      "channel": 9,
      "lane": "D"
    },
    {
      "time": 177.214,
      "duration": 0.214,
      "midi": 45,
      "noteNumber": 45,
      "velocity": 0.43,
      "track": "DRUMS",
      "channel": 9,
      "lane": "F"
    },
    {
      "time": 177.258,
      "duration": 0.212,
      "midi": 64,
      "noteNumber": 64,
      "velocity": 0.58,
      "track": "(unnamed)",
      "channel": 2,
      "lane": "J"
    },
    {
      "time": 177.428,
      "duration": 0.491,
      "midi": 40,
      "noteNumber": 40,
      "velocity": 0.65,
      "track": "(unnamed)",
      "channel": 1,
      "lane": "D"
    },
    {
      "time": 177.428,
      "duration": 0.214,
      "midi": 37,
      "noteNumber": 37,
      "velocity": 0.5,
      "track": "DRUMS",
      "channel": 9,
      "lane": "D"
    },
    {
      "time": 177.428,
      "duration": 0.214,
      "midi": 42,
      "noteNumber": 42,
      "velocity": 0.5,
      "track": "DRUMS",
      "channel": 9,
      "lane": "D"
    },
    {
      "time": 177.428,
      "duration": 0.214,
      "midi": 48,
      "noteNumber": 48,
      "velocity": 0.5,
      "track": "DRUMS",
      "channel": 9,
      "lane": "F"
    },
    {
      "time": 177.448,
      "duration": 0.379,
      "midi": 72,
      "noteNumber": 72,
      "velocity": 0.85,
      "track": "(unnamed)",
      "channel": 2,
      "lane": "K"
    },
    {
      "time": 177.642,
      "duration": 0.214,
      "midi": 37,
      "noteNumber": 37,
      "velocity": 0.43,
      "track": "DRUMS",
      "channel": 9,
      "lane": "D"
    },
    {
      "time": 177.642,
      "duration": 0.214,
      "midi": 42,
      "noteNumber": 42,
      "velocity": 0.5,
      "track": "DRUMS",
      "channel": 9,
      "lane": "D"
    },
    {
      "time": 177.642,
      "duration": 0.214,
      "midi": 48,
      "noteNumber": 48,
      "velocity": 0.5,
      "track": "DRUMS",
      "channel": 9,
      "lane": "F"
    },
    {
      "time": 177.857,
      "duration": 0.214,
      "midi": 37,
      "noteNumber": 37,
      "velocity": 0.43,
      "track": "DRUMS",
      "channel": 9,
      "lane": "D"
    },
    {
      "time": 177.857,
      "duration": 0.214,
      "midi": 42,
      "noteNumber": 42,
      "velocity": 0.5,
      "track": "DRUMS",
      "channel": 9,
      "lane": "D"
    },
    {
      "time": 177.857,
      "duration": 0.214,
      "midi": 48,
      "noteNumber": 48,
      "velocity": 0.54,
      "track": "DRUMS",
      "channel": 9,
      "lane": "F"
    },
    {
      "time": 177.87,
      "duration": 0.395,
      "midi": 71,
      "noteNumber": 71,
      "velocity": 0.77,
      "track": "(unnamed)",
      "channel": 2,
      "lane": "K"
    },
    {
      "time": 178.071,
      "duration": 0.107,
      "midi": 40,
      "noteNumber": 40,
      "velocity": 0.56,
      "track": "(unnamed)",
      "channel": 1,
      "lane": "D"
    },
    {
      "time": 178.071,
      "duration": 0.214,
      "midi": 37,
      "noteNumber": 37,
      "velocity": 0.43,
      "track": "DRUMS",
      "channel": 9,
      "lane": "D"
    },
    {
      "time": 178.071,
      "duration": 0.214,
      "midi": 42,
      "noteNumber": 42,
      "velocity": 0.5,
      "track": "DRUMS",
      "channel": 9,
      "lane": "D"
    },
    {
      "time": 178.071,
      "duration": 0.214,
      "midi": 48,
      "noteNumber": 48,
      "velocity": 0.5,
      "track": "DRUMS",
      "channel": 9,
      "lane": "F"
    },
    {
      "time": 178.281,
      "duration": 1.23,
      "midi": 45,
      "noteNumber": 45,
      "velocity": 0.7,
      "track": "(unnamed)",
      "channel": 2,
      "lane": "F"
    },
    {
      "time": 178.285,
      "duration": 0.531,
      "midi": 33,
      "noteNumber": 33,
      "velocity": 0.56,
      "track": "(unnamed)",
      "channel": 1,
      "lane": "D"
    },
    {
      "time": 178.285,
      "duration": 0.429,
      "midi": 35,
      "noteNumber": 35,
      "velocity": 0.43,
      "track": "DRUMS",
      "channel": 9,
      "lane": "D"
    },
    {
      "time": 178.285,
      "duration": 0.429,
      "midi": 42,
      "noteNumber": 42,
      "velocity": 0.5,
      "track": "DRUMS",
      "channel": 9,
      "lane": "D"
    },
    {
      "time": 178.294,
      "duration": 0.437,
      "midi": 55,
      "noteNumber": 55,
      "velocity": 0.83,
      "track": "(unnamed)",
      "channel": 2,
      "lane": "F"
    },
    {
      "time": 178.31,
      "duration": 2.516,
      "midi": 59,
      "noteNumber": 59,
      "velocity": 0.62,
      "track": "(unnamed)",
      "channel": 2,
      "lane": "J"
    },
    {
      "time": 178.314,
      "duration": 0.812,
      "midi": 60,
      "noteNumber": 60,
      "velocity": 0.74,
      "track": "(unnamed)",
      "channel": 2,
      "lane": "J"
    },
    {
      "time": 178.354,
      "duration": 1.237,
      "midi": 69,
      "noteNumber": 69,
      "velocity": 0.78,
      "track": "(unnamed)",
      "channel": 2,
      "lane": "K"
    },
    {
      "time": 178.513,
      "duration": 1.962,
      "midi": 55,
      "noteNumber": 55,
      "velocity": 0.65,
      "track": "(unnamed)",
      "channel": 2,
      "lane": "F"
    },
    {
      "time": 178.714,
      "duration": 0.429,
      "midi": 42,
      "noteNumber": 42,
      "velocity": 0.5,
      "track": "DRUMS",
      "channel": 9,
      "lane": "D"
    },
    {
      "time": 178.714,
      "duration": 0.429,
      "midi": 49,
      "noteNumber": 49,
      "velocity": 0.66,
      "track": "DRUMS",
      "channel": 9,
      "lane": "F"
    },
    {
      "time": 178.72,
      "duration": 1.377,
      "midi": 60,
      "noteNumber": 60,
      "velocity": 0.69,
      "track": "(unnamed)",
      "channel": 2,
      "lane": "J"
    },
    {
      "time": 178.928,
      "duration": 0.109,
      "midi": 40,
      "noteNumber": 40,
      "velocity": 0.5,
      "track": "(unnamed)",
      "channel": 1,
      "lane": "D"
    },
    {
      "time": 178.973,
      "duration": 1.203,
      "midi": 69,
      "noteNumber": 69,
      "velocity": 0.68,
      "track": "(unnamed)",
      "channel": 2,
      "lane": "K"
    },
    {
      "time": 179.142,
      "duration": 0.531,
      "midi": 40,
      "noteNumber": 40,
      "velocity": 0.59,
      "track": "(unnamed)",
      "channel": 1,
      "lane": "D"
    },
    {
      "time": 179.142,
      "duration": 0.214,
      "midi": 38,
      "noteNumber": 38,
      "velocity": 0.5,
      "track": "DRUMS",
      "channel": 9,
      "lane": "D"
    },
    {
      "time": 179.357,
      "duration": 0.429,
      "midi": 45,
      "noteNumber": 45,
      "velocity": 0.5,
      "track": "DRUMS",
      "channel": 9,
      "lane": "F"
    },
    {
      "time": 179.785,
      "duration": 0.098,
      "midi": 33,
      "noteNumber": 33,
      "velocity": 0.53,
      "track": "(unnamed)",
      "channel": 1,
      "lane": "D"
    },
    {
      "time": 179.785,
      "duration": 0.214,
      "midi": 45,
      "noteNumber": 45,
      "velocity": 0.66,
      "track": "DRUMS",
      "channel": 9,
      "lane": "F"
    },
    {
      "time": 179.999,
      "duration": 1.571,
      "midi": 45,
      "noteNumber": 45,
      "velocity": 0.65,
      "track": "(unnamed)",
      "channel": 1,
      "lane": "F"
    },
    {
      "time": 179.999,
      "duration": 0.214,
      "midi": 35,
      "noteNumber": 35,
      "velocity": 0.5,
      "track": "DRUMS",
      "channel": 9,
      "lane": "D"
    },
    {
      "time": 179.999,
      "duration": 0.214,
      "midi": 51,
      "noteNumber": 51,
      "velocity": 0.58,
      "track": "DRUMS",
      "channel": 9,
      "lane": "F"
    },
    {
      "time": 180.214,
      "duration": 0.214,
      "midi": 51,
      "noteNumber": 51,
      "velocity": 0.5,
      "track": "DRUMS",
      "channel": 9,
      "lane": "F"
    },
    {
      "time": 180.214,
      "duration": 0.214,
      "midi": 63,
      "noteNumber": 63,
      "velocity": 0.43,
      "track": "DRUMS",
      "channel": 9,
      "lane": "J"
    },
    {
      "time": 180.428,
      "duration": 0.214,
      "midi": 37,
      "noteNumber": 37,
      "velocity": 0.66,
      "track": "DRUMS",
      "channel": 9,
      "lane": "D"
    },
    {
      "time": 180.428,
      "duration": 0.214,
      "midi": 51,
      "noteNumber": 51,
      "velocity": 0.58,
      "track": "DRUMS",
      "channel": 9,
      "lane": "F"
    },
    {
      "time": 180.428,
      "duration": 0.214,
      "midi": 63,
      "noteNumber": 63,
      "velocity": 0.43,
      "track": "DRUMS",
      "channel": 9,
      "lane": "J"
    },
    {
      "time": 180.43,
      "duration": 1.547,
      "midi": 57,
      "noteNumber": 57,
      "velocity": 0.78,
      "track": "(unnamed)",
      "channel": 2,
      "lane": "J"
    },
    {
      "time": 180.642,
      "duration": 0.214,
      "midi": 35,
      "noteNumber": 35,
      "velocity": 0.5,
      "track": "DRUMS",
      "channel": 9,
      "lane": "D"
    },
    {
      "time": 180.642,
      "duration": 0.214,
      "midi": 51,
      "noteNumber": 51,
      "velocity": 0.58,
      "track": "DRUMS",
      "channel": 9,
      "lane": "F"
    },
    {
      "time": 180.642,
      "duration": 0.214,
      "midi": 62,
      "noteNumber": 62,
      "velocity": 0.5,
      "track": "DRUMS",
      "channel": 9,
      "lane": "J"
    },
    {
      "time": 180.662,
      "duration": 0.27,
      "midi": 60,
      "noteNumber": 60,
      "velocity": 0.64,
      "track": "(unnamed)",
      "channel": 2,
      "lane": "J"
    },
    {
      "time": 180.857,
      "duration": 0.214,
      "midi": 35,
      "noteNumber": 35,
      "velocity": 0.5,
      "track": "DRUMS",
      "channel": 9,
      "lane": "D"
    },
    {
      "time": 180.857,
      "duration": 0.214,
      "midi": 51,
      "noteNumber": 51,
      "velocity": 0.58,
      "track": "DRUMS",
      "channel": 9,
      "lane": "F"
    },
    {
      "time": 180.857,
      "duration": 0.214,
      "midi": 62,
      "noteNumber": 62,
      "velocity": 0.5,
      "track": "DRUMS",
      "channel": 9,
      "lane": "J"
    },
    {
      "time": 180.861,
      "duration": 1.252,
      "midi": 64,
      "noteNumber": 64,
      "velocity": 0.69,
      "track": "(unnamed)",
      "channel": 2,
      "lane": "J"
    },
    {
      "time": 181.071,
      "duration": 0.214,
      "midi": 37,
      "noteNumber": 37,
      "velocity": 0.74,
      "track": "DRUMS",
      "channel": 9,
      "lane": "D"
    },
    {
      "time": 181.071,
      "duration": 0.214,
      "midi": 51,
      "noteNumber": 51,
      "velocity": 0.58,
      "track": "DRUMS",
      "channel": 9,
      "lane": "F"
    },
    {
      "time": 181.104,
      "duration": 1.232,
      "midi": 59,
      "noteNumber": 59,
      "velocity": 0.65,
      "track": "(unnamed)",
      "channel": 2,
      "lane": "J"
    },
    {
      "time": 181.285,
      "duration": 0.214,
      "midi": 51,
      "noteNumber": 51,
      "velocity": 0.58,
      "track": "DRUMS",
      "channel": 9,
      "lane": "F"
    },
    {
      "time": 181.499,
      "duration": 0.214,
      "midi": 35,
      "noteNumber": 35,
      "velocity": 0.58,
      "track": "DRUMS",
      "channel": 9,
      "lane": "D"
    },
    {
      "time": 181.499,
      "duration": 0.214,
      "midi": 51,
      "noteNumber": 51,
      "velocity": 0.5,
      "track": "DRUMS",
      "channel": 9,
      "lane": "F"
    },
    {
      "time": 181.714,
      "duration": 1.571,
      "midi": 33,
      "noteNumber": 33,
      "velocity": 0.65,
      "track": "(unnamed)",
      "channel": 1,
      "lane": "D"
    },
    {
      "time": 181.714,
      "duration": 0.429,
      "midi": 35,
      "noteNumber": 35,
      "velocity": 0.55,
      "track": "DRUMS",
      "channel": 9,
      "lane": "D"
    },
    {
      "time": 181.714,
      "duration": 0.429,
      "midi": 49,
      "noteNumber": 49,
      "velocity": 0.63,
      "track": "DRUMS",
      "channel": 9,
      "lane": "F"
    },
    {
      "time": 181.72,
      "duration": 5.187,
      "midi": 45,
      "noteNumber": 45,
      "velocity": 0.76,
      "track": "(unnamed)",
      "channel": 2,
      "lane": "F"
    },
    {
      "time": 181.95,
      "duration": 5.025,
      "midi": 60,
      "noteNumber": 60,
      "velocity": 0.6,
      "track": "(unnamed)",
      "channel": 2,
      "lane": "J"
    },
    {
      "time": 182.136,
      "duration": 4.725,
      "midi": 64,
      "noteNumber": 64,
      "velocity": 0.69,
      "track": "(unnamed)",
      "channel": 2,
      "lane": "J"
    },
    {
      "time": 182.368,
      "duration": 4.545,
      "midi": 59,
      "noteNumber": 59,
      "velocity": 0.57,
      "track": "(unnamed)",
      "channel": 2,
      "lane": "J"
    },
    {
      "time": 182.397,
      "duration": 4.451,
      "midi": 74,
      "noteNumber": 74,
      "velocity": 0.68,
      "track": "(unnamed)",
      "channel": 2,
      "lane": "K"
    },
    {
      "time": 182.571,
      "duration": 0.429,
      "midi": 35,
      "noteNumber": 35,
      "velocity": 0.79,
      "track": "DRUMS",
      "channel": 9,
      "lane": "D"
    },
    {
      "time": 182.571,
      "duration": 0.429,
      "midi": 42,
      "noteNumber": 42,
      "velocity": 0.71,
      "track": "DRUMS",
      "channel": 9,
      "lane": "D"
    }
  ]
}