{
  "name": "COLTRANE.Countdown",
  "bpm": 231,
  "duration": 51.95,
  "ppq": 120,
  "totalNotes": 1750,
  "noteRange": {
    "min": 21,
    "max": 83
  },
  "tracks": [
    {
      "name": "Bass",
      "instrument": "acoustic bass",
      "channel": 1,
      "noteCount": 254
    },
    {
      "name": "Piano",
      "instrument": "acoustic grand piano",
      "channel": 2,
      "noteCount": 307
    },
    {
      "name": "Vibraphone",
      "instrument": "vibraphone",
      "channel": 3,
      "noteCount": 74
    },
    {
      "name": "Flute",
      "instrument": "flute",
      "channel": 4,
      "noteCount": 74
    },
    {
      "name": "Pad2",
      "instrument": "pad 2 (warm)",
      "channel": 5,
      "noteCount": 74
    },
    {
      "name": "Piano",
      "instrument": "acoustic grand piano",
      "channel": 7,
      "noteCount": 73
    },
    {
      "name": "Pad2",
      "instrument": "pad 2 (warm)",
      "channel": 8,
      "noteCount": 73
    },
    {
      "name": "Side Stick",
      "instrument": "standard kit",
      "channel": 9,
      "noteCount": 3
    },
    {
      "name": "Drums",
      "instrument": "standard kit",
      "channel": 9,
      "noteCount": 416
    },
    {
      "name": "Loose Kick",
      "instrument": "standard kit",
      "channel": 9,
      "noteCount": 6
    },
    {
      "name": "Tight Snare",
      "instrument": "standard kit",
      "channel": 9,
      "noteCount": 5
    },
    {
      "name": "Closed Hi Hat",
      "instrument": "standard kit",
      "channel": 9,
      "noteCount": 96
    },
    {
      "name": "Open Hi Hat",
      "instrument": "standard kit",
      "channel": 9,
      "noteCount": 2
    },
    {
      "name": "Hi Ride Cymbal",
      "instrument": "standard kit",
      "channel": 9,
      "noteCount": 293
    }
  ],
  "notes": [
    {
      "time": 0,
      "duration": 0.247,
      "midi": 40,
      "noteNumber": 40,
      "velocity": 0.91,
      "track": "Bass",
      "channel": 1,
      "lane": "F"
    },
    {
      "time": 0,
      "duration": 0.519,
      "midi": 62,
      "noteNumber": 62,
      "velocity": 0.51,
      "track": "Piano",
      "channel": 2,
      "lane": "J"
    },
    {
      "time": 0,
      "duration": 0.519,
      "midi": 64,
      "noteNumber": 64,
      "velocity": 0.51,
      "track": "Piano",
      "channel": 2,
      "lane": "J"
    },
    {
      "time": 0,
      "duration": 0.519,
      "midi": 55,
      "noteNumber": 55,
      "velocity": 0.51,
      "track": "Piano",
      "channel": 2,
      "lane": "J"
    },
    {
      "time": 0,
      "duration": 0.519,
      "midi": 71,
      "noteNumber": 71,
      "velocity": 0.51,
      "track": "Piano",
      "channel": 2,
      "lane": "K"
    },
    {
      "time": 0,
      "duration": 0.054,
      "midi": 51,
      "noteNumber": 51,
      "velocity": 0.75,
      "track": "Drums",
      "channel": 9,
      "lane": "F"
    },
    {
      "time": 0,
      "duration": 0.054,
      "midi": 49,
      "noteNumber": 49,
      "velocity": 0.51,
      "track": "Drums",
      "channel": 9,
      "lane": "F"
    },
    {
      "time": 0,
      "duration": 0.022,
      "midi": 59,
      "noteNumber": 59,
      "velocity": 0.87,
      "track": "Hi Ride Cymbal",
      "channel": 9,
      "lane": "J"
    },
    {
      "time": 0.002,
      "duration": 0.455,
      "midi": 69,
      "noteNumber": 69,
      "velocity": 0.64,
      "track": "Vibraphone",
      "channel": 3,
      "lane": "K"
    },
    {
      "time": 0.002,
      "duration": 0.455,
      "midi": 69,
      "noteNumber": 69,
      "velocity": 0.64,
      "track": "Flute",
      "channel": 4,
      "lane": "K"
    },
    {
      "time": 0.002,
      "duration": 0.455,
      "midi": 69,
      "noteNumber": 69,
      "velocity": 0.64,
      "track": "Pad2",
      "channel": 5,
      "lane": "K"
    },
    {
      "time": 0.26,
      "duration": 0.26,
      "midi": 40,
      "noteNumber": 40,
      "velocity": 0.87,
      "track": "Bass",
      "channel": 1,
      "lane": "F"
    },
    {
      "time": 0.26,
      "duration": 0.054,
      "midi": 42,
      "noteNumber": 42,
      "velocity": 0.67,
      "track": "Drums",
      "channel": 9,
      "lane": "F"
    },
    {
      "time": 0.26,
      "duration": 0.054,
      "midi": 51,
      "noteNumber": 51,
      "velocity": 0.91,
      "track": "Drums",
      "channel": 9,
      "lane": "F"
    },
    {
      "time": 0.26,
      "duration": 0.022,
      "midi": 42,
      "noteNumber": 42,
      "velocity": 0.7,
      "track": "Closed Hi Hat",
      "channel": 9,
      "lane": "F"
    },
    {
      "time": 0.26,
      "duration": 0.022,
      "midi": 59,
      "noteNumber": 59,
      "velocity": 0.69,
      "track": "Hi Ride Cymbal",
      "channel": 9,
      "lane": "J"
    },
    {
      "time": 0.433,
      "duration": 0.022,
      "midi": 59,
      "noteNumber": 59,
      "velocity": 0.71,
      "track": "Hi Ride Cymbal",
      "channel": 9,
      "lane": "J"
    },
    {
      "time": 0.519,
      "duration": 0.197,
      "midi": 41,
      "noteNumber": 41,
      "velocity": 1,
      "track": "Bass",
      "channel": 1,
      "lane": "F"
    },
    {
      "time": 0.519,
      "duration": 0.519,
      "midi": 63,
      "noteNumber": 63,
      "velocity": 0.51,
      "track": "Piano",
      "channel": 2,
      "lane": "J"
    },
    {
      "time": 0.519,
      "duration": 0.519,
      "midi": 66,
      "noteNumber": 66,
      "velocity": 0.51,
      "track": "Piano",
      "channel": 2,
      "lane": "J"
    },
    {
      "time": 0.519,
      "duration": 0.519,
      "midi": 57,
      "noteNumber": 57,
      "velocity": 0.51,
      "track": "Piano",
      "channel": 2,
      "lane": "J"
    },
    {
      "time": 0.519,
      "duration": 0.519,
      "midi": 73,
      "noteNumber": 73,
      "velocity": 0.51,
      "track": "Piano",
      "channel": 2,
      "lane": "K"
    },
    {
      "time": 0.519,
      "duration": 0.054,
      "midi": 51,
      "noteNumber": 51,
      "velocity": 0.75,
      "track": "Drums",
      "channel": 9,
      "lane": "F"
    },
    {
      "time": 0.519,
      "duration": 0.022,
      "midi": 59,
      "noteNumber": 59,
      "velocity": 0.7,
      "track": "Hi Ride Cymbal",
      "channel": 9,
      "lane": "J"
    },
    {
      "time": 0.537,
      "duration": 0.455,
      "midi": 69,
      "noteNumber": 69,
      "velocity": 0.64,
      "track": "Vibraphone",
      "channel": 3,
      "lane": "K"
    },
    {
      "time": 0.537,
      "duration": 0.455,
      "midi": 69,
      "noteNumber": 69,
      "velocity": 0.64,
      "track": "Flute",
      "channel": 4,
      "lane": "K"
    },
    {
      "time": 0.537,
      "duration": 0.455,
      "midi": 69,
      "noteNumber": 69,
      "velocity": 0.64,
      "track": "Pad2",
      "channel": 5,
      "lane": "K"
    },
    {
      "time": 0.712,
      "duration": 0.067,
      "midi": 29,
      "noteNumber": 29,
      "velocity": 0.95,
      "track": "Bass",
      "channel": 1,
      "lane": "D"
    },
    {
      "time": 0.779,
      "duration": 0.258,
      "midi": 41,
      "noteNumber": 41,
      "velocity": 1,
      "track": "Bass",
      "channel": 1,
      "lane": "F"
    },
    {
      "time": 0.779,
      "duration": 0.054,
      "midi": 42,
      "noteNumber": 42,
      "velocity": 0.67,
      "track": "Drums",
      "channel": 9,
      "lane": "F"
    },
    {
      "time": 0.779,
      "duration": 0.054,
      "midi": 37,
      "noteNumber": 37,
      "velocity": 0.67,
      "track": "Drums",
      "channel": 9,
      "lane": "F"
    },
    {
      "time": 0.779,
      "duration": 0.054,
      "midi": 51,
      "noteNumber": 51,
      "velocity": 0.91,
      "track": "Drums",
      "channel": 9,
      "lane": "F"
    },
    {
      "time": 0.779,
      "duration": 0.022,
      "midi": 42,
      "noteNumber": 42,
      "velocity": 0.72,
      "track": "Closed Hi Hat",
      "channel": 9,
      "lane": "F"
    },
    {
      "time": 0.779,
      "duration": 0.022,
      "midi": 59,
      "noteNumber": 59,
      "velocity": 0.71,
      "track": "Hi Ride Cymbal",
      "channel": 9,
      "lane": "J"
    },
    {
      "time": 0.952,
      "duration": 0.022,
      "midi": 59,
      "noteNumber": 59,
      "velocity": 0.71,
      "track": "Hi Ride Cymbal",
      "channel": 9,
      "lane": "J"
    },
    {
      "time": 1.039,
      "duration": 0.234,
      "midi": 34,
      "noteNumber": 34,
      "velocity": 0.92,
      "track": "Bass",
      "channel": 1,
      "lane": "D"
    },
    {
      "time": 1.039,
      "duration": 0.519,
      "midi": 57,
      "noteNumber": 57,
      "velocity": 0.51,
      "track": "Piano",
      "channel": 2,
      "lane": "J"
    },
    {
      "time": 1.039,
      "duration": 0.519,
      "midi": 72,
      "noteNumber": 72,
      "velocity": 0.51,
      "track": "Piano",
      "channel": 2,
      "lane": "K"
    },
    {
      "time": 1.039,
      "duration": 0.519,
      "midi": 62,
      "noteNumber": 62,
      "velocity": 0.51,
      "track": "Piano",
      "channel": 2,
      "lane": "J"
    },
    {
      "time": 1.039,
      "duration": 0.519,
      "midi": 65,
      "noteNumber": 65,
      "velocity": 0.51,
      "track": "Piano",
      "channel": 2,
      "lane": "J"
    },
    {
      "time": 1.039,
      "duration": 0.054,
      "midi": 51,
      "noteNumber": 51,
      "velocity": 0.75,
      "track": "Drums",
      "channel": 9,
      "lane": "F"
    },
    {
      "time": 1.039,
      "duration": 0.022,
      "midi": 59,
      "noteNumber": 59,
      "velocity": 0.85,
      "track": "Hi Ride Cymbal",
      "channel": 9,
      "lane": "J"
    },
    {
      "time": 1.054,
      "duration": 0.472,
      "midi": 69,
      "noteNumber": 69,
      "velocity": 0.61,
      "track": "Vibraphone",
      "channel": 3,
      "lane": "K"
    },
    {
      "time": 1.054,
      "duration": 0.472,
      "midi": 69,
      "noteNumber": 69,
      "velocity": 0.61,
      "track": "Flute",
      "channel": 4,
      "lane": "K"
    },
    {
      "time": 1.054,
      "duration": 0.472,
      "midi": 69,
      "noteNumber": 69,
      "velocity": 0.61,
      "track": "Pad2",
      "channel": 5,
      "lane": "K"
    },
    {
      "time": 1.232,
      "duration": 0.069,
      "midi": 22,
      "noteNumber": 22,
      "velocity": 0.74,
      "track": "Bass",
      "channel": 1,
      "lane": "D"
    },
    {
      "time": 1.299,
      "duration": 0.054,
      "midi": 42,
      "noteNumber": 42,
      "velocity": 0.67,
      "track": "Drums",
      "channel": 9,
      "lane": "F"
    },
    {
      "time": 1.299,
      "duration": 0.054,
      "midi": 51,
      "noteNumber": 51,
      "velocity": 0.83,
      "track": "Drums",
      "channel": 9,
      "lane": "F"
    },
    {
      "time": 1.299,
      "duration": 0.022,
      "midi": 42,
      "noteNumber": 42,
      "velocity": 0.7,
      "track": "Closed Hi Hat",
      "channel": 9,
      "lane": "F"
    },
    {
      "time": 1.299,
      "duration": 0.022,
      "midi": 59,
      "noteNumber": 59,
      "velocity": 0.71,
      "track": "Hi Ride Cymbal",
      "channel": 9,
      "lane": "J"
    },
    {
      "time": 1.301,
      "duration": 0.182,
      "midi": 38,
      "noteNumber": 38,
      "velocity": 0.92,
      "track": "Bass",
      "channel": 1,
      "lane": "F"
    },
    {
      "time": 1.472,
      "duration": 0.022,
      "midi": 59,
      "noteNumber": 59,
      "velocity": 0.71,
      "track": "Hi Ride Cymbal",
      "channel": 9,
      "lane": "J"
    },
    {
      "time": 1.491,
      "duration": 0.054,
      "midi": 51,
      "noteNumber": 51,
      "velocity": 0.59,
      "track": "Drums",
      "channel": 9,
      "lane": "F"
    },
    {
      "time": 1.504,
      "duration": 0.299,
      "midi": 37,
      "noteNumber": 37,
      "velocity": 0.91,
      "track": "Bass",
      "channel": 1,
      "lane": "F"
    },
    {
      "time": 1.558,
      "duration": 0.519,
      "midi": 59,
      "noteNumber": 59,
      "velocity": 0.51,
      "track": "Piano",
      "channel": 2,
      "lane": "J"
    },
    {
      "time": 1.558,
      "duration": 0.519,
      "midi": 63,
      "noteNumber": 63,
      "velocity": 0.51,
      "track": "Piano",
      "channel": 2,
      "lane": "J"
    },
    {
      "time": 1.558,
      "duration": 0.519,
      "midi": 53,
      "noteNumber": 53,
      "velocity": 0.51,
      "track": "Piano",
      "channel": 2,
      "lane": "J"
    },
    {
      "time": 1.558,
      "duration": 0.519,
      "midi": 58,
      "noteNumber": 58,
      "velocity": 0.51,
      "track": "Piano",
      "channel": 2,
      "lane": "J"
    },
    {
      "time": 1.558,
      "duration": 0.054,
      "midi": 51,
      "noteNumber": 51,
      "velocity": 0.75,
      "track": "Drums",
      "channel": 9,
      "lane": "F"
    },
    {
      "time": 1.558,
      "duration": 0.022,
      "midi": 59,
      "noteNumber": 59,
      "velocity": 0.7,
      "track": "Hi Ride Cymbal",
      "channel": 9,
      "lane": "J"
    },
    {
      "time": 1.565,
      "duration": 0.463,
      "midi": 70,
      "noteNumber": 70,
      "velocity": 0.68,
      "track": "Vibraphone",
      "channel": 3,
      "lane": "K"
    },
    {
      "time": 1.565,
      "duration": 0.463,
      "midi": 70,
      "noteNumber": 70,
      "velocity": 0.68,
      "track": "Flute",
      "channel": 4,
      "lane": "K"
    },
    {
      "time": 1.565,
      "duration": 0.463,
      "midi": 70,
      "noteNumber": 70,
      "velocity": 0.68,
      "track": "Pad2",
      "channel": 5,
      "lane": "K"
    },
    {
      "time": 1.732,
      "duration": 0.022,
      "midi": 37,
      "noteNumber": 37,
      "velocity": 0.69,
      "track": "Side Stick",
      "channel": 9,
      "lane": "F"
    },
    {
      "time": 1.751,
      "duration": 0.043,
      "midi": 32,
      "noteNumber": 32,
      "velocity": 0.72,
      "track": "Bass",
      "channel": 1,
      "lane": "D"
    },
    {
      "time": 1.818,
      "duration": 0.193,
      "midi": 44,
      "noteNumber": 44,
      "velocity": 0.86,
      "track": "Bass",
      "channel": 1,
      "lane": "F"
    },
    {
      "time": 1.818,
      "duration": 0.054,
      "midi": 42,
      "noteNumber": 42,
      "velocity": 0.67,
      "track": "Drums",
      "channel": 9,
      "lane": "F"
    },
    {
      "time": 1.818,
      "duration": 0.054,
      "midi": 37,
      "noteNumber": 37,
      "velocity": 0.67,
      "track": "Drums",
      "channel": 9,
      "lane": "F"
    },
    {
      "time": 1.818,
      "duration": 0.054,
      "midi": 51,
      "noteNumber": 51,
      "velocity": 0.83,
      "track": "Drums",
      "channel": 9,
      "lane": "F"
    },
    {
      "time": 1.818,
      "duration": 0.022,
      "midi": 42,
      "noteNumber": 42,
      "velocity": 0.72,
      "track": "Closed Hi Hat",
      "channel": 9,
      "lane": "F"
    },
    {
      "time": 1.818,
      "duration": 0.022,
      "midi": 59,
      "noteNumber": 59,
      "velocity": 0.7,
      "track": "Hi Ride Cymbal",
      "channel": 9,
      "lane": "J"
    },
    {
      "time": 1.991,
      "duration": 0.022,
      "midi": 59,
      "noteNumber": 59,
      "velocity": 0.69,
      "track": "Hi Ride Cymbal",
      "channel": 9,
      "lane": "J"
    },
    {
      "time": 2.011,
      "duration": 0.054,
      "midi": 51,
      "noteNumber": 51,
      "velocity": 0.59,
      "track": "Drums",
      "channel": 9,
      "lane": "F"
    },
    {
      "time": 2.024,
      "duration": 0.297,
      "midi": 42,
      "noteNumber": 42,
      "velocity": 0.91,
      "track": "Bass",
      "channel": 1,
      "lane": "F"
    },
    {
      "time": 2.078,
      "duration": 0.519,
      "midi": 53,
      "noteNumber": 53,
      "velocity": 0.51,
      "track": "Piano",
      "channel": 2,
      "lane": "J"
    },
    {
      "time": 2.078,
      "duration": 0.519,
      "midi": 68,
      "noteNumber": 68,
      "velocity": 0.51,
      "track": "Piano",
      "channel": 2,
      "lane": "K"
    },
    {
      "time": 2.078,
      "duration": 0.519,
      "midi": 58,
      "noteNumber": 58,
      "velocity": 0.51,
      "track": "Piano",
      "channel": 2,
      "lane": "J"
    },
    {
      "time": 2.078,
      "duration": 0.519,
      "midi": 61,
      "noteNumber": 61,
      "velocity": 0.51,
      "track": "Piano",
      "channel": 2,
      "lane": "J"
    },
    {
      "time": 2.078,
      "duration": 0.054,
      "midi": 51,
      "noteNumber": 51,
      "velocity": 0.75,
      "track": "Drums",
      "channel": 9,
      "lane": "F"
    },
    {
      "time": 2.078,
      "duration": 0.022,
      "midi": 59,
      "noteNumber": 59,
      "velocity": 0.87,
      "track": "Hi Ride Cymbal",
      "channel": 9,
      "lane": "J"
    },
    {
      "time": 2.091,
      "duration": 0.5,
      "midi": 73,
      "noteNumber": 73,
      "velocity": 0.78,
      "track": "Vibraphone",
      "channel": 3,
      "lane": "K"
    },
    {
      "time": 2.091,
      "duration": 0.5,
      "midi": 73,
      "noteNumber": 73,
      "velocity": 0.78,
      "track": "Flute",
      "channel": 4,
      "lane": "K"
    },
    {
      "time": 2.091,
      "duration": 0.5,
      "midi": 73,
      "noteNumber": 73,
      "velocity": 0.78,
      "track": "Pad2",
      "channel": 5,
      "lane": "K"
    },
    {
      "time": 2.338,
      "duration": 0.26,
      "midi": 32,
      "noteNumber": 32,
      "velocity": 0.87,
      "track": "Bass",
      "channel": 1,
      "lane": "D"
    },
    {
      "time": 2.338,
      "duration": 0.054,
      "midi": 42,
      "noteNumber": 42,
      "velocity": 0.67,
      "track": "Drums",
      "channel": 9,
      "lane": "F"
    },
    {
      "time": 2.338,
      "duration": 0.054,
      "midi": 51,
      "noteNumber": 51,
      "velocity": 0.83,
      "track": "Drums",
      "channel": 9,
      "lane": "F"
    },
    {
      "time": 2.338,
      "duration": 0.022,
      "midi": 42,
      "noteNumber": 42,
      "velocity": 0.7,
      "track": "Closed Hi Hat",
      "channel": 9,
      "lane": "F"
    },
    {
      "time": 2.338,
      "duration": 0.022,
      "midi": 59,
      "noteNumber": 59,
      "velocity": 0.69,
      "track": "Hi Ride Cymbal",
      "channel": 9,
      "lane": "J"
    },
    {
      "time": 2.511,
      "duration": 0.022,
      "midi": 59,
      "noteNumber": 59,
      "velocity": 0.71,
      "track": "Hi Ride Cymbal",
      "channel": 9,
      "lane": "J"
    },
    {
      "time": 2.528,
      "duration": 0.054,
      "midi": 51,
      "noteNumber": 51,
      "velocity": 0.59,
      "track": "Drums",
      "channel": 9,
      "lane": "F"
    },
    {
      "time": 2.597,
      "duration": 0.26,
      "midi": 33,
      "noteNumber": 33,
      "velocity": 0.97,
      "track": "Bass",
      "channel": 1,
      "lane": "D"
    },
    {
      "time": 2.597,
      "duration": 0.519,
      "midi": 55,
      "noteNumber": 55,
      "velocity": 0.51,
      "track": "Piano",
      "channel": 2,
      "lane": "J"
    },
    {
      "time": 2.597,
      "duration": 0.519,
      "midi": 69,
      "noteNumber": 69,
      "velocity": 0.51,
      "track": "Piano",
      "channel": 2,
      "lane": "K"
    },
    {
      "time": 2.597,
      "duration": 0.519,
      "midi": 61,
      "noteNumber": 61,
      "velocity": 0.51,
      "track": "Piano",
      "channel": 2,
      "lane": "J"
    },
    {
      "time": 2.597,
      "duration": 0.519,
      "midi": 64,
      "noteNumber": 64,
      "velocity": 0.51,
      "track": "Piano",
      "channel": 2,
      "lane": "J"
    },
    {
      "time": 2.597,
      "duration": 0.054,
      "midi": 51,
      "noteNumber": 51,
      "velocity": 0.75,
      "track": "Drums",
      "channel": 9,
      "lane": "F"
    },
    {
      "time": 2.597,
      "duration": 0.022,
      "midi": 59,
      "noteNumber": 59,
      "velocity": 0.7,
      "track": "Hi Ride Cymbal",
      "channel": 9,
      "lane": "J"
    },
    {
      "time": 2.623,
      "duration": 0.145,
      "midi": 72,
      "noteNumber": 72,
      "velocity": 0.63,
      "track": "Vibraphone",
      "channel": 3,
      "lane": "K"
    },
    {
      "time": 2.623,
      "duration": 0.145,
      "midi": 72,
      "noteNumber": 72,
      "velocity": 0.63,
      "track": "Flute",
      "channel": 4,
      "lane": "K"
    },
    {
      "time": 2.623,
      "duration": 0.145,
      "midi": 72,
      "noteNumber": 72,
      "velocity": 0.63,
      "track": "Pad2",
      "channel": 5,
      "lane": "K"
    },
    {
      "time": 2.857,
      "duration": 0.26,
      "midi": 33,
      "noteNumber": 33,
      "velocity": 1,
      "track": "Bass",
      "channel": 1,
      "lane": "D"
    },
    {
      "time": 2.857,
      "duration": 0.054,
      "midi": 42,
      "noteNumber": 42,
      "velocity": 0.67,
      "track": "Drums",
      "channel": 9,
      "lane": "F"
    },
    {
      "time": 2.857,
      "duration": 0.054,
      "midi": 37,
      "noteNumber": 37,
      "velocity": 0.59,
      "track": "Drums",
      "channel": 9,
      "lane": "F"
    },
    {
      "time": 2.857,
      "duration": 0.054,
      "midi": 51,
      "noteNumber": 51,
      "velocity": 0.83,
      "track": "Drums",
      "channel": 9,
      "lane": "F"
    },
    {
      "time": 2.857,
      "duration": 0.022,
      "midi": 42,
      "noteNumber": 42,
      "velocity": 0.7,
      "track": "Closed Hi Hat",
      "channel": 9,
      "lane": "F"
    },
    {
      "time": 2.857,
      "duration": 0.022,
      "midi": 59,
      "noteNumber": 59,
      "velocity": 0.71,
      "track": "Hi Ride Cymbal",
      "channel": 9,
      "lane": "J"
    },
    {
      "time": 2.877,
      "duration": 0.147,
      "midi": 70,
      "noteNumber": 70,
      "velocity": 0.63,
      "track": "Vibraphone",
      "channel": 3,
      "lane": "K"
    },
    {
      "time": 2.877,
      "duration": 0.147,
      "midi": 70,
      "noteNumber": 70,
      "velocity": 0.63,
      "track": "Flute",
      "channel": 4,
      "lane": "K"
    },
    {
      "time": 2.877,
      "duration": 0.147,
      "midi": 70,
      "noteNumber": 70,
      "velocity": 0.63,
      "track": "Pad2",
      "channel": 5,
      "lane": "K"
    },
    {
      "time": 3.03,
      "duration": 0.022,
      "midi": 59,
      "noteNumber": 59,
      "velocity": 0.71,
      "track": "Hi Ride Cymbal",
      "channel": 9,
      "lane": "J"
    },
    {
      "time": 3.048,
      "duration": 0.054,
      "midi": 51,
      "noteNumber": 51,
      "velocity": 0.59,
      "track": "Drums",
      "channel": 9,
      "lane": "F"
    },
    {
      "time": 3.063,
      "duration": 0.972,
      "midi": 69,
      "noteNumber": 69,
      "velocity": 0.67,
      "track": "Vibraphone",
      "channel": 3,
      "lane": "K"
    },
    {
      "time": 3.063,
      "duration": 0.972,
      "midi": 69,
      "noteNumber": 69,
      "velocity": 0.67,
      "track": "Flute",
      "channel": 4,
      "lane": "K"
    },
    {
      "time": 3.063,
      "duration": 0.972,
      "midi": 69,
      "noteNumber": 69,
      "velocity": 0.67,
      "track": "Pad2",
      "channel": 5,
      "lane": "K"
    },
    {
      "time": 3.117,
      "duration": 0.26,
      "midi": 38,
      "noteNumber": 38,
      "velocity": 0.91,
      "track": "Bass",
      "channel": 1,
      "lane": "F"
    },
    {
      "time": 3.117,
      "duration": 1.039,
      "midi": 61,
      "noteNumber": 61,
      "velocity": 0.51,
      "track": "Piano",
      "channel": 2,
      "lane": "J"
    },
    {
      "time": 3.117,
      "duration": 1.039,
      "midi": 64,
      "noteNumber": 64,
      "velocity": 0.51,
      "track": "Piano",
      "channel": 2,
      "lane": "J"
    },
    {
      "time": 3.117,
      "duration": 1.039,
      "midi": 54,
      "noteNumber": 54,
      "velocity": 0.51,
      "track": "Piano",
      "channel": 2,
      "lane": "J"
    },
    {
      "time": 3.117,
      "duration": 1.039,
      "midi": 69,
      "noteNumber": 69,
      "velocity": 0.51,
      "track": "Piano",
      "channel": 2,
      "lane": "K"
    },
    {
      "time": 3.117,
      "duration": 0.054,
      "midi": 51,
      "noteNumber": 51,
      "velocity": 0.75,
      "track": "Drums",
      "channel": 9,
      "lane": "F"
    },
    {
      "time": 3.117,
      "duration": 0.022,
      "midi": 59,
      "noteNumber": 59,
      "velocity": 0.85,
      "track": "Hi Ride Cymbal",
      "channel": 9,
      "lane": "J"
    },
    {
      "time": 3.377,
      "duration": 0.262,
      "midi": 45,
      "noteNumber": 45,
      "velocity": 0.9,
      "track": "Bass",
      "channel": 1,
      "lane": "F"
    },
    {
      "time": 3.377,
      "duration": 0.054,
      "midi": 42,
      "noteNumber": 42,
      "velocity": 0.67,
      "track": "Drums",
      "channel": 9,
      "lane": "F"
    },
    {
      "time": 3.377,
      "duration": 0.054,
      "midi": 51,
      "noteNumber": 51,
      "velocity": 0.83,
      "track": "Drums",
      "channel": 9,
      "lane": "F"
    },
    {
      "time": 3.377,
      "duration": 0.022,
      "midi": 42,
      "noteNumber": 42,
      "velocity": 0.69,
      "track": "Closed Hi Hat",
      "channel": 9,
      "lane": "F"
    },
    {
      "time": 3.377,
      "duration": 0.022,
      "midi": 59,
      "noteNumber": 59,
      "velocity": 0.71,
      "track": "Hi Ride Cymbal",
      "channel": 9,
      "lane": "J"
    },
    {
      "time": 3.55,
      "duration": 0.022,
      "midi": 59,
      "noteNumber": 59,
      "velocity": 0.71,
      "track": "Hi Ride Cymbal",
      "channel": 9,
      "lane": "J"
    },
    {
      "time": 3.636,
      "duration": 0.054,
      "midi": 51,
      "noteNumber": 51,
      "velocity": 0.75,
      "track": "Drums",
      "channel": 9,
      "lane": "F"
    },
    {
      "time": 3.636,
      "duration": 0.022,
      "midi": 59,
      "noteNumber": 59,
      "velocity": 0.7,
      "track": "Hi Ride Cymbal",
      "channel": 9,
      "lane": "J"
    },
    {
      "time": 3.639,
      "duration": 0.262,
      "midi": 42,
      "noteNumber": 42,
      "velocity": 0.86,
      "track": "Bass",
      "channel": 1,
      "lane": "F"
    },
    {
      "time": 3.81,
      "duration": 0.022,
      "midi": 40,
      "noteNumber": 40,
      "velocity": 0.7,
      "track": "Tight Snare",
      "channel": 9,
      "lane": "F"
    },
    {
      "time": 3.896,
      "duration": 0.054,
      "midi": 42,
      "noteNumber": 42,
      "velocity": 0.67,
      "track": "Drums",
      "channel": 9,
      "lane": "F"
    },
    {
      "time": 3.896,
      "duration": 0.054,
      "midi": 37,
      "noteNumber": 37,
      "velocity": 0.67,
      "track": "Drums",
      "channel": 9,
      "lane": "F"
    },
    {
      "time": 3.896,
      "duration": 0.054,
      "midi": 51,
      "noteNumber": 51,
      "velocity": 0.83,
      "track": "Drums",
      "channel": 9,
      "lane": "F"
    },
    {
      "time": 3.896,
      "duration": 0.022,
      "midi": 42,
      "noteNumber": 42,
      "velocity": 0.69,
      "track": "Closed Hi Hat",
      "channel": 9,
      "lane": "F"
    },
    {
      "time": 3.896,
      "duration": 0.022,
      "midi": 59,
      "noteNumber": 59,
      "velocity": 0.7,
      "track": "Hi Ride Cymbal",
      "channel": 9,
      "lane": "J"
    },
    {
      "time": 3.9,
      "duration": 0.255,
      "midi": 38,
      "noteNumber": 38,
      "velocity": 1,
      "track": "Bass",
      "channel": 1,
      "lane": "F"
    },
    {
      "time": 4.069,
      "duration": 0.022,
      "midi": 59,
      "noteNumber": 59,
      "velocity": 0.69,
      "track": "Hi Ride Cymbal",
      "channel": 9,
      "lane": "J"
    },
    {
      "time": 4.156,
      "duration": 0.197,
      "midi": 38,
      "noteNumber": 38,
      "velocity": 1,
      "track": "Bass",
      "channel": 1,
      "lane": "F"
    },
    {
      "time": 4.156,
      "duration": 0.519,
      "midi": 60,
      "noteNumber": 60,
      "velocity": 0.51,
      "track": "Piano",
      "channel": 2,
      "lane": "J"
    },
    {
      "time": 4.156,
      "duration": 0.519,
      "midi": 62,
      "noteNumber": 62,
      "velocity": 0.51,
      "track": "Piano",
      "channel": 2,
      "lane": "J"
    },
    {
      "time": 4.156,
      "duration": 0.519,
      "midi": 53,
      "noteNumber": 53,
      "velocity": 0.51,
      "track": "Piano",
      "channel": 2,
      "lane": "J"
    },
    {
      "time": 4.156,
      "duration": 0.519,
      "midi": 57,
      "noteNumber": 57,
      "velocity": 0.51,
      "track": "Piano",
      "channel": 2,
      "lane": "J"
    },
    {
      "time": 4.156,
      "duration": 0.054,
      "midi": 51,
      "noteNumber": 51,
      "velocity": 0.75,
      "track": "Drums",
      "channel": 9,
      "lane": "F"
    },
    {
      "time": 4.156,
      "duration": 0.022,
      "midi": 59,
      "noteNumber": 59,
      "velocity": 0.87,
      "track": "Hi Ride Cymbal",
      "channel": 9,
      "lane": "J"
    },
    {
      "time": 4.18,
      "duration": 0.437,
      "midi": 67,
      "noteNumber": 67,
      "velocity": 0.62,
      "track": "Vibraphone",
      "channel": 3,
      "lane": "J"
    },
    {
      "time": 4.18,
      "duration": 0.437,
      "midi": 67,
      "noteNumber": 67,
      "velocity": 0.62,
      "track": "Flute",
      "channel": 4,
      "lane": "J"
    },
    {
      "time": 4.18,
      "duration": 0.437,
      "midi": 67,
      "noteNumber": 67,
      "velocity": 0.62,
      "track": "Pad2",
      "channel": 5,
      "lane": "J"
    },
    {
      "time": 4.348,
      "duration": 0.067,
      "midi": 26,
      "noteNumber": 26,
      "velocity": 0.95,
      "track": "Bass",
      "channel": 1,
      "lane": "D"
    },
    {
      "time": 4.416,
      "duration": 0.258,
      "midi": 38,
      "noteNumber": 38,
      "velocity": 1,
      "track": "Bass",
      "channel": 1,
      "lane": "F"
    },
    {
      "time": 4.416,
      "duration": 0.054,
      "midi": 42,
      "noteNumber": 42,
      "velocity": 0.67,
      "track": "Drums",
      "channel": 9,
      "lane": "F"
    },
    {
      "time": 4.416,
      "duration": 0.054,
      "midi": 51,
      "noteNumber": 51,
      "velocity": 0.83,
      "track": "Drums",
      "channel": 9,
      "lane": "F"
    },
    {
      "time": 4.416,
      "duration": 0.022,
      "midi": 42,
      "noteNumber": 42,
      "velocity": 0.7,
      "track": "Closed Hi Hat",
      "channel": 9,
      "lane": "F"
    },
    {
      "time": 4.416,
      "duration": 0.022,
      "midi": 59,
      "noteNumber": 59,
      "velocity": 0.72,
      "track": "Hi Ride Cymbal",
      "channel": 9,
      "lane": "J"
    },
    {
      "time": 4.589,
      "duration": 0.022,
      "midi": 59,
      "noteNumber": 59,
      "velocity": 0.69,
      "track": "Hi Ride Cymbal",
      "channel": 9,
      "lane": "J"
    },
    {
      "time": 4.606,
      "duration": 0.054,
      "midi": 51,
      "noteNumber": 51,
      "velocity": 0.59,
      "track": "Drums",
      "channel": 9,
      "lane": "F"
    },
    {
      "time": 4.675,
      "duration": 0.145,
      "midi": 39,
      "noteNumber": 39,
      "velocity": 0.88,
      "track": "Bass",
      "channel": 1,
      "lane": "F"
    },
    {
      "time": 4.675,
      "duration": 0.519,
      "midi": 61,
      "noteNumber": 61,
      "velocity": 0.51,
      "track": "Piano",
      "channel": 2,
      "lane": "J"
    },
    {
      "time": 4.675,
      "duration": 0.519,
      "midi": 65,
      "noteNumber": 65,
      "velocity": 0.51,
      "track": "Piano",
      "channel": 2,
      "lane": "J"
    },
    {
      "time": 4.675,
      "duration": 0.519,
      "midi": 55,
      "noteNumber": 55,
      "velocity": 0.51,
      "track": "Piano",
      "channel": 2,
      "lane": "J"
    },
    {
      "time": 4.675,
      "duration": 0.519,
      "midi": 72,
      "noteNumber": 72,
      "velocity": 0.51,
      "track": "Piano",
      "channel": 2,
      "lane": "K"
    },
    {
      "time": 4.675,
      "duration": 0.519,
      "midi": 57,
      "noteNumber": 57,
      "velocity": 0.51,
      "track": "Piano",
      "channel": 2,
      "lane": "J"
    },
    {
      "time": 4.675,
      "duration": 0.054,
      "midi": 51,
      "noteNumber": 51,
      "velocity": 0.75,
      "track": "Drums",
      "channel": 9,
      "lane": "F"
    },
    {
      "time": 4.675,
      "duration": 0.022,
      "midi": 59,
      "noteNumber": 59,
      "velocity": 0.71,
      "track": "Hi Ride Cymbal",
      "channel": 9,
      "lane": "J"
    },
    {
      "time": 4.69,
      "duration": 0.476,
      "midi": 67,
      "noteNumber": 67,
      "velocity": 0.67,
      "track": "Vibraphone",
      "channel": 3,
      "lane": "J"
    },
    {
      "time": 4.69,
      "duration": 0.476,
      "midi": 67,
      "noteNumber": 67,
      "velocity": 0.67,
      "track": "Flute",
      "channel": 4,
      "lane": "J"
    },
    {
      "time": 4.69,
      "duration": 0.476,
      "midi": 67,
      "noteNumber": 67,
      "velocity": 0.67,
      "track": "Pad2",
      "channel": 5,
      "lane": "J"
    },
    {
      "time": 4.868,
      "duration": 0.063,
      "midi": 39,
      "noteNumber": 39,
      "velocity": 0.98,
      "track": "Bass",
      "channel": 1,
      "lane": "F"
    },
    {
      "time": 4.935,
      "duration": 0.26,
      "midi": 43,
      "noteNumber": 43,
      "velocity": 0.83,
      "track": "Bass",
      "channel": 1,
      "lane": "F"
    },
    {
      "time": 4.935,
      "duration": 0.054,
      "midi": 42,
      "noteNumber": 42,
      "velocity": 0.67,
      "track": "Drums",
      "channel": 9,
      "lane": "F"
    },
    {
      "time": 4.935,
      "duration": 0.054,
      "midi": 37,
      "noteNumber": 37,
      "velocity": 0.59,
      "track": "Drums",
      "channel": 9,
      "lane": "F"
    },
    {
      "time": 4.935,
      "duration": 0.054,
      "midi": 51,
      "noteNumber": 51,
      "velocity": 0.83,
      "track": "Drums",
      "channel": 9,
      "lane": "F"
    },
    {
      "time": 4.935,
      "duration": 0.022,
      "midi": 42,
      "noteNumber": 42,
      "velocity": 0.7,
      "track": "Closed Hi Hat",
      "channel": 9,
      "lane": "F"
    },
    {
      "time": 4.935,
      "duration": 0.022,
      "midi": 59,
      "noteNumber": 59,
      "velocity": 0.69,
      "track": "Hi Ride Cymbal",
      "channel": 9,
      "lane": "J"
    },
    {
      "time": 5.108,
      "duration": 0.022,
      "midi": 59,
      "noteNumber": 59,
      "velocity": 0.69,
      "track": "Hi Ride Cymbal",
      "channel": 9,
      "lane": "J"
    },
    {
      "time": 5.126,
      "duration": 0.054,
      "midi": 51,
      "noteNumber": 51,
      "velocity": 0.59,
      "track": "Drums",
      "channel": 9,
      "lane": "F"
    },
    {
      "time": 5.195,
      "duration": 0.247,
      "midi": 44,
      "noteNumber": 44,
      "velocity": 0.91,
      "track": "Bass",
      "channel": 1,
      "lane": "F"
    },
    {
      "time": 5.195,
      "duration": 0.519,
      "midi": 55,
      "noteNumber": 55,
      "velocity": 0.51,
      "track": "Piano",
      "channel": 2,
      "lane": "J"
    },
    {
      "time": 5.195,
      "duration": 0.519,
      "midi": 70,
      "noteNumber": 70,
      "velocity": 0.51,
      "track": "Piano",
      "channel": 2,
      "lane": "K"
    },
    {
      "time": 5.195,
      "duration": 0.519,
      "midi": 60,
      "noteNumber": 60,
      "velocity": 0.51,
      "track": "Piano",
      "channel": 2,
      "lane": "J"
    },
    {
      "time": 5.195,
      "duration": 0.519,
      "midi": 63,
      "noteNumber": 63,
      "velocity": 0.51,
      "track": "Piano",
      "channel": 2,
      "lane": "J"
    },
    {
      "time": 5.195,
      "duration": 0.054,
      "midi": 51,
      "noteNumber": 51,
      "velocity": 0.75,
      "track": "Drums",
      "channel": 9,
      "lane": "F"
    },
    {
      "time": 5.195,
      "duration": 0.022,
      "midi": 59,
      "noteNumber": 59,
      "velocity": 0.87,
      "track": "Hi Ride Cymbal",
      "channel": 9,
      "lane": "J"
    },
    {
      "time": 5.227,
      "duration": 0.478,
      "midi": 67,
      "noteNumber": 67,
      "velocity": 0.54,
      "track": "Vibraphone",
      "channel": 3,
      "lane": "J"
    },
    {
      "time": 5.227,
      "duration": 0.478,
      "midi": 67,
      "noteNumber": 67,
      "velocity": 0.54,
      "track": "Flute",
      "channel": 4,
      "lane": "J"
    },
    {
      "time": 5.227,
      "duration": 0.478,
      "midi": 67,
      "noteNumber": 67,
      "velocity": 0.54,
      "track": "Pad2",
      "channel": 5,
      "lane": "J"
    },
    {
      "time": 5.455,
      "duration": 0.26,
      "midi": 34,
      "noteNumber": 34,
      "velocity": 0.87,
      "track": "Bass",
      "channel": 1,
      "lane": "D"
    },
    {
      "time": 5.455,
      "duration": 0.054,
      "midi": 42,
      "noteNumber": 42,
      "velocity": 0.67,
      "track": "Drums",
      "channel": 9,
      "lane": "F"
    },
    {
      "time": 5.455,
      "duration": 0.054,
      "midi": 51,
      "noteNumber": 51,
      "velocity": 0.83,
      "track": "Drums",
      "channel": 9,
      "lane": "F"
    },
    {
      "time": 5.455,
      "duration": 0.022,
      "midi": 42,
      "noteNumber": 42,
      "velocity": 0.72,
      "track": "Closed Hi Hat",
      "channel": 9,
      "lane": "F"
    },
    {
      "time": 5.455,
      "duration": 0.022,
      "midi": 59,
      "noteNumber": 59,
      "velocity": 0.69,
      "track": "Hi Ride Cymbal",
      "channel": 9,
      "lane": "J"
    },
    {
      "time": 5.647,
      "duration": 0.054,
      "midi": 51,
      "noteNumber": 51,
      "velocity": 0.59,
      "track": "Drums",
      "channel": 9,
      "lane": "F"
    },
    {
      "time": 5.714,
      "duration": 0.249,
      "midi": 35,
      "noteNumber": 35,
      "velocity": 0.91,
      "track": "Bass",
      "channel": 1,
      "lane": "D"
    },
    {
      "time": 5.714,
      "duration": 0.519,
      "midi": 57,
      "noteNumber": 57,
      "velocity": 0.51,
      "track": "Piano",
      "channel": 2,
      "lane": "J"
    },
    {
      "time": 5.714,
      "duration": 0.519,
      "midi": 61,
      "noteNumber": 61,
      "velocity": 0.51,
      "track": "Piano",
      "channel": 2,
      "lane": "J"
    },
    {
      "time": 5.714,
      "duration": 0.519,
      "midi": 63,
      "noteNumber": 63,
      "velocity": 0.51,
      "track": "Piano",
      "channel": 2,
      "lane": "J"
    },
    {
      "time": 5.714,
      "duration": 0.519,
      "midi": 68,
      "noteNumber": 68,
      "velocity": 0.51,
      "track": "Piano",
      "channel": 2,
      "lane": "K"
    },
    {
      "time": 5.714,
      "duration": 0.054,
      "midi": 51,
      "noteNumber": 51,
      "velocity": 0.75,
      "track": "Drums",
      "channel": 9,
      "lane": "F"
    },
    {
      "time": 5.714,
      "duration": 0.022,
      "midi": 59,
      "noteNumber": 59,
      "velocity": 0.69,
      "track": "Hi Ride Cymbal",
      "channel": 9,
      "lane": "J"
    },
    {
      "time": 5.738,
      "duration": 0.472,
      "midi": 68,
      "noteNumber": 68,
      "velocity": 0.65,
      "track": "Vibraphone",
      "channel": 3,
      "lane": "K"
    },
    {
      "time": 5.738,
      "duration": 0.472,
      "midi": 68,
      "noteNumber": 68,
      "velocity": 0.65,
      "track": "Flute",
      "channel": 4,
      "lane": "K"
    },
    {
      "time": 5.738,
      "duration": 0.472,
      "midi": 68,
      "noteNumber": 68,
      "velocity": 0.65,
      "track": "Pad2",
      "channel": 5,
      "lane": "K"
    },
    {
      "time": 5.907,
      "duration": 0.043,
      "midi": 30,
      "noteNumber": 30,
      "velocity": 0.72,
      "track": "Bass",
      "channel": 1,
      "lane": "D"
    },
    {
      "time": 5.974,
      "duration": 0.193,
      "midi": 42,
      "noteNumber": 42,
      "velocity": 0.86,
      "track": "Bass",
      "channel": 1,
      "lane": "F"
    },
    {
      "time": 5.974,
      "duration": 0.054,
      "midi": 42,
      "noteNumber": 42,
      "velocity": 0.67,
      "track": "Drums",
      "channel": 9,
      "lane": "F"
    },
    {
      "time": 5.974,
      "duration": 0.054,
      "midi": 37,
      "noteNumber": 37,
      "velocity": 0.67,
      "track": "Drums",
      "channel": 9,
      "lane": "F"
    },
    {
      "time": 5.974,
      "duration": 0.054,
      "midi": 51,
      "noteNumber": 51,
      "velocity": 0.83,
      "track": "Drums",
      "channel": 9,
      "lane": "F"
    },
    {
      "time": 5.974,
      "duration": 0.022,
      "midi": 42,
      "noteNumber": 42,
      "velocity": 0.69,
      "track": "Closed Hi Hat",
      "channel": 9,
      "lane": "F"
    },
    {
      "time": 5.974,
      "duration": 0.022,
      "midi": 59,
      "noteNumber": 59,
      "velocity": 0.87,
      "track": "Hi Ride Cymbal",
      "channel": 9,
      "lane": "J"
    },
    {
      "time": 6.147,
      "duration": 0.022,
      "midi": 59,
      "noteNumber": 59,
      "velocity": 0.69,
      "track": "Hi Ride Cymbal",
      "channel": 9,
      "lane": "J"
    },
    {
      "time": 6.167,
      "duration": 0.037,
      "midi": 30,
      "noteNumber": 30,
      "velocity": 0.74,
      "track": "Bass",
      "channel": 1,
      "lane": "D"
    },
    {
      "time": 6.167,
      "duration": 0.054,
      "midi": 51,
      "noteNumber": 51,
      "velocity": 0.59,
      "track": "Drums",
      "channel": 9,
      "lane": "F"
    },
    {
      "time": 6.234,
      "duration": 0.249,
      "midi": 40,
      "noteNumber": 40,
      "velocity": 0.91,
      "track": "Bass",
      "channel": 1,
      "lane": "F"
    },
    {
      "time": 6.234,
      "duration": 0.519,
      "midi": 63,
      "noteNumber": 63,
      "velocity": 0.51,
      "track": "Piano",
      "channel": 2,
      "lane": "J"
    },
    {
      "time": 6.234,
      "duration": 0.519,
      "midi": 66,
      "noteNumber": 66,
      "velocity": 0.51,
      "track": "Piano",
      "channel": 2,
      "lane": "J"
    },
    {
      "time": 6.234,
      "duration": 0.519,
      "midi": 56,
      "noteNumber": 56,
      "velocity": 0.51,
      "track": "Piano",
      "channel": 2,
      "lane": "J"
    },
    {
      "time": 6.234,
      "duration": 0.519,
      "midi": 71,
      "noteNumber": 71,
      "velocity": 0.51,
      "track": "Piano",
      "channel": 2,
      "lane": "K"
    },
    {
      "time": 6.234,
      "duration": 0.054,
      "midi": 51,
      "noteNumber": 51,
      "velocity": 0.75,
      "track": "Drums",
      "channel": 9,
      "lane": "F"
    },
    {
      "time": 6.234,
      "duration": 0.022,
      "midi": 59,
      "noteNumber": 59,
      "velocity": 0.87,
      "track": "Hi Ride Cymbal",
      "channel": 9,
      "lane": "J"
    },
    {
      "time": 6.253,
      "duration": 0.47,
      "midi": 71,
      "noteNumber": 71,
      "velocity": 0.65,
      "track": "Vibraphone",
      "channel": 3,
      "lane": "K"
    },
    {
      "time": 6.253,
      "duration": 0.47,
      "midi": 71,
      "noteNumber": 71,
      "velocity": 0.65,
      "track": "Flute",
      "channel": 4,
      "lane": "K"
    },
    {
      "time": 6.253,
      "duration": 0.47,
      "midi": 71,
      "noteNumber": 71,
      "velocity": 0.65,
      "track": "Pad2",
      "channel": 5,
      "lane": "K"
    },
    {
      "time": 6.426,
      "duration": 0.043,
      "midi": 35,
      "noteNumber": 35,
      "velocity": 0.72,
      "track": "Bass",
      "channel": 1,
      "lane": "D"
    },
    {
      "time": 6.494,
      "duration": 0.193,
      "midi": 47,
      "noteNumber": 47,
      "velocity": 0.86,
      "track": "Bass",
      "channel": 1,
      "lane": "F"
    },
    {
      "time": 6.494,
      "duration": 0.054,
      "midi": 42,
      "noteNumber": 42,
      "velocity": 0.67,
      "track": "Drums",
      "channel": 9,
      "lane": "F"
    },
    {
      "time": 6.494,
      "duration": 0.054,
      "midi": 51,
      "noteNumber": 51,
      "velocity": 0.83,
      "track": "Drums",
      "channel": 9,
      "lane": "F"
    },
    {
      "time": 6.494,
      "duration": 0.022,
      "midi": 42,
      "noteNumber": 42,
      "velocity": 0.7,
      "track": "Closed Hi Hat",
      "channel": 9,
      "lane": "F"
    },
    {
      "time": 6.494,
      "duration": 0.022,
      "midi": 59,
      "noteNumber": 59,
      "velocity": 0.69,
      "track": "Hi Ride Cymbal",
      "channel": 9,
      "lane": "J"
    },
    {
      "time": 6.667,
      "duration": 0.022,
      "midi": 59,
      "noteNumber": 59,
      "velocity": 0.72,
      "track": "Hi Ride Cymbal",
      "channel": 9,
      "lane": "J"
    },
    {
      "time": 6.684,
      "duration": 0.054,
      "midi": 51,
      "noteNumber": 51,
      "velocity": 0.59,
      "track": "Drums",
      "channel": 9,
      "lane": "F"
    },
    {
      "time": 6.686,
      "duration": 0.037,
      "midi": 35,
      "noteNumber": 35,
      "velocity": 0.74,
      "track": "Bass",
      "channel": 1,
      "lane": "D"
    },
    {
      "time": 6.753,
      "duration": 0.26,
      "midi": 43,
      "noteNumber": 43,
      "velocity": 0.97,
      "track": "Bass",
      "channel": 1,
      "lane": "F"
    },
    {
      "time": 6.753,
      "duration": 0.519,
      "midi": 65,
      "noteNumber": 65,
      "velocity": 0.51,
      "track": "Piano",
      "channel": 2,
      "lane": "J"
    },
    {
      "time": 6.753,
      "duration": 0.519,
      "midi": 68,
      "noteNumber": 68,
      "velocity": 0.51,
      "track": "Piano",
      "channel": 2,
      "lane": "K"
    },
    {
      "time": 6.753,
      "duration": 0.519,
      "midi": 59,
      "noteNumber": 59,
      "velocity": 0.51,
      "track": "Piano",
      "channel": 2,
      "lane": "J"
    },
    {
      "time": 6.753,
      "duration": 0.519,
      "midi": 74,
      "noteNumber": 74,
      "velocity": 0.51,
      "track": "Piano",
      "channel": 2,
      "lane": "K"
    },
    {
      "time": 6.753,
      "duration": 0.054,
      "midi": 51,
      "noteNumber": 51,
      "velocity": 0.75,
      "track": "Drums",
      "channel": 9,
      "lane": "F"
    },
    {
      "time": 6.753,
      "duration": 0.022,
      "midi": 59,
      "noteNumber": 59,
      "velocity": 0.72,
      "track": "Hi Ride Cymbal",
      "channel": 9,
      "lane": "J"
    },
    {
      "time": 6.786,
      "duration": 0.147,
      "midi": 70,
      "noteNumber": 70,
      "velocity": 0.66,
      "track": "Vibraphone",
      "channel": 3,
      "lane": "K"
    },
    {
      "time": 6.786,
      "duration": 0.147,
      "midi": 70,
      "noteNumber": 70,
      "velocity": 0.66,
      "track": "Flute",
      "channel": 4,
      "lane": "K"
    },
    {
      "time": 6.786,
      "duration": 0.147,
      "midi": 70,
      "noteNumber": 70,
      "velocity": 0.66,
      "track": "Pad2",
      "channel": 5,
      "lane": "K"
    },
    {
      "time": 7.013,
      "duration": 0.26,
      "midi": 43,
      "noteNumber": 43,
      "velocity": 1,
      "track": "Bass",
      "channel": 1,
      "lane": "F"
    },
    {
      "time": 7.013,
      "duration": 0.054,
      "midi": 42,
      "noteNumber": 42,
      "velocity": 0.67,
      "track": "Drums",
      "channel": 9,
      "lane": "F"
    },
    {
      "time": 7.013,
      "duration": 0.054,
      "midi": 37,
      "noteNumber": 37,
      "velocity": 0.59,
      "track": "Drums",
      "channel": 9,
      "lane": "F"
    },
    {
      "time": 7.013,
      "duration": 0.054,
      "midi": 51,
      "noteNumber": 51,
      "velocity": 0.83,
      "track": "Drums",
      "channel": 9,
      "lane": "F"
    },
    {
      "time": 7.013,
      "duration": 0.022,
      "midi": 42,
      "noteNumber": 42,
      "velocity": 0.7,
      "track": "Closed Hi Hat",
      "channel": 9,
      "lane": "F"
    },
    {
      "time": 7.013,
      "duration": 0.022,
      "midi": 59,
      "noteNumber": 59,
      "velocity": 0.69,
      "track": "Hi Ride Cymbal",
      "channel": 9,
      "lane": "J"
    },
    {
      "time": 7.039,
      "duration": 0.162,
      "midi": 68,
      "noteNumber": 68,
      "velocity": 0.69,
      "track": "Vibraphone",
      "channel": 3,
      "lane": "K"
    },
    {
      "time": 7.039,
      "duration": 0.162,
      "midi": 68,
      "noteNumber": 68,
      "velocity": 0.69,
      "track": "Flute",
      "channel": 4,
      "lane": "K"
    },
    {
      "time": 7.039,
      "duration": 0.162,
      "midi": 68,
      "noteNumber": 68,
      "velocity": 0.69,
      "track": "Pad2",
      "channel": 5,
      "lane": "K"
    },
    {
      "time": 7.186,
      "duration": 0.022,
      "midi": 59,
      "noteNumber": 59,
      "velocity": 0.69,
      "track": "Hi Ride Cymbal",
      "channel": 9,
      "lane": "J"
    },
    {
      "time": 7.203,
      "duration": 0.054,
      "midi": 51,
      "noteNumber": 51,
      "velocity": 0.59,
      "track": "Drums",
      "channel": 9,
      "lane": "F"
    },
    {
      "time": 7.229,
      "duration": 0.959,
      "midi": 67,
      "noteNumber": 67,
      "velocity": 0.65,
      "track": "Vibraphone",
      "channel": 3,
      "lane": "J"
    },
    {
      "time": 7.229,
      "duration": 0.959,
      "midi": 67,
      "noteNumber": 67,
      "velocity": 0.65,
      "track": "Flute",
      "channel": 4,
      "lane": "J"
    },
    {
      "time": 7.229,
      "duration": 0.959,
      "midi": 67,
      "noteNumber": 67,
      "velocity": 0.65,
      "track": "Pad2",
      "channel": 5,
      "lane": "J"
    },
    {
      "time": 7.273,
      "duration": 0.307,
      "midi": 36,
      "noteNumber": 36,
      "velocity": 0.92,
      "track": "Bass",
      "channel": 1,
      "lane": "D"
    },
    {
      "time": 7.273,
      "duration": 1.039,
      "midi": 59,
      "noteNumber": 59,
      "velocity": 0.51,
      "track": "Piano",
      "channel": 2,
      "lane": "J"
    },
    {
      "time": 7.273,
      "duration": 1.039,
      "midi": 74,
      "noteNumber": 74,
      "velocity": 0.51,
      "track": "Piano",
      "channel": 2,
      "lane": "K"
    },
    {
      "time": 7.273,
      "duration": 1.039,
      "midi": 64,
      "noteNumber": 64,
      "velocity": 0.51,
      "track": "Piano",
      "channel": 2,
      "lane": "J"
    },
    {
      "time": 7.273,
      "duration": 1.039,
      "midi": 67,
      "noteNumber": 67,
      "velocity": 0.51,
      "track": "Piano",
      "channel": 2,
      "lane": "J"
    },
    {
      "time": 7.273,
      "duration": 0.054,
      "midi": 51,
      "noteNumber": 51,
      "velocity": 0.75,
      "track": "Drums",
      "channel": 9,
      "lane": "F"
    },
    {
      "time": 7.273,
      "duration": 0.022,
      "midi": 59,
      "noteNumber": 59,
      "velocity": 0.85,
      "track": "Hi Ride Cymbal",
      "channel": 9,
      "lane": "J"
    },
    {
      "time": 7.446,
      "duration": 0.022,
      "midi": 35,
      "noteNumber": 35,
      "velocity": 0.71,
      "track": "Loose Kick",
      "channel": 9,
      "lane": "D"
    },
    {
      "time": 7.532,
      "duration": 0.279,
      "midi": 43,
      "noteNumber": 43,
      "velocity": 0.91,
      "track": "Bass",
      "channel": 1,
      "lane": "F"
    },
    {
      "time": 7.532,
      "duration": 0.054,
      "midi": 42,
      "noteNumber": 42,
      "velocity": 0.67,
      "track": "Drums",
      "channel": 9,
      "lane": "F"
    },
    {
      "time": 7.532,
      "duration": 0.054,
      "midi": 51,
      "noteNumber": 51,
      "velocity": 0.83,
      "track": "Drums",
      "channel": 9,
      "lane": "F"
    },
    {
      "time": 7.532,
      "duration": 0.022,
      "midi": 42,
      "noteNumber": 42,
      "velocity": 0.69,
      "track": "Closed Hi Hat",
      "channel": 9,
      "lane": "F"
    },
    {
      "time": 7.532,
      "duration": 0.022,
      "midi": 59,
      "noteNumber": 59,
      "velocity": 0.72,
      "track": "Hi Ride Cymbal",
      "channel": 9,
      "lane": "J"
    },
    {
      "time": 7.706,
      "duration": 0.022,
      "midi": 59,
      "noteNumber": 59,
      "velocity": 0.69,
      "track": "Hi Ride Cymbal",
      "channel": 9,
      "lane": "J"
    },
    {
      "time": 7.725,
      "duration": 0.054,
      "midi": 51,
      "noteNumber": 51,
      "velocity": 0.59,
      "track": "Drums",
      "channel": 9,
      "lane": "F"
    },
    {
      "time": 7.792,
      "duration": 0.271,
      "midi": 48,
      "noteNumber": 48,
      "velocity": 0.95,
      "track": "Bass",
      "channel": 1,
      "lane": "F"
    },
    {
      "time": 7.792,
      "duration": 0.054,
      "midi": 51,
      "noteNumber": 51,
      "velocity": 0.75,
      "track": "Drums",
      "channel": 9,
      "lane": "F"
    },
    {
      "time": 7.792,
      "duration": 0.022,
      "midi": 59,
      "noteNumber": 59,
      "velocity": 0.69,
      "track": "Hi Ride Cymbal",
      "channel": 9,
      "lane": "J"
    },
    {
      "time": 8.052,
      "duration": 0.199,
      "midi": 43,
      "noteNumber": 43,
      "velocity": 1,
      "track": "Bass",
      "channel": 1,
      "lane": "F"
    },
    {
      "time": 8.052,
      "duration": 0.022,
      "midi": 37,
      "noteNumber": 37,
      "velocity": 0.69,
      "track": "Side Stick",
      "channel": 9,
      "lane": "F"
    },
    {
      "time": 8.052,
      "duration": 0.054,
      "midi": 42,
      "noteNumber": 42,
      "velocity": 0.67,
      "track": "Drums",
      "channel": 9,
      "lane": "F"
    },
    {
      "time": 8.052,
      "duration": 0.054,
      "midi": 37,
      "noteNumber": 37,
      "velocity": 0.67,
      "track": "Drums",
      "channel": 9,
      "lane": "F"
    },
    {
      "time": 8.052,
      "duration": 0.054,
      "midi": 51,
      "noteNumber": 51,
      "velocity": 0.83,
      "track": "Drums",
      "channel": 9,
      "lane": "F"
    },
    {
      "time": 8.052,
      "duration": 0.022,
      "midi": 42,
      "noteNumber": 42,
      "velocity": 0.71,
      "track": "Closed Hi Hat",
      "channel": 9,
      "lane": "F"
    },
    {
      "time": 8.052,
      "duration": 0.022,
      "midi": 59,
      "noteNumber": 59,
      "velocity": 0.72,
      "track": "Hi Ride Cymbal",
      "channel": 9,
      "lane": "J"
    },
    {
      "time": 8.225,
      "duration": 0.022,
      "midi": 59,
      "noteNumber": 59,
      "velocity": 0.69,
      "track": "Hi Ride Cymbal",
      "channel": 9,
      "lane": "J"
    },
    {
      "time": 8.245,
      "duration": 0.054,
      "midi": 51,
      "noteNumber": 51,
      "velocity": 0.59,
      "track": "Drums",
      "channel": 9,
      "lane": "F"
    },
    {
      "time": 8.277,
      "duration": 0.035,
      "midi": 37,
      "noteNumber": 37,
      "velocity": 0.85,
      "track": "Bass",
      "channel": 1,
      "lane": "F"
    },
    {
      "time": 8.312,
      "duration": 0.249,
      "midi": 36,
      "noteNumber": 36,
      "velocity": 0.91,
      "track": "Bass",
      "channel": 1,
      "lane": "D"
    },
    {
      "time": 8.312,
      "duration": 0.519,
      "midi": 58,
      "noteNumber": 58,
      "velocity": 0.51,
      "track": "Piano",
      "channel": 2,
      "lane": "J"
    },
    {
      "time": 8.312,
      "duration": 0.519,
      "midi": 72,
      "noteNumber": 72,
      "velocity": 0.51,
      "track": "Piano",
      "channel": 2,
      "lane": "K"
    },
    {
      "time": 8.312,
      "duration": 0.519,
      "midi": 63,
      "noteNumber": 63,
      "velocity": 0.51,
      "track": "Piano",
      "channel": 2,
      "lane": "J"
    },
    {
      "time": 8.312,
      "duration": 0.519,
      "midi": 67,
      "noteNumber": 67,
      "velocity": 0.51,
      "track": "Piano",
      "channel": 2,
      "lane": "J"
    },
    {
      "time": 8.312,
      "duration": 0.054,
      "midi": 51,
      "noteNumber": 51,
      "velocity": 0.75,
      "track": "Drums",
      "channel": 9,
      "lane": "F"
    },
    {
      "time": 8.312,
      "duration": 0.022,
      "midi": 59,
      "noteNumber": 59,
      "velocity": 0.87,
      "track": "Hi Ride Cymbal",
      "channel": 9,
      "lane": "J"
    },
    {
      "time": 8.338,
      "duration": 0.229,
      "midi": 62,
      "noteNumber": 62,
      "velocity": 0.58,
      "track": "Vibraphone",
      "channel": 3,
      "lane": "J"
    },
    {
      "time": 8.338,
      "duration": 0.229,
      "midi": 62,
      "noteNumber": 62,
      "velocity": 0.58,
      "track": "Flute",
      "channel": 4,
      "lane": "J"
    },
    {
      "time": 8.338,
      "duration": 0.229,
      "midi": 62,
      "noteNumber": 62,
      "velocity": 0.58,
      "track": "Pad2",
      "channel": 5,
      "lane": "J"
    },
    {
      "time": 8.504,
      "duration": 0.043,
      "midi": 31,
      "noteNumber": 31,
      "velocity": 0.72,
      "track": "Bass",
      "channel": 1,
      "lane": "D"
    },
    {
      "time": 8.571,
      "duration": 0.193,
      "midi": 43,
      "noteNumber": 43,
      "velocity": 0.86,
      "track": "Bass",
      "channel": 1,
      "lane": "F"
    },
    {
      "time": 8.571,
      "duration": 0.054,
      "midi": 42,
      "noteNumber": 42,
      "velocity": 0.67,
      "track": "Drums",
      "channel": 9,
      "lane": "F"
    },
    {
      "time": 8.571,
      "duration": 0.054,
      "midi": 51,
      "noteNumber": 51,
      "velocity": 0.83,
      "track": "Drums",
      "channel": 9,
      "lane": "F"
    },
    {
      "time": 8.571,
      "duration": 0.022,
      "midi": 42,
      "noteNumber": 42,
      "velocity": 0.7,
      "track": "Closed Hi Hat",
      "channel": 9,
      "lane": "F"
    },
    {
      "time": 8.571,
      "duration": 0.022,
      "midi": 59,
      "noteNumber": 59,
      "velocity": 0.69,
      "track": "Hi Ride Cymbal",
      "channel": 9,
      "lane": "J"
    },
    {
      "time": 8.595,
      "duration": 0.141,
      "midi": 64,
      "noteNumber": 64,
      "velocity": 0.62,
      "track": "Vibraphone",
      "channel": 3,
      "lane": "J"
    },
    {
      "time": 8.595,
      "duration": 0.141,
      "midi": 64,
      "noteNumber": 64,
      "velocity": 0.62,
      "track": "Flute",
      "channel": 4,
      "lane": "J"
    },
    {
      "time": 8.595,
      "duration": 0.141,
      "midi": 64,
      "noteNumber": 64,
      "velocity": 0.62,
      "track": "Pad2",
      "channel": 5,
      "lane": "J"
    },
    {
      "time": 8.745,
      "duration": 0.022,
      "midi": 59,
      "noteNumber": 59,
      "velocity": 0.72,
      "track": "Hi Ride Cymbal",
      "channel": 9,
      "lane": "J"
    },
    {
      "time": 8.764,
      "duration": 0.037,
      "midi": 31,
      "noteNumber": 31,
      "velocity": 0.74,
      "track": "Bass",
      "channel": 1,
      "lane": "D"
    },
    {
      "time": 8.764,
      "duration": 0.054,
      "midi": 51,
      "noteNumber": 51,
      "velocity": 0.59,
      "track": "Drums",
      "channel": 9,
      "lane": "F"
    },
    {
      "time": 8.831,
      "duration": 0.247,
      "midi": 37,
      "noteNumber": 37,
      "velocity": 0.91,
      "track": "Bass",
      "channel": 1,
      "lane": "F"
    },
    {
      "time": 8.831,
      "duration": 0.519,
      "midi": 59,
      "noteNumber": 59,
      "velocity": 0.51,
      "track": "Piano",
      "channel": 2,
      "lane": "J"
    },
    {
      "time": 8.831,
      "duration": 0.519,
      "midi": 63,
      "noteNumber": 63,
      "velocity": 0.51,
      "track": "Piano",
      "channel": 2,
      "lane": "J"
    },
    {
      "time": 8.831,
      "duration": 0.519,
      "midi": 65,
      "noteNumber": 65,
      "velocity": 0.51,
      "track": "Piano",
      "channel": 2,
      "lane": "J"
    },
    {
      "time": 8.831,
      "duration": 0.519,
      "midi": 70,
      "noteNumber": 70,
      "velocity": 0.51,
      "track": "Piano",
      "channel": 2,
      "lane": "K"
    },
    {
      "time": 8.831,
      "duration": 0.054,
      "midi": 51,
      "noteNumber": 51,
      "velocity": 0.75,
      "track": "Drums",
      "channel": 9,
      "lane": "F"
    },
    {
      "time": 8.831,
      "duration": 0.022,
      "midi": 59,
      "noteNumber": 59,
      "velocity": 0.72,
      "track": "Hi Ride Cymbal",
      "channel": 9,
      "lane": "J"
    },
    {
      "time": 8.857,
      "duration": 0.249,
      "midi": 70,
      "noteNumber": 70,
      "velocity": 0.69,
      "track": "Vibraphone",
      "channel": 3,
      "lane": "K"
    },
    {
      "time": 8.857,
      "duration": 0.249,
      "midi": 70,
      "noteNumber": 70,
      "velocity": 0.69,
      "track": "Flute",
      "channel": 4,
      "lane": "K"
    },
    {
      "time": 8.857,
      "duration": 0.249,
      "midi": 70,
      "noteNumber": 70,
      "velocity": 0.69,
      "track": "Pad2",
      "channel": 5,
      "lane": "K"
    },
    {
      "time": 9.091,
      "duration": 0.26,
      "midi": 41,
      "noteNumber": 41,
      "velocity": 0.87,
      "track": "Bass",
      "channel": 1,
      "lane": "F"
    },
    {
      "time": 9.091,
      "duration": 0.054,
      "midi": 42,
      "noteNumber": 42,
      "velocity": 0.67,
      "track": "Drums",
      "channel": 9,
      "lane": "F"
    },
    {
      "time": 9.091,
      "duration": 0.054,
      "midi": 37,
      "noteNumber": 37,
      "velocity": 0.67,
      "track": "Drums",
      "channel": 9,
      "lane": "F"
    },
    {
      "time": 9.091,
      "duration": 0.054,
      "midi": 51,
      "noteNumber": 51,
      "velocity": 0.83,
      "track": "Drums",
      "channel": 9,
      "lane": "F"
    },
    {
      "time": 9.091,
      "duration": 0.022,
      "midi": 42,
      "noteNumber": 42,
      "velocity": 0.7,
      "track": "Closed Hi Hat",
      "channel": 9,
      "lane": "F"
    },
    {
      "time": 9.091,
      "duration": 0.022,
      "midi": 59,
      "noteNumber": 59,
      "velocity": 0.69,
      "track": "Hi Ride Cymbal",
      "channel": 9,
      "lane": "J"
    },
    {
      "time": 9.11,
      "duration": 0.24,
      "midi": 68,
      "noteNumber": 68,
      "velocity": 0.54,
      "track": "Vibraphone",
      "channel": 3,
      "lane": "K"
    },
    {
      "time": 9.11,
      "duration": 0.24,
      "midi": 68,
      "noteNumber": 68,
      "velocity": 0.54,
      "track": "Flute",
      "channel": 4,
      "lane": "K"
    },
    {
      "time": 9.11,
      "duration": 0.24,
      "midi": 68,
      "noteNumber": 68,
      "velocity": 0.54,
      "track": "Pad2",
      "channel": 5,
      "lane": "K"
    },
    {
      "time": 9.264,
      "duration": 0.022,
      "midi": 59,
      "noteNumber": 59,
      "velocity": 0.69,
      "track": "Hi Ride Cymbal",
      "channel": 9,
      "lane": "J"
    },
    {
      "time": 9.284,
      "duration": 0.054,
      "midi": 51,
      "noteNumber": 51,
      "velocity": 0.59,
      "track": "Drums",
      "channel": 9,
      "lane": "F"
    },
    {
      "time": 9.351,
      "duration": 0.247,
      "midi": 42,
      "noteNumber": 42,
      "velocity": 0.91,
      "track": "Bass",
      "channel": 1,
      "lane": "F"
    },
    {
      "time": 9.351,
      "duration": 0.519,
      "midi": 65,
      "noteNumber": 65,
      "velocity": 0.51,
      "track": "Piano",
      "channel": 2,
      "lane": "J"
    },
    {
      "time": 9.351,
      "duration": 0.519,
      "midi": 68,
      "noteNumber": 68,
      "velocity": 0.51,
      "track": "Piano",
      "channel": 2,
      "lane": "K"
    },
    {
      "time": 9.351,
      "duration": 0.519,
      "midi": 58,
      "noteNumber": 58,
      "velocity": 0.51,
      "track": "Piano",
      "channel": 2,
      "lane": "J"
    },
    {
      "time": 9.351,
      "duration": 0.519,
      "midi": 73,
      "noteNumber": 73,
      "velocity": 0.51,
      "track": "Piano",
      "channel": 2,
      "lane": "K"
    },
    {
      "time": 9.351,
      "duration": 0.054,
      "midi": 51,
      "noteNumber": 51,
      "velocity": 0.75,
      "track": "Drums",
      "channel": 9,
      "lane": "F"
    },
    {
      "time": 9.351,
      "duration": 0.022,
      "midi": 59,
      "noteNumber": 59,
      "velocity": 0.85,
      "track": "Hi Ride Cymbal",
      "channel": 9,
      "lane": "J"
    },
    {
      "time": 9.407,
      "duration": 0.483,
      "midi": 73,
      "noteNumber": 73,
      "velocity": 0.72,
      "track": "Vibraphone",
      "channel": 3,
      "lane": "K"
    },
    {
      "time": 9.407,
      "duration": 0.483,
      "midi": 73,
      "noteNumber": 73,
      "velocity": 0.72,
      "track": "Flute",
      "channel": 4,
      "lane": "K"
    },
    {
      "time": 9.407,
      "duration": 0.483,
      "midi": 73,
      "noteNumber": 73,
      "velocity": 0.72,
      "track": "Pad2",
      "channel": 5,
      "lane": "K"
    },
    {
      "time": 9.524,
      "duration": 0.022,
      "midi": 35,
      "noteNumber": 35,
      "velocity": 0.71,
      "track": "Loose Kick",
      "channel": 9,
      "lane": "D"
    },
    {
      "time": 9.61,
      "duration": 0.26,
      "midi": 32,
      "noteNumber": 32,
      "velocity": 0.87,
      "track": "Bass",
      "channel": 1,
      "lane": "D"
    },
    {
      "time": 9.61,
      "duration": 0.054,
      "midi": 42,
      "noteNumber": 42,
      "velocity": 0.67,
      "track": "Drums",
      "channel": 9,
      "lane": "F"
    },
    {
      "time": 9.61,
      "duration": 0.054,
      "midi": 51,
      "noteNumber": 51,
      "velocity": 0.83,
      "track": "Drums",
      "channel": 9,
      "lane": "F"
    },
    {
      "time": 9.61,
      "duration": 0.022,
      "midi": 42,
      "noteNumber": 42,
      "velocity": 0.69,
      "track": "Closed Hi Hat",
      "channel": 9,
      "lane": "F"
    },
    {
      "time": 9.61,
      "duration": 0.022,
      "midi": 59,
      "noteNumber": 59,
      "velocity": 0.72,
      "track": "Hi Ride Cymbal",
      "channel": 9,
      "lane": "J"
    },
    {
      "time": 9.784,
      "duration": 0.022,
      "midi": 59,
      "noteNumber": 59,
      "velocity": 0.69,
      "track": "Hi Ride Cymbal",
      "channel": 9,
      "lane": "J"
    },
    {
      "time": 9.87,
      "duration": 0.292,
      "midi": 45,
      "noteNumber": 45,
      "velocity": 0.85,
      "track": "Bass",
      "channel": 1,
      "lane": "F"
    },
    {
      "time": 9.87,
      "duration": 0.519,
      "midi": 67,
      "noteNumber": 67,
      "velocity": 0.51,
      "track": "Piano",
      "channel": 2,
      "lane": "J"
    },
    {
      "time": 9.87,
      "duration": 0.519,
      "midi": 70,
      "noteNumber": 70,
      "velocity": 0.51,
      "track": "Piano",
      "channel": 2,
      "lane": "K"
    },
    {
      "time": 9.87,
      "duration": 0.519,
      "midi": 61,
      "noteNumber": 61,
      "velocity": 0.51,
      "track": "Piano",
      "channel": 2,
      "lane": "J"
    },
    {
      "time": 9.87,
      "duration": 0.519,
      "midi": 77,
      "noteNumber": 77,
      "velocity": 0.51,
      "track": "Piano",
      "channel": 2,
      "lane": "K"
    },
    {
      "time": 9.87,
      "duration": 0.054,
      "midi": 51,
      "noteNumber": 51,
      "velocity": 0.75,
      "track": "Drums",
      "channel": 9,
      "lane": "F"
    },
    {
      "time": 9.87,
      "duration": 0.022,
      "midi": 59,
      "noteNumber": 59,
      "velocity": 0.69,
      "track": "Hi Ride Cymbal",
      "channel": 9,
      "lane": "J"
    },
    {
      "time": 9.898,
      "duration": 0.249,
      "midi": 72,
      "noteNumber": 72,
      "velocity": 0.57,
      "track": "Vibraphone",
      "channel": 3,
      "lane": "K"
    },
    {
      "time": 9.898,
      "duration": 0.249,
      "midi": 72,
      "noteNumber": 72,
      "velocity": 0.57,
      "track": "Flute",
      "channel": 4,
      "lane": "K"
    },
    {
      "time": 9.898,
      "duration": 0.249,
      "midi": 72,
      "noteNumber": 72,
      "velocity": 0.57,
      "track": "Pad2",
      "channel": 5,
      "lane": "K"
    },
    {
      "time": 10.043,
      "duration": 0.022,
      "midi": 37,
      "noteNumber": 37,
      "velocity": 0.69,
      "track": "Side Stick",
      "channel": 9,
      "lane": "F"
    },
    {
      "time": 10.13,
      "duration": 0.184,
      "midi": 40,
      "noteNumber": 40,
      "velocity": 0.84,
      "track": "Bass",
      "channel": 1,
      "lane": "F"
    },
    {
      "time": 10.13,
      "duration": 0.054,
      "midi": 42,
      "noteNumber": 42,
      "velocity": 0.67,
      "track": "Drums",
      "channel": 9,
      "lane": "F"
    },
    {
      "time": 10.13,
      "duration": 0.054,
      "midi": 37,
      "noteNumber": 37,
      "velocity": 0.67,
      "track": "Drums",
      "channel": 9,
      "lane": "F"
    },
    {
      "time": 10.13,
      "duration": 0.054,
      "midi": 51,
      "noteNumber": 51,
      "velocity": 0.83,
      "track": "Drums",
      "channel": 9,
      "lane": "F"
    },
    {
      "time": 10.13,
      "duration": 0.022,
      "midi": 42,
      "noteNumber": 42,
      "velocity": 0.71,
      "track": "Closed Hi Hat",
      "channel": 9,
      "lane": "F"
    },
    {
      "time": 10.13,
      "duration": 0.022,
      "midi": 59,
      "noteNumber": 59,
      "velocity": 0.72,
      "track": "Hi Ride Cymbal",
      "channel": 9,
      "lane": "J"
    },
    {
      "time": 10.152,
      "duration": 0.236,
      "midi": 70,
      "noteNumber": 70,
      "velocity": 0.61,
      "track": "Vibraphone",
      "channel": 3,
      "lane": "K"
    },
    {
      "time": 10.152,
      "duration": 0.236,
      "midi": 70,
      "noteNumber": 70,
      "velocity": 0.61,
      "track": "Flute",
      "channel": 4,
      "lane": "K"
    },
    {
      "time": 10.152,
      "duration": 0.236,
      "midi": 70,
      "noteNumber": 70,
      "velocity": 0.61,
      "track": "Pad2",
      "channel": 5,
      "lane": "K"
    },
    {
      "time": 10.303,
      "duration": 0.022,
      "midi": 59,
      "noteNumber": 59,
      "velocity": 0.69,
      "track": "Hi Ride Cymbal",
      "channel": 9,
      "lane": "J"
    },
    {
      "time": 10.335,
      "duration": 0.299,
      "midi": 38,
      "noteNumber": 38,
      "velocity": 0.91,
      "track": "Bass",
      "channel": 1,
      "lane": "F"
    },
    {
      "time": 10.39,
      "duration": 0.519,
      "midi": 61,
      "noteNumber": 61,
      "velocity": 0.51,
      "track": "Piano",
      "channel": 2,
      "lane": "J"
    },
    {
      "time": 10.39,
      "duration": 0.519,
      "midi": 64,
      "noteNumber": 64,
      "velocity": 0.51,
      "track": "Piano",
      "channel": 2,
      "lane": "J"
    },
    {
      "time": 10.39,
      "duration": 0.519,
      "midi": 66,
      "noteNumber": 66,
      "velocity": 0.51,
      "track": "Piano",
      "channel": 2,
      "lane": "J"
    },
    {
      "time": 10.39,
      "duration": 0.519,
      "midi": 69,
      "noteNumber": 69,
      "velocity": 0.51,
      "track": "Piano",
      "channel": 2,
      "lane": "K"
    },
    {
      "time": 10.39,
      "duration": 0.054,
      "midi": 51,
      "noteNumber": 51,
      "velocity": 0.75,
      "track": "Drums",
      "channel": 9,
      "lane": "F"
    },
    {
      "time": 10.39,
      "duration": 0.022,
      "midi": 59,
      "noteNumber": 59,
      "velocity": 0.87,
      "track": "Hi Ride Cymbal",
      "channel": 9,
      "lane": "J"
    },
    {
      "time": 10.413,
      "duration": 0.498,
      "midi": 69,
      "noteNumber": 69,
      "velocity": 0.57,
      "track": "Vibraphone",
      "channel": 3,
      "lane": "K"
    },
    {
      "time": 10.413,
      "duration": 0.498,
      "midi": 69,
      "noteNumber": 69,
      "velocity": 0.57,
      "track": "Flute",
      "channel": 4,
      "lane": "K"
    },
    {
      "time": 10.413,
      "duration": 0.498,
      "midi": 69,
      "noteNumber": 69,
      "velocity": 0.57,
      "track": "Pad2",
      "channel": 5,
      "lane": "K"
    },
    {
      "time": 10.582,
      "duration": 0.043,
      "midi": 33,
      "noteNumber": 33,
      "velocity": 0.72,
      "track": "Bass",
      "channel": 1,
      "lane": "D"
    },
    {
      "time": 10.649,
      "duration": 0.193,
      "midi": 45,
      "noteNumber": 45,
      "velocity": 0.86,
      "track": "Bass",
      "channel": 1,
      "lane": "F"
    },
    {
      "time": 10.649,
      "duration": 0.054,
      "midi": 42,
      "noteNumber": 42,
      "velocity": 0.67,
      "track": "Drums",
      "channel": 9,
      "lane": "F"
    },
    {
      "time": 10.649,
      "duration": 0.054,
      "midi": 51,
      "noteNumber": 51,
      "velocity": 0.83,
      "track": "Drums",
      "channel": 9,
      "lane": "F"
    },
    {
      "time": 10.649,
      "duration": 0.022,
      "midi": 42,
      "noteNumber": 42,
      "velocity": 0.69,
      "track": "Closed Hi Hat",
      "channel": 9,
      "lane": "F"
    },
    {
      "time": 10.649,
      "duration": 0.022,
      "midi": 59,
      "noteNumber": 59,
      "velocity": 0.69,
      "track": "Hi Ride Cymbal",
      "channel": 9,
      "lane": "J"
    },
    {
      "time": 10.823,
      "duration": 0.022,
      "midi": 59,
      "noteNumber": 59,
      "velocity": 0.72,
      "track": "Hi Ride Cymbal",
      "channel": 9,
      "lane": "J"
    },
    {
      "time": 10.842,
      "duration": 0.037,
      "midi": 33,
      "noteNumber": 33,
      "velocity": 0.74,
      "track": "Bass",
      "channel": 1,
      "lane": "D"
    },
    {
      "time": 10.842,
      "duration": 0.054,
      "midi": 51,
      "noteNumber": 51,
      "velocity": 0.59,
      "track": "Drums",
      "channel": 9,
      "lane": "F"
    },
    {
      "time": 10.909,
      "duration": 0.234,
      "midi": 41,
      "noteNumber": 41,
      "velocity": 0.92,
      "track": "Bass",
      "channel": 1,
      "lane": "F"
    },
    {
      "time": 10.909,
      "duration": 0.519,
      "midi": 63,
      "noteNumber": 63,
      "velocity": 0.51,
      "track": "Piano",
      "channel": 2,
      "lane": "J"
    },
    {
      "time": 10.909,
      "duration": 0.519,
      "midi": 67,
      "noteNumber": 67,
      "velocity": 0.51,
      "track": "Piano",
      "channel": 2,
      "lane": "J"
    },
    {
      "time": 10.909,
      "duration": 0.519,
      "midi": 57,
      "noteNumber": 57,
      "velocity": 0.51,
      "track": "Piano",
      "channel": 2,
      "lane": "J"
    },
    {
      "time": 10.909,
      "duration": 0.519,
      "midi": 72,
      "noteNumber": 72,
      "velocity": 0.51,
      "track": "Piano",
      "channel": 2,
      "lane": "K"
    },
    {
      "time": 10.909,
      "duration": 0.054,
      "midi": 51,
      "noteNumber": 51,
      "velocity": 0.75,
      "track": "Drums",
      "channel": 9,
      "lane": "F"
    },
    {
      "time": 10.909,
      "duration": 0.022,
      "midi": 59,
      "noteNumber": 59,
      "velocity": 0.72,
      "track": "Hi Ride Cymbal",
      "channel": 9,
      "lane": "J"
    },
    {
      "time": 10.937,
      "duration": 0.42,
      "midi": 72,
      "noteNumber": 72,
      "velocity": 0.62,
      "track": "Vibraphone",
      "channel": 3,
      "lane": "K"
    },
    {
      "time": 10.937,
      "duration": 0.42,
      "midi": 72,
      "noteNumber": 72,
      "velocity": 0.62,
      "track": "Flute",
      "channel": 4,
      "lane": "K"
    },
    {
      "time": 10.937,
      "duration": 0.42,
      "midi": 72,
      "noteNumber": 72,
      "velocity": 0.62,
      "track": "Pad2",
      "channel": 5,
      "lane": "K"
    },
    {
      "time": 11.102,
      "duration": 0.069,
      "midi": 29,
      "noteNumber": 29,
      "velocity": 0.74,
      "track": "Bass",
      "channel": 1,
      "lane": "D"
    },
    {
      "time": 11.169,
      "duration": 0.054,
      "midi": 42,
      "noteNumber": 42,
      "velocity": 0.67,
      "track": "Drums",
      "channel": 9,
      "lane": "F"
    },
    {
      "time": 11.169,
      "duration": 0.054,
      "midi": 37,
      "noteNumber": 37,
      "velocity": 0.67,
      "track": "Drums",
      "channel": 9,
      "lane": "F"
    },
    {
      "time": 11.169,
      "duration": 0.054,
      "midi": 51,
      "noteNumber": 51,
      "velocity": 0.83,
      "track": "Drums",
      "channel": 9,
      "lane": "F"
    },
    {
      "time": 11.169,
      "duration": 0.022,
      "midi": 42,
      "noteNumber": 42,
      "velocity": 0.7,
      "track": "Closed Hi Hat",
      "channel": 9,
      "lane": "F"
    },
    {
      "time": 11.169,
      "duration": 0.022,
      "midi": 59,
      "noteNumber": 59,
      "velocity": 0.69,
      "track": "Hi Ride Cymbal",
      "channel": 9,
      "lane": "J"
    },
    {
      "time": 11.171,
      "duration": 0.258,
      "midi": 35,
      "noteNumber": 35,
      "velocity": 0.92,
      "track": "Bass",
      "channel": 1,
      "lane": "D"
    },
    {
      "time": 11.342,
      "duration": 0.022,
      "midi": 59,
      "noteNumber": 59,
      "velocity": 0.69,
      "track": "Hi Ride Cymbal",
      "channel": 9,
      "lane": "J"
    },
    {
      "time": 11.361,
      "duration": 0.054,
      "midi": 51,
      "noteNumber": 51,
      "velocity": 0.59,
      "track": "Drums",
      "channel": 9,
      "lane": "F"
    },
    {
      "time": 11.374,
      "duration": 0.593,
      "midi": 65,
      "noteNumber": 65,
      "velocity": 0.68,
      "track": "Vibraphone",
      "channel": 3,
      "lane": "J"
    },
    {
      "time": 11.374,
      "duration": 0.593,
      "midi": 65,
      "noteNumber": 65,
      "velocity": 0.68,
      "track": "Flute",
      "channel": 4,
      "lane": "J"
    },
    {
      "time": 11.374,
      "duration": 0.593,
      "midi": 65,
      "noteNumber": 65,
      "velocity": 0.68,
      "track": "Pad2",
      "channel": 5,
      "lane": "J"
    },
    {
      "time": 11.429,
      "duration": 0.301,
      "midi": 46,
      "noteNumber": 46,
      "velocity": 0.93,
      "track": "Bass",
      "channel": 1,
      "lane": "F"
    },
    {
      "time": 11.429,
      "duration": 1.039,
      "midi": 57,
      "noteNumber": 57,
      "velocity": 0.51,
      "track": "Piano",
      "channel": 2,
      "lane": "J"
    },
    {
      "time": 11.429,
      "duration": 1.039,
      "midi": 72,
      "noteNumber": 72,
      "velocity": 0.51,
      "track": "Piano",
      "channel": 2,
      "lane": "K"
    },
    {
      "time": 11.429,
      "duration": 1.039,
      "midi": 62,
      "noteNumber": 62,
      "velocity": 0.51,
      "track": "Piano",
      "channel": 2,
      "lane": "J"
    },
    {
      "time": 11.429,
      "duration": 1.039,
      "midi": 65,
      "noteNumber": 65,
      "velocity": 0.51,
      "track": "Piano",
      "channel": 2,
      "lane": "J"
    },
    {
      "time": 11.429,
      "duration": 0.054,
      "midi": 51,
      "noteNumber": 51,
      "velocity": 0.75,
      "track": "Drums",
      "channel": 9,
      "lane": "F"
    },
    {
      "time": 11.429,
      "duration": 0.022,
      "midi": 59,
      "noteNumber": 59,
      "velocity": 0.85,
      "track": "Hi Ride Cymbal",
      "channel": 9,
      "lane": "J"
    },
    {
      "time": 11.688,
      "duration": 0.279,
      "midi": 34,
      "noteNumber": 34,
      "velocity": 0.88,
      "track": "Bass",
      "channel": 1,
      "lane": "D"
    },
    {
      "time": 11.688,
      "duration": 0.054,
      "midi": 42,
      "noteNumber": 42,
      "velocity": 0.67,
      "track": "Drums",
      "channel": 9,
      "lane": "F"
    },
    {
      "time": 11.688,
      "duration": 0.054,
      "midi": 51,
      "noteNumber": 51,
      "velocity": 0.91,
      "track": "Drums",
      "channel": 9,
      "lane": "F"
    },
    {
      "time": 11.688,
      "duration": 0.022,
      "midi": 42,
      "noteNumber": 42,
      "velocity": 0.69,
      "track": "Closed Hi Hat",
      "channel": 9,
      "lane": "F"
    },
    {
      "time": 11.688,
      "duration": 0.022,
      "midi": 59,
      "noteNumber": 59,
      "velocity": 0.72,
      "track": "Hi Ride Cymbal",
      "channel": 9,
      "lane": "J"
    },
    {
      "time": 11.861,
      "duration": 0.022,
      "midi": 59,
      "noteNumber": 59,
      "velocity": 0.69,
      "track": "Hi Ride Cymbal",
      "channel": 9,
      "lane": "J"
    },
    {
      "time": 11.948,
      "duration": 0.277,
      "midi": 38,
      "noteNumber": 38,
      "velocity": 0.91,
      "track": "Bass",
      "channel": 1,
      "lane": "F"
    },
    {
      "time": 11.948,
      "duration": 0.054,
      "midi": 51,
      "noteNumber": 51,
      "velocity": 0.75,
      "track": "Drums",
      "channel": 9,
      "lane": "F"
    },
    {
      "time": 11.948,
      "duration": 0.022,
      "midi": 59,
      "noteNumber": 59,
      "velocity": 0.69,
      "track": "Hi Ride Cymbal",
      "channel": 9,
      "lane": "J"
    },
    {
      "time": 11.978,
      "duration": 0.405,
      "midi": 67,
      "noteNumber": 67,
      "velocity": 0.61,
      "track": "Vibraphone",
      "channel": 3,
      "lane": "J"
    },
    {
      "time": 11.978,
      "duration": 0.405,
      "midi": 67,
      "noteNumber": 67,
      "velocity": 0.61,
      "track": "Flute",
      "channel": 4,
      "lane": "J"
    },
    {
      "time": 11.978,
      "duration": 0.405,
      "midi": 67,
      "noteNumber": 67,
      "velocity": 0.61,
      "track": "Pad2",
      "channel": 5,
      "lane": "J"
    },
    {
      "time": 12.208,
      "duration": 0.26,
      "midi": 41,
      "noteNumber": 41,
      "velocity": 0.9,
      "track": "Bass",
      "channel": 1,
      "lane": "F"
    },
    {
      "time": 12.208,
      "duration": 0.054,
      "midi": 42,
      "noteNumber": 42,
      "velocity": 0.67,
      "track": "Drums",
      "channel": 9,
      "lane": "F"
    },
    {
      "time": 12.208,
      "duration": 0.054,
      "midi": 37,
      "noteNumber": 37,
      "velocity": 0.67,
      "track": "Drums",
      "channel": 9,
      "lane": "F"
    },
    {
      "time": 12.208,
      "duration": 0.054,
      "midi": 51,
      "noteNumber": 51,
      "velocity": 0.91,
      "track": "Drums",
      "channel": 9,
      "lane": "F"
    },
    {
      "time": 12.208,
      "duration": 0.022,
      "midi": 42,
      "noteNumber": 42,
      "velocity": 0.69,
      "track": "Closed Hi Hat",
      "channel": 9,
      "lane": "F"
    },
    {
      "time": 12.208,
      "duration": 0.022,
      "midi": 59,
      "noteNumber": 59,
      "velocity": 0.72,
      "track": "Hi Ride Cymbal",
      "channel": 9,
      "lane": "J"
    },
    {
      "time": 12.381,
      "duration": 0.022,
      "midi": 59,
      "noteNumber": 59,
      "velocity": 0.69,
      "track": "Hi Ride Cymbal",
      "channel": 9,
      "lane": "J"
    },
    {
      "time": 12.422,
      "duration": 1.294,
      "midi": 69,
      "noteNumber": 69,
      "velocity": 0.71,
      "track": "Vibraphone",
      "channel": 3,
      "lane": "K"
    },
    {
      "time": 12.422,
      "duration": 1.294,
      "midi": 69,
      "noteNumber": 69,
      "velocity": 0.71,
      "track": "Flute",
      "channel": 4,
      "lane": "K"
    },
    {
      "time": 12.422,
      "duration": 1.294,
      "midi": 69,
      "noteNumber": 69,
      "velocity": 0.71,
      "track": "Pad2",
      "channel": 5,
      "lane": "K"
    },
    {
      "time": 12.468,
      "duration": 0.171,
      "midi": 40,
      "noteNumber": 40,
      "velocity": 1,
      "track": "Bass",
      "channel": 1,
      "lane": "F"
    },
    {
      "time": 12.468,
      "duration": 1.039,
      "midi": 62,
      "noteNumber": 62,
      "velocity": 0.51,
      "track": "Piano",
      "channel": 2,
      "lane": "J"
    },
    {
      "time": 12.468,
      "duration": 1.039,
      "midi": 64,
      "noteNumber": 64,
      "velocity": 0.51,
      "track": "Piano",
      "channel": 2,
      "lane": "J"
    },
    {
      "time": 12.468,
      "duration": 1.039,
      "midi": 55,
      "noteNumber": 55,
      "velocity": 0.51,
      "track": "Piano",
      "channel": 2,
      "lane": "J"
    },
    {
      "time": 12.468,
      "duration": 1.039,
      "midi": 71,
      "noteNumber": 71,
      "velocity": 0.51,
      "track": "Piano",
      "channel": 2,
      "lane": "K"
    },
    {
      "time": 12.468,
      "duration": 0.054,
      "midi": 51,
      "noteNumber": 51,
      "velocity": 0.75,
      "track": "Drums",
      "channel": 9,
      "lane": "F"
    },
    {
      "time": 12.468,
      "duration": 0.022,
      "midi": 59,
      "noteNumber": 59,
      "velocity": 0.87,
      "track": "Hi Ride Cymbal",
      "channel": 9,
      "lane": "J"
    },
    {
      "time": 12.66,
      "duration": 0.05,
      "midi": 28,
      "noteNumber": 28,
      "velocity": 1,
      "track": "Bass",
      "channel": 1,
      "lane": "D"
    },
    {
      "time": 12.727,
      "duration": 0.258,
      "midi": 42,
      "noteNumber": 42,
      "velocity": 1,
      "track": "Bass",
      "channel": 1,
      "lane": "F"
    },
    {
      "time": 12.727,
      "duration": 0.054,
      "midi": 42,
      "noteNumber": 42,
      "velocity": 0.67,
      "track": "Drums",
      "channel": 9,
      "lane": "F"
    },
    {
      "time": 12.727,
      "duration": 0.054,
      "midi": 51,
      "noteNumber": 51,
      "velocity": 0.83,
      "track": "Drums",
      "channel": 9,
      "lane": "F"
    },
    {
      "time": 12.727,
      "duration": 0.022,
      "midi": 42,
      "noteNumber": 42,
      "velocity": 0.71,
      "track": "Closed Hi Hat",
      "channel": 9,
      "lane": "F"
    },
    {
      "time": 12.727,
      "duration": 0.022,
      "midi": 59,
      "noteNumber": 59,
      "velocity": 0.71,
      "track": "Hi Ride Cymbal",
      "channel": 9,
      "lane": "J"
    },
    {
      "time": 12.9,
      "duration": 0.022,
      "midi": 59,
      "noteNumber": 59,
      "velocity": 0.72,
      "track": "Hi Ride Cymbal",
      "channel": 9,
      "lane": "J"
    },
    {
      "time": 12.918,
      "duration": 0.054,
      "midi": 51,
      "noteNumber": 51,
      "velocity": 0.59,
      "track": "Drums",
      "channel": 9,
      "lane": "F"
    },
    {
      "time": 12.987,
      "duration": 0.26,
      "midi": 43,
      "noteNumber": 43,
      "velocity": 0.88,
      "track": "Bass",
      "channel": 1,
      "lane": "F"
    },
    {
      "time": 12.987,
      "duration": 0.054,
      "midi": 51,
      "noteNumber": 51,
      "velocity": 0.75,
      "track": "Drums",
      "channel": 9,
      "lane": "F"
    },
    {
      "time": 12.987,
      "duration": 0.022,
      "midi": 59,
      "noteNumber": 59,
      "velocity": 0.7,
      "track": "Hi Ride Cymbal",
      "channel": 9,
      "lane": "J"
    },
    {
      "time": 13.247,
      "duration": 0.182,
      "midi": 47,
      "noteNumber": 47,
      "velocity": 0.98,
      "track": "Bass",
      "channel": 1,
      "lane": "F"
    },
    {
      "time": 13.247,
      "duration": 0.054,
      "midi": 42,
      "noteNumber": 42,
      "velocity": 0.67,
      "track": "Drums",
      "channel": 9,
      "lane": "F"
    },
    {
      "time": 13.247,
      "duration": 0.054,
      "midi": 37,
      "noteNumber": 37,
      "velocity": 0.59,
      "track": "Drums",
      "channel": 9,
      "lane": "F"
    },
    {
      "time": 13.247,
      "duration": 0.054,
      "midi": 51,
      "noteNumber": 51,
      "velocity": 0.83,
      "track": "Drums",
      "channel": 9,
      "lane": "F"
    },
    {
      "time": 13.247,
      "duration": 0.022,
      "midi": 42,
      "noteNumber": 42,
      "velocity": 0.71,
      "track": "Closed Hi Hat",
      "channel": 9,
      "lane": "F"
    },
    {
      "time": 13.247,
      "duration": 0.022,
      "midi": 59,
      "noteNumber": 59,
      "velocity": 0.72,
      "track": "Hi Ride Cymbal",
      "channel": 9,
      "lane": "J"
    },
    {
      "time": 13.42,
      "duration": 0.022,
      "midi": 59,
      "noteNumber": 59,
      "velocity": 0.72,
      "track": "Hi Ride Cymbal",
      "channel": 9,
      "lane": "J"
    },
    {
      "time": 13.437,
      "duration": 0.054,
      "midi": 51,
      "noteNumber": 51,
      "velocity": 0.59,
      "track": "Drums",
      "channel": 9,
      "lane": "F"
    },
    {
      "time": 13.439,
      "duration": 0.067,
      "midi": 40,
      "noteNumber": 40,
      "velocity": 1,
      "track": "Bass",
      "channel": 1,
      "lane": "F"
    },
    {
      "time": 13.506,
      "duration": 0.177,
      "midi": 41,
      "noteNumber": 41,
      "velocity": 0.96,
      "track": "Bass",
      "channel": 1,
      "lane": "F"
    },
    {
      "time": 13.506,
      "duration": 1.039,
      "midi": 63,
      "noteNumber": 63,
      "velocity": 0.51,
      "track": "Piano",
      "channel": 2,
      "lane": "J"
    },
    {
      "time": 13.506,
      "duration": 1.039,
      "midi": 67,
      "noteNumber": 67,
      "velocity": 0.51,
      "track": "Piano",
      "channel": 2,
      "lane": "J"
    },
    {
      "time": 13.506,
      "duration": 1.039,
      "midi": 57,
      "noteNumber": 57,
      "velocity": 0.51,
      "track": "Piano",
      "channel": 2,
      "lane": "J"
    },
    {
      "time": 13.506,
      "duration": 1.039,
      "midi": 74,
      "noteNumber": 74,
      "velocity": 0.51,
      "track": "Piano",
      "channel": 2,
      "lane": "K"
    },
    {
      "time": 13.506,
      "duration": 0.054,
      "midi": 51,
      "noteNumber": 51,
      "velocity": 0.75,
      "track": "Drums",
      "channel": 9,
      "lane": "F"
    },
    {
      "time": 13.506,
      "duration": 0.022,
      "midi": 59,
      "noteNumber": 59,
      "velocity": 0.87,
      "track": "Hi Ride Cymbal",
      "channel": 9,
      "lane": "J"
    },
    {
      "time": 13.68,
      "duration": 0.022,
      "midi": 35,
      "noteNumber": 35,
      "velocity": 0.7,
      "track": "Loose Kick",
      "channel": 9,
      "lane": "D"
    },
    {
      "time": 13.699,
      "duration": 0.058,
      "midi": 33,
      "noteNumber": 33,
      "velocity": 0.7,
      "track": "Bass",
      "channel": 1,
      "lane": "D"
    },
    {
      "time": 13.766,
      "duration": 0.212,
      "midi": 39,
      "noteNumber": 39,
      "velocity": 0.91,
      "track": "Bass",
      "channel": 1,
      "lane": "F"
    },
    {
      "time": 13.766,
      "duration": 0.054,
      "midi": 42,
      "noteNumber": 42,
      "velocity": 0.67,
      "track": "Drums",
      "channel": 9,
      "lane": "F"
    },
    {
      "time": 13.766,
      "duration": 0.054,
      "midi": 51,
      "noteNumber": 51,
      "velocity": 0.91,
      "track": "Drums",
      "channel": 9,
      "lane": "F"
    },
    {
      "time": 13.766,
      "duration": 0.022,
      "midi": 42,
      "noteNumber": 42,
      "velocity": 0.71,
      "track": "Closed Hi Hat",
      "channel": 9,
      "lane": "F"
    },
    {
      "time": 13.766,
      "duration": 0.022,
      "midi": 59,
      "noteNumber": 59,
      "velocity": 0.72,
      "track": "Hi Ride Cymbal",
      "channel": 9,
      "lane": "J"
    },
    {
      "time": 13.939,
      "duration": 0.022,
      "midi": 59,
      "noteNumber": 59,
      "velocity": 0.72,
      "track": "Hi Ride Cymbal",
      "channel": 9,
      "lane": "J"
    },
    {
      "time": 13.948,
      "duration": 0.091,
      "midi": 67,
      "noteNumber": 67,
      "velocity": 0.54,
      "track": "Vibraphone",
      "channel": 3,
      "lane": "J"
    },
    {
      "time": 13.948,
      "duration": 0.091,
      "midi": 67,
      "noteNumber": 67,
      "velocity": 0.54,
      "track": "Flute",
      "channel": 4,
      "lane": "J"
    },
    {
      "time": 13.948,
      "duration": 0.091,
      "midi": 67,
      "noteNumber": 67,
      "velocity": 0.54,
      "track": "Pad2",
      "channel": 5,
      "lane": "J"
    },
    {
      "time": 14.026,
      "duration": 0.279,
      "midi": 38,
      "noteNumber": 38,
      "velocity": 0.84,
      "track": "Bass",
      "channel": 1,
      "lane": "F"
    },
    {
      "time": 14.026,
      "duration": 0.054,
      "midi": 51,
      "noteNumber": 51,
      "velocity": 0.75,
      "track": "Drums",
      "channel": 9,
      "lane": "F"
    },
    {
      "time": 14.026,
      "duration": 0.022,
      "midi": 35,
      "noteNumber": 35,
      "velocity": 0.72,
      "track": "Loose Kick",
      "channel": 9,
      "lane": "D"
    },
    {
      "time": 14.026,
      "duration": 0.022,
      "midi": 59,
      "noteNumber": 59,
      "velocity": 0.71,
      "track": "Hi Ride Cymbal",
      "channel": 9,
      "lane": "J"
    },
    {
      "time": 14.045,
      "duration": 0.119,
      "midi": 69,
      "noteNumber": 69,
      "velocity": 0.5,
      "track": "Vibraphone",
      "channel": 3,
      "lane": "K"
    },
    {
      "time": 14.045,
      "duration": 0.119,
      "midi": 69,
      "noteNumber": 69,
      "velocity": 0.5,
      "track": "Flute",
      "channel": 4,
      "lane": "K"
    },
    {
      "time": 14.045,
      "duration": 0.119,
      "midi": 69,
      "noteNumber": 69,
      "velocity": 0.5,
      "track": "Pad2",
      "channel": 5,
      "lane": "K"
    },
    {
      "time": 14.201,
      "duration": 0.11,
      "midi": 72,
      "noteNumber": 72,
      "velocity": 0.69,
      "track": "Vibraphone",
      "channel": 3,
      "lane": "K"
    },
    {
      "time": 14.201,
      "duration": 0.11,
      "midi": 72,
      "noteNumber": 72,
      "velocity": 0.69,
      "track": "Flute",
      "channel": 4,
      "lane": "K"
    },
    {
      "time": 14.201,
      "duration": 0.11,
      "midi": 72,
      "noteNumber": 72,
      "velocity": 0.69,
      "track": "Pad2",
      "channel": 5,
      "lane": "K"
    },
    {
      "time": 14.286,
      "duration": 0.054,
      "midi": 42,
      "noteNumber": 42,
      "velocity": 0.67,
      "track": "Drums",
      "channel": 9,
      "lane": "F"
    },
    {
      "time": 14.286,
      "duration": 0.054,
      "midi": 37,
      "noteNumber": 37,
      "velocity": 0.67,
      "track": "Drums",
      "channel": 9,
      "lane": "F"
    },
    {
      "time": 14.286,
      "duration": 0.054,
      "midi": 51,
      "noteNumber": 51,
      "velocity": 0.91,
      "track": "Drums",
      "channel": 9,
      "lane": "F"
    },
    {
      "time": 14.286,
      "duration": 0.022,
      "midi": 42,
      "noteNumber": 42,
      "velocity": 0.72,
      "track": "Closed Hi Hat",
      "channel": 9,
      "lane": "F"
    },
    {
      "time": 14.286,
      "duration": 0.022,
      "midi": 59,
      "noteNumber": 59,
      "velocity": 0.72,
      "track": "Hi Ride Cymbal",
      "channel": 9,
      "lane": "J"
    },
    {
      "time": 14.305,
      "duration": 0.165,
      "midi": 36,
      "noteNumber": 36,
      "velocity": 0.91,
      "track": "Bass",
      "channel": 1,
      "lane": "D"
    },
    {
      "time": 14.331,
      "duration": 0.134,
      "midi": 69,
      "noteNumber": 69,
      "velocity": 0.45,
      "track": "Vibraphone",
      "channel": 3,
      "lane": "K"
    },
    {
      "time": 14.331,
      "duration": 0.134,
      "midi": 69,
      "noteNumber": 69,
      "velocity": 0.45,
      "track": "Flute",
      "channel": 4,
      "lane": "K"
    },
    {
      "time": 14.331,
      "duration": 0.134,
      "midi": 69,
      "noteNumber": 69,
      "velocity": 0.45,
      "track": "Pad2",
      "channel": 5,
      "lane": "K"
    },
    {
      "time": 14.459,
      "duration": 0.022,
      "midi": 59,
      "noteNumber": 59,
      "velocity": 0.72,
      "track": "Hi Ride Cymbal",
      "channel": 9,
      "lane": "J"
    },
    {
      "time": 14.468,
      "duration": 0.102,
      "midi": 67,
      "noteNumber": 67,
      "velocity": 0.55,
      "track": "Vibraphone",
      "channel": 3,
      "lane": "J"
    },
    {
      "time": 14.468,
      "duration": 0.102,
      "midi": 67,
      "noteNumber": 67,
      "velocity": 0.55,
      "track": "Flute",
      "channel": 4,
      "lane": "J"
    },
    {
      "time": 14.468,
      "duration": 0.102,
      "midi": 67,
      "noteNumber": 67,
      "velocity": 0.55,
      "track": "Pad2",
      "channel": 5,
      "lane": "J"
    },
    {
      "time": 14.491,
      "duration": 0.329,
      "midi": 34,
      "noteNumber": 34,
      "velocity": 0.92,
      "track": "Bass",
      "channel": 1,
      "lane": "D"
    },
    {
      "time": 14.545,
      "duration": 1.039,
      "midi": 57,
      "noteNumber": 57,
      "velocity": 0.51,
      "track": "Piano",
      "channel": 2,
      "lane": "J"
    },
    {
      "time": 14.545,
      "duration": 1.039,
      "midi": 72,
      "noteNumber": 72,
      "velocity": 0.51,
      "track": "Piano",
      "channel": 2,
      "lane": "K"
    },
    {
      "time": 14.545,
      "duration": 1.039,
      "midi": 62,
      "noteNumber": 62,
      "velocity": 0.51,
      "track": "Piano",
      "channel": 2,
      "lane": "J"
    },
    {
      "time": 14.545,
      "duration": 1.039,
      "midi": 65,
      "noteNumber": 65,
      "velocity": 0.51,
      "track": "Piano",
      "channel": 2,
      "lane": "J"
    },
    {
      "time": 14.545,
      "duration": 0.054,
      "midi": 51,
      "noteNumber": 51,
      "velocity": 0.75,
      "track": "Drums",
      "channel": 9,
      "lane": "F"
    },
    {
      "time": 14.545,
      "duration": 0.022,
      "midi": 59,
      "noteNumber": 59,
      "velocity": 0.85,
      "track": "Hi Ride Cymbal",
      "channel": 9,
      "lane": "J"
    },
    {
      "time": 14.595,
      "duration": 1.831,
      "midi": 69,
      "noteNumber": 69,
      "velocity": 0.56,
      "track": "Vibraphone",
      "channel": 3,
      "lane": "K"
    },
    {
      "time": 14.595,
      "duration": 1.831,
      "midi": 69,
      "noteNumber": 69,
      "velocity": 0.56,
      "track": "Flute",
      "channel": 4,
      "lane": "K"
    },
    {
      "time": 14.595,
      "duration": 1.831,
      "midi": 69,
      "noteNumber": 69,
      "velocity": 0.56,
      "track": "Pad2",
      "channel": 5,
      "lane": "K"
    },
    {
      "time": 14.805,
      "duration": 0.29,
      "midi": 46,
      "noteNumber": 46,
      "velocity": 0.79,
      "track": "Bass",
      "channel": 1,
      "lane": "F"
    },
    {
      "time": 14.805,
      "duration": 0.054,
      "midi": 42,
      "noteNumber": 42,
      "velocity": 0.67,
      "track": "Drums",
      "channel": 9,
      "lane": "F"
    },
    {
      "time": 14.805,
      "duration": 0.054,
      "midi": 51,
      "noteNumber": 51,
      "velocity": 0.91,
      "track": "Drums",
      "channel": 9,
      "lane": "F"
    },
    {
      "time": 14.805,
      "duration": 0.022,
      "midi": 42,
      "noteNumber": 42,
      "velocity": 0.71,
      "track": "Closed Hi Hat",
      "channel": 9,
      "lane": "F"
    },
    {
      "time": 14.805,
      "duration": 0.022,
      "midi": 59,
      "noteNumber": 59,
      "velocity": 0.7,
      "track": "Hi Ride Cymbal",
      "channel": 9,
      "lane": "J"
    },
    {
      "time": 14.978,
      "duration": 0.022,
      "midi": 59,
      "noteNumber": 59,
      "velocity": 0.72,
      "track": "Hi Ride Cymbal",
      "channel": 9,
      "lane": "J"
    },
    {
      "time": 15.065,
      "duration": 0.266,
      "midi": 41,
      "noteNumber": 41,
      "velocity": 0.88,
      "track": "Bass",
      "channel": 1,
      "lane": "F"
    },
    {
      "time": 15.065,
      "duration": 0.054,
      "midi": 51,
      "noteNumber": 51,
      "velocity": 0.75,
      "track": "Drums",
      "channel": 9,
      "lane": "F"
    },
    {
      "time": 15.065,
      "duration": 0.022,
      "midi": 59,
      "noteNumber": 59,
      "velocity": 0.72,
      "track": "Hi Ride Cymbal",
      "channel": 9,
      "lane": "J"
    },
    {
      "time": 15.325,
      "duration": 0.26,
      "midi": 38,
      "noteNumber": 38,
      "velocity": 0.93,
      "track": "Bass",
      "channel": 1,
      "lane": "F"
    },
    {
      "time": 15.325,
      "duration": 0.054,
      "midi": 42,
      "noteNumber": 42,
      "velocity": 0.67,
      "track": "Drums",
      "channel": 9,
      "lane": "F"
    },
    {
      "time": 15.325,
      "duration": 0.054,
      "midi": 37,
      "noteNumber": 37,
      "velocity": 0.67,
      "track": "Drums",
      "channel": 9,
      "lane": "F"
    },
    {
      "time": 15.325,
      "duration": 0.054,
      "midi": 51,
      "noteNumber": 51,
      "velocity": 0.91,
      "track": "Drums",
      "channel": 9,
      "lane": "F"
    },
    {
      "time": 15.325,
      "duration": 0.022,
      "midi": 42,
      "noteNumber": 42,
      "velocity": 0.71,
      "track": "Closed Hi Hat",
      "channel": 9,
      "lane": "F"
    },
    {
      "time": 15.325,
      "duration": 0.022,
      "midi": 59,
      "noteNumber": 59,
      "velocity": 0.7,
      "track": "Hi Ride Cymbal",
      "channel": 9,
      "lane": "J"
    },
    {
      "time": 15.498,
      "duration": 0.022,
      "midi": 59,
      "noteNumber": 59,
      "velocity": 0.69,
      "track": "Hi Ride Cymbal",
      "channel": 9,
      "lane": "J"
    },
    {
      "time": 15.584,
      "duration": 0.26,
      "midi": 39,
      "noteNumber": 39,
      "velocity": 0.91,
      "track": "Bass",
      "channel": 1,
      "lane": "F"
    },
    {
      "time": 15.584,
      "duration": 1.039,
      "midi": 61,
      "noteNumber": 61,
      "velocity": 0.51,
      "track": "Piano",
      "channel": 2,
      "lane": "J"
    },
    {
      "time": 15.584,
      "duration": 1.039,
      "midi": 65,
      "noteNumber": 65,
      "velocity": 0.51,
      "track": "Piano",
      "channel": 2,
      "lane": "J"
    },
    {
      "time": 15.584,
      "duration": 1.039,
      "midi": 55,
      "noteNumber": 55,
      "velocity": 0.51,
      "track": "Piano",
      "channel": 2,
      "lane": "J"
    },
    {
      "time": 15.584,
      "duration": 1.039,
      "midi": 70,
      "noteNumber": 70,
      "velocity": 0.51,
      "track": "Piano",
      "channel": 2,
      "lane": "K"
    },
    {
      "time": 15.584,
      "duration": 0.054,
      "midi": 51,
      "noteNumber": 51,
      "velocity": 0.75,
      "track": "Drums",
      "channel": 9,
      "lane": "F"
    },
    {
      "time": 15.584,
      "duration": 0.022,
      "midi": 59,
      "noteNumber": 59,
      "velocity": 0.85,
      "track": "Hi Ride Cymbal",
      "channel": 9,
      "lane": "J"
    },
    {
      "time": 15.844,
      "duration": 0.262,
      "midi": 46,
      "noteNumber": 46,
      "velocity": 0.9,
      "track": "Bass",
      "channel": 1,
      "lane": "F"
    },
    {
      "time": 15.844,
      "duration": 0.054,
      "midi": 42,
      "noteNumber": 42,
      "velocity": 0.67,
      "track": "Drums",
      "channel": 9,
      "lane": "F"
    },
    {
      "time": 15.844,
      "duration": 0.054,
      "midi": 51,
      "noteNumber": 51,
      "velocity": 0.83,
      "track": "Drums",
      "channel": 9,
      "lane": "F"
    },
    {
      "time": 15.844,
      "duration": 0.022,
      "midi": 42,
      "noteNumber": 42,
      "velocity": 0.71,
      "track": "Closed Hi Hat",
      "channel": 9,
      "lane": "F"
    },
    {
      "time": 15.844,
      "duration": 0.022,
      "midi": 59,
      "noteNumber": 59,
      "velocity": 0.72,
      "track": "Hi Ride Cymbal",
      "channel": 9,
      "lane": "J"
    },
    {
      "time": 16.017,
      "duration": 0.022,
      "midi": 59,
      "noteNumber": 59,
      "velocity": 0.69,
      "track": "Hi Ride Cymbal",
      "channel": 9,
      "lane": "J"
    },
    {
      "time": 16.037,
      "duration": 0.054,
      "midi": 51,
      "noteNumber": 51,
      "velocity": 0.59,
      "track": "Drums",
      "channel": 9,
      "lane": "F"
    },
    {
      "time": 16.104,
      "duration": 0.054,
      "midi": 51,
      "noteNumber": 51,
      "velocity": 0.75,
      "track": "Drums",
      "channel": 9,
      "lane": "F"
    },
    {
      "time": 16.104,
      "duration": 0.022,
      "midi": 59,
      "noteNumber": 59,
      "velocity": 0.71,
      "track": "Hi Ride Cymbal",
      "channel": 9,
      "lane": "J"
    },
    {
      "time": 16.106,
      "duration": 0.262,
      "midi": 43,
      "noteNumber": 43,
      "velocity": 0.86,
      "track": "Bass",
      "channel": 1,
      "lane": "F"
    },
    {
      "time": 16.297,
      "duration": 0.054,
      "midi": 38,
      "noteNumber": 38,
      "velocity": 0.59,
      "track": "Drums",
      "channel": 9,
      "lane": "F"
    },
    {
      "time": 16.364,
      "duration": 0.054,
      "midi": 42,
      "noteNumber": 42,
      "velocity": 0.67,
      "track": "Drums",
      "channel": 9,
      "lane": "F"
    },
    {
      "time": 16.364,
      "duration": 0.054,
      "midi": 51,
      "noteNumber": 51,
      "velocity": 0.83,
      "track": "Drums",
      "channel": 9,
      "lane": "F"
    },
    {
      "time": 16.364,
      "duration": 0.022,
      "midi": 40,
      "noteNumber": 40,
      "velocity": 0.7,
      "track": "Tight Snare",
      "channel": 9,
      "lane": "F"
    },
    {
      "time": 16.364,
      "duration": 0.022,
      "midi": 42,
      "noteNumber": 42,
      "velocity": 0.71,
      "track": "Closed Hi Hat",
      "channel": 9,
      "lane": "F"
    },
    {
      "time": 16.364,
      "duration": 0.022,
      "midi": 59,
      "noteNumber": 59,
      "velocity": 0.72,
      "track": "Hi Ride Cymbal",
      "channel": 9,
      "lane": "J"
    },
    {
      "time": 16.368,
      "duration": 0.255,
      "midi": 39,
      "noteNumber": 39,
      "velocity": 1,
      "track": "Bass",
      "channel": 1,
      "lane": "F"
    },
    {
      "time": 16.537,
      "duration": 0.022,
      "midi": 59,
      "noteNumber": 59,
      "velocity": 0.72,
      "track": "Hi Ride Cymbal",
      "channel": 9,
      "lane": "J"
    },
    {
      "time": 16.556,
      "duration": 0.054,
      "midi": 38,
      "noteNumber": 38,
      "velocity": 0.35,
      "track": "Drums",
      "channel": 9,
      "lane": "F"
    },
    {
      "time": 16.556,
      "duration": 0.054,
      "midi": 51,
      "noteNumber": 51,
      "velocity": 0.59,
      "track": "Drums",
      "channel": 9,
      "lane": "F"
    },
    {
      "time": 16.623,
      "duration": 0.26,
      "midi": 40,
      "noteNumber": 40,
      "velocity": 1,
      "track": "Bass",
      "channel": 1,
      "lane": "F"
    },
    {
      "time": 16.623,
      "duration": 0.519,
      "midi": 62,
      "noteNumber": 62,
      "velocity": 0.51,
      "track": "Piano",
      "channel": 2,
      "lane": "J"
    },
    {
      "time": 16.623,
      "duration": 0.519,
      "midi": 64,
      "noteNumber": 64,
      "velocity": 0.51,
      "track": "Piano",
      "channel": 2,
      "lane": "J"
    },
    {
      "time": 16.623,
      "duration": 0.519,
      "midi": 55,
      "noteNumber": 55,
      "velocity": 0.51,
      "track": "Piano",
      "channel": 2,
      "lane": "J"
    },
    {
      "time": 16.623,
      "duration": 0.519,
      "midi": 71,
      "noteNumber": 71,
      "velocity": 0.51,
      "track": "Piano",
      "channel": 2,
      "lane": "K"
    },
    {
      "time": 16.623,
      "duration": 0.054,
      "midi": 51,
      "noteNumber": 51,
      "velocity": 0.75,
      "track": "Drums",
      "channel": 9,
      "lane": "F"
    },
    {
      "time": 16.623,
      "duration": 0.054,
      "midi": 49,
      "noteNumber": 49,
      "velocity": 0.51,
      "track": "Drums",
      "channel": 9,
      "lane": "F"
    },
    {
      "time": 16.623,
      "duration": 0.022,
      "midi": 59,
      "noteNumber": 59,
      "velocity": 0.87,
      "track": "Hi Ride Cymbal",
      "channel": 9,
      "lane": "J"
    },
    {
      "time": 16.853,
      "duration": 0.082,
      "midi": 62,
      "noteNumber": 62,
      "velocity": 0.82,
      "track": "Piano",
      "channel": 7,
      "lane": "J"
    },
    {
      "time": 16.853,
      "duration": 0.082,
      "midi": 62,
      "noteNumber": 62,
      "velocity": 0.82,
      "track": "Pad2",
      "channel": 8,
      "lane": "J"
    },
    {
      "time": 16.883,
      "duration": 0.26,
      "midi": 42,
      "noteNumber": 42,
      "velocity": 1,
      "track": "Bass",
      "channel": 1,
      "lane": "F"
    },
    {
      "time": 16.883,
      "duration": 0.054,
      "midi": 42,
      "noteNumber": 42,
      "velocity": 0.67,
      "track": "Drums",
      "channel": 9,
      "lane": "F"
    },
    {
      "time": 16.883,
      "duration": 0.054,
      "midi": 51,
      "noteNumber": 51,
      "velocity": 0.91,
      "track": "Drums",
      "channel": 9,
      "lane": "F"
    },
    {
      "time": 16.883,
      "duration": 0.022,
      "midi": 42,
      "noteNumber": 42,
      "velocity": 0.69,
      "track": "Closed Hi Hat",
      "channel": 9,
      "lane": "F"
    },
    {
      "time": 16.883,
      "duration": 0.022,
      "midi": 59,
      "noteNumber": 59,
      "velocity": 0.71,
      "track": "Hi Ride Cymbal",
      "channel": 9,
      "lane": "J"
    },
    {
      "time": 16.942,
      "duration": 0.104,
      "midi": 66,
      "noteNumber": 66,
      "velocity": 0.88,
      "track": "Piano",
      "channel": 7,
      "lane": "J"
    },
    {
      "time": 16.942,
      "duration": 0.104,
      "midi": 66,
      "noteNumber": 66,
      "velocity": 0.88,
      "track": "Pad2",
      "channel": 8,
      "lane": "J"
    },
    {
      "time": 17.056,
      "duration": 0.022,
      "midi": 59,
      "noteNumber": 59,
      "velocity": 0.7,
      "track": "Hi Ride Cymbal",
      "channel": 9,
      "lane": "J"
    },
    {
      "time": 17.082,
      "duration": 0.08,
      "midi": 67,
      "noteNumber": 67,
      "velocity": 1,
      "track": "Piano",
      "channel": 7,
      "lane": "J"
    },
    {
      "time": 17.082,
      "duration": 0.08,
      "midi": 67,
      "noteNumber": 67,
      "velocity": 1,
      "track": "Pad2",
      "channel": 8,
      "lane": "J"
    },
    {
      "time": 17.143,
      "duration": 0.145,
      "midi": 41,
      "noteNumber": 41,
      "velocity": 0.88,
      "track": "Bass",
      "channel": 1,
      "lane": "F"
    },
    {
      "time": 17.143,
      "duration": 0.519,
      "midi": 63,
      "noteNumber": 63,
      "velocity": 0.51,
      "track": "Piano",
      "channel": 2,
      "lane": "J"
    },
    {
      "time": 17.143,
      "duration": 0.519,
      "midi": 66,
      "noteNumber": 66,
      "velocity": 0.51,
      "track": "Piano",
      "channel": 2,
      "lane": "J"
    },
    {
      "time": 17.143,
      "duration": 0.519,
      "midi": 57,
      "noteNumber": 57,
      "velocity": 0.51,
      "track": "Piano",
      "channel": 2,
      "lane": "J"
    },
    {
      "time": 17.143,
      "duration": 0.519,
      "midi": 73,
      "noteNumber": 73,
      "velocity": 0.51,
      "track": "Piano",
      "channel": 2,
      "lane": "K"
    },
    {
      "time": 17.143,
      "duration": 0.054,
      "midi": 51,
      "noteNumber": 51,
      "velocity": 0.75,
      "track": "Drums",
      "channel": 9,
      "lane": "F"
    },
    {
      "time": 17.143,
      "duration": 0.022,
      "midi": 59,
      "noteNumber": 59,
      "velocity": 0.69,
      "track": "Hi Ride Cymbal",
      "channel": 9,
      "lane": "J"
    },
    {
      "time": 17.216,
      "duration": 0.132,
      "midi": 65,
      "noteNumber": 65,
      "velocity": 0.9,
      "track": "Piano",
      "channel": 7,
      "lane": "J"
    },
    {
      "time": 17.216,
      "duration": 0.132,
      "midi": 65,
      "noteNumber": 65,
      "velocity": 0.9,
      "track": "Pad2",
      "channel": 8,
      "lane": "J"
    },
    {
      "time": 17.335,
      "duration": 0.063,
      "midi": 41,
      "noteNumber": 41,
      "velocity": 0.98,
      "track": "Bass",
      "channel": 1,
      "lane": "F"
    },
    {
      "time": 17.366,
      "duration": 0.1,
      "midi": 69,
      "noteNumber": 69,
      "velocity": 1,
      "track": "Piano",
      "channel": 7,
      "lane": "K"
    },
    {
      "time": 17.366,
      "duration": 0.1,
      "midi": 69,
      "noteNumber": 69,
      "velocity": 1,
      "track": "Pad2",
      "channel": 8,
      "lane": "K"
    },
    {
      "time": 17.403,
      "duration": 0.26,
      "midi": 33,
      "noteNumber": 33,
      "velocity": 0.83,
      "track": "Bass",
      "channel": 1,
      "lane": "D"
    },
    {
      "time": 17.403,
      "duration": 0.054,
      "midi": 42,
      "noteNumber": 42,
      "velocity": 0.67,
      "track": "Drums",
      "channel": 9,
      "lane": "F"
    },
    {
      "time": 17.403,
      "duration": 0.054,
      "midi": 37,
      "noteNumber": 37,
      "velocity": 0.67,
      "track": "Drums",
      "channel": 9,
      "lane": "F"
    },
    {
      "time": 17.403,
      "duration": 0.054,
      "midi": 51,
      "noteNumber": 51,
      "velocity": 0.91,
      "track": "Drums",
      "channel": 9,
      "lane": "F"
    },
    {
      "time": 17.403,
      "duration": 0.022,
      "midi": 42,
      "noteNumber": 42,
      "velocity": 0.7,
      "track": "Closed Hi Hat",
      "channel": 9,
      "lane": "F"
    },
    {
      "time": 17.403,
      "duration": 0.022,
      "midi": 59,
      "noteNumber": 59,
      "velocity": 0.72,
      "track": "Hi Ride Cymbal",
      "channel": 9,
      "lane": "J"
    },
    {
      "time": 17.487,
      "duration": 0.108,
      "midi": 73,
      "noteNumber": 73,
      "velocity": 0.94,
      "track": "Piano",
      "channel": 7,
      "lane": "K"
    },
    {
      "time": 17.487,
      "duration": 0.108,
      "midi": 73,
      "noteNumber": 73,
      "velocity": 0.94,
      "track": "Pad2",
      "channel": 8,
      "lane": "K"
    },
    {
      "time": 17.576,
      "duration": 0.022,
      "midi": 59,
      "noteNumber": 59,
      "velocity": 0.72,
      "track": "Hi Ride Cymbal",
      "channel": 9,
      "lane": "J"
    },
    {
      "time": 17.613,
      "duration": 0.201,
      "midi": 77,
      "noteNumber": 77,
      "velocity": 1,
      "track": "Piano",
      "channel": 7,
      "lane": "K"
    },
    {
      "time": 17.613,
      "duration": 0.201,
      "midi": 77,
      "noteNumber": 77,
      "velocity": 1,
      "track": "Pad2",
      "channel": 8,
      "lane": "K"
    },
    {
      "time": 17.662,
      "duration": 0.247,
      "midi": 34,
      "noteNumber": 34,
      "velocity": 0.91,
      "track": "Bass",
      "channel": 1,
      "lane": "D"
    },
    {
      "time": 17.662,
      "duration": 0.519,
      "midi": 57,
      "noteNumber": 57,
      "velocity": 0.51,
      "track": "Piano",
      "channel": 2,
      "lane": "J"
    },
    {
      "time": 17.662,
      "duration": 0.519,
      "midi": 72,
      "noteNumber": 72,
      "velocity": 0.51,
      "track": "Piano",
      "channel": 2,
      "lane": "K"
    },
    {
      "time": 17.662,
      "duration": 0.519,
      "midi": 62,
      "noteNumber": 62,
      "velocity": 0.51,
      "track": "Piano",
      "channel": 2,
      "lane": "J"
    },
    {
      "time": 17.662,
      "duration": 0.519,
      "midi": 65,
      "noteNumber": 65,
      "velocity": 0.51,
      "track": "Piano",
      "channel": 2,
      "lane": "J"
    },
    {
      "time": 17.662,
      "duration": 0.054,
      "midi": 51,
      "noteNumber": 51,
      "velocity": 0.75,
      "track": "Drums",
      "channel": 9,
      "lane": "F"
    },
    {
      "time": 17.662,
      "duration": 0.022,
      "midi": 59,
      "noteNumber": 59,
      "velocity": 0.87,
      "track": "Hi Ride Cymbal",
      "channel": 9,
      "lane": "J"
    },
    {
      "time": 17.87,
      "duration": 0.089,
      "midi": 79,
      "noteNumber": 79,
      "velocity": 1,
      "track": "Piano",
      "channel": 7,
      "lane": "K"
    },
    {
      "time": 17.87,
      "duration": 0.089,
      "midi": 79,
      "noteNumber": 79,
      "velocity": 1,
      "track": "Pad2",
      "channel": 8,
      "lane": "K"
    },
    {
      "time": 17.922,
      "duration": 0.26,
      "midi": 36,
      "noteNumber": 36,
      "velocity": 0.87,
      "track": "Bass",
      "channel": 1,
      "lane": "D"
    },
    {
      "time": 17.922,
      "duration": 0.054,
      "midi": 42,
      "noteNumber": 42,
      "velocity": 0.67,
      "track": "Drums",
      "channel": 9,
      "lane": "F"
    },
    {
      "time": 17.922,
      "duration": 0.054,
      "midi": 51,
      "noteNumber": 51,
      "velocity": 0.83,
      "track": "Drums",
      "channel": 9,
      "lane": "F"
    },
    {
      "time": 17.922,
      "duration": 0.022,
      "midi": 42,
      "noteNumber": 42,
      "velocity": 0.71,
      "track": "Closed Hi Hat",
      "channel": 9,
      "lane": "F"
    },
    {
      "time": 17.922,
      "duration": 0.022,
      "midi": 59,
      "noteNumber": 59,
      "velocity": 0.69,
      "track": "Hi Ride Cymbal",
      "channel": 9,
      "lane": "J"
    },
    {
      "time": 17.993,
      "duration": 0.136,
      "midi": 74,
      "noteNumber": 74,
      "velocity": 0.7,
      "track": "Piano",
      "channel": 7,
      "lane": "K"
    },
    {
      "time": 17.993,
      "duration": 0.136,
      "midi": 74,
      "noteNumber": 74,
      "velocity": 0.7,
      "track": "Pad2",
      "channel": 8,
      "lane": "K"
    },
    {
      "time": 18.095,
      "duration": 0.022,
      "midi": 59,
      "noteNumber": 59,
      "velocity": 0.71,
      "track": "Hi Ride Cymbal",
      "channel": 9,
      "lane": "J"
    },
    {
      "time": 18.149,
      "duration": 0.104,
      "midi": 72,
      "noteNumber": 72,
      "velocity": 0.76,
      "track": "Piano",
      "channel": 7,
      "lane": "K"
    },
    {
      "time": 18.149,
      "duration": 0.104,
      "midi": 72,
      "noteNumber": 72,
      "velocity": 0.76,
      "track": "Pad2",
      "channel": 8,
      "lane": "K"
    },
    {
      "time": 18.182,
      "duration": 0.292,
      "midi": 37,
      "noteNumber": 37,
      "velocity": 0.95,
      "track": "Bass",
      "channel": 1,
      "lane": "F"
    },
    {
      "time": 18.182,
      "duration": 0.519,
      "midi": 59,
      "noteNumber": 59,
      "velocity": 0.51,
      "track": "Piano",
      "channel": 2,
      "lane": "J"
    },
    {
      "time": 18.182,
      "duration": 0.519,
      "midi": 75,
      "noteNumber": 75,
      "velocity": 0.51,
      "track": "Piano",
      "channel": 2,
      "lane": "K"
    },
    {
      "time": 18.182,
      "duration": 0.519,
      "midi": 65,
      "noteNumber": 65,
      "velocity": 0.51,
      "track": "Piano",
      "channel": 2,
      "lane": "J"
    },
    {
      "time": 18.182,
      "duration": 0.519,
      "midi": 70,
      "noteNumber": 70,
      "velocity": 0.51,
      "track": "Piano",
      "channel": 2,
      "lane": "K"
    },
    {
      "time": 18.182,
      "duration": 0.054,
      "midi": 51,
      "noteNumber": 51,
      "velocity": 0.75,
      "track": "Drums",
      "channel": 9,
      "lane": "F"
    },
    {
      "time": 18.182,
      "duration": 0.022,
      "midi": 59,
      "noteNumber": 59,
      "velocity": 0.72,
      "track": "Hi Ride Cymbal",
      "channel": 9,
      "lane": "J"
    },
    {
      "time": 18.238,
      "duration": 0.149,
      "midi": 73,
      "noteNumber": 73,
      "velocity": 0.93,
      "track": "Piano",
      "channel": 7,
      "lane": "K"
    },
    {
      "time": 18.238,
      "duration": 0.149,
      "midi": 73,
      "noteNumber": 73,
      "velocity": 0.93,
      "track": "Pad2",
      "channel": 8,
      "lane": "K"
    },
    {
      "time": 18.381,
      "duration": 0.132,
      "midi": 71,
      "noteNumber": 71,
      "velocity": 1,
      "track": "Piano",
      "channel": 7,
      "lane": "K"
    },
    {
      "time": 18.381,
      "duration": 0.132,
      "midi": 71,
      "noteNumber": 71,
      "velocity": 1,
      "track": "Pad2",
      "channel": 8,
      "lane": "K"
    },
    {
      "time": 18.442,
      "duration": 0.236,
      "midi": 41,
      "noteNumber": 41,
      "velocity": 0.93,
      "track": "Bass",
      "channel": 1,
      "lane": "F"
    },
    {
      "time": 18.442,
      "duration": 0.054,
      "midi": 42,
      "noteNumber": 42,
      "velocity": 0.67,
      "track": "Drums",
      "channel": 9,
      "lane": "F"
    },
    {
      "time": 18.442,
      "duration": 0.054,
      "midi": 37,
      "noteNumber": 37,
      "velocity": 0.67,
      "track": "Drums",
      "channel": 9,
      "lane": "F"
    },
    {
      "time": 18.442,
      "duration": 0.054,
      "midi": 51,
      "noteNumber": 51,
      "velocity": 0.83,
      "track": "Drums",
      "channel": 9,
      "lane": "F"
    },
    {
      "time": 18.442,
      "duration": 0.022,
      "midi": 42,
      "noteNumber": 42,
      "velocity": 0.71,
      "track": "Closed Hi Hat",
      "channel": 9,
      "lane": "F"
    },
    {
      "time": 18.442,
      "duration": 0.022,
      "midi": 59,
      "noteNumber": 59,
      "velocity": 0.69,
      "track": "Hi Ride Cymbal",
      "channel": 9,
      "lane": "J"
    },
    {
      "time": 18.493,
      "duration": 0.136,
      "midi": 70,
      "noteNumber": 70,
      "velocity": 0.98,
      "track": "Piano",
      "channel": 7,
      "lane": "K"
    },
    {
      "time": 18.493,
      "duration": 0.136,
      "midi": 70,
      "noteNumber": 70,
      "velocity": 0.98,
      "track": "Pad2",
      "channel": 8,
      "lane": "K"
    },
    {
      "time": 18.615,
      "duration": 0.022,
      "midi": 59,
      "noteNumber": 59,
      "velocity": 0.72,
      "track": "Hi Ride Cymbal",
      "channel": 9,
      "lane": "J"
    },
    {
      "time": 18.647,
      "duration": 0.119,
      "midi": 68,
      "noteNumber": 68,
      "velocity": 1,
      "track": "Piano",
      "channel": 7,
      "lane": "K"
    },
    {
      "time": 18.647,
      "duration": 0.119,
      "midi": 68,
      "noteNumber": 68,
      "velocity": 1,
      "track": "Pad2",
      "channel": 8,
      "lane": "K"
    },
    {
      "time": 18.701,
      "duration": 0.249,
      "midi": 42,
      "noteNumber": 42,
      "velocity": 0.91,
      "track": "Bass",
      "channel": 1,
      "lane": "F"
    },
    {
      "time": 18.701,
      "duration": 0.519,
      "midi": 65,
      "noteNumber": 65,
      "velocity": 0.51,
      "track": "Piano",
      "channel": 2,
      "lane": "J"
    },
    {
      "time": 18.701,
      "duration": 0.519,
      "midi": 68,
      "noteNumber": 68,
      "velocity": 0.51,
      "track": "Piano",
      "channel": 2,
      "lane": "K"
    },
    {
      "time": 18.701,
      "duration": 0.519,
      "midi": 58,
      "noteNumber": 58,
      "velocity": 0.51,
      "track": "Piano",
      "channel": 2,
      "lane": "J"
    },
    {
      "time": 18.701,
      "duration": 0.519,
      "midi": 73,
      "noteNumber": 73,
      "velocity": 0.51,
      "track": "Piano",
      "channel": 2,
      "lane": "K"
    },
    {
      "time": 18.701,
      "duration": 0.054,
      "midi": 51,
      "noteNumber": 51,
      "velocity": 0.75,
      "track": "Drums",
      "channel": 9,
      "lane": "F"
    },
    {
      "time": 18.701,
      "duration": 0.022,
      "midi": 59,
      "noteNumber": 59,
      "velocity": 0.87,
      "track": "Hi Ride Cymbal",
      "channel": 9,
      "lane": "J"
    },
    {
      "time": 18.758,
      "duration": 0.156,
      "midi": 70,
      "noteNumber": 70,
      "velocity": 0.81,
      "track": "Piano",
      "channel": 7,
      "lane": "K"
    },
    {
      "time": 18.758,
      "duration": 0.156,
      "midi": 70,
      "noteNumber": 70,
      "velocity": 0.81,
      "track": "Pad2",
      "channel": 8,
      "lane": "K"
    },
    {
      "time": 18.894,
      "duration": 0.043,
      "midi": 37,
      "noteNumber": 37,
      "velocity": 0.72,
      "track": "Bass",
      "channel": 1,
      "lane": "F"
    },
    {
      "time": 18.913,
      "duration": 0.084,
      "midi": 71,
      "noteNumber": 71,
      "velocity": 0.97,
      "track": "Piano",
      "channel": 7,
      "lane": "K"
    },
    {
      "time": 18.913,
      "duration": 0.084,
      "midi": 71,
      "noteNumber": 71,
      "velocity": 0.97,
      "track": "Pad2",
      "channel": 8,
      "lane": "K"
    },
    {
      "time": 18.961,
      "duration": 0.193,
      "midi": 49,
      "noteNumber": 49,
      "velocity": 0.86,
      "track": "Bass",
      "channel": 1,
      "lane": "F"
    },
    {
      "time": 18.961,
      "duration": 0.054,
      "midi": 42,
      "noteNumber": 42,
      "velocity": 0.67,
      "track": "Drums",
      "channel": 9,
      "lane": "F"
    },
    {
      "time": 18.961,
      "duration": 0.054,
      "midi": 51,
      "noteNumber": 51,
      "velocity": 0.83,
      "track": "Drums",
      "channel": 9,
      "lane": "F"
    },
    {
      "time": 18.961,
      "duration": 0.022,
      "midi": 42,
      "noteNumber": 42,
      "velocity": 0.7,
      "track": "Closed Hi Hat",
      "channel": 9,
      "lane": "F"
    },
    {
      "time": 18.961,
      "duration": 0.022,
      "midi": 59,
      "noteNumber": 59,
      "velocity": 0.71,
      "track": "Hi Ride Cymbal",
      "channel": 9,
      "lane": "J"
    },
    {
      "time": 19.024,
      "duration": 0.665,
      "midi": 73,
      "noteNumber": 73,
      "velocity": 0.87,
      "track": "Piano",
      "channel": 7,
      "lane": "K"
    },
    {
      "time": 19.024,
      "duration": 0.665,
      "midi": 73,
      "noteNumber": 73,
      "velocity": 0.87,
      "track": "Pad2",
      "channel": 8,
      "lane": "K"
    },
    {
      "time": 19.134,
      "duration": 0.022,
      "midi": 59,
      "noteNumber": 59,
      "velocity": 0.7,
      "track": "Hi Ride Cymbal",
      "channel": 9,
      "lane": "J"
    },
    {
      "time": 19.151,
      "duration": 0.054,
      "midi": 51,
      "noteNumber": 51,
      "velocity": 0.59,
      "track": "Drums",
      "channel": 9,
      "lane": "F"
    },
    {
      "time": 19.154,
      "duration": 0.037,
      "midi": 37,
      "noteNumber": 37,
      "velocity": 0.74,
      "track": "Bass",
      "channel": 1,
      "lane": "F"
    },
    {
      "time": 19.221,
      "duration": 0.307,
      "midi": 33,
      "noteNumber": 33,
      "velocity": 0.87,
      "track": "Bass",
      "channel": 1,
      "lane": "D"
    },
    {
      "time": 19.221,
      "duration": 0.519,
      "midi": 55,
      "noteNumber": 55,
      "velocity": 0.51,
      "track": "Piano",
      "channel": 2,
      "lane": "J"
    },
    {
      "time": 19.221,
      "duration": 0.519,
      "midi": 69,
      "noteNumber": 69,
      "velocity": 0.51,
      "track": "Piano",
      "channel": 2,
      "lane": "K"
    },
    {
      "time": 19.221,
      "duration": 0.519,
      "midi": 61,
      "noteNumber": 61,
      "velocity": 0.51,
      "track": "Piano",
      "channel": 2,
      "lane": "J"
    },
    {
      "time": 19.221,
      "duration": 0.519,
      "midi": 64,
      "noteNumber": 64,
      "velocity": 0.51,
      "track": "Piano",
      "channel": 2,
      "lane": "J"
    },
    {
      "time": 19.221,
      "duration": 0.054,
      "midi": 51,
      "noteNumber": 51,
      "velocity": 0.75,
      "track": "Drums",
      "channel": 9,
      "lane": "F"
    },
    {
      "time": 19.221,
      "duration": 0.022,
      "midi": 59,
      "noteNumber": 59,
      "velocity": 0.69,
      "track": "Hi Ride Cymbal",
      "channel": 9,
      "lane": "J"
    },
    {
      "time": 19.481,
      "duration": 0.26,
      "midi": 40,
      "noteNumber": 40,
      "velocity": 0.87,
      "track": "Bass",
      "channel": 1,
      "lane": "F"
    },
    {
      "time": 19.481,
      "duration": 0.054,
      "midi": 42,
      "noteNumber": 42,
      "velocity": 0.67,
      "track": "Drums",
      "channel": 9,
      "lane": "F"
    },
    {
      "time": 19.481,
      "duration": 0.054,
      "midi": 37,
      "noteNumber": 37,
      "velocity": 0.59,
      "track": "Drums",
      "channel": 9,
      "lane": "F"
    },
    {
      "time": 19.481,
      "duration": 0.054,
      "midi": 51,
      "noteNumber": 51,
      "velocity": 0.83,
      "track": "Drums",
      "channel": 9,
      "lane": "F"
    },
    {
      "time": 19.481,
      "duration": 0.022,
      "midi": 42,
      "noteNumber": 42,
      "velocity": 0.7,
      "track": "Closed Hi Hat",
      "channel": 9,
      "lane": "F"
    },
    {
      "time": 19.481,
      "duration": 0.022,
      "midi": 59,
      "noteNumber": 59,
      "velocity": 0.72,
      "track": "Hi Ride Cymbal",
      "channel": 9,
      "lane": "J"
    },
    {
      "time": 19.654,
      "duration": 0.022,
      "midi": 59,
      "noteNumber": 59,
      "velocity": 0.72,
      "track": "Hi Ride Cymbal",
      "channel": 9,
      "lane": "J"
    },
    {
      "time": 19.671,
      "duration": 0.054,
      "midi": 51,
      "noteNumber": 51,
      "velocity": 0.59,
      "track": "Drums",
      "channel": 9,
      "lane": "F"
    },
    {
      "time": 19.74,
      "duration": 0.279,
      "midi": 38,
      "noteNumber": 38,
      "velocity": 0.92,
      "track": "Bass",
      "channel": 1,
      "lane": "F"
    },
    {
      "time": 19.74,
      "duration": 1.039,
      "midi": 61,
      "noteNumber": 61,
      "velocity": 0.51,
      "track": "Piano",
      "channel": 2,
      "lane": "J"
    },
    {
      "time": 19.74,
      "duration": 1.039,
      "midi": 64,
      "noteNumber": 64,
      "velocity": 0.51,
      "track": "Piano",
      "channel": 2,
      "lane": "J"
    },
    {
      "time": 19.74,
      "duration": 1.039,
      "midi": 54,
      "noteNumber": 54,
      "velocity": 0.51,
      "track": "Piano",
      "channel": 2,
      "lane": "J"
    },
    {
      "time": 19.74,
      "duration": 1.039,
      "midi": 69,
      "noteNumber": 69,
      "velocity": 0.51,
      "track": "Piano",
      "channel": 2,
      "lane": "K"
    },
    {
      "time": 19.74,
      "duration": 0.054,
      "midi": 51,
      "noteNumber": 51,
      "velocity": 0.75,
      "track": "Drums",
      "channel": 9,
      "lane": "F"
    },
    {
      "time": 19.74,
      "duration": 0.022,
      "midi": 59,
      "noteNumber": 59,
      "velocity": 0.87,
      "track": "Hi Ride Cymbal",
      "channel": 9,
      "lane": "J"
    },
    {
      "time": 20,
      "duration": 0.29,
      "midi": 50,
      "noteNumber": 50,
      "velocity": 0.79,
      "track": "Bass",
      "channel": 1,
      "lane": "F"
    },
    {
      "time": 20,
      "duration": 0.054,
      "midi": 42,
      "noteNumber": 42,
      "velocity": 0.67,
      "track": "Drums",
      "channel": 9,
      "lane": "F"
    },
    {
      "time": 20,
      "duration": 0.054,
      "midi": 51,
      "noteNumber": 51,
      "velocity": 0.83,
      "track": "Drums",
      "channel": 9,
      "lane": "F"
    },
    {
      "time": 20,
      "duration": 0.022,
      "midi": 42,
      "noteNumber": 42,
      "velocity": 0.72,
      "track": "Closed Hi Hat",
      "channel": 9,
      "lane": "F"
    },
    {
      "time": 20,
      "duration": 0.022,
      "midi": 59,
      "noteNumber": 59,
      "velocity": 0.69,
      "track": "Hi Ride Cymbal",
      "channel": 9,
      "lane": "J"
    },
    {
      "time": 20.173,
      "duration": 0.022,
      "midi": 59,
      "noteNumber": 59,
      "velocity": 0.71,
      "track": "Hi Ride Cymbal",
      "channel": 9,
      "lane": "J"
    },
    {
      "time": 20.19,
      "duration": 0.084,
      "midi": 71,
      "noteNumber": 71,
      "velocity": 0.87,
      "track": "Piano",
      "channel": 7,
      "lane": "K"
    },
    {
      "time": 20.19,
      "duration": 0.084,
      "midi": 71,
      "noteNumber": 71,
      "velocity": 0.87,
      "track": "Pad2",
      "channel": 8,
      "lane": "K"
    },
    {
      "time": 20.251,
      "duration": 0.078,
      "midi": 73,
      "noteNumber": 73,
      "velocity": 1,
      "track": "Piano",
      "channel": 7,
      "lane": "K"
    },
    {
      "time": 20.251,
      "duration": 0.078,
      "midi": 73,
      "noteNumber": 73,
      "velocity": 1,
      "track": "Pad2",
      "channel": 8,
      "lane": "K"
    },
    {
      "time": 20.26,
      "duration": 0.266,
      "midi": 45,
      "noteNumber": 45,
      "velocity": 0.88,
      "track": "Bass",
      "channel": 1,
      "lane": "F"
    },
    {
      "time": 20.26,
      "duration": 0.054,
      "midi": 51,
      "noteNumber": 51,
      "velocity": 0.75,
      "track": "Drums",
      "channel": 9,
      "lane": "F"
    },
    {
      "time": 20.26,
      "duration": 0.022,
      "midi": 59,
      "noteNumber": 59,
      "velocity": 0.72,
      "track": "Hi Ride Cymbal",
      "channel": 9,
      "lane": "J"
    },
    {
      "time": 20.355,
      "duration": 0.152,
      "midi": 69,
      "noteNumber": 69,
      "velocity": 1,
      "track": "Piano",
      "channel": 7,
      "lane": "K"
    },
    {
      "time": 20.355,
      "duration": 0.152,
      "midi": 69,
      "noteNumber": 69,
      "velocity": 1,
      "track": "Pad2",
      "channel": 8,
      "lane": "K"
    },
    {
      "time": 20.519,
      "duration": 0.26,
      "midi": 42,
      "noteNumber": 42,
      "velocity": 0.93,
      "track": "Bass",
      "channel": 1,
      "lane": "F"
    },
    {
      "time": 20.519,
      "duration": 0.054,
      "midi": 42,
      "noteNumber": 42,
      "velocity": 0.67,
      "track": "Drums",
      "channel": 9,
      "lane": "F"
    },
    {
      "time": 20.519,
      "duration": 0.054,
      "midi": 37,
      "noteNumber": 37,
      "velocity": 0.67,
      "track": "Drums",
      "channel": 9,
      "lane": "F"
    },
    {
      "time": 20.519,
      "duration": 0.054,
      "midi": 51,
      "noteNumber": 51,
      "velocity": 0.83,
      "track": "Drums",
      "channel": 9,
      "lane": "F"
    },
    {
      "time": 20.519,
      "duration": 0.022,
      "midi": 42,
      "noteNumber": 42,
      "velocity": 0.72,
      "track": "Closed Hi Hat",
      "channel": 9,
      "lane": "F"
    },
    {
      "time": 20.519,
      "duration": 0.022,
      "midi": 59,
      "noteNumber": 59,
      "velocity": 0.69,
      "track": "Hi Ride Cymbal",
      "channel": 9,
      "lane": "J"
    },
    {
      "time": 20.526,
      "duration": 0.26,
      "midi": 66,
      "noteNumber": 66,
      "velocity": 1,
      "track": "Piano",
      "channel": 7,
      "lane": "J"
    },
    {
      "time": 20.526,
      "duration": 0.26,
      "midi": 66,
      "noteNumber": 66,
      "velocity": 1,
      "track": "Pad2",
      "channel": 8,
      "lane": "J"
    },
    {
      "time": 20.693,
      "duration": 0.022,
      "midi": 59,
      "noteNumber": 59,
      "velocity": 0.72,
      "track": "Hi Ride Cymbal",
      "channel": 9,
      "lane": "J"
    },
    {
      "time": 20.779,
      "duration": 0.292,
      "midi": 50,
      "noteNumber": 50,
      "velocity": 0.85,
      "track": "Bass",
      "channel": 1,
      "lane": "F"
    },
    {
      "time": 20.779,
      "duration": 0.519,
      "midi": 60,
      "noteNumber": 60,
      "velocity": 0.51,
      "track": "Piano",
      "channel": 2,
      "lane": "J"
    },
    {
      "time": 20.779,
      "duration": 0.519,
      "midi": 62,
      "noteNumber": 62,
      "velocity": 0.51,
      "track": "Piano",
      "channel": 2,
      "lane": "J"
    },
    {
      "time": 20.779,
      "duration": 0.519,
      "midi": 53,
      "noteNumber": 53,
      "velocity": 0.51,
      "track": "Piano",
      "channel": 2,
      "lane": "J"
    },
    {
      "time": 20.779,
      "duration": 0.519,
      "midi": 69,
      "noteNumber": 69,
      "velocity": 0.51,
      "track": "Piano",
      "channel": 2,
      "lane": "K"
    },
    {
      "time": 20.779,
      "duration": 0.054,
      "midi": 51,
      "noteNumber": 51,
      "velocity": 0.75,
      "track": "Drums",
      "channel": 9,
      "lane": "F"
    },
    {
      "time": 20.779,
      "duration": 0.022,
      "midi": 59,
      "noteNumber": 59,
      "velocity": 0.87,
      "track": "Hi Ride Cymbal",
      "channel": 9,
      "lane": "J"
    },
    {
      "time": 20.814,
      "duration": 0.154,
      "midi": 67,
      "noteNumber": 67,
      "velocity": 1,
      "track": "Piano",
      "channel": 7,
      "lane": "J"
    },
    {
      "time": 20.814,
      "duration": 0.154,
      "midi": 67,
      "noteNumber": 67,
      "velocity": 1,
      "track": "Pad2",
      "channel": 8,
      "lane": "J"
    },
    {
      "time": 20.985,
      "duration": 0.126,
      "midi": 65,
      "noteNumber": 65,
      "velocity": 1,
      "track": "Piano",
      "channel": 7,
      "lane": "J"
    },
    {
      "time": 20.985,
      "duration": 0.126,
      "midi": 65,
      "noteNumber": 65,
      "velocity": 1,
      "track": "Pad2",
      "channel": 8,
      "lane": "J"
    },
    {
      "time": 21.039,
      "duration": 0.26,
      "midi": 45,
      "noteNumber": 45,
      "velocity": 0.84,
      "track": "Bass",
      "channel": 1,
      "lane": "F"
    },
    {
      "time": 21.039,
      "duration": 0.054,
      "midi": 42,
      "noteNumber": 42,
      "velocity": 0.67,
      "track": "Drums",
      "channel": 9,
      "lane": "F"
    },
    {
      "time": 21.039,
      "duration": 0.054,
      "midi": 51,
      "noteNumber": 51,
      "velocity": 0.91,
      "track": "Drums",
      "channel": 9,
      "lane": "F"
    },
    {
      "time": 21.039,
      "duration": 0.022,
      "midi": 42,
      "noteNumber": 42,
      "velocity": 0.7,
      "track": "Closed Hi Hat",
      "channel": 9,
      "lane": "F"
    },
    {
      "time": 21.039,
      "duration": 0.022,
      "midi": 59,
      "noteNumber": 59,
      "velocity": 0.71,
      "track": "Hi Ride Cymbal",
      "channel": 9,
      "lane": "J"
    },
    {
      "time": 21.1,
      "duration": 0.61,
      "midi": 60,
      "noteNumber": 60,
      "velocity": 0.8,
      "track": "Piano",
      "channel": 7,
      "lane": "J"
    },
    {
      "time": 21.1,
      "duration": 0.61,
      "midi": 60,
      "noteNumber": 60,
      "velocity": 0.8,
      "track": "Pad2",
      "channel": 8,
      "lane": "J"
    },
    {
      "time": 21.212,
      "duration": 0.022,
      "midi": 59,
      "noteNumber": 59,
      "velocity": 0.7,
      "track": "Hi Ride Cymbal",
      "channel": 9,
      "lane": "J"
    },
    {
      "time": 21.299,
      "duration": 0.234,
      "midi": 39,
      "noteNumber": 39,
      "velocity": 0.92,
      "track": "Bass",
      "channel": 1,
      "lane": "F"
    },
    {
      "time": 21.299,
      "duration": 0.519,
      "midi": 61,
      "noteNumber": 61,
      "velocity": 0.51,
      "track": "Piano",
      "channel": 2,
      "lane": "J"
    },
    {
      "time": 21.299,
      "duration": 0.519,
      "midi": 65,
      "noteNumber": 65,
      "velocity": 0.51,
      "track": "Piano",
      "channel": 2,
      "lane": "J"
    },
    {
      "time": 21.299,
      "duration": 0.519,
      "midi": 55,
      "noteNumber": 55,
      "velocity": 0.51,
      "track": "Piano",
      "channel": 2,
      "lane": "J"
    },
    {
      "time": 21.299,
      "duration": 0.519,
      "midi": 70,
      "noteNumber": 70,
      "velocity": 0.51,
      "track": "Piano",
      "channel": 2,
      "lane": "K"
    },
    {
      "time": 21.299,
      "duration": 0.054,
      "midi": 51,
      "noteNumber": 51,
      "velocity": 0.75,
      "track": "Drums",
      "channel": 9,
      "lane": "F"
    },
    {
      "time": 21.299,
      "duration": 0.022,
      "midi": 59,
      "noteNumber": 59,
      "velocity": 0.69,
      "track": "Hi Ride Cymbal",
      "channel": 9,
      "lane": "J"
    },
    {
      "time": 21.491,
      "duration": 0.069,
      "midi": 27,
      "noteNumber": 27,
      "velocity": 0.74,
      "track": "Bass",
      "channel": 1,
      "lane": "D"
    },
    {
      "time": 21.558,
      "duration": 0.054,
      "midi": 42,
      "noteNumber": 42,
      "velocity": 0.67,
      "track": "Drums",
      "channel": 9,
      "lane": "F"
    },
    {
      "time": 21.558,
      "duration": 0.054,
      "midi": 37,
      "noteNumber": 37,
      "velocity": 0.67,
      "track": "Drums",
      "channel": 9,
      "lane": "F"
    },
    {
      "time": 21.558,
      "duration": 0.054,
      "midi": 51,
      "noteNumber": 51,
      "velocity": 0.91,
      "track": "Drums",
      "channel": 9,
      "lane": "F"
    },
    {
      "time": 21.558,
      "duration": 0.022,
      "midi": 42,
      "noteNumber": 42,
      "velocity": 0.71,
      "track": "Closed Hi Hat",
      "channel": 9,
      "lane": "F"
    },
    {
      "time": 21.558,
      "duration": 0.022,
      "midi": 59,
      "noteNumber": 59,
      "velocity": 0.72,
      "track": "Hi Ride Cymbal",
      "channel": 9,
      "lane": "J"
    },
    {
      "time": 21.561,
      "duration": 0.258,
      "midi": 45,
      "noteNumber": 45,
      "velocity": 0.92,
      "track": "Bass",
      "channel": 1,
      "lane": "F"
    },
    {
      "time": 21.732,
      "duration": 0.022,
      "midi": 59,
      "noteNumber": 59,
      "velocity": 0.72,
      "track": "Hi Ride Cymbal",
      "channel": 9,
      "lane": "J"
    },
    {
      "time": 21.818,
      "duration": 0.249,
      "midi": 44,
      "noteNumber": 44,
      "velocity": 0.91,
      "track": "Bass",
      "channel": 1,
      "lane": "F"
    },
    {
      "time": 21.818,
      "duration": 0.519,
      "midi": 55,
      "noteNumber": 55,
      "velocity": 0.51,
      "track": "Piano",
      "channel": 2,
      "lane": "J"
    },
    {
      "time": 21.818,
      "duration": 0.519,
      "midi": 70,
      "noteNumber": 70,
      "velocity": 0.51,
      "track": "Piano",
      "channel": 2,
      "lane": "K"
    },
    {
      "time": 21.818,
      "duration": 0.519,
      "midi": 60,
      "noteNumber": 60,
      "velocity": 0.51,
      "track": "Piano",
      "channel": 2,
      "lane": "J"
    },
    {
      "time": 21.818,
      "duration": 0.519,
      "midi": 63,
      "noteNumber": 63,
      "velocity": 0.51,
      "track": "Piano",
      "channel": 2,
      "lane": "J"
    },
    {
      "time": 21.818,
      "duration": 0.054,
      "midi": 51,
      "noteNumber": 51,
      "velocity": 0.75,
      "track": "Drums",
      "channel": 9,
      "lane": "F"
    },
    {
      "time": 21.818,
      "duration": 0.022,
      "midi": 59,
      "noteNumber": 59,
      "velocity": 0.87,
      "track": "Hi Ride Cymbal",
      "channel": 9,
      "lane": "J"
    },
    {
      "time": 22.011,
      "duration": 0.043,
      "midi": 39,
      "noteNumber": 39,
      "velocity": 0.72,
      "track": "Bass",
      "channel": 1,
      "lane": "F"
    },
    {
      "time": 22.026,
      "duration": 0.102,
      "midi": 67,
      "noteNumber": 67,
      "velocity": 0.88,
      "track": "Piano",
      "channel": 7,
      "lane": "J"
    },
    {
      "time": 22.026,
      "duration": 0.102,
      "midi": 67,
      "noteNumber": 67,
      "velocity": 0.88,
      "track": "Pad2",
      "channel": 8,
      "lane": "J"
    },
    {
      "time": 22.078,
      "duration": 0.193,
      "midi": 51,
      "noteNumber": 51,
      "velocity": 0.86,
      "track": "Bass",
      "channel": 1,
      "lane": "F"
    },
    {
      "time": 22.078,
      "duration": 0.054,
      "midi": 42,
      "noteNumber": 42,
      "velocity": 0.67,
      "track": "Drums",
      "channel": 9,
      "lane": "F"
    },
    {
      "time": 22.078,
      "duration": 0.054,
      "midi": 51,
      "noteNumber": 51,
      "velocity": 0.83,
      "track": "Drums",
      "channel": 9,
      "lane": "F"
    },
    {
      "time": 22.078,
      "duration": 0.022,
      "midi": 42,
      "noteNumber": 42,
      "velocity": 0.7,
      "track": "Closed Hi Hat",
      "channel": 9,
      "lane": "F"
    },
    {
      "time": 22.078,
      "duration": 0.022,
      "midi": 59,
      "noteNumber": 59,
      "velocity": 0.69,
      "track": "Hi Ride Cymbal",
      "channel": 9,
      "lane": "J"
    },
    {
      "time": 22.141,
      "duration": 0.119,
      "midi": 72,
      "noteNumber": 72,
      "velocity": 1,
      "track": "Piano",
      "channel": 7,
      "lane": "K"
    },
    {
      "time": 22.141,
      "duration": 0.119,
      "midi": 72,
      "noteNumber": 72,
      "velocity": 1,
      "track": "Pad2",
      "channel": 8,
      "lane": "K"
    },
    {
      "time": 22.251,
      "duration": 0.022,
      "midi": 59,
      "noteNumber": 59,
      "velocity": 0.71,
      "track": "Hi Ride Cymbal",
      "channel": 9,
      "lane": "J"
    },
    {
      "time": 22.271,
      "duration": 0.037,
      "midi": 39,
      "noteNumber": 39,
      "velocity": 0.74,
      "track": "Bass",
      "channel": 1,
      "lane": "F"
    },
    {
      "time": 22.271,
      "duration": 0.054,
      "midi": 51,
      "noteNumber": 51,
      "velocity": 0.59,
      "track": "Drums",
      "channel": 9,
      "lane": "F"
    },
    {
      "time": 22.275,
      "duration": 0.11,
      "midi": 75,
      "noteNumber": 75,
      "velocity": 1,
      "track": "Piano",
      "channel": 7,
      "lane": "K"
    },
    {
      "time": 22.275,
      "duration": 0.11,
      "midi": 75,
      "noteNumber": 75,
      "velocity": 1,
      "track": "Pad2",
      "channel": 8,
      "lane": "K"
    },
    {
      "time": 22.338,
      "duration": 0.292,
      "midi": 35,
      "noteNumber": 35,
      "velocity": 0.95,
      "track": "Bass",
      "channel": 1,
      "lane": "D"
    },
    {
      "time": 22.338,
      "duration": 0.519,
      "midi": 57,
      "noteNumber": 57,
      "velocity": 0.51,
      "track": "Piano",
      "channel": 2,
      "lane": "J"
    },
    {
      "time": 22.338,
      "duration": 0.519,
      "midi": 73,
      "noteNumber": 73,
      "velocity": 0.51,
      "track": "Piano",
      "channel": 2,
      "lane": "K"
    },
    {
      "time": 22.338,
      "duration": 0.519,
      "midi": 63,
      "noteNumber": 63,
      "velocity": 0.51,
      "track": "Piano",
      "channel": 2,
      "lane": "J"
    },
    {
      "time": 22.338,
      "duration": 0.519,
      "midi": 68,
      "noteNumber": 68,
      "velocity": 0.51,
      "track": "Piano",
      "channel": 2,
      "lane": "K"
    },
    {
      "time": 22.338,
      "duration": 0.054,
      "midi": 51,
      "noteNumber": 51,
      "velocity": 0.75,
      "track": "Drums",
      "channel": 9,
      "lane": "F"
    },
    {
      "time": 22.338,
      "duration": 0.022,
      "midi": 59,
      "noteNumber": 59,
      "velocity": 0.72,
      "track": "Hi Ride Cymbal",
      "channel": 9,
      "lane": "J"
    },
    {
      "time": 22.409,
      "duration": 0.121,
      "midi": 78,
      "noteNumber": 78,
      "velocity": 0.85,
      "track": "Piano",
      "channel": 7,
      "lane": "K"
    },
    {
      "time": 22.409,
      "duration": 0.121,
      "midi": 78,
      "noteNumber": 78,
      "velocity": 0.85,
      "track": "Pad2",
      "channel": 8,
      "lane": "K"
    },
    {
      "time": 22.558,
      "duration": 0.074,
      "midi": 80,
      "noteNumber": 80,
      "velocity": 1,
      "track": "Piano",
      "channel": 7,
      "lane": "K"
    },
    {
      "time": 22.558,
      "duration": 0.074,
      "midi": 80,
      "noteNumber": 80,
      "velocity": 1,
      "track": "Pad2",
      "channel": 8,
      "lane": "K"
    },
    {
      "time": 22.597,
      "duration": 0.236,
      "midi": 39,
      "noteNumber": 39,
      "velocity": 0.93,
      "track": "Bass",
      "channel": 1,
      "lane": "F"
    },
    {
      "time": 22.597,
      "duration": 0.054,
      "midi": 42,
      "noteNumber": 42,
      "velocity": 0.67,
      "track": "Drums",
      "channel": 9,
      "lane": "F"
    },
    {
      "time": 22.597,
      "duration": 0.054,
      "midi": 37,
      "noteNumber": 37,
      "velocity": 0.67,
      "track": "Drums",
      "channel": 9,
      "lane": "F"
    },
    {
      "time": 22.597,
      "duration": 0.054,
      "midi": 51,
      "noteNumber": 51,
      "velocity": 0.83,
      "track": "Drums",
      "channel": 9,
      "lane": "F"
    },
    {
      "time": 22.597,
      "duration": 0.022,
      "midi": 42,
      "noteNumber": 42,
      "velocity": 0.72,
      "track": "Closed Hi Hat",
      "channel": 9,
      "lane": "F"
    },
    {
      "time": 22.597,
      "duration": 0.022,
      "midi": 59,
      "noteNumber": 59,
      "velocity": 0.69,
      "track": "Hi Ride Cymbal",
      "channel": 9,
      "lane": "J"
    },
    {
      "time": 22.68,
      "duration": 0.108,
      "midi": 81,
      "noteNumber": 81,
      "velocity": 1,
      "track": "Piano",
      "channel": 7,
      "lane": "K"
    },
    {
      "time": 22.68,
      "duration": 0.108,
      "midi": 81,
      "noteNumber": 81,
      "velocity": 1,
      "track": "Pad2",
      "channel": 8,
      "lane": "K"
    },
    {
      "time": 22.771,
      "duration": 0.022,
      "midi": 59,
      "noteNumber": 59,
      "velocity": 0.72,
      "track": "Hi Ride Cymbal",
      "channel": 9,
      "lane": "J"
    },
    {
      "time": 22.79,
      "duration": 0.054,
      "midi": 51,
      "noteNumber": 51,
      "velocity": 0.59,
      "track": "Drums",
      "channel": 9,
      "lane": "F"
    },
    {
      "time": 22.814,
      "duration": 0.18,
      "midi": 83,
      "noteNumber": 83,
      "velocity": 1,
      "track": "Piano",
      "channel": 7,
      "lane": "K"
    },
    {
      "time": 22.814,
      "duration": 0.18,
      "midi": 83,
      "noteNumber": 83,
      "velocity": 1,
      "track": "Pad2",
      "channel": 8,
      "lane": "K"
    },
    {
      "time": 22.857,
      "duration": 0.249,
      "midi": 40,
      "noteNumber": 40,
      "velocity": 0.91,
      "track": "Bass",
      "channel": 1,
      "lane": "F"
    },
    {
      "time": 22.857,
      "duration": 0.519,
      "midi": 63,
      "noteNumber": 63,
      "velocity": 0.51,
      "track": "Piano",
      "channel": 2,
      "lane": "J"
    },
    {
      "time": 22.857,
      "duration": 0.519,
      "midi": 66,
      "noteNumber": 66,
      "velocity": 0.51,
      "track": "Piano",
      "channel": 2,
      "lane": "J"
    },
    {
      "time": 22.857,
      "duration": 0.519,
      "midi": 56,
      "noteNumber": 56,
      "velocity": 0.51,
      "track": "Piano",
      "channel": 2,
      "lane": "J"
    },
    {
      "time": 22.857,
      "duration": 0.519,
      "midi": 71,
      "noteNumber": 71,
      "velocity": 0.51,
      "track": "Piano",
      "channel": 2,
      "lane": "K"
    },
    {
      "time": 22.857,
      "duration": 0.054,
      "midi": 51,
      "noteNumber": 51,
      "velocity": 0.75,
      "track": "Drums",
      "channel": 9,
      "lane": "F"
    },
    {
      "time": 22.857,
      "duration": 0.022,
      "midi": 59,
      "noteNumber": 59,
      "velocity": 0.87,
      "track": "Hi Ride Cymbal",
      "channel": 9,
      "lane": "J"
    },
    {
      "time": 23.05,
      "duration": 0.043,
      "midi": 35,
      "noteNumber": 35,
      "velocity": 0.72,
      "track": "Bass",
      "channel": 1,
      "lane": "D"
    },
    {
      "time": 23.05,
      "duration": 0.067,
      "midi": 80,
      "noteNumber": 80,
      "velocity": 0.96,
      "track": "Piano",
      "channel": 7,
      "lane": "K"
    },
    {
      "time": 23.05,
      "duration": 0.067,
      "midi": 80,
      "noteNumber": 80,
      "velocity": 0.96,
      "track": "Pad2",
      "channel": 8,
      "lane": "K"
    },
    {
      "time": 23.104,
      "duration": 0.089,
      "midi": 78,
      "noteNumber": 78,
      "velocity": 1,
      "track": "Piano",
      "channel": 7,
      "lane": "K"
    },
    {
      "time": 23.104,
      "duration": 0.089,
      "midi": 78,
      "noteNumber": 78,
      "velocity": 1,
      "track": "Pad2",
      "channel": 8,
      "lane": "K"
    },
    {
      "time": 23.117,
      "duration": 0.193,
      "midi": 47,
      "noteNumber": 47,
      "velocity": 0.86,
      "track": "Bass",
      "channel": 1,
      "lane": "F"
    },
    {
      "time": 23.117,
      "duration": 0.054,
      "midi": 42,
      "noteNumber": 42,
      "velocity": 0.67,
      "track": "Drums",
      "channel": 9,
      "lane": "F"
    },
    {
      "time": 23.117,
      "duration": 0.054,
      "midi": 51,
      "noteNumber": 51,
      "velocity": 0.83,
      "track": "Drums",
      "channel": 9,
      "lane": "F"
    },
    {
      "time": 23.117,
      "duration": 0.022,
      "midi": 42,
      "noteNumber": 42,
      "velocity": 0.7,
      "track": "Closed Hi Hat",
      "channel": 9,
      "lane": "F"
    },
    {
      "time": 23.117,
      "duration": 0.022,
      "midi": 59,
      "noteNumber": 59,
      "velocity": 0.71,
      "track": "Hi Ride Cymbal",
      "channel": 9,
      "lane": "J"
    },
    {
      "time": 23.169,
      "duration": 0.186,
      "midi": 76,
      "noteNumber": 76,
      "velocity": 1,
      "track": "Piano",
      "channel": 7,
      "lane": "K"
    },
    {
      "time": 23.169,
      "duration": 0.186,
      "midi": 76,
      "noteNumber": 76,
      "velocity": 1,
      "track": "Pad2",
      "channel": 8,
      "lane": "K"
    },
    {
      "time": 23.29,
      "duration": 0.022,
      "midi": 59,
      "noteNumber": 59,
      "velocity": 0.71,
      "track": "Hi Ride Cymbal",
      "channel": 9,
      "lane": "J"
    },
    {
      "time": 23.307,
      "duration": 0.054,
      "midi": 51,
      "noteNumber": 51,
      "velocity": 0.59,
      "track": "Drums",
      "channel": 9,
      "lane": "F"
    },
    {
      "time": 23.31,
      "duration": 0.037,
      "midi": 35,
      "noteNumber": 35,
      "velocity": 0.74,
      "track": "Bass",
      "channel": 1,
      "lane": "D"
    },
    {
      "time": 23.377,
      "duration": 0.139,
      "midi": 43,
      "noteNumber": 43,
      "velocity": 0.92,
      "track": "Bass",
      "channel": 1,
      "lane": "F"
    },
    {
      "time": 23.377,
      "duration": 0.519,
      "midi": 65,
      "noteNumber": 65,
      "velocity": 0.51,
      "track": "Piano",
      "channel": 2,
      "lane": "J"
    },
    {
      "time": 23.377,
      "duration": 0.519,
      "midi": 68,
      "noteNumber": 68,
      "velocity": 0.51,
      "track": "Piano",
      "channel": 2,
      "lane": "K"
    },
    {
      "time": 23.377,
      "duration": 0.519,
      "midi": 59,
      "noteNumber": 59,
      "velocity": 0.51,
      "track": "Piano",
      "channel": 2,
      "lane": "J"
    },
    {
      "time": 23.377,
      "duration": 0.519,
      "midi": 74,
      "noteNumber": 74,
      "velocity": 0.51,
      "track": "Piano",
      "channel": 2,
      "lane": "K"
    },
    {
      "time": 23.377,
      "duration": 0.054,
      "midi": 51,
      "noteNumber": 51,
      "velocity": 0.75,
      "track": "Drums",
      "channel": 9,
      "lane": "F"
    },
    {
      "time": 23.377,
      "duration": 0.022,
      "midi": 59,
      "noteNumber": 59,
      "velocity": 0.71,
      "track": "Hi Ride Cymbal",
      "channel": 9,
      "lane": "J"
    },
    {
      "time": 23.448,
      "duration": 0.154,
      "midi": 79,
      "noteNumber": 79,
      "velocity": 1,
      "track": "Piano",
      "channel": 7,
      "lane": "K"
    },
    {
      "time": 23.448,
      "duration": 0.154,
      "midi": 79,
      "noteNumber": 79,
      "velocity": 1,
      "track": "Pad2",
      "channel": 8,
      "lane": "K"
    },
    {
      "time": 23.569,
      "duration": 0.076,
      "midi": 43,
      "noteNumber": 43,
      "velocity": 0.87,
      "track": "Bass",
      "channel": 1,
      "lane": "F"
    },
    {
      "time": 23.608,
      "duration": 0.067,
      "midi": 77,
      "noteNumber": 77,
      "velocity": 1,
      "track": "Piano",
      "channel": 7,
      "lane": "K"
    },
    {
      "time": 23.608,
      "duration": 0.067,
      "midi": 77,
      "noteNumber": 77,
      "velocity": 1,
      "track": "Pad2",
      "channel": 8,
      "lane": "K"
    },
    {
      "time": 23.636,
      "duration": 0.26,
      "midi": 50,
      "noteNumber": 50,
      "velocity": 0.81,
      "track": "Bass",
      "channel": 1,
      "lane": "F"
    },
    {
      "time": 23.636,
      "duration": 0.054,
      "midi": 42,
      "noteNumber": 42,
      "velocity": 0.67,
      "track": "Drums",
      "channel": 9,
      "lane": "F"
    },
    {
      "time": 23.636,
      "duration": 0.054,
      "midi": 37,
      "noteNumber": 37,
      "velocity": 0.59,
      "track": "Drums",
      "channel": 9,
      "lane": "F"
    },
    {
      "time": 23.636,
      "duration": 0.054,
      "midi": 51,
      "noteNumber": 51,
      "velocity": 0.83,
      "track": "Drums",
      "channel": 9,
      "lane": "F"
    },
    {
      "time": 23.636,
      "duration": 0.022,
      "midi": 42,
      "noteNumber": 42,
      "velocity": 0.72,
      "track": "Closed Hi Hat",
      "channel": 9,
      "lane": "F"
    },
    {
      "time": 23.636,
      "duration": 0.022,
      "midi": 59,
      "noteNumber": 59,
      "velocity": 0.71,
      "track": "Hi Ride Cymbal",
      "channel": 9,
      "lane": "J"
    },
    {
      "time": 23.723,
      "duration": 0.132,
      "midi": 73,
      "noteNumber": 73,
      "velocity": 0.8,
      "track": "Piano",
      "channel": 7,
      "lane": "K"
    },
    {
      "time": 23.723,
      "duration": 0.132,
      "midi": 73,
      "noteNumber": 73,
      "velocity": 0.8,
      "track": "Pad2",
      "channel": 8,
      "lane": "K"
    },
    {
      "time": 23.81,
      "duration": 0.022,
      "midi": 59,
      "noteNumber": 59,
      "velocity": 0.7,
      "track": "Hi Ride Cymbal",
      "channel": 9,
      "lane": "J"
    },
    {
      "time": 23.827,
      "duration": 0.054,
      "midi": 51,
      "noteNumber": 51,
      "velocity": 0.59,
      "track": "Drums",
      "channel": 9,
      "lane": "F"
    },
    {
      "time": 23.859,
      "duration": 0.106,
      "midi": 68,
      "noteNumber": 68,
      "velocity": 1,
      "track": "Piano",
      "channel": 7,
      "lane": "K"
    },
    {
      "time": 23.859,
      "duration": 0.106,
      "midi": 68,
      "noteNumber": 68,
      "velocity": 1,
      "track": "Pad2",
      "channel": 8,
      "lane": "K"
    },
    {
      "time": 23.896,
      "duration": 0.199,
      "midi": 36,
      "noteNumber": 36,
      "velocity": 0.91,
      "track": "Bass",
      "channel": 1,
      "lane": "D"
    },
    {
      "time": 23.896,
      "duration": 1.039,
      "midi": 59,
      "noteNumber": 59,
      "velocity": 0.51,
      "track": "Piano",
      "channel": 2,
      "lane": "J"
    },
    {
      "time": 23.896,
      "duration": 1.039,
      "midi": 62,
      "noteNumber": 62,
      "velocity": 0.51,
      "track": "Piano",
      "channel": 2,
      "lane": "J"
    },
    {
      "time": 23.896,
      "duration": 1.039,
      "midi": 64,
      "noteNumber": 64,
      "velocity": 0.51,
      "track": "Piano",
      "channel": 2,
      "lane": "J"
    },
    {
      "time": 23.896,
      "duration": 1.039,
      "midi": 67,
      "noteNumber": 67,
      "velocity": 0.51,
      "track": "Piano",
      "channel": 2,
      "lane": "J"
    },
    {
      "time": 23.896,
      "duration": 0.054,
      "midi": 51,
      "noteNumber": 51,
      "velocity": 0.75,
      "track": "Drums",
      "channel": 9,
      "lane": "F"
    },
    {
      "time": 23.896,
      "duration": 0.022,
      "midi": 59,
      "noteNumber": 59,
      "velocity": 0.85,
      "track": "Hi Ride Cymbal",
      "channel": 9,
      "lane": "J"
    },
    {
      "time": 23.955,
      "duration": 0.175,
      "midi": 67,
      "noteNumber": 67,
      "velocity": 0.98,
      "track": "Piano",
      "channel": 7,
      "lane": "J"
    },
    {
      "time": 23.955,
      "duration": 0.175,
      "midi": 67,
      "noteNumber": 67,
      "velocity": 0.98,
      "track": "Pad2",
      "channel": 8,
      "lane": "J"
    },
    {
      "time": 24.089,
      "duration": 0.041,
      "midi": 31,
      "noteNumber": 31,
      "velocity": 0.74,
      "track": "Bass",
      "channel": 1,
      "lane": "D"
    },
    {
      "time": 24.121,
      "duration": 0.054,
      "midi": 64,
      "noteNumber": 64,
      "velocity": 0.75,
      "track": "Piano",
      "channel": 7,
      "lane": "J"
    },
    {
      "time": 24.121,
      "duration": 0.054,
      "midi": 64,
      "noteNumber": 64,
      "velocity": 0.75,
      "track": "Pad2",
      "channel": 8,
      "lane": "J"
    },
    {
      "time": 24.156,
      "duration": 0.258,
      "midi": 38,
      "noteNumber": 38,
      "velocity": 0.89,
      "track": "Bass",
      "channel": 1,
      "lane": "F"
    },
    {
      "time": 24.156,
      "duration": 0.054,
      "midi": 42,
      "noteNumber": 42,
      "velocity": 0.67,
      "track": "Drums",
      "channel": 9,
      "lane": "F"
    },
    {
      "time": 24.156,
      "duration": 0.054,
      "midi": 51,
      "noteNumber": 51,
      "velocity": 0.83,
      "track": "Drums",
      "channel": 9,
      "lane": "F"
    },
    {
      "time": 24.156,
      "duration": 0.022,
      "midi": 46,
      "noteNumber": 46,
      "velocity": 0.72,
      "track": "Open Hi Hat",
      "channel": 9,
      "lane": "F"
    },
    {
      "time": 24.156,
      "duration": 0.022,
      "midi": 59,
      "noteNumber": 59,
      "velocity": 0.69,
      "track": "Hi Ride Cymbal",
      "channel": 9,
      "lane": "J"
    },
    {
      "time": 24.214,
      "duration": 0.139,
      "midi": 72,
      "noteNumber": 72,
      "velocity": 1,
      "track": "Piano",
      "channel": 7,
      "lane": "K"
    },
    {
      "time": 24.214,
      "duration": 0.139,
      "midi": 72,
      "noteNumber": 72,
      "velocity": 1,
      "track": "Pad2",
      "channel": 8,
      "lane": "K"
    },
    {
      "time": 24.329,
      "duration": 0.022,
      "midi": 59,
      "noteNumber": 59,
      "velocity": 0.71,
      "track": "Hi Ride Cymbal",
      "channel": 9,
      "lane": "J"
    },
    {
      "time": 24.348,
      "duration": 0.054,
      "midi": 51,
      "noteNumber": 51,
      "velocity": 0.59,
      "track": "Drums",
      "channel": 9,
      "lane": "F"
    },
    {
      "time": 24.377,
      "duration": 0.067,
      "midi": 67,
      "noteNumber": 67,
      "velocity": 0.72,
      "track": "Piano",
      "channel": 7,
      "lane": "J"
    },
    {
      "time": 24.377,
      "duration": 0.067,
      "midi": 67,
      "noteNumber": 67,
      "velocity": 0.72,
      "track": "Pad2",
      "channel": 8,
      "lane": "J"
    },
    {
      "time": 24.416,
      "duration": 0.169,
      "midi": 40,
      "noteNumber": 40,
      "velocity": 0.94,
      "track": "Bass",
      "channel": 1,
      "lane": "F"
    },
    {
      "time": 24.416,
      "duration": 0.054,
      "midi": 51,
      "noteNumber": 51,
      "velocity": 0.75,
      "track": "Drums",
      "channel": 9,
      "lane": "F"
    },
    {
      "time": 24.416,
      "duration": 0.022,
      "midi": 59,
      "noteNumber": 59,
      "velocity": 0.72,
      "track": "Hi Ride Cymbal",
      "channel": 9,
      "lane": "J"
    },
    {
      "time": 24.461,
      "duration": 0.084,
      "midi": 72,
      "noteNumber": 72,
      "velocity": 1,
      "track": "Piano",
      "channel": 7,
      "lane": "K"
    },
    {
      "time": 24.461,
      "duration": 0.084,
      "midi": 72,
      "noteNumber": 72,
      "velocity": 1,
      "track": "Pad2",
      "channel": 8,
      "lane": "K"
    },
    {
      "time": 24.524,
      "duration": 0.056,
      "midi": 71,
      "noteNumber": 71,
      "velocity": 0.69,
      "track": "Piano",
      "channel": 7,
      "lane": "K"
    },
    {
      "time": 24.524,
      "duration": 0.056,
      "midi": 71,
      "noteNumber": 71,
      "velocity": 0.69,
      "track": "Pad2",
      "channel": 8,
      "lane": "K"
    },
    {
      "time": 24.608,
      "duration": 0.039,
      "midi": 31,
      "noteNumber": 31,
      "velocity": 0.77,
      "track": "Bass",
      "channel": 1,
      "lane": "D"
    },
    {
      "time": 24.628,
      "duration": 0.53,
      "midi": 67,
      "noteNumber": 67,
      "velocity": 1,
      "track": "Piano",
      "channel": 7,
      "lane": "J"
    },
    {
      "time": 24.628,
      "duration": 0.53,
      "midi": 67,
      "noteNumber": 67,
      "velocity": 1,
      "track": "Pad2",
      "channel": 8,
      "lane": "J"
    },
    {
      "time": 24.675,
      "duration": 0.238,
      "midi": 43,
      "noteNumber": 43,
      "velocity": 0.96,
      "track": "Bass",
      "channel": 1,
      "lane": "F"
    },
    {
      "time": 24.675,
      "duration": 0.054,
      "midi": 42,
      "noteNumber": 42,
      "velocity": 0.67,
      "track": "Drums",
      "channel": 9,
      "lane": "F"
    },
    {
      "time": 24.675,
      "duration": 0.054,
      "midi": 37,
      "noteNumber": 37,
      "velocity": 0.67,
      "track": "Drums",
      "channel": 9,
      "lane": "F"
    },
    {
      "time": 24.675,
      "duration": 0.054,
      "midi": 51,
      "noteNumber": 51,
      "velocity": 0.83,
      "track": "Drums",
      "channel": 9,
      "lane": "F"
    },
    {
      "time": 24.675,
      "duration": 0.022,
      "midi": 42,
      "noteNumber": 42,
      "velocity": 0.7,
      "track": "Closed Hi Hat",
      "channel": 9,
      "lane": "F"
    },
    {
      "time": 24.675,
      "duration": 0.022,
      "midi": 59,
      "noteNumber": 59,
      "velocity": 0.71,
      "track": "Hi Ride Cymbal",
      "channel": 9,
      "lane": "J"
    },
    {
      "time": 24.848,
      "duration": 0.022,
      "midi": 59,
      "noteNumber": 59,
      "velocity": 0.71,
      "track": "Hi Ride Cymbal",
      "channel": 9,
      "lane": "J"
    },
    {
      "time": 24.868,
      "duration": 0.022,
      "midi": 31,
      "noteNumber": 31,
      "velocity": 0.72,
      "track": "Bass",
      "channel": 1,
      "lane": "D"
    },
    {
      "time": 24.868,
      "duration": 0.054,
      "midi": 51,
      "noteNumber": 51,
      "velocity": 0.59,
      "track": "Drums",
      "channel": 9,
      "lane": "F"
    },
    {
      "time": 24.935,
      "duration": 0.292,
      "midi": 48,
      "noteNumber": 48,
      "velocity": 0.85,
      "track": "Bass",
      "channel": 1,
      "lane": "F"
    },
    {
      "time": 24.935,
      "duration": 0.519,
      "midi": 58,
      "noteNumber": 58,
      "velocity": 0.51,
      "track": "Piano",
      "channel": 2,
      "lane": "J"
    },
    {
      "time": 24.935,
      "duration": 0.519,
      "midi": 62,
      "noteNumber": 62,
      "velocity": 0.51,
      "track": "Piano",
      "channel": 2,
      "lane": "J"
    },
    {
      "time": 24.935,
      "duration": 0.519,
      "midi": 63,
      "noteNumber": 63,
      "velocity": 0.51,
      "track": "Piano",
      "channel": 2,
      "lane": "J"
    },
    {
      "time": 24.935,
      "duration": 0.519,
      "midi": 67,
      "noteNumber": 67,
      "velocity": 0.51,
      "track": "Piano",
      "channel": 2,
      "lane": "J"
    },
    {
      "time": 24.935,
      "duration": 0.054,
      "midi": 51,
      "noteNumber": 51,
      "velocity": 0.75,
      "track": "Drums",
      "channel": 9,
      "lane": "F"
    },
    {
      "time": 24.935,
      "duration": 0.022,
      "midi": 59,
      "noteNumber": 59,
      "velocity": 0.87,
      "track": "Hi Ride Cymbal",
      "channel": 9,
      "lane": "J"
    },
    {
      "time": 25.195,
      "duration": 0.26,
      "midi": 43,
      "noteNumber": 43,
      "velocity": 0.84,
      "track": "Bass",
      "channel": 1,
      "lane": "F"
    },
    {
      "time": 25.195,
      "duration": 0.054,
      "midi": 42,
      "noteNumber": 42,
      "velocity": 0.67,
      "track": "Drums",
      "channel": 9,
      "lane": "F"
    },
    {
      "time": 25.195,
      "duration": 0.054,
      "midi": 51,
      "noteNumber": 51,
      "velocity": 0.91,
      "track": "Drums",
      "channel": 9,
      "lane": "F"
    },
    {
      "time": 25.195,
      "duration": 0.022,
      "midi": 42,
      "noteNumber": 42,
      "velocity": 0.71,
      "track": "Closed Hi Hat",
      "channel": 9,
      "lane": "F"
    },
    {
      "time": 25.195,
      "duration": 0.022,
      "midi": 59,
      "noteNumber": 59,
      "velocity": 0.7,
      "track": "Hi Ride Cymbal",
      "channel": 9,
      "lane": "J"
    },
    {
      "time": 25.368,
      "duration": 0.022,
      "midi": 59,
      "noteNumber": 59,
      "velocity": 0.7,
      "track": "Hi Ride Cymbal",
      "channel": 9,
      "lane": "J"
    },
    {
      "time": 25.455,
      "duration": 0.292,
      "midi": 37,
      "noteNumber": 37,
      "velocity": 0.95,
      "track": "Bass",
      "channel": 1,
      "lane": "F"
    },
    {
      "time": 25.455,
      "duration": 0.519,
      "midi": 59,
      "noteNumber": 59,
      "velocity": 0.51,
      "track": "Piano",
      "channel": 2,
      "lane": "J"
    },
    {
      "time": 25.455,
      "duration": 0.519,
      "midi": 75,
      "noteNumber": 75,
      "velocity": 0.51,
      "track": "Piano",
      "channel": 2,
      "lane": "K"
    },
    {
      "time": 25.455,
      "duration": 0.519,
      "midi": 65,
      "noteNumber": 65,
      "velocity": 0.51,
      "track": "Piano",
      "channel": 2,
      "lane": "J"
    },
    {
      "time": 25.455,
      "duration": 0.519,
      "midi": 70,
      "noteNumber": 70,
      "velocity": 0.51,
      "track": "Piano",
      "channel": 2,
      "lane": "K"
    },
    {
      "time": 25.455,
      "duration": 0.054,
      "midi": 51,
      "noteNumber": 51,
      "velocity": 0.75,
      "track": "Drums",
      "channel": 9,
      "lane": "F"
    },
    {
      "time": 25.455,
      "duration": 0.022,
      "midi": 59,
      "noteNumber": 59,
      "velocity": 0.72,
      "track": "Hi Ride Cymbal",
      "channel": 9,
      "lane": "J"
    },
    {
      "time": 25.714,
      "duration": 0.236,
      "midi": 41,
      "noteNumber": 41,
      "velocity": 0.93,
      "track": "Bass",
      "channel": 1,
      "lane": "F"
    },
    {
      "time": 25.714,
      "duration": 0.054,
      "midi": 42,
      "noteNumber": 42,
      "velocity": 0.67,
      "track": "Drums",
      "channel": 9,
      "lane": "F"
    },
    {
      "time": 25.714,
      "duration": 0.054,
      "midi": 37,
      "noteNumber": 37,
      "velocity": 0.67,
      "track": "Drums",
      "channel": 9,
      "lane": "F"
    },
    {
      "time": 25.714,
      "duration": 0.054,
      "midi": 51,
      "noteNumber": 51,
      "velocity": 0.91,
      "track": "Drums",
      "channel": 9,
      "lane": "F"
    },
    {
      "time": 25.714,
      "duration": 0.022,
      "midi": 42,
      "noteNumber": 42,
      "velocity": 0.72,
      "track": "Closed Hi Hat",
      "channel": 9,
      "lane": "F"
    },
    {
      "time": 25.714,
      "duration": 0.022,
      "midi": 59,
      "noteNumber": 59,
      "velocity": 0.69,
      "track": "Hi Ride Cymbal",
      "channel": 9,
      "lane": "J"
    },
    {
      "time": 25.887,
      "duration": 0.022,
      "midi": 59,
      "noteNumber": 59,
      "velocity": 0.69,
      "track": "Hi Ride Cymbal",
      "channel": 9,
      "lane": "J"
    },
    {
      "time": 25.974,
      "duration": 0.307,
      "midi": 42,
      "noteNumber": 42,
      "velocity": 0.87,
      "track": "Bass",
      "channel": 1,
      "lane": "F"
    },
    {
      "time": 25.974,
      "duration": 0.519,
      "midi": 65,
      "noteNumber": 65,
      "velocity": 0.51,
      "track": "Piano",
      "channel": 2,
      "lane": "J"
    },
    {
      "time": 25.974,
      "duration": 0.519,
      "midi": 68,
      "noteNumber": 68,
      "velocity": 0.51,
      "track": "Piano",
      "channel": 2,
      "lane": "K"
    },
    {
      "time": 25.974,
      "duration": 0.519,
      "midi": 58,
      "noteNumber": 58,
      "velocity": 0.51,
      "track": "Piano",
      "channel": 2,
      "lane": "J"
    },
    {
      "time": 25.974,
      "duration": 0.519,
      "midi": 61,
      "noteNumber": 61,
      "velocity": 0.51,
      "track": "Piano",
      "channel": 2,
      "lane": "J"
    },
    {
      "time": 25.974,
      "duration": 0.054,
      "midi": 51,
      "noteNumber": 51,
      "velocity": 0.75,
      "track": "Drums",
      "channel": 9,
      "lane": "F"
    },
    {
      "time": 25.974,
      "duration": 0.022,
      "midi": 59,
      "noteNumber": 59,
      "velocity": 0.87,
      "track": "Hi Ride Cymbal",
      "channel": 9,
      "lane": "J"
    },
    {
      "time": 26.013,
      "duration": 0.132,
      "midi": 68,
      "noteNumber": 68,
      "velocity": 1,
      "track": "Piano",
      "channel": 7,
      "lane": "K"
    },
    {
      "time": 26.013,
      "duration": 0.132,
      "midi": 68,
      "noteNumber": 68,
      "velocity": 1,
      "track": "Pad2",
      "channel": 8,
      "lane": "K"
    },
    {
      "time": 26.173,
      "duration": 0.106,
      "midi": 66,
      "noteNumber": 66,
      "velocity": 1,
      "track": "Piano",
      "channel": 7,
      "lane": "J"
    },
    {
      "time": 26.173,
      "duration": 0.106,
      "midi": 66,
      "noteNumber": 66,
      "velocity": 1,
      "track": "Pad2",
      "channel": 8,
      "lane": "J"
    },
    {
      "time": 26.234,
      "duration": 0.184,
      "midi": 49,
      "noteNumber": 49,
      "velocity": 0.87,
      "track": "Bass",
      "channel": 1,
      "lane": "F"
    },
    {
      "time": 26.234,
      "duration": 0.054,
      "midi": 42,
      "noteNumber": 42,
      "velocity": 0.67,
      "track": "Drums",
      "channel": 9,
      "lane": "F"
    },
    {
      "time": 26.234,
      "duration": 0.054,
      "midi": 51,
      "noteNumber": 51,
      "velocity": 0.91,
      "track": "Drums",
      "channel": 9,
      "lane": "F"
    },
    {
      "time": 26.234,
      "duration": 0.022,
      "midi": 42,
      "noteNumber": 42,
      "velocity": 0.71,
      "track": "Closed Hi Hat",
      "channel": 9,
      "lane": "F"
    },
    {
      "time": 26.234,
      "duration": 0.022,
      "midi": 59,
      "noteNumber": 59,
      "velocity": 0.7,
      "track": "Hi Ride Cymbal",
      "channel": 9,
      "lane": "J"
    },
    {
      "time": 26.307,
      "duration": 0.195,
      "midi": 65,
      "noteNumber": 65,
      "velocity": 0.74,
      "track": "Piano",
      "channel": 7,
      "lane": "J"
    },
    {
      "time": 26.307,
      "duration": 0.195,
      "midi": 65,
      "noteNumber": 65,
      "velocity": 0.74,
      "track": "Pad2",
      "channel": 8,
      "lane": "J"
    },
    {
      "time": 26.407,
      "duration": 0.022,
      "midi": 59,
      "noteNumber": 59,
      "velocity": 0.69,
      "track": "Hi Ride Cymbal",
      "channel": 9,
      "lane": "J"
    },
    {
      "time": 26.429,
      "duration": 0.089,
      "midi": 66,
      "noteNumber": 66,
      "velocity": 0.98,
      "track": "Piano",
      "channel": 7,
      "lane": "J"
    },
    {
      "time": 26.429,
      "duration": 0.089,
      "midi": 66,
      "noteNumber": 66,
      "velocity": 0.98,
      "track": "Pad2",
      "channel": 8,
      "lane": "J"
    },
    {
      "time": 26.439,
      "duration": 0.31,
      "midi": 33,
      "noteNumber": 33,
      "velocity": 0.97,
      "track": "Bass",
      "channel": 1,
      "lane": "D"
    },
    {
      "time": 26.493,
      "duration": 0.519,
      "midi": 55,
      "noteNumber": 55,
      "velocity": 0.51,
      "track": "Piano",
      "channel": 2,
      "lane": "J"
    },
    {
      "time": 26.493,
      "duration": 0.519,
      "midi": 71,
      "noteNumber": 71,
      "velocity": 0.51,
      "track": "Piano",
      "channel": 2,
      "lane": "K"
    },
    {
      "time": 26.493,
      "duration": 0.519,
      "midi": 61,
      "noteNumber": 61,
      "velocity": 0.51,
      "track": "Piano",
      "channel": 2,
      "lane": "J"
    },
    {
      "time": 26.493,
      "duration": 0.519,
      "midi": 64,
      "noteNumber": 64,
      "velocity": 0.51,
      "track": "Piano",
      "channel": 2,
      "lane": "J"
    },
    {
      "time": 26.493,
      "duration": 0.054,
      "midi": 51,
      "noteNumber": 51,
      "velocity": 0.75,
      "track": "Drums",
      "channel": 9,
      "lane": "F"
    },
    {
      "time": 26.493,
      "duration": 0.022,
      "midi": 59,
      "noteNumber": 59,
      "velocity": 0.69,
      "track": "Hi Ride Cymbal",
      "channel": 9,
      "lane": "J"
    },
    {
      "time": 26.667,
      "duration": 0.022,
      "midi": 35,
      "noteNumber": 35,
      "velocity": 0.7,
      "track": "Loose Kick",
      "channel": 9,
      "lane": "D"
    },
    {
      "time": 26.719,
      "duration": 0.076,
      "midi": 64,
      "noteNumber": 64,
      "velocity": 1,
      "track": "Piano",
      "channel": 7,
      "lane": "J"
    },
    {
      "time": 26.719,
      "duration": 0.076,
      "midi": 64,
      "noteNumber": 64,
      "velocity": 1,
      "track": "Pad2",
      "channel": 8,
      "lane": "J"
    },
    {
      "time": 26.753,
      "duration": 0.26,
      "midi": 33,
      "noteNumber": 33,
      "velocity": 1,
      "track": "Bass",
      "channel": 1,
      "lane": "D"
    },
    {
      "time": 26.753,
      "duration": 0.054,
      "midi": 42,
      "noteNumber": 42,
      "velocity": 0.67,
      "track": "Drums",
      "channel": 9,
      "lane": "F"
    },
    {
      "time": 26.753,
      "duration": 0.054,
      "midi": 37,
      "noteNumber": 37,
      "velocity": 0.67,
      "track": "Drums",
      "channel": 9,
      "lane": "F"
    },
    {
      "time": 26.753,
      "duration": 0.054,
      "midi": 51,
      "noteNumber": 51,
      "velocity": 0.91,
      "track": "Drums",
      "channel": 9,
      "lane": "F"
    },
    {
      "time": 26.753,
      "duration": 0.022,
      "midi": 42,
      "noteNumber": 42,
      "velocity": 0.69,
      "track": "Closed Hi Hat",
      "channel": 9,
      "lane": "F"
    },
    {
      "time": 26.753,
      "duration": 0.022,
      "midi": 59,
      "noteNumber": 59,
      "velocity": 0.69,
      "track": "Hi Ride Cymbal",
      "channel": 9,
      "lane": "J"
    },
    {
      "time": 26.816,
      "duration": 0.08,
      "midi": 67,
      "noteNumber": 67,
      "velocity": 0.82,
      "track": "Piano",
      "channel": 7,
      "lane": "J"
    },
    {
      "time": 26.816,
      "duration": 0.08,
      "midi": 67,
      "noteNumber": 67,
      "velocity": 0.82,
      "track": "Pad2",
      "channel": 8,
      "lane": "J"
    },
    {
      "time": 26.885,
      "duration": 0.082,
      "midi": 71,
      "noteNumber": 71,
      "velocity": 0.9,
      "track": "Piano",
      "channel": 7,
      "lane": "K"
    },
    {
      "time": 26.885,
      "duration": 0.082,
      "midi": 71,
      "noteNumber": 71,
      "velocity": 0.9,
      "track": "Pad2",
      "channel": 8,
      "lane": "K"
    },
    {
      "time": 26.926,
      "duration": 0.022,
      "midi": 35,
      "noteNumber": 35,
      "velocity": 0.72,
      "track": "Loose Kick",
      "channel": 9,
      "lane": "D"
    },
    {
      "time": 26.926,
      "duration": 0.022,
      "midi": 59,
      "noteNumber": 59,
      "velocity": 0.72,
      "track": "Hi Ride Cymbal",
      "channel": 9,
      "lane": "J"
    },
    {
      "time": 26.961,
      "duration": 0.067,
      "midi": 74,
      "noteNumber": 74,
      "velocity": 1,
      "track": "Piano",
      "channel": 7,
      "lane": "K"
    },
    {
      "time": 26.961,
      "duration": 0.067,
      "midi": 74,
      "noteNumber": 74,
      "velocity": 1,
      "track": "Pad2",
      "channel": 8,
      "lane": "K"
    },
    {
      "time": 27.013,
      "duration": 0.234,
      "midi": 38,
      "noteNumber": 38,
      "velocity": 0.92,
      "track": "Bass",
      "channel": 1,
      "lane": "F"
    },
    {
      "time": 27.013,
      "duration": 0.519,
      "midi": 61,
      "noteNumber": 61,
      "velocity": 0.51,
      "track": "Piano",
      "channel": 2,
      "lane": "J"
    },
    {
      "time": 27.013,
      "duration": 0.519,
      "midi": 64,
      "noteNumber": 64,
      "velocity": 0.51,
      "track": "Piano",
      "channel": 2,
      "lane": "J"
    },
    {
      "time": 27.013,
      "duration": 0.519,
      "midi": 54,
      "noteNumber": 54,
      "velocity": 0.51,
      "track": "Piano",
      "channel": 2,
      "lane": "J"
    },
    {
      "time": 27.013,
      "duration": 0.519,
      "midi": 57,
      "noteNumber": 57,
      "velocity": 0.51,
      "track": "Piano",
      "channel": 2,
      "lane": "J"
    },
    {
      "time": 27.013,
      "duration": 0.054,
      "midi": 51,
      "noteNumber": 51,
      "velocity": 0.75,
      "track": "Drums",
      "channel": 9,
      "lane": "F"
    },
    {
      "time": 27.013,
      "duration": 0.022,
      "midi": 59,
      "noteNumber": 59,
      "velocity": 0.87,
      "track": "Hi Ride Cymbal",
      "channel": 9,
      "lane": "J"
    },
    {
      "time": 27.076,
      "duration": 0.104,
      "midi": 73,
      "noteNumber": 73,
      "velocity": 1,
      "track": "Piano",
      "channel": 7,
      "lane": "K"
    },
    {
      "time": 27.076,
      "duration": 0.104,
      "midi": 73,
      "noteNumber": 73,
      "velocity": 1,
      "track": "Pad2",
      "channel": 8,
      "lane": "K"
    },
    {
      "time": 27.206,
      "duration": 0.069,
      "midi": 26,
      "noteNumber": 26,
      "velocity": 0.74,
      "track": "Bass",
      "channel": 1,
      "lane": "D"
    },
    {
      "time": 27.206,
      "duration": 0.093,
      "midi": 74,
      "noteNumber": 74,
      "velocity": 1,
      "track": "Piano",
      "channel": 7,
      "lane": "K"
    },
    {
      "time": 27.206,
      "duration": 0.093,
      "midi": 74,
      "noteNumber": 74,
      "velocity": 1,
      "track": "Pad2",
      "channel": 8,
      "lane": "K"
    },
    {
      "time": 27.273,
      "duration": 0.054,
      "midi": 42,
      "noteNumber": 42,
      "velocity": 0.67,
      "track": "Drums",
      "channel": 9,
      "lane": "F"
    },
    {
      "time": 27.273,
      "duration": 0.054,
      "midi": 51,
      "noteNumber": 51,
      "velocity": 0.83,
      "track": "Drums",
      "channel": 9,
      "lane": "F"
    },
    {
      "time": 27.273,
      "duration": 0.022,
      "midi": 42,
      "noteNumber": 42,
      "velocity": 0.71,
      "track": "Closed Hi Hat",
      "channel": 9,
      "lane": "F"
    },
    {
      "time": 27.273,
      "duration": 0.022,
      "midi": 59,
      "noteNumber": 59,
      "velocity": 0.72,
      "track": "Hi Ride Cymbal",
      "channel": 9,
      "lane": "J"
    },
    {
      "time": 27.275,
      "duration": 0.258,
      "midi": 42,
      "noteNumber": 42,
      "velocity": 0.92,
      "track": "Bass",
      "channel": 1,
      "lane": "F"
    },
    {
      "time": 27.331,
      "duration": 0.097,
      "midi": 75,
      "noteNumber": 75,
      "velocity": 1,
      "track": "Piano",
      "channel": 7,
      "lane": "K"
    },
    {
      "time": 27.331,
      "duration": 0.097,
      "midi": 75,
      "noteNumber": 75,
      "velocity": 1,
      "track": "Pad2",
      "channel": 8,
      "lane": "K"
    },
    {
      "time": 27.446,
      "duration": 0.022,
      "midi": 59,
      "noteNumber": 59,
      "velocity": 0.71,
      "track": "Hi Ride Cymbal",
      "channel": 9,
      "lane": "J"
    },
    {
      "time": 27.463,
      "duration": 0.102,
      "midi": 76,
      "noteNumber": 76,
      "velocity": 1,
      "track": "Piano",
      "channel": 7,
      "lane": "K"
    },
    {
      "time": 27.463,
      "duration": 0.102,
      "midi": 76,
      "noteNumber": 76,
      "velocity": 1,
      "track": "Pad2",
      "channel": 8,
      "lane": "K"
    },
    {
      "time": 27.463,
      "duration": 0.054,
      "midi": 51,
      "noteNumber": 51,
      "velocity": 0.59,
      "track": "Drums",
      "channel": 9,
      "lane": "F"
    },
    {
      "time": 27.532,
      "duration": 0.247,
      "midi": 41,
      "noteNumber": 41,
      "velocity": 0.91,
      "track": "Bass",
      "channel": 1,
      "lane": "F"
    },
    {
      "time": 27.532,
      "duration": 0.519,
      "midi": 51,
      "noteNumber": 51,
      "velocity": 0.51,
      "track": "Piano",
      "channel": 2,
      "lane": "F"
    },
    {
      "time": 27.532,
      "duration": 0.519,
      "midi": 67,
      "noteNumber": 67,
      "velocity": 0.51,
      "track": "Piano",
      "channel": 2,
      "lane": "J"
    },
    {
      "time": 27.532,
      "duration": 0.519,
      "midi": 57,
      "noteNumber": 57,
      "velocity": 0.51,
      "track": "Piano",
      "channel": 2,
      "lane": "J"
    },
    {
      "time": 27.532,
      "duration": 0.519,
      "midi": 60,
      "noteNumber": 60,
      "velocity": 0.51,
      "track": "Piano",
      "channel": 2,
      "lane": "J"
    },
    {
      "time": 27.532,
      "duration": 0.054,
      "midi": 51,
      "noteNumber": 51,
      "velocity": 0.75,
      "track": "Drums",
      "channel": 9,
      "lane": "F"
    },
    {
      "time": 27.532,
      "duration": 0.022,
      "midi": 59,
      "noteNumber": 59,
      "velocity": 0.72,
      "track": "Hi Ride Cymbal",
      "channel": 9,
      "lane": "J"
    },
    {
      "time": 27.636,
      "duration": 0.13,
      "midi": 75,
      "noteNumber": 75,
      "velocity": 0.87,
      "track": "Piano",
      "channel": 7,
      "lane": "K"
    },
    {
      "time": 27.636,
      "duration": 0.13,
      "midi": 75,
      "noteNumber": 75,
      "velocity": 0.87,
      "track": "Pad2",
      "channel": 8,
      "lane": "K"
    },
    {
      "time": 27.755,
      "duration": 0.128,
      "midi": 79,
      "noteNumber": 79,
      "velocity": 1,
      "track": "Piano",
      "channel": 7,
      "lane": "K"
    },
    {
      "time": 27.755,
      "duration": 0.128,
      "midi": 79,
      "noteNumber": 79,
      "velocity": 1,
      "track": "Pad2",
      "channel": 8,
      "lane": "K"
    },
    {
      "time": 27.792,
      "duration": 0.26,
      "midi": 33,
      "noteNumber": 33,
      "velocity": 0.87,
      "track": "Bass",
      "channel": 1,
      "lane": "D"
    },
    {
      "time": 27.792,
      "duration": 0.054,
      "midi": 42,
      "noteNumber": 42,
      "velocity": 0.67,
      "track": "Drums",
      "channel": 9,
      "lane": "F"
    },
    {
      "time": 27.792,
      "duration": 0.054,
      "midi": 37,
      "noteNumber": 37,
      "velocity": 0.59,
      "track": "Drums",
      "channel": 9,
      "lane": "F"
    },
    {
      "time": 27.792,
      "duration": 0.054,
      "midi": 51,
      "noteNumber": 51,
      "velocity": 0.83,
      "track": "Drums",
      "channel": 9,
      "lane": "F"
    },
    {
      "time": 27.792,
      "duration": 0.022,
      "midi": 42,
      "noteNumber": 42,
      "velocity": 0.72,
      "track": "Closed Hi Hat",
      "channel": 9,
      "lane": "F"
    },
    {
      "time": 27.792,
      "duration": 0.022,
      "midi": 59,
      "noteNumber": 59,
      "velocity": 0.72,
      "track": "Hi Ride Cymbal",
      "channel": 9,
      "lane": "J"
    },
    {
      "time": 27.874,
      "duration": 0.286,
      "midi": 77,
      "noteNumber": 77,
      "velocity": 0.98,
      "track": "Piano",
      "channel": 7,
      "lane": "K"
    },
    {
      "time": 27.874,
      "duration": 0.286,
      "midi": 77,
      "noteNumber": 77,
      "velocity": 0.98,
      "track": "Pad2",
      "channel": 8,
      "lane": "K"
    },
    {
      "time": 27.965,
      "duration": 0.022,
      "midi": 59,
      "noteNumber": 59,
      "velocity": 0.72,
      "track": "Hi Ride Cymbal",
      "channel": 9,
      "lane": "J"
    },
    {
      "time": 27.983,
      "duration": 0.054,
      "midi": 51,
      "noteNumber": 51,
      "velocity": 0.59,
      "track": "Drums",
      "channel": 9,
      "lane": "F"
    },
    {
      "time": 28.052,
      "duration": 0.201,
      "midi": 34,
      "noteNumber": 34,
      "velocity": 0.98,
      "track": "Bass",
      "channel": 1,
      "lane": "D"
    },
    {
      "time": 28.052,
      "duration": 1.039,
      "midi": 57,
      "noteNumber": 57,
      "velocity": 0.51,
      "track": "Piano",
      "channel": 2,
      "lane": "J"
    },
    {
      "time": 28.052,
      "duration": 1.039,
      "midi": 60,
      "noteNumber": 60,
      "velocity": 0.51,
      "track": "Piano",
      "channel": 2,
      "lane": "J"
    },
    {
      "time": 28.052,
      "duration": 1.039,
      "midi": 62,
      "noteNumber": 62,
      "velocity": 0.51,
      "track": "Piano",
      "channel": 2,
      "lane": "J"
    },
    {
      "time": 28.052,
      "duration": 1.039,
      "midi": 65,
      "noteNumber": 65,
      "velocity": 0.51,
      "track": "Piano",
      "channel": 2,
      "lane": "J"
    },
    {
      "time": 28.052,
      "duration": 0.054,
      "midi": 51,
      "noteNumber": 51,
      "velocity": 0.75,
      "track": "Drums",
      "channel": 9,
      "lane": "F"
    },
    {
      "time": 28.052,
      "duration": 0.022,
      "midi": 59,
      "noteNumber": 59,
      "velocity": 0.87,
      "track": "Hi Ride Cymbal",
      "channel": 9,
      "lane": "J"
    },
    {
      "time": 28.232,
      "duration": 0.067,
      "midi": 29,
      "noteNumber": 29,
      "velocity": 0.59,
      "track": "Bass",
      "channel": 1,
      "lane": "D"
    },
    {
      "time": 28.279,
      "duration": 0.084,
      "midi": 75,
      "noteNumber": 75,
      "velocity": 1,
      "track": "Piano",
      "channel": 7,
      "lane": "K"
    },
    {
      "time": 28.279,
      "duration": 0.084,
      "midi": 75,
      "noteNumber": 75,
      "velocity": 1,
      "track": "Pad2",
      "channel": 8,
      "lane": "K"
    },
    {
      "time": 28.312,
      "duration": 0.227,
      "midi": 41,
      "noteNumber": 41,
      "velocity": 0.84,
      "track": "Bass",
      "channel": 1,
      "lane": "F"
    },
    {
      "time": 28.312,
      "duration": 0.054,
      "midi": 42,
      "noteNumber": 42,
      "velocity": 0.67,
      "track": "Drums",
      "channel": 9,
      "lane": "F"
    },
    {
      "time": 28.312,
      "duration": 0.054,
      "midi": 51,
      "noteNumber": 51,
      "velocity": 0.83,
      "track": "Drums",
      "channel": 9,
      "lane": "F"
    },
    {
      "time": 28.312,
      "duration": 0.022,
      "midi": 42,
      "noteNumber": 42,
      "velocity": 0.69,
      "track": "Closed Hi Hat",
      "channel": 9,
      "lane": "F"
    },
    {
      "time": 28.312,
      "duration": 0.022,
      "midi": 59,
      "noteNumber": 59,
      "velocity": 0.69,
      "track": "Hi Ride Cymbal",
      "channel": 9,
      "lane": "J"
    },
    {
      "time": 28.381,
      "duration": 0.093,
      "midi": 74,
      "noteNumber": 74,
      "velocity": 0.98,
      "track": "Piano",
      "channel": 7,
      "lane": "K"
    },
    {
      "time": 28.381,
      "duration": 0.093,
      "midi": 74,
      "noteNumber": 74,
      "velocity": 0.98,
      "track": "Pad2",
      "channel": 8,
      "lane": "K"
    },
    {
      "time": 28.485,
      "duration": 0.022,
      "midi": 59,
      "noteNumber": 59,
      "velocity": 0.71,
      "track": "Hi Ride Cymbal",
      "channel": 9,
      "lane": "J"
    },
    {
      "time": 28.532,
      "duration": 0.093,
      "midi": 72,
      "noteNumber": 72,
      "velocity": 1,
      "track": "Piano",
      "channel": 7,
      "lane": "K"
    },
    {
      "time": 28.532,
      "duration": 0.093,
      "midi": 72,
      "noteNumber": 72,
      "velocity": 1,
      "track": "Pad2",
      "channel": 8,
      "lane": "K"
    },
    {
      "time": 28.571,
      "duration": 0.26,
      "midi": 38,
      "noteNumber": 38,
      "velocity": 0.91,
      "track": "Bass",
      "channel": 1,
      "lane": "F"
    },
    {
      "time": 28.571,
      "duration": 0.054,
      "midi": 51,
      "noteNumber": 51,
      "velocity": 0.75,
      "track": "Drums",
      "channel": 9,
      "lane": "F"
    },
    {
      "time": 28.571,
      "duration": 0.022,
      "midi": 59,
      "noteNumber": 59,
      "velocity": 0.71,
      "track": "Hi Ride Cymbal",
      "channel": 9,
      "lane": "J"
    },
    {
      "time": 28.645,
      "duration": 0.152,
      "midi": 70,
      "noteNumber": 70,
      "velocity": 0.92,
      "track": "Piano",
      "channel": 7,
      "lane": "K"
    },
    {
      "time": 28.645,
      "duration": 0.152,
      "midi": 70,
      "noteNumber": 70,
      "velocity": 0.92,
      "track": "Pad2",
      "channel": 8,
      "lane": "K"
    },
    {
      "time": 28.797,
      "duration": 0.082,
      "midi": 69,
      "noteNumber": 69,
      "velocity": 0.71,
      "track": "Piano",
      "channel": 7,
      "lane": "K"
    },
    {
      "time": 28.797,
      "duration": 0.082,
      "midi": 69,
      "noteNumber": 69,
      "velocity": 0.71,
      "track": "Pad2",
      "channel": 8,
      "lane": "K"
    },
    {
      "time": 28.831,
      "duration": 0.197,
      "midi": 34,
      "noteNumber": 34,
      "velocity": 0.92,
      "track": "Bass",
      "channel": 1,
      "lane": "D"
    },
    {
      "time": 28.831,
      "duration": 0.054,
      "midi": 42,
      "noteNumber": 42,
      "velocity": 0.67,
      "track": "Drums",
      "channel": 9,
      "lane": "F"
    },
    {
      "time": 28.831,
      "duration": 0.054,
      "midi": 37,
      "noteNumber": 37,
      "velocity": 0.67,
      "track": "Drums",
      "channel": 9,
      "lane": "F"
    },
    {
      "time": 28.831,
      "duration": 0.054,
      "midi": 51,
      "noteNumber": 51,
      "velocity": 0.83,
      "track": "Drums",
      "channel": 9,
      "lane": "F"
    },
    {
      "time": 28.831,
      "duration": 0.022,
      "midi": 42,
      "noteNumber": 42,
      "velocity": 0.69,
      "track": "Closed Hi Hat",
      "channel": 9,
      "lane": "F"
    },
    {
      "time": 28.831,
      "duration": 0.022,
      "midi": 59,
      "noteNumber": 59,
      "velocity": 0.71,
      "track": "Hi Ride Cymbal",
      "channel": 9,
      "lane": "J"
    },
    {
      "time": 28.883,
      "duration": 0.675,
      "midi": 70,
      "noteNumber": 70,
      "velocity": 0.94,
      "track": "Piano",
      "channel": 7,
      "lane": "K"
    },
    {
      "time": 28.883,
      "duration": 0.675,
      "midi": 70,
      "noteNumber": 70,
      "velocity": 0.94,
      "track": "Pad2",
      "channel": 8,
      "lane": "K"
    },
    {
      "time": 29.004,
      "duration": 0.022,
      "midi": 59,
      "noteNumber": 59,
      "velocity": 0.69,
      "track": "Hi Ride Cymbal",
      "channel": 9,
      "lane": "J"
    },
    {
      "time": 29.026,
      "duration": 0.039,
      "midi": 29,
      "noteNumber": 29,
      "velocity": 0.75,
      "track": "Bass",
      "channel": 1,
      "lane": "D"
    },
    {
      "time": 29.091,
      "duration": 0.303,
      "midi": 40,
      "noteNumber": 40,
      "velocity": 0.85,
      "track": "Bass",
      "channel": 1,
      "lane": "F"
    },
    {
      "time": 29.091,
      "duration": 1.039,
      "midi": 62,
      "noteNumber": 62,
      "velocity": 0.51,
      "track": "Piano",
      "channel": 2,
      "lane": "J"
    },
    {
      "time": 29.091,
      "duration": 1.039,
      "midi": 64,
      "noteNumber": 64,
      "velocity": 0.51,
      "track": "Piano",
      "channel": 2,
      "lane": "J"
    },
    {
      "time": 29.091,
      "duration": 1.039,
      "midi": 55,
      "noteNumber": 55,
      "velocity": 0.51,
      "track": "Piano",
      "channel": 2,
      "lane": "J"
    },
    {
      "time": 29.091,
      "duration": 1.039,
      "midi": 59,
      "noteNumber": 59,
      "velocity": 0.51,
      "track": "Piano",
      "channel": 2,
      "lane": "J"
    },
    {
      "time": 29.091,
      "duration": 0.054,
      "midi": 51,
      "noteNumber": 51,
      "velocity": 0.75,
      "track": "Drums",
      "channel": 9,
      "lane": "F"
    },
    {
      "time": 29.091,
      "duration": 0.022,
      "midi": 59,
      "noteNumber": 59,
      "velocity": 0.87,
      "track": "Hi Ride Cymbal",
      "channel": 9,
      "lane": "J"
    },
    {
      "time": 29.351,
      "duration": 0.284,
      "midi": 42,
      "noteNumber": 42,
      "velocity": 0.87,
      "track": "Bass",
      "channel": 1,
      "lane": "F"
    },
    {
      "time": 29.351,
      "duration": 0.054,
      "midi": 42,
      "noteNumber": 42,
      "velocity": 0.67,
      "track": "Drums",
      "channel": 9,
      "lane": "F"
    },
    {
      "time": 29.351,
      "duration": 0.054,
      "midi": 51,
      "noteNumber": 51,
      "velocity": 0.91,
      "track": "Drums",
      "channel": 9,
      "lane": "F"
    },
    {
      "time": 29.351,
      "duration": 0.022,
      "midi": 42,
      "noteNumber": 42,
      "velocity": 0.7,
      "track": "Closed Hi Hat",
      "channel": 9,
      "lane": "F"
    },
    {
      "time": 29.351,
      "duration": 0.022,
      "midi": 59,
      "noteNumber": 59,
      "velocity": 0.69,
      "track": "Hi Ride Cymbal",
      "channel": 9,
      "lane": "J"
    },
    {
      "time": 29.524,
      "duration": 0.022,
      "midi": 59,
      "noteNumber": 59,
      "velocity": 0.72,
      "track": "Hi Ride Cymbal",
      "channel": 9,
      "lane": "J"
    },
    {
      "time": 29.61,
      "duration": 0.303,
      "midi": 43,
      "noteNumber": 43,
      "velocity": 0.83,
      "track": "Bass",
      "channel": 1,
      "lane": "F"
    },
    {
      "time": 29.61,
      "duration": 0.054,
      "midi": 51,
      "noteNumber": 51,
      "velocity": 0.75,
      "track": "Drums",
      "channel": 9,
      "lane": "F"
    },
    {
      "time": 29.61,
      "duration": 0.022,
      "midi": 59,
      "noteNumber": 59,
      "velocity": 0.69,
      "track": "Hi Ride Cymbal",
      "channel": 9,
      "lane": "J"
    },
    {
      "time": 29.87,
      "duration": 0.26,
      "midi": 47,
      "noteNumber": 47,
      "velocity": 0.83,
      "track": "Bass",
      "channel": 1,
      "lane": "F"
    },
    {
      "time": 29.87,
      "duration": 0.054,
      "midi": 42,
      "noteNumber": 42,
      "velocity": 0.67,
      "track": "Drums",
      "channel": 9,
      "lane": "F"
    },
    {
      "time": 29.87,
      "duration": 0.054,
      "midi": 37,
      "noteNumber": 37,
      "velocity": 0.67,
      "track": "Drums",
      "channel": 9,
      "lane": "F"
    },
    {
      "time": 29.87,
      "duration": 0.054,
      "midi": 51,
      "noteNumber": 51,
      "velocity": 0.91,
      "track": "Drums",
      "channel": 9,
      "lane": "F"
    },
    {
      "time": 29.87,
      "duration": 0.022,
      "midi": 42,
      "noteNumber": 42,
      "velocity": 0.69,
      "track": "Closed Hi Hat",
      "channel": 9,
      "lane": "F"
    },
    {
      "time": 29.87,
      "duration": 0.022,
      "midi": 59,
      "noteNumber": 59,
      "velocity": 0.72,
      "track": "Hi Ride Cymbal",
      "channel": 9,
      "lane": "J"
    },
    {
      "time": 30.043,
      "duration": 0.022,
      "midi": 59,
      "noteNumber": 59,
      "velocity": 0.72,
      "track": "Hi Ride Cymbal",
      "channel": 9,
      "lane": "J"
    },
    {
      "time": 30.13,
      "duration": 0.199,
      "midi": 41,
      "noteNumber": 41,
      "velocity": 0.91,
      "track": "Bass",
      "channel": 1,
      "lane": "F"
    },
    {
      "time": 30.13,
      "duration": 1.039,
      "midi": 63,
      "noteNumber": 63,
      "velocity": 0.51,
      "track": "Piano",
      "channel": 2,
      "lane": "J"
    },
    {
      "time": 30.13,
      "duration": 1.039,
      "midi": 67,
      "noteNumber": 67,
      "velocity": 0.51,
      "track": "Piano",
      "channel": 2,
      "lane": "J"
    },
    {
      "time": 30.13,
      "duration": 1.039,
      "midi": 57,
      "noteNumber": 57,
      "velocity": 0.51,
      "track": "Piano",
      "channel": 2,
      "lane": "J"
    },
    {
      "time": 30.13,
      "duration": 1.039,
      "midi": 72,
      "noteNumber": 72,
      "velocity": 0.51,
      "track": "Piano",
      "channel": 2,
      "lane": "K"
    },
    {
      "time": 30.13,
      "duration": 0.054,
      "midi": 51,
      "noteNumber": 51,
      "velocity": 0.75,
      "track": "Drums",
      "channel": 9,
      "lane": "F"
    },
    {
      "time": 30.13,
      "duration": 0.022,
      "midi": 59,
      "noteNumber": 59,
      "velocity": 0.87,
      "track": "Hi Ride Cymbal",
      "channel": 9,
      "lane": "J"
    },
    {
      "time": 30.322,
      "duration": 0.041,
      "midi": 36,
      "noteNumber": 36,
      "velocity": 0.74,
      "track": "Bass",
      "channel": 1,
      "lane": "D"
    },
    {
      "time": 30.39,
      "duration": 0.258,
      "midi": 43,
      "noteNumber": 43,
      "velocity": 0.89,
      "track": "Bass",
      "channel": 1,
      "lane": "F"
    },
    {
      "time": 30.39,
      "duration": 0.054,
      "midi": 42,
      "noteNumber": 42,
      "velocity": 0.67,
      "track": "Drums",
      "channel": 9,
      "lane": "F"
    },
    {
      "time": 30.39,
      "duration": 0.054,
      "midi": 51,
      "noteNumber": 51,
      "velocity": 0.83,
      "track": "Drums",
      "channel": 9,
      "lane": "F"
    },
    {
      "time": 30.39,
      "duration": 0.022,
      "midi": 42,
      "noteNumber": 42,
      "velocity": 0.72,
      "track": "Closed Hi Hat",
      "channel": 9,
      "lane": "F"
    },
    {
      "time": 30.39,
      "duration": 0.022,
      "midi": 59,
      "noteNumber": 59,
      "velocity": 0.72,
      "track": "Hi Ride Cymbal",
      "channel": 9,
      "lane": "J"
    },
    {
      "time": 30.563,
      "duration": 0.022,
      "midi": 59,
      "noteNumber": 59,
      "velocity": 0.71,
      "track": "Hi Ride Cymbal",
      "channel": 9,
      "lane": "J"
    },
    {
      "time": 30.649,
      "duration": 0.169,
      "midi": 45,
      "noteNumber": 45,
      "velocity": 0.94,
      "track": "Bass",
      "channel": 1,
      "lane": "F"
    },
    {
      "time": 30.649,
      "duration": 0.054,
      "midi": 51,
      "noteNumber": 51,
      "velocity": 0.75,
      "track": "Drums",
      "channel": 9,
      "lane": "F"
    },
    {
      "time": 30.649,
      "duration": 0.022,
      "midi": 59,
      "noteNumber": 59,
      "velocity": 0.71,
      "track": "Hi Ride Cymbal",
      "channel": 9,
      "lane": "J"
    },
    {
      "time": 30.708,
      "duration": 0.132,
      "midi": 66,
      "noteNumber": 66,
      "velocity": 1,
      "track": "Piano",
      "channel": 7,
      "lane": "J"
    },
    {
      "time": 30.708,
      "duration": 0.132,
      "midi": 66,
      "noteNumber": 66,
      "velocity": 1,
      "track": "Pad2",
      "channel": 8,
      "lane": "J"
    },
    {
      "time": 30.842,
      "duration": 0.039,
      "midi": 36,
      "noteNumber": 36,
      "velocity": 0.77,
      "track": "Bass",
      "channel": 1,
      "lane": "D"
    },
    {
      "time": 30.87,
      "duration": 0.104,
      "midi": 69,
      "noteNumber": 69,
      "velocity": 1,
      "track": "Piano",
      "channel": 7,
      "lane": "K"
    },
    {
      "time": 30.87,
      "duration": 0.104,
      "midi": 69,
      "noteNumber": 69,
      "velocity": 1,
      "track": "Pad2",
      "channel": 8,
      "lane": "K"
    },
    {
      "time": 30.909,
      "duration": 0.238,
      "midi": 48,
      "noteNumber": 48,
      "velocity": 0.96,
      "track": "Bass",
      "channel": 1,
      "lane": "F"
    },
    {
      "time": 30.909,
      "duration": 0.054,
      "midi": 42,
      "noteNumber": 42,
      "velocity": 0.67,
      "track": "Drums",
      "channel": 9,
      "lane": "F"
    },
    {
      "time": 30.909,
      "duration": 0.054,
      "midi": 37,
      "noteNumber": 37,
      "velocity": 0.67,
      "track": "Drums",
      "channel": 9,
      "lane": "F"
    },
    {
      "time": 30.909,
      "duration": 0.054,
      "midi": 51,
      "noteNumber": 51,
      "velocity": 0.83,
      "track": "Drums",
      "channel": 9,
      "lane": "F"
    },
    {
      "time": 30.909,
      "duration": 0.022,
      "midi": 42,
      "noteNumber": 42,
      "velocity": 0.72,
      "track": "Closed Hi Hat",
      "channel": 9,
      "lane": "F"
    },
    {
      "time": 30.909,
      "duration": 0.022,
      "midi": 59,
      "noteNumber": 59,
      "velocity": 0.72,
      "track": "Hi Ride Cymbal",
      "channel": 9,
      "lane": "J"
    },
    {
      "time": 30.978,
      "duration": 0.11,
      "midi": 73,
      "noteNumber": 73,
      "velocity": 1,
      "track": "Piano",
      "channel": 7,
      "lane": "K"
    },
    {
      "time": 30.978,
      "duration": 0.11,
      "midi": 73,
      "noteNumber": 73,
      "velocity": 1,
      "track": "Pad2",
      "channel": 8,
      "lane": "K"
    },
    {
      "time": 31.082,
      "duration": 0.022,
      "midi": 59,
      "noteNumber": 59,
      "velocity": 0.72,
      "track": "Hi Ride Cymbal",
      "channel": 9,
      "lane": "J"
    },
    {
      "time": 31.102,
      "duration": 0.022,
      "midi": 36,
      "noteNumber": 36,
      "velocity": 0.72,
      "track": "Bass",
      "channel": 1,
      "lane": "D"
    },
    {
      "time": 31.136,
      "duration": 0.31,
      "midi": 77,
      "noteNumber": 77,
      "velocity": 1,
      "track": "Piano",
      "channel": 7,
      "lane": "K"
    },
    {
      "time": 31.136,
      "duration": 0.31,
      "midi": 77,
      "noteNumber": 77,
      "velocity": 1,
      "track": "Pad2",
      "channel": 8,
      "lane": "K"
    },
    {
      "time": 31.169,
      "duration": 0.201,
      "midi": 34,
      "noteNumber": 34,
      "velocity": 0.98,
      "track": "Bass",
      "channel": 1,
      "lane": "D"
    },
    {
      "time": 31.169,
      "duration": 1.039,
      "midi": 57,
      "noteNumber": 57,
      "velocity": 0.51,
      "track": "Piano",
      "channel": 2,
      "lane": "J"
    },
    {
      "time": 31.169,
      "duration": 1.039,
      "midi": 72,
      "noteNumber": 72,
      "velocity": 0.51,
      "track": "Piano",
      "channel": 2,
      "lane": "K"
    },
    {
      "time": 31.169,
      "duration": 1.039,
      "midi": 62,
      "noteNumber": 62,
      "velocity": 0.51,
      "track": "Piano",
      "channel": 2,
      "lane": "J"
    },
    {
      "time": 31.169,
      "duration": 1.039,
      "midi": 65,
      "noteNumber": 65,
      "velocity": 0.51,
      "track": "Piano",
      "channel": 2,
      "lane": "J"
    },
    {
      "time": 31.169,
      "duration": 0.054,
      "midi": 51,
      "noteNumber": 51,
      "velocity": 0.75,
      "track": "Drums",
      "channel": 9,
      "lane": "F"
    },
    {
      "time": 31.169,
      "duration": 0.022,
      "midi": 59,
      "noteNumber": 59,
      "velocity": 0.85,
      "track": "Hi Ride Cymbal",
      "channel": 9,
      "lane": "J"
    },
    {
      "time": 31.348,
      "duration": 0.067,
      "midi": 29,
      "noteNumber": 29,
      "velocity": 0.59,
      "track": "Bass",
      "channel": 1,
      "lane": "D"
    },
    {
      "time": 31.429,
      "duration": 0.227,
      "midi": 41,
      "noteNumber": 41,
      "velocity": 0.84,
      "track": "Bass",
      "channel": 1,
      "lane": "F"
    },
    {
      "time": 31.429,
      "duration": 0.054,
      "midi": 42,
      "noteNumber": 42,
      "velocity": 0.67,
      "track": "Drums",
      "channel": 9,
      "lane": "F"
    },
    {
      "time": 31.429,
      "duration": 0.054,
      "midi": 51,
      "noteNumber": 51,
      "velocity": 0.83,
      "track": "Drums",
      "channel": 9,
      "lane": "F"
    },
    {
      "time": 31.429,
      "duration": 0.022,
      "midi": 46,
      "noteNumber": 46,
      "velocity": 0.7,
      "track": "Open Hi Hat",
      "channel": 9,
      "lane": "F"
    },
    {
      "time": 31.429,
      "duration": 0.022,
      "midi": 59,
      "noteNumber": 59,
      "velocity": 0.71,
      "track": "Hi Ride Cymbal",
      "channel": 9,
      "lane": "J"
    },
    {
      "time": 31.489,
      "duration": 0.128,
      "midi": 74,
      "noteNumber": 74,
      "velocity": 1,
      "track": "Piano",
      "channel": 7,
      "lane": "K"
    },
    {
      "time": 31.489,
      "duration": 0.128,
      "midi": 74,
      "noteNumber": 74,
      "velocity": 1,
      "track": "Pad2",
      "channel": 8,
      "lane": "K"
    },
    {
      "time": 31.602,
      "duration": 0.022,
      "midi": 59,
      "noteNumber": 59,
      "velocity": 0.71,
      "track": "Hi Ride Cymbal",
      "channel": 9,
      "lane": "J"
    },
    {
      "time": 31.621,
      "duration": 0.054,
      "midi": 51,
      "noteNumber": 51,
      "velocity": 0.59,
      "track": "Drums",
      "channel": 9,
      "lane": "F"
    },
    {
      "time": 31.651,
      "duration": 0.087,
      "midi": 70,
      "noteNumber": 70,
      "velocity": 1,
      "track": "Piano",
      "channel": 7,
      "lane": "K"
    },
    {
      "time": 31.651,
      "duration": 0.087,
      "midi": 70,
      "noteNumber": 70,
      "velocity": 1,
      "track": "Pad2",
      "channel": 8,
      "lane": "K"
    },
    {
      "time": 31.688,
      "duration": 0.26,
      "midi": 38,
      "noteNumber": 38,
      "velocity": 0.91,
      "track": "Bass",
      "channel": 1,
      "lane": "F"
    },
    {
      "time": 31.688,
      "duration": 0.054,
      "midi": 51,
      "noteNumber": 51,
      "velocity": 0.75,
      "track": "Drums",
      "channel": 9,
      "lane": "F"
    },
    {
      "time": 31.688,
      "duration": 0.022,
      "midi": 59,
      "noteNumber": 59,
      "velocity": 0.69,
      "track": "Hi Ride Cymbal",
      "channel": 9,
      "lane": "J"
    },
    {
      "time": 31.753,
      "duration": 0.727,
      "midi": 67,
      "noteNumber": 67,
      "velocity": 0.94,
      "track": "Piano",
      "channel": 7,
      "lane": "J"
    },
    {
      "time": 31.753,
      "duration": 0.727,
      "midi": 67,
      "noteNumber": 67,
      "velocity": 0.94,
      "track": "Pad2",
      "channel": 8,
      "lane": "J"
    },
    {
      "time": 31.948,
      "duration": 0.197,
      "midi": 34,
      "noteNumber": 34,
      "velocity": 0.92,
      "track": "Bass",
      "channel": 1,
      "lane": "D"
    },
    {
      "time": 31.948,
      "duration": 0.054,
      "midi": 42,
      "noteNumber": 42,
      "velocity": 0.67,
      "track": "Drums",
      "channel": 9,
      "lane": "F"
    },
    {
      "time": 31.948,
      "duration": 0.054,
      "midi": 37,
      "noteNumber": 37,
      "velocity": 0.67,
      "track": "Drums",
      "channel": 9,
      "lane": "F"
    },
    {
      "time": 31.948,
      "duration": 0.054,
      "midi": 51,
      "noteNumber": 51,
      "velocity": 0.83,
      "track": "Drums",
      "channel": 9,
      "lane": "F"
    },
    {
      "time": 31.948,
      "duration": 0.022,
      "midi": 42,
      "noteNumber": 42,
      "velocity": 0.69,
      "track": "Closed Hi Hat",
      "channel": 9,
      "lane": "F"
    },
    {
      "time": 31.948,
      "duration": 0.022,
      "midi": 59,
      "noteNumber": 59,
      "velocity": 0.7,
      "track": "Hi Ride Cymbal",
      "channel": 9,
      "lane": "J"
    },
    {
      "time": 32.121,
      "duration": 0.022,
      "midi": 59,
      "noteNumber": 59,
      "velocity": 0.72,
      "track": "Hi Ride Cymbal",
      "channel": 9,
      "lane": "J"
    },
    {
      "time": 32.141,
      "duration": 0.054,
      "midi": 51,
      "noteNumber": 51,
      "velocity": 0.59,
      "track": "Drums",
      "channel": 9,
      "lane": "F"
    },
    {
      "time": 32.143,
      "duration": 0.039,
      "midi": 29,
      "noteNumber": 29,
      "velocity": 0.75,
      "track": "Bass",
      "channel": 1,
      "lane": "D"
    },
    {
      "time": 32.208,
      "duration": 0.201,
      "midi": 39,
      "noteNumber": 39,
      "velocity": 0.98,
      "track": "Bass",
      "channel": 1,
      "lane": "F"
    },
    {
      "time": 32.208,
      "duration": 1.039,
      "midi": 61,
      "noteNumber": 61,
      "velocity": 0.51,
      "track": "Piano",
      "channel": 2,
      "lane": "J"
    },
    {
      "time": 32.208,
      "duration": 1.039,
      "midi": 65,
      "noteNumber": 65,
      "velocity": 0.51,
      "track": "Piano",
      "channel": 2,
      "lane": "J"
    },
    {
      "time": 32.208,
      "duration": 1.039,
      "midi": 55,
      "noteNumber": 55,
      "velocity": 0.51,
      "track": "Piano",
      "channel": 2,
      "lane": "J"
    },
    {
      "time": 32.208,
      "duration": 1.039,
      "midi": 72,
      "noteNumber": 72,
      "velocity": 0.51,
      "track": "Piano",
      "channel": 2,
      "lane": "K"
    },
    {
      "time": 32.208,
      "duration": 1.039,
      "midi": 57,
      "noteNumber": 57,
      "velocity": 0.51,
      "track": "Piano",
      "channel": 2,
      "lane": "J"
    },
    {
      "time": 32.208,
      "duration": 0.054,
      "midi": 51,
      "noteNumber": 51,
      "velocity": 0.75,
      "track": "Drums",
      "channel": 9,
      "lane": "F"
    },
    {
      "time": 32.208,
      "duration": 0.022,
      "midi": 59,
      "noteNumber": 59,
      "velocity": 0.87,
      "track": "Hi Ride Cymbal",
      "channel": 9,
      "lane": "J"
    },
    {
      "time": 32.387,
      "duration": 0.067,
      "midi": 34,
      "noteNumber": 34,
      "velocity": 0.59,
      "track": "Bass",
      "channel": 1,
      "lane": "D"
    },
    {
      "time": 32.468,
      "duration": 0.227,
      "midi": 46,
      "noteNumber": 46,
      "velocity": 0.84,
      "track": "Bass",
      "channel": 1,
      "lane": "F"
    },
    {
      "time": 32.468,
      "duration": 0.054,
      "midi": 42,
      "noteNumber": 42,
      "velocity": 0.67,
      "track": "Drums",
      "channel": 9,
      "lane": "F"
    },
    {
      "time": 32.468,
      "duration": 0.054,
      "midi": 51,
      "noteNumber": 51,
      "velocity": 0.83,
      "track": "Drums",
      "channel": 9,
      "lane": "F"
    },
    {
      "time": 32.468,
      "duration": 0.022,
      "midi": 42,
      "noteNumber": 42,
      "velocity": 0.69,
      "track": "Closed Hi Hat",
      "channel": 9,
      "lane": "F"
    },
    {
      "time": 32.468,
      "duration": 0.022,
      "midi": 59,
      "noteNumber": 59,
      "velocity": 0.71,
      "track": "Hi Ride Cymbal",
      "channel": 9,
      "lane": "J"
    },
    {
      "time": 32.641,
      "duration": 0.022,
      "midi": 59,
      "noteNumber": 59,
      "velocity": 0.7,
      "track": "Hi Ride Cymbal",
      "channel": 9,
      "lane": "J"
    },
    {
      "time": 32.66,
      "duration": 0.054,
      "midi": 51,
      "noteNumber": 51,
      "velocity": 0.59,
      "track": "Drums",
      "channel": 9,
      "lane": "F"
    },
    {
      "time": 32.727,
      "duration": 0.26,
      "midi": 43,
      "noteNumber": 43,
      "velocity": 0.91,
      "track": "Bass",
      "channel": 1,
      "lane": "F"
    },
    {
      "time": 32.727,
      "duration": 0.054,
      "midi": 51,
      "noteNumber": 51,
      "velocity": 0.75,
      "track": "Drums",
      "channel": 9,
      "lane": "F"
    },
    {
      "time": 32.727,
      "duration": 0.022,
      "midi": 59,
      "noteNumber": 59,
      "velocity": 0.69,
      "track": "Hi Ride Cymbal",
      "channel": 9,
      "lane": "J"
    },
    {
      "time": 32.92,
      "duration": 0.054,
      "midi": 38,
      "noteNumber": 38,
      "velocity": 0.28,
      "track": "Drums",
      "channel": 9,
      "lane": "F"
    },
    {
      "time": 32.987,
      "duration": 0.197,
      "midi": 39,
      "noteNumber": 39,
      "velocity": 0.92,
      "track": "Bass",
      "channel": 1,
      "lane": "F"
    },
    {
      "time": 32.987,
      "duration": 0.054,
      "midi": 38,
      "noteNumber": 38,
      "velocity": 0.43,
      "track": "Drums",
      "channel": 9,
      "lane": "F"
    },
    {
      "time": 32.987,
      "duration": 0.054,
      "midi": 42,
      "noteNumber": 42,
      "velocity": 0.67,
      "track": "Drums",
      "channel": 9,
      "lane": "F"
    },
    {
      "time": 32.987,
      "duration": 0.054,
      "midi": 37,
      "noteNumber": 37,
      "velocity": 0.67,
      "track": "Drums",
      "channel": 9,
      "lane": "F"
    },
    {
      "time": 32.987,
      "duration": 0.054,
      "midi": 51,
      "noteNumber": 51,
      "velocity": 0.83,
      "track": "Drums",
      "channel": 9,
      "lane": "F"
    },
    {
      "time": 32.987,
      "duration": 0.022,
      "midi": 40,
      "noteNumber": 40,
      "velocity": 0.72,
      "track": "Tight Snare",
      "channel": 9,
      "lane": "F"
    },
    {
      "time": 32.987,
      "duration": 0.022,
      "midi": 42,
      "noteNumber": 42,
      "velocity": 0.7,
      "track": "Closed Hi Hat",
      "channel": 9,
      "lane": "F"
    },
    {
      "time": 32.987,
      "duration": 0.022,
      "midi": 59,
      "noteNumber": 59,
      "velocity": 0.72,
      "track": "Hi Ride Cymbal",
      "channel": 9,
      "lane": "J"
    },
    {
      "time": 33.16,
      "duration": 0.022,
      "midi": 59,
      "noteNumber": 59,
      "velocity": 0.72,
      "track": "Hi Ride Cymbal",
      "channel": 9,
      "lane": "J"
    },
    {
      "time": 33.18,
      "duration": 0.054,
      "midi": 51,
      "noteNumber": 51,
      "velocity": 0.59,
      "track": "Drums",
      "channel": 9,
      "lane": "F"
    },
    {
      "time": 33.182,
      "duration": 0.039,
      "midi": 34,
      "noteNumber": 34,
      "velocity": 0.75,
      "track": "Bass",
      "channel": 1,
      "lane": "D"
    },
    {
      "time": 33.247,
      "duration": 0.197,
      "midi": 40,
      "noteNumber": 40,
      "velocity": 1,
      "track": "Bass",
      "channel": 1,
      "lane": "F"
    },
    {
      "time": 33.247,
      "duration": 0.519,
      "midi": 62,
      "noteNumber": 62,
      "velocity": 0.51,
      "track": "Piano",
      "channel": 2,
      "lane": "J"
    },
    {
      "time": 33.247,
      "duration": 0.519,
      "midi": 64,
      "noteNumber": 64,
      "velocity": 0.51,
      "track": "Piano",
      "channel": 2,
      "lane": "J"
    },
    {
      "time": 33.247,
      "duration": 0.519,
      "midi": 55,
      "noteNumber": 55,
      "velocity": 0.51,
      "track": "Piano",
      "channel": 2,
      "lane": "J"
    },
    {
      "time": 33.247,
      "duration": 0.519,
      "midi": 71,
      "noteNumber": 71,
      "velocity": 0.51,
      "track": "Piano",
      "channel": 2,
      "lane": "K"
    },
    {
      "time": 33.247,
      "duration": 0.054,
      "midi": 51,
      "noteNumber": 51,
      "velocity": 0.75,
      "track": "Drums",
      "channel": 9,
      "lane": "F"
    },
    {
      "time": 33.247,
      "duration": 0.022,
      "midi": 59,
      "noteNumber": 59,
      "velocity": 0.85,
      "track": "Hi Ride Cymbal",
      "channel": 9,
      "lane": "J"
    },
    {
      "time": 33.249,
      "duration": 0.455,
      "midi": 69,
      "noteNumber": 69,
      "velocity": 0.64,
      "track": "Vibraphone",
      "channel": 3,
      "lane": "K"
    },
    {
      "time": 33.249,
      "duration": 0.455,
      "midi": 69,
      "noteNumber": 69,
      "velocity": 0.64,
      "track": "Flute",
      "channel": 4,
      "lane": "K"
    },
    {
      "time": 33.249,
      "duration": 0.455,
      "midi": 69,
      "noteNumber": 69,
      "velocity": 0.64,
      "track": "Pad2",
      "channel": 5,
      "lane": "K"
    },
    {
      "time": 33.439,
      "duration": 0.067,
      "midi": 28,
      "noteNumber": 28,
      "velocity": 0.95,
      "track": "Bass",
      "channel": 1,
      "lane": "D"
    },
    {
      "time": 33.506,
      "duration": 0.258,
      "midi": 40,
      "noteNumber": 40,
      "velocity": 1,
      "track": "Bass",
      "channel": 1,
      "lane": "F"
    },
    {
      "time": 33.506,
      "duration": 0.054,
      "midi": 42,
      "noteNumber": 42,
      "velocity": 0.67,
      "track": "Drums",
      "channel": 9,
      "lane": "F"
    },
    {
      "time": 33.506,
      "duration": 0.054,
      "midi": 51,
      "noteNumber": 51,
      "velocity": 0.83,
      "track": "Drums",
      "channel": 9,
      "lane": "F"
    },
    {
      "time": 33.506,
      "duration": 0.022,
      "midi": 42,
      "noteNumber": 42,
      "velocity": 0.72,
      "track": "Closed Hi Hat",
      "channel": 9,
      "lane": "F"
    },
    {
      "time": 33.506,
      "duration": 0.022,
      "midi": 59,
      "noteNumber": 59,
      "velocity": 0.71,
      "track": "Hi Ride Cymbal",
      "channel": 9,
      "lane": "J"
    },
    {
      "time": 33.68,
      "duration": 0.022,
      "midi": 59,
      "noteNumber": 59,
      "velocity": 0.71,
      "track": "Hi Ride Cymbal",
      "channel": 9,
      "lane": "J"
    },
    {
      "time": 33.697,
      "duration": 0.054,
      "midi": 51,
      "noteNumber": 51,
      "velocity": 0.59,
      "track": "Drums",
      "channel": 9,
      "lane": "F"
    },
    {
      "time": 33.766,
      "duration": 0.145,
      "midi": 41,
      "noteNumber": 41,
      "velocity": 0.88,
      "track": "Bass",
      "channel": 1,
      "lane": "F"
    },
    {
      "time": 33.766,
      "duration": 0.519,
      "midi": 63,
      "noteNumber": 63,
      "velocity": 0.51,
      "track": "Piano",
      "channel": 2,
      "lane": "J"
    },
    {
      "time": 33.766,
      "duration": 0.519,
      "midi": 66,
      "noteNumber": 66,
      "velocity": 0.51,
      "track": "Piano",
      "channel": 2,
      "lane": "J"
    },
    {
      "time": 33.766,
      "duration": 0.519,
      "midi": 57,
      "noteNumber": 57,
      "velocity": 0.51,
      "track": "Piano",
      "channel": 2,
      "lane": "J"
    },
    {
      "time": 33.766,
      "duration": 0.519,
      "midi": 73,
      "noteNumber": 73,
      "velocity": 0.51,
      "track": "Piano",
      "channel": 2,
      "lane": "K"
    },
    {
      "time": 33.766,
      "duration": 0.054,
      "midi": 51,
      "noteNumber": 51,
      "velocity": 0.75,
      "track": "Drums",
      "channel": 9,
      "lane": "F"
    },
    {
      "time": 33.766,
      "duration": 0.022,
      "midi": 59,
      "noteNumber": 59,
      "velocity": 0.69,
      "track": "Hi Ride Cymbal",
      "channel": 9,
      "lane": "J"
    },
    {
      "time": 33.784,
      "duration": 0.455,
      "midi": 69,
      "noteNumber": 69,
      "velocity": 0.64,
      "track": "Vibraphone",
      "channel": 3,
      "lane": "K"
    },
    {
      "time": 33.784,
      "duration": 0.455,
      "midi": 69,
      "noteNumber": 69,
      "velocity": 0.64,
      "track": "Flute",
      "channel": 4,
      "lane": "K"
    },
    {
      "time": 33.784,
      "duration": 0.455,
      "midi": 69,
      "noteNumber": 69,
      "velocity": 0.64,
      "track": "Pad2",
      "channel": 5,
      "lane": "K"
    },
    {
      "time": 33.959,
      "duration": 0.063,
      "midi": 41,
      "noteNumber": 41,
      "velocity": 0.98,
      "track": "Bass",
      "channel": 1,
      "lane": "F"
    },
    {
      "time": 34.026,
      "duration": 0.26,
      "midi": 33,
      "noteNumber": 33,
      "velocity": 0.83,
      "track": "Bass",
      "channel": 1,
      "lane": "D"
    },
    {
      "time": 34.026,
      "duration": 0.054,
      "midi": 42,
      "noteNumber": 42,
      "velocity": 0.67,
      "track": "Drums",
      "channel": 9,
      "lane": "F"
    },
    {
      "time": 34.026,
      "duration": 0.054,
      "midi": 37,
      "noteNumber": 37,
      "velocity": 0.59,
      "track": "Drums",
      "channel": 9,
      "lane": "F"
    },
    {
      "time": 34.026,
      "duration": 0.054,
      "midi": 51,
      "noteNumber": 51,
      "velocity": 0.83,
      "track": "Drums",
      "channel": 9,
      "lane": "F"
    },
    {
      "time": 34.026,
      "duration": 0.022,
      "midi": 42,
      "noteNumber": 42,
      "velocity": 0.71,
      "track": "Closed Hi Hat",
      "channel": 9,
      "lane": "F"
    },
    {
      "time": 34.026,
      "duration": 0.022,
      "midi": 59,
      "noteNumber": 59,
      "velocity": 0.7,
      "track": "Hi Ride Cymbal",
      "channel": 9,
      "lane": "J"
    },
    {
      "time": 34.199,
      "duration": 0.022,
      "midi": 59,
      "noteNumber": 59,
      "velocity": 0.72,
      "track": "Hi Ride Cymbal",
      "channel": 9,
      "lane": "J"
    },
    {
      "time": 34.216,
      "duration": 0.054,
      "midi": 51,
      "noteNumber": 51,
      "velocity": 0.59,
      "track": "Drums",
      "channel": 9,
      "lane": "F"
    },
    {
      "time": 34.286,
      "duration": 0.307,
      "midi": 34,
      "noteNumber": 34,
      "velocity": 0.87,
      "track": "Bass",
      "channel": 1,
      "lane": "D"
    },
    {
      "time": 34.286,
      "duration": 0.519,
      "midi": 57,
      "noteNumber": 57,
      "velocity": 0.51,
      "track": "Piano",
      "channel": 2,
      "lane": "J"
    },
    {
      "time": 34.286,
      "duration": 0.519,
      "midi": 72,
      "noteNumber": 72,
      "velocity": 0.51,
      "track": "Piano",
      "channel": 2,
      "lane": "K"
    },
    {
      "time": 34.286,
      "duration": 0.519,
      "midi": 62,
      "noteNumber": 62,
      "velocity": 0.51,
      "track": "Piano",
      "channel": 2,
      "lane": "J"
    },
    {
      "time": 34.286,
      "duration": 0.519,
      "midi": 65,
      "noteNumber": 65,
      "velocity": 0.51,
      "track": "Piano",
      "channel": 2,
      "lane": "J"
    },
    {
      "time": 34.286,
      "duration": 0.054,
      "midi": 51,
      "noteNumber": 51,
      "velocity": 0.75,
      "track": "Drums",
      "channel": 9,
      "lane": "F"
    },
    {
      "time": 34.286,
      "duration": 0.022,
      "midi": 59,
      "noteNumber": 59,
      "velocity": 0.87,
      "track": "Hi Ride Cymbal",
      "channel": 9,
      "lane": "J"
    },
    {
      "time": 34.301,
      "duration": 0.472,
      "midi": 69,
      "noteNumber": 69,
      "velocity": 0.61,
      "track": "Vibraphone",
      "channel": 3,
      "lane": "K"
    },
    {
      "time": 34.301,
      "duration": 0.472,
      "midi": 69,
      "noteNumber": 69,
      "velocity": 0.61,
      "track": "Flute",
      "channel": 4,
      "lane": "K"
    },
    {
      "time": 34.301,
      "duration": 0.472,
      "midi": 69,
      "noteNumber": 69,
      "velocity": 0.61,
      "track": "Pad2",
      "channel": 5,
      "lane": "K"
    },
    {
      "time": 34.545,
      "duration": 0.26,
      "midi": 41,
      "noteNumber": 41,
      "velocity": 0.87,
      "track": "Bass",
      "channel": 1,
      "lane": "F"
    },
    {
      "time": 34.545,
      "duration": 0.054,
      "midi": 42,
      "noteNumber": 42,
      "velocity": 0.67,
      "track": "Drums",
      "channel": 9,
      "lane": "F"
    },
    {
      "time": 34.545,
      "duration": 0.054,
      "midi": 51,
      "noteNumber": 51,
      "velocity": 0.83,
      "track": "Drums",
      "channel": 9,
      "lane": "F"
    },
    {
      "time": 34.545,
      "duration": 0.022,
      "midi": 42,
      "noteNumber": 42,
      "velocity": 0.7,
      "track": "Closed Hi Hat",
      "channel": 9,
      "lane": "F"
    },
    {
      "time": 34.545,
      "duration": 0.022,
      "midi": 59,
      "noteNumber": 59,
      "velocity": 0.71,
      "track": "Hi Ride Cymbal",
      "channel": 9,
      "lane": "J"
    },
    {
      "time": 34.719,
      "duration": 0.022,
      "midi": 59,
      "noteNumber": 59,
      "velocity": 0.7,
      "track": "Hi Ride Cymbal",
      "channel": 9,
      "lane": "J"
    },
    {
      "time": 34.738,
      "duration": 0.054,
      "midi": 51,
      "noteNumber": 51,
      "velocity": 0.59,
      "track": "Drums",
      "channel": 9,
      "lane": "F"
    },
    {
      "time": 34.805,
      "duration": 0.145,
      "midi": 37,
      "noteNumber": 37,
      "velocity": 0.88,
      "track": "Bass",
      "channel": 1,
      "lane": "F"
    },
    {
      "time": 34.805,
      "duration": 0.519,
      "midi": 59,
      "noteNumber": 59,
      "velocity": 0.51,
      "track": "Piano",
      "channel": 2,
      "lane": "J"
    },
    {
      "time": 34.805,
      "duration": 0.519,
      "midi": 75,
      "noteNumber": 75,
      "velocity": 0.51,
      "track": "Piano",
      "channel": 2,
      "lane": "K"
    },
    {
      "time": 34.805,
      "duration": 0.519,
      "midi": 65,
      "noteNumber": 65,
      "velocity": 0.51,
      "track": "Piano",
      "channel": 2,
      "lane": "J"
    },
    {
      "time": 34.805,
      "duration": 0.519,
      "midi": 70,
      "noteNumber": 70,
      "velocity": 0.51,
      "track": "Piano",
      "channel": 2,
      "lane": "K"
    },
    {
      "time": 34.805,
      "duration": 0.054,
      "midi": 51,
      "noteNumber": 51,
      "velocity": 0.75,
      "track": "Drums",
      "channel": 9,
      "lane": "F"
    },
    {
      "time": 34.805,
      "duration": 0.022,
      "midi": 59,
      "noteNumber": 59,
      "velocity": 0.69,
      "track": "Hi Ride Cymbal",
      "channel": 9,
      "lane": "J"
    },
    {
      "time": 34.812,
      "duration": 0.463,
      "midi": 70,
      "noteNumber": 70,
      "velocity": 0.68,
      "track": "Vibraphone",
      "channel": 3,
      "lane": "K"
    },
    {
      "time": 34.812,
      "duration": 0.463,
      "midi": 70,
      "noteNumber": 70,
      "velocity": 0.68,
      "track": "Flute",
      "channel": 4,
      "lane": "K"
    },
    {
      "time": 34.812,
      "duration": 0.463,
      "midi": 70,
      "noteNumber": 70,
      "velocity": 0.68,
      "track": "Pad2",
      "channel": 5,
      "lane": "K"
    },
    {
      "time": 34.998,
      "duration": 0.063,
      "midi": 37,
      "noteNumber": 37,
      "velocity": 0.98,
      "track": "Bass",
      "channel": 1,
      "lane": "F"
    },
    {
      "time": 35.065,
      "duration": 0.26,
      "midi": 41,
      "noteNumber": 41,
      "velocity": 0.83,
      "track": "Bass",
      "channel": 1,
      "lane": "F"
    },
    {
      "time": 35.065,
      "duration": 0.054,
      "midi": 42,
      "noteNumber": 42,
      "velocity": 0.67,
      "track": "Drums",
      "channel": 9,
      "lane": "F"
    },
    {
      "time": 35.065,
      "duration": 0.054,
      "midi": 37,
      "noteNumber": 37,
      "velocity": 0.67,
      "track": "Drums",
      "channel": 9,
      "lane": "F"
    },
    {
      "time": 35.065,
      "duration": 0.054,
      "midi": 51,
      "noteNumber": 51,
      "velocity": 0.83,
      "track": "Drums",
      "channel": 9,
      "lane": "F"
    },
    {
      "time": 35.065,
      "duration": 0.022,
      "midi": 42,
      "noteNumber": 42,
      "velocity": 0.72,
      "track": "Closed Hi Hat",
      "channel": 9,
      "lane": "F"
    },
    {
      "time": 35.065,
      "duration": 0.022,
      "midi": 59,
      "noteNumber": 59,
      "velocity": 0.72,
      "track": "Hi Ride Cymbal",
      "channel": 9,
      "lane": "J"
    },
    {
      "time": 35.238,
      "duration": 0.022,
      "midi": 59,
      "noteNumber": 59,
      "velocity": 0.72,
      "track": "Hi Ride Cymbal",
      "channel": 9,
      "lane": "J"
    },
    {
      "time": 35.258,
      "duration": 0.054,
      "midi": 51,
      "noteNumber": 51,
      "velocity": 0.59,
      "track": "Drums",
      "channel": 9,
      "lane": "F"
    },
    {
      "time": 35.325,
      "duration": 0.307,
      "midi": 42,
      "noteNumber": 42,
      "velocity": 0.87,
      "track": "Bass",
      "channel": 1,
      "lane": "F"
    },
    {
      "time": 35.325,
      "duration": 0.519,
      "midi": 65,
      "noteNumber": 65,
      "velocity": 0.51,
      "track": "Piano",
      "channel": 2,
      "lane": "J"
    },
    {
      "time": 35.325,
      "duration": 0.519,
      "midi": 68,
      "noteNumber": 68,
      "velocity": 0.51,
      "track": "Piano",
      "channel": 2,
      "lane": "K"
    },
    {
      "time": 35.325,
      "duration": 0.519,
      "midi": 58,
      "noteNumber": 58,
      "velocity": 0.51,
      "track": "Piano",
      "channel": 2,
      "lane": "J"
    },
    {
      "time": 35.325,
      "duration": 0.519,
      "midi": 61,
      "noteNumber": 61,
      "velocity": 0.51,
      "track": "Piano",
      "channel": 2,
      "lane": "J"
    },
    {
      "time": 35.325,
      "duration": 0.054,
      "midi": 51,
      "noteNumber": 51,
      "velocity": 0.75,
      "track": "Drums",
      "channel": 9,
      "lane": "F"
    },
    {
      "time": 35.325,
      "duration": 0.022,
      "midi": 59,
      "noteNumber": 59,
      "velocity": 0.86,
      "track": "Hi Ride Cymbal",
      "channel": 9,
      "lane": "J"
    },
    {
      "time": 35.338,
      "duration": 0.5,
      "midi": 73,
      "noteNumber": 73,
      "velocity": 0.78,
      "track": "Vibraphone",
      "channel": 3,
      "lane": "K"
    },
    {
      "time": 35.338,
      "duration": 0.5,
      "midi": 73,
      "noteNumber": 73,
      "velocity": 0.78,
      "track": "Flute",
      "channel": 4,
      "lane": "K"
    },
    {
      "time": 35.338,
      "duration": 0.5,
      "midi": 73,
      "noteNumber": 73,
      "velocity": 0.78,
      "track": "Pad2",
      "channel": 5,
      "lane": "K"
    },
    {
      "time": 35.584,
      "duration": 0.26,
      "midi": 49,
      "noteNumber": 49,
      "velocity": 0.87,
      "track": "Bass",
      "channel": 1,
      "lane": "F"
    },
    {
      "time": 35.584,
      "duration": 0.054,
      "midi": 42,
      "noteNumber": 42,
      "velocity": 0.67,
      "track": "Drums",
      "channel": 9,
      "lane": "F"
    },
    {
      "time": 35.584,
      "duration": 0.054,
      "midi": 51,
      "noteNumber": 51,
      "velocity": 0.83,
      "track": "Drums",
      "channel": 9,
      "lane": "F"
    },
    {
      "time": 35.584,
      "duration": 0.022,
      "midi": 42,
      "noteNumber": 42,
      "velocity": 0.72,
      "track": "Closed Hi Hat",
      "channel": 9,
      "lane": "F"
    },
    {
      "time": 35.584,
      "duration": 0.022,
      "midi": 59,
      "noteNumber": 59,
      "velocity": 0.69,
      "track": "Hi Ride Cymbal",
      "channel": 9,
      "lane": "J"
    },
    {
      "time": 35.758,
      "duration": 0.022,
      "midi": 59,
      "noteNumber": 59,
      "velocity": 0.69,
      "track": "Hi Ride Cymbal",
      "channel": 9,
      "lane": "J"
    },
    {
      "time": 35.775,
      "duration": 0.054,
      "midi": 51,
      "noteNumber": 51,
      "velocity": 0.59,
      "track": "Drums",
      "channel": 9,
      "lane": "F"
    },
    {
      "time": 35.844,
      "duration": 0.234,
      "midi": 33,
      "noteNumber": 33,
      "velocity": 0.92,
      "track": "Bass",
      "channel": 1,
      "lane": "D"
    },
    {
      "time": 35.844,
      "duration": 0.519,
      "midi": 55,
      "noteNumber": 55,
      "velocity": 0.51,
      "track": "Piano",
      "channel": 2,
      "lane": "J"
    },
    {
      "time": 35.844,
      "duration": 0.519,
      "midi": 58,
      "noteNumber": 58,
      "velocity": 0.51,
      "track": "Piano",
      "channel": 2,
      "lane": "J"
    },
    {
      "time": 35.844,
      "duration": 0.519,
      "midi": 61,
      "noteNumber": 61,
      "velocity": 0.51,
      "track": "Piano",
      "channel": 2,
      "lane": "J"
    },
    {
      "time": 35.844,
      "duration": 0.519,
      "midi": 65,
      "noteNumber": 65,
      "velocity": 0.51,
      "track": "Piano",
      "channel": 2,
      "lane": "J"
    },
    {
      "time": 35.844,
      "duration": 0.054,
      "midi": 51,
      "noteNumber": 51,
      "velocity": 0.75,
      "track": "Drums",
      "channel": 9,
      "lane": "F"
    },
    {
      "time": 35.844,
      "duration": 0.022,
      "midi": 59,
      "noteNumber": 59,
      "velocity": 0.71,
      "track": "Hi Ride Cymbal",
      "channel": 9,
      "lane": "J"
    },
    {
      "time": 35.87,
      "duration": 0.145,
      "midi": 72,
      "noteNumber": 72,
      "velocity": 0.63,
      "track": "Vibraphone",
      "channel": 3,
      "lane": "K"
    },
    {
      "time": 35.87,
      "duration": 0.145,
      "midi": 72,
      "noteNumber": 72,
      "velocity": 0.63,
      "track": "Flute",
      "channel": 4,
      "lane": "K"
    },
    {
      "time": 35.87,
      "duration": 0.145,
      "midi": 72,
      "noteNumber": 72,
      "velocity": 0.63,
      "track": "Pad2",
      "channel": 5,
      "lane": "K"
    },
    {
      "time": 36.037,
      "duration": 0.069,
      "midi": 21,
      "noteNumber": 21,
      "velocity": 0.74,
      "track": "Bass",
      "channel": 1,
      "lane": "D"
    },
    {
      "time": 36.104,
      "duration": 0.054,
      "midi": 42,
      "noteNumber": 42,
      "velocity": 0.67,
      "track": "Drums",
      "channel": 9,
      "lane": "F"
    },
    {
      "time": 36.104,
      "duration": 0.054,
      "midi": 37,
      "noteNumber": 37,
      "velocity": 0.59,
      "track": "Drums",
      "channel": 9,
      "lane": "F"
    },
    {
      "time": 36.104,
      "duration": 0.054,
      "midi": 51,
      "noteNumber": 51,
      "velocity": 0.83,
      "track": "Drums",
      "channel": 9,
      "lane": "F"
    },
    {
      "time": 36.104,
      "duration": 0.022,
      "midi": 42,
      "noteNumber": 42,
      "velocity": 0.72,
      "track": "Closed Hi Hat",
      "channel": 9,
      "lane": "F"
    },
    {
      "time": 36.104,
      "duration": 0.022,
      "midi": 59,
      "noteNumber": 59,
      "velocity": 0.72,
      "track": "Hi Ride Cymbal",
      "channel": 9,
      "lane": "J"
    },
    {
      "time": 36.106,
      "duration": 0.258,
      "midi": 39,
      "noteNumber": 39,
      "velocity": 0.92,
      "track": "Bass",
      "channel": 1,
      "lane": "F"
    },
    {
      "time": 36.123,
      "duration": 0.147,
      "midi": 70,
      "noteNumber": 70,
      "velocity": 0.63,
      "track": "Vibraphone",
      "channel": 3,
      "lane": "K"
    },
    {
      "time": 36.123,
      "duration": 0.147,
      "midi": 70,
      "noteNumber": 70,
      "velocity": 0.63,
      "track": "Flute",
      "channel": 4,
      "lane": "K"
    },
    {
      "time": 36.123,
      "duration": 0.147,
      "midi": 70,
      "noteNumber": 70,
      "velocity": 0.63,
      "track": "Pad2",
      "channel": 5,
      "lane": "K"
    },
    {
      "time": 36.277,
      "duration": 0.022,
      "midi": 59,
      "noteNumber": 59,
      "velocity": 0.72,
      "track": "Hi Ride Cymbal",
      "channel": 9,
      "lane": "J"
    },
    {
      "time": 36.294,
      "duration": 0.054,
      "midi": 51,
      "noteNumber": 51,
      "velocity": 0.59,
      "track": "Drums",
      "channel": 9,
      "lane": "F"
    },
    {
      "time": 36.309,
      "duration": 0.972,
      "midi": 69,
      "noteNumber": 69,
      "velocity": 0.67,
      "track": "Vibraphone",
      "channel": 3,
      "lane": "K"
    },
    {
      "time": 36.309,
      "duration": 0.972,
      "midi": 69,
      "noteNumber": 69,
      "velocity": 0.67,
      "track": "Flute",
      "channel": 4,
      "lane": "K"
    },
    {
      "time": 36.309,
      "duration": 0.972,
      "midi": 69,
      "noteNumber": 69,
      "velocity": 0.67,
      "track": "Pad2",
      "channel": 5,
      "lane": "K"
    },
    {
      "time": 36.364,
      "duration": 0.301,
      "midi": 50,
      "noteNumber": 50,
      "velocity": 0.93,
      "track": "Bass",
      "channel": 1,
      "lane": "F"
    },
    {
      "time": 36.364,
      "duration": 1.039,
      "midi": 61,
      "noteNumber": 61,
      "velocity": 0.51,
      "track": "Piano",
      "channel": 2,
      "lane": "J"
    },
    {
      "time": 36.364,
      "duration": 1.039,
      "midi": 64,
      "noteNumber": 64,
      "velocity": 0.51,
      "track": "Piano",
      "channel": 2,
      "lane": "J"
    },
    {
      "time": 36.364,
      "duration": 1.039,
      "midi": 54,
      "noteNumber": 54,
      "velocity": 0.51,
      "track": "Piano",
      "channel": 2,
      "lane": "J"
    },
    {
      "time": 36.364,
      "duration": 1.039,
      "midi": 69,
      "noteNumber": 69,
      "velocity": 0.51,
      "track": "Piano",
      "channel": 2,
      "lane": "K"
    },
    {
      "time": 36.364,
      "duration": 0.054,
      "midi": 51,
      "noteNumber": 51,
      "velocity": 0.75,
      "track": "Drums",
      "channel": 9,
      "lane": "F"
    },
    {
      "time": 36.364,
      "duration": 0.022,
      "midi": 59,
      "noteNumber": 59,
      "velocity": 0.87,
      "track": "Hi Ride Cymbal",
      "channel": 9,
      "lane": "J"
    },
    {
      "time": 36.623,
      "duration": 0.279,
      "midi": 38,
      "noteNumber": 38,
      "velocity": 0.88,
      "track": "Bass",
      "channel": 1,
      "lane": "F"
    },
    {
      "time": 36.623,
      "duration": 0.054,
      "midi": 42,
      "noteNumber": 42,
      "velocity": 0.67,
      "track": "Drums",
      "channel": 9,
      "lane": "F"
    },
    {
      "time": 36.623,
      "duration": 0.054,
      "midi": 51,
      "noteNumber": 51,
      "velocity": 0.83,
      "track": "Drums",
      "channel": 9,
      "lane": "F"
    },
    {
      "time": 36.623,
      "duration": 0.022,
      "midi": 42,
      "noteNumber": 42,
      "velocity": 0.71,
      "track": "Closed Hi Hat",
      "channel": 9,
      "lane": "F"
    },
    {
      "time": 36.623,
      "duration": 0.022,
      "midi": 59,
      "noteNumber": 59,
      "velocity": 0.7,
      "track": "Hi Ride Cymbal",
      "channel": 9,
      "lane": "J"
    },
    {
      "time": 36.797,
      "duration": 0.022,
      "midi": 59,
      "noteNumber": 59,
      "velocity": 0.7,
      "track": "Hi Ride Cymbal",
      "channel": 9,
      "lane": "J"
    },
    {
      "time": 36.883,
      "duration": 0.277,
      "midi": 42,
      "noteNumber": 42,
      "velocity": 0.91,
      "track": "Bass",
      "channel": 1,
      "lane": "F"
    },
    {
      "time": 36.883,
      "duration": 0.054,
      "midi": 51,
      "noteNumber": 51,
      "velocity": 0.75,
      "track": "Drums",
      "channel": 9,
      "lane": "F"
    },
    {
      "time": 36.883,
      "duration": 0.022,
      "midi": 59,
      "noteNumber": 59,
      "velocity": 0.69,
      "track": "Hi Ride Cymbal",
      "channel": 9,
      "lane": "J"
    },
    {
      "time": 37.143,
      "duration": 0.26,
      "midi": 45,
      "noteNumber": 45,
      "velocity": 0.9,
      "track": "Bass",
      "channel": 1,
      "lane": "F"
    },
    {
      "time": 37.143,
      "duration": 0.054,
      "midi": 42,
      "noteNumber": 42,
      "velocity": 0.67,
      "track": "Drums",
      "channel": 9,
      "lane": "F"
    },
    {
      "time": 37.143,
      "duration": 0.054,
      "midi": 37,
      "noteNumber": 37,
      "velocity": 0.67,
      "track": "Drums",
      "channel": 9,
      "lane": "F"
    },
    {
      "time": 37.143,
      "duration": 0.054,
      "midi": 51,
      "noteNumber": 51,
      "velocity": 0.83,
      "track": "Drums",
      "channel": 9,
      "lane": "F"
    },
    {
      "time": 37.143,
      "duration": 0.022,
      "midi": 40,
      "noteNumber": 40,
      "velocity": 0.69,
      "track": "Tight Snare",
      "channel": 9,
      "lane": "F"
    },
    {
      "time": 37.143,
      "duration": 0.022,
      "midi": 42,
      "noteNumber": 42,
      "velocity": 0.7,
      "track": "Closed Hi Hat",
      "channel": 9,
      "lane": "F"
    },
    {
      "time": 37.143,
      "duration": 0.022,
      "midi": 59,
      "noteNumber": 59,
      "velocity": 0.71,
      "track": "Hi Ride Cymbal",
      "channel": 9,
      "lane": "J"
    },
    {
      "time": 37.316,
      "duration": 0.022,
      "midi": 59,
      "noteNumber": 59,
      "velocity": 0.72,
      "track": "Hi Ride Cymbal",
      "channel": 9,
      "lane": "J"
    },
    {
      "time": 37.403,
      "duration": 0.145,
      "midi": 38,
      "noteNumber": 38,
      "velocity": 0.88,
      "track": "Bass",
      "channel": 1,
      "lane": "F"
    },
    {
      "time": 37.403,
      "duration": 0.519,
      "midi": 60,
      "noteNumber": 60,
      "velocity": 0.51,
      "track": "Piano",
      "channel": 2,
      "lane": "J"
    },
    {
      "time": 37.403,
      "duration": 0.519,
      "midi": 62,
      "noteNumber": 62,
      "velocity": 0.51,
      "track": "Piano",
      "channel": 2,
      "lane": "J"
    },
    {
      "time": 37.403,
      "duration": 0.519,
      "midi": 53,
      "noteNumber": 53,
      "velocity": 0.51,
      "track": "Piano",
      "channel": 2,
      "lane": "J"
    },
    {
      "time": 37.403,
      "duration": 0.519,
      "midi": 57,
      "noteNumber": 57,
      "velocity": 0.51,
      "track": "Piano",
      "channel": 2,
      "lane": "J"
    },
    {
      "time": 37.403,
      "duration": 0.054,
      "midi": 51,
      "noteNumber": 51,
      "velocity": 0.75,
      "track": "Drums",
      "channel": 9,
      "lane": "F"
    },
    {
      "time": 37.403,
      "duration": 0.022,
      "midi": 59,
      "noteNumber": 59,
      "velocity": 0.86,
      "track": "Hi Ride Cymbal",
      "channel": 9,
      "lane": "J"
    },
    {
      "time": 37.426,
      "duration": 0.437,
      "midi": 67,
      "noteNumber": 67,
      "velocity": 0.62,
      "track": "Vibraphone",
      "channel": 3,
      "lane": "J"
    },
    {
      "time": 37.426,
      "duration": 0.437,
      "midi": 67,
      "noteNumber": 67,
      "velocity": 0.62,
      "track": "Flute",
      "channel": 4,
      "lane": "J"
    },
    {
      "time": 37.426,
      "duration": 0.437,
      "midi": 67,
      "noteNumber": 67,
      "velocity": 0.62,
      "track": "Pad2",
      "channel": 5,
      "lane": "J"
    },
    {
      "time": 37.595,
      "duration": 0.063,
      "midi": 38,
      "noteNumber": 38,
      "velocity": 0.98,
      "track": "Bass",
      "channel": 1,
      "lane": "F"
    },
    {
      "time": 37.662,
      "duration": 0.26,
      "midi": 38,
      "noteNumber": 38,
      "velocity": 0.83,
      "track": "Bass",
      "channel": 1,
      "lane": "F"
    },
    {
      "time": 37.662,
      "duration": 0.054,
      "midi": 42,
      "noteNumber": 42,
      "velocity": 0.67,
      "track": "Drums",
      "channel": 9,
      "lane": "F"
    },
    {
      "time": 37.662,
      "duration": 0.054,
      "midi": 51,
      "noteNumber": 51,
      "velocity": 0.83,
      "track": "Drums",
      "channel": 9,
      "lane": "F"
    },
    {
      "time": 37.662,
      "duration": 0.022,
      "midi": 42,
      "noteNumber": 42,
      "velocity": 0.7,
      "track": "Closed Hi Hat",
      "channel": 9,
      "lane": "F"
    },
    {
      "time": 37.662,
      "duration": 0.022,
      "midi": 59,
      "noteNumber": 59,
      "velocity": 0.69,
      "track": "Hi Ride Cymbal",
      "channel": 9,
      "lane": "J"
    },
    {
      "time": 37.835,
      "duration": 0.022,
      "midi": 59,
      "noteNumber": 59,
      "velocity": 0.69,
      "track": "Hi Ride Cymbal",
      "channel": 9,
      "lane": "J"
    },
    {
      "time": 37.853,
      "duration": 0.054,
      "midi": 51,
      "noteNumber": 51,
      "velocity": 0.59,
      "track": "Drums",
      "channel": 9,
      "lane": "F"
    },
    {
      "time": 37.922,
      "duration": 0.292,
      "midi": 39,
      "noteNumber": 39,
      "velocity": 0.95,
      "track": "Bass",
      "channel": 1,
      "lane": "F"
    },
    {
      "time": 37.922,
      "duration": 0.519,
      "midi": 61,
      "noteNumber": 61,
      "velocity": 0.51,
      "track": "Piano",
      "channel": 2,
      "lane": "J"
    },
    {
      "time": 37.922,
      "duration": 0.519,
      "midi": 65,
      "noteNumber": 65,
      "velocity": 0.51,
      "track": "Piano",
      "channel": 2,
      "lane": "J"
    },
    {
      "time": 37.922,
      "duration": 0.519,
      "midi": 55,
      "noteNumber": 55,
      "velocity": 0.51,
      "track": "Piano",
      "channel": 2,
      "lane": "J"
    },
    {
      "time": 37.922,
      "duration": 0.519,
      "midi": 70,
      "noteNumber": 70,
      "velocity": 0.51,
      "track": "Piano",
      "channel": 2,
      "lane": "K"
    },
    {
      "time": 37.922,
      "duration": 0.054,
      "midi": 51,
      "noteNumber": 51,
      "velocity": 0.75,
      "track": "Drums",
      "channel": 9,
      "lane": "F"
    },
    {
      "time": 37.922,
      "duration": 0.022,
      "midi": 59,
      "noteNumber": 59,
      "velocity": 0.71,
      "track": "Hi Ride Cymbal",
      "channel": 9,
      "lane": "J"
    },
    {
      "time": 37.937,
      "duration": 0.476,
      "midi": 67,
      "noteNumber": 67,
      "velocity": 0.67,
      "track": "Vibraphone",
      "channel": 3,
      "lane": "J"
    },
    {
      "time": 37.937,
      "duration": 0.476,
      "midi": 67,
      "noteNumber": 67,
      "velocity": 0.67,
      "track": "Flute",
      "channel": 4,
      "lane": "J"
    },
    {
      "time": 37.937,
      "duration": 0.476,
      "midi": 67,
      "noteNumber": 67,
      "velocity": 0.67,
      "track": "Pad2",
      "channel": 5,
      "lane": "J"
    },
    {
      "time": 38.182,
      "duration": 0.236,
      "midi": 43,
      "noteNumber": 43,
      "velocity": 0.93,
      "track": "Bass",
      "channel": 1,
      "lane": "F"
    },
    {
      "time": 38.182,
      "duration": 0.054,
      "midi": 42,
      "noteNumber": 42,
      "velocity": 0.67,
      "track": "Drums",
      "channel": 9,
      "lane": "F"
    },
    {
      "time": 38.182,
      "duration": 0.054,
      "midi": 37,
      "noteNumber": 37,
      "velocity": 0.59,
      "track": "Drums",
      "channel": 9,
      "lane": "F"
    },
    {
      "time": 38.182,
      "duration": 0.054,
      "midi": 51,
      "noteNumber": 51,
      "velocity": 0.83,
      "track": "Drums",
      "channel": 9,
      "lane": "F"
    },
    {
      "time": 38.182,
      "duration": 0.022,
      "midi": 42,
      "noteNumber": 42,
      "velocity": 0.71,
      "track": "Closed Hi Hat",
      "channel": 9,
      "lane": "F"
    },
    {
      "time": 38.182,
      "duration": 0.022,
      "midi": 59,
      "noteNumber": 59,
      "velocity": 0.72,
      "track": "Hi Ride Cymbal",
      "channel": 9,
      "lane": "J"
    },
    {
      "time": 38.355,
      "duration": 0.022,
      "midi": 59,
      "noteNumber": 59,
      "velocity": 0.72,
      "track": "Hi Ride Cymbal",
      "channel": 9,
      "lane": "J"
    },
    {
      "time": 38.372,
      "duration": 0.054,
      "midi": 51,
      "noteNumber": 51,
      "velocity": 0.59,
      "track": "Drums",
      "channel": 9,
      "lane": "F"
    },
    {
      "time": 38.442,
      "duration": 0.145,
      "midi": 44,
      "noteNumber": 44,
      "velocity": 0.88,
      "track": "Bass",
      "channel": 1,
      "lane": "F"
    },
    {
      "time": 38.442,
      "duration": 0.519,
      "midi": 55,
      "noteNumber": 55,
      "velocity": 0.51,
      "track": "Piano",
      "channel": 2,
      "lane": "J"
    },
    {
      "time": 38.442,
      "duration": 0.519,
      "midi": 70,
      "noteNumber": 70,
      "velocity": 0.51,
      "track": "Piano",
      "channel": 2,
      "lane": "K"
    },
    {
      "time": 38.442,
      "duration": 0.519,
      "midi": 60,
      "noteNumber": 60,
      "velocity": 0.51,
      "track": "Piano",
      "channel": 2,
      "lane": "J"
    },
    {
      "time": 38.442,
      "duration": 0.519,
      "midi": 63,
      "noteNumber": 63,
      "velocity": 0.51,
      "track": "Piano",
      "channel": 2,
      "lane": "J"
    },
    {
      "time": 38.442,
      "duration": 0.054,
      "midi": 51,
      "noteNumber": 51,
      "velocity": 0.75,
      "track": "Drums",
      "channel": 9,
      "lane": "F"
    },
    {
      "time": 38.442,
      "duration": 0.022,
      "midi": 59,
      "noteNumber": 59,
      "velocity": 0.87,
      "track": "Hi Ride Cymbal",
      "channel": 9,
      "lane": "J"
    },
    {
      "time": 38.474,
      "duration": 0.478,
      "midi": 67,
      "noteNumber": 67,
      "velocity": 0.54,
      "track": "Vibraphone",
      "channel": 3,
      "lane": "J"
    },
    {
      "time": 38.474,
      "duration": 0.478,
      "midi": 67,
      "noteNumber": 67,
      "velocity": 0.54,
      "track": "Flute",
      "channel": 4,
      "lane": "J"
    },
    {
      "time": 38.474,
      "duration": 0.478,
      "midi": 67,
      "noteNumber": 67,
      "velocity": 0.54,
      "track": "Pad2",
      "channel": 5,
      "lane": "J"
    },
    {
      "time": 38.634,
      "duration": 0.063,
      "midi": 44,
      "noteNumber": 44,
      "velocity": 0.98,
      "track": "Bass",
      "channel": 1,
      "lane": "F"
    },
    {
      "time": 38.701,
      "duration": 0.26,
      "midi": 34,
      "noteNumber": 34,
      "velocity": 0.83,
      "track": "Bass",
      "channel": 1,
      "lane": "D"
    },
    {
      "time": 38.701,
      "duration": 0.054,
      "midi": 42,
      "noteNumber": 42,
      "velocity": 0.67,
      "track": "Drums",
      "channel": 9,
      "lane": "F"
    },
    {
      "time": 38.701,
      "duration": 0.054,
      "midi": 51,
      "noteNumber": 51,
      "velocity": 0.83,
      "track": "Drums",
      "channel": 9,
      "lane": "F"
    },
    {
      "time": 38.701,
      "duration": 0.022,
      "midi": 42,
      "noteNumber": 42,
      "velocity": 0.69,
      "track": "Closed Hi Hat",
      "channel": 9,
      "lane": "F"
    },
    {
      "time": 38.701,
      "duration": 0.022,
      "midi": 59,
      "noteNumber": 59,
      "velocity": 0.7,
      "track": "Hi Ride Cymbal",
      "channel": 9,
      "lane": "J"
    },
    {
      "time": 38.874,
      "duration": 0.022,
      "midi": 59,
      "noteNumber": 59,
      "velocity": 0.7,
      "track": "Hi Ride Cymbal",
      "channel": 9,
      "lane": "J"
    },
    {
      "time": 38.961,
      "duration": 0.26,
      "midi": 35,
      "noteNumber": 35,
      "velocity": 0.97,
      "track": "Bass",
      "channel": 1,
      "lane": "D"
    },
    {
      "time": 38.961,
      "duration": 0.519,
      "midi": 57,
      "noteNumber": 57,
      "velocity": 0.51,
      "track": "Piano",
      "channel": 2,
      "lane": "J"
    },
    {
      "time": 38.961,
      "duration": 0.519,
      "midi": 73,
      "noteNumber": 73,
      "velocity": 0.51,
      "track": "Piano",
      "channel": 2,
      "lane": "K"
    },
    {
      "time": 38.961,
      "duration": 0.519,
      "midi": 63,
      "noteNumber": 63,
      "velocity": 0.51,
      "track": "Piano",
      "channel": 2,
      "lane": "J"
    },
    {
      "time": 38.961,
      "duration": 0.519,
      "midi": 68,
      "noteNumber": 68,
      "velocity": 0.51,
      "track": "Piano",
      "channel": 2,
      "lane": "K"
    },
    {
      "time": 38.961,
      "duration": 0.054,
      "midi": 51,
      "noteNumber": 51,
      "velocity": 0.75,
      "track": "Drums",
      "channel": 9,
      "lane": "F"
    },
    {
      "time": 38.961,
      "duration": 0.022,
      "midi": 59,
      "noteNumber": 59,
      "velocity": 0.69,
      "track": "Hi Ride Cymbal",
      "channel": 9,
      "lane": "J"
    },
    {
      "time": 38.985,
      "duration": 0.472,
      "midi": 68,
      "noteNumber": 68,
      "velocity": 0.65,
      "track": "Vibraphone",
      "channel": 3,
      "lane": "K"
    },
    {
      "time": 38.985,
      "duration": 0.472,
      "midi": 68,
      "noteNumber": 68,
      "velocity": 0.65,
      "track": "Flute",
      "channel": 4,
      "lane": "K"
    },
    {
      "time": 38.985,
      "duration": 0.472,
      "midi": 68,
      "noteNumber": 68,
      "velocity": 0.65,
      "track": "Pad2",
      "channel": 5,
      "lane": "K"
    },
    {
      "time": 39.221,
      "duration": 0.26,
      "midi": 35,
      "noteNumber": 35,
      "velocity": 1,
      "track": "Bass",
      "channel": 1,
      "lane": "D"
    },
    {
      "time": 39.221,
      "duration": 0.054,
      "midi": 42,
      "noteNumber": 42,
      "velocity": 0.67,
      "track": "Drums",
      "channel": 9,
      "lane": "F"
    },
    {
      "time": 39.221,
      "duration": 0.054,
      "midi": 37,
      "noteNumber": 37,
      "velocity": 0.67,
      "track": "Drums",
      "channel": 9,
      "lane": "F"
    },
    {
      "time": 39.221,
      "duration": 0.054,
      "midi": 51,
      "noteNumber": 51,
      "velocity": 0.83,
      "track": "Drums",
      "channel": 9,
      "lane": "F"
    },
    {
      "time": 39.221,
      "duration": 0.022,
      "midi": 42,
      "noteNumber": 42,
      "velocity": 0.72,
      "track": "Closed Hi Hat",
      "channel": 9,
      "lane": "F"
    },
    {
      "time": 39.221,
      "duration": 0.022,
      "midi": 59,
      "noteNumber": 59,
      "velocity": 0.71,
      "track": "Hi Ride Cymbal",
      "channel": 9,
      "lane": "J"
    },
    {
      "time": 39.394,
      "duration": 0.022,
      "midi": 59,
      "noteNumber": 59,
      "velocity": 0.72,
      "track": "Hi Ride Cymbal",
      "channel": 9,
      "lane": "J"
    },
    {
      "time": 39.48,
      "duration": 0.247,
      "midi": 40,
      "noteNumber": 40,
      "velocity": 0.91,
      "track": "Bass",
      "channel": 1,
      "lane": "F"
    },
    {
      "time": 39.48,
      "duration": 0.519,
      "midi": 63,
      "noteNumber": 63,
      "velocity": 0.51,
      "track": "Piano",
      "channel": 2,
      "lane": "J"
    },
    {
      "time": 39.48,
      "duration": 0.519,
      "midi": 66,
      "noteNumber": 66,
      "velocity": 0.51,
      "track": "Piano",
      "channel": 2,
      "lane": "J"
    },
    {
      "time": 39.48,
      "duration": 0.519,
      "midi": 56,
      "noteNumber": 56,
      "velocity": 0.51,
      "track": "Piano",
      "channel": 2,
      "lane": "J"
    },
    {
      "time": 39.48,
      "duration": 0.519,
      "midi": 59,
      "noteNumber": 59,
      "velocity": 0.51,
      "track": "Piano",
      "channel": 2,
      "lane": "J"
    },
    {
      "time": 39.48,
      "duration": 0.054,
      "midi": 51,
      "noteNumber": 51,
      "velocity": 0.75,
      "track": "Drums",
      "channel": 9,
      "lane": "F"
    },
    {
      "time": 39.48,
      "duration": 0.022,
      "midi": 59,
      "noteNumber": 59,
      "velocity": 0.85,
      "track": "Hi Ride Cymbal",
      "channel": 9,
      "lane": "J"
    },
    {
      "time": 39.5,
      "duration": 0.47,
      "midi": 71,
      "noteNumber": 71,
      "velocity": 0.65,
      "track": "Vibraphone",
      "channel": 3,
      "lane": "K"
    },
    {
      "time": 39.5,
      "duration": 0.47,
      "midi": 71,
      "noteNumber": 71,
      "velocity": 0.65,
      "track": "Flute",
      "channel": 4,
      "lane": "K"
    },
    {
      "time": 39.5,
      "duration": 0.47,
      "midi": 71,
      "noteNumber": 71,
      "velocity": 0.65,
      "track": "Pad2",
      "channel": 5,
      "lane": "K"
    },
    {
      "time": 39.74,
      "duration": 0.26,
      "midi": 42,
      "noteNumber": 42,
      "velocity": 0.87,
      "track": "Bass",
      "channel": 1,
      "lane": "F"
    },
    {
      "time": 39.74,
      "duration": 0.054,
      "midi": 42,
      "noteNumber": 42,
      "velocity": 0.67,
      "track": "Drums",
      "channel": 9,
      "lane": "F"
    },
    {
      "time": 39.74,
      "duration": 0.054,
      "midi": 51,
      "noteNumber": 51,
      "velocity": 0.83,
      "track": "Drums",
      "channel": 9,
      "lane": "F"
    },
    {
      "time": 39.74,
      "duration": 0.022,
      "midi": 42,
      "noteNumber": 42,
      "velocity": 0.71,
      "track": "Closed Hi Hat",
      "channel": 9,
      "lane": "F"
    },
    {
      "time": 39.74,
      "duration": 0.022,
      "midi": 59,
      "noteNumber": 59,
      "velocity": 0.7,
      "track": "Hi Ride Cymbal",
      "channel": 9,
      "lane": "J"
    },
    {
      "time": 39.913,
      "duration": 0.022,
      "midi": 59,
      "noteNumber": 59,
      "velocity": 0.7,
      "track": "Hi Ride Cymbal",
      "channel": 9,
      "lane": "J"
    },
    {
      "time": 39.931,
      "duration": 0.054,
      "midi": 51,
      "noteNumber": 51,
      "velocity": 0.59,
      "track": "Drums",
      "channel": 9,
      "lane": "F"
    },
    {
      "time": 40,
      "duration": 0.26,
      "midi": 43,
      "noteNumber": 43,
      "velocity": 0.97,
      "track": "Bass",
      "channel": 1,
      "lane": "F"
    },
    {
      "time": 40,
      "duration": 0.519,
      "midi": 65,
      "noteNumber": 65,
      "velocity": 0.51,
      "track": "Piano",
      "channel": 2,
      "lane": "J"
    },
    {
      "time": 40,
      "duration": 0.519,
      "midi": 68,
      "noteNumber": 68,
      "velocity": 0.51,
      "track": "Piano",
      "channel": 2,
      "lane": "K"
    },
    {
      "time": 40,
      "duration": 0.519,
      "midi": 59,
      "noteNumber": 59,
      "velocity": 0.51,
      "track": "Piano",
      "channel": 2,
      "lane": "J"
    },
    {
      "time": 40,
      "duration": 0.519,
      "midi": 75,
      "noteNumber": 75,
      "velocity": 0.51,
      "track": "Piano",
      "channel": 2,
      "lane": "K"
    },
    {
      "time": 40,
      "duration": 0.054,
      "midi": 51,
      "noteNumber": 51,
      "velocity": 0.75,
      "track": "Drums",
      "channel": 9,
      "lane": "F"
    },
    {
      "time": 40,
      "duration": 0.022,
      "midi": 59,
      "noteNumber": 59,
      "velocity": 0.7,
      "track": "Hi Ride Cymbal",
      "channel": 9,
      "lane": "J"
    },
    {
      "time": 40.032,
      "duration": 0.147,
      "midi": 70,
      "noteNumber": 70,
      "velocity": 0.66,
      "track": "Vibraphone",
      "channel": 3,
      "lane": "K"
    },
    {
      "time": 40.032,
      "duration": 0.147,
      "midi": 70,
      "noteNumber": 70,
      "velocity": 0.66,
      "track": "Flute",
      "channel": 4,
      "lane": "K"
    },
    {
      "time": 40.032,
      "duration": 0.147,
      "midi": 70,
      "noteNumber": 70,
      "velocity": 0.66,
      "track": "Pad2",
      "channel": 5,
      "lane": "K"
    },
    {
      "time": 40.26,
      "duration": 0.26,
      "midi": 43,
      "noteNumber": 43,
      "velocity": 1,
      "track": "Bass",
      "channel": 1,
      "lane": "F"
    },
    {
      "time": 40.26,
      "duration": 0.054,
      "midi": 42,
      "noteNumber": 42,
      "velocity": 0.67,
      "track": "Drums",
      "channel": 9,
      "lane": "F"
    },
    {
      "time": 40.26,
      "duration": 0.054,
      "midi": 37,
      "noteNumber": 37,
      "velocity": 0.59,
      "track": "Drums",
      "channel": 9,
      "lane": "F"
    },
    {
      "time": 40.26,
      "duration": 0.054,
      "midi": 51,
      "noteNumber": 51,
      "velocity": 0.83,
      "track": "Drums",
      "channel": 9,
      "lane": "F"
    },
    {
      "time": 40.26,
      "duration": 0.022,
      "midi": 42,
      "noteNumber": 42,
      "velocity": 0.71,
      "track": "Closed Hi Hat",
      "channel": 9,
      "lane": "F"
    },
    {
      "time": 40.26,
      "duration": 0.022,
      "midi": 59,
      "noteNumber": 59,
      "velocity": 0.69,
      "track": "Hi Ride Cymbal",
      "channel": 9,
      "lane": "J"
    },
    {
      "time": 40.286,
      "duration": 0.162,
      "midi": 68,
      "noteNumber": 68,
      "velocity": 0.69,
      "track": "Vibraphone",
      "channel": 3,
      "lane": "K"
    },
    {
      "time": 40.286,
      "duration": 0.162,
      "midi": 68,
      "noteNumber": 68,
      "velocity": 0.69,
      "track": "Flute",
      "channel": 4,
      "lane": "K"
    },
    {
      "time": 40.286,
      "duration": 0.162,
      "midi": 68,
      "noteNumber": 68,
      "velocity": 0.69,
      "track": "Pad2",
      "channel": 5,
      "lane": "K"
    },
    {
      "time": 40.433,
      "duration": 0.022,
      "midi": 59,
      "noteNumber": 59,
      "velocity": 0.71,
      "track": "Hi Ride Cymbal",
      "channel": 9,
      "lane": "J"
    },
    {
      "time": 40.45,
      "duration": 0.054,
      "midi": 51,
      "noteNumber": 51,
      "velocity": 0.59,
      "track": "Drums",
      "channel": 9,
      "lane": "F"
    },
    {
      "time": 40.476,
      "duration": 0.959,
      "midi": 67,
      "noteNumber": 67,
      "velocity": 0.65,
      "track": "Vibraphone",
      "channel": 3,
      "lane": "J"
    },
    {
      "time": 40.476,
      "duration": 0.959,
      "midi": 67,
      "noteNumber": 67,
      "velocity": 0.65,
      "track": "Flute",
      "channel": 4,
      "lane": "J"
    },
    {
      "time": 40.476,
      "duration": 0.959,
      "midi": 67,
      "noteNumber": 67,
      "velocity": 0.65,
      "track": "Pad2",
      "channel": 5,
      "lane": "J"
    },
    {
      "time": 40.519,
      "duration": 0.301,
      "midi": 48,
      "noteNumber": 48,
      "velocity": 0.93,
      "track": "Bass",
      "channel": 1,
      "lane": "F"
    },
    {
      "time": 40.519,
      "duration": 1.039,
      "midi": 59,
      "noteNumber": 59,
      "velocity": 0.51,
      "track": "Piano",
      "channel": 2,
      "lane": "J"
    },
    {
      "time": 40.519,
      "duration": 1.039,
      "midi": 74,
      "noteNumber": 74,
      "velocity": 0.51,
      "track": "Piano",
      "channel": 2,
      "lane": "K"
    },
    {
      "time": 40.519,
      "duration": 1.039,
      "midi": 64,
      "noteNumber": 64,
      "velocity": 0.51,
      "track": "Piano",
      "channel": 2,
      "lane": "J"
    },
    {
      "time": 40.519,
      "duration": 1.039,
      "midi": 67,
      "noteNumber": 67,
      "velocity": 0.51,
      "track": "Piano",
      "channel": 2,
      "lane": "J"
    },
    {
      "time": 40.519,
      "duration": 0.054,
      "midi": 51,
      "noteNumber": 51,
      "velocity": 0.75,
      "track": "Drums",
      "channel": 9,
      "lane": "F"
    },
    {
      "time": 40.519,
      "duration": 0.022,
      "midi": 59,
      "noteNumber": 59,
      "velocity": 0.87,
      "track": "Hi Ride Cymbal",
      "channel": 9,
      "lane": "J"
    },
    {
      "time": 40.779,
      "duration": 0.279,
      "midi": 36,
      "noteNumber": 36,
      "velocity": 0.88,
      "track": "Bass",
      "channel": 1,
      "lane": "D"
    },
    {
      "time": 40.779,
      "duration": 0.054,
      "midi": 42,
      "noteNumber": 42,
      "velocity": 0.67,
      "track": "Drums",
      "channel": 9,
      "lane": "F"
    },
    {
      "time": 40.779,
      "duration": 0.054,
      "midi": 51,
      "noteNumber": 51,
      "velocity": 0.83,
      "track": "Drums",
      "channel": 9,
      "lane": "F"
    },
    {
      "time": 40.779,
      "duration": 0.022,
      "midi": 42,
      "noteNumber": 42,
      "velocity": 0.72,
      "track": "Closed Hi Hat",
      "channel": 9,
      "lane": "F"
    },
    {
      "time": 40.779,
      "duration": 0.022,
      "midi": 59,
      "noteNumber": 59,
      "velocity": 0.71,
      "track": "Hi Ride Cymbal",
      "channel": 9,
      "lane": "J"
    },
    {
      "time": 40.952,
      "duration": 0.022,
      "midi": 59,
      "noteNumber": 59,
      "velocity": 0.69,
      "track": "Hi Ride Cymbal",
      "channel": 9,
      "lane": "J"
    },
    {
      "time": 40.972,
      "duration": 0.054,
      "midi": 51,
      "noteNumber": 51,
      "velocity": 0.59,
      "track": "Drums",
      "channel": 9,
      "lane": "F"
    },
    {
      "time": 41.039,
      "duration": 0.277,
      "midi": 40,
      "noteNumber": 40,
      "velocity": 0.91,
      "track": "Bass",
      "channel": 1,
      "lane": "F"
    },
    {
      "time": 41.039,
      "duration": 0.054,
      "midi": 51,
      "noteNumber": 51,
      "velocity": 0.75,
      "track": "Drums",
      "channel": 9,
      "lane": "F"
    },
    {
      "time": 41.039,
      "duration": 0.022,
      "midi": 59,
      "noteNumber": 59,
      "velocity": 0.7,
      "track": "Hi Ride Cymbal",
      "channel": 9,
      "lane": "J"
    },
    {
      "time": 41.299,
      "duration": 0.26,
      "midi": 43,
      "noteNumber": 43,
      "velocity": 0.9,
      "track": "Bass",
      "channel": 1,
      "lane": "F"
    },
    {
      "time": 41.299,
      "duration": 0.054,
      "midi": 42,
      "noteNumber": 42,
      "velocity": 0.67,
      "track": "Drums",
      "channel": 9,
      "lane": "F"
    },
    {
      "time": 41.299,
      "duration": 0.054,
      "midi": 37,
      "noteNumber": 37,
      "velocity": 0.67,
      "track": "Drums",
      "channel": 9,
      "lane": "F"
    },
    {
      "time": 41.299,
      "duration": 0.054,
      "midi": 51,
      "noteNumber": 51,
      "velocity": 0.83,
      "track": "Drums",
      "channel": 9,
      "lane": "F"
    },
    {
      "time": 41.299,
      "duration": 0.022,
      "midi": 42,
      "noteNumber": 42,
      "velocity": 0.71,
      "track": "Closed Hi Hat",
      "channel": 9,
      "lane": "F"
    },
    {
      "time": 41.299,
      "duration": 0.022,
      "midi": 59,
      "noteNumber": 59,
      "velocity": 0.72,
      "track": "Hi Ride Cymbal",
      "channel": 9,
      "lane": "J"
    },
    {
      "time": 41.472,
      "duration": 0.022,
      "midi": 59,
      "noteNumber": 59,
      "velocity": 0.71,
      "track": "Hi Ride Cymbal",
      "channel": 9,
      "lane": "J"
    },
    {
      "time": 41.491,
      "duration": 0.054,
      "midi": 51,
      "noteNumber": 51,
      "velocity": 0.59,
      "track": "Drums",
      "channel": 9,
      "lane": "F"
    },
    {
      "time": 41.558,
      "duration": 0.26,
      "midi": 36,
      "noteNumber": 36,
      "velocity": 0.97,
      "track": "Bass",
      "channel": 1,
      "lane": "D"
    },
    {
      "time": 41.558,
      "duration": 0.519,
      "midi": 58,
      "noteNumber": 58,
      "velocity": 0.51,
      "track": "Piano",
      "channel": 2,
      "lane": "J"
    },
    {
      "time": 41.558,
      "duration": 0.519,
      "midi": 60,
      "noteNumber": 60,
      "velocity": 0.51,
      "track": "Piano",
      "channel": 2,
      "lane": "J"
    },
    {
      "time": 41.558,
      "duration": 0.519,
      "midi": 63,
      "noteNumber": 63,
      "velocity": 0.51,
      "track": "Piano",
      "channel": 2,
      "lane": "J"
    },
    {
      "time": 41.558,
      "duration": 0.519,
      "midi": 67,
      "noteNumber": 67,
      "velocity": 0.51,
      "track": "Piano",
      "channel": 2,
      "lane": "J"
    },
    {
      "time": 41.558,
      "duration": 0.054,
      "midi": 51,
      "noteNumber": 51,
      "velocity": 0.75,
      "track": "Drums",
      "channel": 9,
      "lane": "F"
    },
    {
      "time": 41.558,
      "duration": 0.022,
      "midi": 59,
      "noteNumber": 59,
      "velocity": 0.87,
      "track": "Hi Ride Cymbal",
      "channel": 9,
      "lane": "J"
    },
    {
      "time": 41.584,
      "duration": 0.229,
      "midi": 62,
      "noteNumber": 62,
      "velocity": 0.58,
      "track": "Vibraphone",
      "channel": 3,
      "lane": "J"
    },
    {
      "time": 41.584,
      "duration": 0.229,
      "midi": 62,
      "noteNumber": 62,
      "velocity": 0.58,
      "track": "Flute",
      "channel": 4,
      "lane": "J"
    },
    {
      "time": 41.584,
      "duration": 0.229,
      "midi": 62,
      "noteNumber": 62,
      "velocity": 0.58,
      "track": "Pad2",
      "channel": 5,
      "lane": "J"
    },
    {
      "time": 41.818,
      "duration": 0.26,
      "midi": 36,
      "noteNumber": 36,
      "velocity": 1,
      "track": "Bass",
      "channel": 1,
      "lane": "D"
    },
    {
      "time": 41.818,
      "duration": 0.054,
      "midi": 42,
      "noteNumber": 42,
      "velocity": 0.67,
      "track": "Drums",
      "channel": 9,
      "lane": "F"
    },
    {
      "time": 41.818,
      "duration": 0.054,
      "midi": 51,
      "noteNumber": 51,
      "velocity": 0.91,
      "track": "Drums",
      "channel": 9,
      "lane": "F"
    },
    {
      "time": 41.818,
      "duration": 0.022,
      "midi": 42,
      "noteNumber": 42,
      "velocity": 0.71,
      "track": "Closed Hi Hat",
      "channel": 9,
      "lane": "F"
    },
    {
      "time": 41.818,
      "duration": 0.022,
      "midi": 59,
      "noteNumber": 59,
      "velocity": 0.71,
      "track": "Hi Ride Cymbal",
      "channel": 9,
      "lane": "J"
    },
    {
      "time": 41.842,
      "duration": 0.141,
      "midi": 64,
      "noteNumber": 64,
      "velocity": 0.62,
      "track": "Vibraphone",
      "channel": 3,
      "lane": "J"
    },
    {
      "time": 41.842,
      "duration": 0.141,
      "midi": 64,
      "noteNumber": 64,
      "velocity": 0.62,
      "track": "Flute",
      "channel": 4,
      "lane": "J"
    },
    {
      "time": 41.842,
      "duration": 0.141,
      "midi": 64,
      "noteNumber": 64,
      "velocity": 0.62,
      "track": "Pad2",
      "channel": 5,
      "lane": "J"
    },
    {
      "time": 41.991,
      "duration": 0.022,
      "midi": 59,
      "noteNumber": 59,
      "velocity": 0.72,
      "track": "Hi Ride Cymbal",
      "channel": 9,
      "lane": "J"
    },
    {
      "time": 42.078,
      "duration": 0.307,
      "midi": 37,
      "noteNumber": 37,
      "velocity": 0.87,
      "track": "Bass",
      "channel": 1,
      "lane": "F"
    },
    {
      "time": 42.078,
      "duration": 0.519,
      "midi": 59,
      "noteNumber": 59,
      "velocity": 0.51,
      "track": "Piano",
      "channel": 2,
      "lane": "J"
    },
    {
      "time": 42.078,
      "duration": 0.519,
      "midi": 63,
      "noteNumber": 63,
      "velocity": 0.51,
      "track": "Piano",
      "channel": 2,
      "lane": "J"
    },
    {
      "time": 42.078,
      "duration": 0.519,
      "midi": 65,
      "noteNumber": 65,
      "velocity": 0.51,
      "track": "Piano",
      "channel": 2,
      "lane": "J"
    },
    {
      "time": 42.078,
      "duration": 0.519,
      "midi": 68,
      "noteNumber": 68,
      "velocity": 0.51,
      "track": "Piano",
      "channel": 2,
      "lane": "K"
    },
    {
      "time": 42.078,
      "duration": 0.054,
      "midi": 51,
      "noteNumber": 51,
      "velocity": 0.75,
      "track": "Drums",
      "channel": 9,
      "lane": "F"
    },
    {
      "time": 42.078,
      "duration": 0.022,
      "midi": 59,
      "noteNumber": 59,
      "velocity": 0.72,
      "track": "Hi Ride Cymbal",
      "channel": 9,
      "lane": "J"
    },
    {
      "time": 42.104,
      "duration": 0.249,
      "midi": 70,
      "noteNumber": 70,
      "velocity": 0.69,
      "track": "Vibraphone",
      "channel": 3,
      "lane": "K"
    },
    {
      "time": 42.104,
      "duration": 0.249,
      "midi": 70,
      "noteNumber": 70,
      "velocity": 0.69,
      "track": "Flute",
      "channel": 4,
      "lane": "K"
    },
    {
      "time": 42.104,
      "duration": 0.249,
      "midi": 70,
      "noteNumber": 70,
      "velocity": 0.69,
      "track": "Pad2",
      "channel": 5,
      "lane": "K"
    },
    {
      "time": 42.338,
      "duration": 0.26,
      "midi": 44,
      "noteNumber": 44,
      "velocity": 0.87,
      "track": "Bass",
      "channel": 1,
      "lane": "F"
    },
    {
      "time": 42.338,
      "duration": 0.054,
      "midi": 42,
      "noteNumber": 42,
      "velocity": 0.67,
      "track": "Drums",
      "channel": 9,
      "lane": "F"
    },
    {
      "time": 42.338,
      "duration": 0.054,
      "midi": 37,
      "noteNumber": 37,
      "velocity": 0.67,
      "track": "Drums",
      "channel": 9,
      "lane": "F"
    },
    {
      "time": 42.338,
      "duration": 0.054,
      "midi": 51,
      "noteNumber": 51,
      "velocity": 0.91,
      "track": "Drums",
      "channel": 9,
      "lane": "F"
    },
    {
      "time": 42.338,
      "duration": 0.022,
      "midi": 42,
      "noteNumber": 42,
      "velocity": 0.7,
      "track": "Closed Hi Hat",
      "channel": 9,
      "lane": "F"
    },
    {
      "time": 42.338,
      "duration": 0.022,
      "midi": 59,
      "noteNumber": 59,
      "velocity": 0.69,
      "track": "Hi Ride Cymbal",
      "channel": 9,
      "lane": "J"
    },
    {
      "time": 42.357,
      "duration": 0.24,
      "midi": 68,
      "noteNumber": 68,
      "velocity": 0.54,
      "track": "Vibraphone",
      "channel": 3,
      "lane": "K"
    },
    {
      "time": 42.357,
      "duration": 0.24,
      "midi": 68,
      "noteNumber": 68,
      "velocity": 0.54,
      "track": "Flute",
      "channel": 4,
      "lane": "K"
    },
    {
      "time": 42.357,
      "duration": 0.24,
      "midi": 68,
      "noteNumber": 68,
      "velocity": 0.54,
      "track": "Pad2",
      "channel": 5,
      "lane": "K"
    },
    {
      "time": 42.511,
      "duration": 0.022,
      "midi": 59,
      "noteNumber": 59,
      "velocity": 0.72,
      "track": "Hi Ride Cymbal",
      "channel": 9,
      "lane": "J"
    },
    {
      "time": 42.597,
      "duration": 0.234,
      "midi": 42,
      "noteNumber": 42,
      "velocity": 0.92,
      "track": "Bass",
      "channel": 1,
      "lane": "F"
    },
    {
      "time": 42.597,
      "duration": 0.519,
      "midi": 65,
      "noteNumber": 65,
      "velocity": 0.51,
      "track": "Piano",
      "channel": 2,
      "lane": "J"
    },
    {
      "time": 42.597,
      "duration": 0.519,
      "midi": 68,
      "noteNumber": 68,
      "velocity": 0.51,
      "track": "Piano",
      "channel": 2,
      "lane": "K"
    },
    {
      "time": 42.597,
      "duration": 0.519,
      "midi": 58,
      "noteNumber": 58,
      "velocity": 0.51,
      "track": "Piano",
      "channel": 2,
      "lane": "J"
    },
    {
      "time": 42.597,
      "duration": 0.519,
      "midi": 73,
      "noteNumber": 73,
      "velocity": 0.51,
      "track": "Piano",
      "channel": 2,
      "lane": "K"
    },
    {
      "time": 42.597,
      "duration": 0.054,
      "midi": 51,
      "noteNumber": 51,
      "velocity": 0.75,
      "track": "Drums",
      "channel": 9,
      "lane": "F"
    },
    {
      "time": 42.597,
      "duration": 0.022,
      "midi": 59,
      "noteNumber": 59,
      "velocity": 0.86,
      "track": "Hi Ride Cymbal",
      "channel": 9,
      "lane": "J"
    },
    {
      "time": 42.654,
      "duration": 0.483,
      "midi": 73,
      "noteNumber": 73,
      "velocity": 0.72,
      "track": "Vibraphone",
      "channel": 3,
      "lane": "K"
    },
    {
      "time": 42.654,
      "duration": 0.483,
      "midi": 73,
      "noteNumber": 73,
      "velocity": 0.72,
      "track": "Flute",
      "channel": 4,
      "lane": "K"
    },
    {
      "time": 42.654,
      "duration": 0.483,
      "midi": 73,
      "noteNumber": 73,
      "velocity": 0.72,
      "track": "Pad2",
      "channel": 5,
      "lane": "K"
    },
    {
      "time": 42.79,
      "duration": 0.069,
      "midi": 30,
      "noteNumber": 30,
      "velocity": 0.74,
      "track": "Bass",
      "channel": 1,
      "lane": "D"
    },
    {
      "time": 42.857,
      "duration": 0.054,
      "midi": 42,
      "noteNumber": 42,
      "velocity": 0.67,
      "track": "Drums",
      "channel": 9,
      "lane": "F"
    },
    {
      "time": 42.857,
      "duration": 0.054,
      "midi": 51,
      "noteNumber": 51,
      "velocity": 0.83,
      "track": "Drums",
      "channel": 9,
      "lane": "F"
    },
    {
      "time": 42.857,
      "duration": 0.022,
      "midi": 42,
      "noteNumber": 42,
      "velocity": 0.71,
      "track": "Closed Hi Hat",
      "channel": 9,
      "lane": "F"
    },
    {
      "time": 42.857,
      "duration": 0.022,
      "midi": 59,
      "noteNumber": 59,
      "velocity": 0.7,
      "track": "Hi Ride Cymbal",
      "channel": 9,
      "lane": "J"
    },
    {
      "time": 42.859,
      "duration": 0.258,
      "midi": 34,
      "noteNumber": 34,
      "velocity": 0.92,
      "track": "Bass",
      "channel": 1,
      "lane": "D"
    },
    {
      "time": 43.03,
      "duration": 0.022,
      "midi": 59,
      "noteNumber": 59,
      "velocity": 0.71,
      "track": "Hi Ride Cymbal",
      "channel": 9,
      "lane": "J"
    },
    {
      "time": 43.05,
      "duration": 0.054,
      "midi": 51,
      "noteNumber": 51,
      "velocity": 0.59,
      "track": "Drums",
      "channel": 9,
      "lane": "F"
    },
    {
      "time": 43.117,
      "duration": 0.197,
      "midi": 33,
      "noteNumber": 33,
      "velocity": 1,
      "track": "Bass",
      "channel": 1,
      "lane": "D"
    },
    {
      "time": 43.117,
      "duration": 0.519,
      "midi": 67,
      "noteNumber": 67,
      "velocity": 0.51,
      "track": "Piano",
      "channel": 2,
      "lane": "J"
    },
    {
      "time": 43.117,
      "duration": 0.519,
      "midi": 70,
      "noteNumber": 70,
      "velocity": 0.51,
      "track": "Piano",
      "channel": 2,
      "lane": "K"
    },
    {
      "time": 43.117,
      "duration": 0.519,
      "midi": 61,
      "noteNumber": 61,
      "velocity": 0.51,
      "track": "Piano",
      "channel": 2,
      "lane": "J"
    },
    {
      "time": 43.117,
      "duration": 0.519,
      "midi": 77,
      "noteNumber": 77,
      "velocity": 0.51,
      "track": "Piano",
      "channel": 2,
      "lane": "K"
    },
    {
      "time": 43.117,
      "duration": 0.054,
      "midi": 51,
      "noteNumber": 51,
      "velocity": 0.75,
      "track": "Drums",
      "channel": 9,
      "lane": "F"
    },
    {
      "time": 43.117,
      "duration": 0.022,
      "midi": 59,
      "noteNumber": 59,
      "velocity": 0.71,
      "track": "Hi Ride Cymbal",
      "channel": 9,
      "lane": "J"
    },
    {
      "time": 43.145,
      "duration": 0.249,
      "midi": 72,
      "noteNumber": 72,
      "velocity": 0.57,
      "track": "Vibraphone",
      "channel": 3,
      "lane": "K"
    },
    {
      "time": 43.145,
      "duration": 0.249,
      "midi": 72,
      "noteNumber": 72,
      "velocity": 0.57,
      "track": "Flute",
      "channel": 4,
      "lane": "K"
    },
    {
      "time": 43.145,
      "duration": 0.249,
      "midi": 72,
      "noteNumber": 72,
      "velocity": 0.57,
      "track": "Pad2",
      "channel": 5,
      "lane": "K"
    },
    {
      "time": 43.309,
      "duration": 0.067,
      "midi": 21,
      "noteNumber": 21,
      "velocity": 0.95,
      "track": "Bass",
      "channel": 1,
      "lane": "D"
    },
    {
      "time": 43.377,
      "duration": 0.258,
      "midi": 33,
      "noteNumber": 33,
      "velocity": 1,
      "track": "Bass",
      "channel": 1,
      "lane": "D"
    },
    {
      "time": 43.377,
      "duration": 0.054,
      "midi": 42,
      "noteNumber": 42,
      "velocity": 0.67,
      "track": "Drums",
      "channel": 9,
      "lane": "F"
    },
    {
      "time": 43.377,
      "duration": 0.054,
      "midi": 37,
      "noteNumber": 37,
      "velocity": 0.67,
      "track": "Drums",
      "channel": 9,
      "lane": "F"
    },
    {
      "time": 43.377,
      "duration": 0.054,
      "midi": 51,
      "noteNumber": 51,
      "velocity": 0.83,
      "track": "Drums",
      "channel": 9,
      "lane": "F"
    },
    {
      "time": 43.377,
      "duration": 0.022,
      "midi": 42,
      "noteNumber": 42,
      "velocity": 0.72,
      "track": "Closed Hi Hat",
      "channel": 9,
      "lane": "F"
    },
    {
      "time": 43.377,
      "duration": 0.022,
      "midi": 59,
      "noteNumber": 59,
      "velocity": 0.69,
      "track": "Hi Ride Cymbal",
      "channel": 9,
      "lane": "J"
    },
    {
      "time": 43.398,
      "duration": 0.236,
      "midi": 70,
      "noteNumber": 70,
      "velocity": 0.61,
      "track": "Vibraphone",
      "channel": 3,
      "lane": "K"
    },
    {
      "time": 43.398,
      "duration": 0.236,
      "midi": 70,
      "noteNumber": 70,
      "velocity": 0.61,
      "track": "Flute",
      "channel": 4,
      "lane": "K"
    },
    {
      "time": 43.398,
      "duration": 0.236,
      "midi": 70,
      "noteNumber": 70,
      "velocity": 0.61,
      "track": "Pad2",
      "channel": 5,
      "lane": "K"
    },
    {
      "time": 43.55,
      "duration": 0.022,
      "midi": 59,
      "noteNumber": 59,
      "velocity": 0.7,
      "track": "Hi Ride Cymbal",
      "channel": 9,
      "lane": "J"
    },
    {
      "time": 43.569,
      "duration": 0.054,
      "midi": 51,
      "noteNumber": 51,
      "velocity": 0.59,
      "track": "Drums",
      "channel": 9,
      "lane": "F"
    },
    {
      "time": 43.636,
      "duration": 0.26,
      "midi": 38,
      "noteNumber": 38,
      "velocity": 0.97,
      "track": "Bass",
      "channel": 1,
      "lane": "F"
    },
    {
      "time": 43.636,
      "duration": 0.519,
      "midi": 61,
      "noteNumber": 61,
      "velocity": 0.51,
      "track": "Piano",
      "channel": 2,
      "lane": "J"
    },
    {
      "time": 43.636,
      "duration": 0.519,
      "midi": 76,
      "noteNumber": 76,
      "velocity": 0.51,
      "track": "Piano",
      "channel": 2,
      "lane": "K"
    },
    {
      "time": 43.636,
      "duration": 0.519,
      "midi": 66,
      "noteNumber": 66,
      "velocity": 0.51,
      "track": "Piano",
      "channel": 2,
      "lane": "J"
    },
    {
      "time": 43.636,
      "duration": 0.519,
      "midi": 69,
      "noteNumber": 69,
      "velocity": 0.51,
      "track": "Piano",
      "channel": 2,
      "lane": "K"
    },
    {
      "time": 43.636,
      "duration": 0.054,
      "midi": 51,
      "noteNumber": 51,
      "velocity": 0.75,
      "track": "Drums",
      "channel": 9,
      "lane": "F"
    },
    {
      "time": 43.636,
      "duration": 0.022,
      "midi": 59,
      "noteNumber": 59,
      "velocity": 0.87,
      "track": "Hi Ride Cymbal",
      "channel": 9,
      "lane": "J"
    },
    {
      "time": 43.66,
      "duration": 0.498,
      "midi": 69,
      "noteNumber": 69,
      "velocity": 0.57,
      "track": "Vibraphone",
      "channel": 3,
      "lane": "K"
    },
    {
      "time": 43.66,
      "duration": 0.498,
      "midi": 69,
      "noteNumber": 69,
      "velocity": 0.57,
      "track": "Flute",
      "channel": 4,
      "lane": "K"
    },
    {
      "time": 43.66,
      "duration": 0.498,
      "midi": 69,
      "noteNumber": 69,
      "velocity": 0.57,
      "track": "Pad2",
      "channel": 5,
      "lane": "K"
    },
    {
      "time": 43.896,
      "duration": 0.26,
      "midi": 38,
      "noteNumber": 38,
      "velocity": 1,
      "track": "Bass",
      "channel": 1,
      "lane": "F"
    },
    {
      "time": 43.896,
      "duration": 0.054,
      "midi": 42,
      "noteNumber": 42,
      "velocity": 0.67,
      "track": "Drums",
      "channel": 9,
      "lane": "F"
    },
    {
      "time": 43.896,
      "duration": 0.054,
      "midi": 51,
      "noteNumber": 51,
      "velocity": 0.83,
      "track": "Drums",
      "channel": 9,
      "lane": "F"
    },
    {
      "time": 43.896,
      "duration": 0.022,
      "midi": 42,
      "noteNumber": 42,
      "velocity": 0.71,
      "track": "Closed Hi Hat",
      "channel": 9,
      "lane": "F"
    },
    {
      "time": 43.896,
      "duration": 0.022,
      "midi": 59,
      "noteNumber": 59,
      "velocity": 0.71,
      "track": "Hi Ride Cymbal",
      "channel": 9,
      "lane": "J"
    },
    {
      "time": 44.069,
      "duration": 0.022,
      "midi": 59,
      "noteNumber": 59,
      "velocity": 0.72,
      "track": "Hi Ride Cymbal",
      "channel": 9,
      "lane": "J"
    },
    {
      "time": 44.089,
      "duration": 0.054,
      "midi": 51,
      "noteNumber": 51,
      "velocity": 0.59,
      "track": "Drums",
      "channel": 9,
      "lane": "F"
    },
    {
      "time": 44.156,
      "duration": 0.145,
      "midi": 41,
      "noteNumber": 41,
      "velocity": 0.88,
      "track": "Bass",
      "channel": 1,
      "lane": "F"
    },
    {
      "time": 44.156,
      "duration": 0.519,
      "midi": 63,
      "noteNumber": 63,
      "velocity": 0.51,
      "track": "Piano",
      "channel": 2,
      "lane": "J"
    },
    {
      "time": 44.156,
      "duration": 0.519,
      "midi": 67,
      "noteNumber": 67,
      "velocity": 0.51,
      "track": "Piano",
      "channel": 2,
      "lane": "J"
    },
    {
      "time": 44.156,
      "duration": 0.519,
      "midi": 57,
      "noteNumber": 57,
      "velocity": 0.51,
      "track": "Piano",
      "channel": 2,
      "lane": "J"
    },
    {
      "time": 44.156,
      "duration": 0.519,
      "midi": 72,
      "noteNumber": 72,
      "velocity": 0.51,
      "track": "Piano",
      "channel": 2,
      "lane": "K"
    },
    {
      "time": 44.156,
      "duration": 0.054,
      "midi": 51,
      "noteNumber": 51,
      "velocity": 0.75,
      "track": "Drums",
      "channel": 9,
      "lane": "F"
    },
    {
      "time": 44.156,
      "duration": 0.022,
      "midi": 59,
      "noteNumber": 59,
      "velocity": 0.72,
      "track": "Hi Ride Cymbal",
      "channel": 9,
      "lane": "J"
    },
    {
      "time": 44.184,
      "duration": 0.42,
      "midi": 72,
      "noteNumber": 72,
      "velocity": 0.62,
      "track": "Vibraphone",
      "channel": 3,
      "lane": "K"
    },
    {
      "time": 44.184,
      "duration": 0.42,
      "midi": 72,
      "noteNumber": 72,
      "velocity": 0.62,
      "track": "Flute",
      "channel": 4,
      "lane": "K"
    },
    {
      "time": 44.184,
      "duration": 0.42,
      "midi": 72,
      "noteNumber": 72,
      "velocity": 0.62,
      "track": "Pad2",
      "channel": 5,
      "lane": "K"
    },
    {
      "time": 44.348,
      "duration": 0.063,
      "midi": 41,
      "noteNumber": 41,
      "velocity": 0.98,
      "track": "Bass",
      "channel": 1,
      "lane": "F"
    },
    {
      "time": 44.416,
      "duration": 0.26,
      "midi": 33,
      "noteNumber": 33,
      "velocity": 0.83,
      "track": "Bass",
      "channel": 1,
      "lane": "D"
    },
    {
      "time": 44.416,
      "duration": 0.054,
      "midi": 42,
      "noteNumber": 42,
      "velocity": 0.67,
      "track": "Drums",
      "channel": 9,
      "lane": "F"
    },
    {
      "time": 44.416,
      "duration": 0.054,
      "midi": 37,
      "noteNumber": 37,
      "velocity": 0.67,
      "track": "Drums",
      "channel": 9,
      "lane": "F"
    },
    {
      "time": 44.416,
      "duration": 0.054,
      "midi": 51,
      "noteNumber": 51,
      "velocity": 0.83,
      "track": "Drums",
      "channel": 9,
      "lane": "F"
    },
    {
      "time": 44.416,
      "duration": 0.022,
      "midi": 42,
      "noteNumber": 42,
      "velocity": 0.7,
      "track": "Closed Hi Hat",
      "channel": 9,
      "lane": "F"
    },
    {
      "time": 44.416,
      "duration": 0.022,
      "midi": 59,
      "noteNumber": 59,
      "velocity": 0.69,
      "track": "Hi Ride Cymbal",
      "channel": 9,
      "lane": "J"
    },
    {
      "time": 44.589,
      "duration": 0.022,
      "midi": 59,
      "noteNumber": 59,
      "velocity": 0.72,
      "track": "Hi Ride Cymbal",
      "channel": 9,
      "lane": "J"
    },
    {
      "time": 44.608,
      "duration": 0.054,
      "midi": 51,
      "noteNumber": 51,
      "velocity": 0.59,
      "track": "Drums",
      "channel": 9,
      "lane": "F"
    },
    {
      "time": 44.621,
      "duration": 0.593,
      "midi": 65,
      "noteNumber": 65,
      "velocity": 0.68,
      "track": "Vibraphone",
      "channel": 3,
      "lane": "J"
    },
    {
      "time": 44.621,
      "duration": 0.593,
      "midi": 65,
      "noteNumber": 65,
      "velocity": 0.68,
      "track": "Flute",
      "channel": 4,
      "lane": "J"
    },
    {
      "time": 44.621,
      "duration": 0.593,
      "midi": 65,
      "noteNumber": 65,
      "velocity": 0.68,
      "track": "Pad2",
      "channel": 5,
      "lane": "J"
    },
    {
      "time": 44.675,
      "duration": 0.303,
      "midi": 34,
      "noteNumber": 34,
      "velocity": 0.93,
      "track": "Bass",
      "channel": 1,
      "lane": "D"
    },
    {
      "time": 44.675,
      "duration": 1.039,
      "midi": 57,
      "noteNumber": 57,
      "velocity": 0.51,
      "track": "Piano",
      "channel": 2,
      "lane": "J"
    },
    {
      "time": 44.675,
      "duration": 1.039,
      "midi": 72,
      "noteNumber": 72,
      "velocity": 0.51,
      "track": "Piano",
      "channel": 2,
      "lane": "K"
    },
    {
      "time": 44.675,
      "duration": 1.039,
      "midi": 62,
      "noteNumber": 62,
      "velocity": 0.51,
      "track": "Piano",
      "channel": 2,
      "lane": "J"
    },
    {
      "time": 44.675,
      "duration": 1.039,
      "midi": 65,
      "noteNumber": 65,
      "velocity": 0.51,
      "track": "Piano",
      "channel": 2,
      "lane": "J"
    },
    {
      "time": 44.675,
      "duration": 0.054,
      "midi": 51,
      "noteNumber": 51,
      "velocity": 0.75,
      "track": "Drums",
      "channel": 9,
      "lane": "F"
    },
    {
      "time": 44.675,
      "duration": 0.022,
      "midi": 59,
      "noteNumber": 59,
      "velocity": 0.86,
      "track": "Hi Ride Cymbal",
      "channel": 9,
      "lane": "J"
    },
    {
      "time": 44.935,
      "duration": 0.279,
      "midi": 36,
      "noteNumber": 36,
      "velocity": 0.91,
      "track": "Bass",
      "channel": 1,
      "lane": "D"
    },
    {
      "time": 44.935,
      "duration": 0.054,
      "midi": 42,
      "noteNumber": 42,
      "velocity": 0.67,
      "track": "Drums",
      "channel": 9,
      "lane": "F"
    },
    {
      "time": 44.935,
      "duration": 0.054,
      "midi": 51,
      "noteNumber": 51,
      "velocity": 0.91,
      "track": "Drums",
      "channel": 9,
      "lane": "F"
    },
    {
      "time": 44.935,
      "duration": 0.022,
      "midi": 42,
      "noteNumber": 42,
      "velocity": 0.71,
      "track": "Closed Hi Hat",
      "channel": 9,
      "lane": "F"
    },
    {
      "time": 44.935,
      "duration": 0.022,
      "midi": 59,
      "noteNumber": 59,
      "velocity": 0.7,
      "track": "Hi Ride Cymbal",
      "channel": 9,
      "lane": "J"
    },
    {
      "time": 45.108,
      "duration": 0.022,
      "midi": 59,
      "noteNumber": 59,
      "velocity": 0.71,
      "track": "Hi Ride Cymbal",
      "channel": 9,
      "lane": "J"
    },
    {
      "time": 45.195,
      "duration": 0.273,
      "midi": 37,
      "noteNumber": 37,
      "velocity": 0.96,
      "track": "Bass",
      "channel": 1,
      "lane": "F"
    },
    {
      "time": 45.195,
      "duration": 0.054,
      "midi": 51,
      "noteNumber": 51,
      "velocity": 0.75,
      "track": "Drums",
      "channel": 9,
      "lane": "F"
    },
    {
      "time": 45.195,
      "duration": 0.022,
      "midi": 59,
      "noteNumber": 59,
      "velocity": 0.71,
      "track": "Hi Ride Cymbal",
      "channel": 9,
      "lane": "J"
    },
    {
      "time": 45.225,
      "duration": 0.405,
      "midi": 67,
      "noteNumber": 67,
      "velocity": 0.61,
      "track": "Vibraphone",
      "channel": 3,
      "lane": "J"
    },
    {
      "time": 45.225,
      "duration": 0.405,
      "midi": 67,
      "noteNumber": 67,
      "velocity": 0.61,
      "track": "Flute",
      "channel": 4,
      "lane": "J"
    },
    {
      "time": 45.225,
      "duration": 0.405,
      "midi": 67,
      "noteNumber": 67,
      "velocity": 0.61,
      "track": "Pad2",
      "channel": 5,
      "lane": "J"
    },
    {
      "time": 45.455,
      "duration": 0.255,
      "midi": 38,
      "noteNumber": 38,
      "velocity": 0.91,
      "track": "Bass",
      "channel": 1,
      "lane": "F"
    },
    {
      "time": 45.455,
      "duration": 0.054,
      "midi": 42,
      "noteNumber": 42,
      "velocity": 0.67,
      "track": "Drums",
      "channel": 9,
      "lane": "F"
    },
    {
      "time": 45.455,
      "duration": 0.054,
      "midi": 37,
      "noteNumber": 37,
      "velocity": 0.67,
      "track": "Drums",
      "channel": 9,
      "lane": "F"
    },
    {
      "time": 45.455,
      "duration": 0.054,
      "midi": 51,
      "noteNumber": 51,
      "velocity": 0.91,
      "track": "Drums",
      "channel": 9,
      "lane": "F"
    },
    {
      "time": 45.455,
      "duration": 0.022,
      "midi": 42,
      "noteNumber": 42,
      "velocity": 0.72,
      "track": "Closed Hi Hat",
      "channel": 9,
      "lane": "F"
    },
    {
      "time": 45.455,
      "duration": 0.022,
      "midi": 59,
      "noteNumber": 59,
      "velocity": 0.69,
      "track": "Hi Ride Cymbal",
      "channel": 9,
      "lane": "J"
    },
    {
      "time": 45.628,
      "duration": 0.022,
      "midi": 59,
      "noteNumber": 59,
      "velocity": 0.7,
      "track": "Hi Ride Cymbal",
      "channel": 9,
      "lane": "J"
    },
    {
      "time": 45.669,
      "duration": 1.294,
      "midi": 69,
      "noteNumber": 69,
      "velocity": 0.71,
      "track": "Vibraphone",
      "channel": 3,
      "lane": "K"
    },
    {
      "time": 45.669,
      "duration": 1.294,
      "midi": 69,
      "noteNumber": 69,
      "velocity": 0.71,
      "track": "Flute",
      "channel": 4,
      "lane": "K"
    },
    {
      "time": 45.669,
      "duration": 1.294,
      "midi": 69,
      "noteNumber": 69,
      "velocity": 0.71,
      "track": "Pad2",
      "channel": 5,
      "lane": "K"
    },
    {
      "time": 45.714,
      "duration": 0.171,
      "midi": 40,
      "noteNumber": 40,
      "velocity": 1,
      "track": "Bass",
      "channel": 1,
      "lane": "F"
    },
    {
      "time": 45.714,
      "duration": 1.039,
      "midi": 62,
      "noteNumber": 62,
      "velocity": 0.51,
      "track": "Piano",
      "channel": 2,
      "lane": "J"
    },
    {
      "time": 45.714,
      "duration": 1.039,
      "midi": 66,
      "noteNumber": 66,
      "velocity": 0.51,
      "track": "Piano",
      "channel": 2,
      "lane": "J"
    },
    {
      "time": 45.714,
      "duration": 1.039,
      "midi": 55,
      "noteNumber": 55,
      "velocity": 0.51,
      "track": "Piano",
      "channel": 2,
      "lane": "J"
    },
    {
      "time": 45.714,
      "duration": 1.039,
      "midi": 59,
      "noteNumber": 59,
      "velocity": 0.51,
      "track": "Piano",
      "channel": 2,
      "lane": "J"
    },
    {
      "time": 45.714,
      "duration": 0.054,
      "midi": 51,
      "noteNumber": 51,
      "velocity": 0.75,
      "track": "Drums",
      "channel": 9,
      "lane": "F"
    },
    {
      "time": 45.714,
      "duration": 0.022,
      "midi": 59,
      "noteNumber": 59,
      "velocity": 0.87,
      "track": "Hi Ride Cymbal",
      "channel": 9,
      "lane": "J"
    },
    {
      "time": 45.907,
      "duration": 0.05,
      "midi": 28,
      "noteNumber": 28,
      "velocity": 1,
      "track": "Bass",
      "channel": 1,
      "lane": "D"
    },
    {
      "time": 45.974,
      "duration": 0.258,
      "midi": 42,
      "noteNumber": 42,
      "velocity": 1,
      "track": "Bass",
      "channel": 1,
      "lane": "F"
    },
    {
      "time": 45.974,
      "duration": 0.054,
      "midi": 42,
      "noteNumber": 42,
      "velocity": 0.67,
      "track": "Drums",
      "channel": 9,
      "lane": "F"
    },
    {
      "time": 45.974,
      "duration": 0.054,
      "midi": 51,
      "noteNumber": 51,
      "velocity": 0.83,
      "track": "Drums",
      "channel": 9,
      "lane": "F"
    },
    {
      "time": 45.974,
      "duration": 0.022,
      "midi": 42,
      "noteNumber": 42,
      "velocity": 0.71,
      "track": "Closed Hi Hat",
      "channel": 9,
      "lane": "F"
    },
    {
      "time": 45.974,
      "duration": 0.022,
      "midi": 59,
      "noteNumber": 59,
      "velocity": 0.71,
      "track": "Hi Ride Cymbal",
      "channel": 9,
      "lane": "J"
    },
    {
      "time": 46.147,
      "duration": 0.022,
      "midi": 59,
      "noteNumber": 59,
      "velocity": 0.72,
      "track": "Hi Ride Cymbal",
      "channel": 9,
      "lane": "J"
    },
    {
      "time": 46.167,
      "duration": 0.054,
      "midi": 51,
      "noteNumber": 51,
      "velocity": 0.59,
      "track": "Drums",
      "channel": 9,
      "lane": "F"
    },
    {
      "time": 46.234,
      "duration": 0.26,
      "midi": 43,
      "noteNumber": 43,
      "velocity": 0.88,
      "track": "Bass",
      "channel": 1,
      "lane": "F"
    },
    {
      "time": 46.234,
      "duration": 0.054,
      "midi": 51,
      "noteNumber": 51,
      "velocity": 0.75,
      "track": "Drums",
      "channel": 9,
      "lane": "F"
    },
    {
      "time": 46.234,
      "duration": 0.022,
      "midi": 59,
      "noteNumber": 59,
      "velocity": 0.72,
      "track": "Hi Ride Cymbal",
      "channel": 9,
      "lane": "J"
    },
    {
      "time": 46.493,
      "duration": 0.182,
      "midi": 47,
      "noteNumber": 47,
      "velocity": 0.98,
      "track": "Bass",
      "channel": 1,
      "lane": "F"
    },
    {
      "time": 46.493,
      "duration": 0.054,
      "midi": 42,
      "noteNumber": 42,
      "velocity": 0.67,
      "track": "Drums",
      "channel": 9,
      "lane": "F"
    },
    {
      "time": 46.493,
      "duration": 0.054,
      "midi": 37,
      "noteNumber": 37,
      "velocity": 0.67,
      "track": "Drums",
      "channel": 9,
      "lane": "F"
    },
    {
      "time": 46.493,
      "duration": 0.054,
      "midi": 51,
      "noteNumber": 51,
      "velocity": 0.83,
      "track": "Drums",
      "channel": 9,
      "lane": "F"
    },
    {
      "time": 46.493,
      "duration": 0.022,
      "midi": 42,
      "noteNumber": 42,
      "velocity": 0.71,
      "track": "Closed Hi Hat",
      "channel": 9,
      "lane": "F"
    },
    {
      "time": 46.493,
      "duration": 0.022,
      "midi": 59,
      "noteNumber": 59,
      "velocity": 0.69,
      "track": "Hi Ride Cymbal",
      "channel": 9,
      "lane": "J"
    },
    {
      "time": 46.667,
      "duration": 0.022,
      "midi": 59,
      "noteNumber": 59,
      "velocity": 0.72,
      "track": "Hi Ride Cymbal",
      "channel": 9,
      "lane": "J"
    },
    {
      "time": 46.686,
      "duration": 0.067,
      "midi": 40,
      "noteNumber": 40,
      "velocity": 1,
      "track": "Bass",
      "channel": 1,
      "lane": "F"
    },
    {
      "time": 46.686,
      "duration": 0.054,
      "midi": 51,
      "noteNumber": 51,
      "velocity": 0.59,
      "track": "Drums",
      "channel": 9,
      "lane": "F"
    },
    {
      "time": 46.753,
      "duration": 0.177,
      "midi": 41,
      "noteNumber": 41,
      "velocity": 0.96,
      "track": "Bass",
      "channel": 1,
      "lane": "F"
    },
    {
      "time": 46.753,
      "duration": 1.039,
      "midi": 63,
      "noteNumber": 63,
      "velocity": 0.51,
      "track": "Piano",
      "channel": 2,
      "lane": "J"
    },
    {
      "time": 46.753,
      "duration": 1.039,
      "midi": 67,
      "noteNumber": 67,
      "velocity": 0.51,
      "track": "Piano",
      "channel": 2,
      "lane": "J"
    },
    {
      "time": 46.753,
      "duration": 1.039,
      "midi": 57,
      "noteNumber": 57,
      "velocity": 0.51,
      "track": "Piano",
      "channel": 2,
      "lane": "J"
    },
    {
      "time": 46.753,
      "duration": 1.039,
      "midi": 74,
      "noteNumber": 74,
      "velocity": 0.51,
      "track": "Piano",
      "channel": 2,
      "lane": "K"
    },
    {
      "time": 46.753,
      "duration": 0.054,
      "midi": 51,
      "noteNumber": 51,
      "velocity": 0.75,
      "track": "Drums",
      "channel": 9,
      "lane": "F"
    },
    {
      "time": 46.753,
      "duration": 0.022,
      "midi": 59,
      "noteNumber": 59,
      "velocity": 0.86,
      "track": "Hi Ride Cymbal",
      "channel": 9,
      "lane": "J"
    },
    {
      "time": 46.946,
      "duration": 0.058,
      "midi": 33,
      "noteNumber": 33,
      "velocity": 0.7,
      "track": "Bass",
      "channel": 1,
      "lane": "D"
    },
    {
      "time": 47.013,
      "duration": 0.212,
      "midi": 39,
      "noteNumber": 39,
      "velocity": 0.91,
      "track": "Bass",
      "channel": 1,
      "lane": "F"
    },
    {
      "time": 47.013,
      "duration": 0.054,
      "midi": 42,
      "noteNumber": 42,
      "velocity": 0.67,
      "track": "Drums",
      "channel": 9,
      "lane": "F"
    },
    {
      "time": 47.013,
      "duration": 0.054,
      "midi": 51,
      "noteNumber": 51,
      "velocity": 0.83,
      "track": "Drums",
      "channel": 9,
      "lane": "F"
    },
    {
      "time": 47.013,
      "duration": 0.022,
      "midi": 42,
      "noteNumber": 42,
      "velocity": 0.72,
      "track": "Closed Hi Hat",
      "channel": 9,
      "lane": "F"
    },
    {
      "time": 47.013,
      "duration": 0.022,
      "midi": 59,
      "noteNumber": 59,
      "velocity": 0.7,
      "track": "Hi Ride Cymbal",
      "channel": 9,
      "lane": "J"
    },
    {
      "time": 47.186,
      "duration": 0.022,
      "midi": 59,
      "noteNumber": 59,
      "velocity": 0.71,
      "track": "Hi Ride Cymbal",
      "channel": 9,
      "lane": "J"
    },
    {
      "time": 47.195,
      "duration": 0.091,
      "midi": 67,
      "noteNumber": 67,
      "velocity": 0.54,
      "track": "Vibraphone",
      "channel": 3,
      "lane": "J"
    },
    {
      "time": 47.195,
      "duration": 0.091,
      "midi": 67,
      "noteNumber": 67,
      "velocity": 0.54,
      "track": "Flute",
      "channel": 4,
      "lane": "J"
    },
    {
      "time": 47.195,
      "duration": 0.091,
      "midi": 67,
      "noteNumber": 67,
      "velocity": 0.54,
      "track": "Pad2",
      "channel": 5,
      "lane": "J"
    },
    {
      "time": 47.206,
      "duration": 0.054,
      "midi": 51,
      "noteNumber": 51,
      "velocity": 0.59,
      "track": "Drums",
      "channel": 9,
      "lane": "F"
    },
    {
      "time": 47.273,
      "duration": 0.279,
      "midi": 38,
      "noteNumber": 38,
      "velocity": 0.84,
      "track": "Bass",
      "channel": 1,
      "lane": "F"
    },
    {
      "time": 47.273,
      "duration": 0.054,
      "midi": 51,
      "noteNumber": 51,
      "velocity": 0.75,
      "track": "Drums",
      "channel": 9,
      "lane": "F"
    },
    {
      "time": 47.273,
      "duration": 0.022,
      "midi": 59,
      "noteNumber": 59,
      "velocity": 0.71,
      "track": "Hi Ride Cymbal",
      "channel": 9,
      "lane": "J"
    },
    {
      "time": 47.292,
      "duration": 0.119,
      "midi": 69,
      "noteNumber": 69,
      "velocity": 0.5,
      "track": "Vibraphone",
      "channel": 3,
      "lane": "K"
    },
    {
      "time": 47.292,
      "duration": 0.119,
      "midi": 69,
      "noteNumber": 69,
      "velocity": 0.5,
      "track": "Flute",
      "channel": 4,
      "lane": "K"
    },
    {
      "time": 47.292,
      "duration": 0.119,
      "midi": 69,
      "noteNumber": 69,
      "velocity": 0.5,
      "track": "Pad2",
      "channel": 5,
      "lane": "K"
    },
    {
      "time": 47.446,
      "duration": 0.022,
      "midi": 40,
      "noteNumber": 40,
      "velocity": 0.72,
      "track": "Tight Snare",
      "channel": 9,
      "lane": "F"
    },
    {
      "time": 47.448,
      "duration": 0.11,
      "midi": 72,
      "noteNumber": 72,
      "velocity": 0.69,
      "track": "Vibraphone",
      "channel": 3,
      "lane": "K"
    },
    {
      "time": 47.448,
      "duration": 0.11,
      "midi": 72,
      "noteNumber": 72,
      "velocity": 0.69,
      "track": "Flute",
      "channel": 4,
      "lane": "K"
    },
    {
      "time": 47.448,
      "duration": 0.11,
      "midi": 72,
      "noteNumber": 72,
      "velocity": 0.69,
      "track": "Pad2",
      "channel": 5,
      "lane": "K"
    },
    {
      "time": 47.532,
      "duration": 0.054,
      "midi": 42,
      "noteNumber": 42,
      "velocity": 0.67,
      "track": "Drums",
      "channel": 9,
      "lane": "F"
    },
    {
      "time": 47.532,
      "duration": 0.054,
      "midi": 37,
      "noteNumber": 37,
      "velocity": 0.67,
      "track": "Drums",
      "channel": 9,
      "lane": "F"
    },
    {
      "time": 47.532,
      "duration": 0.054,
      "midi": 51,
      "noteNumber": 51,
      "velocity": 0.83,
      "track": "Drums",
      "channel": 9,
      "lane": "F"
    },
    {
      "time": 47.532,
      "duration": 0.022,
      "midi": 42,
      "noteNumber": 42,
      "velocity": 0.7,
      "track": "Closed Hi Hat",
      "channel": 9,
      "lane": "F"
    },
    {
      "time": 47.532,
      "duration": 0.022,
      "midi": 59,
      "noteNumber": 59,
      "velocity": 0.69,
      "track": "Hi Ride Cymbal",
      "channel": 9,
      "lane": "J"
    },
    {
      "time": 47.552,
      "duration": 0.24,
      "midi": 36,
      "noteNumber": 36,
      "velocity": 0.91,
      "track": "Bass",
      "channel": 1,
      "lane": "D"
    },
    {
      "time": 47.578,
      "duration": 0.134,
      "midi": 69,
      "noteNumber": 69,
      "velocity": 0.45,
      "track": "Vibraphone",
      "channel": 3,
      "lane": "K"
    },
    {
      "time": 47.578,
      "duration": 0.134,
      "midi": 69,
      "noteNumber": 69,
      "velocity": 0.45,
      "track": "Flute",
      "channel": 4,
      "lane": "K"
    },
    {
      "time": 47.578,
      "duration": 0.134,
      "midi": 69,
      "noteNumber": 69,
      "velocity": 0.45,
      "track": "Pad2",
      "channel": 5,
      "lane": "K"
    },
    {
      "time": 47.706,
      "duration": 0.022,
      "midi": 59,
      "noteNumber": 59,
      "velocity": 0.7,
      "track": "Hi Ride Cymbal",
      "channel": 9,
      "lane": "J"
    },
    {
      "time": 47.714,
      "duration": 0.102,
      "midi": 67,
      "noteNumber": 67,
      "velocity": 0.55,
      "track": "Vibraphone",
      "channel": 3,
      "lane": "J"
    },
    {
      "time": 47.714,
      "duration": 0.102,
      "midi": 67,
      "noteNumber": 67,
      "velocity": 0.55,
      "track": "Flute",
      "channel": 4,
      "lane": "J"
    },
    {
      "time": 47.714,
      "duration": 0.102,
      "midi": 67,
      "noteNumber": 67,
      "velocity": 0.55,
      "track": "Pad2",
      "channel": 5,
      "lane": "J"
    },
    {
      "time": 47.725,
      "duration": 0.054,
      "midi": 51,
      "noteNumber": 51,
      "velocity": 0.59,
      "track": "Drums",
      "channel": 9,
      "lane": "F"
    },
    {
      "time": 47.792,
      "duration": 0.201,
      "midi": 34,
      "noteNumber": 34,
      "velocity": 0.98,
      "track": "Bass",
      "channel": 1,
      "lane": "D"
    },
    {
      "time": 47.792,
      "duration": 1.039,
      "midi": 57,
      "noteNumber": 57,
      "velocity": 0.51,
      "track": "Piano",
      "channel": 2,
      "lane": "J"
    },
    {
      "time": 47.792,
      "duration": 1.039,
      "midi": 60,
      "noteNumber": 60,
      "velocity": 0.51,
      "track": "Piano",
      "channel": 2,
      "lane": "J"
    },
    {
      "time": 47.792,
      "duration": 1.039,
      "midi": 62,
      "noteNumber": 62,
      "velocity": 0.51,
      "track": "Piano",
      "channel": 2,
      "lane": "J"
    },
    {
      "time": 47.792,
      "duration": 1.039,
      "midi": 65,
      "noteNumber": 65,
      "velocity": 0.51,
      "track": "Piano",
      "channel": 2,
      "lane": "J"
    },
    {
      "time": 47.792,
      "duration": 0.054,
      "midi": 51,
      "noteNumber": 51,
      "velocity": 0.75,
      "track": "Drums",
      "channel": 9,
      "lane": "F"
    },
    {
      "time": 47.792,
      "duration": 0.022,
      "midi": 59,
      "noteNumber": 59,
      "velocity": 0.87,
      "track": "Hi Ride Cymbal",
      "channel": 9,
      "lane": "J"
    },
    {
      "time": 47.842,
      "duration": 1.831,
      "midi": 69,
      "noteNumber": 69,
      "velocity": 0.56,
      "track": "Vibraphone",
      "channel": 3,
      "lane": "K"
    },
    {
      "time": 47.842,
      "duration": 1.831,
      "midi": 69,
      "noteNumber": 69,
      "velocity": 0.56,
      "track": "Flute",
      "channel": 4,
      "lane": "K"
    },
    {
      "time": 47.842,
      "duration": 1.831,
      "midi": 69,
      "noteNumber": 69,
      "velocity": 0.56,
      "track": "Pad2",
      "channel": 5,
      "lane": "K"
    },
    {
      "time": 47.972,
      "duration": 0.067,
      "midi": 29,
      "noteNumber": 29,
      "velocity": 0.59,
      "track": "Bass",
      "channel": 1,
      "lane": "D"
    },
    {
      "time": 48.052,
      "duration": 0.227,
      "midi": 41,
      "noteNumber": 41,
      "velocity": 0.84,
      "track": "Bass",
      "channel": 1,
      "lane": "F"
    },
    {
      "time": 48.052,
      "duration": 0.054,
      "midi": 42,
      "noteNumber": 42,
      "velocity": 0.67,
      "track": "Drums",
      "channel": 9,
      "lane": "F"
    },
    {
      "time": 48.052,
      "duration": 0.054,
      "midi": 51,
      "noteNumber": 51,
      "velocity": 0.83,
      "track": "Drums",
      "channel": 9,
      "lane": "F"
    },
    {
      "time": 48.052,
      "duration": 0.022,
      "midi": 42,
      "noteNumber": 42,
      "velocity": 0.69,
      "track": "Closed Hi Hat",
      "channel": 9,
      "lane": "F"
    },
    {
      "time": 48.052,
      "duration": 0.022,
      "midi": 59,
      "noteNumber": 59,
      "velocity": 0.7,
      "track": "Hi Ride Cymbal",
      "channel": 9,
      "lane": "J"
    },
    {
      "time": 48.225,
      "duration": 0.022,
      "midi": 59,
      "noteNumber": 59,
      "velocity": 0.69,
      "track": "Hi Ride Cymbal",
      "channel": 9,
      "lane": "J"
    },
    {
      "time": 48.242,
      "duration": 0.054,
      "midi": 51,
      "noteNumber": 51,
      "velocity": 0.59,
      "track": "Drums",
      "channel": 9,
      "lane": "F"
    },
    {
      "time": 48.312,
      "duration": 0.26,
      "midi": 38,
      "noteNumber": 38,
      "velocity": 0.91,
      "track": "Bass",
      "channel": 1,
      "lane": "F"
    },
    {
      "time": 48.312,
      "duration": 0.054,
      "midi": 51,
      "noteNumber": 51,
      "velocity": 0.75,
      "track": "Drums",
      "channel": 9,
      "lane": "F"
    },
    {
      "time": 48.312,
      "duration": 0.022,
      "midi": 59,
      "noteNumber": 59,
      "velocity": 0.72,
      "track": "Hi Ride Cymbal",
      "channel": 9,
      "lane": "J"
    },
    {
      "time": 48.571,
      "duration": 0.197,
      "midi": 34,
      "noteNumber": 34,
      "velocity": 0.92,
      "track": "Bass",
      "channel": 1,
      "lane": "D"
    },
    {
      "time": 48.571,
      "duration": 0.054,
      "midi": 42,
      "noteNumber": 42,
      "velocity": 0.67,
      "track": "Drums",
      "channel": 9,
      "lane": "F"
    },
    {
      "time": 48.571,
      "duration": 0.054,
      "midi": 37,
      "noteNumber": 37,
      "velocity": 0.59,
      "track": "Drums",
      "channel": 9,
      "lane": "F"
    },
    {
      "time": 48.571,
      "duration": 0.054,
      "midi": 51,
      "noteNumber": 51,
      "velocity": 0.83,
      "track": "Drums",
      "channel": 9,
      "lane": "F"
    },
    {
      "time": 48.571,
      "duration": 0.022,
      "midi": 42,
      "noteNumber": 42,
      "velocity": 0.72,
      "track": "Closed Hi Hat",
      "channel": 9,
      "lane": "F"
    },
    {
      "time": 48.571,
      "duration": 0.022,
      "midi": 59,
      "noteNumber": 59,
      "velocity": 0.69,
      "track": "Hi Ride Cymbal",
      "channel": 9,
      "lane": "J"
    },
    {
      "time": 48.745,
      "duration": 0.022,
      "midi": 59,
      "noteNumber": 59,
      "velocity": 0.71,
      "track": "Hi Ride Cymbal",
      "channel": 9,
      "lane": "J"
    },
    {
      "time": 48.762,
      "duration": 0.054,
      "midi": 51,
      "noteNumber": 51,
      "velocity": 0.59,
      "track": "Drums",
      "channel": 9,
      "lane": "F"
    },
    {
      "time": 48.766,
      "duration": 0.039,
      "midi": 29,
      "noteNumber": 29,
      "velocity": 0.75,
      "track": "Bass",
      "channel": 1,
      "lane": "D"
    },
    {
      "time": 48.831,
      "duration": 0.199,
      "midi": 39,
      "noteNumber": 39,
      "velocity": 0.91,
      "track": "Bass",
      "channel": 1,
      "lane": "F"
    },
    {
      "time": 48.831,
      "duration": 1.039,
      "midi": 61,
      "noteNumber": 61,
      "velocity": 0.51,
      "track": "Piano",
      "channel": 2,
      "lane": "J"
    },
    {
      "time": 48.831,
      "duration": 1.039,
      "midi": 65,
      "noteNumber": 65,
      "velocity": 0.51,
      "track": "Piano",
      "channel": 2,
      "lane": "J"
    },
    {
      "time": 48.831,
      "duration": 1.039,
      "midi": 55,
      "noteNumber": 55,
      "velocity": 0.51,
      "track": "Piano",
      "channel": 2,
      "lane": "J"
    },
    {
      "time": 48.831,
      "duration": 1.039,
      "midi": 72,
      "noteNumber": 72,
      "velocity": 0.51,
      "track": "Piano",
      "channel": 2,
      "lane": "K"
    },
    {
      "time": 48.831,
      "duration": 1.039,
      "midi": 57,
      "noteNumber": 57,
      "velocity": 0.51,
      "track": "Piano",
      "channel": 2,
      "lane": "J"
    },
    {
      "time": 48.831,
      "duration": 0.054,
      "midi": 51,
      "noteNumber": 51,
      "velocity": 0.75,
      "track": "Drums",
      "channel": 9,
      "lane": "F"
    },
    {
      "time": 48.831,
      "duration": 0.022,
      "midi": 59,
      "noteNumber": 59,
      "velocity": 0.87,
      "track": "Hi Ride Cymbal",
      "channel": 9,
      "lane": "J"
    },
    {
      "time": 49.024,
      "duration": 0.041,
      "midi": 34,
      "noteNumber": 34,
      "velocity": 0.74,
      "track": "Bass",
      "channel": 1,
      "lane": "D"
    },
    {
      "time": 49.091,
      "duration": 0.258,
      "midi": 41,
      "noteNumber": 41,
      "velocity": 0.89,
      "track": "Bass",
      "channel": 1,
      "lane": "F"
    },
    {
      "time": 49.091,
      "duration": 0.054,
      "midi": 42,
      "noteNumber": 42,
      "velocity": 0.67,
      "track": "Drums",
      "channel": 9,
      "lane": "F"
    },
    {
      "time": 49.091,
      "duration": 0.054,
      "midi": 51,
      "noteNumber": 51,
      "velocity": 0.83,
      "track": "Drums",
      "channel": 9,
      "lane": "F"
    },
    {
      "time": 49.091,
      "duration": 0.022,
      "midi": 42,
      "noteNumber": 42,
      "velocity": 0.69,
      "track": "Closed Hi Hat",
      "channel": 9,
      "lane": "F"
    },
    {
      "time": 49.091,
      "duration": 0.022,
      "midi": 59,
      "noteNumber": 59,
      "velocity": 0.71,
      "track": "Hi Ride Cymbal",
      "channel": 9,
      "lane": "J"
    },
    {
      "time": 49.264,
      "duration": 0.022,
      "midi": 59,
      "noteNumber": 59,
      "velocity": 0.69,
      "track": "Hi Ride Cymbal",
      "channel": 9,
      "lane": "J"
    },
    {
      "time": 49.284,
      "duration": 0.054,
      "midi": 51,
      "noteNumber": 51,
      "velocity": 0.59,
      "track": "Drums",
      "channel": 9,
      "lane": "F"
    },
    {
      "time": 49.351,
      "duration": 0.169,
      "midi": 43,
      "noteNumber": 43,
      "velocity": 0.94,
      "track": "Bass",
      "channel": 1,
      "lane": "F"
    },
    {
      "time": 49.351,
      "duration": 0.054,
      "midi": 51,
      "noteNumber": 51,
      "velocity": 0.75,
      "track": "Drums",
      "channel": 9,
      "lane": "F"
    },
    {
      "time": 49.351,
      "duration": 0.022,
      "midi": 59,
      "noteNumber": 59,
      "velocity": 0.69,
      "track": "Hi Ride Cymbal",
      "channel": 9,
      "lane": "J"
    },
    {
      "time": 49.543,
      "duration": 0.039,
      "midi": 34,
      "noteNumber": 34,
      "velocity": 0.77,
      "track": "Bass",
      "channel": 1,
      "lane": "D"
    },
    {
      "time": 49.543,
      "duration": 0.054,
      "midi": 38,
      "noteNumber": 38,
      "velocity": 0.28,
      "track": "Drums",
      "channel": 9,
      "lane": "F"
    },
    {
      "time": 49.61,
      "duration": 0.184,
      "midi": 46,
      "noteNumber": 46,
      "velocity": 0.96,
      "track": "Bass",
      "channel": 1,
      "lane": "F"
    },
    {
      "time": 49.61,
      "duration": 0.054,
      "midi": 38,
      "noteNumber": 38,
      "velocity": 0.43,
      "track": "Drums",
      "channel": 9,
      "lane": "F"
    },
    {
      "time": 49.61,
      "duration": 0.054,
      "midi": 42,
      "noteNumber": 42,
      "velocity": 0.67,
      "track": "Drums",
      "channel": 9,
      "lane": "F"
    },
    {
      "time": 49.61,
      "duration": 0.054,
      "midi": 37,
      "noteNumber": 37,
      "velocity": 0.67,
      "track": "Drums",
      "channel": 9,
      "lane": "F"
    },
    {
      "time": 49.61,
      "duration": 0.054,
      "midi": 51,
      "noteNumber": 51,
      "velocity": 0.83,
      "track": "Drums",
      "channel": 9,
      "lane": "F"
    },
    {
      "time": 49.61,
      "duration": 0.022,
      "midi": 42,
      "noteNumber": 42,
      "velocity": 0.71,
      "track": "Closed Hi Hat",
      "channel": 9,
      "lane": "F"
    },
    {
      "time": 49.61,
      "duration": 0.022,
      "midi": 59,
      "noteNumber": 59,
      "velocity": 0.72,
      "track": "Hi Ride Cymbal",
      "channel": 9,
      "lane": "J"
    },
    {
      "time": 49.784,
      "duration": 0.022,
      "midi": 59,
      "noteNumber": 59,
      "velocity": 0.7,
      "track": "Hi Ride Cymbal",
      "channel": 9,
      "lane": "J"
    },
    {
      "time": 49.803,
      "duration": 0.054,
      "midi": 51,
      "noteNumber": 51,
      "velocity": 0.59,
      "track": "Drums",
      "channel": 9,
      "lane": "F"
    },
    {
      "time": 49.816,
      "duration": 0.31,
      "midi": 34,
      "noteNumber": 34,
      "velocity": 0.93,
      "track": "Bass",
      "channel": 1,
      "lane": "D"
    },
    {
      "time": 49.87,
      "duration": 2.069,
      "midi": 57,
      "noteNumber": 57,
      "velocity": 0.51,
      "track": "Piano",
      "channel": 2,
      "lane": "J"
    },
    {
      "time": 49.87,
      "duration": 2.069,
      "midi": 72,
      "noteNumber": 72,
      "velocity": 0.51,
      "track": "Piano",
      "channel": 2,
      "lane": "K"
    },
    {
      "time": 49.87,
      "duration": 2.069,
      "midi": 62,
      "noteNumber": 62,
      "velocity": 0.51,
      "track": "Piano",
      "channel": 2,
      "lane": "J"
    },
    {
      "time": 49.87,
      "duration": 2.069,
      "midi": 65,
      "noteNumber": 65,
      "velocity": 0.51,
      "track": "Piano",
      "channel": 2,
      "lane": "J"
    },
    {
      "time": 49.87,
      "duration": 0.054,
      "midi": 51,
      "noteNumber": 51,
      "velocity": 0.75,
      "track": "Drums",
      "channel": 9,
      "lane": "F"
    },
    {
      "time": 49.87,
      "duration": 0.022,
      "midi": 59,
      "noteNumber": 59,
      "velocity": 0.87,
      "track": "Hi Ride Cymbal",
      "channel": 9,
      "lane": "J"
    },
    {
      "time": 50.13,
      "duration": 0.31,
      "midi": 38,
      "noteNumber": 38,
      "velocity": 0.94,
      "track": "Bass",
      "channel": 1,
      "lane": "F"
    },
    {
      "time": 50.13,
      "duration": 0.054,
      "midi": 42,
      "noteNumber": 42,
      "velocity": 0.67,
      "track": "Drums",
      "channel": 9,
      "lane": "F"
    },
    {
      "time": 50.13,
      "duration": 0.054,
      "midi": 51,
      "noteNumber": 51,
      "velocity": 0.83,
      "track": "Drums",
      "channel": 9,
      "lane": "F"
    },
    {
      "time": 50.13,
      "duration": 0.022,
      "midi": 42,
      "noteNumber": 42,
      "velocity": 0.7,
      "track": "Closed Hi Hat",
      "channel": 9,
      "lane": "F"
    },
    {
      "time": 50.13,
      "duration": 0.022,
      "midi": 59,
      "noteNumber": 59,
      "velocity": 0.71,
      "track": "Hi Ride Cymbal",
      "channel": 9,
      "lane": "J"
    },
    {
      "time": 50.303,
      "duration": 0.022,
      "midi": 59,
      "noteNumber": 59,
      "velocity": 0.72,
      "track": "Hi Ride Cymbal",
      "channel": 9,
      "lane": "J"
    },
    {
      "time": 50.316,
      "duration": 0.054,
      "midi": 51,
      "noteNumber": 51,
      "velocity": 0.59,
      "track": "Drums",
      "channel": 9,
      "lane": "F"
    },
    {
      "time": 50.322,
      "duration": 0.141,
      "midi": 67,
      "noteNumber": 67,
      "velocity": 0.5,
      "track": "Vibraphone",
      "channel": 3,
      "lane": "J"
    },
    {
      "time": 50.322,
      "duration": 0.141,
      "midi": 67,
      "noteNumber": 67,
      "velocity": 0.5,
      "track": "Flute",
      "channel": 4,
      "lane": "J"
    },
    {
      "time": 50.322,
      "duration": 0.141,
      "midi": 67,
      "noteNumber": 67,
      "velocity": 0.5,
      "track": "Pad2",
      "channel": 5,
      "lane": "J"
    },
    {
      "time": 50.39,
      "duration": 0.297,
      "midi": 39,
      "noteNumber": 39,
      "velocity": 0.94,
      "track": "Bass",
      "channel": 1,
      "lane": "F"
    },
    {
      "time": 50.39,
      "duration": 0.054,
      "midi": 51,
      "noteNumber": 51,
      "velocity": 0.75,
      "track": "Drums",
      "channel": 9,
      "lane": "F"
    },
    {
      "time": 50.39,
      "duration": 0.022,
      "midi": 59,
      "noteNumber": 59,
      "velocity": 0.69,
      "track": "Hi Ride Cymbal",
      "channel": 9,
      "lane": "J"
    },
    {
      "time": 50.439,
      "duration": 0.143,
      "midi": 69,
      "noteNumber": 69,
      "velocity": 0.57,
      "track": "Vibraphone",
      "channel": 3,
      "lane": "K"
    },
    {
      "time": 50.439,
      "duration": 0.143,
      "midi": 69,
      "noteNumber": 69,
      "velocity": 0.57,
      "track": "Flute",
      "channel": 4,
      "lane": "K"
    },
    {
      "time": 50.439,
      "duration": 0.143,
      "midi": 69,
      "noteNumber": 69,
      "velocity": 0.57,
      "track": "Pad2",
      "channel": 5,
      "lane": "K"
    },
    {
      "time": 50.597,
      "duration": 0.147,
      "midi": 72,
      "noteNumber": 72,
      "velocity": 0.61,
      "track": "Vibraphone",
      "channel": 3,
      "lane": "K"
    },
    {
      "time": 50.597,
      "duration": 0.147,
      "midi": 72,
      "noteNumber": 72,
      "velocity": 0.61,
      "track": "Flute",
      "channel": 4,
      "lane": "K"
    },
    {
      "time": 50.597,
      "duration": 0.147,
      "midi": 72,
      "noteNumber": 72,
      "velocity": 0.61,
      "track": "Pad2",
      "channel": 5,
      "lane": "K"
    },
    {
      "time": 50.649,
      "duration": 0.212,
      "midi": 40,
      "noteNumber": 40,
      "velocity": 1,
      "track": "Bass",
      "channel": 1,
      "lane": "F"
    },
    {
      "time": 50.649,
      "duration": 0.054,
      "midi": 42,
      "noteNumber": 42,
      "velocity": 0.67,
      "track": "Drums",
      "channel": 9,
      "lane": "F"
    },
    {
      "time": 50.649,
      "duration": 0.054,
      "midi": 51,
      "noteNumber": 51,
      "velocity": 0.83,
      "track": "Drums",
      "channel": 9,
      "lane": "F"
    },
    {
      "time": 50.649,
      "duration": 0.022,
      "midi": 42,
      "noteNumber": 42,
      "velocity": 0.71,
      "track": "Closed Hi Hat",
      "channel": 9,
      "lane": "F"
    },
    {
      "time": 50.649,
      "duration": 0.022,
      "midi": 59,
      "noteNumber": 59,
      "velocity": 0.71,
      "track": "Hi Ride Cymbal",
      "channel": 9,
      "lane": "J"
    },
    {
      "time": 50.708,
      "duration": 0.149,
      "midi": 69,
      "noteNumber": 69,
      "velocity": 0.57,
      "track": "Vibraphone",
      "channel": 3,
      "lane": "K"
    },
    {
      "time": 50.708,
      "duration": 0.149,
      "midi": 69,
      "noteNumber": 69,
      "velocity": 0.57,
      "track": "Flute",
      "channel": 4,
      "lane": "K"
    },
    {
      "time": 50.708,
      "duration": 0.149,
      "midi": 69,
      "noteNumber": 69,
      "velocity": 0.57,
      "track": "Pad2",
      "channel": 5,
      "lane": "K"
    },
    {
      "time": 50.822,
      "duration": 0.022,
      "midi": 59,
      "noteNumber": 59,
      "velocity": 0.69,
      "track": "Hi Ride Cymbal",
      "channel": 9,
      "lane": "J"
    },
    {
      "time": 50.835,
      "duration": 0.054,
      "midi": 51,
      "noteNumber": 51,
      "velocity": 0.59,
      "track": "Drums",
      "channel": 9,
      "lane": "F"
    },
    {
      "time": 50.851,
      "duration": 0.134,
      "midi": 67,
      "noteNumber": 67,
      "velocity": 0.62,
      "track": "Vibraphone",
      "channel": 3,
      "lane": "J"
    },
    {
      "time": 50.851,
      "duration": 0.134,
      "midi": 67,
      "noteNumber": 67,
      "velocity": 0.62,
      "track": "Flute",
      "channel": 4,
      "lane": "J"
    },
    {
      "time": 50.851,
      "duration": 0.134,
      "midi": 67,
      "noteNumber": 67,
      "velocity": 0.62,
      "track": "Pad2",
      "channel": 5,
      "lane": "J"
    },
    {
      "time": 50.909,
      "duration": 0.134,
      "midi": 41,
      "noteNumber": 41,
      "velocity": 0.93,
      "track": "Bass",
      "channel": 1,
      "lane": "F"
    },
    {
      "time": 50.909,
      "duration": 0.054,
      "midi": 51,
      "noteNumber": 51,
      "velocity": 0.75,
      "track": "Drums",
      "channel": 9,
      "lane": "F"
    },
    {
      "time": 50.97,
      "duration": 0.981,
      "midi": 69,
      "noteNumber": 69,
      "velocity": 0.6,
      "track": "Vibraphone",
      "channel": 3,
      "lane": "K"
    },
    {
      "time": 50.97,
      "duration": 0.981,
      "midi": 69,
      "noteNumber": 69,
      "velocity": 0.6,
      "track": "Flute",
      "channel": 4,
      "lane": "K"
    },
    {
      "time": 50.97,
      "duration": 0.981,
      "midi": 69,
      "noteNumber": 69,
      "velocity": 0.6,
      "track": "Pad2",
      "channel": 5,
      "lane": "K"
    },
    {
      "time": 51.097,
      "duration": 0.054,
      "midi": 35,
      "noteNumber": 35,
      "velocity": 0.43,
      "track": "Drums",
      "channel": 9,
      "lane": "D"
    },
    {
      "time": 51.169,
      "duration": 0.054,
      "midi": 38,
      "noteNumber": 38,
      "velocity": 0.43,
      "track": "Drums",
      "channel": 9,
      "lane": "F"
    },
    {
      "time": 51.169,
      "duration": 0.054,
      "midi": 42,
      "noteNumber": 42,
      "velocity": 0.67,
      "track": "Drums",
      "channel": 9,
      "lane": "F"
    },
    {
      "time": 51.169,
      "duration": 0.054,
      "midi": 51,
      "noteNumber": 51,
      "velocity": 0.83,
      "track": "Drums",
      "channel": 9,
      "lane": "F"
    },
    {
      "time": 51.342,
      "duration": 0.602,
      "midi": 34,
      "noteNumber": 34,
      "velocity": 0.98,
      "track": "Bass",
      "channel": 1,
      "lane": "D"
    },
    {
      "time": 51.357,
      "duration": 0.054,
      "midi": 38,
      "noteNumber": 38,
      "velocity": 0.43,
      "track": "Drums",
      "channel": 9,
      "lane": "F"
    },
    {
      "time": 51.357,
      "duration": 0.054,
      "midi": 51,
      "noteNumber": 51,
      "velocity": 0.59,
      "track": "Drums",
      "channel": 9,
      "lane": "F"
    }
  ]
}