{
  "name": "Pirates of the Caribbean - He's a Pirate",
  "bpm": 200,
  "duration": 77.63,
  "ppq": 192,
  "totalNotes": 1255,
  "noteRange": {
    "min": 26,
    "max": 84
  },
  "tracks": [
    {
      "name": "Right Hand",
      "instrument": "acoustic grand piano",
      "channel": 0,
      "noteCount": 557
    },
    {
      "name": "Left Hand",
      "instrument": "acoustic grand piano",
      "channel": 1,
      "noteCount": 698
    }
  ],
  "notes": [
    {
      "time": 0,
      "duration": 0.25,
      "midi": 62,
      "noteNumber": 62,
      "velocity": 0.87,
      "track": "Right Hand",
      "channel": 0,
      "lane": "J"
    },
    {
      "time": 0.3,
      "duration": 0.147,
      "midi": 62,
      "noteNumber": 62,
      "velocity": 0.87,
      "track": "Right Hand",
      "channel": 0,
      "lane": "J"
    },
    {
      "time": 0.45,
      "duration": 0.25,
      "midi": 62,
      "noteNumber": 62,
      "velocity": 0.87,
      "track": "Right Hand",
      "channel": 0,
      "lane": "J"
    },
    {
      "time": 0.75,
      "duration": 0.147,
      "midi": 62,
      "noteNumber": 62,
      "velocity": 0.87,
      "track": "Right Hand",
      "channel": 0,
      "lane": "J"
    },
    {
      "time": 0.9,
      "duration": 0.25,
      "midi": 62,
      "noteNumber": 62,
      "velocity": 0.87,
      "track": "Right Hand",
      "channel": 0,
      "lane": "J"
    },
    {
      "time": 1.2,
      "duration": 0.147,
      "midi": 62,
      "noteNumber": 62,
      "velocity": 0.87,
      "track": "Right Hand",
      "channel": 0,
      "lane": "J"
    },
    {
      "time": 1.35,
      "duration": 0.147,
      "midi": 62,
      "noteNumber": 62,
      "velocity": 0.87,
      "track": "Right Hand",
      "channel": 0,
      "lane": "J"
    },
    {
      "time": 1.5,
      "duration": 0.147,
      "midi": 62,
      "noteNumber": 62,
      "velocity": 0.87,
      "track": "Right Hand",
      "channel": 0,
      "lane": "J"
    },
    {
      "time": 1.65,
      "duration": 0.147,
      "midi": 62,
      "noteNumber": 62,
      "velocity": 0.87,
      "track": "Right Hand",
      "channel": 0,
      "lane": "J"
    },
    {
      "time": 1.8,
      "duration": 0.25,
      "midi": 62,
      "noteNumber": 62,
      "velocity": 0.87,
      "track": "Right Hand",
      "channel": 0,
      "lane": "J"
    },
    {
      "time": 2.1,
      "duration": 0.147,
      "midi": 62,
      "noteNumber": 62,
      "velocity": 0.87,
      "track": "Right Hand",
      "channel": 0,
      "lane": "J"
    },
    {
      "time": 2.25,
      "duration": 0.25,
      "midi": 62,
      "noteNumber": 62,
      "velocity": 0.87,
      "track": "Right Hand",
      "channel": 0,
      "lane": "J"
    },
    {
      "time": 2.55,
      "duration": 0.147,
      "midi": 62,
      "noteNumber": 62,
      "velocity": 0.87,
      "track": "Right Hand",
      "channel": 0,
      "lane": "J"
    },
    {
      "time": 2.7,
      "duration": 0.25,
      "midi": 62,
      "noteNumber": 62,
      "velocity": 0.87,
      "track": "Right Hand",
      "channel": 0,
      "lane": "J"
    },
    {
      "time": 3,
      "duration": 0.147,
      "midi": 62,
      "noteNumber": 62,
      "velocity": 0.87,
      "track": "Right Hand",
      "channel": 0,
      "lane": "J"
    },
    {
      "time": 3.15,
      "duration": 0.147,
      "midi": 62,
      "noteNumber": 62,
      "velocity": 0.87,
      "track": "Right Hand",
      "channel": 0,
      "lane": "J"
    },
    {
      "time": 3.3,
      "duration": 0.147,
      "midi": 62,
      "noteNumber": 62,
      "velocity": 0.87,
      "track": "Right Hand",
      "channel": 0,
      "lane": "J"
    },
    {
      "time": 3.45,
      "duration": 0.147,
      "midi": 62,
      "noteNumber": 62,
      "velocity": 0.87,
      "track": "Right Hand",
      "channel": 0,
      "lane": "J"
    },
    {
      "time": 3.6,
      "duration": 0.25,
      "midi": 62,
      "noteNumber": 62,
      "velocity": 0.87,
      "track": "Right Hand",
      "channel": 0,
      "lane": "J"
    },
    {
      "time": 3.6,
      "duration": 0.825,
      "midi": 26,
      "noteNumber": 26,
      "velocity": 0.87,
      "track": "Left Hand",
      "channel": 1,
      "lane": "D"
    },
    {
      "time": 3.6,
      "duration": 0.825,
      "midi": 38,
      "noteNumber": 38,
      "velocity": 0.87,
      "track": "Left Hand",
      "channel": 1,
      "lane": "D"
    },
    {
      "time": 3.9,
      "duration": 0.147,
      "midi": 62,
      "noteNumber": 62,
      "velocity": 0.87,
      "track": "Right Hand",
      "channel": 0,
      "lane": "J"
    },
    {
      "time": 4.05,
      "duration": 0.25,
      "midi": 62,
      "noteNumber": 62,
      "velocity": 0.87,
      "track": "Right Hand",
      "channel": 0,
      "lane": "J"
    },
    {
      "time": 4.35,
      "duration": 0.147,
      "midi": 62,
      "noteNumber": 62,
      "velocity": 0.87,
      "track": "Right Hand",
      "channel": 0,
      "lane": "J"
    },
    {
      "time": 4.5,
      "duration": 0.25,
      "midi": 62,
      "noteNumber": 62,
      "velocity": 0.87,
      "track": "Right Hand",
      "channel": 0,
      "lane": "J"
    },
    {
      "time": 4.5,
      "duration": 0.4,
      "midi": 26,
      "noteNumber": 26,
      "velocity": 0.87,
      "track": "Left Hand",
      "channel": 1,
      "lane": "D"
    },
    {
      "time": 4.5,
      "duration": 0.4,
      "midi": 38,
      "noteNumber": 38,
      "velocity": 0.87,
      "track": "Left Hand",
      "channel": 1,
      "lane": "D"
    },
    {
      "time": 4.8,
      "duration": 0.147,
      "midi": 62,
      "noteNumber": 62,
      "velocity": 0.87,
      "track": "Right Hand",
      "channel": 0,
      "lane": "J"
    },
    {
      "time": 4.95,
      "duration": 0.147,
      "midi": 62,
      "noteNumber": 62,
      "velocity": 0.87,
      "track": "Right Hand",
      "channel": 0,
      "lane": "J"
    },
    {
      "time": 4.95,
      "duration": 0.4,
      "midi": 26,
      "noteNumber": 26,
      "velocity": 0.87,
      "track": "Left Hand",
      "channel": 1,
      "lane": "D"
    },
    {
      "time": 4.95,
      "duration": 0.4,
      "midi": 38,
      "noteNumber": 38,
      "velocity": 0.87,
      "track": "Left Hand",
      "channel": 1,
      "lane": "D"
    },
    {
      "time": 5.1,
      "duration": 0.147,
      "midi": 57,
      "noteNumber": 57,
      "velocity": 0.87,
      "track": "Right Hand",
      "channel": 0,
      "lane": "J"
    },
    {
      "time": 5.25,
      "duration": 0.147,
      "midi": 60,
      "noteNumber": 60,
      "velocity": 0.87,
      "track": "Right Hand",
      "channel": 0,
      "lane": "J"
    },
    {
      "time": 5.4,
      "duration": 0.25,
      "midi": 53,
      "noteNumber": 53,
      "velocity": 0.87,
      "track": "Right Hand",
      "channel": 0,
      "lane": "F"
    },
    {
      "time": 5.4,
      "duration": 0.25,
      "midi": 57,
      "noteNumber": 57,
      "velocity": 0.87,
      "track": "Right Hand",
      "channel": 0,
      "lane": "J"
    },
    {
      "time": 5.4,
      "duration": 0.25,
      "midi": 62,
      "noteNumber": 62,
      "velocity": 0.87,
      "track": "Right Hand",
      "channel": 0,
      "lane": "J"
    },
    {
      "time": 5.4,
      "duration": 0.25,
      "midi": 38,
      "noteNumber": 38,
      "velocity": 0.87,
      "track": "Left Hand",
      "channel": 1,
      "lane": "D"
    },
    {
      "time": 5.4,
      "duration": 0.25,
      "midi": 50,
      "noteNumber": 50,
      "velocity": 0.87,
      "track": "Left Hand",
      "channel": 1,
      "lane": "F"
    },
    {
      "time": 5.7,
      "duration": 0.25,
      "midi": 53,
      "noteNumber": 53,
      "velocity": 0.87,
      "track": "Right Hand",
      "channel": 0,
      "lane": "F"
    },
    {
      "time": 5.7,
      "duration": 0.25,
      "midi": 57,
      "noteNumber": 57,
      "velocity": 0.87,
      "track": "Right Hand",
      "channel": 0,
      "lane": "J"
    },
    {
      "time": 5.7,
      "duration": 0.25,
      "midi": 62,
      "noteNumber": 62,
      "velocity": 0.87,
      "track": "Right Hand",
      "channel": 0,
      "lane": "J"
    },
    {
      "time": 5.7,
      "duration": 0.147,
      "midi": 38,
      "noteNumber": 38,
      "velocity": 0.87,
      "track": "Left Hand",
      "channel": 1,
      "lane": "D"
    },
    {
      "time": 5.7,
      "duration": 0.147,
      "midi": 50,
      "noteNumber": 50,
      "velocity": 0.87,
      "track": "Left Hand",
      "channel": 1,
      "lane": "F"
    },
    {
      "time": 5.85,
      "duration": 0.25,
      "midi": 38,
      "noteNumber": 38,
      "velocity": 0.87,
      "track": "Left Hand",
      "channel": 1,
      "lane": "D"
    },
    {
      "time": 5.85,
      "duration": 0.25,
      "midi": 50,
      "noteNumber": 50,
      "velocity": 0.87,
      "track": "Left Hand",
      "channel": 1,
      "lane": "F"
    },
    {
      "time": 6,
      "duration": 0.147,
      "midi": 53,
      "noteNumber": 53,
      "velocity": 0.87,
      "track": "Right Hand",
      "channel": 0,
      "lane": "F"
    },
    {
      "time": 6,
      "duration": 0.147,
      "midi": 57,
      "noteNumber": 57,
      "velocity": 0.87,
      "track": "Right Hand",
      "channel": 0,
      "lane": "J"
    },
    {
      "time": 6,
      "duration": 0.147,
      "midi": 62,
      "noteNumber": 62,
      "velocity": 0.87,
      "track": "Right Hand",
      "channel": 0,
      "lane": "J"
    },
    {
      "time": 6.15,
      "duration": 0.147,
      "midi": 57,
      "noteNumber": 57,
      "velocity": 0.87,
      "track": "Right Hand",
      "channel": 0,
      "lane": "J"
    },
    {
      "time": 6.15,
      "duration": 0.147,
      "midi": 60,
      "noteNumber": 60,
      "velocity": 0.87,
      "track": "Right Hand",
      "channel": 0,
      "lane": "J"
    },
    {
      "time": 6.15,
      "duration": 0.147,
      "midi": 64,
      "noteNumber": 64,
      "velocity": 0.87,
      "track": "Right Hand",
      "channel": 0,
      "lane": "J"
    },
    {
      "time": 6.15,
      "duration": 0.147,
      "midi": 36,
      "noteNumber": 36,
      "velocity": 0.87,
      "track": "Left Hand",
      "channel": 1,
      "lane": "D"
    },
    {
      "time": 6.15,
      "duration": 0.147,
      "midi": 48,
      "noteNumber": 48,
      "velocity": 0.87,
      "track": "Left Hand",
      "channel": 1,
      "lane": "F"
    },
    {
      "time": 6.3,
      "duration": 0.25,
      "midi": 58,
      "noteNumber": 58,
      "velocity": 0.87,
      "track": "Right Hand",
      "channel": 0,
      "lane": "J"
    },
    {
      "time": 6.3,
      "duration": 0.25,
      "midi": 62,
      "noteNumber": 62,
      "velocity": 0.87,
      "track": "Right Hand",
      "channel": 0,
      "lane": "J"
    },
    {
      "time": 6.3,
      "duration": 0.25,
      "midi": 65,
      "noteNumber": 65,
      "velocity": 0.87,
      "track": "Right Hand",
      "channel": 0,
      "lane": "J"
    },
    {
      "time": 6.3,
      "duration": 0.25,
      "midi": 34,
      "noteNumber": 34,
      "velocity": 0.87,
      "track": "Left Hand",
      "channel": 1,
      "lane": "D"
    },
    {
      "time": 6.3,
      "duration": 0.25,
      "midi": 46,
      "noteNumber": 46,
      "velocity": 0.87,
      "track": "Left Hand",
      "channel": 1,
      "lane": "F"
    },
    {
      "time": 6.6,
      "duration": 0.25,
      "midi": 58,
      "noteNumber": 58,
      "velocity": 0.87,
      "track": "Right Hand",
      "channel": 0,
      "lane": "J"
    },
    {
      "time": 6.6,
      "duration": 0.25,
      "midi": 62,
      "noteNumber": 62,
      "velocity": 0.87,
      "track": "Right Hand",
      "channel": 0,
      "lane": "J"
    },
    {
      "time": 6.6,
      "duration": 0.25,
      "midi": 65,
      "noteNumber": 65,
      "velocity": 0.87,
      "track": "Right Hand",
      "channel": 0,
      "lane": "J"
    },
    {
      "time": 6.6,
      "duration": 0.147,
      "midi": 34,
      "noteNumber": 34,
      "velocity": 0.87,
      "track": "Left Hand",
      "channel": 1,
      "lane": "D"
    },
    {
      "time": 6.6,
      "duration": 0.147,
      "midi": 46,
      "noteNumber": 46,
      "velocity": 0.87,
      "track": "Left Hand",
      "channel": 1,
      "lane": "F"
    },
    {
      "time": 6.75,
      "duration": 0.25,
      "midi": 34,
      "noteNumber": 34,
      "velocity": 0.87,
      "track": "Left Hand",
      "channel": 1,
      "lane": "D"
    },
    {
      "time": 6.75,
      "duration": 0.25,
      "midi": 46,
      "noteNumber": 46,
      "velocity": 0.87,
      "track": "Left Hand",
      "channel": 1,
      "lane": "F"
    },
    {
      "time": 6.9,
      "duration": 0.147,
      "midi": 58,
      "noteNumber": 58,
      "velocity": 0.87,
      "track": "Right Hand",
      "channel": 0,
      "lane": "J"
    },
    {
      "time": 6.9,
      "duration": 0.147,
      "midi": 62,
      "noteNumber": 62,
      "velocity": 0.87,
      "track": "Right Hand",
      "channel": 0,
      "lane": "J"
    },
    {
      "time": 6.9,
      "duration": 0.147,
      "midi": 65,
      "noteNumber": 65,
      "velocity": 0.87,
      "track": "Right Hand",
      "channel": 0,
      "lane": "J"
    },
    {
      "time": 7.05,
      "duration": 0.147,
      "midi": 62,
      "noteNumber": 62,
      "velocity": 0.87,
      "track": "Right Hand",
      "channel": 0,
      "lane": "J"
    },
    {
      "time": 7.05,
      "duration": 0.147,
      "midi": 67,
      "noteNumber": 67,
      "velocity": 0.87,
      "track": "Right Hand",
      "channel": 0,
      "lane": "J"
    },
    {
      "time": 7.05,
      "duration": 0.147,
      "midi": 34,
      "noteNumber": 34,
      "velocity": 0.87,
      "track": "Left Hand",
      "channel": 1,
      "lane": "D"
    },
    {
      "time": 7.05,
      "duration": 0.147,
      "midi": 46,
      "noteNumber": 46,
      "velocity": 0.87,
      "track": "Left Hand",
      "channel": 1,
      "lane": "F"
    },
    {
      "time": 7.2,
      "duration": 0.25,
      "midi": 57,
      "noteNumber": 57,
      "velocity": 0.87,
      "track": "Right Hand",
      "channel": 0,
      "lane": "J"
    },
    {
      "time": 7.2,
      "duration": 0.25,
      "midi": 60,
      "noteNumber": 60,
      "velocity": 0.87,
      "track": "Right Hand",
      "channel": 0,
      "lane": "J"
    },
    {
      "time": 7.2,
      "duration": 0.25,
      "midi": 64,
      "noteNumber": 64,
      "velocity": 0.87,
      "track": "Right Hand",
      "channel": 0,
      "lane": "J"
    },
    {
      "time": 7.2,
      "duration": 0.25,
      "midi": 33,
      "noteNumber": 33,
      "velocity": 0.87,
      "track": "Left Hand",
      "channel": 1,
      "lane": "D"
    },
    {
      "time": 7.2,
      "duration": 0.25,
      "midi": 45,
      "noteNumber": 45,
      "velocity": 0.87,
      "track": "Left Hand",
      "channel": 1,
      "lane": "F"
    },
    {
      "time": 7.5,
      "duration": 0.25,
      "midi": 57,
      "noteNumber": 57,
      "velocity": 0.87,
      "track": "Right Hand",
      "channel": 0,
      "lane": "J"
    },
    {
      "time": 7.5,
      "duration": 0.25,
      "midi": 60,
      "noteNumber": 60,
      "velocity": 0.87,
      "track": "Right Hand",
      "channel": 0,
      "lane": "J"
    },
    {
      "time": 7.5,
      "duration": 0.25,
      "midi": 64,
      "noteNumber": 64,
      "velocity": 0.87,
      "track": "Right Hand",
      "channel": 0,
      "lane": "J"
    },
    {
      "time": 7.5,
      "duration": 0.147,
      "midi": 33,
      "noteNumber": 33,
      "velocity": 0.87,
      "track": "Left Hand",
      "channel": 1,
      "lane": "D"
    },
    {
      "time": 7.5,
      "duration": 0.147,
      "midi": 45,
      "noteNumber": 45,
      "velocity": 0.87,
      "track": "Left Hand",
      "channel": 1,
      "lane": "F"
    },
    {
      "time": 7.65,
      "duration": 0.25,
      "midi": 33,
      "noteNumber": 33,
      "velocity": 0.87,
      "track": "Left Hand",
      "channel": 1,
      "lane": "D"
    },
    {
      "time": 7.65,
      "duration": 0.25,
      "midi": 45,
      "noteNumber": 45,
      "velocity": 0.87,
      "track": "Left Hand",
      "channel": 1,
      "lane": "F"
    },
    {
      "time": 7.8,
      "duration": 0.147,
      "midi": 57,
      "noteNumber": 57,
      "velocity": 0.87,
      "track": "Right Hand",
      "channel": 0,
      "lane": "J"
    },
    {
      "time": 7.8,
      "duration": 0.147,
      "midi": 62,
      "noteNumber": 62,
      "velocity": 0.87,
      "track": "Right Hand",
      "channel": 0,
      "lane": "J"
    },
    {
      "time": 7.95,
      "duration": 0.147,
      "midi": 55,
      "noteNumber": 55,
      "velocity": 0.87,
      "track": "Right Hand",
      "channel": 0,
      "lane": "F"
    },
    {
      "time": 7.95,
      "duration": 0.147,
      "midi": 60,
      "noteNumber": 60,
      "velocity": 0.87,
      "track": "Right Hand",
      "channel": 0,
      "lane": "J"
    },
    {
      "time": 7.95,
      "duration": 0.147,
      "midi": 33,
      "noteNumber": 33,
      "velocity": 0.87,
      "track": "Left Hand",
      "channel": 1,
      "lane": "D"
    },
    {
      "time": 7.95,
      "duration": 0.147,
      "midi": 45,
      "noteNumber": 45,
      "velocity": 0.87,
      "track": "Left Hand",
      "channel": 1,
      "lane": "F"
    },
    {
      "time": 8.1,
      "duration": 0.147,
      "midi": 57,
      "noteNumber": 57,
      "velocity": 0.87,
      "track": "Right Hand",
      "channel": 0,
      "lane": "J"
    },
    {
      "time": 8.1,
      "duration": 0.147,
      "midi": 60,
      "noteNumber": 60,
      "velocity": 0.87,
      "track": "Right Hand",
      "channel": 0,
      "lane": "J"
    },
    {
      "time": 8.1,
      "duration": 0.25,
      "midi": 38,
      "noteNumber": 38,
      "velocity": 0.87,
      "track": "Left Hand",
      "channel": 1,
      "lane": "D"
    },
    {
      "time": 8.1,
      "duration": 0.25,
      "midi": 50,
      "noteNumber": 50,
      "velocity": 0.87,
      "track": "Left Hand",
      "channel": 1,
      "lane": "F"
    },
    {
      "time": 8.25,
      "duration": 0.25,
      "midi": 57,
      "noteNumber": 57,
      "velocity": 0.87,
      "track": "Right Hand",
      "channel": 0,
      "lane": "J"
    },
    {
      "time": 8.25,
      "duration": 0.25,
      "midi": 62,
      "noteNumber": 62,
      "velocity": 0.87,
      "track": "Right Hand",
      "channel": 0,
      "lane": "J"
    },
    {
      "time": 8.4,
      "duration": 0.147,
      "midi": 38,
      "noteNumber": 38,
      "velocity": 0.87,
      "track": "Left Hand",
      "channel": 1,
      "lane": "D"
    },
    {
      "time": 8.4,
      "duration": 0.147,
      "midi": 50,
      "noteNumber": 50,
      "velocity": 0.87,
      "track": "Left Hand",
      "channel": 1,
      "lane": "F"
    },
    {
      "time": 8.55,
      "duration": 0.25,
      "midi": 38,
      "noteNumber": 38,
      "velocity": 0.87,
      "track": "Left Hand",
      "channel": 1,
      "lane": "D"
    },
    {
      "time": 8.55,
      "duration": 0.25,
      "midi": 50,
      "noteNumber": 50,
      "velocity": 0.87,
      "track": "Left Hand",
      "channel": 1,
      "lane": "F"
    },
    {
      "time": 8.7,
      "duration": 0.147,
      "midi": 57,
      "noteNumber": 57,
      "velocity": 0.87,
      "track": "Right Hand",
      "channel": 0,
      "lane": "J"
    },
    {
      "time": 8.85,
      "duration": 0.147,
      "midi": 60,
      "noteNumber": 60,
      "velocity": 0.87,
      "track": "Right Hand",
      "channel": 0,
      "lane": "J"
    },
    {
      "time": 8.85,
      "duration": 0.147,
      "midi": 38,
      "noteNumber": 38,
      "velocity": 0.87,
      "track": "Left Hand",
      "channel": 1,
      "lane": "D"
    },
    {
      "time": 8.85,
      "duration": 0.147,
      "midi": 50,
      "noteNumber": 50,
      "velocity": 0.87,
      "track": "Left Hand",
      "channel": 1,
      "lane": "F"
    },
    {
      "time": 9,
      "duration": 0.25,
      "midi": 53,
      "noteNumber": 53,
      "velocity": 0.87,
      "track": "Right Hand",
      "channel": 0,
      "lane": "F"
    },
    {
      "time": 9,
      "duration": 0.25,
      "midi": 58,
      "noteNumber": 58,
      "velocity": 0.87,
      "track": "Right Hand",
      "channel": 0,
      "lane": "J"
    },
    {
      "time": 9,
      "duration": 0.25,
      "midi": 62,
      "noteNumber": 62,
      "velocity": 0.87,
      "track": "Right Hand",
      "channel": 0,
      "lane": "J"
    },
    {
      "time": 9,
      "duration": 0.25,
      "midi": 34,
      "noteNumber": 34,
      "velocity": 0.87,
      "track": "Left Hand",
      "channel": 1,
      "lane": "D"
    },
    {
      "time": 9,
      "duration": 0.25,
      "midi": 46,
      "noteNumber": 46,
      "velocity": 0.87,
      "track": "Left Hand",
      "channel": 1,
      "lane": "F"
    },
    {
      "time": 9.3,
      "duration": 0.25,
      "midi": 53,
      "noteNumber": 53,
      "velocity": 0.87,
      "track": "Right Hand",
      "channel": 0,
      "lane": "F"
    },
    {
      "time": 9.3,
      "duration": 0.25,
      "midi": 58,
      "noteNumber": 58,
      "velocity": 0.87,
      "track": "Right Hand",
      "channel": 0,
      "lane": "J"
    },
    {
      "time": 9.3,
      "duration": 0.25,
      "midi": 62,
      "noteNumber": 62,
      "velocity": 0.87,
      "track": "Right Hand",
      "channel": 0,
      "lane": "J"
    },
    {
      "time": 9.3,
      "duration": 0.147,
      "midi": 34,
      "noteNumber": 34,
      "velocity": 0.87,
      "track": "Left Hand",
      "channel": 1,
      "lane": "D"
    },
    {
      "time": 9.3,
      "duration": 0.147,
      "midi": 46,
      "noteNumber": 46,
      "velocity": 0.87,
      "track": "Left Hand",
      "channel": 1,
      "lane": "F"
    },
    {
      "time": 9.45,
      "duration": 0.25,
      "midi": 34,
      "noteNumber": 34,
      "velocity": 0.87,
      "track": "Left Hand",
      "channel": 1,
      "lane": "D"
    },
    {
      "time": 9.45,
      "duration": 0.25,
      "midi": 46,
      "noteNumber": 46,
      "velocity": 0.87,
      "track": "Left Hand",
      "channel": 1,
      "lane": "F"
    },
    {
      "time": 9.6,
      "duration": 0.147,
      "midi": 58,
      "noteNumber": 58,
      "velocity": 0.87,
      "track": "Right Hand",
      "channel": 0,
      "lane": "J"
    },
    {
      "time": 9.6,
      "duration": 0.147,
      "midi": 62,
      "noteNumber": 62,
      "velocity": 0.87,
      "track": "Right Hand",
      "channel": 0,
      "lane": "J"
    },
    {
      "time": 9.75,
      "duration": 0.147,
      "midi": 58,
      "noteNumber": 58,
      "velocity": 0.87,
      "track": "Right Hand",
      "channel": 0,
      "lane": "J"
    },
    {
      "time": 9.75,
      "duration": 0.147,
      "midi": 64,
      "noteNumber": 64,
      "velocity": 0.87,
      "track": "Right Hand",
      "channel": 0,
      "lane": "J"
    },
    {
      "time": 9.75,
      "duration": 0.147,
      "midi": 34,
      "noteNumber": 34,
      "velocity": 0.87,
      "track": "Left Hand",
      "channel": 1,
      "lane": "D"
    },
    {
      "time": 9.75,
      "duration": 0.147,
      "midi": 46,
      "noteNumber": 46,
      "velocity": 0.87,
      "track": "Left Hand",
      "channel": 1,
      "lane": "F"
    },
    {
      "time": 9.9,
      "duration": 0.25,
      "midi": 57,
      "noteNumber": 57,
      "velocity": 0.87,
      "track": "Right Hand",
      "channel": 0,
      "lane": "J"
    },
    {
      "time": 9.9,
      "duration": 0.25,
      "midi": 60,
      "noteNumber": 60,
      "velocity": 0.87,
      "track": "Right Hand",
      "channel": 0,
      "lane": "J"
    },
    {
      "time": 9.9,
      "duration": 0.25,
      "midi": 65,
      "noteNumber": 65,
      "velocity": 0.87,
      "track": "Right Hand",
      "channel": 0,
      "lane": "J"
    },
    {
      "time": 9.9,
      "duration": 0.25,
      "midi": 29,
      "noteNumber": 29,
      "velocity": 0.87,
      "track": "Left Hand",
      "channel": 1,
      "lane": "D"
    },
    {
      "time": 9.9,
      "duration": 0.25,
      "midi": 41,
      "noteNumber": 41,
      "velocity": 0.87,
      "track": "Left Hand",
      "channel": 1,
      "lane": "F"
    },
    {
      "time": 10.2,
      "duration": 0.25,
      "midi": 57,
      "noteNumber": 57,
      "velocity": 0.87,
      "track": "Right Hand",
      "channel": 0,
      "lane": "J"
    },
    {
      "time": 10.2,
      "duration": 0.25,
      "midi": 60,
      "noteNumber": 60,
      "velocity": 0.87,
      "track": "Right Hand",
      "channel": 0,
      "lane": "J"
    },
    {
      "time": 10.2,
      "duration": 0.25,
      "midi": 65,
      "noteNumber": 65,
      "velocity": 0.87,
      "track": "Right Hand",
      "channel": 0,
      "lane": "J"
    },
    {
      "time": 10.2,
      "duration": 0.147,
      "midi": 29,
      "noteNumber": 29,
      "velocity": 0.87,
      "track": "Left Hand",
      "channel": 1,
      "lane": "D"
    },
    {
      "time": 10.2,
      "duration": 0.147,
      "midi": 41,
      "noteNumber": 41,
      "velocity": 0.87,
      "track": "Left Hand",
      "channel": 1,
      "lane": "F"
    },
    {
      "time": 10.35,
      "duration": 0.25,
      "midi": 29,
      "noteNumber": 29,
      "velocity": 0.87,
      "track": "Left Hand",
      "channel": 1,
      "lane": "D"
    },
    {
      "time": 10.35,
      "duration": 0.25,
      "midi": 41,
      "noteNumber": 41,
      "velocity": 0.87,
      "track": "Left Hand",
      "channel": 1,
      "lane": "F"
    },
    {
      "time": 10.5,
      "duration": 0.147,
      "midi": 60,
      "noteNumber": 60,
      "velocity": 0.87,
      "track": "Right Hand",
      "channel": 0,
      "lane": "J"
    },
    {
      "time": 10.5,
      "duration": 0.147,
      "midi": 65,
      "noteNumber": 65,
      "velocity": 0.87,
      "track": "Right Hand",
      "channel": 0,
      "lane": "J"
    },
    {
      "time": 10.65,
      "duration": 0.147,
      "midi": 60,
      "noteNumber": 60,
      "velocity": 0.87,
      "track": "Right Hand",
      "channel": 0,
      "lane": "J"
    },
    {
      "time": 10.65,
      "duration": 0.147,
      "midi": 67,
      "noteNumber": 67,
      "velocity": 0.87,
      "track": "Right Hand",
      "channel": 0,
      "lane": "J"
    },
    {
      "time": 10.65,
      "duration": 0.147,
      "midi": 29,
      "noteNumber": 29,
      "velocity": 0.87,
      "track": "Left Hand",
      "channel": 1,
      "lane": "D"
    },
    {
      "time": 10.65,
      "duration": 0.147,
      "midi": 41,
      "noteNumber": 41,
      "velocity": 0.87,
      "track": "Left Hand",
      "channel": 1,
      "lane": "F"
    },
    {
      "time": 10.8,
      "duration": 0.25,
      "midi": 60,
      "noteNumber": 60,
      "velocity": 0.87,
      "track": "Right Hand",
      "channel": 0,
      "lane": "J"
    },
    {
      "time": 10.8,
      "duration": 0.25,
      "midi": 64,
      "noteNumber": 64,
      "velocity": 0.87,
      "track": "Right Hand",
      "channel": 0,
      "lane": "J"
    },
    {
      "time": 10.8,
      "duration": 0.25,
      "midi": 36,
      "noteNumber": 36,
      "velocity": 0.87,
      "track": "Left Hand",
      "channel": 1,
      "lane": "D"
    },
    {
      "time": 10.8,
      "duration": 0.25,
      "midi": 48,
      "noteNumber": 48,
      "velocity": 0.87,
      "track": "Left Hand",
      "channel": 1,
      "lane": "F"
    },
    {
      "time": 11.1,
      "duration": 0.25,
      "midi": 60,
      "noteNumber": 60,
      "velocity": 0.87,
      "track": "Right Hand",
      "channel": 0,
      "lane": "J"
    },
    {
      "time": 11.1,
      "duration": 0.25,
      "midi": 64,
      "noteNumber": 64,
      "velocity": 0.87,
      "track": "Right Hand",
      "channel": 0,
      "lane": "J"
    },
    {
      "time": 11.1,
      "duration": 0.147,
      "midi": 36,
      "noteNumber": 36,
      "velocity": 0.87,
      "track": "Left Hand",
      "channel": 1,
      "lane": "D"
    },
    {
      "time": 11.1,
      "duration": 0.147,
      "midi": 48,
      "noteNumber": 48,
      "velocity": 0.87,
      "track": "Left Hand",
      "channel": 1,
      "lane": "F"
    },
    {
      "time": 11.25,
      "duration": 0.25,
      "midi": 33,
      "noteNumber": 33,
      "velocity": 0.87,
      "track": "Left Hand",
      "channel": 1,
      "lane": "D"
    },
    {
      "time": 11.25,
      "duration": 0.25,
      "midi": 45,
      "noteNumber": 45,
      "velocity": 0.87,
      "track": "Left Hand",
      "channel": 1,
      "lane": "F"
    },
    {
      "time": 11.4,
      "duration": 0.147,
      "midi": 57,
      "noteNumber": 57,
      "velocity": 0.87,
      "track": "Right Hand",
      "channel": 0,
      "lane": "J"
    },
    {
      "time": 11.4,
      "duration": 0.147,
      "midi": 62,
      "noteNumber": 62,
      "velocity": 0.87,
      "track": "Right Hand",
      "channel": 0,
      "lane": "J"
    },
    {
      "time": 11.55,
      "duration": 0.147,
      "midi": 60,
      "noteNumber": 60,
      "velocity": 0.87,
      "track": "Right Hand",
      "channel": 0,
      "lane": "J"
    },
    {
      "time": 11.55,
      "duration": 0.147,
      "midi": 33,
      "noteNumber": 33,
      "velocity": 0.87,
      "track": "Left Hand",
      "channel": 1,
      "lane": "D"
    },
    {
      "time": 11.55,
      "duration": 0.147,
      "midi": 45,
      "noteNumber": 45,
      "velocity": 0.87,
      "track": "Left Hand",
      "channel": 1,
      "lane": "F"
    },
    {
      "time": 11.7,
      "duration": 0.25,
      "midi": 53,
      "noteNumber": 53,
      "velocity": 0.87,
      "track": "Right Hand",
      "channel": 0,
      "lane": "F"
    },
    {
      "time": 11.7,
      "duration": 0.25,
      "midi": 57,
      "noteNumber": 57,
      "velocity": 0.87,
      "track": "Right Hand",
      "channel": 0,
      "lane": "J"
    },
    {
      "time": 11.7,
      "duration": 0.25,
      "midi": 62,
      "noteNumber": 62,
      "velocity": 0.87,
      "track": "Right Hand",
      "channel": 0,
      "lane": "J"
    },
    {
      "time": 11.7,
      "duration": 0.25,
      "midi": 38,
      "noteNumber": 38,
      "velocity": 0.87,
      "track": "Left Hand",
      "channel": 1,
      "lane": "D"
    },
    {
      "time": 11.7,
      "duration": 0.25,
      "midi": 50,
      "noteNumber": 50,
      "velocity": 0.87,
      "track": "Left Hand",
      "channel": 1,
      "lane": "F"
    },
    {
      "time": 12,
      "duration": 0.147,
      "midi": 38,
      "noteNumber": 38,
      "velocity": 0.87,
      "track": "Left Hand",
      "channel": 1,
      "lane": "D"
    },
    {
      "time": 12,
      "duration": 0.147,
      "midi": 50,
      "noteNumber": 50,
      "velocity": 0.87,
      "track": "Left Hand",
      "channel": 1,
      "lane": "F"
    },
    {
      "time": 12.15,
      "duration": 0.25,
      "midi": 38,
      "noteNumber": 38,
      "velocity": 0.87,
      "track": "Left Hand",
      "channel": 1,
      "lane": "D"
    },
    {
      "time": 12.15,
      "duration": 0.25,
      "midi": 50,
      "noteNumber": 50,
      "velocity": 0.87,
      "track": "Left Hand",
      "channel": 1,
      "lane": "F"
    },
    {
      "time": 12.3,
      "duration": 0.147,
      "midi": 57,
      "noteNumber": 57,
      "velocity": 0.87,
      "track": "Right Hand",
      "channel": 0,
      "lane": "J"
    },
    {
      "time": 12.45,
      "duration": 0.147,
      "midi": 60,
      "noteNumber": 60,
      "velocity": 0.87,
      "track": "Right Hand",
      "channel": 0,
      "lane": "J"
    },
    {
      "time": 12.45,
      "duration": 0.147,
      "midi": 38,
      "noteNumber": 38,
      "velocity": 0.87,
      "track": "Left Hand",
      "channel": 1,
      "lane": "D"
    },
    {
      "time": 12.45,
      "duration": 0.147,
      "midi": 50,
      "noteNumber": 50,
      "velocity": 0.87,
      "track": "Left Hand",
      "channel": 1,
      "lane": "F"
    },
    {
      "time": 12.6,
      "duration": 0.25,
      "midi": 53,
      "noteNumber": 53,
      "velocity": 0.87,
      "track": "Right Hand",
      "channel": 0,
      "lane": "F"
    },
    {
      "time": 12.6,
      "duration": 0.25,
      "midi": 57,
      "noteNumber": 57,
      "velocity": 0.87,
      "track": "Right Hand",
      "channel": 0,
      "lane": "J"
    },
    {
      "time": 12.6,
      "duration": 0.25,
      "midi": 62,
      "noteNumber": 62,
      "velocity": 0.87,
      "track": "Right Hand",
      "channel": 0,
      "lane": "J"
    },
    {
      "time": 12.6,
      "duration": 0.25,
      "midi": 38,
      "noteNumber": 38,
      "velocity": 0.87,
      "track": "Left Hand",
      "channel": 1,
      "lane": "D"
    },
    {
      "time": 12.6,
      "duration": 0.25,
      "midi": 50,
      "noteNumber": 50,
      "velocity": 0.87,
      "track": "Left Hand",
      "channel": 1,
      "lane": "F"
    },
    {
      "time": 12.9,
      "duration": 0.25,
      "midi": 53,
      "noteNumber": 53,
      "velocity": 0.87,
      "track": "Right Hand",
      "channel": 0,
      "lane": "F"
    },
    {
      "time": 12.9,
      "duration": 0.25,
      "midi": 57,
      "noteNumber": 57,
      "velocity": 0.87,
      "track": "Right Hand",
      "channel": 0,
      "lane": "J"
    },
    {
      "time": 12.9,
      "duration": 0.25,
      "midi": 62,
      "noteNumber": 62,
      "velocity": 0.87,
      "track": "Right Hand",
      "channel": 0,
      "lane": "J"
    },
    {
      "time": 12.9,
      "duration": 0.147,
      "midi": 38,
      "noteNumber": 38,
      "velocity": 0.87,
      "track": "Left Hand",
      "channel": 1,
      "lane": "D"
    },
    {
      "time": 12.9,
      "duration": 0.147,
      "midi": 50,
      "noteNumber": 50,
      "velocity": 0.87,
      "track": "Left Hand",
      "channel": 1,
      "lane": "F"
    },
    {
      "time": 13.05,
      "duration": 0.25,
      "midi": 38,
      "noteNumber": 38,
      "velocity": 0.87,
      "track": "Left Hand",
      "channel": 1,
      "lane": "D"
    },
    {
      "time": 13.05,
      "duration": 0.25,
      "midi": 50,
      "noteNumber": 50,
      "velocity": 0.87,
      "track": "Left Hand",
      "channel": 1,
      "lane": "F"
    },
    {
      "time": 13.2,
      "duration": 0.147,
      "midi": 57,
      "noteNumber": 57,
      "velocity": 0.87,
      "track": "Right Hand",
      "channel": 0,
      "lane": "J"
    },
    {
      "time": 13.2,
      "duration": 0.147,
      "midi": 62,
      "noteNumber": 62,
      "velocity": 0.87,
      "track": "Right Hand",
      "channel": 0,
      "lane": "J"
    },
    {
      "time": 13.35,
      "duration": 0.147,
      "midi": 57,
      "noteNumber": 57,
      "velocity": 0.87,
      "track": "Right Hand",
      "channel": 0,
      "lane": "J"
    },
    {
      "time": 13.35,
      "duration": 0.147,
      "midi": 65,
      "noteNumber": 65,
      "velocity": 0.87,
      "track": "Right Hand",
      "channel": 0,
      "lane": "J"
    },
    {
      "time": 13.35,
      "duration": 0.147,
      "midi": 38,
      "noteNumber": 38,
      "velocity": 0.87,
      "track": "Left Hand",
      "channel": 1,
      "lane": "D"
    },
    {
      "time": 13.35,
      "duration": 0.147,
      "midi": 50,
      "noteNumber": 50,
      "velocity": 0.87,
      "track": "Left Hand",
      "channel": 1,
      "lane": "F"
    },
    {
      "time": 13.5,
      "duration": 0.25,
      "midi": 58,
      "noteNumber": 58,
      "velocity": 0.87,
      "track": "Right Hand",
      "channel": 0,
      "lane": "J"
    },
    {
      "time": 13.5,
      "duration": 0.25,
      "midi": 62,
      "noteNumber": 62,
      "velocity": 0.87,
      "track": "Right Hand",
      "channel": 0,
      "lane": "J"
    },
    {
      "time": 13.5,
      "duration": 0.25,
      "midi": 67,
      "noteNumber": 67,
      "velocity": 0.87,
      "track": "Right Hand",
      "channel": 0,
      "lane": "J"
    },
    {
      "time": 13.5,
      "duration": 0.25,
      "midi": 34,
      "noteNumber": 34,
      "velocity": 0.87,
      "track": "Left Hand",
      "channel": 1,
      "lane": "D"
    },
    {
      "time": 13.5,
      "duration": 0.25,
      "midi": 46,
      "noteNumber": 46,
      "velocity": 0.87,
      "track": "Left Hand",
      "channel": 1,
      "lane": "F"
    },
    {
      "time": 13.8,
      "duration": 0.25,
      "midi": 58,
      "noteNumber": 58,
      "velocity": 0.87,
      "track": "Right Hand",
      "channel": 0,
      "lane": "J"
    },
    {
      "time": 13.8,
      "duration": 0.25,
      "midi": 62,
      "noteNumber": 62,
      "velocity": 0.87,
      "track": "Right Hand",
      "channel": 0,
      "lane": "J"
    },
    {
      "time": 13.8,
      "duration": 0.25,
      "midi": 67,
      "noteNumber": 67,
      "velocity": 0.87,
      "track": "Right Hand",
      "channel": 0,
      "lane": "J"
    },
    {
      "time": 13.8,
      "duration": 0.147,
      "midi": 34,
      "noteNumber": 34,
      "velocity": 0.87,
      "track": "Left Hand",
      "channel": 1,
      "lane": "D"
    },
    {
      "time": 13.8,
      "duration": 0.147,
      "midi": 46,
      "noteNumber": 46,
      "velocity": 0.87,
      "track": "Left Hand",
      "channel": 1,
      "lane": "F"
    },
    {
      "time": 13.95,
      "duration": 0.25,
      "midi": 34,
      "noteNumber": 34,
      "velocity": 0.87,
      "track": "Left Hand",
      "channel": 1,
      "lane": "D"
    },
    {
      "time": 13.95,
      "duration": 0.25,
      "midi": 46,
      "noteNumber": 46,
      "velocity": 0.87,
      "track": "Left Hand",
      "channel": 1,
      "lane": "F"
    },
    {
      "time": 14.1,
      "duration": 0.147,
      "midi": 62,
      "noteNumber": 62,
      "velocity": 0.87,
      "track": "Right Hand",
      "channel": 0,
      "lane": "J"
    },
    {
      "time": 14.1,
      "duration": 0.147,
      "midi": 67,
      "noteNumber": 67,
      "velocity": 0.87,
      "track": "Right Hand",
      "channel": 0,
      "lane": "J"
    },
    {
      "time": 14.25,
      "duration": 0.147,
      "midi": 62,
      "noteNumber": 62,
      "velocity": 0.87,
      "track": "Right Hand",
      "channel": 0,
      "lane": "J"
    },
    {
      "time": 14.25,
      "duration": 0.147,
      "midi": 69,
      "noteNumber": 69,
      "velocity": 0.87,
      "track": "Right Hand",
      "channel": 0,
      "lane": "J"
    },
    {
      "time": 14.25,
      "duration": 0.147,
      "midi": 34,
      "noteNumber": 34,
      "velocity": 0.87,
      "track": "Left Hand",
      "channel": 1,
      "lane": "D"
    },
    {
      "time": 14.25,
      "duration": 0.147,
      "midi": 46,
      "noteNumber": 46,
      "velocity": 0.87,
      "track": "Left Hand",
      "channel": 1,
      "lane": "F"
    },
    {
      "time": 14.4,
      "duration": 0.25,
      "midi": 62,
      "noteNumber": 62,
      "velocity": 0.87,
      "track": "Right Hand",
      "channel": 0,
      "lane": "J"
    },
    {
      "time": 14.4,
      "duration": 0.25,
      "midi": 67,
      "noteNumber": 67,
      "velocity": 0.87,
      "track": "Right Hand",
      "channel": 0,
      "lane": "J"
    },
    {
      "time": 14.4,
      "duration": 0.25,
      "midi": 70,
      "noteNumber": 70,
      "velocity": 0.87,
      "track": "Right Hand",
      "channel": 0,
      "lane": "K"
    },
    {
      "time": 14.4,
      "duration": 0.25,
      "midi": 31,
      "noteNumber": 31,
      "velocity": 0.87,
      "track": "Left Hand",
      "channel": 1,
      "lane": "D"
    },
    {
      "time": 14.4,
      "duration": 0.25,
      "midi": 43,
      "noteNumber": 43,
      "velocity": 0.87,
      "track": "Left Hand",
      "channel": 1,
      "lane": "F"
    },
    {
      "time": 14.7,
      "duration": 0.25,
      "midi": 62,
      "noteNumber": 62,
      "velocity": 0.87,
      "track": "Right Hand",
      "channel": 0,
      "lane": "J"
    },
    {
      "time": 14.7,
      "duration": 0.25,
      "midi": 67,
      "noteNumber": 67,
      "velocity": 0.87,
      "track": "Right Hand",
      "channel": 0,
      "lane": "J"
    },
    {
      "time": 14.7,
      "duration": 0.25,
      "midi": 70,
      "noteNumber": 70,
      "velocity": 0.87,
      "track": "Right Hand",
      "channel": 0,
      "lane": "K"
    },
    {
      "time": 14.7,
      "duration": 0.147,
      "midi": 31,
      "noteNumber": 31,
      "velocity": 0.87,
      "track": "Left Hand",
      "channel": 1,
      "lane": "D"
    },
    {
      "time": 14.7,
      "duration": 0.147,
      "midi": 43,
      "noteNumber": 43,
      "velocity": 0.87,
      "track": "Left Hand",
      "channel": 1,
      "lane": "F"
    },
    {
      "time": 14.85,
      "duration": 0.25,
      "midi": 31,
      "noteNumber": 31,
      "velocity": 0.87,
      "track": "Left Hand",
      "channel": 1,
      "lane": "D"
    },
    {
      "time": 14.85,
      "duration": 0.25,
      "midi": 43,
      "noteNumber": 43,
      "velocity": 0.87,
      "track": "Left Hand",
      "channel": 1,
      "lane": "F"
    },
    {
      "time": 15,
      "duration": 0.147,
      "midi": 65,
      "noteNumber": 65,
      "velocity": 0.87,
      "track": "Right Hand",
      "channel": 0,
      "lane": "J"
    },
    {
      "time": 15,
      "duration": 0.147,
      "midi": 69,
      "noteNumber": 69,
      "velocity": 0.87,
      "track": "Right Hand",
      "channel": 0,
      "lane": "J"
    },
    {
      "time": 15.15,
      "duration": 0.147,
      "midi": 64,
      "noteNumber": 64,
      "velocity": 0.87,
      "track": "Right Hand",
      "channel": 0,
      "lane": "J"
    },
    {
      "time": 15.15,
      "duration": 0.147,
      "midi": 67,
      "noteNumber": 67,
      "velocity": 0.87,
      "track": "Right Hand",
      "channel": 0,
      "lane": "J"
    },
    {
      "time": 15.15,
      "duration": 0.147,
      "midi": 31,
      "noteNumber": 31,
      "velocity": 0.87,
      "track": "Left Hand",
      "channel": 1,
      "lane": "D"
    },
    {
      "time": 15.15,
      "duration": 0.147,
      "midi": 43,
      "noteNumber": 43,
      "velocity": 0.87,
      "track": "Left Hand",
      "channel": 1,
      "lane": "F"
    },
    {
      "time": 15.3,
      "duration": 0.147,
      "midi": 65,
      "noteNumber": 65,
      "velocity": 0.87,
      "track": "Right Hand",
      "channel": 0,
      "lane": "J"
    },
    {
      "time": 15.3,
      "duration": 0.147,
      "midi": 69,
      "noteNumber": 69,
      "velocity": 0.87,
      "track": "Right Hand",
      "channel": 0,
      "lane": "J"
    },
    {
      "time": 15.3,
      "duration": 0.25,
      "midi": 38,
      "noteNumber": 38,
      "velocity": 0.87,
      "track": "Left Hand",
      "channel": 1,
      "lane": "D"
    },
    {
      "time": 15.3,
      "duration": 0.25,
      "midi": 50,
      "noteNumber": 50,
      "velocity": 0.87,
      "track": "Left Hand",
      "channel": 1,
      "lane": "F"
    },
    {
      "time": 15.45,
      "duration": 0.25,
      "midi": 62,
      "noteNumber": 62,
      "velocity": 0.87,
      "track": "Right Hand",
      "channel": 0,
      "lane": "J"
    },
    {
      "time": 15.6,
      "duration": 0.147,
      "midi": 38,
      "noteNumber": 38,
      "velocity": 0.87,
      "track": "Left Hand",
      "channel": 1,
      "lane": "D"
    },
    {
      "time": 15.6,
      "duration": 0.147,
      "midi": 50,
      "noteNumber": 50,
      "velocity": 0.87,
      "track": "Left Hand",
      "channel": 1,
      "lane": "F"
    },
    {
      "time": 15.75,
      "duration": 0.25,
      "midi": 38,
      "noteNumber": 38,
      "velocity": 0.87,
      "track": "Left Hand",
      "channel": 1,
      "lane": "D"
    },
    {
      "time": 15.75,
      "duration": 0.25,
      "midi": 50,
      "noteNumber": 50,
      "velocity": 0.87,
      "track": "Left Hand",
      "channel": 1,
      "lane": "F"
    },
    {
      "time": 15.9,
      "duration": 0.147,
      "midi": 62,
      "noteNumber": 62,
      "velocity": 0.87,
      "track": "Right Hand",
      "channel": 0,
      "lane": "J"
    },
    {
      "time": 16.05,
      "duration": 0.147,
      "midi": 64,
      "noteNumber": 64,
      "velocity": 0.87,
      "track": "Right Hand",
      "channel": 0,
      "lane": "J"
    },
    {
      "time": 16.05,
      "duration": 0.147,
      "midi": 38,
      "noteNumber": 38,
      "velocity": 0.87,
      "track": "Left Hand",
      "channel": 1,
      "lane": "D"
    },
    {
      "time": 16.05,
      "duration": 0.147,
      "midi": 50,
      "noteNumber": 50,
      "velocity": 0.87,
      "track": "Left Hand",
      "channel": 1,
      "lane": "F"
    },
    {
      "time": 16.2,
      "duration": 0.25,
      "midi": 58,
      "noteNumber": 58,
      "velocity": 0.87,
      "track": "Right Hand",
      "channel": 0,
      "lane": "J"
    },
    {
      "time": 16.2,
      "duration": 0.25,
      "midi": 62,
      "noteNumber": 62,
      "velocity": 0.87,
      "track": "Right Hand",
      "channel": 0,
      "lane": "J"
    },
    {
      "time": 16.2,
      "duration": 0.25,
      "midi": 65,
      "noteNumber": 65,
      "velocity": 0.87,
      "track": "Right Hand",
      "channel": 0,
      "lane": "J"
    },
    {
      "time": 16.2,
      "duration": 0.25,
      "midi": 34,
      "noteNumber": 34,
      "velocity": 0.87,
      "track": "Left Hand",
      "channel": 1,
      "lane": "D"
    },
    {
      "time": 16.2,
      "duration": 0.25,
      "midi": 46,
      "noteNumber": 46,
      "velocity": 0.87,
      "track": "Left Hand",
      "channel": 1,
      "lane": "F"
    },
    {
      "time": 16.5,
      "duration": 0.25,
      "midi": 58,
      "noteNumber": 58,
      "velocity": 0.87,
      "track": "Right Hand",
      "channel": 0,
      "lane": "J"
    },
    {
      "time": 16.5,
      "duration": 0.25,
      "midi": 62,
      "noteNumber": 62,
      "velocity": 0.87,
      "track": "Right Hand",
      "channel": 0,
      "lane": "J"
    },
    {
      "time": 16.5,
      "duration": 0.25,
      "midi": 65,
      "noteNumber": 65,
      "velocity": 0.87,
      "track": "Right Hand",
      "channel": 0,
      "lane": "J"
    },
    {
      "time": 16.5,
      "duration": 0.147,
      "midi": 34,
      "noteNumber": 34,
      "velocity": 0.87,
      "track": "Left Hand",
      "channel": 1,
      "lane": "D"
    },
    {
      "time": 16.5,
      "duration": 0.147,
      "midi": 46,
      "noteNumber": 46,
      "velocity": 0.87,
      "track": "Left Hand",
      "channel": 1,
      "lane": "F"
    },
    {
      "time": 16.65,
      "duration": 0.25,
      "midi": 34,
      "noteNumber": 34,
      "velocity": 0.87,
      "track": "Left Hand",
      "channel": 1,
      "lane": "D"
    },
    {
      "time": 16.65,
      "duration": 0.25,
      "midi": 46,
      "noteNumber": 46,
      "velocity": 0.87,
      "track": "Left Hand",
      "channel": 1,
      "lane": "F"
    },
    {
      "time": 16.8,
      "duration": 0.25,
      "midi": 58,
      "noteNumber": 58,
      "velocity": 0.87,
      "track": "Right Hand",
      "channel": 0,
      "lane": "J"
    },
    {
      "time": 16.8,
      "duration": 0.25,
      "midi": 62,
      "noteNumber": 62,
      "velocity": 0.87,
      "track": "Right Hand",
      "channel": 0,
      "lane": "J"
    },
    {
      "time": 16.8,
      "duration": 0.25,
      "midi": 67,
      "noteNumber": 67,
      "velocity": 0.87,
      "track": "Right Hand",
      "channel": 0,
      "lane": "J"
    },
    {
      "time": 16.95,
      "duration": 0.147,
      "midi": 34,
      "noteNumber": 34,
      "velocity": 0.87,
      "track": "Left Hand",
      "channel": 1,
      "lane": "D"
    },
    {
      "time": 16.95,
      "duration": 0.147,
      "midi": 46,
      "noteNumber": 46,
      "velocity": 0.87,
      "track": "Left Hand",
      "channel": 1,
      "lane": "F"
    },
    {
      "time": 17.1,
      "duration": 0.147,
      "midi": 65,
      "noteNumber": 65,
      "velocity": 0.87,
      "track": "Right Hand",
      "channel": 0,
      "lane": "J"
    },
    {
      "time": 17.1,
      "duration": 0.147,
      "midi": 69,
      "noteNumber": 69,
      "velocity": 0.87,
      "track": "Right Hand",
      "channel": 0,
      "lane": "J"
    },
    {
      "time": 17.1,
      "duration": 0.25,
      "midi": 38,
      "noteNumber": 38,
      "velocity": 0.87,
      "track": "Left Hand",
      "channel": 1,
      "lane": "D"
    },
    {
      "time": 17.1,
      "duration": 0.25,
      "midi": 50,
      "noteNumber": 50,
      "velocity": 0.87,
      "track": "Left Hand",
      "channel": 1,
      "lane": "F"
    },
    {
      "time": 17.25,
      "duration": 0.25,
      "midi": 62,
      "noteNumber": 62,
      "velocity": 0.87,
      "track": "Right Hand",
      "channel": 0,
      "lane": "J"
    },
    {
      "time": 17.4,
      "duration": 0.147,
      "midi": 38,
      "noteNumber": 38,
      "velocity": 0.87,
      "track": "Left Hand",
      "channel": 1,
      "lane": "D"
    },
    {
      "time": 17.4,
      "duration": 0.147,
      "midi": 50,
      "noteNumber": 50,
      "velocity": 0.87,
      "track": "Left Hand",
      "channel": 1,
      "lane": "F"
    },
    {
      "time": 17.55,
      "duration": 0.25,
      "midi": 38,
      "noteNumber": 38,
      "velocity": 0.87,
      "track": "Left Hand",
      "channel": 1,
      "lane": "D"
    },
    {
      "time": 17.55,
      "duration": 0.25,
      "midi": 50,
      "noteNumber": 50,
      "velocity": 0.87,
      "track": "Left Hand",
      "channel": 1,
      "lane": "F"
    },
    {
      "time": 17.7,
      "duration": 0.147,
      "midi": 62,
      "noteNumber": 62,
      "velocity": 0.87,
      "track": "Right Hand",
      "channel": 0,
      "lane": "J"
    },
    {
      "time": 17.85,
      "duration": 0.147,
      "midi": 65,
      "noteNumber": 65,
      "velocity": 0.87,
      "track": "Right Hand",
      "channel": 0,
      "lane": "J"
    },
    {
      "time": 17.85,
      "duration": 0.147,
      "midi": 38,
      "noteNumber": 38,
      "velocity": 0.87,
      "track": "Left Hand",
      "channel": 1,
      "lane": "D"
    },
    {
      "time": 17.85,
      "duration": 0.147,
      "midi": 50,
      "noteNumber": 50,
      "velocity": 0.87,
      "track": "Left Hand",
      "channel": 1,
      "lane": "F"
    },
    {
      "time": 18,
      "duration": 0.25,
      "midi": 57,
      "noteNumber": 57,
      "velocity": 0.87,
      "track": "Right Hand",
      "channel": 0,
      "lane": "J"
    },
    {
      "time": 18,
      "duration": 0.25,
      "midi": 61,
      "noteNumber": 61,
      "velocity": 0.87,
      "track": "Right Hand",
      "channel": 0,
      "lane": "J"
    },
    {
      "time": 18,
      "duration": 0.25,
      "midi": 64,
      "noteNumber": 64,
      "velocity": 0.87,
      "track": "Right Hand",
      "channel": 0,
      "lane": "J"
    },
    {
      "time": 18,
      "duration": 0.25,
      "midi": 33,
      "noteNumber": 33,
      "velocity": 0.87,
      "track": "Left Hand",
      "channel": 1,
      "lane": "D"
    },
    {
      "time": 18,
      "duration": 0.25,
      "midi": 45,
      "noteNumber": 45,
      "velocity": 0.87,
      "track": "Left Hand",
      "channel": 1,
      "lane": "F"
    },
    {
      "time": 18.3,
      "duration": 0.25,
      "midi": 57,
      "noteNumber": 57,
      "velocity": 0.87,
      "track": "Right Hand",
      "channel": 0,
      "lane": "J"
    },
    {
      "time": 18.3,
      "duration": 0.25,
      "midi": 61,
      "noteNumber": 61,
      "velocity": 0.87,
      "track": "Right Hand",
      "channel": 0,
      "lane": "J"
    },
    {
      "time": 18.3,
      "duration": 0.25,
      "midi": 64,
      "noteNumber": 64,
      "velocity": 0.87,
      "track": "Right Hand",
      "channel": 0,
      "lane": "J"
    },
    {
      "time": 18.3,
      "duration": 0.147,
      "midi": 33,
      "noteNumber": 33,
      "velocity": 0.87,
      "track": "Left Hand",
      "channel": 1,
      "lane": "D"
    },
    {
      "time": 18.3,
      "duration": 0.147,
      "midi": 45,
      "noteNumber": 45,
      "velocity": 0.87,
      "track": "Left Hand",
      "channel": 1,
      "lane": "F"
    },
    {
      "time": 18.45,
      "duration": 0.25,
      "midi": 33,
      "noteNumber": 33,
      "velocity": 0.87,
      "track": "Left Hand",
      "channel": 1,
      "lane": "D"
    },
    {
      "time": 18.45,
      "duration": 0.25,
      "midi": 45,
      "noteNumber": 45,
      "velocity": 0.87,
      "track": "Left Hand",
      "channel": 1,
      "lane": "F"
    },
    {
      "time": 18.6,
      "duration": 0.147,
      "midi": 62,
      "noteNumber": 62,
      "velocity": 0.87,
      "track": "Right Hand",
      "channel": 0,
      "lane": "J"
    },
    {
      "time": 18.6,
      "duration": 0.147,
      "midi": 65,
      "noteNumber": 65,
      "velocity": 0.87,
      "track": "Right Hand",
      "channel": 0,
      "lane": "J"
    },
    {
      "time": 18.75,
      "duration": 0.147,
      "midi": 59,
      "noteNumber": 59,
      "velocity": 0.87,
      "track": "Right Hand",
      "channel": 0,
      "lane": "J"
    },
    {
      "time": 18.75,
      "duration": 0.147,
      "midi": 62,
      "noteNumber": 62,
      "velocity": 0.87,
      "track": "Right Hand",
      "channel": 0,
      "lane": "J"
    },
    {
      "time": 18.75,
      "duration": 0.147,
      "midi": 33,
      "noteNumber": 33,
      "velocity": 0.87,
      "track": "Left Hand",
      "channel": 1,
      "lane": "D"
    },
    {
      "time": 18.75,
      "duration": 0.147,
      "midi": 45,
      "noteNumber": 45,
      "velocity": 0.87,
      "track": "Left Hand",
      "channel": 1,
      "lane": "F"
    },
    {
      "time": 18.9,
      "duration": 0.147,
      "midi": 57,
      "noteNumber": 57,
      "velocity": 0.87,
      "track": "Right Hand",
      "channel": 0,
      "lane": "J"
    },
    {
      "time": 18.9,
      "duration": 0.147,
      "midi": 61,
      "noteNumber": 61,
      "velocity": 0.87,
      "track": "Right Hand",
      "channel": 0,
      "lane": "J"
    },
    {
      "time": 18.9,
      "duration": 0.147,
      "midi": 64,
      "noteNumber": 64,
      "velocity": 0.87,
      "track": "Right Hand",
      "channel": 0,
      "lane": "J"
    },
    {
      "time": 18.9,
      "duration": 0.25,
      "midi": 33,
      "noteNumber": 33,
      "velocity": 0.87,
      "track": "Left Hand",
      "channel": 1,
      "lane": "D"
    },
    {
      "time": 18.9,
      "duration": 0.25,
      "midi": 45,
      "noteNumber": 45,
      "velocity": 0.87,
      "track": "Left Hand",
      "channel": 1,
      "lane": "F"
    },
    {
      "time": 19.2,
      "duration": 0.147,
      "midi": 33,
      "noteNumber": 33,
      "velocity": 0.87,
      "track": "Left Hand",
      "channel": 1,
      "lane": "D"
    },
    {
      "time": 19.2,
      "duration": 0.147,
      "midi": 45,
      "noteNumber": 45,
      "velocity": 0.87,
      "track": "Left Hand",
      "channel": 1,
      "lane": "F"
    },
    {
      "time": 19.35,
      "duration": 0.25,
      "midi": 33,
      "noteNumber": 33,
      "velocity": 0.87,
      "track": "Left Hand",
      "channel": 1,
      "lane": "D"
    },
    {
      "time": 19.35,
      "duration": 0.25,
      "midi": 45,
      "noteNumber": 45,
      "velocity": 0.87,
      "track": "Left Hand",
      "channel": 1,
      "lane": "F"
    },
    {
      "time": 19.5,
      "duration": 0.147,
      "midi": 69,
      "noteNumber": 69,
      "velocity": 0.87,
      "track": "Right Hand",
      "channel": 0,
      "lane": "J"
    },
    {
      "time": 19.65,
      "duration": 0.147,
      "midi": 72,
      "noteNumber": 72,
      "velocity": 0.87,
      "track": "Right Hand",
      "channel": 0,
      "lane": "K"
    },
    {
      "time": 19.65,
      "duration": 0.147,
      "midi": 33,
      "noteNumber": 33,
      "velocity": 0.87,
      "track": "Left Hand",
      "channel": 1,
      "lane": "D"
    },
    {
      "time": 19.65,
      "duration": 0.147,
      "midi": 45,
      "noteNumber": 45,
      "velocity": 0.87,
      "track": "Left Hand",
      "channel": 1,
      "lane": "F"
    },
    {
      "time": 19.8,
      "duration": 0.25,
      "midi": 65,
      "noteNumber": 65,
      "velocity": 0.87,
      "track": "Right Hand",
      "channel": 0,
      "lane": "J"
    },
    {
      "time": 19.8,
      "duration": 0.25,
      "midi": 69,
      "noteNumber": 69,
      "velocity": 0.87,
      "track": "Right Hand",
      "channel": 0,
      "lane": "J"
    },
    {
      "time": 19.8,
      "duration": 0.25,
      "midi": 74,
      "noteNumber": 74,
      "velocity": 0.87,
      "track": "Right Hand",
      "channel": 0,
      "lane": "K"
    },
    {
      "time": 19.8,
      "duration": 0.25,
      "midi": 38,
      "noteNumber": 38,
      "velocity": 0.87,
      "track": "Left Hand",
      "channel": 1,
      "lane": "D"
    },
    {
      "time": 19.8,
      "duration": 0.25,
      "midi": 50,
      "noteNumber": 50,
      "velocity": 0.87,
      "track": "Left Hand",
      "channel": 1,
      "lane": "F"
    },
    {
      "time": 20.1,
      "duration": 0.25,
      "midi": 65,
      "noteNumber": 65,
      "velocity": 0.87,
      "track": "Right Hand",
      "channel": 0,
      "lane": "J"
    },
    {
      "time": 20.1,
      "duration": 0.25,
      "midi": 69,
      "noteNumber": 69,
      "velocity": 0.87,
      "track": "Right Hand",
      "channel": 0,
      "lane": "J"
    },
    {
      "time": 20.1,
      "duration": 0.25,
      "midi": 74,
      "noteNumber": 74,
      "velocity": 0.87,
      "track": "Right Hand",
      "channel": 0,
      "lane": "K"
    },
    {
      "time": 20.1,
      "duration": 0.147,
      "midi": 38,
      "noteNumber": 38,
      "velocity": 0.87,
      "track": "Left Hand",
      "channel": 1,
      "lane": "D"
    },
    {
      "time": 20.1,
      "duration": 0.147,
      "midi": 50,
      "noteNumber": 50,
      "velocity": 0.87,
      "track": "Left Hand",
      "channel": 1,
      "lane": "F"
    },
    {
      "time": 20.25,
      "duration": 0.25,
      "midi": 38,
      "noteNumber": 38,
      "velocity": 0.87,
      "track": "Left Hand",
      "channel": 1,
      "lane": "D"
    },
    {
      "time": 20.25,
      "duration": 0.25,
      "midi": 50,
      "noteNumber": 50,
      "velocity": 0.87,
      "track": "Left Hand",
      "channel": 1,
      "lane": "F"
    },
    {
      "time": 20.4,
      "duration": 0.147,
      "midi": 65,
      "noteNumber": 65,
      "velocity": 0.87,
      "track": "Right Hand",
      "channel": 0,
      "lane": "J"
    },
    {
      "time": 20.4,
      "duration": 0.147,
      "midi": 69,
      "noteNumber": 69,
      "velocity": 0.87,
      "track": "Right Hand",
      "channel": 0,
      "lane": "J"
    },
    {
      "time": 20.4,
      "duration": 0.147,
      "midi": 74,
      "noteNumber": 74,
      "velocity": 0.87,
      "track": "Right Hand",
      "channel": 0,
      "lane": "K"
    },
    {
      "time": 20.55,
      "duration": 0.147,
      "midi": 69,
      "noteNumber": 69,
      "velocity": 0.87,
      "track": "Right Hand",
      "channel": 0,
      "lane": "J"
    },
    {
      "time": 20.55,
      "duration": 0.147,
      "midi": 72,
      "noteNumber": 72,
      "velocity": 0.87,
      "track": "Right Hand",
      "channel": 0,
      "lane": "K"
    },
    {
      "time": 20.55,
      "duration": 0.147,
      "midi": 76,
      "noteNumber": 76,
      "velocity": 0.87,
      "track": "Right Hand",
      "channel": 0,
      "lane": "K"
    },
    {
      "time": 20.55,
      "duration": 0.147,
      "midi": 36,
      "noteNumber": 36,
      "velocity": 0.87,
      "track": "Left Hand",
      "channel": 1,
      "lane": "D"
    },
    {
      "time": 20.55,
      "duration": 0.147,
      "midi": 48,
      "noteNumber": 48,
      "velocity": 0.87,
      "track": "Left Hand",
      "channel": 1,
      "lane": "F"
    },
    {
      "time": 20.7,
      "duration": 0.25,
      "midi": 70,
      "noteNumber": 70,
      "velocity": 0.87,
      "track": "Right Hand",
      "channel": 0,
      "lane": "K"
    },
    {
      "time": 20.7,
      "duration": 0.25,
      "midi": 74,
      "noteNumber": 74,
      "velocity": 0.87,
      "track": "Right Hand",
      "channel": 0,
      "lane": "K"
    },
    {
      "time": 20.7,
      "duration": 0.25,
      "midi": 77,
      "noteNumber": 77,
      "velocity": 0.87,
      "track": "Right Hand",
      "channel": 0,
      "lane": "K"
    },
    {
      "time": 20.7,
      "duration": 0.25,
      "midi": 34,
      "noteNumber": 34,
      "velocity": 0.87,
      "track": "Left Hand",
      "channel": 1,
      "lane": "D"
    },
    {
      "time": 20.7,
      "duration": 0.25,
      "midi": 46,
      "noteNumber": 46,
      "velocity": 0.87,
      "track": "Left Hand",
      "channel": 1,
      "lane": "F"
    },
    {
      "time": 21,
      "duration": 0.25,
      "midi": 70,
      "noteNumber": 70,
      "velocity": 0.87,
      "track": "Right Hand",
      "channel": 0,
      "lane": "K"
    },
    {
      "time": 21,
      "duration": 0.25,
      "midi": 74,
      "noteNumber": 74,
      "velocity": 0.87,
      "track": "Right Hand",
      "channel": 0,
      "lane": "K"
    },
    {
      "time": 21,
      "duration": 0.25,
      "midi": 77,
      "noteNumber": 77,
      "velocity": 0.87,
      "track": "Right Hand",
      "channel": 0,
      "lane": "K"
    },
    {
      "time": 21,
      "duration": 0.147,
      "midi": 34,
      "noteNumber": 34,
      "velocity": 0.87,
      "track": "Left Hand",
      "channel": 1,
      "lane": "D"
    },
    {
      "time": 21,
      "duration": 0.147,
      "midi": 46,
      "noteNumber": 46,
      "velocity": 0.87,
      "track": "Left Hand",
      "channel": 1,
      "lane": "F"
    },
    {
      "time": 21.15,
      "duration": 0.25,
      "midi": 34,
      "noteNumber": 34,
      "velocity": 0.87,
      "track": "Left Hand",
      "channel": 1,
      "lane": "D"
    },
    {
      "time": 21.15,
      "duration": 0.25,
      "midi": 46,
      "noteNumber": 46,
      "velocity": 0.87,
      "track": "Left Hand",
      "channel": 1,
      "lane": "F"
    },
    {
      "time": 21.3,
      "duration": 0.147,
      "midi": 70,
      "noteNumber": 70,
      "velocity": 0.87,
      "track": "Right Hand",
      "channel": 0,
      "lane": "K"
    },
    {
      "time": 21.3,
      "duration": 0.147,
      "midi": 74,
      "noteNumber": 74,
      "velocity": 0.87,
      "track": "Right Hand",
      "channel": 0,
      "lane": "K"
    },
    {
      "time": 21.3,
      "duration": 0.147,
      "midi": 77,
      "noteNumber": 77,
      "velocity": 0.87,
      "track": "Right Hand",
      "channel": 0,
      "lane": "K"
    },
    {
      "time": 21.45,
      "duration": 0.147,
      "midi": 74,
      "noteNumber": 74,
      "velocity": 0.87,
      "track": "Right Hand",
      "channel": 0,
      "lane": "K"
    },
    {
      "time": 21.45,
      "duration": 0.147,
      "midi": 79,
      "noteNumber": 79,
      "velocity": 0.87,
      "track": "Right Hand",
      "channel": 0,
      "lane": "K"
    },
    {
      "time": 21.45,
      "duration": 0.147,
      "midi": 34,
      "noteNumber": 34,
      "velocity": 0.87,
      "track": "Left Hand",
      "channel": 1,
      "lane": "D"
    },
    {
      "time": 21.45,
      "duration": 0.147,
      "midi": 46,
      "noteNumber": 46,
      "velocity": 0.87,
      "track": "Left Hand",
      "channel": 1,
      "lane": "F"
    },
    {
      "time": 21.6,
      "duration": 0.25,
      "midi": 69,
      "noteNumber": 69,
      "velocity": 0.87,
      "track": "Right Hand",
      "channel": 0,
      "lane": "J"
    },
    {
      "time": 21.6,
      "duration": 0.25,
      "midi": 72,
      "noteNumber": 72,
      "velocity": 0.87,
      "track": "Right Hand",
      "channel": 0,
      "lane": "K"
    },
    {
      "time": 21.6,
      "duration": 0.25,
      "midi": 76,
      "noteNumber": 76,
      "velocity": 0.87,
      "track": "Right Hand",
      "channel": 0,
      "lane": "K"
    },
    {
      "time": 21.6,
      "duration": 0.25,
      "midi": 33,
      "noteNumber": 33,
      "velocity": 0.87,
      "track": "Left Hand",
      "channel": 1,
      "lane": "D"
    },
    {
      "time": 21.6,
      "duration": 0.25,
      "midi": 45,
      "noteNumber": 45,
      "velocity": 0.87,
      "track": "Left Hand",
      "channel": 1,
      "lane": "F"
    },
    {
      "time": 21.9,
      "duration": 0.25,
      "midi": 69,
      "noteNumber": 69,
      "velocity": 0.87,
      "track": "Right Hand",
      "channel": 0,
      "lane": "J"
    },
    {
      "time": 21.9,
      "duration": 0.25,
      "midi": 72,
      "noteNumber": 72,
      "velocity": 0.87,
      "track": "Right Hand",
      "channel": 0,
      "lane": "K"
    },
    {
      "time": 21.9,
      "duration": 0.25,
      "midi": 76,
      "noteNumber": 76,
      "velocity": 0.87,
      "track": "Right Hand",
      "channel": 0,
      "lane": "K"
    },
    {
      "time": 21.9,
      "duration": 0.147,
      "midi": 33,
      "noteNumber": 33,
      "velocity": 0.87,
      "track": "Left Hand",
      "channel": 1,
      "lane": "D"
    },
    {
      "time": 21.9,
      "duration": 0.147,
      "midi": 45,
      "noteNumber": 45,
      "velocity": 0.87,
      "track": "Left Hand",
      "channel": 1,
      "lane": "F"
    },
    {
      "time": 22.05,
      "duration": 0.25,
      "midi": 33,
      "noteNumber": 33,
      "velocity": 0.87,
      "track": "Left Hand",
      "channel": 1,
      "lane": "D"
    },
    {
      "time": 22.05,
      "duration": 0.25,
      "midi": 45,
      "noteNumber": 45,
      "velocity": 0.87,
      "track": "Left Hand",
      "channel": 1,
      "lane": "F"
    },
    {
      "time": 22.2,
      "duration": 0.147,
      "midi": 69,
      "noteNumber": 69,
      "velocity": 0.87,
      "track": "Right Hand",
      "channel": 0,
      "lane": "J"
    },
    {
      "time": 22.2,
      "duration": 0.147,
      "midi": 74,
      "noteNumber": 74,
      "velocity": 0.87,
      "track": "Right Hand",
      "channel": 0,
      "lane": "K"
    },
    {
      "time": 22.35,
      "duration": 0.147,
      "midi": 67,
      "noteNumber": 67,
      "velocity": 0.87,
      "track": "Right Hand",
      "channel": 0,
      "lane": "J"
    },
    {
      "time": 22.35,
      "duration": 0.147,
      "midi": 72,
      "noteNumber": 72,
      "velocity": 0.87,
      "track": "Right Hand",
      "channel": 0,
      "lane": "K"
    },
    {
      "time": 22.35,
      "duration": 0.147,
      "midi": 33,
      "noteNumber": 33,
      "velocity": 0.87,
      "track": "Left Hand",
      "channel": 1,
      "lane": "D"
    },
    {
      "time": 22.35,
      "duration": 0.147,
      "midi": 45,
      "noteNumber": 45,
      "velocity": 0.87,
      "track": "Left Hand",
      "channel": 1,
      "lane": "F"
    },
    {
      "time": 22.5,
      "duration": 0.147,
      "midi": 69,
      "noteNumber": 69,
      "velocity": 0.87,
      "track": "Right Hand",
      "channel": 0,
      "lane": "J"
    },
    {
      "time": 22.5,
      "duration": 0.147,
      "midi": 72,
      "noteNumber": 72,
      "velocity": 0.87,
      "track": "Right Hand",
      "channel": 0,
      "lane": "K"
    },
    {
      "time": 22.5,
      "duration": 0.25,
      "midi": 38,
      "noteNumber": 38,
      "velocity": 0.87,
      "track": "Left Hand",
      "channel": 1,
      "lane": "D"
    },
    {
      "time": 22.5,
      "duration": 0.25,
      "midi": 50,
      "noteNumber": 50,
      "velocity": 0.87,
      "track": "Left Hand",
      "channel": 1,
      "lane": "F"
    },
    {
      "time": 22.65,
      "duration": 0.25,
      "midi": 69,
      "noteNumber": 69,
      "velocity": 0.87,
      "track": "Right Hand",
      "channel": 0,
      "lane": "J"
    },
    {
      "time": 22.65,
      "duration": 0.25,
      "midi": 74,
      "noteNumber": 74,
      "velocity": 0.87,
      "track": "Right Hand",
      "channel": 0,
      "lane": "K"
    },
    {
      "time": 22.8,
      "duration": 0.147,
      "midi": 38,
      "noteNumber": 38,
      "velocity": 0.87,
      "track": "Left Hand",
      "channel": 1,
      "lane": "D"
    },
    {
      "time": 22.8,
      "duration": 0.147,
      "midi": 50,
      "noteNumber": 50,
      "velocity": 0.87,
      "track": "Left Hand",
      "channel": 1,
      "lane": "F"
    },
    {
      "time": 22.95,
      "duration": 0.25,
      "midi": 38,
      "noteNumber": 38,
      "velocity": 0.87,
      "track": "Left Hand",
      "channel": 1,
      "lane": "D"
    },
    {
      "time": 22.95,
      "duration": 0.25,
      "midi": 50,
      "noteNumber": 50,
      "velocity": 0.87,
      "track": "Left Hand",
      "channel": 1,
      "lane": "F"
    },
    {
      "time": 23.1,
      "duration": 0.147,
      "midi": 69,
      "noteNumber": 69,
      "velocity": 0.87,
      "track": "Right Hand",
      "channel": 0,
      "lane": "J"
    },
    {
      "time": 23.25,
      "duration": 0.147,
      "midi": 72,
      "noteNumber": 72,
      "velocity": 0.87,
      "track": "Right Hand",
      "channel": 0,
      "lane": "K"
    },
    {
      "time": 23.25,
      "duration": 0.147,
      "midi": 38,
      "noteNumber": 38,
      "velocity": 0.87,
      "track": "Left Hand",
      "channel": 1,
      "lane": "D"
    },
    {
      "time": 23.25,
      "duration": 0.147,
      "midi": 50,
      "noteNumber": 50,
      "velocity": 0.87,
      "track": "Left Hand",
      "channel": 1,
      "lane": "F"
    },
    {
      "time": 23.4,
      "duration": 0.25,
      "midi": 65,
      "noteNumber": 65,
      "velocity": 0.87,
      "track": "Right Hand",
      "channel": 0,
      "lane": "J"
    },
    {
      "time": 23.4,
      "duration": 0.25,
      "midi": 70,
      "noteNumber": 70,
      "velocity": 0.87,
      "track": "Right Hand",
      "channel": 0,
      "lane": "K"
    },
    {
      "time": 23.4,
      "duration": 0.25,
      "midi": 74,
      "noteNumber": 74,
      "velocity": 0.87,
      "track": "Right Hand",
      "channel": 0,
      "lane": "K"
    },
    {
      "time": 23.4,
      "duration": 0.25,
      "midi": 34,
      "noteNumber": 34,
      "velocity": 0.87,
      "track": "Left Hand",
      "channel": 1,
      "lane": "D"
    },
    {
      "time": 23.4,
      "duration": 0.25,
      "midi": 46,
      "noteNumber": 46,
      "velocity": 0.87,
      "track": "Left Hand",
      "channel": 1,
      "lane": "F"
    },
    {
      "time": 23.7,
      "duration": 0.25,
      "midi": 65,
      "noteNumber": 65,
      "velocity": 0.87,
      "track": "Right Hand",
      "channel": 0,
      "lane": "J"
    },
    {
      "time": 23.7,
      "duration": 0.25,
      "midi": 70,
      "noteNumber": 70,
      "velocity": 0.87,
      "track": "Right Hand",
      "channel": 0,
      "lane": "K"
    },
    {
      "time": 23.7,
      "duration": 0.25,
      "midi": 74,
      "noteNumber": 74,
      "velocity": 0.87,
      "track": "Right Hand",
      "channel": 0,
      "lane": "K"
    },
    {
      "time": 23.7,
      "duration": 0.147,
      "midi": 34,
      "noteNumber": 34,
      "velocity": 0.87,
      "track": "Left Hand",
      "channel": 1,
      "lane": "D"
    },
    {
      "time": 23.7,
      "duration": 0.147,
      "midi": 46,
      "noteNumber": 46,
      "velocity": 0.87,
      "track": "Left Hand",
      "channel": 1,
      "lane": "F"
    },
    {
      "time": 23.85,
      "duration": 0.25,
      "midi": 34,
      "noteNumber": 34,
      "velocity": 0.87,
      "track": "Left Hand",
      "channel": 1,
      "lane": "D"
    },
    {
      "time": 23.85,
      "duration": 0.25,
      "midi": 46,
      "noteNumber": 46,
      "velocity": 0.87,
      "track": "Left Hand",
      "channel": 1,
      "lane": "F"
    },
    {
      "time": 24,
      "duration": 0.147,
      "midi": 70,
      "noteNumber": 70,
      "velocity": 0.87,
      "track": "Right Hand",
      "channel": 0,
      "lane": "K"
    },
    {
      "time": 24,
      "duration": 0.147,
      "midi": 74,
      "noteNumber": 74,
      "velocity": 0.87,
      "track": "Right Hand",
      "channel": 0,
      "lane": "K"
    },
    {
      "time": 24.15,
      "duration": 0.147,
      "midi": 70,
      "noteNumber": 70,
      "velocity": 0.87,
      "track": "Right Hand",
      "channel": 0,
      "lane": "K"
    },
    {
      "time": 24.15,
      "duration": 0.147,
      "midi": 76,
      "noteNumber": 76,
      "velocity": 0.87,
      "track": "Right Hand",
      "channel": 0,
      "lane": "K"
    },
    {
      "time": 24.15,
      "duration": 0.147,
      "midi": 34,
      "noteNumber": 34,
      "velocity": 0.87,
      "track": "Left Hand",
      "channel": 1,
      "lane": "D"
    },
    {
      "time": 24.15,
      "duration": 0.147,
      "midi": 46,
      "noteNumber": 46,
      "velocity": 0.87,
      "track": "Left Hand",
      "channel": 1,
      "lane": "F"
    },
    {
      "time": 24.3,
      "duration": 0.25,
      "midi": 69,
      "noteNumber": 69,
      "velocity": 0.87,
      "track": "Right Hand",
      "channel": 0,
      "lane": "J"
    },
    {
      "time": 24.3,
      "duration": 0.25,
      "midi": 72,
      "noteNumber": 72,
      "velocity": 0.87,
      "track": "Right Hand",
      "channel": 0,
      "lane": "K"
    },
    {
      "time": 24.3,
      "duration": 0.25,
      "midi": 77,
      "noteNumber": 77,
      "velocity": 0.87,
      "track": "Right Hand",
      "channel": 0,
      "lane": "K"
    },
    {
      "time": 24.3,
      "duration": 0.25,
      "midi": 29,
      "noteNumber": 29,
      "velocity": 0.87,
      "track": "Left Hand",
      "channel": 1,
      "lane": "D"
    },
    {
      "time": 24.3,
      "duration": 0.25,
      "midi": 41,
      "noteNumber": 41,
      "velocity": 0.87,
      "track": "Left Hand",
      "channel": 1,
      "lane": "F"
    },
    {
      "time": 24.6,
      "duration": 0.25,
      "midi": 69,
      "noteNumber": 69,
      "velocity": 0.87,
      "track": "Right Hand",
      "channel": 0,
      "lane": "J"
    },
    {
      "time": 24.6,
      "duration": 0.25,
      "midi": 72,
      "noteNumber": 72,
      "velocity": 0.87,
      "track": "Right Hand",
      "channel": 0,
      "lane": "K"
    },
    {
      "time": 24.6,
      "duration": 0.25,
      "midi": 77,
      "noteNumber": 77,
      "velocity": 0.87,
      "track": "Right Hand",
      "channel": 0,
      "lane": "K"
    },
    {
      "time": 24.6,
      "duration": 0.147,
      "midi": 29,
      "noteNumber": 29,
      "velocity": 0.87,
      "track": "Left Hand",
      "channel": 1,
      "lane": "D"
    },
    {
      "time": 24.6,
      "duration": 0.147,
      "midi": 41,
      "noteNumber": 41,
      "velocity": 0.87,
      "track": "Left Hand",
      "channel": 1,
      "lane": "F"
    },
    {
      "time": 24.75,
      "duration": 0.25,
      "midi": 29,
      "noteNumber": 29,
      "velocity": 0.87,
      "track": "Left Hand",
      "channel": 1,
      "lane": "D"
    },
    {
      "time": 24.75,
      "duration": 0.25,
      "midi": 41,
      "noteNumber": 41,
      "velocity": 0.87,
      "track": "Left Hand",
      "channel": 1,
      "lane": "F"
    },
    {
      "time": 24.9,
      "duration": 0.147,
      "midi": 72,
      "noteNumber": 72,
      "velocity": 0.87,
      "track": "Right Hand",
      "channel": 0,
      "lane": "K"
    },
    {
      "time": 24.9,
      "duration": 0.147,
      "midi": 77,
      "noteNumber": 77,
      "velocity": 0.87,
      "track": "Right Hand",
      "channel": 0,
      "lane": "K"
    },
    {
      "time": 25.05,
      "duration": 0.147,
      "midi": 72,
      "noteNumber": 72,
      "velocity": 0.87,
      "track": "Right Hand",
      "channel": 0,
      "lane": "K"
    },
    {
      "time": 25.05,
      "duration": 0.147,
      "midi": 79,
      "noteNumber": 79,
      "velocity": 0.87,
      "track": "Right Hand",
      "channel": 0,
      "lane": "K"
    },
    {
      "time": 25.05,
      "duration": 0.147,
      "midi": 29,
      "noteNumber": 29,
      "velocity": 0.87,
      "track": "Left Hand",
      "channel": 1,
      "lane": "D"
    },
    {
      "time": 25.05,
      "duration": 0.147,
      "midi": 41,
      "noteNumber": 41,
      "velocity": 0.87,
      "track": "Left Hand",
      "channel": 1,
      "lane": "F"
    },
    {
      "time": 25.2,
      "duration": 0.25,
      "midi": 72,
      "noteNumber": 72,
      "velocity": 0.87,
      "track": "Right Hand",
      "channel": 0,
      "lane": "K"
    },
    {
      "time": 25.2,
      "duration": 0.25,
      "midi": 76,
      "noteNumber": 76,
      "velocity": 0.87,
      "track": "Right Hand",
      "channel": 0,
      "lane": "K"
    },
    {
      "time": 25.2,
      "duration": 0.25,
      "midi": 36,
      "noteNumber": 36,
      "velocity": 0.87,
      "track": "Left Hand",
      "channel": 1,
      "lane": "D"
    },
    {
      "time": 25.2,
      "duration": 0.25,
      "midi": 48,
      "noteNumber": 48,
      "velocity": 0.87,
      "track": "Left Hand",
      "channel": 1,
      "lane": "F"
    },
    {
      "time": 25.5,
      "duration": 0.25,
      "midi": 72,
      "noteNumber": 72,
      "velocity": 0.87,
      "track": "Right Hand",
      "channel": 0,
      "lane": "K"
    },
    {
      "time": 25.5,
      "duration": 0.25,
      "midi": 76,
      "noteNumber": 76,
      "velocity": 0.87,
      "track": "Right Hand",
      "channel": 0,
      "lane": "K"
    },
    {
      "time": 25.5,
      "duration": 0.147,
      "midi": 36,
      "noteNumber": 36,
      "velocity": 0.87,
      "track": "Left Hand",
      "channel": 1,
      "lane": "D"
    },
    {
      "time": 25.5,
      "duration": 0.147,
      "midi": 48,
      "noteNumber": 48,
      "velocity": 0.87,
      "track": "Left Hand",
      "channel": 1,
      "lane": "F"
    },
    {
      "time": 25.65,
      "duration": 0.25,
      "midi": 33,
      "noteNumber": 33,
      "velocity": 0.87,
      "track": "Left Hand",
      "channel": 1,
      "lane": "D"
    },
    {
      "time": 25.65,
      "duration": 0.25,
      "midi": 45,
      "noteNumber": 45,
      "velocity": 0.87,
      "track": "Left Hand",
      "channel": 1,
      "lane": "F"
    },
    {
      "time": 25.8,
      "duration": 0.147,
      "midi": 69,
      "noteNumber": 69,
      "velocity": 0.87,
      "track": "Right Hand",
      "channel": 0,
      "lane": "J"
    },
    {
      "time": 25.8,
      "duration": 0.147,
      "midi": 74,
      "noteNumber": 74,
      "velocity": 0.87,
      "track": "Right Hand",
      "channel": 0,
      "lane": "K"
    },
    {
      "time": 25.95,
      "duration": 0.147,
      "midi": 72,
      "noteNumber": 72,
      "velocity": 0.87,
      "track": "Right Hand",
      "channel": 0,
      "lane": "K"
    },
    {
      "time": 25.95,
      "duration": 0.147,
      "midi": 33,
      "noteNumber": 33,
      "velocity": 0.87,
      "track": "Left Hand",
      "channel": 1,
      "lane": "D"
    },
    {
      "time": 25.95,
      "duration": 0.147,
      "midi": 45,
      "noteNumber": 45,
      "velocity": 0.87,
      "track": "Left Hand",
      "channel": 1,
      "lane": "F"
    },
    {
      "time": 26.1,
      "duration": 0.25,
      "midi": 65,
      "noteNumber": 65,
      "velocity": 0.87,
      "track": "Right Hand",
      "channel": 0,
      "lane": "J"
    },
    {
      "time": 26.1,
      "duration": 0.25,
      "midi": 69,
      "noteNumber": 69,
      "velocity": 0.87,
      "track": "Right Hand",
      "channel": 0,
      "lane": "J"
    },
    {
      "time": 26.1,
      "duration": 0.25,
      "midi": 74,
      "noteNumber": 74,
      "velocity": 0.87,
      "track": "Right Hand",
      "channel": 0,
      "lane": "K"
    },
    {
      "time": 26.1,
      "duration": 0.25,
      "midi": 38,
      "noteNumber": 38,
      "velocity": 0.87,
      "track": "Left Hand",
      "channel": 1,
      "lane": "D"
    },
    {
      "time": 26.1,
      "duration": 0.25,
      "midi": 50,
      "noteNumber": 50,
      "velocity": 0.87,
      "track": "Left Hand",
      "channel": 1,
      "lane": "F"
    },
    {
      "time": 26.4,
      "duration": 0.147,
      "midi": 38,
      "noteNumber": 38,
      "velocity": 0.87,
      "track": "Left Hand",
      "channel": 1,
      "lane": "D"
    },
    {
      "time": 26.4,
      "duration": 0.147,
      "midi": 50,
      "noteNumber": 50,
      "velocity": 0.87,
      "track": "Left Hand",
      "channel": 1,
      "lane": "F"
    },
    {
      "time": 26.55,
      "duration": 0.25,
      "midi": 38,
      "noteNumber": 38,
      "velocity": 0.87,
      "track": "Left Hand",
      "channel": 1,
      "lane": "D"
    },
    {
      "time": 26.55,
      "duration": 0.25,
      "midi": 50,
      "noteNumber": 50,
      "velocity": 0.87,
      "track": "Left Hand",
      "channel": 1,
      "lane": "F"
    },
    {
      "time": 26.7,
      "duration": 0.147,
      "midi": 69,
      "noteNumber": 69,
      "velocity": 0.87,
      "track": "Right Hand",
      "channel": 0,
      "lane": "J"
    },
    {
      "time": 26.85,
      "duration": 0.147,
      "midi": 72,
      "noteNumber": 72,
      "velocity": 0.87,
      "track": "Right Hand",
      "channel": 0,
      "lane": "K"
    },
    {
      "time": 26.85,
      "duration": 0.147,
      "midi": 38,
      "noteNumber": 38,
      "velocity": 0.87,
      "track": "Left Hand",
      "channel": 1,
      "lane": "D"
    },
    {
      "time": 26.85,
      "duration": 0.147,
      "midi": 50,
      "noteNumber": 50,
      "velocity": 0.87,
      "track": "Left Hand",
      "channel": 1,
      "lane": "F"
    },
    {
      "time": 27,
      "duration": 0.25,
      "midi": 65,
      "noteNumber": 65,
      "velocity": 0.87,
      "track": "Right Hand",
      "channel": 0,
      "lane": "J"
    },
    {
      "time": 27,
      "duration": 0.25,
      "midi": 69,
      "noteNumber": 69,
      "velocity": 0.87,
      "track": "Right Hand",
      "channel": 0,
      "lane": "J"
    },
    {
      "time": 27,
      "duration": 0.25,
      "midi": 74,
      "noteNumber": 74,
      "velocity": 0.87,
      "track": "Right Hand",
      "channel": 0,
      "lane": "K"
    },
    {
      "time": 27,
      "duration": 0.25,
      "midi": 38,
      "noteNumber": 38,
      "velocity": 0.87,
      "track": "Left Hand",
      "channel": 1,
      "lane": "D"
    },
    {
      "time": 27,
      "duration": 0.25,
      "midi": 50,
      "noteNumber": 50,
      "velocity": 0.87,
      "track": "Left Hand",
      "channel": 1,
      "lane": "F"
    },
    {
      "time": 27.3,
      "duration": 0.25,
      "midi": 65,
      "noteNumber": 65,
      "velocity": 0.87,
      "track": "Right Hand",
      "channel": 0,
      "lane": "J"
    },
    {
      "time": 27.3,
      "duration": 0.25,
      "midi": 69,
      "noteNumber": 69,
      "velocity": 0.87,
      "track": "Right Hand",
      "channel": 0,
      "lane": "J"
    },
    {
      "time": 27.3,
      "duration": 0.25,
      "midi": 74,
      "noteNumber": 74,
      "velocity": 0.87,
      "track": "Right Hand",
      "channel": 0,
      "lane": "K"
    },
    {
      "time": 27.3,
      "duration": 0.147,
      "midi": 38,
      "noteNumber": 38,
      "velocity": 0.87,
      "track": "Left Hand",
      "channel": 1,
      "lane": "D"
    },
    {
      "time": 27.3,
      "duration": 0.147,
      "midi": 50,
      "noteNumber": 50,
      "velocity": 0.87,
      "track": "Left Hand",
      "channel": 1,
      "lane": "F"
    },
    {
      "time": 27.45,
      "duration": 0.25,
      "midi": 38,
      "noteNumber": 38,
      "velocity": 0.87,
      "track": "Left Hand",
      "channel": 1,
      "lane": "D"
    },
    {
      "time": 27.45,
      "duration": 0.25,
      "midi": 50,
      "noteNumber": 50,
      "velocity": 0.87,
      "track": "Left Hand",
      "channel": 1,
      "lane": "F"
    },
    {
      "time": 27.6,
      "duration": 0.147,
      "midi": 69,
      "noteNumber": 69,
      "velocity": 0.87,
      "track": "Right Hand",
      "channel": 0,
      "lane": "J"
    },
    {
      "time": 27.6,
      "duration": 0.147,
      "midi": 74,
      "noteNumber": 74,
      "velocity": 0.87,
      "track": "Right Hand",
      "channel": 0,
      "lane": "K"
    },
    {
      "time": 27.75,
      "duration": 0.147,
      "midi": 69,
      "noteNumber": 69,
      "velocity": 0.87,
      "track": "Right Hand",
      "channel": 0,
      "lane": "J"
    },
    {
      "time": 27.75,
      "duration": 0.147,
      "midi": 77,
      "noteNumber": 77,
      "velocity": 0.87,
      "track": "Right Hand",
      "channel": 0,
      "lane": "K"
    },
    {
      "time": 27.75,
      "duration": 0.147,
      "midi": 38,
      "noteNumber": 38,
      "velocity": 0.87,
      "track": "Left Hand",
      "channel": 1,
      "lane": "D"
    },
    {
      "time": 27.75,
      "duration": 0.147,
      "midi": 50,
      "noteNumber": 50,
      "velocity": 0.87,
      "track": "Left Hand",
      "channel": 1,
      "lane": "F"
    },
    {
      "time": 27.9,
      "duration": 0.25,
      "midi": 70,
      "noteNumber": 70,
      "velocity": 0.87,
      "track": "Right Hand",
      "channel": 0,
      "lane": "K"
    },
    {
      "time": 27.9,
      "duration": 0.25,
      "midi": 74,
      "noteNumber": 74,
      "velocity": 0.87,
      "track": "Right Hand",
      "channel": 0,
      "lane": "K"
    },
    {
      "time": 27.9,
      "duration": 0.25,
      "midi": 79,
      "noteNumber": 79,
      "velocity": 0.87,
      "track": "Right Hand",
      "channel": 0,
      "lane": "K"
    },
    {
      "time": 27.9,
      "duration": 0.25,
      "midi": 34,
      "noteNumber": 34,
      "velocity": 0.87,
      "track": "Left Hand",
      "channel": 1,
      "lane": "D"
    },
    {
      "time": 27.9,
      "duration": 0.25,
      "midi": 46,
      "noteNumber": 46,
      "velocity": 0.87,
      "track": "Left Hand",
      "channel": 1,
      "lane": "F"
    },
    {
      "time": 28.2,
      "duration": 0.25,
      "midi": 70,
      "noteNumber": 70,
      "velocity": 0.87,
      "track": "Right Hand",
      "channel": 0,
      "lane": "K"
    },
    {
      "time": 28.2,
      "duration": 0.25,
      "midi": 74,
      "noteNumber": 74,
      "velocity": 0.87,
      "track": "Right Hand",
      "channel": 0,
      "lane": "K"
    },
    {
      "time": 28.2,
      "duration": 0.25,
      "midi": 79,
      "noteNumber": 79,
      "velocity": 0.87,
      "track": "Right Hand",
      "channel": 0,
      "lane": "K"
    },
    {
      "time": 28.2,
      "duration": 0.147,
      "midi": 34,
      "noteNumber": 34,
      "velocity": 0.87,
      "track": "Left Hand",
      "channel": 1,
      "lane": "D"
    },
    {
      "time": 28.2,
      "duration": 0.147,
      "midi": 46,
      "noteNumber": 46,
      "velocity": 0.87,
      "track": "Left Hand",
      "channel": 1,
      "lane": "F"
    },
    {
      "time": 28.35,
      "duration": 0.25,
      "midi": 34,
      "noteNumber": 34,
      "velocity": 0.87,
      "track": "Left Hand",
      "channel": 1,
      "lane": "D"
    },
    {
      "time": 28.35,
      "duration": 0.25,
      "midi": 46,
      "noteNumber": 46,
      "velocity": 0.87,
      "track": "Left Hand",
      "channel": 1,
      "lane": "F"
    },
    {
      "time": 28.5,
      "duration": 0.147,
      "midi": 74,
      "noteNumber": 74,
      "velocity": 0.87,
      "track": "Right Hand",
      "channel": 0,
      "lane": "K"
    },
    {
      "time": 28.5,
      "duration": 0.147,
      "midi": 79,
      "noteNumber": 79,
      "velocity": 0.87,
      "track": "Right Hand",
      "channel": 0,
      "lane": "K"
    },
    {
      "time": 28.65,
      "duration": 0.147,
      "midi": 74,
      "noteNumber": 74,
      "velocity": 0.87,
      "track": "Right Hand",
      "channel": 0,
      "lane": "K"
    },
    {
      "time": 28.65,
      "duration": 0.147,
      "midi": 81,
      "noteNumber": 81,
      "velocity": 0.87,
      "track": "Right Hand",
      "channel": 0,
      "lane": "K"
    },
    {
      "time": 28.65,
      "duration": 0.147,
      "midi": 34,
      "noteNumber": 34,
      "velocity": 0.87,
      "track": "Left Hand",
      "channel": 1,
      "lane": "D"
    },
    {
      "time": 28.65,
      "duration": 0.147,
      "midi": 46,
      "noteNumber": 46,
      "velocity": 0.87,
      "track": "Left Hand",
      "channel": 1,
      "lane": "F"
    },
    {
      "time": 28.8,
      "duration": 0.25,
      "midi": 74,
      "noteNumber": 74,
      "velocity": 0.87,
      "track": "Right Hand",
      "channel": 0,
      "lane": "K"
    },
    {
      "time": 28.8,
      "duration": 0.25,
      "midi": 79,
      "noteNumber": 79,
      "velocity": 0.87,
      "track": "Right Hand",
      "channel": 0,
      "lane": "K"
    },
    {
      "time": 28.8,
      "duration": 0.25,
      "midi": 82,
      "noteNumber": 82,
      "velocity": 0.87,
      "track": "Right Hand",
      "channel": 0,
      "lane": "K"
    },
    {
      "time": 28.8,
      "duration": 0.25,
      "midi": 31,
      "noteNumber": 31,
      "velocity": 0.87,
      "track": "Left Hand",
      "channel": 1,
      "lane": "D"
    },
    {
      "time": 28.8,
      "duration": 0.25,
      "midi": 43,
      "noteNumber": 43,
      "velocity": 0.87,
      "track": "Left Hand",
      "channel": 1,
      "lane": "F"
    },
    {
      "time": 29.1,
      "duration": 0.25,
      "midi": 74,
      "noteNumber": 74,
      "velocity": 0.87,
      "track": "Right Hand",
      "channel": 0,
      "lane": "K"
    },
    {
      "time": 29.1,
      "duration": 0.25,
      "midi": 79,
      "noteNumber": 79,
      "velocity": 0.87,
      "track": "Right Hand",
      "channel": 0,
      "lane": "K"
    },
    {
      "time": 29.1,
      "duration": 0.25,
      "midi": 82,
      "noteNumber": 82,
      "velocity": 0.87,
      "track": "Right Hand",
      "channel": 0,
      "lane": "K"
    },
    {
      "time": 29.1,
      "duration": 0.147,
      "midi": 31,
      "noteNumber": 31,
      "velocity": 0.87,
      "track": "Left Hand",
      "channel": 1,
      "lane": "D"
    },
    {
      "time": 29.1,
      "duration": 0.147,
      "midi": 43,
      "noteNumber": 43,
      "velocity": 0.87,
      "track": "Left Hand",
      "channel": 1,
      "lane": "F"
    },
    {
      "time": 29.25,
      "duration": 0.25,
      "midi": 31,
      "noteNumber": 31,
      "velocity": 0.87,
      "track": "Left Hand",
      "channel": 1,
      "lane": "D"
    },
    {
      "time": 29.25,
      "duration": 0.25,
      "midi": 43,
      "noteNumber": 43,
      "velocity": 0.87,
      "track": "Left Hand",
      "channel": 1,
      "lane": "F"
    },
    {
      "time": 29.4,
      "duration": 0.147,
      "midi": 77,
      "noteNumber": 77,
      "velocity": 0.87,
      "track": "Right Hand",
      "channel": 0,
      "lane": "K"
    },
    {
      "time": 29.4,
      "duration": 0.147,
      "midi": 81,
      "noteNumber": 81,
      "velocity": 0.87,
      "track": "Right Hand",
      "channel": 0,
      "lane": "K"
    },
    {
      "time": 29.55,
      "duration": 0.147,
      "midi": 76,
      "noteNumber": 76,
      "velocity": 0.87,
      "track": "Right Hand",
      "channel": 0,
      "lane": "K"
    },
    {
      "time": 29.55,
      "duration": 0.147,
      "midi": 79,
      "noteNumber": 79,
      "velocity": 0.87,
      "track": "Right Hand",
      "channel": 0,
      "lane": "K"
    },
    {
      "time": 29.55,
      "duration": 0.147,
      "midi": 31,
      "noteNumber": 31,
      "velocity": 0.87,
      "track": "Left Hand",
      "channel": 1,
      "lane": "D"
    },
    {
      "time": 29.55,
      "duration": 0.147,
      "midi": 43,
      "noteNumber": 43,
      "velocity": 0.87,
      "track": "Left Hand",
      "channel": 1,
      "lane": "F"
    },
    {
      "time": 29.7,
      "duration": 0.147,
      "midi": 77,
      "noteNumber": 77,
      "velocity": 0.87,
      "track": "Right Hand",
      "channel": 0,
      "lane": "K"
    },
    {
      "time": 29.7,
      "duration": 0.147,
      "midi": 81,
      "noteNumber": 81,
      "velocity": 0.87,
      "track": "Right Hand",
      "channel": 0,
      "lane": "K"
    },
    {
      "time": 29.7,
      "duration": 0.25,
      "midi": 38,
      "noteNumber": 38,
      "velocity": 0.87,
      "track": "Left Hand",
      "channel": 1,
      "lane": "D"
    },
    {
      "time": 29.7,
      "duration": 0.25,
      "midi": 50,
      "noteNumber": 50,
      "velocity": 0.87,
      "track": "Left Hand",
      "channel": 1,
      "lane": "F"
    },
    {
      "time": 29.85,
      "duration": 0.25,
      "midi": 74,
      "noteNumber": 74,
      "velocity": 0.87,
      "track": "Right Hand",
      "channel": 0,
      "lane": "K"
    },
    {
      "time": 30,
      "duration": 0.147,
      "midi": 38,
      "noteNumber": 38,
      "velocity": 0.87,
      "track": "Left Hand",
      "channel": 1,
      "lane": "D"
    },
    {
      "time": 30,
      "duration": 0.147,
      "midi": 50,
      "noteNumber": 50,
      "velocity": 0.87,
      "track": "Left Hand",
      "channel": 1,
      "lane": "F"
    },
    {
      "time": 30.15,
      "duration": 0.25,
      "midi": 38,
      "noteNumber": 38,
      "velocity": 0.87,
      "track": "Left Hand",
      "channel": 1,
      "lane": "D"
    },
    {
      "time": 30.15,
      "duration": 0.25,
      "midi": 50,
      "noteNumber": 50,
      "velocity": 0.87,
      "track": "Left Hand",
      "channel": 1,
      "lane": "F"
    },
    {
      "time": 30.3,
      "duration": 0.147,
      "midi": 74,
      "noteNumber": 74,
      "velocity": 0.87,
      "track": "Right Hand",
      "channel": 0,
      "lane": "K"
    },
    {
      "time": 30.45,
      "duration": 0.147,
      "midi": 76,
      "noteNumber": 76,
      "velocity": 0.87,
      "track": "Right Hand",
      "channel": 0,
      "lane": "K"
    },
    {
      "time": 30.45,
      "duration": 0.147,
      "midi": 38,
      "noteNumber": 38,
      "velocity": 0.87,
      "track": "Left Hand",
      "channel": 1,
      "lane": "D"
    },
    {
      "time": 30.45,
      "duration": 0.147,
      "midi": 50,
      "noteNumber": 50,
      "velocity": 0.87,
      "track": "Left Hand",
      "channel": 1,
      "lane": "F"
    },
    {
      "time": 30.6,
      "duration": 0.25,
      "midi": 70,
      "noteNumber": 70,
      "velocity": 0.87,
      "track": "Right Hand",
      "channel": 0,
      "lane": "K"
    },
    {
      "time": 30.6,
      "duration": 0.25,
      "midi": 74,
      "noteNumber": 74,
      "velocity": 0.87,
      "track": "Right Hand",
      "channel": 0,
      "lane": "K"
    },
    {
      "time": 30.6,
      "duration": 0.25,
      "midi": 77,
      "noteNumber": 77,
      "velocity": 0.87,
      "track": "Right Hand",
      "channel": 0,
      "lane": "K"
    },
    {
      "time": 30.6,
      "duration": 0.25,
      "midi": 34,
      "noteNumber": 34,
      "velocity": 0.87,
      "track": "Left Hand",
      "channel": 1,
      "lane": "D"
    },
    {
      "time": 30.6,
      "duration": 0.25,
      "midi": 46,
      "noteNumber": 46,
      "velocity": 0.87,
      "track": "Left Hand",
      "channel": 1,
      "lane": "F"
    },
    {
      "time": 30.9,
      "duration": 0.25,
      "midi": 70,
      "noteNumber": 70,
      "velocity": 0.87,
      "track": "Right Hand",
      "channel": 0,
      "lane": "K"
    },
    {
      "time": 30.9,
      "duration": 0.25,
      "midi": 74,
      "noteNumber": 74,
      "velocity": 0.87,
      "track": "Right Hand",
      "channel": 0,
      "lane": "K"
    },
    {
      "time": 30.9,
      "duration": 0.25,
      "midi": 77,
      "noteNumber": 77,
      "velocity": 0.87,
      "track": "Right Hand",
      "channel": 0,
      "lane": "K"
    },
    {
      "time": 30.9,
      "duration": 0.147,
      "midi": 34,
      "noteNumber": 34,
      "velocity": 0.87,
      "track": "Left Hand",
      "channel": 1,
      "lane": "D"
    },
    {
      "time": 30.9,
      "duration": 0.147,
      "midi": 46,
      "noteNumber": 46,
      "velocity": 0.87,
      "track": "Left Hand",
      "channel": 1,
      "lane": "F"
    },
    {
      "time": 31.05,
      "duration": 0.25,
      "midi": 34,
      "noteNumber": 34,
      "velocity": 0.87,
      "track": "Left Hand",
      "channel": 1,
      "lane": "D"
    },
    {
      "time": 31.05,
      "duration": 0.25,
      "midi": 46,
      "noteNumber": 46,
      "velocity": 0.87,
      "track": "Left Hand",
      "channel": 1,
      "lane": "F"
    },
    {
      "time": 31.2,
      "duration": 0.25,
      "midi": 70,
      "noteNumber": 70,
      "velocity": 0.87,
      "track": "Right Hand",
      "channel": 0,
      "lane": "K"
    },
    {
      "time": 31.2,
      "duration": 0.25,
      "midi": 74,
      "noteNumber": 74,
      "velocity": 0.87,
      "track": "Right Hand",
      "channel": 0,
      "lane": "K"
    },
    {
      "time": 31.2,
      "duration": 0.25,
      "midi": 79,
      "noteNumber": 79,
      "velocity": 0.87,
      "track": "Right Hand",
      "channel": 0,
      "lane": "K"
    },
    {
      "time": 31.35,
      "duration": 0.147,
      "midi": 34,
      "noteNumber": 34,
      "velocity": 0.87,
      "track": "Left Hand",
      "channel": 1,
      "lane": "D"
    },
    {
      "time": 31.35,
      "duration": 0.147,
      "midi": 46,
      "noteNumber": 46,
      "velocity": 0.87,
      "track": "Left Hand",
      "channel": 1,
      "lane": "F"
    },
    {
      "time": 31.5,
      "duration": 0.147,
      "midi": 77,
      "noteNumber": 77,
      "velocity": 0.87,
      "track": "Right Hand",
      "channel": 0,
      "lane": "K"
    },
    {
      "time": 31.5,
      "duration": 0.147,
      "midi": 81,
      "noteNumber": 81,
      "velocity": 0.87,
      "track": "Right Hand",
      "channel": 0,
      "lane": "K"
    },
    {
      "time": 31.5,
      "duration": 0.25,
      "midi": 38,
      "noteNumber": 38,
      "velocity": 0.87,
      "track": "Left Hand",
      "channel": 1,
      "lane": "D"
    },
    {
      "time": 31.5,
      "duration": 0.25,
      "midi": 50,
      "noteNumber": 50,
      "velocity": 0.87,
      "track": "Left Hand",
      "channel": 1,
      "lane": "F"
    },
    {
      "time": 31.65,
      "duration": 0.25,
      "midi": 74,
      "noteNumber": 74,
      "velocity": 0.87,
      "track": "Right Hand",
      "channel": 0,
      "lane": "K"
    },
    {
      "time": 31.8,
      "duration": 0.147,
      "midi": 38,
      "noteNumber": 38,
      "velocity": 0.87,
      "track": "Left Hand",
      "channel": 1,
      "lane": "D"
    },
    {
      "time": 31.8,
      "duration": 0.147,
      "midi": 50,
      "noteNumber": 50,
      "velocity": 0.87,
      "track": "Left Hand",
      "channel": 1,
      "lane": "F"
    },
    {
      "time": 31.95,
      "duration": 0.25,
      "midi": 38,
      "noteNumber": 38,
      "velocity": 0.87,
      "track": "Left Hand",
      "channel": 1,
      "lane": "D"
    },
    {
      "time": 31.95,
      "duration": 0.25,
      "midi": 50,
      "noteNumber": 50,
      "velocity": 0.87,
      "track": "Left Hand",
      "channel": 1,
      "lane": "F"
    },
    {
      "time": 32.1,
      "duration": 0.147,
      "midi": 74,
      "noteNumber": 74,
      "velocity": 0.87,
      "track": "Right Hand",
      "channel": 0,
      "lane": "K"
    },
    {
      "time": 32.25,
      "duration": 0.147,
      "midi": 77,
      "noteNumber": 77,
      "velocity": 0.87,
      "track": "Right Hand",
      "channel": 0,
      "lane": "K"
    },
    {
      "time": 32.25,
      "duration": 0.147,
      "midi": 38,
      "noteNumber": 38,
      "velocity": 0.87,
      "track": "Left Hand",
      "channel": 1,
      "lane": "D"
    },
    {
      "time": 32.25,
      "duration": 0.147,
      "midi": 50,
      "noteNumber": 50,
      "velocity": 0.87,
      "track": "Left Hand",
      "channel": 1,
      "lane": "F"
    },
    {
      "time": 32.4,
      "duration": 0.25,
      "midi": 69,
      "noteNumber": 69,
      "velocity": 0.87,
      "track": "Right Hand",
      "channel": 0,
      "lane": "J"
    },
    {
      "time": 32.4,
      "duration": 0.25,
      "midi": 73,
      "noteNumber": 73,
      "velocity": 0.87,
      "track": "Right Hand",
      "channel": 0,
      "lane": "K"
    },
    {
      "time": 32.4,
      "duration": 0.25,
      "midi": 76,
      "noteNumber": 76,
      "velocity": 0.87,
      "track": "Right Hand",
      "channel": 0,
      "lane": "K"
    },
    {
      "time": 32.4,
      "duration": 0.25,
      "midi": 33,
      "noteNumber": 33,
      "velocity": 0.87,
      "track": "Left Hand",
      "channel": 1,
      "lane": "D"
    },
    {
      "time": 32.4,
      "duration": 0.25,
      "midi": 45,
      "noteNumber": 45,
      "velocity": 0.87,
      "track": "Left Hand",
      "channel": 1,
      "lane": "F"
    },
    {
      "time": 32.7,
      "duration": 0.25,
      "midi": 69,
      "noteNumber": 69,
      "velocity": 0.87,
      "track": "Right Hand",
      "channel": 0,
      "lane": "J"
    },
    {
      "time": 32.7,
      "duration": 0.25,
      "midi": 73,
      "noteNumber": 73,
      "velocity": 0.87,
      "track": "Right Hand",
      "channel": 0,
      "lane": "K"
    },
    {
      "time": 32.7,
      "duration": 0.25,
      "midi": 76,
      "noteNumber": 76,
      "velocity": 0.87,
      "track": "Right Hand",
      "channel": 0,
      "lane": "K"
    },
    {
      "time": 32.7,
      "duration": 0.147,
      "midi": 33,
      "noteNumber": 33,
      "velocity": 0.87,
      "track": "Left Hand",
      "channel": 1,
      "lane": "D"
    },
    {
      "time": 32.7,
      "duration": 0.147,
      "midi": 45,
      "noteNumber": 45,
      "velocity": 0.87,
      "track": "Left Hand",
      "channel": 1,
      "lane": "F"
    },
    {
      "time": 32.85,
      "duration": 0.25,
      "midi": 33,
      "noteNumber": 33,
      "velocity": 0.87,
      "track": "Left Hand",
      "channel": 1,
      "lane": "D"
    },
    {
      "time": 32.85,
      "duration": 0.25,
      "midi": 45,
      "noteNumber": 45,
      "velocity": 0.87,
      "track": "Left Hand",
      "channel": 1,
      "lane": "F"
    },
    {
      "time": 33,
      "duration": 0.147,
      "midi": 74,
      "noteNumber": 74,
      "velocity": 0.87,
      "track": "Right Hand",
      "channel": 0,
      "lane": "K"
    },
    {
      "time": 33.15,
      "duration": 0.147,
      "midi": 73,
      "noteNumber": 73,
      "velocity": 0.87,
      "track": "Right Hand",
      "channel": 0,
      "lane": "K"
    },
    {
      "time": 33.15,
      "duration": 0.147,
      "midi": 33,
      "noteNumber": 33,
      "velocity": 0.87,
      "track": "Left Hand",
      "channel": 1,
      "lane": "D"
    },
    {
      "time": 33.15,
      "duration": 0.147,
      "midi": 45,
      "noteNumber": 45,
      "velocity": 0.87,
      "track": "Left Hand",
      "channel": 1,
      "lane": "F"
    },
    {
      "time": 33.3,
      "duration": 0.25,
      "midi": 69,
      "noteNumber": 69,
      "velocity": 0.87,
      "track": "Right Hand",
      "channel": 0,
      "lane": "J"
    },
    {
      "time": 33.3,
      "duration": 0.25,
      "midi": 74,
      "noteNumber": 74,
      "velocity": 0.87,
      "track": "Right Hand",
      "channel": 0,
      "lane": "K"
    },
    {
      "time": 33.3,
      "duration": 0.25,
      "midi": 38,
      "noteNumber": 38,
      "velocity": 0.87,
      "track": "Left Hand",
      "channel": 1,
      "lane": "D"
    },
    {
      "time": 33.3,
      "duration": 0.25,
      "midi": 50,
      "noteNumber": 50,
      "velocity": 0.87,
      "track": "Left Hand",
      "channel": 1,
      "lane": "F"
    },
    {
      "time": 33.6,
      "duration": 0.25,
      "midi": 69,
      "noteNumber": 69,
      "velocity": 0.87,
      "track": "Right Hand",
      "channel": 0,
      "lane": "J"
    },
    {
      "time": 33.6,
      "duration": 0.25,
      "midi": 74,
      "noteNumber": 74,
      "velocity": 0.87,
      "track": "Right Hand",
      "channel": 0,
      "lane": "K"
    },
    {
      "time": 33.6,
      "duration": 0.25,
      "midi": 38,
      "noteNumber": 38,
      "velocity": 0.87,
      "track": "Left Hand",
      "channel": 1,
      "lane": "D"
    },
    {
      "time": 33.6,
      "duration": 0.25,
      "midi": 50,
      "noteNumber": 50,
      "velocity": 0.87,
      "track": "Left Hand",
      "channel": 1,
      "lane": "F"
    },
    {
      "time": 33.9,
      "duration": 0.25,
      "midi": 69,
      "noteNumber": 69,
      "velocity": 0.87,
      "track": "Right Hand",
      "channel": 0,
      "lane": "J"
    },
    {
      "time": 33.9,
      "duration": 0.25,
      "midi": 72,
      "noteNumber": 72,
      "velocity": 0.87,
      "track": "Right Hand",
      "channel": 0,
      "lane": "K"
    },
    {
      "time": 33.9,
      "duration": 0.25,
      "midi": 76,
      "noteNumber": 76,
      "velocity": 0.87,
      "track": "Right Hand",
      "channel": 0,
      "lane": "K"
    },
    {
      "time": 33.9,
      "duration": 0.25,
      "midi": 36,
      "noteNumber": 36,
      "velocity": 0.87,
      "track": "Left Hand",
      "channel": 1,
      "lane": "D"
    },
    {
      "time": 33.9,
      "duration": 0.25,
      "midi": 48,
      "noteNumber": 48,
      "velocity": 0.87,
      "track": "Left Hand",
      "channel": 1,
      "lane": "F"
    },
    {
      "time": 34.2,
      "duration": 0.25,
      "midi": 72,
      "noteNumber": 72,
      "velocity": 0.87,
      "track": "Right Hand",
      "channel": 0,
      "lane": "K"
    },
    {
      "time": 34.2,
      "duration": 0.25,
      "midi": 74,
      "noteNumber": 74,
      "velocity": 0.87,
      "track": "Right Hand",
      "channel": 0,
      "lane": "K"
    },
    {
      "time": 34.2,
      "duration": 0.25,
      "midi": 77,
      "noteNumber": 77,
      "velocity": 0.87,
      "track": "Right Hand",
      "channel": 0,
      "lane": "K"
    },
    {
      "time": 34.2,
      "duration": 0.25,
      "midi": 36,
      "noteNumber": 36,
      "velocity": 0.87,
      "track": "Left Hand",
      "channel": 1,
      "lane": "D"
    },
    {
      "time": 34.2,
      "duration": 0.25,
      "midi": 48,
      "noteNumber": 48,
      "velocity": 0.87,
      "track": "Left Hand",
      "channel": 1,
      "lane": "F"
    },
    {
      "time": 34.5,
      "duration": 0.147,
      "midi": 77,
      "noteNumber": 77,
      "velocity": 0.87,
      "track": "Right Hand",
      "channel": 0,
      "lane": "K"
    },
    {
      "time": 34.5,
      "duration": 0.25,
      "midi": 36,
      "noteNumber": 36,
      "velocity": 0.87,
      "track": "Left Hand",
      "channel": 1,
      "lane": "D"
    },
    {
      "time": 34.5,
      "duration": 0.25,
      "midi": 48,
      "noteNumber": 48,
      "velocity": 0.87,
      "track": "Left Hand",
      "channel": 1,
      "lane": "F"
    },
    {
      "time": 34.65,
      "duration": 0.147,
      "midi": 77,
      "noteNumber": 77,
      "velocity": 0.87,
      "track": "Right Hand",
      "channel": 0,
      "lane": "K"
    },
    {
      "time": 34.8,
      "duration": 0.25,
      "midi": 70,
      "noteNumber": 70,
      "velocity": 0.87,
      "track": "Right Hand",
      "channel": 0,
      "lane": "K"
    },
    {
      "time": 34.8,
      "duration": 0.25,
      "midi": 74,
      "noteNumber": 74,
      "velocity": 0.87,
      "track": "Right Hand",
      "channel": 0,
      "lane": "K"
    },
    {
      "time": 34.8,
      "duration": 0.25,
      "midi": 79,
      "noteNumber": 79,
      "velocity": 0.87,
      "track": "Right Hand",
      "channel": 0,
      "lane": "K"
    },
    {
      "time": 34.8,
      "duration": 0.25,
      "midi": 34,
      "noteNumber": 34,
      "velocity": 0.87,
      "track": "Left Hand",
      "channel": 1,
      "lane": "D"
    },
    {
      "time": 34.8,
      "duration": 0.25,
      "midi": 46,
      "noteNumber": 46,
      "velocity": 0.87,
      "track": "Left Hand",
      "channel": 1,
      "lane": "F"
    },
    {
      "time": 35.1,
      "duration": 0.147,
      "midi": 74,
      "noteNumber": 74,
      "velocity": 0.87,
      "track": "Right Hand",
      "channel": 0,
      "lane": "K"
    },
    {
      "time": 35.1,
      "duration": 0.147,
      "midi": 81,
      "noteNumber": 81,
      "velocity": 0.87,
      "track": "Right Hand",
      "channel": 0,
      "lane": "K"
    },
    {
      "time": 35.1,
      "duration": 0.25,
      "midi": 33,
      "noteNumber": 33,
      "velocity": 0.87,
      "track": "Left Hand",
      "channel": 1,
      "lane": "D"
    },
    {
      "time": 35.1,
      "duration": 0.25,
      "midi": 45,
      "noteNumber": 45,
      "velocity": 0.87,
      "track": "Left Hand",
      "channel": 1,
      "lane": "F"
    },
    {
      "time": 35.25,
      "duration": 0.147,
      "midi": 77,
      "noteNumber": 77,
      "velocity": 0.87,
      "track": "Right Hand",
      "channel": 0,
      "lane": "K"
    },
    {
      "time": 35.4,
      "duration": 0.147,
      "midi": 33,
      "noteNumber": 33,
      "velocity": 0.87,
      "track": "Left Hand",
      "channel": 1,
      "lane": "D"
    },
    {
      "time": 35.4,
      "duration": 0.147,
      "midi": 45,
      "noteNumber": 45,
      "velocity": 0.87,
      "track": "Left Hand",
      "channel": 1,
      "lane": "F"
    },
    {
      "time": 35.55,
      "duration": 0.25,
      "midi": 33,
      "noteNumber": 33,
      "velocity": 0.87,
      "track": "Left Hand",
      "channel": 1,
      "lane": "D"
    },
    {
      "time": 35.55,
      "duration": 0.25,
      "midi": 45,
      "noteNumber": 45,
      "velocity": 0.87,
      "track": "Left Hand",
      "channel": 1,
      "lane": "F"
    },
    {
      "time": 35.7,
      "duration": 0.147,
      "midi": 69,
      "noteNumber": 69,
      "velocity": 0.87,
      "track": "Right Hand",
      "channel": 0,
      "lane": "J"
    },
    {
      "time": 35.7,
      "duration": 0.147,
      "midi": 77,
      "noteNumber": 77,
      "velocity": 0.87,
      "track": "Right Hand",
      "channel": 0,
      "lane": "K"
    },
    {
      "time": 35.85,
      "duration": 0.147,
      "midi": 69,
      "noteNumber": 69,
      "velocity": 0.87,
      "track": "Right Hand",
      "channel": 0,
      "lane": "J"
    },
    {
      "time": 35.85,
      "duration": 0.147,
      "midi": 74,
      "noteNumber": 74,
      "velocity": 0.87,
      "track": "Right Hand",
      "channel": 0,
      "lane": "K"
    },
    {
      "time": 35.85,
      "duration": 0.147,
      "midi": 33,
      "noteNumber": 33,
      "velocity": 0.87,
      "track": "Left Hand",
      "channel": 1,
      "lane": "D"
    },
    {
      "time": 35.85,
      "duration": 0.147,
      "midi": 45,
      "noteNumber": 45,
      "velocity": 0.87,
      "track": "Left Hand",
      "channel": 1,
      "lane": "F"
    },
    {
      "time": 36,
      "duration": 0.147,
      "midi": 69,
      "noteNumber": 69,
      "velocity": 0.87,
      "track": "Right Hand",
      "channel": 0,
      "lane": "J"
    },
    {
      "time": 36,
      "duration": 0.25,
      "midi": 33,
      "noteNumber": 33,
      "velocity": 0.87,
      "track": "Left Hand",
      "channel": 1,
      "lane": "D"
    },
    {
      "time": 36,
      "duration": 0.25,
      "midi": 45,
      "noteNumber": 45,
      "velocity": 0.87,
      "track": "Left Hand",
      "channel": 1,
      "lane": "F"
    },
    {
      "time": 36.3,
      "duration": 0.147,
      "midi": 33,
      "noteNumber": 33,
      "velocity": 0.87,
      "track": "Left Hand",
      "channel": 1,
      "lane": "D"
    },
    {
      "time": 36.3,
      "duration": 0.147,
      "midi": 45,
      "noteNumber": 45,
      "velocity": 0.87,
      "track": "Left Hand",
      "channel": 1,
      "lane": "F"
    },
    {
      "time": 36.45,
      "duration": 0.25,
      "midi": 33,
      "noteNumber": 33,
      "velocity": 0.87,
      "track": "Left Hand",
      "channel": 1,
      "lane": "D"
    },
    {
      "time": 36.45,
      "duration": 0.25,
      "midi": 45,
      "noteNumber": 45,
      "velocity": 0.87,
      "track": "Left Hand",
      "channel": 1,
      "lane": "F"
    },
    {
      "time": 36.75,
      "duration": 0.147,
      "midi": 33,
      "noteNumber": 33,
      "velocity": 0.87,
      "track": "Left Hand",
      "channel": 1,
      "lane": "D"
    },
    {
      "time": 36.75,
      "duration": 0.147,
      "midi": 45,
      "noteNumber": 45,
      "velocity": 0.87,
      "track": "Left Hand",
      "channel": 1,
      "lane": "F"
    },
    {
      "time": 36.9,
      "duration": 0.147,
      "midi": 74,
      "noteNumber": 74,
      "velocity": 0.87,
      "track": "Right Hand",
      "channel": 0,
      "lane": "K"
    },
    {
      "time": 36.9,
      "duration": 0.147,
      "midi": 79,
      "noteNumber": 79,
      "velocity": 0.87,
      "track": "Right Hand",
      "channel": 0,
      "lane": "K"
    },
    {
      "time": 36.9,
      "duration": 0.147,
      "midi": 82,
      "noteNumber": 82,
      "velocity": 0.87,
      "track": "Right Hand",
      "channel": 0,
      "lane": "K"
    },
    {
      "time": 36.9,
      "duration": 0.25,
      "midi": 31,
      "noteNumber": 31,
      "velocity": 0.87,
      "track": "Left Hand",
      "channel": 1,
      "lane": "D"
    },
    {
      "time": 36.9,
      "duration": 0.25,
      "midi": 43,
      "noteNumber": 43,
      "velocity": 0.87,
      "track": "Left Hand",
      "channel": 1,
      "lane": "F"
    },
    {
      "time": 37.2,
      "duration": 0.147,
      "midi": 31,
      "noteNumber": 31,
      "velocity": 0.87,
      "track": "Left Hand",
      "channel": 1,
      "lane": "D"
    },
    {
      "time": 37.2,
      "duration": 0.147,
      "midi": 43,
      "noteNumber": 43,
      "velocity": 0.87,
      "track": "Left Hand",
      "channel": 1,
      "lane": "F"
    },
    {
      "time": 37.35,
      "duration": 0.25,
      "midi": 31,
      "noteNumber": 31,
      "velocity": 0.87,
      "track": "Left Hand",
      "channel": 1,
      "lane": "D"
    },
    {
      "time": 37.35,
      "duration": 0.25,
      "midi": 43,
      "noteNumber": 43,
      "velocity": 0.87,
      "track": "Left Hand",
      "channel": 1,
      "lane": "F"
    },
    {
      "time": 37.5,
      "duration": 0.147,
      "midi": 70,
      "noteNumber": 70,
      "velocity": 0.87,
      "track": "Right Hand",
      "channel": 0,
      "lane": "K"
    },
    {
      "time": 37.5,
      "duration": 0.147,
      "midi": 79,
      "noteNumber": 79,
      "velocity": 0.87,
      "track": "Right Hand",
      "channel": 0,
      "lane": "K"
    },
    {
      "time": 37.65,
      "duration": 0.147,
      "midi": 70,
      "noteNumber": 70,
      "velocity": 0.87,
      "track": "Right Hand",
      "channel": 0,
      "lane": "K"
    },
    {
      "time": 37.65,
      "duration": 0.147,
      "midi": 74,
      "noteNumber": 74,
      "velocity": 0.87,
      "track": "Right Hand",
      "channel": 0,
      "lane": "K"
    },
    {
      "time": 37.65,
      "duration": 0.147,
      "midi": 31,
      "noteNumber": 31,
      "velocity": 0.87,
      "track": "Left Hand",
      "channel": 1,
      "lane": "D"
    },
    {
      "time": 37.65,
      "duration": 0.147,
      "midi": 43,
      "noteNumber": 43,
      "velocity": 0.87,
      "track": "Left Hand",
      "channel": 1,
      "lane": "F"
    },
    {
      "time": 37.8,
      "duration": 0.147,
      "midi": 70,
      "noteNumber": 70,
      "velocity": 0.87,
      "track": "Right Hand",
      "channel": 0,
      "lane": "K"
    },
    {
      "time": 37.8,
      "duration": 0.25,
      "midi": 31,
      "noteNumber": 31,
      "velocity": 0.87,
      "track": "Left Hand",
      "channel": 1,
      "lane": "D"
    },
    {
      "time": 37.8,
      "duration": 0.25,
      "midi": 43,
      "noteNumber": 43,
      "velocity": 0.87,
      "track": "Left Hand",
      "channel": 1,
      "lane": "F"
    },
    {
      "time": 38.1,
      "duration": 0.147,
      "midi": 31,
      "noteNumber": 31,
      "velocity": 0.87,
      "track": "Left Hand",
      "channel": 1,
      "lane": "D"
    },
    {
      "time": 38.1,
      "duration": 0.147,
      "midi": 43,
      "noteNumber": 43,
      "velocity": 0.87,
      "track": "Left Hand",
      "channel": 1,
      "lane": "F"
    },
    {
      "time": 38.25,
      "duration": 0.25,
      "midi": 31,
      "noteNumber": 31,
      "velocity": 0.87,
      "track": "Left Hand",
      "channel": 1,
      "lane": "D"
    },
    {
      "time": 38.25,
      "duration": 0.25,
      "midi": 43,
      "noteNumber": 43,
      "velocity": 0.87,
      "track": "Left Hand",
      "channel": 1,
      "lane": "F"
    },
    {
      "time": 38.55,
      "duration": 0.147,
      "midi": 31,
      "noteNumber": 31,
      "velocity": 0.87,
      "track": "Left Hand",
      "channel": 1,
      "lane": "D"
    },
    {
      "time": 38.55,
      "duration": 0.147,
      "midi": 43,
      "noteNumber": 43,
      "velocity": 0.87,
      "track": "Left Hand",
      "channel": 1,
      "lane": "F"
    },
    {
      "time": 38.7,
      "duration": 0.147,
      "midi": 61,
      "noteNumber": 61,
      "velocity": 0.87,
      "track": "Right Hand",
      "channel": 0,
      "lane": "J"
    },
    {
      "time": 38.7,
      "duration": 0.147,
      "midi": 64,
      "noteNumber": 64,
      "velocity": 0.87,
      "track": "Right Hand",
      "channel": 0,
      "lane": "J"
    },
    {
      "time": 38.7,
      "duration": 0.25,
      "midi": 33,
      "noteNumber": 33,
      "velocity": 0.87,
      "track": "Left Hand",
      "channel": 1,
      "lane": "D"
    },
    {
      "time": 38.7,
      "duration": 0.25,
      "midi": 45,
      "noteNumber": 45,
      "velocity": 0.87,
      "track": "Left Hand",
      "channel": 1,
      "lane": "F"
    },
    {
      "time": 38.85,
      "duration": 0.25,
      "midi": 61,
      "noteNumber": 61,
      "velocity": 0.87,
      "track": "Right Hand",
      "channel": 0,
      "lane": "J"
    },
    {
      "time": 38.85,
      "duration": 0.25,
      "midi": 64,
      "noteNumber": 64,
      "velocity": 0.87,
      "track": "Right Hand",
      "channel": 0,
      "lane": "J"
    },
    {
      "time": 39,
      "duration": 0.147,
      "midi": 33,
      "noteNumber": 33,
      "velocity": 0.87,
      "track": "Left Hand",
      "channel": 1,
      "lane": "D"
    },
    {
      "time": 39,
      "duration": 0.147,
      "midi": 45,
      "noteNumber": 45,
      "velocity": 0.87,
      "track": "Left Hand",
      "channel": 1,
      "lane": "F"
    },
    {
      "time": 39.15,
      "duration": 0.4,
      "midi": 55,
      "noteNumber": 55,
      "velocity": 0.87,
      "track": "Right Hand",
      "channel": 0,
      "lane": "F"
    },
    {
      "time": 39.15,
      "duration": 0.4,
      "midi": 62,
      "noteNumber": 62,
      "velocity": 0.87,
      "track": "Right Hand",
      "channel": 0,
      "lane": "J"
    },
    {
      "time": 39.15,
      "duration": 0.25,
      "midi": 33,
      "noteNumber": 33,
      "velocity": 0.87,
      "track": "Left Hand",
      "channel": 1,
      "lane": "D"
    },
    {
      "time": 39.15,
      "duration": 0.25,
      "midi": 45,
      "noteNumber": 45,
      "velocity": 0.87,
      "track": "Left Hand",
      "channel": 1,
      "lane": "F"
    },
    {
      "time": 39.45,
      "duration": 0.147,
      "midi": 33,
      "noteNumber": 33,
      "velocity": 0.87,
      "track": "Left Hand",
      "channel": 1,
      "lane": "D"
    },
    {
      "time": 39.45,
      "duration": 0.147,
      "midi": 45,
      "noteNumber": 45,
      "velocity": 0.87,
      "track": "Left Hand",
      "channel": 1,
      "lane": "F"
    },
    {
      "time": 39.6,
      "duration": 0.4,
      "midi": 57,
      "noteNumber": 57,
      "velocity": 0.87,
      "track": "Right Hand",
      "channel": 0,
      "lane": "J"
    },
    {
      "time": 39.6,
      "duration": 0.4,
      "midi": 61,
      "noteNumber": 61,
      "velocity": 0.87,
      "track": "Right Hand",
      "channel": 0,
      "lane": "J"
    },
    {
      "time": 39.6,
      "duration": 0.4,
      "midi": 65,
      "noteNumber": 65,
      "velocity": 0.87,
      "track": "Right Hand",
      "channel": 0,
      "lane": "J"
    },
    {
      "time": 39.6,
      "duration": 0.25,
      "midi": 33,
      "noteNumber": 33,
      "velocity": 0.87,
      "track": "Left Hand",
      "channel": 1,
      "lane": "D"
    },
    {
      "time": 39.6,
      "duration": 0.25,
      "midi": 45,
      "noteNumber": 45,
      "velocity": 0.87,
      "track": "Left Hand",
      "channel": 1,
      "lane": "F"
    },
    {
      "time": 39.9,
      "duration": 0.147,
      "midi": 33,
      "noteNumber": 33,
      "velocity": 0.87,
      "track": "Left Hand",
      "channel": 1,
      "lane": "D"
    },
    {
      "time": 39.9,
      "duration": 0.147,
      "midi": 45,
      "noteNumber": 45,
      "velocity": 0.87,
      "track": "Left Hand",
      "channel": 1,
      "lane": "F"
    },
    {
      "time": 40.05,
      "duration": 0.25,
      "midi": 33,
      "noteNumber": 33,
      "velocity": 0.87,
      "track": "Left Hand",
      "channel": 1,
      "lane": "D"
    },
    {
      "time": 40.05,
      "duration": 0.25,
      "midi": 45,
      "noteNumber": 45,
      "velocity": 0.87,
      "track": "Left Hand",
      "channel": 1,
      "lane": "F"
    },
    {
      "time": 40.2,
      "duration": 0.147,
      "midi": 65,
      "noteNumber": 65,
      "velocity": 0.87,
      "track": "Right Hand",
      "channel": 0,
      "lane": "J"
    },
    {
      "time": 40.35,
      "duration": 0.147,
      "midi": 67,
      "noteNumber": 67,
      "velocity": 0.87,
      "track": "Right Hand",
      "channel": 0,
      "lane": "J"
    },
    {
      "time": 40.35,
      "duration": 0.147,
      "midi": 33,
      "noteNumber": 33,
      "velocity": 0.87,
      "track": "Left Hand",
      "channel": 1,
      "lane": "D"
    },
    {
      "time": 40.35,
      "duration": 0.147,
      "midi": 45,
      "noteNumber": 45,
      "velocity": 0.87,
      "track": "Left Hand",
      "channel": 1,
      "lane": "F"
    },
    {
      "time": 40.5,
      "duration": 0.25,
      "midi": 62,
      "noteNumber": 62,
      "velocity": 0.87,
      "track": "Right Hand",
      "channel": 0,
      "lane": "J"
    },
    {
      "time": 40.5,
      "duration": 0.25,
      "midi": 65,
      "noteNumber": 65,
      "velocity": 0.87,
      "track": "Right Hand",
      "channel": 0,
      "lane": "J"
    },
    {
      "time": 40.5,
      "duration": 0.25,
      "midi": 69,
      "noteNumber": 69,
      "velocity": 0.87,
      "track": "Right Hand",
      "channel": 0,
      "lane": "J"
    },
    {
      "time": 40.5,
      "duration": 0.25,
      "midi": 38,
      "noteNumber": 38,
      "velocity": 0.87,
      "track": "Left Hand",
      "channel": 1,
      "lane": "D"
    },
    {
      "time": 40.5,
      "duration": 0.25,
      "midi": 50,
      "noteNumber": 50,
      "velocity": 0.87,
      "track": "Left Hand",
      "channel": 1,
      "lane": "F"
    },
    {
      "time": 40.8,
      "duration": 0.25,
      "midi": 62,
      "noteNumber": 62,
      "velocity": 0.87,
      "track": "Right Hand",
      "channel": 0,
      "lane": "J"
    },
    {
      "time": 40.8,
      "duration": 0.25,
      "midi": 65,
      "noteNumber": 65,
      "velocity": 0.87,
      "track": "Right Hand",
      "channel": 0,
      "lane": "J"
    },
    {
      "time": 40.8,
      "duration": 0.25,
      "midi": 69,
      "noteNumber": 69,
      "velocity": 0.87,
      "track": "Right Hand",
      "channel": 0,
      "lane": "J"
    },
    {
      "time": 40.8,
      "duration": 0.147,
      "midi": 38,
      "noteNumber": 38,
      "velocity": 0.87,
      "track": "Left Hand",
      "channel": 1,
      "lane": "D"
    },
    {
      "time": 40.8,
      "duration": 0.147,
      "midi": 50,
      "noteNumber": 50,
      "velocity": 0.87,
      "track": "Left Hand",
      "channel": 1,
      "lane": "F"
    },
    {
      "time": 40.95,
      "duration": 0.25,
      "midi": 38,
      "noteNumber": 38,
      "velocity": 0.87,
      "track": "Left Hand",
      "channel": 1,
      "lane": "D"
    },
    {
      "time": 40.95,
      "duration": 0.25,
      "midi": 50,
      "noteNumber": 50,
      "velocity": 0.87,
      "track": "Left Hand",
      "channel": 1,
      "lane": "F"
    },
    {
      "time": 41.1,
      "duration": 0.25,
      "midi": 62,
      "noteNumber": 62,
      "velocity": 0.87,
      "track": "Right Hand",
      "channel": 0,
      "lane": "J"
    },
    {
      "time": 41.1,
      "duration": 0.25,
      "midi": 65,
      "noteNumber": 65,
      "velocity": 0.87,
      "track": "Right Hand",
      "channel": 0,
      "lane": "J"
    },
    {
      "time": 41.1,
      "duration": 0.25,
      "midi": 69,
      "noteNumber": 69,
      "velocity": 0.87,
      "track": "Right Hand",
      "channel": 0,
      "lane": "J"
    },
    {
      "time": 41.25,
      "duration": 0.147,
      "midi": 38,
      "noteNumber": 38,
      "velocity": 0.87,
      "track": "Left Hand",
      "channel": 1,
      "lane": "D"
    },
    {
      "time": 41.25,
      "duration": 0.147,
      "midi": 50,
      "noteNumber": 50,
      "velocity": 0.87,
      "track": "Left Hand",
      "channel": 1,
      "lane": "F"
    },
    {
      "time": 41.4,
      "duration": 0.147,
      "midi": 62,
      "noteNumber": 62,
      "velocity": 0.87,
      "track": "Right Hand",
      "channel": 0,
      "lane": "J"
    },
    {
      "time": 41.4,
      "duration": 0.147,
      "midi": 65,
      "noteNumber": 65,
      "velocity": 0.87,
      "track": "Right Hand",
      "channel": 0,
      "lane": "J"
    },
    {
      "time": 41.4,
      "duration": 0.147,
      "midi": 70,
      "noteNumber": 70,
      "velocity": 0.87,
      "track": "Right Hand",
      "channel": 0,
      "lane": "K"
    },
    {
      "time": 41.4,
      "duration": 0.25,
      "midi": 38,
      "noteNumber": 38,
      "velocity": 0.87,
      "track": "Left Hand",
      "channel": 1,
      "lane": "D"
    },
    {
      "time": 41.4,
      "duration": 0.25,
      "midi": 50,
      "noteNumber": 50,
      "velocity": 0.87,
      "track": "Left Hand",
      "channel": 1,
      "lane": "F"
    },
    {
      "time": 41.55,
      "duration": 0.147,
      "midi": 62,
      "noteNumber": 62,
      "velocity": 0.87,
      "track": "Right Hand",
      "channel": 0,
      "lane": "J"
    },
    {
      "time": 41.55,
      "duration": 0.147,
      "midi": 65,
      "noteNumber": 65,
      "velocity": 0.87,
      "track": "Right Hand",
      "channel": 0,
      "lane": "J"
    },
    {
      "time": 41.55,
      "duration": 0.147,
      "midi": 69,
      "noteNumber": 69,
      "velocity": 0.87,
      "track": "Right Hand",
      "channel": 0,
      "lane": "J"
    },
    {
      "time": 41.7,
      "duration": 0.147,
      "midi": 38,
      "noteNumber": 38,
      "velocity": 0.87,
      "track": "Left Hand",
      "channel": 1,
      "lane": "D"
    },
    {
      "time": 41.7,
      "duration": 0.147,
      "midi": 50,
      "noteNumber": 50,
      "velocity": 0.87,
      "track": "Left Hand",
      "channel": 1,
      "lane": "F"
    },
    {
      "time": 41.85,
      "duration": 0.147,
      "midi": 38,
      "noteNumber": 38,
      "velocity": 0.87,
      "track": "Left Hand",
      "channel": 1,
      "lane": "D"
    },
    {
      "time": 41.85,
      "duration": 0.147,
      "midi": 50,
      "noteNumber": 50,
      "velocity": 0.87,
      "track": "Left Hand",
      "channel": 1,
      "lane": "F"
    },
    {
      "time": 42,
      "duration": 0.147,
      "midi": 38,
      "noteNumber": 38,
      "velocity": 0.87,
      "track": "Left Hand",
      "channel": 1,
      "lane": "D"
    },
    {
      "time": 42,
      "duration": 0.147,
      "midi": 50,
      "noteNumber": 50,
      "velocity": 0.87,
      "track": "Left Hand",
      "channel": 1,
      "lane": "F"
    },
    {
      "time": 42.15,
      "duration": 0.147,
      "midi": 38,
      "noteNumber": 38,
      "velocity": 0.87,
      "track": "Left Hand",
      "channel": 1,
      "lane": "D"
    },
    {
      "time": 42.15,
      "duration": 0.147,
      "midi": 50,
      "noteNumber": 50,
      "velocity": 0.87,
      "track": "Left Hand",
      "channel": 1,
      "lane": "F"
    },
    {
      "time": 42.3,
      "duration": 0.25,
      "midi": 60,
      "noteNumber": 60,
      "velocity": 0.87,
      "track": "Right Hand",
      "channel": 0,
      "lane": "J"
    },
    {
      "time": 42.3,
      "duration": 0.25,
      "midi": 64,
      "noteNumber": 64,
      "velocity": 0.87,
      "track": "Right Hand",
      "channel": 0,
      "lane": "J"
    },
    {
      "time": 42.3,
      "duration": 0.25,
      "midi": 67,
      "noteNumber": 67,
      "velocity": 0.87,
      "track": "Right Hand",
      "channel": 0,
      "lane": "J"
    },
    {
      "time": 42.3,
      "duration": 0.25,
      "midi": 36,
      "noteNumber": 36,
      "velocity": 0.87,
      "track": "Left Hand",
      "channel": 1,
      "lane": "D"
    },
    {
      "time": 42.3,
      "duration": 0.25,
      "midi": 48,
      "noteNumber": 48,
      "velocity": 0.87,
      "track": "Left Hand",
      "channel": 1,
      "lane": "F"
    },
    {
      "time": 42.6,
      "duration": 0.25,
      "midi": 60,
      "noteNumber": 60,
      "velocity": 0.87,
      "track": "Right Hand",
      "channel": 0,
      "lane": "J"
    },
    {
      "time": 42.6,
      "duration": 0.25,
      "midi": 64,
      "noteNumber": 64,
      "velocity": 0.87,
      "track": "Right Hand",
      "channel": 0,
      "lane": "J"
    },
    {
      "time": 42.6,
      "duration": 0.25,
      "midi": 67,
      "noteNumber": 67,
      "velocity": 0.87,
      "track": "Right Hand",
      "channel": 0,
      "lane": "J"
    },
    {
      "time": 42.6,
      "duration": 0.147,
      "midi": 36,
      "noteNumber": 36,
      "velocity": 0.87,
      "track": "Left Hand",
      "channel": 1,
      "lane": "D"
    },
    {
      "time": 42.6,
      "duration": 0.147,
      "midi": 48,
      "noteNumber": 48,
      "velocity": 0.87,
      "track": "Left Hand",
      "channel": 1,
      "lane": "F"
    },
    {
      "time": 42.75,
      "duration": 0.25,
      "midi": 36,
      "noteNumber": 36,
      "velocity": 0.87,
      "track": "Left Hand",
      "channel": 1,
      "lane": "D"
    },
    {
      "time": 42.75,
      "duration": 0.25,
      "midi": 48,
      "noteNumber": 48,
      "velocity": 0.87,
      "track": "Left Hand",
      "channel": 1,
      "lane": "F"
    },
    {
      "time": 42.9,
      "duration": 0.25,
      "midi": 60,
      "noteNumber": 60,
      "velocity": 0.87,
      "track": "Right Hand",
      "channel": 0,
      "lane": "J"
    },
    {
      "time": 42.9,
      "duration": 0.25,
      "midi": 64,
      "noteNumber": 64,
      "velocity": 0.87,
      "track": "Right Hand",
      "channel": 0,
      "lane": "J"
    },
    {
      "time": 42.9,
      "duration": 0.25,
      "midi": 67,
      "noteNumber": 67,
      "velocity": 0.87,
      "track": "Right Hand",
      "channel": 0,
      "lane": "J"
    },
    {
      "time": 43.05,
      "duration": 0.147,
      "midi": 36,
      "noteNumber": 36,
      "velocity": 0.87,
      "track": "Left Hand",
      "channel": 1,
      "lane": "D"
    },
    {
      "time": 43.05,
      "duration": 0.147,
      "midi": 48,
      "noteNumber": 48,
      "velocity": 0.87,
      "track": "Left Hand",
      "channel": 1,
      "lane": "F"
    },
    {
      "time": 43.2,
      "duration": 0.147,
      "midi": 60,
      "noteNumber": 60,
      "velocity": 0.87,
      "track": "Right Hand",
      "channel": 0,
      "lane": "J"
    },
    {
      "time": 43.2,
      "duration": 0.147,
      "midi": 64,
      "noteNumber": 64,
      "velocity": 0.87,
      "track": "Right Hand",
      "channel": 0,
      "lane": "J"
    },
    {
      "time": 43.2,
      "duration": 0.147,
      "midi": 67,
      "noteNumber": 67,
      "velocity": 0.87,
      "track": "Right Hand",
      "channel": 0,
      "lane": "J"
    },
    {
      "time": 43.2,
      "duration": 0.25,
      "midi": 41,
      "noteNumber": 41,
      "velocity": 0.87,
      "track": "Left Hand",
      "channel": 1,
      "lane": "F"
    },
    {
      "time": 43.2,
      "duration": 0.25,
      "midi": 53,
      "noteNumber": 53,
      "velocity": 0.87,
      "track": "Left Hand",
      "channel": 1,
      "lane": "F"
    },
    {
      "time": 43.35,
      "duration": 0.147,
      "midi": 60,
      "noteNumber": 60,
      "velocity": 0.87,
      "track": "Right Hand",
      "channel": 0,
      "lane": "J"
    },
    {
      "time": 43.35,
      "duration": 0.147,
      "midi": 65,
      "noteNumber": 65,
      "velocity": 0.87,
      "track": "Right Hand",
      "channel": 0,
      "lane": "J"
    },
    {
      "time": 43.35,
      "duration": 0.147,
      "midi": 69,
      "noteNumber": 69,
      "velocity": 0.87,
      "track": "Right Hand",
      "channel": 0,
      "lane": "J"
    },
    {
      "time": 43.5,
      "duration": 0.147,
      "midi": 41,
      "noteNumber": 41,
      "velocity": 0.87,
      "track": "Left Hand",
      "channel": 1,
      "lane": "F"
    },
    {
      "time": 43.5,
      "duration": 0.147,
      "midi": 53,
      "noteNumber": 53,
      "velocity": 0.87,
      "track": "Left Hand",
      "channel": 1,
      "lane": "F"
    },
    {
      "time": 43.65,
      "duration": 0.147,
      "midi": 41,
      "noteNumber": 41,
      "velocity": 0.87,
      "track": "Left Hand",
      "channel": 1,
      "lane": "F"
    },
    {
      "time": 43.65,
      "duration": 0.147,
      "midi": 53,
      "noteNumber": 53,
      "velocity": 0.87,
      "track": "Left Hand",
      "channel": 1,
      "lane": "F"
    },
    {
      "time": 43.8,
      "duration": 0.147,
      "midi": 41,
      "noteNumber": 41,
      "velocity": 0.87,
      "track": "Left Hand",
      "channel": 1,
      "lane": "F"
    },
    {
      "time": 43.8,
      "duration": 0.147,
      "midi": 53,
      "noteNumber": 53,
      "velocity": 0.87,
      "track": "Left Hand",
      "channel": 1,
      "lane": "F"
    },
    {
      "time": 43.95,
      "duration": 0.147,
      "midi": 41,
      "noteNumber": 41,
      "velocity": 0.87,
      "track": "Left Hand",
      "channel": 1,
      "lane": "F"
    },
    {
      "time": 43.95,
      "duration": 0.147,
      "midi": 53,
      "noteNumber": 53,
      "velocity": 0.87,
      "track": "Left Hand",
      "channel": 1,
      "lane": "F"
    },
    {
      "time": 44.1,
      "duration": 0.25,
      "midi": 62,
      "noteNumber": 62,
      "velocity": 0.87,
      "track": "Right Hand",
      "channel": 0,
      "lane": "J"
    },
    {
      "time": 44.1,
      "duration": 0.25,
      "midi": 65,
      "noteNumber": 65,
      "velocity": 0.87,
      "track": "Right Hand",
      "channel": 0,
      "lane": "J"
    },
    {
      "time": 44.1,
      "duration": 0.25,
      "midi": 69,
      "noteNumber": 69,
      "velocity": 0.87,
      "track": "Right Hand",
      "channel": 0,
      "lane": "J"
    },
    {
      "time": 44.1,
      "duration": 0.25,
      "midi": 38,
      "noteNumber": 38,
      "velocity": 0.87,
      "track": "Left Hand",
      "channel": 1,
      "lane": "D"
    },
    {
      "time": 44.1,
      "duration": 0.25,
      "midi": 50,
      "noteNumber": 50,
      "velocity": 0.87,
      "track": "Left Hand",
      "channel": 1,
      "lane": "F"
    },
    {
      "time": 44.4,
      "duration": 0.25,
      "midi": 62,
      "noteNumber": 62,
      "velocity": 0.87,
      "track": "Right Hand",
      "channel": 0,
      "lane": "J"
    },
    {
      "time": 44.4,
      "duration": 0.25,
      "midi": 65,
      "noteNumber": 65,
      "velocity": 0.87,
      "track": "Right Hand",
      "channel": 0,
      "lane": "J"
    },
    {
      "time": 44.4,
      "duration": 0.25,
      "midi": 69,
      "noteNumber": 69,
      "velocity": 0.87,
      "track": "Right Hand",
      "channel": 0,
      "lane": "J"
    },
    {
      "time": 44.4,
      "duration": 0.147,
      "midi": 38,
      "noteNumber": 38,
      "velocity": 0.87,
      "track": "Left Hand",
      "channel": 1,
      "lane": "D"
    },
    {
      "time": 44.4,
      "duration": 0.147,
      "midi": 50,
      "noteNumber": 50,
      "velocity": 0.87,
      "track": "Left Hand",
      "channel": 1,
      "lane": "F"
    },
    {
      "time": 44.55,
      "duration": 0.25,
      "midi": 38,
      "noteNumber": 38,
      "velocity": 0.87,
      "track": "Left Hand",
      "channel": 1,
      "lane": "D"
    },
    {
      "time": 44.55,
      "duration": 0.25,
      "midi": 50,
      "noteNumber": 50,
      "velocity": 0.87,
      "track": "Left Hand",
      "channel": 1,
      "lane": "F"
    },
    {
      "time": 44.7,
      "duration": 0.25,
      "midi": 62,
      "noteNumber": 62,
      "velocity": 0.87,
      "track": "Right Hand",
      "channel": 0,
      "lane": "J"
    },
    {
      "time": 44.7,
      "duration": 0.25,
      "midi": 65,
      "noteNumber": 65,
      "velocity": 0.87,
      "track": "Right Hand",
      "channel": 0,
      "lane": "J"
    },
    {
      "time": 44.7,
      "duration": 0.25,
      "midi": 69,
      "noteNumber": 69,
      "velocity": 0.87,
      "track": "Right Hand",
      "channel": 0,
      "lane": "J"
    },
    {
      "time": 44.85,
      "duration": 0.147,
      "midi": 38,
      "noteNumber": 38,
      "velocity": 0.87,
      "track": "Left Hand",
      "channel": 1,
      "lane": "D"
    },
    {
      "time": 44.85,
      "duration": 0.147,
      "midi": 50,
      "noteNumber": 50,
      "velocity": 0.87,
      "track": "Left Hand",
      "channel": 1,
      "lane": "F"
    },
    {
      "time": 45,
      "duration": 0.147,
      "midi": 62,
      "noteNumber": 62,
      "velocity": 0.87,
      "track": "Right Hand",
      "channel": 0,
      "lane": "J"
    },
    {
      "time": 45,
      "duration": 0.147,
      "midi": 65,
      "noteNumber": 65,
      "velocity": 0.87,
      "track": "Right Hand",
      "channel": 0,
      "lane": "J"
    },
    {
      "time": 45,
      "duration": 0.147,
      "midi": 70,
      "noteNumber": 70,
      "velocity": 0.87,
      "track": "Right Hand",
      "channel": 0,
      "lane": "K"
    },
    {
      "time": 45,
      "duration": 0.25,
      "midi": 38,
      "noteNumber": 38,
      "velocity": 0.87,
      "track": "Left Hand",
      "channel": 1,
      "lane": "D"
    },
    {
      "time": 45,
      "duration": 0.25,
      "midi": 50,
      "noteNumber": 50,
      "velocity": 0.87,
      "track": "Left Hand",
      "channel": 1,
      "lane": "F"
    },
    {
      "time": 45.15,
      "duration": 0.147,
      "midi": 62,
      "noteNumber": 62,
      "velocity": 0.87,
      "track": "Right Hand",
      "channel": 0,
      "lane": "J"
    },
    {
      "time": 45.15,
      "duration": 0.147,
      "midi": 65,
      "noteNumber": 65,
      "velocity": 0.87,
      "track": "Right Hand",
      "channel": 0,
      "lane": "J"
    },
    {
      "time": 45.15,
      "duration": 0.147,
      "midi": 69,
      "noteNumber": 69,
      "velocity": 0.87,
      "track": "Right Hand",
      "channel": 0,
      "lane": "J"
    },
    {
      "time": 45.3,
      "duration": 0.147,
      "midi": 38,
      "noteNumber": 38,
      "velocity": 0.87,
      "track": "Left Hand",
      "channel": 1,
      "lane": "D"
    },
    {
      "time": 45.3,
      "duration": 0.147,
      "midi": 50,
      "noteNumber": 50,
      "velocity": 0.87,
      "track": "Left Hand",
      "channel": 1,
      "lane": "F"
    },
    {
      "time": 45.45,
      "duration": 0.147,
      "midi": 38,
      "noteNumber": 38,
      "velocity": 0.87,
      "track": "Left Hand",
      "channel": 1,
      "lane": "D"
    },
    {
      "time": 45.45,
      "duration": 0.147,
      "midi": 50,
      "noteNumber": 50,
      "velocity": 0.87,
      "track": "Left Hand",
      "channel": 1,
      "lane": "F"
    },
    {
      "time": 45.6,
      "duration": 0.147,
      "midi": 38,
      "noteNumber": 38,
      "velocity": 0.87,
      "track": "Left Hand",
      "channel": 1,
      "lane": "D"
    },
    {
      "time": 45.6,
      "duration": 0.147,
      "midi": 50,
      "noteNumber": 50,
      "velocity": 0.87,
      "track": "Left Hand",
      "channel": 1,
      "lane": "F"
    },
    {
      "time": 45.75,
      "duration": 0.147,
      "midi": 38,
      "noteNumber": 38,
      "velocity": 0.87,
      "track": "Left Hand",
      "channel": 1,
      "lane": "D"
    },
    {
      "time": 45.75,
      "duration": 0.147,
      "midi": 50,
      "noteNumber": 50,
      "velocity": 0.87,
      "track": "Left Hand",
      "channel": 1,
      "lane": "F"
    },
    {
      "time": 45.9,
      "duration": 0.25,
      "midi": 61,
      "noteNumber": 61,
      "velocity": 0.87,
      "track": "Right Hand",
      "channel": 0,
      "lane": "J"
    },
    {
      "time": 45.9,
      "duration": 0.25,
      "midi": 64,
      "noteNumber": 64,
      "velocity": 0.87,
      "track": "Right Hand",
      "channel": 0,
      "lane": "J"
    },
    {
      "time": 45.9,
      "duration": 0.25,
      "midi": 67,
      "noteNumber": 67,
      "velocity": 0.87,
      "track": "Right Hand",
      "channel": 0,
      "lane": "J"
    },
    {
      "time": 45.9,
      "duration": 0.25,
      "midi": 33,
      "noteNumber": 33,
      "velocity": 0.87,
      "track": "Left Hand",
      "channel": 1,
      "lane": "D"
    },
    {
      "time": 45.9,
      "duration": 0.25,
      "midi": 45,
      "noteNumber": 45,
      "velocity": 0.87,
      "track": "Left Hand",
      "channel": 1,
      "lane": "F"
    },
    {
      "time": 46.2,
      "duration": 0.25,
      "midi": 61,
      "noteNumber": 61,
      "velocity": 0.87,
      "track": "Right Hand",
      "channel": 0,
      "lane": "J"
    },
    {
      "time": 46.2,
      "duration": 0.25,
      "midi": 65,
      "noteNumber": 65,
      "velocity": 0.87,
      "track": "Right Hand",
      "channel": 0,
      "lane": "J"
    },
    {
      "time": 46.2,
      "duration": 0.147,
      "midi": 33,
      "noteNumber": 33,
      "velocity": 0.87,
      "track": "Left Hand",
      "channel": 1,
      "lane": "D"
    },
    {
      "time": 46.2,
      "duration": 0.147,
      "midi": 45,
      "noteNumber": 45,
      "velocity": 0.87,
      "track": "Left Hand",
      "channel": 1,
      "lane": "F"
    },
    {
      "time": 46.35,
      "duration": 0.25,
      "midi": 33,
      "noteNumber": 33,
      "velocity": 0.87,
      "track": "Left Hand",
      "channel": 1,
      "lane": "D"
    },
    {
      "time": 46.35,
      "duration": 0.25,
      "midi": 45,
      "noteNumber": 45,
      "velocity": 0.87,
      "track": "Left Hand",
      "channel": 1,
      "lane": "F"
    },
    {
      "time": 46.5,
      "duration": 0.25,
      "midi": 57,
      "noteNumber": 57,
      "velocity": 0.87,
      "track": "Right Hand",
      "channel": 0,
      "lane": "J"
    },
    {
      "time": 46.5,
      "duration": 0.25,
      "midi": 64,
      "noteNumber": 64,
      "velocity": 0.87,
      "track": "Right Hand",
      "channel": 0,
      "lane": "J"
    },
    {
      "time": 46.65,
      "duration": 0.147,
      "midi": 33,
      "noteNumber": 33,
      "velocity": 0.87,
      "track": "Left Hand",
      "channel": 1,
      "lane": "D"
    },
    {
      "time": 46.65,
      "duration": 0.147,
      "midi": 45,
      "noteNumber": 45,
      "velocity": 0.87,
      "track": "Left Hand",
      "channel": 1,
      "lane": "F"
    },
    {
      "time": 46.8,
      "duration": 0.25,
      "midi": 53,
      "noteNumber": 53,
      "velocity": 0.87,
      "track": "Right Hand",
      "channel": 0,
      "lane": "F"
    },
    {
      "time": 46.8,
      "duration": 0.25,
      "midi": 57,
      "noteNumber": 57,
      "velocity": 0.87,
      "track": "Right Hand",
      "channel": 0,
      "lane": "J"
    },
    {
      "time": 46.8,
      "duration": 0.25,
      "midi": 62,
      "noteNumber": 62,
      "velocity": 0.87,
      "track": "Right Hand",
      "channel": 0,
      "lane": "J"
    },
    {
      "time": 46.8,
      "duration": 0.25,
      "midi": 38,
      "noteNumber": 38,
      "velocity": 0.87,
      "track": "Left Hand",
      "channel": 1,
      "lane": "D"
    },
    {
      "time": 46.8,
      "duration": 0.25,
      "midi": 50,
      "noteNumber": 50,
      "velocity": 0.87,
      "track": "Left Hand",
      "channel": 1,
      "lane": "F"
    },
    {
      "time": 47.1,
      "duration": 0.147,
      "midi": 38,
      "noteNumber": 38,
      "velocity": 0.87,
      "track": "Left Hand",
      "channel": 1,
      "lane": "D"
    },
    {
      "time": 47.1,
      "duration": 0.147,
      "midi": 50,
      "noteNumber": 50,
      "velocity": 0.87,
      "track": "Left Hand",
      "channel": 1,
      "lane": "F"
    },
    {
      "time": 47.25,
      "duration": 0.25,
      "midi": 38,
      "noteNumber": 38,
      "velocity": 0.87,
      "track": "Left Hand",
      "channel": 1,
      "lane": "D"
    },
    {
      "time": 47.25,
      "duration": 0.25,
      "midi": 50,
      "noteNumber": 50,
      "velocity": 0.87,
      "track": "Left Hand",
      "channel": 1,
      "lane": "F"
    },
    {
      "time": 47.4,
      "duration": 0.147,
      "midi": 62,
      "noteNumber": 62,
      "velocity": 0.87,
      "track": "Right Hand",
      "channel": 0,
      "lane": "J"
    },
    {
      "time": 47.55,
      "duration": 0.147,
      "midi": 64,
      "noteNumber": 64,
      "velocity": 0.87,
      "track": "Right Hand",
      "channel": 0,
      "lane": "J"
    },
    {
      "time": 47.55,
      "duration": 0.147,
      "midi": 38,
      "noteNumber": 38,
      "velocity": 0.87,
      "track": "Left Hand",
      "channel": 1,
      "lane": "D"
    },
    {
      "time": 47.55,
      "duration": 0.147,
      "midi": 50,
      "noteNumber": 50,
      "velocity": 0.87,
      "track": "Left Hand",
      "channel": 1,
      "lane": "F"
    },
    {
      "time": 47.7,
      "duration": 0.525,
      "midi": 57,
      "noteNumber": 57,
      "velocity": 0.87,
      "track": "Right Hand",
      "channel": 0,
      "lane": "J"
    },
    {
      "time": 47.7,
      "duration": 0.525,
      "midi": 62,
      "noteNumber": 62,
      "velocity": 0.87,
      "track": "Right Hand",
      "channel": 0,
      "lane": "J"
    },
    {
      "time": 47.7,
      "duration": 0.525,
      "midi": 65,
      "noteNumber": 65,
      "velocity": 0.87,
      "track": "Right Hand",
      "channel": 0,
      "lane": "J"
    },
    {
      "time": 47.7,
      "duration": 0.25,
      "midi": 38,
      "noteNumber": 38,
      "velocity": 0.87,
      "track": "Left Hand",
      "channel": 1,
      "lane": "D"
    },
    {
      "time": 47.7,
      "duration": 0.25,
      "midi": 50,
      "noteNumber": 50,
      "velocity": 0.87,
      "track": "Left Hand",
      "channel": 1,
      "lane": "F"
    },
    {
      "time": 48,
      "duration": 0.147,
      "midi": 38,
      "noteNumber": 38,
      "velocity": 0.87,
      "track": "Left Hand",
      "channel": 1,
      "lane": "D"
    },
    {
      "time": 48,
      "duration": 0.147,
      "midi": 50,
      "noteNumber": 50,
      "velocity": 0.87,
      "track": "Left Hand",
      "channel": 1,
      "lane": "F"
    },
    {
      "time": 48.15,
      "duration": 0.25,
      "midi": 38,
      "noteNumber": 38,
      "velocity": 0.87,
      "track": "Left Hand",
      "channel": 1,
      "lane": "D"
    },
    {
      "time": 48.15,
      "duration": 0.25,
      "midi": 50,
      "noteNumber": 50,
      "velocity": 0.87,
      "track": "Left Hand",
      "channel": 1,
      "lane": "F"
    },
    {
      "time": 48.3,
      "duration": 0.147,
      "midi": 67,
      "noteNumber": 67,
      "velocity": 0.87,
      "track": "Right Hand",
      "channel": 0,
      "lane": "J"
    },
    {
      "time": 48.45,
      "duration": 0.147,
      "midi": 69,
      "noteNumber": 69,
      "velocity": 0.87,
      "track": "Right Hand",
      "channel": 0,
      "lane": "J"
    },
    {
      "time": 48.45,
      "duration": 0.147,
      "midi": 38,
      "noteNumber": 38,
      "velocity": 0.87,
      "track": "Left Hand",
      "channel": 1,
      "lane": "D"
    },
    {
      "time": 48.45,
      "duration": 0.147,
      "midi": 50,
      "noteNumber": 50,
      "velocity": 0.87,
      "track": "Left Hand",
      "channel": 1,
      "lane": "F"
    },
    {
      "time": 48.6,
      "duration": 0.25,
      "midi": 60,
      "noteNumber": 60,
      "velocity": 0.87,
      "track": "Right Hand",
      "channel": 0,
      "lane": "J"
    },
    {
      "time": 48.6,
      "duration": 0.25,
      "midi": 67,
      "noteNumber": 67,
      "velocity": 0.87,
      "track": "Right Hand",
      "channel": 0,
      "lane": "J"
    },
    {
      "time": 48.6,
      "duration": 0.25,
      "midi": 36,
      "noteNumber": 36,
      "velocity": 0.87,
      "track": "Left Hand",
      "channel": 1,
      "lane": "D"
    },
    {
      "time": 48.6,
      "duration": 0.25,
      "midi": 48,
      "noteNumber": 48,
      "velocity": 0.87,
      "track": "Left Hand",
      "channel": 1,
      "lane": "F"
    },
    {
      "time": 48.9,
      "duration": 0.25,
      "midi": 60,
      "noteNumber": 60,
      "velocity": 0.87,
      "track": "Right Hand",
      "channel": 0,
      "lane": "J"
    },
    {
      "time": 48.9,
      "duration": 0.25,
      "midi": 65,
      "noteNumber": 65,
      "velocity": 0.87,
      "track": "Right Hand",
      "channel": 0,
      "lane": "J"
    },
    {
      "time": 48.9,
      "duration": 0.147,
      "midi": 36,
      "noteNumber": 36,
      "velocity": 0.87,
      "track": "Left Hand",
      "channel": 1,
      "lane": "D"
    },
    {
      "time": 48.9,
      "duration": 0.147,
      "midi": 48,
      "noteNumber": 48,
      "velocity": 0.87,
      "track": "Left Hand",
      "channel": 1,
      "lane": "F"
    },
    {
      "time": 49.05,
      "duration": 0.147,
      "midi": 36,
      "noteNumber": 36,
      "velocity": 0.87,
      "track": "Left Hand",
      "channel": 1,
      "lane": "D"
    },
    {
      "time": 49.05,
      "duration": 0.147,
      "midi": 48,
      "noteNumber": 48,
      "velocity": 0.87,
      "track": "Left Hand",
      "channel": 1,
      "lane": "F"
    },
    {
      "time": 49.2,
      "duration": 0.25,
      "midi": 60,
      "noteNumber": 60,
      "velocity": 0.87,
      "track": "Right Hand",
      "channel": 0,
      "lane": "J"
    },
    {
      "time": 49.2,
      "duration": 0.25,
      "midi": 64,
      "noteNumber": 64,
      "velocity": 0.87,
      "track": "Right Hand",
      "channel": 0,
      "lane": "J"
    },
    {
      "time": 49.2,
      "duration": 0.147,
      "midi": 36,
      "noteNumber": 36,
      "velocity": 0.87,
      "track": "Left Hand",
      "channel": 1,
      "lane": "D"
    },
    {
      "time": 49.2,
      "duration": 0.147,
      "midi": 48,
      "noteNumber": 48,
      "velocity": 0.87,
      "track": "Left Hand",
      "channel": 1,
      "lane": "F"
    },
    {
      "time": 49.35,
      "duration": 0.147,
      "midi": 36,
      "noteNumber": 36,
      "velocity": 0.87,
      "track": "Left Hand",
      "channel": 1,
      "lane": "D"
    },
    {
      "time": 49.35,
      "duration": 0.147,
      "midi": 48,
      "noteNumber": 48,
      "velocity": 0.87,
      "track": "Left Hand",
      "channel": 1,
      "lane": "F"
    },
    {
      "time": 49.5,
      "duration": 0.25,
      "midi": 57,
      "noteNumber": 57,
      "velocity": 0.87,
      "track": "Right Hand",
      "channel": 0,
      "lane": "J"
    },
    {
      "time": 49.5,
      "duration": 0.25,
      "midi": 60,
      "noteNumber": 60,
      "velocity": 0.87,
      "track": "Right Hand",
      "channel": 0,
      "lane": "J"
    },
    {
      "time": 49.5,
      "duration": 0.25,
      "midi": 65,
      "noteNumber": 65,
      "velocity": 0.87,
      "track": "Right Hand",
      "channel": 0,
      "lane": "J"
    },
    {
      "time": 49.5,
      "duration": 0.25,
      "midi": 41,
      "noteNumber": 41,
      "velocity": 0.87,
      "track": "Left Hand",
      "channel": 1,
      "lane": "F"
    },
    {
      "time": 49.5,
      "duration": 0.25,
      "midi": 53,
      "noteNumber": 53,
      "velocity": 0.87,
      "track": "Left Hand",
      "channel": 1,
      "lane": "F"
    },
    {
      "time": 49.8,
      "duration": 0.25,
      "midi": 57,
      "noteNumber": 57,
      "velocity": 0.87,
      "track": "Right Hand",
      "channel": 0,
      "lane": "J"
    },
    {
      "time": 49.8,
      "duration": 0.25,
      "midi": 60,
      "noteNumber": 60,
      "velocity": 0.87,
      "track": "Right Hand",
      "channel": 0,
      "lane": "J"
    },
    {
      "time": 49.8,
      "duration": 0.25,
      "midi": 67,
      "noteNumber": 67,
      "velocity": 0.87,
      "track": "Right Hand",
      "channel": 0,
      "lane": "J"
    },
    {
      "time": 49.8,
      "duration": 0.147,
      "midi": 41,
      "noteNumber": 41,
      "velocity": 0.87,
      "track": "Left Hand",
      "channel": 1,
      "lane": "F"
    },
    {
      "time": 49.8,
      "duration": 0.147,
      "midi": 53,
      "noteNumber": 53,
      "velocity": 0.87,
      "track": "Left Hand",
      "channel": 1,
      "lane": "F"
    },
    {
      "time": 49.95,
      "duration": 0.147,
      "midi": 41,
      "noteNumber": 41,
      "velocity": 0.87,
      "track": "Left Hand",
      "channel": 1,
      "lane": "F"
    },
    {
      "time": 49.95,
      "duration": 0.147,
      "midi": 53,
      "noteNumber": 53,
      "velocity": 0.87,
      "track": "Left Hand",
      "channel": 1,
      "lane": "F"
    },
    {
      "time": 50.1,
      "duration": 0.25,
      "midi": 57,
      "noteNumber": 57,
      "velocity": 0.87,
      "track": "Right Hand",
      "channel": 0,
      "lane": "J"
    },
    {
      "time": 50.1,
      "duration": 0.25,
      "midi": 60,
      "noteNumber": 60,
      "velocity": 0.87,
      "track": "Right Hand",
      "channel": 0,
      "lane": "J"
    },
    {
      "time": 50.1,
      "duration": 0.25,
      "midi": 69,
      "noteNumber": 69,
      "velocity": 0.87,
      "track": "Right Hand",
      "channel": 0,
      "lane": "J"
    },
    {
      "time": 50.1,
      "duration": 0.147,
      "midi": 41,
      "noteNumber": 41,
      "velocity": 0.87,
      "track": "Left Hand",
      "channel": 1,
      "lane": "F"
    },
    {
      "time": 50.1,
      "duration": 0.147,
      "midi": 53,
      "noteNumber": 53,
      "velocity": 0.87,
      "track": "Left Hand",
      "channel": 1,
      "lane": "F"
    },
    {
      "time": 50.25,
      "duration": 0.147,
      "midi": 41,
      "noteNumber": 41,
      "velocity": 0.87,
      "track": "Left Hand",
      "channel": 1,
      "lane": "F"
    },
    {
      "time": 50.25,
      "duration": 0.147,
      "midi": 53,
      "noteNumber": 53,
      "velocity": 0.87,
      "track": "Left Hand",
      "channel": 1,
      "lane": "F"
    },
    {
      "time": 50.4,
      "duration": 0.25,
      "midi": 60,
      "noteNumber": 60,
      "velocity": 0.87,
      "track": "Right Hand",
      "channel": 0,
      "lane": "J"
    },
    {
      "time": 50.4,
      "duration": 0.25,
      "midi": 64,
      "noteNumber": 64,
      "velocity": 0.87,
      "track": "Right Hand",
      "channel": 0,
      "lane": "J"
    },
    {
      "time": 50.4,
      "duration": 0.25,
      "midi": 67,
      "noteNumber": 67,
      "velocity": 0.87,
      "track": "Right Hand",
      "channel": 0,
      "lane": "J"
    },
    {
      "time": 50.4,
      "duration": 0.25,
      "midi": 36,
      "noteNumber": 36,
      "velocity": 0.87,
      "track": "Left Hand",
      "channel": 1,
      "lane": "D"
    },
    {
      "time": 50.4,
      "duration": 0.25,
      "midi": 48,
      "noteNumber": 48,
      "velocity": 0.87,
      "track": "Left Hand",
      "channel": 1,
      "lane": "F"
    },
    {
      "time": 50.7,
      "duration": 0.147,
      "midi": 36,
      "noteNumber": 36,
      "velocity": 0.87,
      "track": "Left Hand",
      "channel": 1,
      "lane": "D"
    },
    {
      "time": 50.7,
      "duration": 0.147,
      "midi": 48,
      "noteNumber": 48,
      "velocity": 0.87,
      "track": "Left Hand",
      "channel": 1,
      "lane": "F"
    },
    {
      "time": 50.85,
      "duration": 0.147,
      "midi": 36,
      "noteNumber": 36,
      "velocity": 0.87,
      "track": "Left Hand",
      "channel": 1,
      "lane": "D"
    },
    {
      "time": 50.85,
      "duration": 0.147,
      "midi": 48,
      "noteNumber": 48,
      "velocity": 0.87,
      "track": "Left Hand",
      "channel": 1,
      "lane": "F"
    },
    {
      "time": 51,
      "duration": 0.147,
      "midi": 65,
      "noteNumber": 65,
      "velocity": 0.87,
      "track": "Right Hand",
      "channel": 0,
      "lane": "J"
    },
    {
      "time": 51,
      "duration": 0.147,
      "midi": 36,
      "noteNumber": 36,
      "velocity": 0.87,
      "track": "Left Hand",
      "channel": 1,
      "lane": "D"
    },
    {
      "time": 51,
      "duration": 0.147,
      "midi": 48,
      "noteNumber": 48,
      "velocity": 0.87,
      "track": "Left Hand",
      "channel": 1,
      "lane": "F"
    },
    {
      "time": 51.15,
      "duration": 0.147,
      "midi": 67,
      "noteNumber": 67,
      "velocity": 0.87,
      "track": "Right Hand",
      "channel": 0,
      "lane": "J"
    },
    {
      "time": 51.15,
      "duration": 0.147,
      "midi": 36,
      "noteNumber": 36,
      "velocity": 0.87,
      "track": "Left Hand",
      "channel": 1,
      "lane": "D"
    },
    {
      "time": 51.15,
      "duration": 0.147,
      "midi": 48,
      "noteNumber": 48,
      "velocity": 0.87,
      "track": "Left Hand",
      "channel": 1,
      "lane": "F"
    },
    {
      "time": 51.3,
      "duration": 0.25,
      "midi": 60,
      "noteNumber": 60,
      "velocity": 0.87,
      "track": "Right Hand",
      "channel": 0,
      "lane": "J"
    },
    {
      "time": 51.3,
      "duration": 0.25,
      "midi": 65,
      "noteNumber": 65,
      "velocity": 0.87,
      "track": "Right Hand",
      "channel": 0,
      "lane": "J"
    },
    {
      "time": 51.3,
      "duration": 0.25,
      "midi": 69,
      "noteNumber": 69,
      "velocity": 0.87,
      "track": "Right Hand",
      "channel": 0,
      "lane": "J"
    },
    {
      "time": 51.3,
      "duration": 0.25,
      "midi": 41,
      "noteNumber": 41,
      "velocity": 0.87,
      "track": "Left Hand",
      "channel": 1,
      "lane": "F"
    },
    {
      "time": 51.3,
      "duration": 0.25,
      "midi": 53,
      "noteNumber": 53,
      "velocity": 0.87,
      "track": "Left Hand",
      "channel": 1,
      "lane": "F"
    },
    {
      "time": 51.6,
      "duration": 0.147,
      "midi": 41,
      "noteNumber": 41,
      "velocity": 0.87,
      "track": "Left Hand",
      "channel": 1,
      "lane": "F"
    },
    {
      "time": 51.6,
      "duration": 0.147,
      "midi": 53,
      "noteNumber": 53,
      "velocity": 0.87,
      "track": "Left Hand",
      "channel": 1,
      "lane": "F"
    },
    {
      "time": 51.75,
      "duration": 0.147,
      "midi": 41,
      "noteNumber": 41,
      "velocity": 0.87,
      "track": "Left Hand",
      "channel": 1,
      "lane": "F"
    },
    {
      "time": 51.75,
      "duration": 0.147,
      "midi": 53,
      "noteNumber": 53,
      "velocity": 0.87,
      "track": "Left Hand",
      "channel": 1,
      "lane": "F"
    },
    {
      "time": 51.9,
      "duration": 0.147,
      "midi": 67,
      "noteNumber": 67,
      "velocity": 0.87,
      "track": "Right Hand",
      "channel": 0,
      "lane": "J"
    },
    {
      "time": 51.9,
      "duration": 0.147,
      "midi": 41,
      "noteNumber": 41,
      "velocity": 0.87,
      "track": "Left Hand",
      "channel": 1,
      "lane": "F"
    },
    {
      "time": 51.9,
      "duration": 0.147,
      "midi": 53,
      "noteNumber": 53,
      "velocity": 0.87,
      "track": "Left Hand",
      "channel": 1,
      "lane": "F"
    },
    {
      "time": 52.05,
      "duration": 0.147,
      "midi": 65,
      "noteNumber": 65,
      "velocity": 0.87,
      "track": "Right Hand",
      "channel": 0,
      "lane": "J"
    },
    {
      "time": 52.05,
      "duration": 0.147,
      "midi": 41,
      "noteNumber": 41,
      "velocity": 0.87,
      "track": "Left Hand",
      "channel": 1,
      "lane": "F"
    },
    {
      "time": 52.05,
      "duration": 0.147,
      "midi": 53,
      "noteNumber": 53,
      "velocity": 0.87,
      "track": "Left Hand",
      "channel": 1,
      "lane": "F"
    },
    {
      "time": 52.2,
      "duration": 0.25,
      "midi": 61,
      "noteNumber": 61,
      "velocity": 0.87,
      "track": "Right Hand",
      "channel": 0,
      "lane": "J"
    },
    {
      "time": 52.2,
      "duration": 0.25,
      "midi": 64,
      "noteNumber": 64,
      "velocity": 0.87,
      "track": "Right Hand",
      "channel": 0,
      "lane": "J"
    },
    {
      "time": 52.2,
      "duration": 0.25,
      "midi": 33,
      "noteNumber": 33,
      "velocity": 0.87,
      "track": "Left Hand",
      "channel": 1,
      "lane": "D"
    },
    {
      "time": 52.2,
      "duration": 0.25,
      "midi": 45,
      "noteNumber": 45,
      "velocity": 0.87,
      "track": "Left Hand",
      "channel": 1,
      "lane": "F"
    },
    {
      "time": 52.5,
      "duration": 0.25,
      "midi": 61,
      "noteNumber": 61,
      "velocity": 0.87,
      "track": "Right Hand",
      "channel": 0,
      "lane": "J"
    },
    {
      "time": 52.5,
      "duration": 0.25,
      "midi": 65,
      "noteNumber": 65,
      "velocity": 0.87,
      "track": "Right Hand",
      "channel": 0,
      "lane": "J"
    },
    {
      "time": 52.5,
      "duration": 0.147,
      "midi": 33,
      "noteNumber": 33,
      "velocity": 0.87,
      "track": "Left Hand",
      "channel": 1,
      "lane": "D"
    },
    {
      "time": 52.5,
      "duration": 0.147,
      "midi": 45,
      "noteNumber": 45,
      "velocity": 0.87,
      "track": "Left Hand",
      "channel": 1,
      "lane": "F"
    },
    {
      "time": 52.65,
      "duration": 0.147,
      "midi": 33,
      "noteNumber": 33,
      "velocity": 0.87,
      "track": "Left Hand",
      "channel": 1,
      "lane": "D"
    },
    {
      "time": 52.65,
      "duration": 0.147,
      "midi": 45,
      "noteNumber": 45,
      "velocity": 0.87,
      "track": "Left Hand",
      "channel": 1,
      "lane": "F"
    },
    {
      "time": 52.8,
      "duration": 0.25,
      "midi": 61,
      "noteNumber": 61,
      "velocity": 0.87,
      "track": "Right Hand",
      "channel": 0,
      "lane": "J"
    },
    {
      "time": 52.8,
      "duration": 0.25,
      "midi": 64,
      "noteNumber": 64,
      "velocity": 0.87,
      "track": "Right Hand",
      "channel": 0,
      "lane": "J"
    },
    {
      "time": 52.8,
      "duration": 0.147,
      "midi": 33,
      "noteNumber": 33,
      "velocity": 0.87,
      "track": "Left Hand",
      "channel": 1,
      "lane": "D"
    },
    {
      "time": 52.8,
      "duration": 0.147,
      "midi": 45,
      "noteNumber": 45,
      "velocity": 0.87,
      "track": "Left Hand",
      "channel": 1,
      "lane": "F"
    },
    {
      "time": 52.95,
      "duration": 0.147,
      "midi": 33,
      "noteNumber": 33,
      "velocity": 0.87,
      "track": "Left Hand",
      "channel": 1,
      "lane": "D"
    },
    {
      "time": 52.95,
      "duration": 0.147,
      "midi": 45,
      "noteNumber": 45,
      "velocity": 0.87,
      "track": "Left Hand",
      "channel": 1,
      "lane": "F"
    },
    {
      "time": 53.1,
      "duration": 0.25,
      "midi": 53,
      "noteNumber": 53,
      "velocity": 0.87,
      "track": "Right Hand",
      "channel": 0,
      "lane": "F"
    },
    {
      "time": 53.1,
      "duration": 0.25,
      "midi": 57,
      "noteNumber": 57,
      "velocity": 0.87,
      "track": "Right Hand",
      "channel": 0,
      "lane": "J"
    },
    {
      "time": 53.1,
      "duration": 0.25,
      "midi": 62,
      "noteNumber": 62,
      "velocity": 0.87,
      "track": "Right Hand",
      "channel": 0,
      "lane": "J"
    },
    {
      "time": 53.1,
      "duration": 0.25,
      "midi": 38,
      "noteNumber": 38,
      "velocity": 0.87,
      "track": "Left Hand",
      "channel": 1,
      "lane": "D"
    },
    {
      "time": 53.1,
      "duration": 0.25,
      "midi": 50,
      "noteNumber": 50,
      "velocity": 0.87,
      "track": "Left Hand",
      "channel": 1,
      "lane": "F"
    },
    {
      "time": 53.4,
      "duration": 0.147,
      "midi": 38,
      "noteNumber": 38,
      "velocity": 0.87,
      "track": "Left Hand",
      "channel": 1,
      "lane": "D"
    },
    {
      "time": 53.4,
      "duration": 0.147,
      "midi": 50,
      "noteNumber": 50,
      "velocity": 0.87,
      "track": "Left Hand",
      "channel": 1,
      "lane": "F"
    },
    {
      "time": 53.55,
      "duration": 0.25,
      "midi": 38,
      "noteNumber": 38,
      "velocity": 0.87,
      "track": "Left Hand",
      "channel": 1,
      "lane": "D"
    },
    {
      "time": 53.55,
      "duration": 0.25,
      "midi": 50,
      "noteNumber": 50,
      "velocity": 0.87,
      "track": "Left Hand",
      "channel": 1,
      "lane": "F"
    },
    {
      "time": 53.7,
      "duration": 0.147,
      "midi": 64,
      "noteNumber": 64,
      "velocity": 0.87,
      "track": "Right Hand",
      "channel": 0,
      "lane": "J"
    },
    {
      "time": 53.85,
      "duration": 0.147,
      "midi": 60,
      "noteNumber": 60,
      "velocity": 0.87,
      "track": "Right Hand",
      "channel": 0,
      "lane": "J"
    },
    {
      "time": 53.85,
      "duration": 0.147,
      "midi": 38,
      "noteNumber": 38,
      "velocity": 0.87,
      "track": "Left Hand",
      "channel": 1,
      "lane": "D"
    },
    {
      "time": 53.85,
      "duration": 0.147,
      "midi": 50,
      "noteNumber": 50,
      "velocity": 0.87,
      "track": "Left Hand",
      "channel": 1,
      "lane": "F"
    },
    {
      "time": 54,
      "duration": 0.147,
      "midi": 53,
      "noteNumber": 53,
      "velocity": 0.87,
      "track": "Right Hand",
      "channel": 0,
      "lane": "F"
    },
    {
      "time": 54,
      "duration": 0.147,
      "midi": 57,
      "noteNumber": 57,
      "velocity": 0.87,
      "track": "Right Hand",
      "channel": 0,
      "lane": "J"
    },
    {
      "time": 54,
      "duration": 0.147,
      "midi": 62,
      "noteNumber": 62,
      "velocity": 0.87,
      "track": "Right Hand",
      "channel": 0,
      "lane": "J"
    },
    {
      "time": 54,
      "duration": 0.25,
      "midi": 38,
      "noteNumber": 38,
      "velocity": 0.87,
      "track": "Left Hand",
      "channel": 1,
      "lane": "D"
    },
    {
      "time": 54,
      "duration": 0.25,
      "midi": 50,
      "noteNumber": 50,
      "velocity": 0.87,
      "track": "Left Hand",
      "channel": 1,
      "lane": "F"
    },
    {
      "time": 54.3,
      "duration": 0.147,
      "midi": 38,
      "noteNumber": 38,
      "velocity": 0.87,
      "track": "Left Hand",
      "channel": 1,
      "lane": "D"
    },
    {
      "time": 54.3,
      "duration": 0.147,
      "midi": 50,
      "noteNumber": 50,
      "velocity": 0.87,
      "track": "Left Hand",
      "channel": 1,
      "lane": "F"
    },
    {
      "time": 54.45,
      "duration": 0.147,
      "midi": 38,
      "noteNumber": 38,
      "velocity": 0.87,
      "track": "Left Hand",
      "channel": 1,
      "lane": "D"
    },
    {
      "time": 54.45,
      "duration": 0.147,
      "midi": 50,
      "noteNumber": 50,
      "velocity": 0.87,
      "track": "Left Hand",
      "channel": 1,
      "lane": "F"
    },
    {
      "time": 54.6,
      "duration": 0.147,
      "midi": 74,
      "noteNumber": 74,
      "velocity": 0.87,
      "track": "Right Hand",
      "channel": 0,
      "lane": "K"
    },
    {
      "time": 54.6,
      "duration": 0.147,
      "midi": 38,
      "noteNumber": 38,
      "velocity": 0.87,
      "track": "Left Hand",
      "channel": 1,
      "lane": "D"
    },
    {
      "time": 54.6,
      "duration": 0.147,
      "midi": 50,
      "noteNumber": 50,
      "velocity": 0.87,
      "track": "Left Hand",
      "channel": 1,
      "lane": "F"
    },
    {
      "time": 54.75,
      "duration": 0.147,
      "midi": 76,
      "noteNumber": 76,
      "velocity": 0.87,
      "track": "Right Hand",
      "channel": 0,
      "lane": "K"
    },
    {
      "time": 54.75,
      "duration": 0.147,
      "midi": 38,
      "noteNumber": 38,
      "velocity": 0.87,
      "track": "Left Hand",
      "channel": 1,
      "lane": "D"
    },
    {
      "time": 54.75,
      "duration": 0.147,
      "midi": 50,
      "noteNumber": 50,
      "velocity": 0.87,
      "track": "Left Hand",
      "channel": 1,
      "lane": "F"
    },
    {
      "time": 54.9,
      "duration": 0.25,
      "midi": 69,
      "noteNumber": 69,
      "velocity": 0.87,
      "track": "Right Hand",
      "channel": 0,
      "lane": "J"
    },
    {
      "time": 54.9,
      "duration": 0.25,
      "midi": 74,
      "noteNumber": 74,
      "velocity": 0.87,
      "track": "Right Hand",
      "channel": 0,
      "lane": "K"
    },
    {
      "time": 54.9,
      "duration": 0.25,
      "midi": 77,
      "noteNumber": 77,
      "velocity": 0.87,
      "track": "Right Hand",
      "channel": 0,
      "lane": "K"
    },
    {
      "time": 54.9,
      "duration": 0.25,
      "midi": 38,
      "noteNumber": 38,
      "velocity": 0.87,
      "track": "Left Hand",
      "channel": 1,
      "lane": "D"
    },
    {
      "time": 54.9,
      "duration": 0.25,
      "midi": 50,
      "noteNumber": 50,
      "velocity": 0.87,
      "track": "Left Hand",
      "channel": 1,
      "lane": "F"
    },
    {
      "time": 55.2,
      "duration": 0.147,
      "midi": 38,
      "noteNumber": 38,
      "velocity": 0.87,
      "track": "Left Hand",
      "channel": 1,
      "lane": "D"
    },
    {
      "time": 55.2,
      "duration": 0.147,
      "midi": 50,
      "noteNumber": 50,
      "velocity": 0.87,
      "track": "Left Hand",
      "channel": 1,
      "lane": "F"
    },
    {
      "time": 55.35,
      "duration": 0.147,
      "midi": 38,
      "noteNumber": 38,
      "velocity": 0.87,
      "track": "Left Hand",
      "channel": 1,
      "lane": "D"
    },
    {
      "time": 55.35,
      "duration": 0.147,
      "midi": 50,
      "noteNumber": 50,
      "velocity": 0.87,
      "track": "Left Hand",
      "channel": 1,
      "lane": "F"
    },
    {
      "time": 55.5,
      "duration": 0.147,
      "midi": 76,
      "noteNumber": 76,
      "velocity": 0.87,
      "track": "Right Hand",
      "channel": 0,
      "lane": "K"
    },
    {
      "time": 55.5,
      "duration": 0.147,
      "midi": 38,
      "noteNumber": 38,
      "velocity": 0.87,
      "track": "Left Hand",
      "channel": 1,
      "lane": "D"
    },
    {
      "time": 55.5,
      "duration": 0.147,
      "midi": 50,
      "noteNumber": 50,
      "velocity": 0.87,
      "track": "Left Hand",
      "channel": 1,
      "lane": "F"
    },
    {
      "time": 55.65,
      "duration": 0.147,
      "midi": 77,
      "noteNumber": 77,
      "velocity": 0.87,
      "track": "Right Hand",
      "channel": 0,
      "lane": "K"
    },
    {
      "time": 55.65,
      "duration": 0.147,
      "midi": 38,
      "noteNumber": 38,
      "velocity": 0.87,
      "track": "Left Hand",
      "channel": 1,
      "lane": "D"
    },
    {
      "time": 55.65,
      "duration": 0.147,
      "midi": 50,
      "noteNumber": 50,
      "velocity": 0.87,
      "track": "Left Hand",
      "channel": 1,
      "lane": "F"
    },
    {
      "time": 55.8,
      "duration": 0.25,
      "midi": 72,
      "noteNumber": 72,
      "velocity": 0.87,
      "track": "Right Hand",
      "channel": 0,
      "lane": "K"
    },
    {
      "time": 55.8,
      "duration": 0.25,
      "midi": 79,
      "noteNumber": 79,
      "velocity": 0.87,
      "track": "Right Hand",
      "channel": 0,
      "lane": "K"
    },
    {
      "time": 55.8,
      "duration": 0.25,
      "midi": 36,
      "noteNumber": 36,
      "velocity": 0.87,
      "track": "Left Hand",
      "channel": 1,
      "lane": "D"
    },
    {
      "time": 55.8,
      "duration": 0.25,
      "midi": 48,
      "noteNumber": 48,
      "velocity": 0.87,
      "track": "Left Hand",
      "channel": 1,
      "lane": "F"
    },
    {
      "time": 56.1,
      "duration": 0.25,
      "midi": 72,
      "noteNumber": 72,
      "velocity": 0.87,
      "track": "Right Hand",
      "channel": 0,
      "lane": "K"
    },
    {
      "time": 56.1,
      "duration": 0.25,
      "midi": 77,
      "noteNumber": 77,
      "velocity": 0.87,
      "track": "Right Hand",
      "channel": 0,
      "lane": "K"
    },
    {
      "time": 56.1,
      "duration": 0.147,
      "midi": 36,
      "noteNumber": 36,
      "velocity": 0.87,
      "track": "Left Hand",
      "channel": 1,
      "lane": "D"
    },
    {
      "time": 56.1,
      "duration": 0.147,
      "midi": 48,
      "noteNumber": 48,
      "velocity": 0.87,
      "track": "Left Hand",
      "channel": 1,
      "lane": "F"
    },
    {
      "time": 56.25,
      "duration": 0.147,
      "midi": 36,
      "noteNumber": 36,
      "velocity": 0.87,
      "track": "Left Hand",
      "channel": 1,
      "lane": "D"
    },
    {
      "time": 56.25,
      "duration": 0.147,
      "midi": 48,
      "noteNumber": 48,
      "velocity": 0.87,
      "track": "Left Hand",
      "channel": 1,
      "lane": "F"
    },
    {
      "time": 56.4,
      "duration": 0.25,
      "midi": 72,
      "noteNumber": 72,
      "velocity": 0.87,
      "track": "Right Hand",
      "channel": 0,
      "lane": "K"
    },
    {
      "time": 56.4,
      "duration": 0.25,
      "midi": 79,
      "noteNumber": 79,
      "velocity": 0.87,
      "track": "Right Hand",
      "channel": 0,
      "lane": "K"
    },
    {
      "time": 56.4,
      "duration": 0.147,
      "midi": 36,
      "noteNumber": 36,
      "velocity": 0.87,
      "track": "Left Hand",
      "channel": 1,
      "lane": "D"
    },
    {
      "time": 56.4,
      "duration": 0.147,
      "midi": 48,
      "noteNumber": 48,
      "velocity": 0.87,
      "track": "Left Hand",
      "channel": 1,
      "lane": "F"
    },
    {
      "time": 56.55,
      "duration": 0.147,
      "midi": 36,
      "noteNumber": 36,
      "velocity": 0.87,
      "track": "Left Hand",
      "channel": 1,
      "lane": "D"
    },
    {
      "time": 56.55,
      "duration": 0.147,
      "midi": 48,
      "noteNumber": 48,
      "velocity": 0.87,
      "track": "Left Hand",
      "channel": 1,
      "lane": "F"
    },
    {
      "time": 56.7,
      "duration": 0.25,
      "midi": 77,
      "noteNumber": 77,
      "velocity": 0.87,
      "track": "Right Hand",
      "channel": 0,
      "lane": "K"
    },
    {
      "time": 56.7,
      "duration": 0.25,
      "midi": 81,
      "noteNumber": 81,
      "velocity": 0.87,
      "track": "Right Hand",
      "channel": 0,
      "lane": "K"
    },
    {
      "time": 56.7,
      "duration": 0.25,
      "midi": 41,
      "noteNumber": 41,
      "velocity": 0.87,
      "track": "Left Hand",
      "channel": 1,
      "lane": "F"
    },
    {
      "time": 56.7,
      "duration": 0.25,
      "midi": 53,
      "noteNumber": 53,
      "velocity": 0.87,
      "track": "Left Hand",
      "channel": 1,
      "lane": "F"
    },
    {
      "time": 57,
      "duration": 0.25,
      "midi": 72,
      "noteNumber": 72,
      "velocity": 0.87,
      "track": "Right Hand",
      "channel": 0,
      "lane": "K"
    },
    {
      "time": 57,
      "duration": 0.25,
      "midi": 79,
      "noteNumber": 79,
      "velocity": 0.87,
      "track": "Right Hand",
      "channel": 0,
      "lane": "K"
    },
    {
      "time": 57,
      "duration": 0.147,
      "midi": 41,
      "noteNumber": 41,
      "velocity": 0.87,
      "track": "Left Hand",
      "channel": 1,
      "lane": "F"
    },
    {
      "time": 57,
      "duration": 0.147,
      "midi": 53,
      "noteNumber": 53,
      "velocity": 0.87,
      "track": "Left Hand",
      "channel": 1,
      "lane": "F"
    },
    {
      "time": 57.15,
      "duration": 0.147,
      "midi": 41,
      "noteNumber": 41,
      "velocity": 0.87,
      "track": "Left Hand",
      "channel": 1,
      "lane": "F"
    },
    {
      "time": 57.15,
      "duration": 0.147,
      "midi": 53,
      "noteNumber": 53,
      "velocity": 0.87,
      "track": "Left Hand",
      "channel": 1,
      "lane": "F"
    },
    {
      "time": 57.3,
      "duration": 0.25,
      "midi": 72,
      "noteNumber": 72,
      "velocity": 0.87,
      "track": "Right Hand",
      "channel": 0,
      "lane": "K"
    },
    {
      "time": 57.3,
      "duration": 0.25,
      "midi": 77,
      "noteNumber": 77,
      "velocity": 0.87,
      "track": "Right Hand",
      "channel": 0,
      "lane": "K"
    },
    {
      "time": 57.3,
      "duration": 0.147,
      "midi": 41,
      "noteNumber": 41,
      "velocity": 0.87,
      "track": "Left Hand",
      "channel": 1,
      "lane": "F"
    },
    {
      "time": 57.3,
      "duration": 0.147,
      "midi": 53,
      "noteNumber": 53,
      "velocity": 0.87,
      "track": "Left Hand",
      "channel": 1,
      "lane": "F"
    },
    {
      "time": 57.45,
      "duration": 0.147,
      "midi": 41,
      "noteNumber": 41,
      "velocity": 0.87,
      "track": "Left Hand",
      "channel": 1,
      "lane": "F"
    },
    {
      "time": 57.45,
      "duration": 0.147,
      "midi": 53,
      "noteNumber": 53,
      "velocity": 0.87,
      "track": "Left Hand",
      "channel": 1,
      "lane": "F"
    },
    {
      "time": 57.6,
      "duration": 0.25,
      "midi": 65,
      "noteNumber": 65,
      "velocity": 0.87,
      "track": "Right Hand",
      "channel": 0,
      "lane": "J"
    },
    {
      "time": 57.6,
      "duration": 0.25,
      "midi": 70,
      "noteNumber": 70,
      "velocity": 0.87,
      "track": "Right Hand",
      "channel": 0,
      "lane": "K"
    },
    {
      "time": 57.6,
      "duration": 0.25,
      "midi": 74,
      "noteNumber": 74,
      "velocity": 0.87,
      "track": "Right Hand",
      "channel": 0,
      "lane": "K"
    },
    {
      "time": 57.6,
      "duration": 0.25,
      "midi": 34,
      "noteNumber": 34,
      "velocity": 0.87,
      "track": "Left Hand",
      "channel": 1,
      "lane": "D"
    },
    {
      "time": 57.6,
      "duration": 0.25,
      "midi": 46,
      "noteNumber": 46,
      "velocity": 0.87,
      "track": "Left Hand",
      "channel": 1,
      "lane": "F"
    },
    {
      "time": 57.9,
      "duration": 0.147,
      "midi": 34,
      "noteNumber": 34,
      "velocity": 0.87,
      "track": "Left Hand",
      "channel": 1,
      "lane": "D"
    },
    {
      "time": 57.9,
      "duration": 0.147,
      "midi": 46,
      "noteNumber": 46,
      "velocity": 0.87,
      "track": "Left Hand",
      "channel": 1,
      "lane": "F"
    },
    {
      "time": 58.05,
      "duration": 0.147,
      "midi": 34,
      "noteNumber": 34,
      "velocity": 0.87,
      "track": "Left Hand",
      "channel": 1,
      "lane": "D"
    },
    {
      "time": 58.05,
      "duration": 0.147,
      "midi": 46,
      "noteNumber": 46,
      "velocity": 0.87,
      "track": "Left Hand",
      "channel": 1,
      "lane": "F"
    },
    {
      "time": 58.2,
      "duration": 0.147,
      "midi": 74,
      "noteNumber": 74,
      "velocity": 0.87,
      "track": "Right Hand",
      "channel": 0,
      "lane": "K"
    },
    {
      "time": 58.2,
      "duration": 0.147,
      "midi": 34,
      "noteNumber": 34,
      "velocity": 0.87,
      "track": "Left Hand",
      "channel": 1,
      "lane": "D"
    },
    {
      "time": 58.2,
      "duration": 0.147,
      "midi": 46,
      "noteNumber": 46,
      "velocity": 0.87,
      "track": "Left Hand",
      "channel": 1,
      "lane": "F"
    },
    {
      "time": 58.35,
      "duration": 0.147,
      "midi": 76,
      "noteNumber": 76,
      "velocity": 0.87,
      "track": "Right Hand",
      "channel": 0,
      "lane": "K"
    },
    {
      "time": 58.35,
      "duration": 0.147,
      "midi": 34,
      "noteNumber": 34,
      "velocity": 0.87,
      "track": "Left Hand",
      "channel": 1,
      "lane": "D"
    },
    {
      "time": 58.35,
      "duration": 0.147,
      "midi": 46,
      "noteNumber": 46,
      "velocity": 0.87,
      "track": "Left Hand",
      "channel": 1,
      "lane": "F"
    },
    {
      "time": 58.5,
      "duration": 0.25,
      "midi": 69,
      "noteNumber": 69,
      "velocity": 0.87,
      "track": "Right Hand",
      "channel": 0,
      "lane": "J"
    },
    {
      "time": 58.5,
      "duration": 0.25,
      "midi": 74,
      "noteNumber": 74,
      "velocity": 0.87,
      "track": "Right Hand",
      "channel": 0,
      "lane": "K"
    },
    {
      "time": 58.5,
      "duration": 0.25,
      "midi": 77,
      "noteNumber": 77,
      "velocity": 0.87,
      "track": "Right Hand",
      "channel": 0,
      "lane": "K"
    },
    {
      "time": 58.5,
      "duration": 0.25,
      "midi": 38,
      "noteNumber": 38,
      "velocity": 0.87,
      "track": "Left Hand",
      "channel": 1,
      "lane": "D"
    },
    {
      "time": 58.5,
      "duration": 0.25,
      "midi": 50,
      "noteNumber": 50,
      "velocity": 0.87,
      "track": "Left Hand",
      "channel": 1,
      "lane": "F"
    },
    {
      "time": 58.8,
      "duration": 0.25,
      "midi": 69,
      "noteNumber": 69,
      "velocity": 0.87,
      "track": "Right Hand",
      "channel": 0,
      "lane": "J"
    },
    {
      "time": 58.8,
      "duration": 0.25,
      "midi": 74,
      "noteNumber": 74,
      "velocity": 0.87,
      "track": "Right Hand",
      "channel": 0,
      "lane": "K"
    },
    {
      "time": 58.8,
      "duration": 0.25,
      "midi": 79,
      "noteNumber": 79,
      "velocity": 0.87,
      "track": "Right Hand",
      "channel": 0,
      "lane": "K"
    },
    {
      "time": 58.8,
      "duration": 0.147,
      "midi": 38,
      "noteNumber": 38,
      "velocity": 0.87,
      "track": "Left Hand",
      "channel": 1,
      "lane": "D"
    },
    {
      "time": 58.8,
      "duration": 0.147,
      "midi": 50,
      "noteNumber": 50,
      "velocity": 0.87,
      "track": "Left Hand",
      "channel": 1,
      "lane": "F"
    },
    {
      "time": 58.95,
      "duration": 0.147,
      "midi": 38,
      "noteNumber": 38,
      "velocity": 0.87,
      "track": "Left Hand",
      "channel": 1,
      "lane": "D"
    },
    {
      "time": 58.95,
      "duration": 0.147,
      "midi": 50,
      "noteNumber": 50,
      "velocity": 0.87,
      "track": "Left Hand",
      "channel": 1,
      "lane": "F"
    },
    {
      "time": 59.1,
      "duration": 0.25,
      "midi": 74,
      "noteNumber": 74,
      "velocity": 0.87,
      "track": "Right Hand",
      "channel": 0,
      "lane": "K"
    },
    {
      "time": 59.1,
      "duration": 0.25,
      "midi": 81,
      "noteNumber": 81,
      "velocity": 0.87,
      "track": "Right Hand",
      "channel": 0,
      "lane": "K"
    },
    {
      "time": 59.1,
      "duration": 0.147,
      "midi": 38,
      "noteNumber": 38,
      "velocity": 0.87,
      "track": "Left Hand",
      "channel": 1,
      "lane": "D"
    },
    {
      "time": 59.1,
      "duration": 0.147,
      "midi": 50,
      "noteNumber": 50,
      "velocity": 0.87,
      "track": "Left Hand",
      "channel": 1,
      "lane": "F"
    },
    {
      "time": 59.25,
      "duration": 0.147,
      "midi": 38,
      "noteNumber": 38,
      "velocity": 0.87,
      "track": "Left Hand",
      "channel": 1,
      "lane": "D"
    },
    {
      "time": 59.25,
      "duration": 0.147,
      "midi": 50,
      "noteNumber": 50,
      "velocity": 0.87,
      "track": "Left Hand",
      "channel": 1,
      "lane": "F"
    },
    {
      "time": 59.4,
      "duration": 0.25,
      "midi": 70,
      "noteNumber": 70,
      "velocity": 0.87,
      "track": "Right Hand",
      "channel": 0,
      "lane": "K"
    },
    {
      "time": 59.4,
      "duration": 0.25,
      "midi": 74,
      "noteNumber": 74,
      "velocity": 0.87,
      "track": "Right Hand",
      "channel": 0,
      "lane": "K"
    },
    {
      "time": 59.4,
      "duration": 0.25,
      "midi": 82,
      "noteNumber": 82,
      "velocity": 0.87,
      "track": "Right Hand",
      "channel": 0,
      "lane": "K"
    },
    {
      "time": 59.4,
      "duration": 0.25,
      "midi": 31,
      "noteNumber": 31,
      "velocity": 0.87,
      "track": "Left Hand",
      "channel": 1,
      "lane": "D"
    },
    {
      "time": 59.4,
      "duration": 0.25,
      "midi": 43,
      "noteNumber": 43,
      "velocity": 0.87,
      "track": "Left Hand",
      "channel": 1,
      "lane": "F"
    },
    {
      "time": 59.7,
      "duration": 0.25,
      "midi": 70,
      "noteNumber": 70,
      "velocity": 0.87,
      "track": "Right Hand",
      "channel": 0,
      "lane": "K"
    },
    {
      "time": 59.7,
      "duration": 0.25,
      "midi": 74,
      "noteNumber": 74,
      "velocity": 0.87,
      "track": "Right Hand",
      "channel": 0,
      "lane": "K"
    },
    {
      "time": 59.7,
      "duration": 0.147,
      "midi": 31,
      "noteNumber": 31,
      "velocity": 0.87,
      "track": "Left Hand",
      "channel": 1,
      "lane": "D"
    },
    {
      "time": 59.7,
      "duration": 0.147,
      "midi": 43,
      "noteNumber": 43,
      "velocity": 0.87,
      "track": "Left Hand",
      "channel": 1,
      "lane": "F"
    },
    {
      "time": 59.85,
      "duration": 0.147,
      "midi": 31,
      "noteNumber": 31,
      "velocity": 0.87,
      "track": "Left Hand",
      "channel": 1,
      "lane": "D"
    },
    {
      "time": 59.85,
      "duration": 0.147,
      "midi": 43,
      "noteNumber": 43,
      "velocity": 0.87,
      "track": "Left Hand",
      "channel": 1,
      "lane": "F"
    },
    {
      "time": 60,
      "duration": 0.25,
      "midi": 70,
      "noteNumber": 70,
      "velocity": 0.87,
      "track": "Right Hand",
      "channel": 0,
      "lane": "K"
    },
    {
      "time": 60,
      "duration": 0.25,
      "midi": 79,
      "noteNumber": 79,
      "velocity": 0.87,
      "track": "Right Hand",
      "channel": 0,
      "lane": "K"
    },
    {
      "time": 60,
      "duration": 0.147,
      "midi": 31,
      "noteNumber": 31,
      "velocity": 0.87,
      "track": "Left Hand",
      "channel": 1,
      "lane": "D"
    },
    {
      "time": 60,
      "duration": 0.147,
      "midi": 43,
      "noteNumber": 43,
      "velocity": 0.87,
      "track": "Left Hand",
      "channel": 1,
      "lane": "F"
    },
    {
      "time": 60.15,
      "duration": 0.147,
      "midi": 31,
      "noteNumber": 31,
      "velocity": 0.87,
      "track": "Left Hand",
      "channel": 1,
      "lane": "D"
    },
    {
      "time": 60.15,
      "duration": 0.147,
      "midi": 43,
      "noteNumber": 43,
      "velocity": 0.87,
      "track": "Left Hand",
      "channel": 1,
      "lane": "F"
    },
    {
      "time": 60.3,
      "duration": 0.25,
      "midi": 69,
      "noteNumber": 69,
      "velocity": 0.87,
      "track": "Right Hand",
      "channel": 0,
      "lane": "J"
    },
    {
      "time": 60.3,
      "duration": 0.25,
      "midi": 77,
      "noteNumber": 77,
      "velocity": 0.87,
      "track": "Right Hand",
      "channel": 0,
      "lane": "K"
    },
    {
      "time": 60.3,
      "duration": 0.25,
      "midi": 33,
      "noteNumber": 33,
      "velocity": 0.87,
      "track": "Left Hand",
      "channel": 1,
      "lane": "D"
    },
    {
      "time": 60.3,
      "duration": 0.25,
      "midi": 45,
      "noteNumber": 45,
      "velocity": 0.87,
      "track": "Left Hand",
      "channel": 1,
      "lane": "F"
    },
    {
      "time": 60.6,
      "duration": 0.147,
      "midi": 33,
      "noteNumber": 33,
      "velocity": 0.87,
      "track": "Left Hand",
      "channel": 1,
      "lane": "D"
    },
    {
      "time": 60.6,
      "duration": 0.147,
      "midi": 45,
      "noteNumber": 45,
      "velocity": 0.87,
      "track": "Left Hand",
      "channel": 1,
      "lane": "F"
    },
    {
      "time": 60.75,
      "duration": 0.147,
      "midi": 33,
      "noteNumber": 33,
      "velocity": 0.87,
      "track": "Left Hand",
      "channel": 1,
      "lane": "D"
    },
    {
      "time": 60.75,
      "duration": 0.147,
      "midi": 45,
      "noteNumber": 45,
      "velocity": 0.87,
      "track": "Left Hand",
      "channel": 1,
      "lane": "F"
    },
    {
      "time": 60.9,
      "duration": 0.147,
      "midi": 79,
      "noteNumber": 79,
      "velocity": 0.87,
      "track": "Right Hand",
      "channel": 0,
      "lane": "K"
    },
    {
      "time": 60.9,
      "duration": 0.147,
      "midi": 33,
      "noteNumber": 33,
      "velocity": 0.87,
      "track": "Left Hand",
      "channel": 1,
      "lane": "D"
    },
    {
      "time": 60.9,
      "duration": 0.147,
      "midi": 45,
      "noteNumber": 45,
      "velocity": 0.87,
      "track": "Left Hand",
      "channel": 1,
      "lane": "F"
    },
    {
      "time": 61.05,
      "duration": 0.147,
      "midi": 76,
      "noteNumber": 76,
      "velocity": 0.87,
      "track": "Right Hand",
      "channel": 0,
      "lane": "K"
    },
    {
      "time": 61.05,
      "duration": 0.147,
      "midi": 33,
      "noteNumber": 33,
      "velocity": 0.87,
      "track": "Left Hand",
      "channel": 1,
      "lane": "D"
    },
    {
      "time": 61.05,
      "duration": 0.147,
      "midi": 45,
      "noteNumber": 45,
      "velocity": 0.87,
      "track": "Left Hand",
      "channel": 1,
      "lane": "F"
    },
    {
      "time": 61.2,
      "duration": 0.25,
      "midi": 69,
      "noteNumber": 69,
      "velocity": 0.87,
      "track": "Right Hand",
      "channel": 0,
      "lane": "J"
    },
    {
      "time": 61.2,
      "duration": 0.25,
      "midi": 74,
      "noteNumber": 74,
      "velocity": 0.87,
      "track": "Right Hand",
      "channel": 0,
      "lane": "K"
    },
    {
      "time": 61.2,
      "duration": 0.25,
      "midi": 33,
      "noteNumber": 33,
      "velocity": 0.87,
      "track": "Left Hand",
      "channel": 1,
      "lane": "D"
    },
    {
      "time": 61.2,
      "duration": 0.25,
      "midi": 45,
      "noteNumber": 45,
      "velocity": 0.87,
      "track": "Left Hand",
      "channel": 1,
      "lane": "F"
    },
    {
      "time": 61.5,
      "duration": 0.147,
      "midi": 33,
      "noteNumber": 33,
      "velocity": 0.87,
      "track": "Left Hand",
      "channel": 1,
      "lane": "D"
    },
    {
      "time": 61.5,
      "duration": 0.147,
      "midi": 45,
      "noteNumber": 45,
      "velocity": 0.87,
      "track": "Left Hand",
      "channel": 1,
      "lane": "F"
    },
    {
      "time": 61.65,
      "duration": 0.147,
      "midi": 33,
      "noteNumber": 33,
      "velocity": 0.87,
      "track": "Left Hand",
      "channel": 1,
      "lane": "D"
    },
    {
      "time": 61.65,
      "duration": 0.147,
      "midi": 45,
      "noteNumber": 45,
      "velocity": 0.87,
      "track": "Left Hand",
      "channel": 1,
      "lane": "F"
    },
    {
      "time": 61.8,
      "duration": 0.147,
      "midi": 76,
      "noteNumber": 76,
      "velocity": 0.87,
      "track": "Right Hand",
      "channel": 0,
      "lane": "K"
    },
    {
      "time": 61.8,
      "duration": 0.147,
      "midi": 33,
      "noteNumber": 33,
      "velocity": 0.87,
      "track": "Left Hand",
      "channel": 1,
      "lane": "D"
    },
    {
      "time": 61.8,
      "duration": 0.147,
      "midi": 45,
      "noteNumber": 45,
      "velocity": 0.87,
      "track": "Left Hand",
      "channel": 1,
      "lane": "F"
    },
    {
      "time": 61.95,
      "duration": 0.147,
      "midi": 73,
      "noteNumber": 73,
      "velocity": 0.87,
      "track": "Right Hand",
      "channel": 0,
      "lane": "K"
    },
    {
      "time": 61.95,
      "duration": 0.147,
      "midi": 33,
      "noteNumber": 33,
      "velocity": 0.87,
      "track": "Left Hand",
      "channel": 1,
      "lane": "D"
    },
    {
      "time": 61.95,
      "duration": 0.147,
      "midi": 45,
      "noteNumber": 45,
      "velocity": 0.87,
      "track": "Left Hand",
      "channel": 1,
      "lane": "F"
    },
    {
      "time": 62.1,
      "duration": 0.25,
      "midi": 74,
      "noteNumber": 74,
      "velocity": 0.87,
      "track": "Right Hand",
      "channel": 0,
      "lane": "K"
    },
    {
      "time": 62.1,
      "duration": 0.25,
      "midi": 77,
      "noteNumber": 77,
      "velocity": 0.87,
      "track": "Right Hand",
      "channel": 0,
      "lane": "K"
    },
    {
      "time": 62.1,
      "duration": 0.25,
      "midi": 81,
      "noteNumber": 81,
      "velocity": 0.87,
      "track": "Right Hand",
      "channel": 0,
      "lane": "K"
    },
    {
      "time": 62.1,
      "duration": 0.25,
      "midi": 38,
      "noteNumber": 38,
      "velocity": 0.87,
      "track": "Left Hand",
      "channel": 1,
      "lane": "D"
    },
    {
      "time": 62.1,
      "duration": 0.25,
      "midi": 50,
      "noteNumber": 50,
      "velocity": 0.87,
      "track": "Left Hand",
      "channel": 1,
      "lane": "F"
    },
    {
      "time": 62.4,
      "duration": 0.147,
      "midi": 38,
      "noteNumber": 38,
      "velocity": 0.87,
      "track": "Left Hand",
      "channel": 1,
      "lane": "D"
    },
    {
      "time": 62.4,
      "duration": 0.147,
      "midi": 50,
      "noteNumber": 50,
      "velocity": 0.87,
      "track": "Left Hand",
      "channel": 1,
      "lane": "F"
    },
    {
      "time": 62.55,
      "duration": 0.147,
      "midi": 38,
      "noteNumber": 38,
      "velocity": 0.87,
      "track": "Left Hand",
      "channel": 1,
      "lane": "D"
    },
    {
      "time": 62.55,
      "duration": 0.147,
      "midi": 50,
      "noteNumber": 50,
      "velocity": 0.87,
      "track": "Left Hand",
      "channel": 1,
      "lane": "F"
    },
    {
      "time": 62.7,
      "duration": 0.147,
      "midi": 38,
      "noteNumber": 38,
      "velocity": 0.87,
      "track": "Left Hand",
      "channel": 1,
      "lane": "D"
    },
    {
      "time": 62.7,
      "duration": 0.147,
      "midi": 50,
      "noteNumber": 50,
      "velocity": 0.87,
      "track": "Left Hand",
      "channel": 1,
      "lane": "F"
    },
    {
      "time": 62.85,
      "duration": 0.147,
      "midi": 38,
      "noteNumber": 38,
      "velocity": 0.87,
      "track": "Left Hand",
      "channel": 1,
      "lane": "D"
    },
    {
      "time": 62.85,
      "duration": 0.147,
      "midi": 50,
      "noteNumber": 50,
      "velocity": 0.87,
      "track": "Left Hand",
      "channel": 1,
      "lane": "F"
    },
    {
      "time": 63,
      "duration": 0.25,
      "midi": 74,
      "noteNumber": 74,
      "velocity": 0.87,
      "track": "Right Hand",
      "channel": 0,
      "lane": "K"
    },
    {
      "time": 63,
      "duration": 0.25,
      "midi": 79,
      "noteNumber": 79,
      "velocity": 0.87,
      "track": "Right Hand",
      "channel": 0,
      "lane": "K"
    },
    {
      "time": 63,
      "duration": 0.25,
      "midi": 82,
      "noteNumber": 82,
      "velocity": 0.87,
      "track": "Right Hand",
      "channel": 0,
      "lane": "K"
    },
    {
      "time": 63,
      "duration": 0.25,
      "midi": 31,
      "noteNumber": 31,
      "velocity": 0.87,
      "track": "Left Hand",
      "channel": 1,
      "lane": "D"
    },
    {
      "time": 63,
      "duration": 0.25,
      "midi": 43,
      "noteNumber": 43,
      "velocity": 0.87,
      "track": "Left Hand",
      "channel": 1,
      "lane": "F"
    },
    {
      "time": 63.3,
      "duration": 0.147,
      "midi": 31,
      "noteNumber": 31,
      "velocity": 0.87,
      "track": "Left Hand",
      "channel": 1,
      "lane": "D"
    },
    {
      "time": 63.3,
      "duration": 0.147,
      "midi": 43,
      "noteNumber": 43,
      "velocity": 0.87,
      "track": "Left Hand",
      "channel": 1,
      "lane": "F"
    },
    {
      "time": 63.45,
      "duration": 0.147,
      "midi": 31,
      "noteNumber": 31,
      "velocity": 0.87,
      "track": "Left Hand",
      "channel": 1,
      "lane": "D"
    },
    {
      "time": 63.45,
      "duration": 0.147,
      "midi": 43,
      "noteNumber": 43,
      "velocity": 0.87,
      "track": "Left Hand",
      "channel": 1,
      "lane": "F"
    },
    {
      "time": 63.6,
      "duration": 0.147,
      "midi": 31,
      "noteNumber": 31,
      "velocity": 0.87,
      "track": "Left Hand",
      "channel": 1,
      "lane": "D"
    },
    {
      "time": 63.6,
      "duration": 0.147,
      "midi": 43,
      "noteNumber": 43,
      "velocity": 0.87,
      "track": "Left Hand",
      "channel": 1,
      "lane": "F"
    },
    {
      "time": 63.75,
      "duration": 0.147,
      "midi": 31,
      "noteNumber": 31,
      "velocity": 0.87,
      "track": "Left Hand",
      "channel": 1,
      "lane": "D"
    },
    {
      "time": 63.75,
      "duration": 0.147,
      "midi": 43,
      "noteNumber": 43,
      "velocity": 0.87,
      "track": "Left Hand",
      "channel": 1,
      "lane": "F"
    },
    {
      "time": 63.9,
      "duration": 0.25,
      "midi": 72,
      "noteNumber": 72,
      "velocity": 0.87,
      "track": "Right Hand",
      "channel": 0,
      "lane": "K"
    },
    {
      "time": 63.9,
      "duration": 0.25,
      "midi": 77,
      "noteNumber": 77,
      "velocity": 0.87,
      "track": "Right Hand",
      "channel": 0,
      "lane": "K"
    },
    {
      "time": 63.9,
      "duration": 0.25,
      "midi": 81,
      "noteNumber": 81,
      "velocity": 0.87,
      "track": "Right Hand",
      "channel": 0,
      "lane": "K"
    },
    {
      "time": 63.9,
      "duration": 0.25,
      "midi": 41,
      "noteNumber": 41,
      "velocity": 0.87,
      "track": "Left Hand",
      "channel": 1,
      "lane": "F"
    },
    {
      "time": 63.9,
      "duration": 0.25,
      "midi": 53,
      "noteNumber": 53,
      "velocity": 0.87,
      "track": "Left Hand",
      "channel": 1,
      "lane": "F"
    },
    {
      "time": 64.2,
      "duration": 0.25,
      "midi": 72,
      "noteNumber": 72,
      "velocity": 0.87,
      "track": "Right Hand",
      "channel": 0,
      "lane": "K"
    },
    {
      "time": 64.2,
      "duration": 0.25,
      "midi": 77,
      "noteNumber": 77,
      "velocity": 0.87,
      "track": "Right Hand",
      "channel": 0,
      "lane": "K"
    },
    {
      "time": 64.2,
      "duration": 0.25,
      "midi": 81,
      "noteNumber": 81,
      "velocity": 0.87,
      "track": "Right Hand",
      "channel": 0,
      "lane": "K"
    },
    {
      "time": 64.2,
      "duration": 0.147,
      "midi": 41,
      "noteNumber": 41,
      "velocity": 0.87,
      "track": "Left Hand",
      "channel": 1,
      "lane": "F"
    },
    {
      "time": 64.2,
      "duration": 0.147,
      "midi": 53,
      "noteNumber": 53,
      "velocity": 0.87,
      "track": "Left Hand",
      "channel": 1,
      "lane": "F"
    },
    {
      "time": 64.35,
      "duration": 0.25,
      "midi": 41,
      "noteNumber": 41,
      "velocity": 0.87,
      "track": "Left Hand",
      "channel": 1,
      "lane": "F"
    },
    {
      "time": 64.35,
      "duration": 0.25,
      "midi": 53,
      "noteNumber": 53,
      "velocity": 0.87,
      "track": "Left Hand",
      "channel": 1,
      "lane": "F"
    },
    {
      "time": 64.5,
      "duration": 0.25,
      "midi": 72,
      "noteNumber": 72,
      "velocity": 0.87,
      "track": "Right Hand",
      "channel": 0,
      "lane": "K"
    },
    {
      "time": 64.5,
      "duration": 0.25,
      "midi": 77,
      "noteNumber": 77,
      "velocity": 0.87,
      "track": "Right Hand",
      "channel": 0,
      "lane": "K"
    },
    {
      "time": 64.5,
      "duration": 0.25,
      "midi": 81,
      "noteNumber": 81,
      "velocity": 0.87,
      "track": "Right Hand",
      "channel": 0,
      "lane": "K"
    },
    {
      "time": 64.65,
      "duration": 0.147,
      "midi": 41,
      "noteNumber": 41,
      "velocity": 0.87,
      "track": "Left Hand",
      "channel": 1,
      "lane": "F"
    },
    {
      "time": 64.65,
      "duration": 0.147,
      "midi": 53,
      "noteNumber": 53,
      "velocity": 0.87,
      "track": "Left Hand",
      "channel": 1,
      "lane": "F"
    },
    {
      "time": 64.8,
      "duration": 0.147,
      "midi": 72,
      "noteNumber": 72,
      "velocity": 0.87,
      "track": "Right Hand",
      "channel": 0,
      "lane": "K"
    },
    {
      "time": 64.8,
      "duration": 0.147,
      "midi": 76,
      "noteNumber": 76,
      "velocity": 0.87,
      "track": "Right Hand",
      "channel": 0,
      "lane": "K"
    },
    {
      "time": 64.8,
      "duration": 0.147,
      "midi": 81,
      "noteNumber": 81,
      "velocity": 0.87,
      "track": "Right Hand",
      "channel": 0,
      "lane": "K"
    },
    {
      "time": 64.8,
      "duration": 0.25,
      "midi": 36,
      "noteNumber": 36,
      "velocity": 0.87,
      "track": "Left Hand",
      "channel": 1,
      "lane": "D"
    },
    {
      "time": 64.8,
      "duration": 0.25,
      "midi": 48,
      "noteNumber": 48,
      "velocity": 0.87,
      "track": "Left Hand",
      "channel": 1,
      "lane": "F"
    },
    {
      "time": 64.95,
      "duration": 0.147,
      "midi": 79,
      "noteNumber": 79,
      "velocity": 0.87,
      "track": "Right Hand",
      "channel": 0,
      "lane": "K"
    },
    {
      "time": 65.1,
      "duration": 0.147,
      "midi": 36,
      "noteNumber": 36,
      "velocity": 0.87,
      "track": "Left Hand",
      "channel": 1,
      "lane": "D"
    },
    {
      "time": 65.1,
      "duration": 0.147,
      "midi": 48,
      "noteNumber": 48,
      "velocity": 0.87,
      "track": "Left Hand",
      "channel": 1,
      "lane": "F"
    },
    {
      "time": 65.25,
      "duration": 0.147,
      "midi": 36,
      "noteNumber": 36,
      "velocity": 0.87,
      "track": "Left Hand",
      "channel": 1,
      "lane": "D"
    },
    {
      "time": 65.25,
      "duration": 0.147,
      "midi": 48,
      "noteNumber": 48,
      "velocity": 0.87,
      "track": "Left Hand",
      "channel": 1,
      "lane": "F"
    },
    {
      "time": 65.4,
      "duration": 0.147,
      "midi": 36,
      "noteNumber": 36,
      "velocity": 0.87,
      "track": "Left Hand",
      "channel": 1,
      "lane": "D"
    },
    {
      "time": 65.4,
      "duration": 0.147,
      "midi": 48,
      "noteNumber": 48,
      "velocity": 0.87,
      "track": "Left Hand",
      "channel": 1,
      "lane": "F"
    },
    {
      "time": 65.55,
      "duration": 0.147,
      "midi": 36,
      "noteNumber": 36,
      "velocity": 0.87,
      "track": "Left Hand",
      "channel": 1,
      "lane": "D"
    },
    {
      "time": 65.55,
      "duration": 0.147,
      "midi": 48,
      "noteNumber": 48,
      "velocity": 0.87,
      "track": "Left Hand",
      "channel": 1,
      "lane": "F"
    },
    {
      "time": 65.7,
      "duration": 0.25,
      "midi": 70,
      "noteNumber": 70,
      "velocity": 0.87,
      "track": "Right Hand",
      "channel": 0,
      "lane": "K"
    },
    {
      "time": 65.7,
      "duration": 0.25,
      "midi": 74,
      "noteNumber": 74,
      "velocity": 0.87,
      "track": "Right Hand",
      "channel": 0,
      "lane": "K"
    },
    {
      "time": 65.7,
      "duration": 0.25,
      "midi": 79,
      "noteNumber": 79,
      "velocity": 0.87,
      "track": "Right Hand",
      "channel": 0,
      "lane": "K"
    },
    {
      "time": 65.7,
      "duration": 0.25,
      "midi": 31,
      "noteNumber": 31,
      "velocity": 0.87,
      "track": "Left Hand",
      "channel": 1,
      "lane": "D"
    },
    {
      "time": 65.7,
      "duration": 0.25,
      "midi": 43,
      "noteNumber": 43,
      "velocity": 0.87,
      "track": "Left Hand",
      "channel": 1,
      "lane": "F"
    },
    {
      "time": 66,
      "duration": 0.147,
      "midi": 31,
      "noteNumber": 31,
      "velocity": 0.87,
      "track": "Left Hand",
      "channel": 1,
      "lane": "D"
    },
    {
      "time": 66,
      "duration": 0.147,
      "midi": 43,
      "noteNumber": 43,
      "velocity": 0.87,
      "track": "Left Hand",
      "channel": 1,
      "lane": "F"
    },
    {
      "time": 66.15,
      "duration": 0.147,
      "midi": 31,
      "noteNumber": 31,
      "velocity": 0.87,
      "track": "Left Hand",
      "channel": 1,
      "lane": "D"
    },
    {
      "time": 66.15,
      "duration": 0.147,
      "midi": 43,
      "noteNumber": 43,
      "velocity": 0.87,
      "track": "Left Hand",
      "channel": 1,
      "lane": "F"
    },
    {
      "time": 66.3,
      "duration": 0.147,
      "midi": 31,
      "noteNumber": 31,
      "velocity": 0.87,
      "track": "Left Hand",
      "channel": 1,
      "lane": "D"
    },
    {
      "time": 66.3,
      "duration": 0.147,
      "midi": 43,
      "noteNumber": 43,
      "velocity": 0.87,
      "track": "Left Hand",
      "channel": 1,
      "lane": "F"
    },
    {
      "time": 66.45,
      "duration": 0.147,
      "midi": 31,
      "noteNumber": 31,
      "velocity": 0.87,
      "track": "Left Hand",
      "channel": 1,
      "lane": "D"
    },
    {
      "time": 66.45,
      "duration": 0.147,
      "midi": 43,
      "noteNumber": 43,
      "velocity": 0.87,
      "track": "Left Hand",
      "channel": 1,
      "lane": "F"
    },
    {
      "time": 66.6,
      "duration": 0.25,
      "midi": 69,
      "noteNumber": 69,
      "velocity": 0.87,
      "track": "Right Hand",
      "channel": 0,
      "lane": "J"
    },
    {
      "time": 66.6,
      "duration": 0.25,
      "midi": 74,
      "noteNumber": 74,
      "velocity": 0.87,
      "track": "Right Hand",
      "channel": 0,
      "lane": "K"
    },
    {
      "time": 66.6,
      "duration": 0.25,
      "midi": 77,
      "noteNumber": 77,
      "velocity": 0.87,
      "track": "Right Hand",
      "channel": 0,
      "lane": "K"
    },
    {
      "time": 66.6,
      "duration": 0.25,
      "midi": 33,
      "noteNumber": 33,
      "velocity": 0.87,
      "track": "Left Hand",
      "channel": 1,
      "lane": "D"
    },
    {
      "time": 66.6,
      "duration": 0.25,
      "midi": 45,
      "noteNumber": 45,
      "velocity": 0.87,
      "track": "Left Hand",
      "channel": 1,
      "lane": "F"
    },
    {
      "time": 66.9,
      "duration": 0.147,
      "midi": 33,
      "noteNumber": 33,
      "velocity": 0.87,
      "track": "Left Hand",
      "channel": 1,
      "lane": "D"
    },
    {
      "time": 66.9,
      "duration": 0.147,
      "midi": 45,
      "noteNumber": 45,
      "velocity": 0.87,
      "track": "Left Hand",
      "channel": 1,
      "lane": "F"
    },
    {
      "time": 67.05,
      "duration": 0.147,
      "midi": 33,
      "noteNumber": 33,
      "velocity": 0.87,
      "track": "Left Hand",
      "channel": 1,
      "lane": "D"
    },
    {
      "time": 67.05,
      "duration": 0.147,
      "midi": 45,
      "noteNumber": 45,
      "velocity": 0.87,
      "track": "Left Hand",
      "channel": 1,
      "lane": "F"
    },
    {
      "time": 67.2,
      "duration": 0.147,
      "midi": 33,
      "noteNumber": 33,
      "velocity": 0.87,
      "track": "Left Hand",
      "channel": 1,
      "lane": "D"
    },
    {
      "time": 67.2,
      "duration": 0.147,
      "midi": 45,
      "noteNumber": 45,
      "velocity": 0.87,
      "track": "Left Hand",
      "channel": 1,
      "lane": "F"
    },
    {
      "time": 67.35,
      "duration": 0.147,
      "midi": 33,
      "noteNumber": 33,
      "velocity": 0.87,
      "track": "Left Hand",
      "channel": 1,
      "lane": "D"
    },
    {
      "time": 67.35,
      "duration": 0.147,
      "midi": 45,
      "noteNumber": 45,
      "velocity": 0.87,
      "track": "Left Hand",
      "channel": 1,
      "lane": "F"
    },
    {
      "time": 67.5,
      "duration": 0.25,
      "midi": 69,
      "noteNumber": 69,
      "velocity": 0.87,
      "track": "Right Hand",
      "channel": 0,
      "lane": "J"
    },
    {
      "time": 67.5,
      "duration": 0.25,
      "midi": 77,
      "noteNumber": 77,
      "velocity": 0.87,
      "track": "Right Hand",
      "channel": 0,
      "lane": "K"
    },
    {
      "time": 67.5,
      "duration": 0.25,
      "midi": 33,
      "noteNumber": 33,
      "velocity": 0.87,
      "track": "Left Hand",
      "channel": 1,
      "lane": "D"
    },
    {
      "time": 67.5,
      "duration": 0.25,
      "midi": 45,
      "noteNumber": 45,
      "velocity": 0.87,
      "track": "Left Hand",
      "channel": 1,
      "lane": "F"
    },
    {
      "time": 67.8,
      "duration": 0.25,
      "midi": 69,
      "noteNumber": 69,
      "velocity": 0.87,
      "track": "Right Hand",
      "channel": 0,
      "lane": "J"
    },
    {
      "time": 67.8,
      "duration": 0.25,
      "midi": 79,
      "noteNumber": 79,
      "velocity": 0.87,
      "track": "Right Hand",
      "channel": 0,
      "lane": "K"
    },
    {
      "time": 67.8,
      "duration": 0.147,
      "midi": 33,
      "noteNumber": 33,
      "velocity": 0.87,
      "track": "Left Hand",
      "channel": 1,
      "lane": "D"
    },
    {
      "time": 67.8,
      "duration": 0.147,
      "midi": 45,
      "noteNumber": 45,
      "velocity": 0.87,
      "track": "Left Hand",
      "channel": 1,
      "lane": "F"
    },
    {
      "time": 67.95,
      "duration": 0.147,
      "midi": 33,
      "noteNumber": 33,
      "velocity": 0.87,
      "track": "Left Hand",
      "channel": 1,
      "lane": "D"
    },
    {
      "time": 67.95,
      "duration": 0.147,
      "midi": 45,
      "noteNumber": 45,
      "velocity": 0.87,
      "track": "Left Hand",
      "channel": 1,
      "lane": "F"
    },
    {
      "time": 68.1,
      "duration": 0.25,
      "midi": 69,
      "noteNumber": 69,
      "velocity": 0.87,
      "track": "Right Hand",
      "channel": 0,
      "lane": "J"
    },
    {
      "time": 68.1,
      "duration": 0.25,
      "midi": 76,
      "noteNumber": 76,
      "velocity": 0.87,
      "track": "Right Hand",
      "channel": 0,
      "lane": "K"
    },
    {
      "time": 68.1,
      "duration": 0.147,
      "midi": 33,
      "noteNumber": 33,
      "velocity": 0.87,
      "track": "Left Hand",
      "channel": 1,
      "lane": "D"
    },
    {
      "time": 68.1,
      "duration": 0.147,
      "midi": 45,
      "noteNumber": 45,
      "velocity": 0.87,
      "track": "Left Hand",
      "channel": 1,
      "lane": "F"
    },
    {
      "time": 68.25,
      "duration": 0.147,
      "midi": 33,
      "noteNumber": 33,
      "velocity": 0.87,
      "track": "Left Hand",
      "channel": 1,
      "lane": "D"
    },
    {
      "time": 68.25,
      "duration": 0.147,
      "midi": 45,
      "noteNumber": 45,
      "velocity": 0.87,
      "track": "Left Hand",
      "channel": 1,
      "lane": "F"
    },
    {
      "time": 68.4,
      "duration": 0.4,
      "midi": 65,
      "noteNumber": 65,
      "velocity": 0.87,
      "track": "Right Hand",
      "channel": 0,
      "lane": "J"
    },
    {
      "time": 68.4,
      "duration": 0.4,
      "midi": 69,
      "noteNumber": 69,
      "velocity": 0.87,
      "track": "Right Hand",
      "channel": 0,
      "lane": "J"
    },
    {
      "time": 68.4,
      "duration": 0.4,
      "midi": 74,
      "noteNumber": 74,
      "velocity": 0.87,
      "track": "Right Hand",
      "channel": 0,
      "lane": "K"
    },
    {
      "time": 68.4,
      "duration": 0.25,
      "midi": 38,
      "noteNumber": 38,
      "velocity": 0.87,
      "track": "Left Hand",
      "channel": 1,
      "lane": "D"
    },
    {
      "time": 68.4,
      "duration": 0.25,
      "midi": 50,
      "noteNumber": 50,
      "velocity": 0.87,
      "track": "Left Hand",
      "channel": 1,
      "lane": "F"
    },
    {
      "time": 68.7,
      "duration": 0.147,
      "midi": 38,
      "noteNumber": 38,
      "velocity": 0.87,
      "track": "Left Hand",
      "channel": 1,
      "lane": "D"
    },
    {
      "time": 68.7,
      "duration": 0.147,
      "midi": 50,
      "noteNumber": 50,
      "velocity": 0.87,
      "track": "Left Hand",
      "channel": 1,
      "lane": "F"
    },
    {
      "time": 68.85,
      "duration": 0.147,
      "midi": 74,
      "noteNumber": 74,
      "velocity": 0.87,
      "track": "Right Hand",
      "channel": 0,
      "lane": "K"
    },
    {
      "time": 68.85,
      "duration": 0.147,
      "midi": 38,
      "noteNumber": 38,
      "velocity": 0.87,
      "track": "Left Hand",
      "channel": 1,
      "lane": "D"
    },
    {
      "time": 68.85,
      "duration": 0.147,
      "midi": 50,
      "noteNumber": 50,
      "velocity": 0.87,
      "track": "Left Hand",
      "channel": 1,
      "lane": "F"
    },
    {
      "time": 69,
      "duration": 0.147,
      "midi": 76,
      "noteNumber": 76,
      "velocity": 0.87,
      "track": "Right Hand",
      "channel": 0,
      "lane": "K"
    },
    {
      "time": 69,
      "duration": 0.147,
      "midi": 38,
      "noteNumber": 38,
      "velocity": 0.87,
      "track": "Left Hand",
      "channel": 1,
      "lane": "D"
    },
    {
      "time": 69,
      "duration": 0.147,
      "midi": 50,
      "noteNumber": 50,
      "velocity": 0.87,
      "track": "Left Hand",
      "channel": 1,
      "lane": "F"
    },
    {
      "time": 69.15,
      "duration": 0.147,
      "midi": 77,
      "noteNumber": 77,
      "velocity": 0.87,
      "track": "Right Hand",
      "channel": 0,
      "lane": "K"
    },
    {
      "time": 69.15,
      "duration": 0.147,
      "midi": 38,
      "noteNumber": 38,
      "velocity": 0.87,
      "track": "Left Hand",
      "channel": 1,
      "lane": "D"
    },
    {
      "time": 69.15,
      "duration": 0.147,
      "midi": 50,
      "noteNumber": 50,
      "velocity": 0.87,
      "track": "Left Hand",
      "channel": 1,
      "lane": "F"
    },
    {
      "time": 69.3,
      "duration": 0.4,
      "midi": 74,
      "noteNumber": 74,
      "velocity": 0.87,
      "track": "Right Hand",
      "channel": 0,
      "lane": "K"
    },
    {
      "time": 69.3,
      "duration": 0.4,
      "midi": 77,
      "noteNumber": 77,
      "velocity": 0.87,
      "track": "Right Hand",
      "channel": 0,
      "lane": "K"
    },
    {
      "time": 69.3,
      "duration": 0.4,
      "midi": 81,
      "noteNumber": 81,
      "velocity": 0.87,
      "track": "Right Hand",
      "channel": 0,
      "lane": "K"
    },
    {
      "time": 69.3,
      "duration": 0.25,
      "midi": 38,
      "noteNumber": 38,
      "velocity": 0.87,
      "track": "Left Hand",
      "channel": 1,
      "lane": "D"
    },
    {
      "time": 69.3,
      "duration": 0.25,
      "midi": 50,
      "noteNumber": 50,
      "velocity": 0.87,
      "track": "Left Hand",
      "channel": 1,
      "lane": "F"
    },
    {
      "time": 69.6,
      "duration": 0.147,
      "midi": 38,
      "noteNumber": 38,
      "velocity": 0.87,
      "track": "Left Hand",
      "channel": 1,
      "lane": "D"
    },
    {
      "time": 69.6,
      "duration": 0.147,
      "midi": 50,
      "noteNumber": 50,
      "velocity": 0.87,
      "track": "Left Hand",
      "channel": 1,
      "lane": "F"
    },
    {
      "time": 69.75,
      "duration": 0.147,
      "midi": 74,
      "noteNumber": 74,
      "velocity": 0.87,
      "track": "Right Hand",
      "channel": 0,
      "lane": "K"
    },
    {
      "time": 69.75,
      "duration": 0.147,
      "midi": 38,
      "noteNumber": 38,
      "velocity": 0.87,
      "track": "Left Hand",
      "channel": 1,
      "lane": "D"
    },
    {
      "time": 69.75,
      "duration": 0.147,
      "midi": 50,
      "noteNumber": 50,
      "velocity": 0.87,
      "track": "Left Hand",
      "channel": 1,
      "lane": "F"
    },
    {
      "time": 69.9,
      "duration": 0.147,
      "midi": 76,
      "noteNumber": 76,
      "velocity": 0.87,
      "track": "Right Hand",
      "channel": 0,
      "lane": "K"
    },
    {
      "time": 69.9,
      "duration": 0.147,
      "midi": 38,
      "noteNumber": 38,
      "velocity": 0.87,
      "track": "Left Hand",
      "channel": 1,
      "lane": "D"
    },
    {
      "time": 69.9,
      "duration": 0.147,
      "midi": 50,
      "noteNumber": 50,
      "velocity": 0.87,
      "track": "Left Hand",
      "channel": 1,
      "lane": "F"
    },
    {
      "time": 70.05,
      "duration": 0.147,
      "midi": 77,
      "noteNumber": 77,
      "velocity": 0.87,
      "track": "Right Hand",
      "channel": 0,
      "lane": "K"
    },
    {
      "time": 70.05,
      "duration": 0.147,
      "midi": 38,
      "noteNumber": 38,
      "velocity": 0.87,
      "track": "Left Hand",
      "channel": 1,
      "lane": "D"
    },
    {
      "time": 70.05,
      "duration": 0.147,
      "midi": 50,
      "noteNumber": 50,
      "velocity": 0.87,
      "track": "Left Hand",
      "channel": 1,
      "lane": "F"
    },
    {
      "time": 70.2,
      "duration": 0.4,
      "midi": 74,
      "noteNumber": 74,
      "velocity": 0.87,
      "track": "Right Hand",
      "channel": 0,
      "lane": "K"
    },
    {
      "time": 70.2,
      "duration": 0.4,
      "midi": 77,
      "noteNumber": 77,
      "velocity": 0.87,
      "track": "Right Hand",
      "channel": 0,
      "lane": "K"
    },
    {
      "time": 70.2,
      "duration": 0.4,
      "midi": 82,
      "noteNumber": 82,
      "velocity": 0.87,
      "track": "Right Hand",
      "channel": 0,
      "lane": "K"
    },
    {
      "time": 70.2,
      "duration": 0.25,
      "midi": 34,
      "noteNumber": 34,
      "velocity": 0.87,
      "track": "Left Hand",
      "channel": 1,
      "lane": "D"
    },
    {
      "time": 70.2,
      "duration": 0.25,
      "midi": 46,
      "noteNumber": 46,
      "velocity": 0.87,
      "track": "Left Hand",
      "channel": 1,
      "lane": "F"
    },
    {
      "time": 70.5,
      "duration": 0.147,
      "midi": 34,
      "noteNumber": 34,
      "velocity": 0.87,
      "track": "Left Hand",
      "channel": 1,
      "lane": "D"
    },
    {
      "time": 70.5,
      "duration": 0.147,
      "midi": 46,
      "noteNumber": 46,
      "velocity": 0.87,
      "track": "Left Hand",
      "channel": 1,
      "lane": "F"
    },
    {
      "time": 70.65,
      "duration": 0.147,
      "midi": 74,
      "noteNumber": 74,
      "velocity": 0.87,
      "track": "Right Hand",
      "channel": 0,
      "lane": "K"
    },
    {
      "time": 70.65,
      "duration": 0.147,
      "midi": 34,
      "noteNumber": 34,
      "velocity": 0.87,
      "track": "Left Hand",
      "channel": 1,
      "lane": "D"
    },
    {
      "time": 70.65,
      "duration": 0.147,
      "midi": 46,
      "noteNumber": 46,
      "velocity": 0.87,
      "track": "Left Hand",
      "channel": 1,
      "lane": "F"
    },
    {
      "time": 70.8,
      "duration": 0.147,
      "midi": 76,
      "noteNumber": 76,
      "velocity": 0.87,
      "track": "Right Hand",
      "channel": 0,
      "lane": "K"
    },
    {
      "time": 70.8,
      "duration": 0.147,
      "midi": 34,
      "noteNumber": 34,
      "velocity": 0.87,
      "track": "Left Hand",
      "channel": 1,
      "lane": "D"
    },
    {
      "time": 70.8,
      "duration": 0.147,
      "midi": 46,
      "noteNumber": 46,
      "velocity": 0.87,
      "track": "Left Hand",
      "channel": 1,
      "lane": "F"
    },
    {
      "time": 70.95,
      "duration": 0.147,
      "midi": 77,
      "noteNumber": 77,
      "velocity": 0.87,
      "track": "Right Hand",
      "channel": 0,
      "lane": "K"
    },
    {
      "time": 70.95,
      "duration": 0.147,
      "midi": 34,
      "noteNumber": 34,
      "velocity": 0.87,
      "track": "Left Hand",
      "channel": 1,
      "lane": "D"
    },
    {
      "time": 70.95,
      "duration": 0.147,
      "midi": 46,
      "noteNumber": 46,
      "velocity": 0.87,
      "track": "Left Hand",
      "channel": 1,
      "lane": "F"
    },
    {
      "time": 71.1,
      "duration": 0.25,
      "midi": 72,
      "noteNumber": 72,
      "velocity": 0.87,
      "track": "Right Hand",
      "channel": 0,
      "lane": "K"
    },
    {
      "time": 71.1,
      "duration": 0.25,
      "midi": 77,
      "noteNumber": 77,
      "velocity": 0.87,
      "track": "Right Hand",
      "channel": 0,
      "lane": "K"
    },
    {
      "time": 71.1,
      "duration": 0.25,
      "midi": 81,
      "noteNumber": 81,
      "velocity": 0.87,
      "track": "Right Hand",
      "channel": 0,
      "lane": "K"
    },
    {
      "time": 71.1,
      "duration": 0.25,
      "midi": 41,
      "noteNumber": 41,
      "velocity": 0.87,
      "track": "Left Hand",
      "channel": 1,
      "lane": "F"
    },
    {
      "time": 71.1,
      "duration": 0.25,
      "midi": 53,
      "noteNumber": 53,
      "velocity": 0.87,
      "track": "Left Hand",
      "channel": 1,
      "lane": "F"
    },
    {
      "time": 71.4,
      "duration": 0.25,
      "midi": 72,
      "noteNumber": 72,
      "velocity": 0.87,
      "track": "Right Hand",
      "channel": 0,
      "lane": "K"
    },
    {
      "time": 71.4,
      "duration": 0.25,
      "midi": 77,
      "noteNumber": 77,
      "velocity": 0.87,
      "track": "Right Hand",
      "channel": 0,
      "lane": "K"
    },
    {
      "time": 71.4,
      "duration": 0.25,
      "midi": 81,
      "noteNumber": 81,
      "velocity": 0.87,
      "track": "Right Hand",
      "channel": 0,
      "lane": "K"
    },
    {
      "time": 71.4,
      "duration": 0.147,
      "midi": 41,
      "noteNumber": 41,
      "velocity": 0.87,
      "track": "Left Hand",
      "channel": 1,
      "lane": "F"
    },
    {
      "time": 71.4,
      "duration": 0.147,
      "midi": 53,
      "noteNumber": 53,
      "velocity": 0.87,
      "track": "Left Hand",
      "channel": 1,
      "lane": "F"
    },
    {
      "time": 71.55,
      "duration": 0.147,
      "midi": 41,
      "noteNumber": 41,
      "velocity": 0.87,
      "track": "Left Hand",
      "channel": 1,
      "lane": "F"
    },
    {
      "time": 71.55,
      "duration": 0.147,
      "midi": 53,
      "noteNumber": 53,
      "velocity": 0.87,
      "track": "Left Hand",
      "channel": 1,
      "lane": "F"
    },
    {
      "time": 71.7,
      "duration": 0.25,
      "midi": 77,
      "noteNumber": 77,
      "velocity": 0.87,
      "track": "Right Hand",
      "channel": 0,
      "lane": "K"
    },
    {
      "time": 71.7,
      "duration": 0.25,
      "midi": 84,
      "noteNumber": 84,
      "velocity": 0.87,
      "track": "Right Hand",
      "channel": 0,
      "lane": "K"
    },
    {
      "time": 71.7,
      "duration": 0.147,
      "midi": 41,
      "noteNumber": 41,
      "velocity": 0.87,
      "track": "Left Hand",
      "channel": 1,
      "lane": "F"
    },
    {
      "time": 71.7,
      "duration": 0.147,
      "midi": 53,
      "noteNumber": 53,
      "velocity": 0.87,
      "track": "Left Hand",
      "channel": 1,
      "lane": "F"
    },
    {
      "time": 71.85,
      "duration": 0.147,
      "midi": 41,
      "noteNumber": 41,
      "velocity": 0.87,
      "track": "Left Hand",
      "channel": 1,
      "lane": "F"
    },
    {
      "time": 71.85,
      "duration": 0.147,
      "midi": 53,
      "noteNumber": 53,
      "velocity": 0.87,
      "track": "Left Hand",
      "channel": 1,
      "lane": "F"
    },
    {
      "time": 72,
      "duration": 0.147,
      "midi": 72,
      "noteNumber": 72,
      "velocity": 0.87,
      "track": "Right Hand",
      "channel": 0,
      "lane": "K"
    },
    {
      "time": 72,
      "duration": 0.147,
      "midi": 76,
      "noteNumber": 76,
      "velocity": 0.87,
      "track": "Right Hand",
      "channel": 0,
      "lane": "K"
    },
    {
      "time": 72,
      "duration": 0.147,
      "midi": 81,
      "noteNumber": 81,
      "velocity": 0.87,
      "track": "Right Hand",
      "channel": 0,
      "lane": "K"
    },
    {
      "time": 72,
      "duration": 0.25,
      "midi": 36,
      "noteNumber": 36,
      "velocity": 0.87,
      "track": "Left Hand",
      "channel": 1,
      "lane": "D"
    },
    {
      "time": 72,
      "duration": 0.25,
      "midi": 48,
      "noteNumber": 48,
      "velocity": 0.87,
      "track": "Left Hand",
      "channel": 1,
      "lane": "F"
    },
    {
      "time": 72.15,
      "duration": 0.147,
      "midi": 79,
      "noteNumber": 79,
      "velocity": 0.87,
      "track": "Right Hand",
      "channel": 0,
      "lane": "K"
    },
    {
      "time": 72.3,
      "duration": 0.147,
      "midi": 36,
      "noteNumber": 36,
      "velocity": 0.87,
      "track": "Left Hand",
      "channel": 1,
      "lane": "D"
    },
    {
      "time": 72.3,
      "duration": 0.147,
      "midi": 48,
      "noteNumber": 48,
      "velocity": 0.87,
      "track": "Left Hand",
      "channel": 1,
      "lane": "F"
    },
    {
      "time": 72.45,
      "duration": 0.147,
      "midi": 36,
      "noteNumber": 36,
      "velocity": 0.87,
      "track": "Left Hand",
      "channel": 1,
      "lane": "D"
    },
    {
      "time": 72.45,
      "duration": 0.147,
      "midi": 48,
      "noteNumber": 48,
      "velocity": 0.87,
      "track": "Left Hand",
      "channel": 1,
      "lane": "F"
    },
    {
      "time": 72.6,
      "duration": 0.147,
      "midi": 36,
      "noteNumber": 36,
      "velocity": 0.87,
      "track": "Left Hand",
      "channel": 1,
      "lane": "D"
    },
    {
      "time": 72.6,
      "duration": 0.147,
      "midi": 48,
      "noteNumber": 48,
      "velocity": 0.87,
      "track": "Left Hand",
      "channel": 1,
      "lane": "F"
    },
    {
      "time": 72.75,
      "duration": 0.147,
      "midi": 36,
      "noteNumber": 36,
      "velocity": 0.87,
      "track": "Left Hand",
      "channel": 1,
      "lane": "D"
    },
    {
      "time": 72.75,
      "duration": 0.147,
      "midi": 48,
      "noteNumber": 48,
      "velocity": 0.87,
      "track": "Left Hand",
      "channel": 1,
      "lane": "F"
    },
    {
      "time": 72.9,
      "duration": 0.25,
      "midi": 70,
      "noteNumber": 70,
      "velocity": 0.87,
      "track": "Right Hand",
      "channel": 0,
      "lane": "K"
    },
    {
      "time": 72.9,
      "duration": 0.25,
      "midi": 74,
      "noteNumber": 74,
      "velocity": 0.87,
      "track": "Right Hand",
      "channel": 0,
      "lane": "K"
    },
    {
      "time": 72.9,
      "duration": 0.25,
      "midi": 79,
      "noteNumber": 79,
      "velocity": 0.87,
      "track": "Right Hand",
      "channel": 0,
      "lane": "K"
    },
    {
      "time": 72.9,
      "duration": 0.25,
      "midi": 31,
      "noteNumber": 31,
      "velocity": 0.87,
      "track": "Left Hand",
      "channel": 1,
      "lane": "D"
    },
    {
      "time": 72.9,
      "duration": 0.25,
      "midi": 43,
      "noteNumber": 43,
      "velocity": 0.87,
      "track": "Left Hand",
      "channel": 1,
      "lane": "F"
    },
    {
      "time": 73.2,
      "duration": 0.147,
      "midi": 31,
      "noteNumber": 31,
      "velocity": 0.87,
      "track": "Left Hand",
      "channel": 1,
      "lane": "D"
    },
    {
      "time": 73.2,
      "duration": 0.147,
      "midi": 43,
      "noteNumber": 43,
      "velocity": 0.87,
      "track": "Left Hand",
      "channel": 1,
      "lane": "F"
    },
    {
      "time": 73.35,
      "duration": 0.147,
      "midi": 31,
      "noteNumber": 31,
      "velocity": 0.87,
      "track": "Left Hand",
      "channel": 1,
      "lane": "D"
    },
    {
      "time": 73.35,
      "duration": 0.147,
      "midi": 43,
      "noteNumber": 43,
      "velocity": 0.87,
      "track": "Left Hand",
      "channel": 1,
      "lane": "F"
    },
    {
      "time": 73.5,
      "duration": 0.147,
      "midi": 31,
      "noteNumber": 31,
      "velocity": 0.87,
      "track": "Left Hand",
      "channel": 1,
      "lane": "D"
    },
    {
      "time": 73.5,
      "duration": 0.147,
      "midi": 43,
      "noteNumber": 43,
      "velocity": 0.87,
      "track": "Left Hand",
      "channel": 1,
      "lane": "F"
    },
    {
      "time": 73.65,
      "duration": 0.147,
      "midi": 31,
      "noteNumber": 31,
      "velocity": 0.87,
      "track": "Left Hand",
      "channel": 1,
      "lane": "D"
    },
    {
      "time": 73.65,
      "duration": 0.147,
      "midi": 43,
      "noteNumber": 43,
      "velocity": 0.87,
      "track": "Left Hand",
      "channel": 1,
      "lane": "F"
    },
    {
      "time": 73.8,
      "duration": 0.25,
      "midi": 69,
      "noteNumber": 69,
      "velocity": 0.87,
      "track": "Right Hand",
      "channel": 0,
      "lane": "J"
    },
    {
      "time": 73.8,
      "duration": 0.25,
      "midi": 74,
      "noteNumber": 74,
      "velocity": 0.87,
      "track": "Right Hand",
      "channel": 0,
      "lane": "K"
    },
    {
      "time": 73.8,
      "duration": 0.25,
      "midi": 77,
      "noteNumber": 77,
      "velocity": 0.87,
      "track": "Right Hand",
      "channel": 0,
      "lane": "K"
    },
    {
      "time": 73.8,
      "duration": 0.25,
      "midi": 33,
      "noteNumber": 33,
      "velocity": 0.87,
      "track": "Left Hand",
      "channel": 1,
      "lane": "D"
    },
    {
      "time": 73.8,
      "duration": 0.25,
      "midi": 45,
      "noteNumber": 45,
      "velocity": 0.87,
      "track": "Left Hand",
      "channel": 1,
      "lane": "F"
    },
    {
      "time": 74.1,
      "duration": 0.147,
      "midi": 33,
      "noteNumber": 33,
      "velocity": 0.87,
      "track": "Left Hand",
      "channel": 1,
      "lane": "D"
    },
    {
      "time": 74.1,
      "duration": 0.147,
      "midi": 45,
      "noteNumber": 45,
      "velocity": 0.87,
      "track": "Left Hand",
      "channel": 1,
      "lane": "F"
    },
    {
      "time": 74.25,
      "duration": 0.147,
      "midi": 33,
      "noteNumber": 33,
      "velocity": 0.87,
      "track": "Left Hand",
      "channel": 1,
      "lane": "D"
    },
    {
      "time": 74.25,
      "duration": 0.147,
      "midi": 45,
      "noteNumber": 45,
      "velocity": 0.87,
      "track": "Left Hand",
      "channel": 1,
      "lane": "F"
    },
    {
      "time": 74.4,
      "duration": 0.147,
      "midi": 33,
      "noteNumber": 33,
      "velocity": 0.87,
      "track": "Left Hand",
      "channel": 1,
      "lane": "D"
    },
    {
      "time": 74.4,
      "duration": 0.147,
      "midi": 45,
      "noteNumber": 45,
      "velocity": 0.87,
      "track": "Left Hand",
      "channel": 1,
      "lane": "F"
    },
    {
      "time": 74.55,
      "duration": 0.147,
      "midi": 33,
      "noteNumber": 33,
      "velocity": 0.87,
      "track": "Left Hand",
      "channel": 1,
      "lane": "D"
    },
    {
      "time": 74.55,
      "duration": 0.147,
      "midi": 45,
      "noteNumber": 45,
      "velocity": 0.87,
      "track": "Left Hand",
      "channel": 1,
      "lane": "F"
    },
    {
      "time": 74.7,
      "duration": 0.25,
      "midi": 69,
      "noteNumber": 69,
      "velocity": 0.87,
      "track": "Right Hand",
      "channel": 0,
      "lane": "J"
    },
    {
      "time": 74.7,
      "duration": 0.25,
      "midi": 77,
      "noteNumber": 77,
      "velocity": 0.87,
      "track": "Right Hand",
      "channel": 0,
      "lane": "K"
    },
    {
      "time": 74.7,
      "duration": 0.25,
      "midi": 33,
      "noteNumber": 33,
      "velocity": 0.87,
      "track": "Left Hand",
      "channel": 1,
      "lane": "D"
    },
    {
      "time": 74.7,
      "duration": 0.25,
      "midi": 45,
      "noteNumber": 45,
      "velocity": 0.87,
      "track": "Left Hand",
      "channel": 1,
      "lane": "F"
    },
    {
      "time": 75,
      "duration": 0.25,
      "midi": 69,
      "noteNumber": 69,
      "velocity": 0.87,
      "track": "Right Hand",
      "channel": 0,
      "lane": "J"
    },
    {
      "time": 75,
      "duration": 0.25,
      "midi": 79,
      "noteNumber": 79,
      "velocity": 0.87,
      "track": "Right Hand",
      "channel": 0,
      "lane": "K"
    },
    {
      "time": 75,
      "duration": 0.147,
      "midi": 33,
      "noteNumber": 33,
      "velocity": 0.87,
      "track": "Left Hand",
      "channel": 1,
      "lane": "D"
    },
    {
      "time": 75,
      "duration": 0.147,
      "midi": 45,
      "noteNumber": 45,
      "velocity": 0.87,
      "track": "Left Hand",
      "channel": 1,
      "lane": "F"
    },
    {
      "time": 75.15,
      "duration": 0.147,
      "midi": 33,
      "noteNumber": 33,
      "velocity": 0.87,
      "track": "Left Hand",
      "channel": 1,
      "lane": "D"
    },
    {
      "time": 75.15,
      "duration": 0.147,
      "midi": 45,
      "noteNumber": 45,
      "velocity": 0.87,
      "track": "Left Hand",
      "channel": 1,
      "lane": "F"
    },
    {
      "time": 75.3,
      "duration": 0.25,
      "midi": 69,
      "noteNumber": 69,
      "velocity": 0.87,
      "track": "Right Hand",
      "channel": 0,
      "lane": "J"
    },
    {
      "time": 75.3,
      "duration": 0.25,
      "midi": 76,
      "noteNumber": 76,
      "velocity": 0.87,
      "track": "Right Hand",
      "channel": 0,
      "lane": "K"
    },
    {
      "time": 75.3,
      "duration": 0.147,
      "midi": 33,
      "noteNumber": 33,
      "velocity": 0.87,
      "track": "Left Hand",
      "channel": 1,
      "lane": "D"
    },
    {
      "time": 75.3,
      "duration": 0.147,
      "midi": 45,
      "noteNumber": 45,
      "velocity": 0.87,
      "track": "Left Hand",
      "channel": 1,
      "lane": "F"
    },
    {
      "time": 75.45,
      "duration": 0.147,
      "midi": 33,
      "noteNumber": 33,
      "velocity": 0.87,
      "track": "Left Hand",
      "channel": 1,
      "lane": "D"
    },
    {
      "time": 75.45,
      "duration": 0.147,
      "midi": 45,
      "noteNumber": 45,
      "velocity": 0.87,
      "track": "Left Hand",
      "channel": 1,
      "lane": "F"
    },
    {
      "time": 75.6,
      "duration": 0.4,
      "midi": 65,
      "noteNumber": 65,
      "velocity": 0.87,
      "track": "Right Hand",
      "channel": 0,
      "lane": "J"
    },
    {
      "time": 75.6,
      "duration": 0.4,
      "midi": 69,
      "noteNumber": 69,
      "velocity": 0.87,
      "track": "Right Hand",
      "channel": 0,
      "lane": "J"
    },
    {
      "time": 75.6,
      "duration": 0.4,
      "midi": 74,
      "noteNumber": 74,
      "velocity": 0.87,
      "track": "Right Hand",
      "channel": 0,
      "lane": "K"
    },
    {
      "time": 75.6,
      "duration": 0.4,
      "midi": 38,
      "noteNumber": 38,
      "velocity": 0.87,
      "track": "Left Hand",
      "channel": 1,
      "lane": "D"
    },
    {
      "time": 75.6,
      "duration": 0.4,
      "midi": 50,
      "noteNumber": 50,
      "velocity": 0.87,
      "track": "Left Hand",
      "channel": 1,
      "lane": "F"
    },
    {
      "time": 76.05,
      "duration": 0.147,
      "midi": 38,
      "noteNumber": 38,
      "velocity": 0.87,
      "track": "Left Hand",
      "channel": 1,
      "lane": "D"
    },
    {
      "time": 76.05,
      "duration": 0.147,
      "midi": 50,
      "noteNumber": 50,
      "velocity": 0.87,
      "track": "Left Hand",
      "channel": 1,
      "lane": "F"
    },
    {
      "time": 76.2,
      "duration": 0.147,
      "midi": 38,
      "noteNumber": 38,
      "velocity": 0.87,
      "track": "Left Hand",
      "channel": 1,
      "lane": "D"
    },
    {
      "time": 76.2,
      "duration": 0.147,
      "midi": 50,
      "noteNumber": 50,
      "velocity": 0.87,
      "track": "Left Hand",
      "channel": 1,
      "lane": "F"
    },
    {
      "time": 76.35,
      "duration": 0.147,
      "midi": 38,
      "noteNumber": 38,
      "velocity": 0.87,
      "track": "Left Hand",
      "channel": 1,
      "lane": "D"
    },
    {
      "time": 76.35,
      "duration": 0.147,
      "midi": 50,
      "noteNumber": 50,
      "velocity": 0.87,
      "track": "Left Hand",
      "channel": 1,
      "lane": "F"
    },
    {
      "time": 76.5,
      "duration": 1.125,
      "midi": 62,
      "noteNumber": 62,
      "velocity": 0.87,
      "track": "Right Hand",
      "channel": 0,
      "lane": "J"
    },
    {
      "time": 76.5,
      "duration": 1.125,
      "midi": 26,
      "noteNumber": 26,
      "velocity": 0.87,
      "track": "Left Hand",
      "channel": 1,
      "lane": "D"
    },
    {
      "time": 76.5,
      "duration": 1.125,
      "midi": 38,
      "noteNumber": 38,
      "velocity": 0.87,
      "track": "Left Hand",
      "channel": 1,
      "lane": "D"
    }
  ]
}