{
  "name": "Take-Five-1",
  "bpm": 167,
  "duration": 332.33,
  "ppq": 192,
  "totalNotes": 4966,
  "noteRange": {
    "min": 29,
    "max": 78
  },
  "tracks": [
    {
      "name": "(unnamed)",
      "instrument": "acoustic grand piano",
      "channel": 2,
      "noteCount": 2091
    },
    {
      "name": "(unnamed)",
      "instrument": "standard kit",
      "channel": 9,
      "noteCount": 1884
    },
    {
      "name": "(unnamed)",
      "instrument": "alto sax",
      "channel": 3,
      "noteCount": 466
    },
    {
      "name": "(unnamed)",
      "instrument": "acoustic bass",
      "channel": 1,
      "noteCount": 525
    }
  ],
  "notes": [
    {
      "time": 1.796,
      "duration": 0.007,
      "midi": 35,
      "noteNumber": 35,
      "velocity": 0.74,
      "track": "(unnamed)",
      "channel": 9,
      "lane": "D"
    },
    {
      "time": 1.796,
      "duration": 0.007,
      "midi": 51,
      "noteNumber": 51,
      "velocity": 0.72,
      "track": "(unnamed)",
      "channel": 9,
      "lane": "F"
    },
    {
      "time": 2.156,
      "duration": 0.007,
      "midi": 51,
      "noteNumber": 51,
      "velocity": 0.72,
      "track": "(unnamed)",
      "channel": 9,
      "lane": "F"
    },
    {
      "time": 2.395,
      "duration": 0.007,
      "midi": 40,
      "noteNumber": 40,
      "velocity": 0.53,
      "track": "(unnamed)",
      "channel": 9,
      "lane": "D"
    },
    {
      "time": 2.515,
      "duration": 0.007,
      "midi": 51,
      "noteNumber": 51,
      "velocity": 0.72,
      "track": "(unnamed)",
      "channel": 9,
      "lane": "F"
    },
    {
      "time": 2.754,
      "duration": 0.007,
      "midi": 51,
      "noteNumber": 51,
      "velocity": 0.61,
      "track": "(unnamed)",
      "channel": 9,
      "lane": "F"
    },
    {
      "time": 2.874,
      "duration": 0.007,
      "midi": 40,
      "noteNumber": 40,
      "velocity": 0.53,
      "track": "(unnamed)",
      "channel": 9,
      "lane": "D"
    },
    {
      "time": 2.874,
      "duration": 0.007,
      "midi": 51,
      "noteNumber": 51,
      "velocity": 0.69,
      "track": "(unnamed)",
      "channel": 9,
      "lane": "F"
    },
    {
      "time": 3.114,
      "duration": 0.007,
      "midi": 51,
      "noteNumber": 51,
      "velocity": 0.54,
      "track": "(unnamed)",
      "channel": 9,
      "lane": "F"
    },
    {
      "time": 3.234,
      "duration": 0.007,
      "midi": 51,
      "noteNumber": 51,
      "velocity": 0.83,
      "track": "(unnamed)",
      "channel": 9,
      "lane": "F"
    },
    {
      "time": 3.353,
      "duration": 0.007,
      "midi": 40,
      "noteNumber": 40,
      "velocity": 0.26,
      "track": "(unnamed)",
      "channel": 9,
      "lane": "D"
    },
    {
      "time": 3.473,
      "duration": 0.007,
      "midi": 40,
      "noteNumber": 40,
      "velocity": 0.5,
      "track": "(unnamed)",
      "channel": 9,
      "lane": "D"
    },
    {
      "time": 3.593,
      "duration": 0.007,
      "midi": 35,
      "noteNumber": 35,
      "velocity": 0.74,
      "track": "(unnamed)",
      "channel": 9,
      "lane": "D"
    },
    {
      "time": 3.593,
      "duration": 0.007,
      "midi": 51,
      "noteNumber": 51,
      "velocity": 0.72,
      "track": "(unnamed)",
      "channel": 9,
      "lane": "F"
    },
    {
      "time": 3.952,
      "duration": 0.007,
      "midi": 51,
      "noteNumber": 51,
      "velocity": 0.72,
      "track": "(unnamed)",
      "channel": 9,
      "lane": "F"
    },
    {
      "time": 4.192,
      "duration": 0.007,
      "midi": 40,
      "noteNumber": 40,
      "velocity": 0.53,
      "track": "(unnamed)",
      "channel": 9,
      "lane": "D"
    },
    {
      "time": 4.311,
      "duration": 0.007,
      "midi": 51,
      "noteNumber": 51,
      "velocity": 0.72,
      "track": "(unnamed)",
      "channel": 9,
      "lane": "F"
    },
    {
      "time": 4.551,
      "duration": 0.007,
      "midi": 51,
      "noteNumber": 51,
      "velocity": 0.61,
      "track": "(unnamed)",
      "channel": 9,
      "lane": "F"
    },
    {
      "time": 4.671,
      "duration": 0.007,
      "midi": 40,
      "noteNumber": 40,
      "velocity": 0.53,
      "track": "(unnamed)",
      "channel": 9,
      "lane": "D"
    },
    {
      "time": 4.671,
      "duration": 0.007,
      "midi": 51,
      "noteNumber": 51,
      "velocity": 0.69,
      "track": "(unnamed)",
      "channel": 9,
      "lane": "F"
    },
    {
      "time": 4.91,
      "duration": 0.007,
      "midi": 51,
      "noteNumber": 51,
      "velocity": 0.54,
      "track": "(unnamed)",
      "channel": 9,
      "lane": "F"
    },
    {
      "time": 5.03,
      "duration": 0.007,
      "midi": 51,
      "noteNumber": 51,
      "velocity": 0.83,
      "track": "(unnamed)",
      "channel": 9,
      "lane": "F"
    },
    {
      "time": 5.15,
      "duration": 0.007,
      "midi": 40,
      "noteNumber": 40,
      "velocity": 0.26,
      "track": "(unnamed)",
      "channel": 9,
      "lane": "D"
    },
    {
      "time": 5.269,
      "duration": 0.007,
      "midi": 40,
      "noteNumber": 40,
      "velocity": 0.5,
      "track": "(unnamed)",
      "channel": 9,
      "lane": "D"
    },
    {
      "time": 5.389,
      "duration": 0.007,
      "midi": 35,
      "noteNumber": 35,
      "velocity": 0.74,
      "track": "(unnamed)",
      "channel": 9,
      "lane": "D"
    },
    {
      "time": 5.389,
      "duration": 0.007,
      "midi": 51,
      "noteNumber": 51,
      "velocity": 0.72,
      "track": "(unnamed)",
      "channel": 9,
      "lane": "F"
    },
    {
      "time": 5.748,
      "duration": 0.007,
      "midi": 51,
      "noteNumber": 51,
      "velocity": 0.72,
      "track": "(unnamed)",
      "channel": 9,
      "lane": "F"
    },
    {
      "time": 5.988,
      "duration": 0.007,
      "midi": 40,
      "noteNumber": 40,
      "velocity": 0.53,
      "track": "(unnamed)",
      "channel": 9,
      "lane": "D"
    },
    {
      "time": 6.108,
      "duration": 0.007,
      "midi": 51,
      "noteNumber": 51,
      "velocity": 0.72,
      "track": "(unnamed)",
      "channel": 9,
      "lane": "F"
    },
    {
      "time": 6.347,
      "duration": 0.007,
      "midi": 51,
      "noteNumber": 51,
      "velocity": 0.61,
      "track": "(unnamed)",
      "channel": 9,
      "lane": "F"
    },
    {
      "time": 6.467,
      "duration": 0.007,
      "midi": 40,
      "noteNumber": 40,
      "velocity": 0.53,
      "track": "(unnamed)",
      "channel": 9,
      "lane": "D"
    },
    {
      "time": 6.467,
      "duration": 0.007,
      "midi": 51,
      "noteNumber": 51,
      "velocity": 0.69,
      "track": "(unnamed)",
      "channel": 9,
      "lane": "F"
    },
    {
      "time": 6.707,
      "duration": 0.007,
      "midi": 51,
      "noteNumber": 51,
      "velocity": 0.54,
      "track": "(unnamed)",
      "channel": 9,
      "lane": "F"
    },
    {
      "time": 6.826,
      "duration": 0.007,
      "midi": 51,
      "noteNumber": 51,
      "velocity": 0.83,
      "track": "(unnamed)",
      "channel": 9,
      "lane": "F"
    },
    {
      "time": 6.946,
      "duration": 0.007,
      "midi": 40,
      "noteNumber": 40,
      "velocity": 0.26,
      "track": "(unnamed)",
      "channel": 9,
      "lane": "D"
    },
    {
      "time": 7.066,
      "duration": 0.007,
      "midi": 40,
      "noteNumber": 40,
      "velocity": 0.5,
      "track": "(unnamed)",
      "channel": 9,
      "lane": "D"
    },
    {
      "time": 7.186,
      "duration": 0.007,
      "midi": 35,
      "noteNumber": 35,
      "velocity": 0.74,
      "track": "(unnamed)",
      "channel": 9,
      "lane": "D"
    },
    {
      "time": 7.186,
      "duration": 0.007,
      "midi": 51,
      "noteNumber": 51,
      "velocity": 0.72,
      "track": "(unnamed)",
      "channel": 9,
      "lane": "F"
    },
    {
      "time": 7.545,
      "duration": 0.007,
      "midi": 51,
      "noteNumber": 51,
      "velocity": 0.72,
      "track": "(unnamed)",
      "channel": 9,
      "lane": "F"
    },
    {
      "time": 7.784,
      "duration": 0.007,
      "midi": 40,
      "noteNumber": 40,
      "velocity": 0.53,
      "track": "(unnamed)",
      "channel": 9,
      "lane": "D"
    },
    {
      "time": 7.904,
      "duration": 0.007,
      "midi": 51,
      "noteNumber": 51,
      "velocity": 0.72,
      "track": "(unnamed)",
      "channel": 9,
      "lane": "F"
    },
    {
      "time": 8.144,
      "duration": 0.007,
      "midi": 51,
      "noteNumber": 51,
      "velocity": 0.61,
      "track": "(unnamed)",
      "channel": 9,
      "lane": "F"
    },
    {
      "time": 8.263,
      "duration": 0.007,
      "midi": 40,
      "noteNumber": 40,
      "velocity": 0.53,
      "track": "(unnamed)",
      "channel": 9,
      "lane": "D"
    },
    {
      "time": 8.263,
      "duration": 0.007,
      "midi": 51,
      "noteNumber": 51,
      "velocity": 0.69,
      "track": "(unnamed)",
      "channel": 9,
      "lane": "F"
    },
    {
      "time": 8.503,
      "duration": 0.007,
      "midi": 51,
      "noteNumber": 51,
      "velocity": 0.54,
      "track": "(unnamed)",
      "channel": 9,
      "lane": "F"
    },
    {
      "time": 8.623,
      "duration": 0.007,
      "midi": 51,
      "noteNumber": 51,
      "velocity": 0.83,
      "track": "(unnamed)",
      "channel": 9,
      "lane": "F"
    },
    {
      "time": 8.743,
      "duration": 0.007,
      "midi": 40,
      "noteNumber": 40,
      "velocity": 0.26,
      "track": "(unnamed)",
      "channel": 9,
      "lane": "D"
    },
    {
      "time": 8.862,
      "duration": 0.007,
      "midi": 40,
      "noteNumber": 40,
      "velocity": 0.5,
      "track": "(unnamed)",
      "channel": 9,
      "lane": "D"
    },
    {
      "time": 8.982,
      "duration": 0.161,
      "midi": 39,
      "noteNumber": 39,
      "velocity": 0.6,
      "track": "(unnamed)",
      "channel": 2,
      "lane": "D"
    },
    {
      "time": 8.982,
      "duration": 0.007,
      "midi": 35,
      "noteNumber": 35,
      "velocity": 0.74,
      "track": "(unnamed)",
      "channel": 9,
      "lane": "D"
    },
    {
      "time": 8.982,
      "duration": 0.007,
      "midi": 51,
      "noteNumber": 51,
      "velocity": 0.72,
      "track": "(unnamed)",
      "channel": 9,
      "lane": "F"
    },
    {
      "time": 9.21,
      "duration": 0.056,
      "midi": 54,
      "noteNumber": 54,
      "velocity": 0.71,
      "track": "(unnamed)",
      "channel": 2,
      "lane": "J"
    },
    {
      "time": 9.21,
      "duration": 0.03,
      "midi": 58,
      "noteNumber": 58,
      "velocity": 0.54,
      "track": "(unnamed)",
      "channel": 2,
      "lane": "J"
    },
    {
      "time": 9.21,
      "duration": 0.06,
      "midi": 63,
      "noteNumber": 63,
      "velocity": 0.68,
      "track": "(unnamed)",
      "channel": 2,
      "lane": "J"
    },
    {
      "time": 9.341,
      "duration": 0.007,
      "midi": 51,
      "noteNumber": 51,
      "velocity": 0.72,
      "track": "(unnamed)",
      "channel": 9,
      "lane": "F"
    },
    {
      "time": 9.57,
      "duration": 0.112,
      "midi": 39,
      "noteNumber": 39,
      "velocity": 0.74,
      "track": "(unnamed)",
      "channel": 2,
      "lane": "D"
    },
    {
      "time": 9.581,
      "duration": 0.007,
      "midi": 40,
      "noteNumber": 40,
      "velocity": 0.53,
      "track": "(unnamed)",
      "channel": 9,
      "lane": "D"
    },
    {
      "time": 9.701,
      "duration": 0.086,
      "midi": 54,
      "noteNumber": 54,
      "velocity": 0.71,
      "track": "(unnamed)",
      "channel": 2,
      "lane": "J"
    },
    {
      "time": 9.701,
      "duration": 0.041,
      "midi": 58,
      "noteNumber": 58,
      "velocity": 0.68,
      "track": "(unnamed)",
      "channel": 2,
      "lane": "J"
    },
    {
      "time": 9.701,
      "duration": 0.049,
      "midi": 63,
      "noteNumber": 63,
      "velocity": 0.54,
      "track": "(unnamed)",
      "channel": 2,
      "lane": "J"
    },
    {
      "time": 9.701,
      "duration": 0.007,
      "midi": 51,
      "noteNumber": 51,
      "velocity": 0.72,
      "track": "(unnamed)",
      "channel": 9,
      "lane": "F"
    },
    {
      "time": 9.94,
      "duration": 0.007,
      "midi": 51,
      "noteNumber": 51,
      "velocity": 0.61,
      "track": "(unnamed)",
      "channel": 9,
      "lane": "F"
    },
    {
      "time": 10.06,
      "duration": 0.52,
      "midi": 46,
      "noteNumber": 46,
      "velocity": 0.71,
      "track": "(unnamed)",
      "channel": 2,
      "lane": "F"
    },
    {
      "time": 10.06,
      "duration": 0.007,
      "midi": 40,
      "noteNumber": 40,
      "velocity": 0.53,
      "track": "(unnamed)",
      "channel": 9,
      "lane": "D"
    },
    {
      "time": 10.06,
      "duration": 0.007,
      "midi": 51,
      "noteNumber": 51,
      "velocity": 0.69,
      "track": "(unnamed)",
      "channel": 9,
      "lane": "F"
    },
    {
      "time": 10.299,
      "duration": 0.007,
      "midi": 51,
      "noteNumber": 51,
      "velocity": 0.54,
      "track": "(unnamed)",
      "channel": 9,
      "lane": "F"
    },
    {
      "time": 10.419,
      "duration": 0.12,
      "midi": 53,
      "noteNumber": 53,
      "velocity": 0.57,
      "track": "(unnamed)",
      "channel": 2,
      "lane": "F"
    },
    {
      "time": 10.419,
      "duration": 0.12,
      "midi": 56,
      "noteNumber": 56,
      "velocity": 0.74,
      "track": "(unnamed)",
      "channel": 2,
      "lane": "J"
    },
    {
      "time": 10.419,
      "duration": 0.124,
      "midi": 61,
      "noteNumber": 61,
      "velocity": 0.71,
      "track": "(unnamed)",
      "channel": 2,
      "lane": "J"
    },
    {
      "time": 10.419,
      "duration": 0.007,
      "midi": 51,
      "noteNumber": 51,
      "velocity": 0.83,
      "track": "(unnamed)",
      "channel": 9,
      "lane": "F"
    },
    {
      "time": 10.539,
      "duration": 0.007,
      "midi": 40,
      "noteNumber": 40,
      "velocity": 0.26,
      "track": "(unnamed)",
      "channel": 9,
      "lane": "D"
    },
    {
      "time": 10.659,
      "duration": 0.007,
      "midi": 40,
      "noteNumber": 40,
      "velocity": 0.5,
      "track": "(unnamed)",
      "channel": 9,
      "lane": "D"
    },
    {
      "time": 10.778,
      "duration": 0.161,
      "midi": 39,
      "noteNumber": 39,
      "velocity": 0.6,
      "track": "(unnamed)",
      "channel": 2,
      "lane": "D"
    },
    {
      "time": 10.778,
      "duration": 0.007,
      "midi": 35,
      "noteNumber": 35,
      "velocity": 0.74,
      "track": "(unnamed)",
      "channel": 9,
      "lane": "D"
    },
    {
      "time": 10.778,
      "duration": 0.007,
      "midi": 51,
      "noteNumber": 51,
      "velocity": 0.72,
      "track": "(unnamed)",
      "channel": 9,
      "lane": "F"
    },
    {
      "time": 11.007,
      "duration": 0.056,
      "midi": 54,
      "noteNumber": 54,
      "velocity": 0.71,
      "track": "(unnamed)",
      "channel": 2,
      "lane": "J"
    },
    {
      "time": 11.007,
      "duration": 0.03,
      "midi": 58,
      "noteNumber": 58,
      "velocity": 0.54,
      "track": "(unnamed)",
      "channel": 2,
      "lane": "J"
    },
    {
      "time": 11.007,
      "duration": 0.06,
      "midi": 63,
      "noteNumber": 63,
      "velocity": 0.68,
      "track": "(unnamed)",
      "channel": 2,
      "lane": "J"
    },
    {
      "time": 11.138,
      "duration": 0.007,
      "midi": 51,
      "noteNumber": 51,
      "velocity": 0.72,
      "track": "(unnamed)",
      "channel": 9,
      "lane": "F"
    },
    {
      "time": 11.366,
      "duration": 0.112,
      "midi": 39,
      "noteNumber": 39,
      "velocity": 0.74,
      "track": "(unnamed)",
      "channel": 2,
      "lane": "D"
    },
    {
      "time": 11.377,
      "duration": 0.007,
      "midi": 40,
      "noteNumber": 40,
      "velocity": 0.53,
      "track": "(unnamed)",
      "channel": 9,
      "lane": "D"
    },
    {
      "time": 11.497,
      "duration": 0.086,
      "midi": 54,
      "noteNumber": 54,
      "velocity": 0.71,
      "track": "(unnamed)",
      "channel": 2,
      "lane": "J"
    },
    {
      "time": 11.497,
      "duration": 0.041,
      "midi": 58,
      "noteNumber": 58,
      "velocity": 0.68,
      "track": "(unnamed)",
      "channel": 2,
      "lane": "J"
    },
    {
      "time": 11.497,
      "duration": 0.049,
      "midi": 63,
      "noteNumber": 63,
      "velocity": 0.54,
      "track": "(unnamed)",
      "channel": 2,
      "lane": "J"
    },
    {
      "time": 11.497,
      "duration": 0.007,
      "midi": 51,
      "noteNumber": 51,
      "velocity": 0.72,
      "track": "(unnamed)",
      "channel": 9,
      "lane": "F"
    },
    {
      "time": 11.737,
      "duration": 0.007,
      "midi": 51,
      "noteNumber": 51,
      "velocity": 0.61,
      "track": "(unnamed)",
      "channel": 9,
      "lane": "F"
    },
    {
      "time": 11.856,
      "duration": 0.52,
      "midi": 46,
      "noteNumber": 46,
      "velocity": 0.71,
      "track": "(unnamed)",
      "channel": 2,
      "lane": "F"
    },
    {
      "time": 11.856,
      "duration": 0.007,
      "midi": 40,
      "noteNumber": 40,
      "velocity": 0.53,
      "track": "(unnamed)",
      "channel": 9,
      "lane": "D"
    },
    {
      "time": 11.856,
      "duration": 0.007,
      "midi": 51,
      "noteNumber": 51,
      "velocity": 0.69,
      "track": "(unnamed)",
      "channel": 9,
      "lane": "F"
    },
    {
      "time": 12.096,
      "duration": 0.007,
      "midi": 51,
      "noteNumber": 51,
      "velocity": 0.54,
      "track": "(unnamed)",
      "channel": 9,
      "lane": "F"
    },
    {
      "time": 12.216,
      "duration": 0.12,
      "midi": 53,
      "noteNumber": 53,
      "velocity": 0.57,
      "track": "(unnamed)",
      "channel": 2,
      "lane": "F"
    },
    {
      "time": 12.216,
      "duration": 0.12,
      "midi": 56,
      "noteNumber": 56,
      "velocity": 0.74,
      "track": "(unnamed)",
      "channel": 2,
      "lane": "J"
    },
    {
      "time": 12.216,
      "duration": 0.124,
      "midi": 61,
      "noteNumber": 61,
      "velocity": 0.71,
      "track": "(unnamed)",
      "channel": 2,
      "lane": "J"
    },
    {
      "time": 12.216,
      "duration": 0.007,
      "midi": 51,
      "noteNumber": 51,
      "velocity": 0.83,
      "track": "(unnamed)",
      "channel": 9,
      "lane": "F"
    },
    {
      "time": 12.335,
      "duration": 0.007,
      "midi": 40,
      "noteNumber": 40,
      "velocity": 0.26,
      "track": "(unnamed)",
      "channel": 9,
      "lane": "D"
    },
    {
      "time": 12.455,
      "duration": 0.007,
      "midi": 40,
      "noteNumber": 40,
      "velocity": 0.5,
      "track": "(unnamed)",
      "channel": 9,
      "lane": "D"
    },
    {
      "time": 12.575,
      "duration": 0.161,
      "midi": 39,
      "noteNumber": 39,
      "velocity": 0.6,
      "track": "(unnamed)",
      "channel": 2,
      "lane": "D"
    },
    {
      "time": 12.575,
      "duration": 0.007,
      "midi": 35,
      "noteNumber": 35,
      "velocity": 0.74,
      "track": "(unnamed)",
      "channel": 9,
      "lane": "D"
    },
    {
      "time": 12.575,
      "duration": 0.007,
      "midi": 51,
      "noteNumber": 51,
      "velocity": 0.72,
      "track": "(unnamed)",
      "channel": 9,
      "lane": "F"
    },
    {
      "time": 12.803,
      "duration": 0.056,
      "midi": 54,
      "noteNumber": 54,
      "velocity": 0.71,
      "track": "(unnamed)",
      "channel": 2,
      "lane": "J"
    },
    {
      "time": 12.803,
      "duration": 0.03,
      "midi": 58,
      "noteNumber": 58,
      "velocity": 0.54,
      "track": "(unnamed)",
      "channel": 2,
      "lane": "J"
    },
    {
      "time": 12.803,
      "duration": 0.06,
      "midi": 63,
      "noteNumber": 63,
      "velocity": 0.68,
      "track": "(unnamed)",
      "channel": 2,
      "lane": "J"
    },
    {
      "time": 12.934,
      "duration": 0.007,
      "midi": 51,
      "noteNumber": 51,
      "velocity": 0.72,
      "track": "(unnamed)",
      "channel": 9,
      "lane": "F"
    },
    {
      "time": 13.162,
      "duration": 0.112,
      "midi": 39,
      "noteNumber": 39,
      "velocity": 0.74,
      "track": "(unnamed)",
      "channel": 2,
      "lane": "D"
    },
    {
      "time": 13.174,
      "duration": 0.007,
      "midi": 40,
      "noteNumber": 40,
      "velocity": 0.53,
      "track": "(unnamed)",
      "channel": 9,
      "lane": "D"
    },
    {
      "time": 13.293,
      "duration": 0.086,
      "midi": 54,
      "noteNumber": 54,
      "velocity": 0.71,
      "track": "(unnamed)",
      "channel": 2,
      "lane": "J"
    },
    {
      "time": 13.293,
      "duration": 0.041,
      "midi": 58,
      "noteNumber": 58,
      "velocity": 0.68,
      "track": "(unnamed)",
      "channel": 2,
      "lane": "J"
    },
    {
      "time": 13.293,
      "duration": 0.049,
      "midi": 63,
      "noteNumber": 63,
      "velocity": 0.54,
      "track": "(unnamed)",
      "channel": 2,
      "lane": "J"
    },
    {
      "time": 13.293,
      "duration": 0.007,
      "midi": 51,
      "noteNumber": 51,
      "velocity": 0.72,
      "track": "(unnamed)",
      "channel": 9,
      "lane": "F"
    },
    {
      "time": 13.533,
      "duration": 0.007,
      "midi": 51,
      "noteNumber": 51,
      "velocity": 0.61,
      "track": "(unnamed)",
      "channel": 9,
      "lane": "F"
    },
    {
      "time": 13.653,
      "duration": 0.52,
      "midi": 46,
      "noteNumber": 46,
      "velocity": 0.71,
      "track": "(unnamed)",
      "channel": 2,
      "lane": "F"
    },
    {
      "time": 13.653,
      "duration": 0.007,
      "midi": 40,
      "noteNumber": 40,
      "velocity": 0.53,
      "track": "(unnamed)",
      "channel": 9,
      "lane": "D"
    },
    {
      "time": 13.653,
      "duration": 0.007,
      "midi": 51,
      "noteNumber": 51,
      "velocity": 0.69,
      "track": "(unnamed)",
      "channel": 9,
      "lane": "F"
    },
    {
      "time": 13.892,
      "duration": 0.007,
      "midi": 51,
      "noteNumber": 51,
      "velocity": 0.54,
      "track": "(unnamed)",
      "channel": 9,
      "lane": "F"
    },
    {
      "time": 14.012,
      "duration": 0.12,
      "midi": 53,
      "noteNumber": 53,
      "velocity": 0.57,
      "track": "(unnamed)",
      "channel": 2,
      "lane": "F"
    },
    {
      "time": 14.012,
      "duration": 0.12,
      "midi": 56,
      "noteNumber": 56,
      "velocity": 0.74,
      "track": "(unnamed)",
      "channel": 2,
      "lane": "J"
    },
    {
      "time": 14.012,
      "duration": 0.124,
      "midi": 61,
      "noteNumber": 61,
      "velocity": 0.71,
      "track": "(unnamed)",
      "channel": 2,
      "lane": "J"
    },
    {
      "time": 14.012,
      "duration": 0.007,
      "midi": 51,
      "noteNumber": 51,
      "velocity": 0.83,
      "track": "(unnamed)",
      "channel": 9,
      "lane": "F"
    },
    {
      "time": 14.132,
      "duration": 0.007,
      "midi": 40,
      "noteNumber": 40,
      "velocity": 0.26,
      "track": "(unnamed)",
      "channel": 9,
      "lane": "D"
    },
    {
      "time": 14.251,
      "duration": 0.007,
      "midi": 40,
      "noteNumber": 40,
      "velocity": 0.5,
      "track": "(unnamed)",
      "channel": 9,
      "lane": "D"
    },
    {
      "time": 14.371,
      "duration": 0.161,
      "midi": 39,
      "noteNumber": 39,
      "velocity": 0.6,
      "track": "(unnamed)",
      "channel": 2,
      "lane": "D"
    },
    {
      "time": 14.371,
      "duration": 0.007,
      "midi": 35,
      "noteNumber": 35,
      "velocity": 0.74,
      "track": "(unnamed)",
      "channel": 9,
      "lane": "D"
    },
    {
      "time": 14.371,
      "duration": 0.007,
      "midi": 51,
      "noteNumber": 51,
      "velocity": 0.72,
      "track": "(unnamed)",
      "channel": 9,
      "lane": "F"
    },
    {
      "time": 14.6,
      "duration": 0.056,
      "midi": 54,
      "noteNumber": 54,
      "velocity": 0.71,
      "track": "(unnamed)",
      "channel": 2,
      "lane": "J"
    },
    {
      "time": 14.6,
      "duration": 0.03,
      "midi": 58,
      "noteNumber": 58,
      "velocity": 0.54,
      "track": "(unnamed)",
      "channel": 2,
      "lane": "J"
    },
    {
      "time": 14.6,
      "duration": 0.06,
      "midi": 63,
      "noteNumber": 63,
      "velocity": 0.68,
      "track": "(unnamed)",
      "channel": 2,
      "lane": "J"
    },
    {
      "time": 14.731,
      "duration": 0.007,
      "midi": 51,
      "noteNumber": 51,
      "velocity": 0.72,
      "track": "(unnamed)",
      "channel": 9,
      "lane": "F"
    },
    {
      "time": 14.959,
      "duration": 0.112,
      "midi": 39,
      "noteNumber": 39,
      "velocity": 0.74,
      "track": "(unnamed)",
      "channel": 2,
      "lane": "D"
    },
    {
      "time": 14.97,
      "duration": 0.007,
      "midi": 40,
      "noteNumber": 40,
      "velocity": 0.53,
      "track": "(unnamed)",
      "channel": 9,
      "lane": "D"
    },
    {
      "time": 15.09,
      "duration": 0.086,
      "midi": 54,
      "noteNumber": 54,
      "velocity": 0.71,
      "track": "(unnamed)",
      "channel": 2,
      "lane": "J"
    },
    {
      "time": 15.09,
      "duration": 0.041,
      "midi": 58,
      "noteNumber": 58,
      "velocity": 0.68,
      "track": "(unnamed)",
      "channel": 2,
      "lane": "J"
    },
    {
      "time": 15.09,
      "duration": 0.049,
      "midi": 63,
      "noteNumber": 63,
      "velocity": 0.54,
      "track": "(unnamed)",
      "channel": 2,
      "lane": "J"
    },
    {
      "time": 15.09,
      "duration": 0.007,
      "midi": 51,
      "noteNumber": 51,
      "velocity": 0.72,
      "track": "(unnamed)",
      "channel": 9,
      "lane": "F"
    },
    {
      "time": 15.329,
      "duration": 0.007,
      "midi": 51,
      "noteNumber": 51,
      "velocity": 0.61,
      "track": "(unnamed)",
      "channel": 9,
      "lane": "F"
    },
    {
      "time": 15.449,
      "duration": 0.52,
      "midi": 46,
      "noteNumber": 46,
      "velocity": 0.71,
      "track": "(unnamed)",
      "channel": 2,
      "lane": "F"
    },
    {
      "time": 15.449,
      "duration": 0.007,
      "midi": 40,
      "noteNumber": 40,
      "velocity": 0.53,
      "track": "(unnamed)",
      "channel": 9,
      "lane": "D"
    },
    {
      "time": 15.449,
      "duration": 0.007,
      "midi": 51,
      "noteNumber": 51,
      "velocity": 0.69,
      "track": "(unnamed)",
      "channel": 9,
      "lane": "F"
    },
    {
      "time": 15.689,
      "duration": 0.007,
      "midi": 51,
      "noteNumber": 51,
      "velocity": 0.54,
      "track": "(unnamed)",
      "channel": 9,
      "lane": "F"
    },
    {
      "time": 15.808,
      "duration": 0.12,
      "midi": 53,
      "noteNumber": 53,
      "velocity": 0.57,
      "track": "(unnamed)",
      "channel": 2,
      "lane": "F"
    },
    {
      "time": 15.808,
      "duration": 0.12,
      "midi": 56,
      "noteNumber": 56,
      "velocity": 0.74,
      "track": "(unnamed)",
      "channel": 2,
      "lane": "J"
    },
    {
      "time": 15.808,
      "duration": 0.124,
      "midi": 61,
      "noteNumber": 61,
      "velocity": 0.71,
      "track": "(unnamed)",
      "channel": 2,
      "lane": "J"
    },
    {
      "time": 15.808,
      "duration": 0.007,
      "midi": 51,
      "noteNumber": 51,
      "velocity": 0.83,
      "track": "(unnamed)",
      "channel": 9,
      "lane": "F"
    },
    {
      "time": 15.928,
      "duration": 0.007,
      "midi": 40,
      "noteNumber": 40,
      "velocity": 0.26,
      "track": "(unnamed)",
      "channel": 9,
      "lane": "D"
    },
    {
      "time": 16.048,
      "duration": 0.007,
      "midi": 40,
      "noteNumber": 40,
      "velocity": 0.5,
      "track": "(unnamed)",
      "channel": 9,
      "lane": "D"
    },
    {
      "time": 16.168,
      "duration": 0.161,
      "midi": 39,
      "noteNumber": 39,
      "velocity": 0.6,
      "track": "(unnamed)",
      "channel": 2,
      "lane": "D"
    },
    {
      "time": 16.168,
      "duration": 0.007,
      "midi": 35,
      "noteNumber": 35,
      "velocity": 0.74,
      "track": "(unnamed)",
      "channel": 9,
      "lane": "D"
    },
    {
      "time": 16.168,
      "duration": 0.007,
      "midi": 51,
      "noteNumber": 51,
      "velocity": 0.72,
      "track": "(unnamed)",
      "channel": 9,
      "lane": "F"
    },
    {
      "time": 16.168,
      "duration": 0.876,
      "midi": 39,
      "noteNumber": 39,
      "velocity": 0.66,
      "track": "(unnamed)",
      "channel": 1,
      "lane": "D"
    },
    {
      "time": 16.396,
      "duration": 0.056,
      "midi": 54,
      "noteNumber": 54,
      "velocity": 0.71,
      "track": "(unnamed)",
      "channel": 2,
      "lane": "J"
    },
    {
      "time": 16.396,
      "duration": 0.03,
      "midi": 58,
      "noteNumber": 58,
      "velocity": 0.54,
      "track": "(unnamed)",
      "channel": 2,
      "lane": "J"
    },
    {
      "time": 16.396,
      "duration": 0.06,
      "midi": 63,
      "noteNumber": 63,
      "velocity": 0.68,
      "track": "(unnamed)",
      "channel": 2,
      "lane": "J"
    },
    {
      "time": 16.527,
      "duration": 0.007,
      "midi": 51,
      "noteNumber": 51,
      "velocity": 0.72,
      "track": "(unnamed)",
      "channel": 9,
      "lane": "F"
    },
    {
      "time": 16.755,
      "duration": 0.112,
      "midi": 39,
      "noteNumber": 39,
      "velocity": 0.74,
      "track": "(unnamed)",
      "channel": 2,
      "lane": "D"
    },
    {
      "time": 16.766,
      "duration": 0.007,
      "midi": 40,
      "noteNumber": 40,
      "velocity": 0.53,
      "track": "(unnamed)",
      "channel": 9,
      "lane": "D"
    },
    {
      "time": 16.886,
      "duration": 0.086,
      "midi": 54,
      "noteNumber": 54,
      "velocity": 0.71,
      "track": "(unnamed)",
      "channel": 2,
      "lane": "J"
    },
    {
      "time": 16.886,
      "duration": 0.041,
      "midi": 58,
      "noteNumber": 58,
      "velocity": 0.68,
      "track": "(unnamed)",
      "channel": 2,
      "lane": "J"
    },
    {
      "time": 16.886,
      "duration": 0.049,
      "midi": 63,
      "noteNumber": 63,
      "velocity": 0.54,
      "track": "(unnamed)",
      "channel": 2,
      "lane": "J"
    },
    {
      "time": 16.886,
      "duration": 0.007,
      "midi": 51,
      "noteNumber": 51,
      "velocity": 0.72,
      "track": "(unnamed)",
      "channel": 9,
      "lane": "F"
    },
    {
      "time": 17.126,
      "duration": 0.007,
      "midi": 51,
      "noteNumber": 51,
      "velocity": 0.61,
      "track": "(unnamed)",
      "channel": 9,
      "lane": "F"
    },
    {
      "time": 17.245,
      "duration": 0.52,
      "midi": 46,
      "noteNumber": 46,
      "velocity": 0.71,
      "track": "(unnamed)",
      "channel": 2,
      "lane": "F"
    },
    {
      "time": 17.245,
      "duration": 0.007,
      "midi": 40,
      "noteNumber": 40,
      "velocity": 0.53,
      "track": "(unnamed)",
      "channel": 9,
      "lane": "D"
    },
    {
      "time": 17.245,
      "duration": 0.007,
      "midi": 51,
      "noteNumber": 51,
      "velocity": 0.69,
      "track": "(unnamed)",
      "channel": 9,
      "lane": "F"
    },
    {
      "time": 17.245,
      "duration": 0.273,
      "midi": 46,
      "noteNumber": 46,
      "velocity": 0.51,
      "track": "(unnamed)",
      "channel": 1,
      "lane": "F"
    },
    {
      "time": 17.485,
      "duration": 0.007,
      "midi": 51,
      "noteNumber": 51,
      "velocity": 0.54,
      "track": "(unnamed)",
      "channel": 9,
      "lane": "F"
    },
    {
      "time": 17.605,
      "duration": 0.12,
      "midi": 53,
      "noteNumber": 53,
      "velocity": 0.57,
      "track": "(unnamed)",
      "channel": 2,
      "lane": "F"
    },
    {
      "time": 17.605,
      "duration": 0.12,
      "midi": 56,
      "noteNumber": 56,
      "velocity": 0.74,
      "track": "(unnamed)",
      "channel": 2,
      "lane": "J"
    },
    {
      "time": 17.605,
      "duration": 0.124,
      "midi": 61,
      "noteNumber": 61,
      "velocity": 0.71,
      "track": "(unnamed)",
      "channel": 2,
      "lane": "J"
    },
    {
      "time": 17.605,
      "duration": 0.007,
      "midi": 51,
      "noteNumber": 51,
      "velocity": 0.83,
      "track": "(unnamed)",
      "channel": 9,
      "lane": "F"
    },
    {
      "time": 17.605,
      "duration": 0.213,
      "midi": 34,
      "noteNumber": 34,
      "velocity": 0.51,
      "track": "(unnamed)",
      "channel": 1,
      "lane": "D"
    },
    {
      "time": 17.725,
      "duration": 0.007,
      "midi": 40,
      "noteNumber": 40,
      "velocity": 0.26,
      "track": "(unnamed)",
      "channel": 9,
      "lane": "D"
    },
    {
      "time": 17.844,
      "duration": 0.007,
      "midi": 40,
      "noteNumber": 40,
      "velocity": 0.5,
      "track": "(unnamed)",
      "channel": 9,
      "lane": "D"
    },
    {
      "time": 17.964,
      "duration": 0.161,
      "midi": 39,
      "noteNumber": 39,
      "velocity": 0.6,
      "track": "(unnamed)",
      "channel": 2,
      "lane": "D"
    },
    {
      "time": 17.964,
      "duration": 0.007,
      "midi": 35,
      "noteNumber": 35,
      "velocity": 0.74,
      "track": "(unnamed)",
      "channel": 9,
      "lane": "D"
    },
    {
      "time": 17.964,
      "duration": 0.007,
      "midi": 51,
      "noteNumber": 51,
      "velocity": 0.72,
      "track": "(unnamed)",
      "channel": 9,
      "lane": "F"
    },
    {
      "time": 17.964,
      "duration": 0.876,
      "midi": 39,
      "noteNumber": 39,
      "velocity": 0.66,
      "track": "(unnamed)",
      "channel": 1,
      "lane": "D"
    },
    {
      "time": 18.192,
      "duration": 0.056,
      "midi": 54,
      "noteNumber": 54,
      "velocity": 0.71,
      "track": "(unnamed)",
      "channel": 2,
      "lane": "J"
    },
    {
      "time": 18.192,
      "duration": 0.03,
      "midi": 58,
      "noteNumber": 58,
      "velocity": 0.54,
      "track": "(unnamed)",
      "channel": 2,
      "lane": "J"
    },
    {
      "time": 18.192,
      "duration": 0.06,
      "midi": 63,
      "noteNumber": 63,
      "velocity": 0.68,
      "track": "(unnamed)",
      "channel": 2,
      "lane": "J"
    },
    {
      "time": 18.323,
      "duration": 0.007,
      "midi": 51,
      "noteNumber": 51,
      "velocity": 0.72,
      "track": "(unnamed)",
      "channel": 9,
      "lane": "F"
    },
    {
      "time": 18.552,
      "duration": 0.112,
      "midi": 39,
      "noteNumber": 39,
      "velocity": 0.74,
      "track": "(unnamed)",
      "channel": 2,
      "lane": "D"
    },
    {
      "time": 18.563,
      "duration": 0.007,
      "midi": 40,
      "noteNumber": 40,
      "velocity": 0.53,
      "track": "(unnamed)",
      "channel": 9,
      "lane": "D"
    },
    {
      "time": 18.683,
      "duration": 0.086,
      "midi": 54,
      "noteNumber": 54,
      "velocity": 0.71,
      "track": "(unnamed)",
      "channel": 2,
      "lane": "J"
    },
    {
      "time": 18.683,
      "duration": 0.041,
      "midi": 58,
      "noteNumber": 58,
      "velocity": 0.68,
      "track": "(unnamed)",
      "channel": 2,
      "lane": "J"
    },
    {
      "time": 18.683,
      "duration": 0.049,
      "midi": 63,
      "noteNumber": 63,
      "velocity": 0.54,
      "track": "(unnamed)",
      "channel": 2,
      "lane": "J"
    },
    {
      "time": 18.683,
      "duration": 0.007,
      "midi": 51,
      "noteNumber": 51,
      "velocity": 0.72,
      "track": "(unnamed)",
      "channel": 9,
      "lane": "F"
    },
    {
      "time": 18.922,
      "duration": 0.007,
      "midi": 51,
      "noteNumber": 51,
      "velocity": 0.61,
      "track": "(unnamed)",
      "channel": 9,
      "lane": "F"
    },
    {
      "time": 19.042,
      "duration": 0.52,
      "midi": 46,
      "noteNumber": 46,
      "velocity": 0.71,
      "track": "(unnamed)",
      "channel": 2,
      "lane": "F"
    },
    {
      "time": 19.042,
      "duration": 0.007,
      "midi": 40,
      "noteNumber": 40,
      "velocity": 0.53,
      "track": "(unnamed)",
      "channel": 9,
      "lane": "D"
    },
    {
      "time": 19.042,
      "duration": 0.007,
      "midi": 51,
      "noteNumber": 51,
      "velocity": 0.69,
      "track": "(unnamed)",
      "channel": 9,
      "lane": "F"
    },
    {
      "time": 19.042,
      "duration": 0.273,
      "midi": 46,
      "noteNumber": 46,
      "velocity": 0.51,
      "track": "(unnamed)",
      "channel": 1,
      "lane": "F"
    },
    {
      "time": 19.281,
      "duration": 0.007,
      "midi": 51,
      "noteNumber": 51,
      "velocity": 0.54,
      "track": "(unnamed)",
      "channel": 9,
      "lane": "F"
    },
    {
      "time": 19.401,
      "duration": 0.12,
      "midi": 53,
      "noteNumber": 53,
      "velocity": 0.57,
      "track": "(unnamed)",
      "channel": 2,
      "lane": "F"
    },
    {
      "time": 19.401,
      "duration": 0.12,
      "midi": 56,
      "noteNumber": 56,
      "velocity": 0.74,
      "track": "(unnamed)",
      "channel": 2,
      "lane": "J"
    },
    {
      "time": 19.401,
      "duration": 0.124,
      "midi": 61,
      "noteNumber": 61,
      "velocity": 0.71,
      "track": "(unnamed)",
      "channel": 2,
      "lane": "J"
    },
    {
      "time": 19.401,
      "duration": 0.007,
      "midi": 51,
      "noteNumber": 51,
      "velocity": 0.83,
      "track": "(unnamed)",
      "channel": 9,
      "lane": "F"
    },
    {
      "time": 19.401,
      "duration": 0.213,
      "midi": 34,
      "noteNumber": 34,
      "velocity": 0.51,
      "track": "(unnamed)",
      "channel": 1,
      "lane": "D"
    },
    {
      "time": 19.521,
      "duration": 0.007,
      "midi": 40,
      "noteNumber": 40,
      "velocity": 0.26,
      "track": "(unnamed)",
      "channel": 9,
      "lane": "D"
    },
    {
      "time": 19.641,
      "duration": 0.007,
      "midi": 40,
      "noteNumber": 40,
      "velocity": 0.5,
      "track": "(unnamed)",
      "channel": 9,
      "lane": "D"
    },
    {
      "time": 19.76,
      "duration": 0.161,
      "midi": 39,
      "noteNumber": 39,
      "velocity": 0.6,
      "track": "(unnamed)",
      "channel": 2,
      "lane": "D"
    },
    {
      "time": 19.76,
      "duration": 0.007,
      "midi": 35,
      "noteNumber": 35,
      "velocity": 0.74,
      "track": "(unnamed)",
      "channel": 9,
      "lane": "D"
    },
    {
      "time": 19.76,
      "duration": 0.007,
      "midi": 51,
      "noteNumber": 51,
      "velocity": 0.72,
      "track": "(unnamed)",
      "channel": 9,
      "lane": "F"
    },
    {
      "time": 19.76,
      "duration": 0.876,
      "midi": 39,
      "noteNumber": 39,
      "velocity": 0.66,
      "track": "(unnamed)",
      "channel": 1,
      "lane": "D"
    },
    {
      "time": 19.989,
      "duration": 0.056,
      "midi": 54,
      "noteNumber": 54,
      "velocity": 0.71,
      "track": "(unnamed)",
      "channel": 2,
      "lane": "J"
    },
    {
      "time": 19.989,
      "duration": 0.03,
      "midi": 58,
      "noteNumber": 58,
      "velocity": 0.54,
      "track": "(unnamed)",
      "channel": 2,
      "lane": "J"
    },
    {
      "time": 19.989,
      "duration": 0.06,
      "midi": 63,
      "noteNumber": 63,
      "velocity": 0.68,
      "track": "(unnamed)",
      "channel": 2,
      "lane": "J"
    },
    {
      "time": 20.12,
      "duration": 0.007,
      "midi": 51,
      "noteNumber": 51,
      "velocity": 0.72,
      "track": "(unnamed)",
      "channel": 9,
      "lane": "F"
    },
    {
      "time": 20.348,
      "duration": 0.112,
      "midi": 39,
      "noteNumber": 39,
      "velocity": 0.74,
      "track": "(unnamed)",
      "channel": 2,
      "lane": "D"
    },
    {
      "time": 20.359,
      "duration": 0.007,
      "midi": 40,
      "noteNumber": 40,
      "velocity": 0.53,
      "track": "(unnamed)",
      "channel": 9,
      "lane": "D"
    },
    {
      "time": 20.479,
      "duration": 0.086,
      "midi": 54,
      "noteNumber": 54,
      "velocity": 0.71,
      "track": "(unnamed)",
      "channel": 2,
      "lane": "J"
    },
    {
      "time": 20.479,
      "duration": 0.041,
      "midi": 58,
      "noteNumber": 58,
      "velocity": 0.68,
      "track": "(unnamed)",
      "channel": 2,
      "lane": "J"
    },
    {
      "time": 20.479,
      "duration": 0.049,
      "midi": 63,
      "noteNumber": 63,
      "velocity": 0.54,
      "track": "(unnamed)",
      "channel": 2,
      "lane": "J"
    },
    {
      "time": 20.479,
      "duration": 0.007,
      "midi": 51,
      "noteNumber": 51,
      "velocity": 0.72,
      "track": "(unnamed)",
      "channel": 9,
      "lane": "F"
    },
    {
      "time": 20.719,
      "duration": 0.007,
      "midi": 51,
      "noteNumber": 51,
      "velocity": 0.61,
      "track": "(unnamed)",
      "channel": 9,
      "lane": "F"
    },
    {
      "time": 20.838,
      "duration": 0.52,
      "midi": 46,
      "noteNumber": 46,
      "velocity": 0.71,
      "track": "(unnamed)",
      "channel": 2,
      "lane": "F"
    },
    {
      "time": 20.838,
      "duration": 0.007,
      "midi": 40,
      "noteNumber": 40,
      "velocity": 0.53,
      "track": "(unnamed)",
      "channel": 9,
      "lane": "D"
    },
    {
      "time": 20.838,
      "duration": 0.007,
      "midi": 51,
      "noteNumber": 51,
      "velocity": 0.69,
      "track": "(unnamed)",
      "channel": 9,
      "lane": "F"
    },
    {
      "time": 20.838,
      "duration": 0.273,
      "midi": 46,
      "noteNumber": 46,
      "velocity": 0.51,
      "track": "(unnamed)",
      "channel": 1,
      "lane": "F"
    },
    {
      "time": 21.078,
      "duration": 0.007,
      "midi": 51,
      "noteNumber": 51,
      "velocity": 0.54,
      "track": "(unnamed)",
      "channel": 9,
      "lane": "F"
    },
    {
      "time": 21.198,
      "duration": 0.12,
      "midi": 53,
      "noteNumber": 53,
      "velocity": 0.57,
      "track": "(unnamed)",
      "channel": 2,
      "lane": "F"
    },
    {
      "time": 21.198,
      "duration": 0.12,
      "midi": 56,
      "noteNumber": 56,
      "velocity": 0.74,
      "track": "(unnamed)",
      "channel": 2,
      "lane": "J"
    },
    {
      "time": 21.198,
      "duration": 0.124,
      "midi": 61,
      "noteNumber": 61,
      "velocity": 0.71,
      "track": "(unnamed)",
      "channel": 2,
      "lane": "J"
    },
    {
      "time": 21.198,
      "duration": 0.007,
      "midi": 51,
      "noteNumber": 51,
      "velocity": 0.83,
      "track": "(unnamed)",
      "channel": 9,
      "lane": "F"
    },
    {
      "time": 21.198,
      "duration": 0.213,
      "midi": 34,
      "noteNumber": 34,
      "velocity": 0.51,
      "track": "(unnamed)",
      "channel": 1,
      "lane": "D"
    },
    {
      "time": 21.317,
      "duration": 0.007,
      "midi": 40,
      "noteNumber": 40,
      "velocity": 0.26,
      "track": "(unnamed)",
      "channel": 9,
      "lane": "D"
    },
    {
      "time": 21.437,
      "duration": 0.007,
      "midi": 40,
      "noteNumber": 40,
      "velocity": 0.5,
      "track": "(unnamed)",
      "channel": 9,
      "lane": "D"
    },
    {
      "time": 21.557,
      "duration": 0.161,
      "midi": 39,
      "noteNumber": 39,
      "velocity": 0.6,
      "track": "(unnamed)",
      "channel": 2,
      "lane": "D"
    },
    {
      "time": 21.557,
      "duration": 0.007,
      "midi": 35,
      "noteNumber": 35,
      "velocity": 0.74,
      "track": "(unnamed)",
      "channel": 9,
      "lane": "D"
    },
    {
      "time": 21.557,
      "duration": 0.007,
      "midi": 51,
      "noteNumber": 51,
      "velocity": 0.72,
      "track": "(unnamed)",
      "channel": 9,
      "lane": "F"
    },
    {
      "time": 21.557,
      "duration": 0.876,
      "midi": 39,
      "noteNumber": 39,
      "velocity": 0.66,
      "track": "(unnamed)",
      "channel": 1,
      "lane": "D"
    },
    {
      "time": 21.785,
      "duration": 0.056,
      "midi": 54,
      "noteNumber": 54,
      "velocity": 0.71,
      "track": "(unnamed)",
      "channel": 2,
      "lane": "J"
    },
    {
      "time": 21.785,
      "duration": 0.03,
      "midi": 58,
      "noteNumber": 58,
      "velocity": 0.54,
      "track": "(unnamed)",
      "channel": 2,
      "lane": "J"
    },
    {
      "time": 21.785,
      "duration": 0.06,
      "midi": 63,
      "noteNumber": 63,
      "velocity": 0.68,
      "track": "(unnamed)",
      "channel": 2,
      "lane": "J"
    },
    {
      "time": 21.916,
      "duration": 0.007,
      "midi": 51,
      "noteNumber": 51,
      "velocity": 0.72,
      "track": "(unnamed)",
      "channel": 9,
      "lane": "F"
    },
    {
      "time": 22.144,
      "duration": 0.112,
      "midi": 39,
      "noteNumber": 39,
      "velocity": 0.74,
      "track": "(unnamed)",
      "channel": 2,
      "lane": "D"
    },
    {
      "time": 22.156,
      "duration": 0.007,
      "midi": 40,
      "noteNumber": 40,
      "velocity": 0.53,
      "track": "(unnamed)",
      "channel": 9,
      "lane": "D"
    },
    {
      "time": 22.275,
      "duration": 0.086,
      "midi": 54,
      "noteNumber": 54,
      "velocity": 0.71,
      "track": "(unnamed)",
      "channel": 2,
      "lane": "J"
    },
    {
      "time": 22.275,
      "duration": 0.041,
      "midi": 58,
      "noteNumber": 58,
      "velocity": 0.68,
      "track": "(unnamed)",
      "channel": 2,
      "lane": "J"
    },
    {
      "time": 22.275,
      "duration": 0.049,
      "midi": 63,
      "noteNumber": 63,
      "velocity": 0.54,
      "track": "(unnamed)",
      "channel": 2,
      "lane": "J"
    },
    {
      "time": 22.275,
      "duration": 0.007,
      "midi": 51,
      "noteNumber": 51,
      "velocity": 0.72,
      "track": "(unnamed)",
      "channel": 9,
      "lane": "F"
    },
    {
      "time": 22.515,
      "duration": 0.007,
      "midi": 51,
      "noteNumber": 51,
      "velocity": 0.61,
      "track": "(unnamed)",
      "channel": 9,
      "lane": "F"
    },
    {
      "time": 22.635,
      "duration": 0.52,
      "midi": 46,
      "noteNumber": 46,
      "velocity": 0.71,
      "track": "(unnamed)",
      "channel": 2,
      "lane": "F"
    },
    {
      "time": 22.635,
      "duration": 0.007,
      "midi": 40,
      "noteNumber": 40,
      "velocity": 0.53,
      "track": "(unnamed)",
      "channel": 9,
      "lane": "D"
    },
    {
      "time": 22.635,
      "duration": 0.007,
      "midi": 51,
      "noteNumber": 51,
      "velocity": 0.69,
      "track": "(unnamed)",
      "channel": 9,
      "lane": "F"
    },
    {
      "time": 22.635,
      "duration": 0.273,
      "midi": 46,
      "noteNumber": 46,
      "velocity": 0.51,
      "track": "(unnamed)",
      "channel": 1,
      "lane": "F"
    },
    {
      "time": 22.661,
      "duration": 0.086,
      "midi": 58,
      "noteNumber": 58,
      "velocity": 0.6,
      "track": "(unnamed)",
      "channel": 3,
      "lane": "J"
    },
    {
      "time": 22.863,
      "duration": 0.086,
      "midi": 63,
      "noteNumber": 63,
      "velocity": 0.57,
      "track": "(unnamed)",
      "channel": 3,
      "lane": "J"
    },
    {
      "time": 22.874,
      "duration": 0.007,
      "midi": 51,
      "noteNumber": 51,
      "velocity": 0.54,
      "track": "(unnamed)",
      "channel": 9,
      "lane": "F"
    },
    {
      "time": 22.994,
      "duration": 0.12,
      "midi": 53,
      "noteNumber": 53,
      "velocity": 0.57,
      "track": "(unnamed)",
      "channel": 2,
      "lane": "F"
    },
    {
      "time": 22.994,
      "duration": 0.12,
      "midi": 56,
      "noteNumber": 56,
      "velocity": 0.74,
      "track": "(unnamed)",
      "channel": 2,
      "lane": "J"
    },
    {
      "time": 22.994,
      "duration": 0.124,
      "midi": 61,
      "noteNumber": 61,
      "velocity": 0.71,
      "track": "(unnamed)",
      "channel": 2,
      "lane": "J"
    },
    {
      "time": 22.994,
      "duration": 0.007,
      "midi": 51,
      "noteNumber": 51,
      "velocity": 0.83,
      "track": "(unnamed)",
      "channel": 9,
      "lane": "F"
    },
    {
      "time": 22.994,
      "duration": 0.213,
      "midi": 34,
      "noteNumber": 34,
      "velocity": 0.51,
      "track": "(unnamed)",
      "channel": 1,
      "lane": "D"
    },
    {
      "time": 23.009,
      "duration": 0.127,
      "midi": 66,
      "noteNumber": 66,
      "velocity": 0.77,
      "track": "(unnamed)",
      "channel": 3,
      "lane": "K"
    },
    {
      "time": 23.114,
      "duration": 0.007,
      "midi": 40,
      "noteNumber": 40,
      "velocity": 0.26,
      "track": "(unnamed)",
      "channel": 9,
      "lane": "D"
    },
    {
      "time": 23.2,
      "duration": 0.101,
      "midi": 68,
      "noteNumber": 68,
      "velocity": 0.85,
      "track": "(unnamed)",
      "channel": 3,
      "lane": "K"
    },
    {
      "time": 23.234,
      "duration": 0.007,
      "midi": 40,
      "noteNumber": 40,
      "velocity": 0.5,
      "track": "(unnamed)",
      "channel": 9,
      "lane": "D"
    },
    {
      "time": 23.353,
      "duration": 0.161,
      "midi": 39,
      "noteNumber": 39,
      "velocity": 0.6,
      "track": "(unnamed)",
      "channel": 2,
      "lane": "D"
    },
    {
      "time": 23.353,
      "duration": 0.007,
      "midi": 35,
      "noteNumber": 35,
      "velocity": 0.74,
      "track": "(unnamed)",
      "channel": 9,
      "lane": "D"
    },
    {
      "time": 23.353,
      "duration": 0.007,
      "midi": 51,
      "noteNumber": 51,
      "velocity": 0.72,
      "track": "(unnamed)",
      "channel": 9,
      "lane": "F"
    },
    {
      "time": 23.353,
      "duration": 0.876,
      "midi": 39,
      "noteNumber": 39,
      "velocity": 0.66,
      "track": "(unnamed)",
      "channel": 1,
      "lane": "D"
    },
    {
      "time": 23.379,
      "duration": 0.146,
      "midi": 69,
      "noteNumber": 69,
      "velocity": 0.94,
      "track": "(unnamed)",
      "channel": 3,
      "lane": "K"
    },
    {
      "time": 23.559,
      "duration": 0.094,
      "midi": 70,
      "noteNumber": 70,
      "velocity": 0.77,
      "track": "(unnamed)",
      "channel": 3,
      "lane": "K"
    },
    {
      "time": 23.582,
      "duration": 0.056,
      "midi": 54,
      "noteNumber": 54,
      "velocity": 0.71,
      "track": "(unnamed)",
      "channel": 2,
      "lane": "J"
    },
    {
      "time": 23.582,
      "duration": 0.03,
      "midi": 58,
      "noteNumber": 58,
      "velocity": 0.54,
      "track": "(unnamed)",
      "channel": 2,
      "lane": "J"
    },
    {
      "time": 23.582,
      "duration": 0.06,
      "midi": 63,
      "noteNumber": 63,
      "velocity": 0.68,
      "track": "(unnamed)",
      "channel": 2,
      "lane": "J"
    },
    {
      "time": 23.713,
      "duration": 0.007,
      "midi": 51,
      "noteNumber": 51,
      "velocity": 0.72,
      "track": "(unnamed)",
      "channel": 9,
      "lane": "F"
    },
    {
      "time": 23.776,
      "duration": 0.071,
      "midi": 69,
      "noteNumber": 69,
      "velocity": 0.63,
      "track": "(unnamed)",
      "channel": 3,
      "lane": "K"
    },
    {
      "time": 23.941,
      "duration": 0.112,
      "midi": 39,
      "noteNumber": 39,
      "velocity": 0.74,
      "track": "(unnamed)",
      "channel": 2,
      "lane": "D"
    },
    {
      "time": 23.952,
      "duration": 0.007,
      "midi": 40,
      "noteNumber": 40,
      "velocity": 0.53,
      "track": "(unnamed)",
      "channel": 9,
      "lane": "D"
    },
    {
      "time": 23.963,
      "duration": 0.12,
      "midi": 68,
      "noteNumber": 68,
      "velocity": 0.8,
      "track": "(unnamed)",
      "channel": 3,
      "lane": "K"
    },
    {
      "time": 24.072,
      "duration": 0.086,
      "midi": 54,
      "noteNumber": 54,
      "velocity": 0.71,
      "track": "(unnamed)",
      "channel": 2,
      "lane": "J"
    },
    {
      "time": 24.072,
      "duration": 0.041,
      "midi": 58,
      "noteNumber": 58,
      "velocity": 0.68,
      "track": "(unnamed)",
      "channel": 2,
      "lane": "J"
    },
    {
      "time": 24.072,
      "duration": 0.049,
      "midi": 63,
      "noteNumber": 63,
      "velocity": 0.54,
      "track": "(unnamed)",
      "channel": 2,
      "lane": "J"
    },
    {
      "time": 24.072,
      "duration": 0.007,
      "midi": 51,
      "noteNumber": 51,
      "velocity": 0.72,
      "track": "(unnamed)",
      "channel": 9,
      "lane": "F"
    },
    {
      "time": 24.109,
      "duration": 0.172,
      "midi": 66,
      "noteNumber": 66,
      "velocity": 0.85,
      "track": "(unnamed)",
      "channel": 3,
      "lane": "K"
    },
    {
      "time": 24.311,
      "duration": 0.007,
      "midi": 51,
      "noteNumber": 51,
      "velocity": 0.61,
      "track": "(unnamed)",
      "channel": 9,
      "lane": "F"
    },
    {
      "time": 24.431,
      "duration": 0.52,
      "midi": 46,
      "noteNumber": 46,
      "velocity": 0.71,
      "track": "(unnamed)",
      "channel": 2,
      "lane": "F"
    },
    {
      "time": 24.431,
      "duration": 0.007,
      "midi": 40,
      "noteNumber": 40,
      "velocity": 0.53,
      "track": "(unnamed)",
      "channel": 9,
      "lane": "D"
    },
    {
      "time": 24.431,
      "duration": 0.007,
      "midi": 51,
      "noteNumber": 51,
      "velocity": 0.69,
      "track": "(unnamed)",
      "channel": 9,
      "lane": "F"
    },
    {
      "time": 24.431,
      "duration": 0.273,
      "midi": 46,
      "noteNumber": 46,
      "velocity": 0.51,
      "track": "(unnamed)",
      "channel": 1,
      "lane": "F"
    },
    {
      "time": 24.446,
      "duration": 0.314,
      "midi": 58,
      "noteNumber": 58,
      "velocity": 0.54,
      "track": "(unnamed)",
      "channel": 3,
      "lane": "J"
    },
    {
      "time": 24.671,
      "duration": 0.007,
      "midi": 51,
      "noteNumber": 51,
      "velocity": 0.54,
      "track": "(unnamed)",
      "channel": 9,
      "lane": "F"
    },
    {
      "time": 24.716,
      "duration": 0.105,
      "midi": 59,
      "noteNumber": 59,
      "velocity": 0.56,
      "track": "(unnamed)",
      "channel": 3,
      "lane": "J"
    },
    {
      "time": 24.79,
      "duration": 0.12,
      "midi": 53,
      "noteNumber": 53,
      "velocity": 0.57,
      "track": "(unnamed)",
      "channel": 2,
      "lane": "F"
    },
    {
      "time": 24.79,
      "duration": 0.12,
      "midi": 56,
      "noteNumber": 56,
      "velocity": 0.74,
      "track": "(unnamed)",
      "channel": 2,
      "lane": "J"
    },
    {
      "time": 24.79,
      "duration": 0.124,
      "midi": 61,
      "noteNumber": 61,
      "velocity": 0.71,
      "track": "(unnamed)",
      "channel": 2,
      "lane": "J"
    },
    {
      "time": 24.79,
      "duration": 0.007,
      "midi": 51,
      "noteNumber": 51,
      "velocity": 0.83,
      "track": "(unnamed)",
      "channel": 9,
      "lane": "F"
    },
    {
      "time": 24.79,
      "duration": 0.079,
      "midi": 60,
      "noteNumber": 60,
      "velocity": 0.52,
      "track": "(unnamed)",
      "channel": 3,
      "lane": "J"
    },
    {
      "time": 24.79,
      "duration": 0.213,
      "midi": 34,
      "noteNumber": 34,
      "velocity": 0.51,
      "track": "(unnamed)",
      "channel": 1,
      "lane": "D"
    },
    {
      "time": 24.82,
      "duration": 0.12,
      "midi": 61,
      "noteNumber": 61,
      "velocity": 0.77,
      "track": "(unnamed)",
      "channel": 3,
      "lane": "J"
    },
    {
      "time": 24.91,
      "duration": 0.007,
      "midi": 40,
      "noteNumber": 40,
      "velocity": 0.26,
      "track": "(unnamed)",
      "channel": 9,
      "lane": "D"
    },
    {
      "time": 25.03,
      "duration": 0.007,
      "midi": 40,
      "noteNumber": 40,
      "velocity": 0.5,
      "track": "(unnamed)",
      "channel": 9,
      "lane": "D"
    },
    {
      "time": 25.15,
      "duration": 0.161,
      "midi": 39,
      "noteNumber": 39,
      "velocity": 0.6,
      "track": "(unnamed)",
      "channel": 2,
      "lane": "D"
    },
    {
      "time": 25.15,
      "duration": 0.007,
      "midi": 35,
      "noteNumber": 35,
      "velocity": 0.74,
      "track": "(unnamed)",
      "channel": 9,
      "lane": "D"
    },
    {
      "time": 25.15,
      "duration": 0.007,
      "midi": 51,
      "noteNumber": 51,
      "velocity": 0.72,
      "track": "(unnamed)",
      "channel": 9,
      "lane": "F"
    },
    {
      "time": 25.15,
      "duration": 0.876,
      "midi": 39,
      "noteNumber": 39,
      "velocity": 0.66,
      "track": "(unnamed)",
      "channel": 1,
      "lane": "D"
    },
    {
      "time": 25.183,
      "duration": 1.018,
      "midi": 63,
      "noteNumber": 63,
      "velocity": 0.71,
      "track": "(unnamed)",
      "channel": 3,
      "lane": "J"
    },
    {
      "time": 25.378,
      "duration": 0.056,
      "midi": 54,
      "noteNumber": 54,
      "velocity": 0.71,
      "track": "(unnamed)",
      "channel": 2,
      "lane": "J"
    },
    {
      "time": 25.378,
      "duration": 0.03,
      "midi": 58,
      "noteNumber": 58,
      "velocity": 0.54,
      "track": "(unnamed)",
      "channel": 2,
      "lane": "J"
    },
    {
      "time": 25.378,
      "duration": 0.06,
      "midi": 63,
      "noteNumber": 63,
      "velocity": 0.68,
      "track": "(unnamed)",
      "channel": 2,
      "lane": "J"
    },
    {
      "time": 25.509,
      "duration": 0.007,
      "midi": 51,
      "noteNumber": 51,
      "velocity": 0.72,
      "track": "(unnamed)",
      "channel": 9,
      "lane": "F"
    },
    {
      "time": 25.737,
      "duration": 0.112,
      "midi": 39,
      "noteNumber": 39,
      "velocity": 0.74,
      "track": "(unnamed)",
      "channel": 2,
      "lane": "D"
    },
    {
      "time": 25.748,
      "duration": 0.007,
      "midi": 40,
      "noteNumber": 40,
      "velocity": 0.53,
      "track": "(unnamed)",
      "channel": 9,
      "lane": "D"
    },
    {
      "time": 25.868,
      "duration": 0.086,
      "midi": 54,
      "noteNumber": 54,
      "velocity": 0.71,
      "track": "(unnamed)",
      "channel": 2,
      "lane": "J"
    },
    {
      "time": 25.868,
      "duration": 0.041,
      "midi": 58,
      "noteNumber": 58,
      "velocity": 0.68,
      "track": "(unnamed)",
      "channel": 2,
      "lane": "J"
    },
    {
      "time": 25.868,
      "duration": 0.049,
      "midi": 63,
      "noteNumber": 63,
      "velocity": 0.54,
      "track": "(unnamed)",
      "channel": 2,
      "lane": "J"
    },
    {
      "time": 25.868,
      "duration": 0.007,
      "midi": 51,
      "noteNumber": 51,
      "velocity": 0.72,
      "track": "(unnamed)",
      "channel": 9,
      "lane": "F"
    },
    {
      "time": 26.108,
      "duration": 0.007,
      "midi": 51,
      "noteNumber": 51,
      "velocity": 0.61,
      "track": "(unnamed)",
      "channel": 9,
      "lane": "F"
    },
    {
      "time": 26.228,
      "duration": 0.52,
      "midi": 46,
      "noteNumber": 46,
      "velocity": 0.71,
      "track": "(unnamed)",
      "channel": 2,
      "lane": "F"
    },
    {
      "time": 26.228,
      "duration": 0.007,
      "midi": 40,
      "noteNumber": 40,
      "velocity": 0.53,
      "track": "(unnamed)",
      "channel": 9,
      "lane": "D"
    },
    {
      "time": 26.228,
      "duration": 0.007,
      "midi": 51,
      "noteNumber": 51,
      "velocity": 0.69,
      "track": "(unnamed)",
      "channel": 9,
      "lane": "F"
    },
    {
      "time": 26.228,
      "duration": 0.273,
      "midi": 46,
      "noteNumber": 46,
      "velocity": 0.51,
      "track": "(unnamed)",
      "channel": 1,
      "lane": "F"
    },
    {
      "time": 26.231,
      "duration": 0.138,
      "midi": 65,
      "noteNumber": 65,
      "velocity": 0.8,
      "track": "(unnamed)",
      "channel": 3,
      "lane": "J"
    },
    {
      "time": 26.392,
      "duration": 0.071,
      "midi": 66,
      "noteNumber": 66,
      "velocity": 0.52,
      "track": "(unnamed)",
      "channel": 3,
      "lane": "K"
    },
    {
      "time": 26.46,
      "duration": 0.056,
      "midi": 65,
      "noteNumber": 65,
      "velocity": 0.52,
      "track": "(unnamed)",
      "channel": 3,
      "lane": "J"
    },
    {
      "time": 26.467,
      "duration": 0.007,
      "midi": 51,
      "noteNumber": 51,
      "velocity": 0.54,
      "track": "(unnamed)",
      "channel": 9,
      "lane": "F"
    },
    {
      "time": 26.516,
      "duration": 0.071,
      "midi": 63,
      "noteNumber": 63,
      "velocity": 0.74,
      "track": "(unnamed)",
      "channel": 3,
      "lane": "J"
    },
    {
      "time": 26.587,
      "duration": 0.12,
      "midi": 53,
      "noteNumber": 53,
      "velocity": 0.57,
      "track": "(unnamed)",
      "channel": 2,
      "lane": "F"
    },
    {
      "time": 26.587,
      "duration": 0.12,
      "midi": 56,
      "noteNumber": 56,
      "velocity": 0.74,
      "track": "(unnamed)",
      "channel": 2,
      "lane": "J"
    },
    {
      "time": 26.587,
      "duration": 0.124,
      "midi": 61,
      "noteNumber": 61,
      "velocity": 0.71,
      "track": "(unnamed)",
      "channel": 2,
      "lane": "J"
    },
    {
      "time": 26.587,
      "duration": 0.007,
      "midi": 51,
      "noteNumber": 51,
      "velocity": 0.83,
      "track": "(unnamed)",
      "channel": 9,
      "lane": "F"
    },
    {
      "time": 26.587,
      "duration": 0.213,
      "midi": 34,
      "noteNumber": 34,
      "velocity": 0.51,
      "track": "(unnamed)",
      "channel": 1,
      "lane": "D"
    },
    {
      "time": 26.594,
      "duration": 0.367,
      "midi": 61,
      "noteNumber": 61,
      "velocity": 0.63,
      "track": "(unnamed)",
      "channel": 3,
      "lane": "J"
    },
    {
      "time": 26.707,
      "duration": 0.007,
      "midi": 40,
      "noteNumber": 40,
      "velocity": 0.26,
      "track": "(unnamed)",
      "channel": 9,
      "lane": "D"
    },
    {
      "time": 26.826,
      "duration": 0.007,
      "midi": 40,
      "noteNumber": 40,
      "velocity": 0.5,
      "track": "(unnamed)",
      "channel": 9,
      "lane": "D"
    },
    {
      "time": 26.946,
      "duration": 0.161,
      "midi": 39,
      "noteNumber": 39,
      "velocity": 0.6,
      "track": "(unnamed)",
      "channel": 2,
      "lane": "D"
    },
    {
      "time": 26.946,
      "duration": 0.007,
      "midi": 35,
      "noteNumber": 35,
      "velocity": 0.74,
      "track": "(unnamed)",
      "channel": 9,
      "lane": "D"
    },
    {
      "time": 26.946,
      "duration": 0.007,
      "midi": 51,
      "noteNumber": 51,
      "velocity": 0.72,
      "track": "(unnamed)",
      "channel": 9,
      "lane": "F"
    },
    {
      "time": 26.946,
      "duration": 0.876,
      "midi": 39,
      "noteNumber": 39,
      "velocity": 0.66,
      "track": "(unnamed)",
      "channel": 1,
      "lane": "D"
    },
    {
      "time": 26.969,
      "duration": 1.037,
      "midi": 63,
      "noteNumber": 63,
      "velocity": 0.6,
      "track": "(unnamed)",
      "channel": 3,
      "lane": "J"
    },
    {
      "time": 27.174,
      "duration": 0.056,
      "midi": 54,
      "noteNumber": 54,
      "velocity": 0.71,
      "track": "(unnamed)",
      "channel": 2,
      "lane": "J"
    },
    {
      "time": 27.174,
      "duration": 0.03,
      "midi": 58,
      "noteNumber": 58,
      "velocity": 0.54,
      "track": "(unnamed)",
      "channel": 2,
      "lane": "J"
    },
    {
      "time": 27.174,
      "duration": 0.06,
      "midi": 63,
      "noteNumber": 63,
      "velocity": 0.68,
      "track": "(unnamed)",
      "channel": 2,
      "lane": "J"
    },
    {
      "time": 27.305,
      "duration": 0.007,
      "midi": 51,
      "noteNumber": 51,
      "velocity": 0.72,
      "track": "(unnamed)",
      "channel": 9,
      "lane": "F"
    },
    {
      "time": 27.534,
      "duration": 0.112,
      "midi": 39,
      "noteNumber": 39,
      "velocity": 0.74,
      "track": "(unnamed)",
      "channel": 2,
      "lane": "D"
    },
    {
      "time": 27.545,
      "duration": 0.007,
      "midi": 40,
      "noteNumber": 40,
      "velocity": 0.53,
      "track": "(unnamed)",
      "channel": 9,
      "lane": "D"
    },
    {
      "time": 27.665,
      "duration": 0.086,
      "midi": 54,
      "noteNumber": 54,
      "velocity": 0.71,
      "track": "(unnamed)",
      "channel": 2,
      "lane": "J"
    },
    {
      "time": 27.665,
      "duration": 0.041,
      "midi": 58,
      "noteNumber": 58,
      "velocity": 0.68,
      "track": "(unnamed)",
      "channel": 2,
      "lane": "J"
    },
    {
      "time": 27.665,
      "duration": 0.049,
      "midi": 63,
      "noteNumber": 63,
      "velocity": 0.54,
      "track": "(unnamed)",
      "channel": 2,
      "lane": "J"
    },
    {
      "time": 27.665,
      "duration": 0.007,
      "midi": 51,
      "noteNumber": 51,
      "velocity": 0.72,
      "track": "(unnamed)",
      "channel": 9,
      "lane": "F"
    },
    {
      "time": 27.904,
      "duration": 0.007,
      "midi": 51,
      "noteNumber": 51,
      "velocity": 0.61,
      "track": "(unnamed)",
      "channel": 9,
      "lane": "F"
    },
    {
      "time": 28.024,
      "duration": 0.52,
      "midi": 46,
      "noteNumber": 46,
      "velocity": 0.71,
      "track": "(unnamed)",
      "channel": 2,
      "lane": "F"
    },
    {
      "time": 28.024,
      "duration": 0.007,
      "midi": 40,
      "noteNumber": 40,
      "velocity": 0.53,
      "track": "(unnamed)",
      "channel": 9,
      "lane": "D"
    },
    {
      "time": 28.024,
      "duration": 0.007,
      "midi": 51,
      "noteNumber": 51,
      "velocity": 0.69,
      "track": "(unnamed)",
      "channel": 9,
      "lane": "F"
    },
    {
      "time": 28.024,
      "duration": 0.273,
      "midi": 46,
      "noteNumber": 46,
      "velocity": 0.51,
      "track": "(unnamed)",
      "channel": 1,
      "lane": "F"
    },
    {
      "time": 28.031,
      "duration": 0.138,
      "midi": 61,
      "noteNumber": 61,
      "velocity": 0.71,
      "track": "(unnamed)",
      "channel": 3,
      "lane": "J"
    },
    {
      "time": 28.222,
      "duration": 0.041,
      "midi": 63,
      "noteNumber": 63,
      "velocity": 0.46,
      "track": "(unnamed)",
      "channel": 3,
      "lane": "J"
    },
    {
      "time": 28.241,
      "duration": 0.075,
      "midi": 61,
      "noteNumber": 61,
      "velocity": 0.52,
      "track": "(unnamed)",
      "channel": 3,
      "lane": "J"
    },
    {
      "time": 28.263,
      "duration": 0.007,
      "midi": 51,
      "noteNumber": 51,
      "velocity": 0.54,
      "track": "(unnamed)",
      "channel": 9,
      "lane": "F"
    },
    {
      "time": 28.312,
      "duration": 0.09,
      "midi": 58,
      "noteNumber": 58,
      "velocity": 0.74,
      "track": "(unnamed)",
      "channel": 3,
      "lane": "J"
    },
    {
      "time": 28.383,
      "duration": 0.12,
      "midi": 53,
      "noteNumber": 53,
      "velocity": 0.57,
      "track": "(unnamed)",
      "channel": 2,
      "lane": "F"
    },
    {
      "time": 28.383,
      "duration": 0.12,
      "midi": 56,
      "noteNumber": 56,
      "velocity": 0.74,
      "track": "(unnamed)",
      "channel": 2,
      "lane": "J"
    },
    {
      "time": 28.383,
      "duration": 0.124,
      "midi": 61,
      "noteNumber": 61,
      "velocity": 0.71,
      "track": "(unnamed)",
      "channel": 2,
      "lane": "J"
    },
    {
      "time": 28.383,
      "duration": 0.007,
      "midi": 51,
      "noteNumber": 51,
      "velocity": 0.83,
      "track": "(unnamed)",
      "channel": 9,
      "lane": "F"
    },
    {
      "time": 28.383,
      "duration": 0.213,
      "midi": 34,
      "noteNumber": 34,
      "velocity": 0.51,
      "track": "(unnamed)",
      "channel": 1,
      "lane": "D"
    },
    {
      "time": 28.394,
      "duration": 0.348,
      "midi": 56,
      "noteNumber": 56,
      "velocity": 0.6,
      "track": "(unnamed)",
      "channel": 3,
      "lane": "J"
    },
    {
      "time": 28.503,
      "duration": 0.007,
      "midi": 40,
      "noteNumber": 40,
      "velocity": 0.26,
      "track": "(unnamed)",
      "channel": 9,
      "lane": "D"
    },
    {
      "time": 28.623,
      "duration": 0.007,
      "midi": 40,
      "noteNumber": 40,
      "velocity": 0.5,
      "track": "(unnamed)",
      "channel": 9,
      "lane": "D"
    },
    {
      "time": 28.742,
      "duration": 0.161,
      "midi": 39,
      "noteNumber": 39,
      "velocity": 0.6,
      "track": "(unnamed)",
      "channel": 2,
      "lane": "D"
    },
    {
      "time": 28.742,
      "duration": 0.007,
      "midi": 35,
      "noteNumber": 35,
      "velocity": 0.74,
      "track": "(unnamed)",
      "channel": 9,
      "lane": "D"
    },
    {
      "time": 28.742,
      "duration": 0.007,
      "midi": 51,
      "noteNumber": 51,
      "velocity": 0.72,
      "track": "(unnamed)",
      "channel": 9,
      "lane": "F"
    },
    {
      "time": 28.742,
      "duration": 0.894,
      "midi": 58,
      "noteNumber": 58,
      "velocity": 0.68,
      "track": "(unnamed)",
      "channel": 3,
      "lane": "J"
    },
    {
      "time": 28.742,
      "duration": 0.876,
      "midi": 39,
      "noteNumber": 39,
      "velocity": 0.66,
      "track": "(unnamed)",
      "channel": 1,
      "lane": "D"
    },
    {
      "time": 28.971,
      "duration": 0.056,
      "midi": 54,
      "noteNumber": 54,
      "velocity": 0.71,
      "track": "(unnamed)",
      "channel": 2,
      "lane": "J"
    },
    {
      "time": 28.971,
      "duration": 0.03,
      "midi": 58,
      "noteNumber": 58,
      "velocity": 0.54,
      "track": "(unnamed)",
      "channel": 2,
      "lane": "J"
    },
    {
      "time": 28.971,
      "duration": 0.06,
      "midi": 63,
      "noteNumber": 63,
      "velocity": 0.68,
      "track": "(unnamed)",
      "channel": 2,
      "lane": "J"
    },
    {
      "time": 29.102,
      "duration": 0.007,
      "midi": 51,
      "noteNumber": 51,
      "velocity": 0.72,
      "track": "(unnamed)",
      "channel": 9,
      "lane": "F"
    },
    {
      "time": 29.33,
      "duration": 0.112,
      "midi": 39,
      "noteNumber": 39,
      "velocity": 0.74,
      "track": "(unnamed)",
      "channel": 2,
      "lane": "D"
    },
    {
      "time": 29.341,
      "duration": 0.007,
      "midi": 40,
      "noteNumber": 40,
      "velocity": 0.53,
      "track": "(unnamed)",
      "channel": 9,
      "lane": "D"
    },
    {
      "time": 29.461,
      "duration": 0.086,
      "midi": 54,
      "noteNumber": 54,
      "velocity": 0.71,
      "track": "(unnamed)",
      "channel": 2,
      "lane": "J"
    },
    {
      "time": 29.461,
      "duration": 0.041,
      "midi": 58,
      "noteNumber": 58,
      "velocity": 0.68,
      "track": "(unnamed)",
      "channel": 2,
      "lane": "J"
    },
    {
      "time": 29.461,
      "duration": 0.049,
      "midi": 63,
      "noteNumber": 63,
      "velocity": 0.54,
      "track": "(unnamed)",
      "channel": 2,
      "lane": "J"
    },
    {
      "time": 29.461,
      "duration": 0.007,
      "midi": 51,
      "noteNumber": 51,
      "velocity": 0.72,
      "track": "(unnamed)",
      "channel": 9,
      "lane": "F"
    },
    {
      "time": 29.701,
      "duration": 0.007,
      "midi": 51,
      "noteNumber": 51,
      "velocity": 0.61,
      "track": "(unnamed)",
      "channel": 9,
      "lane": "F"
    },
    {
      "time": 29.82,
      "duration": 0.52,
      "midi": 46,
      "noteNumber": 46,
      "velocity": 0.71,
      "track": "(unnamed)",
      "channel": 2,
      "lane": "F"
    },
    {
      "time": 29.82,
      "duration": 0.007,
      "midi": 40,
      "noteNumber": 40,
      "velocity": 0.53,
      "track": "(unnamed)",
      "channel": 9,
      "lane": "D"
    },
    {
      "time": 29.82,
      "duration": 0.007,
      "midi": 51,
      "noteNumber": 51,
      "velocity": 0.69,
      "track": "(unnamed)",
      "channel": 9,
      "lane": "F"
    },
    {
      "time": 29.82,
      "duration": 0.273,
      "midi": 46,
      "noteNumber": 46,
      "velocity": 0.51,
      "track": "(unnamed)",
      "channel": 1,
      "lane": "F"
    },
    {
      "time": 29.847,
      "duration": 0.138,
      "midi": 58,
      "noteNumber": 58,
      "velocity": 0.52,
      "track": "(unnamed)",
      "channel": 3,
      "lane": "J"
    },
    {
      "time": 30.049,
      "duration": 0.109,
      "midi": 63,
      "noteNumber": 63,
      "velocity": 0.54,
      "track": "(unnamed)",
      "channel": 3,
      "lane": "J"
    },
    {
      "time": 30.06,
      "duration": 0.007,
      "midi": 51,
      "noteNumber": 51,
      "velocity": 0.54,
      "track": "(unnamed)",
      "channel": 9,
      "lane": "F"
    },
    {
      "time": 30.18,
      "duration": 0.12,
      "midi": 53,
      "noteNumber": 53,
      "velocity": 0.57,
      "track": "(unnamed)",
      "channel": 2,
      "lane": "F"
    },
    {
      "time": 30.18,
      "duration": 0.12,
      "midi": 56,
      "noteNumber": 56,
      "velocity": 0.74,
      "track": "(unnamed)",
      "channel": 2,
      "lane": "J"
    },
    {
      "time": 30.18,
      "duration": 0.124,
      "midi": 61,
      "noteNumber": 61,
      "velocity": 0.71,
      "track": "(unnamed)",
      "channel": 2,
      "lane": "J"
    },
    {
      "time": 30.18,
      "duration": 0.007,
      "midi": 51,
      "noteNumber": 51,
      "velocity": 0.83,
      "track": "(unnamed)",
      "channel": 9,
      "lane": "F"
    },
    {
      "time": 30.18,
      "duration": 0.213,
      "midi": 34,
      "noteNumber": 34,
      "velocity": 0.51,
      "track": "(unnamed)",
      "channel": 1,
      "lane": "D"
    },
    {
      "time": 30.198,
      "duration": 0.131,
      "midi": 66,
      "noteNumber": 66,
      "velocity": 0.71,
      "track": "(unnamed)",
      "channel": 3,
      "lane": "K"
    },
    {
      "time": 30.299,
      "duration": 0.007,
      "midi": 40,
      "noteNumber": 40,
      "velocity": 0.26,
      "track": "(unnamed)",
      "channel": 9,
      "lane": "D"
    },
    {
      "time": 30.385,
      "duration": 0.112,
      "midi": 68,
      "noteNumber": 68,
      "velocity": 0.85,
      "track": "(unnamed)",
      "channel": 3,
      "lane": "K"
    },
    {
      "time": 30.419,
      "duration": 0.007,
      "midi": 40,
      "noteNumber": 40,
      "velocity": 0.5,
      "track": "(unnamed)",
      "channel": 9,
      "lane": "D"
    },
    {
      "time": 30.539,
      "duration": 0.161,
      "midi": 39,
      "noteNumber": 39,
      "velocity": 0.6,
      "track": "(unnamed)",
      "channel": 2,
      "lane": "D"
    },
    {
      "time": 30.539,
      "duration": 0.007,
      "midi": 35,
      "noteNumber": 35,
      "velocity": 0.74,
      "track": "(unnamed)",
      "channel": 9,
      "lane": "D"
    },
    {
      "time": 30.539,
      "duration": 0.007,
      "midi": 51,
      "noteNumber": 51,
      "velocity": 0.72,
      "track": "(unnamed)",
      "channel": 9,
      "lane": "F"
    },
    {
      "time": 30.539,
      "duration": 0.876,
      "midi": 39,
      "noteNumber": 39,
      "velocity": 0.66,
      "track": "(unnamed)",
      "channel": 1,
      "lane": "D"
    },
    {
      "time": 30.565,
      "duration": 0.146,
      "midi": 69,
      "noteNumber": 69,
      "velocity": 0.94,
      "track": "(unnamed)",
      "channel": 3,
      "lane": "K"
    },
    {
      "time": 30.745,
      "duration": 0.094,
      "midi": 70,
      "noteNumber": 70,
      "velocity": 0.77,
      "track": "(unnamed)",
      "channel": 3,
      "lane": "K"
    },
    {
      "time": 30.767,
      "duration": 0.056,
      "midi": 54,
      "noteNumber": 54,
      "velocity": 0.71,
      "track": "(unnamed)",
      "channel": 2,
      "lane": "J"
    },
    {
      "time": 30.767,
      "duration": 0.03,
      "midi": 58,
      "noteNumber": 58,
      "velocity": 0.54,
      "track": "(unnamed)",
      "channel": 2,
      "lane": "J"
    },
    {
      "time": 30.767,
      "duration": 0.06,
      "midi": 63,
      "noteNumber": 63,
      "velocity": 0.68,
      "track": "(unnamed)",
      "channel": 2,
      "lane": "J"
    },
    {
      "time": 30.898,
      "duration": 0.007,
      "midi": 51,
      "noteNumber": 51,
      "velocity": 0.72,
      "track": "(unnamed)",
      "channel": 9,
      "lane": "F"
    },
    {
      "time": 30.962,
      "duration": 0.071,
      "midi": 69,
      "noteNumber": 69,
      "velocity": 0.63,
      "track": "(unnamed)",
      "channel": 3,
      "lane": "K"
    },
    {
      "time": 31.126,
      "duration": 0.112,
      "midi": 39,
      "noteNumber": 39,
      "velocity": 0.74,
      "track": "(unnamed)",
      "channel": 2,
      "lane": "D"
    },
    {
      "time": 31.138,
      "duration": 0.007,
      "midi": 40,
      "noteNumber": 40,
      "velocity": 0.53,
      "track": "(unnamed)",
      "channel": 9,
      "lane": "D"
    },
    {
      "time": 31.149,
      "duration": 0.12,
      "midi": 68,
      "noteNumber": 68,
      "velocity": 0.8,
      "track": "(unnamed)",
      "channel": 3,
      "lane": "K"
    },
    {
      "time": 31.257,
      "duration": 0.086,
      "midi": 54,
      "noteNumber": 54,
      "velocity": 0.71,
      "track": "(unnamed)",
      "channel": 2,
      "lane": "J"
    },
    {
      "time": 31.257,
      "duration": 0.041,
      "midi": 58,
      "noteNumber": 58,
      "velocity": 0.68,
      "track": "(unnamed)",
      "channel": 2,
      "lane": "J"
    },
    {
      "time": 31.257,
      "duration": 0.049,
      "midi": 63,
      "noteNumber": 63,
      "velocity": 0.54,
      "track": "(unnamed)",
      "channel": 2,
      "lane": "J"
    },
    {
      "time": 31.257,
      "duration": 0.007,
      "midi": 51,
      "noteNumber": 51,
      "velocity": 0.72,
      "track": "(unnamed)",
      "channel": 9,
      "lane": "F"
    },
    {
      "time": 31.295,
      "duration": 0.172,
      "midi": 66,
      "noteNumber": 66,
      "velocity": 0.85,
      "track": "(unnamed)",
      "channel": 3,
      "lane": "K"
    },
    {
      "time": 31.497,
      "duration": 0.007,
      "midi": 51,
      "noteNumber": 51,
      "velocity": 0.61,
      "track": "(unnamed)",
      "channel": 9,
      "lane": "F"
    },
    {
      "time": 31.617,
      "duration": 0.52,
      "midi": 46,
      "noteNumber": 46,
      "velocity": 0.71,
      "track": "(unnamed)",
      "channel": 2,
      "lane": "F"
    },
    {
      "time": 31.617,
      "duration": 0.007,
      "midi": 40,
      "noteNumber": 40,
      "velocity": 0.53,
      "track": "(unnamed)",
      "channel": 9,
      "lane": "D"
    },
    {
      "time": 31.617,
      "duration": 0.007,
      "midi": 51,
      "noteNumber": 51,
      "velocity": 0.69,
      "track": "(unnamed)",
      "channel": 9,
      "lane": "F"
    },
    {
      "time": 31.617,
      "duration": 0.273,
      "midi": 46,
      "noteNumber": 46,
      "velocity": 0.51,
      "track": "(unnamed)",
      "channel": 1,
      "lane": "F"
    },
    {
      "time": 31.632,
      "duration": 0.314,
      "midi": 58,
      "noteNumber": 58,
      "velocity": 0.54,
      "track": "(unnamed)",
      "channel": 3,
      "lane": "J"
    },
    {
      "time": 31.856,
      "duration": 0.007,
      "midi": 51,
      "noteNumber": 51,
      "velocity": 0.54,
      "track": "(unnamed)",
      "channel": 9,
      "lane": "F"
    },
    {
      "time": 31.901,
      "duration": 0.105,
      "midi": 59,
      "noteNumber": 59,
      "velocity": 0.56,
      "track": "(unnamed)",
      "channel": 3,
      "lane": "J"
    },
    {
      "time": 31.976,
      "duration": 0.12,
      "midi": 53,
      "noteNumber": 53,
      "velocity": 0.57,
      "track": "(unnamed)",
      "channel": 2,
      "lane": "F"
    },
    {
      "time": 31.976,
      "duration": 0.12,
      "midi": 56,
      "noteNumber": 56,
      "velocity": 0.74,
      "track": "(unnamed)",
      "channel": 2,
      "lane": "J"
    },
    {
      "time": 31.976,
      "duration": 0.124,
      "midi": 61,
      "noteNumber": 61,
      "velocity": 0.71,
      "track": "(unnamed)",
      "channel": 2,
      "lane": "J"
    },
    {
      "time": 31.976,
      "duration": 0.007,
      "midi": 51,
      "noteNumber": 51,
      "velocity": 0.83,
      "track": "(unnamed)",
      "channel": 9,
      "lane": "F"
    },
    {
      "time": 31.976,
      "duration": 0.079,
      "midi": 60,
      "noteNumber": 60,
      "velocity": 0.52,
      "track": "(unnamed)",
      "channel": 3,
      "lane": "J"
    },
    {
      "time": 31.976,
      "duration": 0.213,
      "midi": 34,
      "noteNumber": 34,
      "velocity": 0.51,
      "track": "(unnamed)",
      "channel": 1,
      "lane": "D"
    },
    {
      "time": 32.006,
      "duration": 0.12,
      "midi": 61,
      "noteNumber": 61,
      "velocity": 0.77,
      "track": "(unnamed)",
      "channel": 3,
      "lane": "J"
    },
    {
      "time": 32.096,
      "duration": 0.007,
      "midi": 40,
      "noteNumber": 40,
      "velocity": 0.26,
      "track": "(unnamed)",
      "channel": 9,
      "lane": "D"
    },
    {
      "time": 32.216,
      "duration": 0.007,
      "midi": 40,
      "noteNumber": 40,
      "velocity": 0.5,
      "track": "(unnamed)",
      "channel": 9,
      "lane": "D"
    },
    {
      "time": 32.335,
      "duration": 0.161,
      "midi": 39,
      "noteNumber": 39,
      "velocity": 0.6,
      "track": "(unnamed)",
      "channel": 2,
      "lane": "D"
    },
    {
      "time": 32.335,
      "duration": 0.007,
      "midi": 35,
      "noteNumber": 35,
      "velocity": 0.74,
      "track": "(unnamed)",
      "channel": 9,
      "lane": "D"
    },
    {
      "time": 32.335,
      "duration": 0.007,
      "midi": 51,
      "noteNumber": 51,
      "velocity": 0.72,
      "track": "(unnamed)",
      "channel": 9,
      "lane": "F"
    },
    {
      "time": 32.335,
      "duration": 0.876,
      "midi": 39,
      "noteNumber": 39,
      "velocity": 0.66,
      "track": "(unnamed)",
      "channel": 1,
      "lane": "D"
    },
    {
      "time": 32.369,
      "duration": 1.018,
      "midi": 63,
      "noteNumber": 63,
      "velocity": 0.71,
      "track": "(unnamed)",
      "channel": 3,
      "lane": "J"
    },
    {
      "time": 32.564,
      "duration": 0.056,
      "midi": 54,
      "noteNumber": 54,
      "velocity": 0.71,
      "track": "(unnamed)",
      "channel": 2,
      "lane": "J"
    },
    {
      "time": 32.564,
      "duration": 0.03,
      "midi": 58,
      "noteNumber": 58,
      "velocity": 0.54,
      "track": "(unnamed)",
      "channel": 2,
      "lane": "J"
    },
    {
      "time": 32.564,
      "duration": 0.06,
      "midi": 63,
      "noteNumber": 63,
      "velocity": 0.68,
      "track": "(unnamed)",
      "channel": 2,
      "lane": "J"
    },
    {
      "time": 32.695,
      "duration": 0.007,
      "midi": 51,
      "noteNumber": 51,
      "velocity": 0.72,
      "track": "(unnamed)",
      "channel": 9,
      "lane": "F"
    },
    {
      "time": 32.923,
      "duration": 0.112,
      "midi": 39,
      "noteNumber": 39,
      "velocity": 0.74,
      "track": "(unnamed)",
      "channel": 2,
      "lane": "D"
    },
    {
      "time": 32.934,
      "duration": 0.007,
      "midi": 40,
      "noteNumber": 40,
      "velocity": 0.53,
      "track": "(unnamed)",
      "channel": 9,
      "lane": "D"
    },
    {
      "time": 33.054,
      "duration": 0.086,
      "midi": 54,
      "noteNumber": 54,
      "velocity": 0.71,
      "track": "(unnamed)",
      "channel": 2,
      "lane": "J"
    },
    {
      "time": 33.054,
      "duration": 0.041,
      "midi": 58,
      "noteNumber": 58,
      "velocity": 0.68,
      "track": "(unnamed)",
      "channel": 2,
      "lane": "J"
    },
    {
      "time": 33.054,
      "duration": 0.049,
      "midi": 63,
      "noteNumber": 63,
      "velocity": 0.54,
      "track": "(unnamed)",
      "channel": 2,
      "lane": "J"
    },
    {
      "time": 33.054,
      "duration": 0.007,
      "midi": 51,
      "noteNumber": 51,
      "velocity": 0.72,
      "track": "(unnamed)",
      "channel": 9,
      "lane": "F"
    },
    {
      "time": 33.293,
      "duration": 0.007,
      "midi": 51,
      "noteNumber": 51,
      "velocity": 0.61,
      "track": "(unnamed)",
      "channel": 9,
      "lane": "F"
    },
    {
      "time": 33.413,
      "duration": 0.52,
      "midi": 46,
      "noteNumber": 46,
      "velocity": 0.71,
      "track": "(unnamed)",
      "channel": 2,
      "lane": "F"
    },
    {
      "time": 33.413,
      "duration": 0.007,
      "midi": 40,
      "noteNumber": 40,
      "velocity": 0.53,
      "track": "(unnamed)",
      "channel": 9,
      "lane": "D"
    },
    {
      "time": 33.413,
      "duration": 0.007,
      "midi": 51,
      "noteNumber": 51,
      "velocity": 0.69,
      "track": "(unnamed)",
      "channel": 9,
      "lane": "F"
    },
    {
      "time": 33.413,
      "duration": 0.273,
      "midi": 46,
      "noteNumber": 46,
      "velocity": 0.51,
      "track": "(unnamed)",
      "channel": 1,
      "lane": "F"
    },
    {
      "time": 33.417,
      "duration": 0.138,
      "midi": 61,
      "noteNumber": 61,
      "velocity": 0.66,
      "track": "(unnamed)",
      "channel": 3,
      "lane": "J"
    },
    {
      "time": 33.578,
      "duration": 0.071,
      "midi": 63,
      "noteNumber": 63,
      "velocity": 0.52,
      "track": "(unnamed)",
      "channel": 3,
      "lane": "J"
    },
    {
      "time": 33.645,
      "duration": 0.056,
      "midi": 61,
      "noteNumber": 61,
      "velocity": 0.52,
      "track": "(unnamed)",
      "channel": 3,
      "lane": "J"
    },
    {
      "time": 33.653,
      "duration": 0.007,
      "midi": 51,
      "noteNumber": 51,
      "velocity": 0.54,
      "track": "(unnamed)",
      "channel": 9,
      "lane": "F"
    },
    {
      "time": 33.701,
      "duration": 0.071,
      "midi": 58,
      "noteNumber": 58,
      "velocity": 0.74,
      "track": "(unnamed)",
      "channel": 3,
      "lane": "J"
    },
    {
      "time": 33.772,
      "duration": 0.12,
      "midi": 53,
      "noteNumber": 53,
      "velocity": 0.57,
      "track": "(unnamed)",
      "channel": 2,
      "lane": "F"
    },
    {
      "time": 33.772,
      "duration": 0.12,
      "midi": 56,
      "noteNumber": 56,
      "velocity": 0.74,
      "track": "(unnamed)",
      "channel": 2,
      "lane": "J"
    },
    {
      "time": 33.772,
      "duration": 0.124,
      "midi": 61,
      "noteNumber": 61,
      "velocity": 0.71,
      "track": "(unnamed)",
      "channel": 2,
      "lane": "J"
    },
    {
      "time": 33.772,
      "duration": 0.007,
      "midi": 51,
      "noteNumber": 51,
      "velocity": 0.83,
      "track": "(unnamed)",
      "channel": 9,
      "lane": "F"
    },
    {
      "time": 33.772,
      "duration": 0.213,
      "midi": 34,
      "noteNumber": 34,
      "velocity": 0.51,
      "track": "(unnamed)",
      "channel": 1,
      "lane": "D"
    },
    {
      "time": 33.78,
      "duration": 0.352,
      "midi": 56,
      "noteNumber": 56,
      "velocity": 0.63,
      "track": "(unnamed)",
      "channel": 3,
      "lane": "J"
    },
    {
      "time": 33.892,
      "duration": 0.007,
      "midi": 40,
      "noteNumber": 40,
      "velocity": 0.26,
      "track": "(unnamed)",
      "channel": 9,
      "lane": "D"
    },
    {
      "time": 34.012,
      "duration": 0.007,
      "midi": 40,
      "noteNumber": 40,
      "velocity": 0.5,
      "track": "(unnamed)",
      "channel": 9,
      "lane": "D"
    },
    {
      "time": 34.132,
      "duration": 0.161,
      "midi": 39,
      "noteNumber": 39,
      "velocity": 0.6,
      "track": "(unnamed)",
      "channel": 2,
      "lane": "D"
    },
    {
      "time": 34.132,
      "duration": 0.007,
      "midi": 35,
      "noteNumber": 35,
      "velocity": 0.74,
      "track": "(unnamed)",
      "channel": 9,
      "lane": "D"
    },
    {
      "time": 34.132,
      "duration": 0.007,
      "midi": 51,
      "noteNumber": 51,
      "velocity": 0.72,
      "track": "(unnamed)",
      "channel": 9,
      "lane": "F"
    },
    {
      "time": 34.132,
      "duration": 0.876,
      "midi": 39,
      "noteNumber": 39,
      "velocity": 0.66,
      "track": "(unnamed)",
      "channel": 1,
      "lane": "D"
    },
    {
      "time": 34.165,
      "duration": 1.018,
      "midi": 58,
      "noteNumber": 58,
      "velocity": 0.71,
      "track": "(unnamed)",
      "channel": 3,
      "lane": "J"
    },
    {
      "time": 34.36,
      "duration": 0.056,
      "midi": 54,
      "noteNumber": 54,
      "velocity": 0.71,
      "track": "(unnamed)",
      "channel": 2,
      "lane": "J"
    },
    {
      "time": 34.36,
      "duration": 0.03,
      "midi": 58,
      "noteNumber": 58,
      "velocity": 0.54,
      "track": "(unnamed)",
      "channel": 2,
      "lane": "J"
    },
    {
      "time": 34.36,
      "duration": 0.06,
      "midi": 63,
      "noteNumber": 63,
      "velocity": 0.68,
      "track": "(unnamed)",
      "channel": 2,
      "lane": "J"
    },
    {
      "time": 34.491,
      "duration": 0.007,
      "midi": 51,
      "noteNumber": 51,
      "velocity": 0.72,
      "track": "(unnamed)",
      "channel": 9,
      "lane": "F"
    },
    {
      "time": 34.719,
      "duration": 0.112,
      "midi": 39,
      "noteNumber": 39,
      "velocity": 0.74,
      "track": "(unnamed)",
      "channel": 2,
      "lane": "D"
    },
    {
      "time": 34.73,
      "duration": 0.007,
      "midi": 40,
      "noteNumber": 40,
      "velocity": 0.53,
      "track": "(unnamed)",
      "channel": 9,
      "lane": "D"
    },
    {
      "time": 34.85,
      "duration": 0.086,
      "midi": 54,
      "noteNumber": 54,
      "velocity": 0.71,
      "track": "(unnamed)",
      "channel": 2,
      "lane": "J"
    },
    {
      "time": 34.85,
      "duration": 0.041,
      "midi": 58,
      "noteNumber": 58,
      "velocity": 0.68,
      "track": "(unnamed)",
      "channel": 2,
      "lane": "J"
    },
    {
      "time": 34.85,
      "duration": 0.049,
      "midi": 63,
      "noteNumber": 63,
      "velocity": 0.54,
      "track": "(unnamed)",
      "channel": 2,
      "lane": "J"
    },
    {
      "time": 34.85,
      "duration": 0.007,
      "midi": 51,
      "noteNumber": 51,
      "velocity": 0.72,
      "track": "(unnamed)",
      "channel": 9,
      "lane": "F"
    },
    {
      "time": 35.09,
      "duration": 0.007,
      "midi": 51,
      "noteNumber": 51,
      "velocity": 0.61,
      "track": "(unnamed)",
      "channel": 9,
      "lane": "F"
    },
    {
      "time": 35.21,
      "duration": 0.52,
      "midi": 46,
      "noteNumber": 46,
      "velocity": 0.71,
      "track": "(unnamed)",
      "channel": 2,
      "lane": "F"
    },
    {
      "time": 35.21,
      "duration": 0.007,
      "midi": 40,
      "noteNumber": 40,
      "velocity": 0.53,
      "track": "(unnamed)",
      "channel": 9,
      "lane": "D"
    },
    {
      "time": 35.21,
      "duration": 0.007,
      "midi": 51,
      "noteNumber": 51,
      "velocity": 0.69,
      "track": "(unnamed)",
      "channel": 9,
      "lane": "F"
    },
    {
      "time": 35.21,
      "duration": 0.273,
      "midi": 46,
      "noteNumber": 46,
      "velocity": 0.51,
      "track": "(unnamed)",
      "channel": 1,
      "lane": "F"
    },
    {
      "time": 35.213,
      "duration": 0.138,
      "midi": 65,
      "noteNumber": 65,
      "velocity": 0.66,
      "track": "(unnamed)",
      "channel": 3,
      "lane": "J"
    },
    {
      "time": 35.374,
      "duration": 0.071,
      "midi": 66,
      "noteNumber": 66,
      "velocity": 0.52,
      "track": "(unnamed)",
      "channel": 3,
      "lane": "K"
    },
    {
      "time": 35.442,
      "duration": 0.056,
      "midi": 65,
      "noteNumber": 65,
      "velocity": 0.52,
      "track": "(unnamed)",
      "channel": 3,
      "lane": "J"
    },
    {
      "time": 35.449,
      "duration": 0.007,
      "midi": 51,
      "noteNumber": 51,
      "velocity": 0.54,
      "track": "(unnamed)",
      "channel": 9,
      "lane": "F"
    },
    {
      "time": 35.498,
      "duration": 0.071,
      "midi": 63,
      "noteNumber": 63,
      "velocity": 0.74,
      "track": "(unnamed)",
      "channel": 3,
      "lane": "J"
    },
    {
      "time": 35.569,
      "duration": 0.12,
      "midi": 53,
      "noteNumber": 53,
      "velocity": 0.57,
      "track": "(unnamed)",
      "channel": 2,
      "lane": "F"
    },
    {
      "time": 35.569,
      "duration": 0.12,
      "midi": 56,
      "noteNumber": 56,
      "velocity": 0.74,
      "track": "(unnamed)",
      "channel": 2,
      "lane": "J"
    },
    {
      "time": 35.569,
      "duration": 0.124,
      "midi": 61,
      "noteNumber": 61,
      "velocity": 0.71,
      "track": "(unnamed)",
      "channel": 2,
      "lane": "J"
    },
    {
      "time": 35.569,
      "duration": 0.007,
      "midi": 51,
      "noteNumber": 51,
      "velocity": 0.83,
      "track": "(unnamed)",
      "channel": 9,
      "lane": "F"
    },
    {
      "time": 35.569,
      "duration": 0.213,
      "midi": 34,
      "noteNumber": 34,
      "velocity": 0.51,
      "track": "(unnamed)",
      "channel": 1,
      "lane": "D"
    },
    {
      "time": 35.576,
      "duration": 0.352,
      "midi": 61,
      "noteNumber": 61,
      "velocity": 0.63,
      "track": "(unnamed)",
      "channel": 3,
      "lane": "J"
    },
    {
      "time": 35.689,
      "duration": 0.007,
      "midi": 40,
      "noteNumber": 40,
      "velocity": 0.26,
      "track": "(unnamed)",
      "channel": 9,
      "lane": "D"
    },
    {
      "time": 35.808,
      "duration": 0.007,
      "midi": 40,
      "noteNumber": 40,
      "velocity": 0.5,
      "track": "(unnamed)",
      "channel": 9,
      "lane": "D"
    },
    {
      "time": 35.928,
      "duration": 0.161,
      "midi": 39,
      "noteNumber": 39,
      "velocity": 0.6,
      "track": "(unnamed)",
      "channel": 2,
      "lane": "D"
    },
    {
      "time": 35.928,
      "duration": 0.007,
      "midi": 35,
      "noteNumber": 35,
      "velocity": 0.74,
      "track": "(unnamed)",
      "channel": 9,
      "lane": "D"
    },
    {
      "time": 35.928,
      "duration": 0.007,
      "midi": 51,
      "noteNumber": 51,
      "velocity": 0.72,
      "track": "(unnamed)",
      "channel": 9,
      "lane": "F"
    },
    {
      "time": 35.928,
      "duration": 0.876,
      "midi": 39,
      "noteNumber": 39,
      "velocity": 0.66,
      "track": "(unnamed)",
      "channel": 1,
      "lane": "D"
    },
    {
      "time": 35.973,
      "duration": 0.599,
      "midi": 63,
      "noteNumber": 63,
      "velocity": 0.52,
      "track": "(unnamed)",
      "channel": 3,
      "lane": "J"
    },
    {
      "time": 36.156,
      "duration": 0.056,
      "midi": 54,
      "noteNumber": 54,
      "velocity": 0.71,
      "track": "(unnamed)",
      "channel": 2,
      "lane": "J"
    },
    {
      "time": 36.156,
      "duration": 0.03,
      "midi": 58,
      "noteNumber": 58,
      "velocity": 0.54,
      "track": "(unnamed)",
      "channel": 2,
      "lane": "J"
    },
    {
      "time": 36.156,
      "duration": 0.06,
      "midi": 63,
      "noteNumber": 63,
      "velocity": 0.68,
      "track": "(unnamed)",
      "channel": 2,
      "lane": "J"
    },
    {
      "time": 36.287,
      "duration": 0.007,
      "midi": 51,
      "noteNumber": 51,
      "velocity": 0.72,
      "track": "(unnamed)",
      "channel": 9,
      "lane": "F"
    },
    {
      "time": 36.516,
      "duration": 0.112,
      "midi": 39,
      "noteNumber": 39,
      "velocity": 0.74,
      "track": "(unnamed)",
      "channel": 2,
      "lane": "D"
    },
    {
      "time": 36.527,
      "duration": 0.007,
      "midi": 40,
      "noteNumber": 40,
      "velocity": 0.53,
      "track": "(unnamed)",
      "channel": 9,
      "lane": "D"
    },
    {
      "time": 36.647,
      "duration": 0.086,
      "midi": 54,
      "noteNumber": 54,
      "velocity": 0.71,
      "track": "(unnamed)",
      "channel": 2,
      "lane": "J"
    },
    {
      "time": 36.647,
      "duration": 0.041,
      "midi": 58,
      "noteNumber": 58,
      "velocity": 0.68,
      "track": "(unnamed)",
      "channel": 2,
      "lane": "J"
    },
    {
      "time": 36.647,
      "duration": 0.049,
      "midi": 63,
      "noteNumber": 63,
      "velocity": 0.54,
      "track": "(unnamed)",
      "channel": 2,
      "lane": "J"
    },
    {
      "time": 36.647,
      "duration": 0.007,
      "midi": 51,
      "noteNumber": 51,
      "velocity": 0.72,
      "track": "(unnamed)",
      "channel": 9,
      "lane": "F"
    },
    {
      "time": 36.886,
      "duration": 0.007,
      "midi": 51,
      "noteNumber": 51,
      "velocity": 0.61,
      "track": "(unnamed)",
      "channel": 9,
      "lane": "F"
    },
    {
      "time": 37.006,
      "duration": 0.52,
      "midi": 46,
      "noteNumber": 46,
      "velocity": 0.71,
      "track": "(unnamed)",
      "channel": 2,
      "lane": "F"
    },
    {
      "time": 37.006,
      "duration": 0.007,
      "midi": 40,
      "noteNumber": 40,
      "velocity": 0.53,
      "track": "(unnamed)",
      "channel": 9,
      "lane": "D"
    },
    {
      "time": 37.006,
      "duration": 0.007,
      "midi": 51,
      "noteNumber": 51,
      "velocity": 0.69,
      "track": "(unnamed)",
      "channel": 9,
      "lane": "F"
    },
    {
      "time": 37.006,
      "duration": 0.273,
      "midi": 46,
      "noteNumber": 46,
      "velocity": 0.51,
      "track": "(unnamed)",
      "channel": 1,
      "lane": "F"
    },
    {
      "time": 37.245,
      "duration": 0.007,
      "midi": 51,
      "noteNumber": 51,
      "velocity": 0.54,
      "track": "(unnamed)",
      "channel": 9,
      "lane": "F"
    },
    {
      "time": 37.365,
      "duration": 0.12,
      "midi": 53,
      "noteNumber": 53,
      "velocity": 0.57,
      "track": "(unnamed)",
      "channel": 2,
      "lane": "F"
    },
    {
      "time": 37.365,
      "duration": 0.12,
      "midi": 56,
      "noteNumber": 56,
      "velocity": 0.74,
      "track": "(unnamed)",
      "channel": 2,
      "lane": "J"
    },
    {
      "time": 37.365,
      "duration": 0.124,
      "midi": 61,
      "noteNumber": 61,
      "velocity": 0.71,
      "track": "(unnamed)",
      "channel": 2,
      "lane": "J"
    },
    {
      "time": 37.365,
      "duration": 0.007,
      "midi": 51,
      "noteNumber": 51,
      "velocity": 0.83,
      "track": "(unnamed)",
      "channel": 9,
      "lane": "F"
    },
    {
      "time": 37.365,
      "duration": 0.213,
      "midi": 34,
      "noteNumber": 34,
      "velocity": 0.51,
      "track": "(unnamed)",
      "channel": 1,
      "lane": "D"
    },
    {
      "time": 37.485,
      "duration": 0.007,
      "midi": 40,
      "noteNumber": 40,
      "velocity": 0.26,
      "track": "(unnamed)",
      "channel": 9,
      "lane": "D"
    },
    {
      "time": 37.605,
      "duration": 0.007,
      "midi": 40,
      "noteNumber": 40,
      "velocity": 0.5,
      "track": "(unnamed)",
      "channel": 9,
      "lane": "D"
    },
    {
      "time": 37.725,
      "duration": 0.554,
      "midi": 47,
      "noteNumber": 47,
      "velocity": 0.54,
      "track": "(unnamed)",
      "channel": 2,
      "lane": "F"
    },
    {
      "time": 37.725,
      "duration": 0.007,
      "midi": 35,
      "noteNumber": 35,
      "velocity": 0.74,
      "track": "(unnamed)",
      "channel": 9,
      "lane": "D"
    },
    {
      "time": 37.725,
      "duration": 0.007,
      "midi": 51,
      "noteNumber": 51,
      "velocity": 0.72,
      "track": "(unnamed)",
      "channel": 9,
      "lane": "F"
    },
    {
      "time": 37.725,
      "duration": 0.812,
      "midi": 35,
      "noteNumber": 35,
      "velocity": 0.69,
      "track": "(unnamed)",
      "channel": 1,
      "lane": "D"
    },
    {
      "time": 37.766,
      "duration": 0.165,
      "midi": 75,
      "noteNumber": 75,
      "velocity": 0.9,
      "track": "(unnamed)",
      "channel": 3,
      "lane": "K"
    },
    {
      "time": 37.953,
      "duration": 0.094,
      "midi": 54,
      "noteNumber": 54,
      "velocity": 0.66,
      "track": "(unnamed)",
      "channel": 2,
      "lane": "J"
    },
    {
      "time": 37.953,
      "duration": 0.056,
      "midi": 59,
      "noteNumber": 59,
      "velocity": 0.54,
      "track": "(unnamed)",
      "channel": 2,
      "lane": "J"
    },
    {
      "time": 37.953,
      "duration": 0.06,
      "midi": 61,
      "noteNumber": 61,
      "velocity": 0.54,
      "track": "(unnamed)",
      "channel": 2,
      "lane": "J"
    },
    {
      "time": 37.953,
      "duration": 0.064,
      "midi": 63,
      "noteNumber": 63,
      "velocity": 0.54,
      "track": "(unnamed)",
      "channel": 2,
      "lane": "J"
    },
    {
      "time": 37.998,
      "duration": 0.135,
      "midi": 78,
      "noteNumber": 78,
      "velocity": 0.9,
      "track": "(unnamed)",
      "channel": 3,
      "lane": "K"
    },
    {
      "time": 38.084,
      "duration": 0.007,
      "midi": 51,
      "noteNumber": 51,
      "velocity": 0.72,
      "track": "(unnamed)",
      "channel": 9,
      "lane": "F"
    },
    {
      "time": 38.308,
      "duration": 0.127,
      "midi": 75,
      "noteNumber": 75,
      "velocity": 0.99,
      "track": "(unnamed)",
      "channel": 3,
      "lane": "K"
    },
    {
      "time": 38.312,
      "duration": 0.49,
      "midi": 51,
      "noteNumber": 51,
      "velocity": 0.59,
      "track": "(unnamed)",
      "channel": 2,
      "lane": "F"
    },
    {
      "time": 38.323,
      "duration": 0.007,
      "midi": 40,
      "noteNumber": 40,
      "velocity": 0.53,
      "track": "(unnamed)",
      "channel": 9,
      "lane": "D"
    },
    {
      "time": 38.443,
      "duration": 0.007,
      "midi": 51,
      "noteNumber": 51,
      "velocity": 0.72,
      "track": "(unnamed)",
      "channel": 9,
      "lane": "F"
    },
    {
      "time": 38.484,
      "duration": 0.183,
      "midi": 71,
      "noteNumber": 71,
      "velocity": 0.9,
      "track": "(unnamed)",
      "channel": 3,
      "lane": "K"
    },
    {
      "time": 38.683,
      "duration": 0.007,
      "midi": 51,
      "noteNumber": 51,
      "velocity": 0.61,
      "track": "(unnamed)",
      "channel": 9,
      "lane": "F"
    },
    {
      "time": 38.802,
      "duration": 0.466,
      "midi": 53,
      "noteNumber": 53,
      "velocity": 0.66,
      "track": "(unnamed)",
      "channel": 2,
      "lane": "F"
    },
    {
      "time": 38.802,
      "duration": 0.007,
      "midi": 40,
      "noteNumber": 40,
      "velocity": 0.53,
      "track": "(unnamed)",
      "channel": 9,
      "lane": "D"
    },
    {
      "time": 38.802,
      "duration": 0.007,
      "midi": 51,
      "noteNumber": 51,
      "velocity": 0.69,
      "track": "(unnamed)",
      "channel": 9,
      "lane": "F"
    },
    {
      "time": 38.802,
      "duration": 0.277,
      "midi": 35,
      "noteNumber": 35,
      "velocity": 0.66,
      "track": "(unnamed)",
      "channel": 1,
      "lane": "D"
    },
    {
      "time": 38.836,
      "duration": 0.12,
      "midi": 68,
      "noteNumber": 68,
      "velocity": 0.54,
      "track": "(unnamed)",
      "channel": 3,
      "lane": "K"
    },
    {
      "time": 39.008,
      "duration": 0.135,
      "midi": 70,
      "noteNumber": 70,
      "velocity": 0.6,
      "track": "(unnamed)",
      "channel": 3,
      "lane": "K"
    },
    {
      "time": 39.042,
      "duration": 0.007,
      "midi": 51,
      "noteNumber": 51,
      "velocity": 0.54,
      "track": "(unnamed)",
      "channel": 9,
      "lane": "F"
    },
    {
      "time": 39.162,
      "duration": 0.086,
      "midi": 59,
      "noteNumber": 59,
      "velocity": 0.54,
      "track": "(unnamed)",
      "channel": 2,
      "lane": "J"
    },
    {
      "time": 39.162,
      "duration": 0.105,
      "midi": 63,
      "noteNumber": 63,
      "velocity": 0.45,
      "track": "(unnamed)",
      "channel": 2,
      "lane": "J"
    },
    {
      "time": 39.162,
      "duration": 0.007,
      "midi": 51,
      "noteNumber": 51,
      "velocity": 0.83,
      "track": "(unnamed)",
      "channel": 9,
      "lane": "F"
    },
    {
      "time": 39.162,
      "duration": 0.277,
      "midi": 35,
      "noteNumber": 35,
      "velocity": 0.62,
      "track": "(unnamed)",
      "channel": 1,
      "lane": "D"
    },
    {
      "time": 39.184,
      "duration": 0.15,
      "midi": 71,
      "noteNumber": 71,
      "velocity": 0.71,
      "track": "(unnamed)",
      "channel": 3,
      "lane": "K"
    },
    {
      "time": 39.281,
      "duration": 0.007,
      "midi": 40,
      "noteNumber": 40,
      "velocity": 0.26,
      "track": "(unnamed)",
      "channel": 9,
      "lane": "D"
    },
    {
      "time": 39.367,
      "duration": 0.127,
      "midi": 72,
      "noteNumber": 72,
      "velocity": 0.71,
      "track": "(unnamed)",
      "channel": 3,
      "lane": "K"
    },
    {
      "time": 39.401,
      "duration": 0.007,
      "midi": 40,
      "noteNumber": 40,
      "velocity": 0.5,
      "track": "(unnamed)",
      "channel": 9,
      "lane": "D"
    },
    {
      "time": 39.521,
      "duration": 0.689,
      "midi": 46,
      "noteNumber": 46,
      "velocity": 0.66,
      "track": "(unnamed)",
      "channel": 2,
      "lane": "F"
    },
    {
      "time": 39.521,
      "duration": 0.007,
      "midi": 35,
      "noteNumber": 35,
      "velocity": 0.74,
      "track": "(unnamed)",
      "channel": 9,
      "lane": "D"
    },
    {
      "time": 39.521,
      "duration": 0.007,
      "midi": 51,
      "noteNumber": 51,
      "velocity": 0.72,
      "track": "(unnamed)",
      "channel": 9,
      "lane": "F"
    },
    {
      "time": 39.521,
      "duration": 0.921,
      "midi": 34,
      "noteNumber": 34,
      "velocity": 0.62,
      "track": "(unnamed)",
      "channel": 1,
      "lane": "D"
    },
    {
      "time": 39.555,
      "duration": 0.176,
      "midi": 73,
      "noteNumber": 73,
      "velocity": 0.94,
      "track": "(unnamed)",
      "channel": 3,
      "lane": "K"
    },
    {
      "time": 39.749,
      "duration": 0.101,
      "midi": 53,
      "noteNumber": 53,
      "velocity": 0.49,
      "track": "(unnamed)",
      "channel": 2,
      "lane": "F"
    },
    {
      "time": 39.749,
      "duration": 0.067,
      "midi": 58,
      "noteNumber": 58,
      "velocity": 0.52,
      "track": "(unnamed)",
      "channel": 2,
      "lane": "J"
    },
    {
      "time": 39.749,
      "duration": 0.094,
      "midi": 61,
      "noteNumber": 61,
      "velocity": 0.62,
      "track": "(unnamed)",
      "channel": 2,
      "lane": "J"
    },
    {
      "time": 39.828,
      "duration": 0.109,
      "midi": 77,
      "noteNumber": 77,
      "velocity": 0.9,
      "track": "(unnamed)",
      "channel": 3,
      "lane": "K"
    },
    {
      "time": 39.88,
      "duration": 0.007,
      "midi": 51,
      "noteNumber": 51,
      "velocity": 0.72,
      "track": "(unnamed)",
      "channel": 9,
      "lane": "F"
    },
    {
      "time": 40.108,
      "duration": 0.494,
      "midi": 49,
      "noteNumber": 49,
      "velocity": 0.69,
      "track": "(unnamed)",
      "channel": 2,
      "lane": "F"
    },
    {
      "time": 40.12,
      "duration": 0.007,
      "midi": 40,
      "noteNumber": 40,
      "velocity": 0.53,
      "track": "(unnamed)",
      "channel": 9,
      "lane": "D"
    },
    {
      "time": 40.127,
      "duration": 0.142,
      "midi": 73,
      "noteNumber": 73,
      "velocity": 0.99,
      "track": "(unnamed)",
      "channel": 3,
      "lane": "K"
    },
    {
      "time": 40.239,
      "duration": 0.007,
      "midi": 51,
      "noteNumber": 51,
      "velocity": 0.72,
      "track": "(unnamed)",
      "channel": 9,
      "lane": "F"
    },
    {
      "time": 40.322,
      "duration": 0.21,
      "midi": 70,
      "noteNumber": 70,
      "velocity": 0.8,
      "track": "(unnamed)",
      "channel": 3,
      "lane": "K"
    },
    {
      "time": 40.479,
      "duration": 0.007,
      "midi": 51,
      "noteNumber": 51,
      "velocity": 0.61,
      "track": "(unnamed)",
      "channel": 9,
      "lane": "F"
    },
    {
      "time": 40.599,
      "duration": 0.468,
      "midi": 51,
      "noteNumber": 51,
      "velocity": 0.66,
      "track": "(unnamed)",
      "channel": 2,
      "lane": "F"
    },
    {
      "time": 40.599,
      "duration": 0.007,
      "midi": 40,
      "noteNumber": 40,
      "velocity": 0.53,
      "track": "(unnamed)",
      "channel": 9,
      "lane": "D"
    },
    {
      "time": 40.599,
      "duration": 0.007,
      "midi": 51,
      "noteNumber": 51,
      "velocity": 0.69,
      "track": "(unnamed)",
      "channel": 9,
      "lane": "F"
    },
    {
      "time": 40.599,
      "duration": 0.266,
      "midi": 34,
      "noteNumber": 34,
      "velocity": 0.62,
      "track": "(unnamed)",
      "channel": 1,
      "lane": "D"
    },
    {
      "time": 40.677,
      "duration": 0.15,
      "midi": 66,
      "noteNumber": 66,
      "velocity": 0.4,
      "track": "(unnamed)",
      "channel": 3,
      "lane": "K"
    },
    {
      "time": 40.838,
      "duration": 0.007,
      "midi": 51,
      "noteNumber": 51,
      "velocity": 0.54,
      "track": "(unnamed)",
      "channel": 9,
      "lane": "F"
    },
    {
      "time": 40.853,
      "duration": 0.142,
      "midi": 68,
      "noteNumber": 68,
      "velocity": 0.52,
      "track": "(unnamed)",
      "channel": 3,
      "lane": "K"
    },
    {
      "time": 40.958,
      "duration": 0.15,
      "midi": 54,
      "noteNumber": 54,
      "velocity": 0.43,
      "track": "(unnamed)",
      "channel": 2,
      "lane": "J"
    },
    {
      "time": 40.958,
      "duration": 0.127,
      "midi": 58,
      "noteNumber": 58,
      "velocity": 0.47,
      "track": "(unnamed)",
      "channel": 2,
      "lane": "J"
    },
    {
      "time": 40.958,
      "duration": 0.131,
      "midi": 63,
      "noteNumber": 63,
      "velocity": 0.5,
      "track": "(unnamed)",
      "channel": 2,
      "lane": "J"
    },
    {
      "time": 40.958,
      "duration": 0.007,
      "midi": 51,
      "noteNumber": 51,
      "velocity": 0.83,
      "track": "(unnamed)",
      "channel": 9,
      "lane": "F"
    },
    {
      "time": 40.958,
      "duration": 0.254,
      "midi": 34,
      "noteNumber": 34,
      "velocity": 0.66,
      "track": "(unnamed)",
      "channel": 1,
      "lane": "D"
    },
    {
      "time": 41.003,
      "duration": 0.124,
      "midi": 69,
      "noteNumber": 69,
      "velocity": 0.68,
      "track": "(unnamed)",
      "channel": 3,
      "lane": "K"
    },
    {
      "time": 41.078,
      "duration": 0.007,
      "midi": 40,
      "noteNumber": 40,
      "velocity": 0.26,
      "track": "(unnamed)",
      "channel": 9,
      "lane": "D"
    },
    {
      "time": 41.164,
      "duration": 0.135,
      "midi": 70,
      "noteNumber": 70,
      "velocity": 0.68,
      "track": "(unnamed)",
      "channel": 3,
      "lane": "K"
    },
    {
      "time": 41.198,
      "duration": 0.007,
      "midi": 40,
      "noteNumber": 40,
      "velocity": 0.5,
      "track": "(unnamed)",
      "channel": 9,
      "lane": "D"
    },
    {
      "time": 41.317,
      "duration": 0.543,
      "midi": 44,
      "noteNumber": 44,
      "velocity": 0.62,
      "track": "(unnamed)",
      "channel": 2,
      "lane": "F"
    },
    {
      "time": 41.317,
      "duration": 0.007,
      "midi": 35,
      "noteNumber": 35,
      "velocity": 0.74,
      "track": "(unnamed)",
      "channel": 9,
      "lane": "D"
    },
    {
      "time": 41.317,
      "duration": 0.007,
      "midi": 51,
      "noteNumber": 51,
      "velocity": 0.72,
      "track": "(unnamed)",
      "channel": 9,
      "lane": "F"
    },
    {
      "time": 41.317,
      "duration": 0.853,
      "midi": 32,
      "noteNumber": 32,
      "velocity": 0.62,
      "track": "(unnamed)",
      "channel": 1,
      "lane": "D"
    },
    {
      "time": 41.366,
      "duration": 0.18,
      "midi": 71,
      "noteNumber": 71,
      "velocity": 0.85,
      "track": "(unnamed)",
      "channel": 3,
      "lane": "K"
    },
    {
      "time": 41.546,
      "duration": 0.075,
      "midi": 54,
      "noteNumber": 54,
      "velocity": 0.52,
      "track": "(unnamed)",
      "channel": 2,
      "lane": "J"
    },
    {
      "time": 41.546,
      "duration": 0.052,
      "midi": 59,
      "noteNumber": 59,
      "velocity": 0.62,
      "track": "(unnamed)",
      "channel": 2,
      "lane": "J"
    },
    {
      "time": 41.546,
      "duration": 0.071,
      "midi": 63,
      "noteNumber": 63,
      "velocity": 0.66,
      "track": "(unnamed)",
      "channel": 2,
      "lane": "J"
    },
    {
      "time": 41.598,
      "duration": 0.138,
      "midi": 75,
      "noteNumber": 75,
      "velocity": 0.9,
      "track": "(unnamed)",
      "channel": 3,
      "lane": "K"
    },
    {
      "time": 41.677,
      "duration": 0.007,
      "midi": 51,
      "noteNumber": 51,
      "velocity": 0.72,
      "track": "(unnamed)",
      "channel": 9,
      "lane": "F"
    },
    {
      "time": 41.905,
      "duration": 0.479,
      "midi": 47,
      "noteNumber": 47,
      "velocity": 0.54,
      "track": "(unnamed)",
      "channel": 2,
      "lane": "F"
    },
    {
      "time": 41.912,
      "duration": 0.15,
      "midi": 71,
      "noteNumber": 71,
      "velocity": 0.94,
      "track": "(unnamed)",
      "channel": 3,
      "lane": "K"
    },
    {
      "time": 41.916,
      "duration": 0.007,
      "midi": 40,
      "noteNumber": 40,
      "velocity": 0.53,
      "track": "(unnamed)",
      "channel": 9,
      "lane": "D"
    },
    {
      "time": 42.036,
      "duration": 0.007,
      "midi": 51,
      "noteNumber": 51,
      "velocity": 0.72,
      "track": "(unnamed)",
      "channel": 9,
      "lane": "F"
    },
    {
      "time": 42.103,
      "duration": 0.206,
      "midi": 68,
      "noteNumber": 68,
      "velocity": 0.74,
      "track": "(unnamed)",
      "channel": 3,
      "lane": "K"
    },
    {
      "time": 42.275,
      "duration": 0.007,
      "midi": 51,
      "noteNumber": 51,
      "velocity": 0.61,
      "track": "(unnamed)",
      "channel": 9,
      "lane": "F"
    },
    {
      "time": 42.395,
      "duration": 0.561,
      "midi": 49,
      "noteNumber": 49,
      "velocity": 0.75,
      "track": "(unnamed)",
      "channel": 2,
      "lane": "F"
    },
    {
      "time": 42.395,
      "duration": 0.007,
      "midi": 40,
      "noteNumber": 40,
      "velocity": 0.53,
      "track": "(unnamed)",
      "channel": 9,
      "lane": "D"
    },
    {
      "time": 42.395,
      "duration": 0.007,
      "midi": 51,
      "noteNumber": 51,
      "velocity": 0.69,
      "track": "(unnamed)",
      "channel": 9,
      "lane": "F"
    },
    {
      "time": 42.395,
      "duration": 0.243,
      "midi": 32,
      "noteNumber": 32,
      "velocity": 0.69,
      "track": "(unnamed)",
      "channel": 1,
      "lane": "D"
    },
    {
      "time": 42.429,
      "duration": 0.142,
      "midi": 65,
      "noteNumber": 65,
      "velocity": 0.5,
      "track": "(unnamed)",
      "channel": 3,
      "lane": "J"
    },
    {
      "time": 42.631,
      "duration": 0.12,
      "midi": 66,
      "noteNumber": 66,
      "velocity": 0.54,
      "track": "(unnamed)",
      "channel": 3,
      "lane": "K"
    },
    {
      "time": 42.635,
      "duration": 0.007,
      "midi": 51,
      "noteNumber": 51,
      "velocity": 0.54,
      "track": "(unnamed)",
      "channel": 9,
      "lane": "F"
    },
    {
      "time": 42.754,
      "duration": 0.09,
      "midi": 56,
      "noteNumber": 56,
      "velocity": 0.52,
      "track": "(unnamed)",
      "channel": 2,
      "lane": "J"
    },
    {
      "time": 42.754,
      "duration": 0.067,
      "midi": 59,
      "noteNumber": 59,
      "velocity": 0.55,
      "track": "(unnamed)",
      "channel": 2,
      "lane": "J"
    },
    {
      "time": 42.754,
      "duration": 0.071,
      "midi": 61,
      "noteNumber": 61,
      "velocity": 0.5,
      "track": "(unnamed)",
      "channel": 2,
      "lane": "J"
    },
    {
      "time": 42.754,
      "duration": 0.007,
      "midi": 51,
      "noteNumber": 51,
      "velocity": 0.83,
      "track": "(unnamed)",
      "channel": 9,
      "lane": "F"
    },
    {
      "time": 42.754,
      "duration": 0.284,
      "midi": 32,
      "noteNumber": 32,
      "velocity": 0.74,
      "track": "(unnamed)",
      "channel": 1,
      "lane": "D"
    },
    {
      "time": 42.803,
      "duration": 0.138,
      "midi": 68,
      "noteNumber": 68,
      "velocity": 0.46,
      "track": "(unnamed)",
      "channel": 3,
      "lane": "K"
    },
    {
      "time": 42.874,
      "duration": 0.007,
      "midi": 40,
      "noteNumber": 40,
      "velocity": 0.26,
      "track": "(unnamed)",
      "channel": 9,
      "lane": "D"
    },
    {
      "time": 42.986,
      "duration": 0.109,
      "midi": 69,
      "noteNumber": 69,
      "velocity": 0.71,
      "track": "(unnamed)",
      "channel": 3,
      "lane": "K"
    },
    {
      "time": 42.994,
      "duration": 0.007,
      "midi": 40,
      "noteNumber": 40,
      "velocity": 0.5,
      "track": "(unnamed)",
      "channel": 9,
      "lane": "D"
    },
    {
      "time": 43.114,
      "duration": 0.479,
      "midi": 42,
      "noteNumber": 42,
      "velocity": 0.75,
      "track": "(unnamed)",
      "channel": 2,
      "lane": "F"
    },
    {
      "time": 43.114,
      "duration": 0.007,
      "midi": 35,
      "noteNumber": 35,
      "velocity": 0.74,
      "track": "(unnamed)",
      "channel": 9,
      "lane": "D"
    },
    {
      "time": 43.114,
      "duration": 0.007,
      "midi": 51,
      "noteNumber": 51,
      "velocity": 0.72,
      "track": "(unnamed)",
      "channel": 9,
      "lane": "F"
    },
    {
      "time": 43.114,
      "duration": 0.966,
      "midi": 30,
      "noteNumber": 30,
      "velocity": 0.66,
      "track": "(unnamed)",
      "channel": 1,
      "lane": "D"
    },
    {
      "time": 43.14,
      "duration": 0.153,
      "midi": 70,
      "noteNumber": 70,
      "velocity": 0.85,
      "track": "(unnamed)",
      "channel": 3,
      "lane": "K"
    },
    {
      "time": 43.342,
      "duration": 0.052,
      "midi": 58,
      "noteNumber": 58,
      "velocity": 0.42,
      "track": "(unnamed)",
      "channel": 2,
      "lane": "J"
    },
    {
      "time": 43.342,
      "duration": 0.067,
      "midi": 61,
      "noteNumber": 61,
      "velocity": 0.52,
      "track": "(unnamed)",
      "channel": 2,
      "lane": "J"
    },
    {
      "time": 43.342,
      "duration": 0.086,
      "midi": 66,
      "noteNumber": 66,
      "velocity": 0.54,
      "track": "(unnamed)",
      "channel": 2,
      "lane": "K"
    },
    {
      "time": 43.349,
      "duration": 0.097,
      "midi": 69,
      "noteNumber": 69,
      "velocity": 0.43,
      "track": "(unnamed)",
      "channel": 3,
      "lane": "K"
    },
    {
      "time": 43.473,
      "duration": 0.007,
      "midi": 51,
      "noteNumber": 51,
      "velocity": 0.72,
      "track": "(unnamed)",
      "channel": 9,
      "lane": "F"
    },
    {
      "time": 43.51,
      "duration": 0.142,
      "midi": 70,
      "noteNumber": 70,
      "velocity": 0.56,
      "track": "(unnamed)",
      "channel": 3,
      "lane": "K"
    },
    {
      "time": 43.701,
      "duration": 0.513,
      "midi": 42,
      "noteNumber": 42,
      "velocity": 0.69,
      "track": "(unnamed)",
      "channel": 2,
      "lane": "F"
    },
    {
      "time": 43.709,
      "duration": 0.116,
      "midi": 71,
      "noteNumber": 71,
      "velocity": 0.54,
      "track": "(unnamed)",
      "channel": 3,
      "lane": "K"
    },
    {
      "time": 43.713,
      "duration": 0.007,
      "midi": 40,
      "noteNumber": 40,
      "velocity": 0.53,
      "track": "(unnamed)",
      "channel": 9,
      "lane": "D"
    },
    {
      "time": 43.832,
      "duration": 0.007,
      "midi": 51,
      "noteNumber": 51,
      "velocity": 0.72,
      "track": "(unnamed)",
      "channel": 9,
      "lane": "F"
    },
    {
      "time": 43.885,
      "duration": 0.187,
      "midi": 73,
      "noteNumber": 73,
      "velocity": 0.9,
      "track": "(unnamed)",
      "channel": 3,
      "lane": "K"
    },
    {
      "time": 44.072,
      "duration": 0.007,
      "midi": 51,
      "noteNumber": 51,
      "velocity": 0.61,
      "track": "(unnamed)",
      "channel": 9,
      "lane": "F"
    },
    {
      "time": 44.192,
      "duration": 0.599,
      "midi": 46,
      "noteNumber": 46,
      "velocity": 0.66,
      "track": "(unnamed)",
      "channel": 2,
      "lane": "F"
    },
    {
      "time": 44.192,
      "duration": 0.007,
      "midi": 40,
      "noteNumber": 40,
      "velocity": 0.53,
      "track": "(unnamed)",
      "channel": 9,
      "lane": "D"
    },
    {
      "time": 44.192,
      "duration": 0.007,
      "midi": 51,
      "noteNumber": 51,
      "velocity": 0.69,
      "track": "(unnamed)",
      "channel": 9,
      "lane": "F"
    },
    {
      "time": 44.192,
      "duration": 0.24,
      "midi": 30,
      "noteNumber": 30,
      "velocity": 0.51,
      "track": "(unnamed)",
      "channel": 1,
      "lane": "D"
    },
    {
      "time": 44.255,
      "duration": 0.15,
      "midi": 73,
      "noteNumber": 73,
      "velocity": 0.9,
      "track": "(unnamed)",
      "channel": 3,
      "lane": "K"
    },
    {
      "time": 44.431,
      "duration": 0.007,
      "midi": 51,
      "noteNumber": 51,
      "velocity": 0.54,
      "track": "(unnamed)",
      "channel": 9,
      "lane": "F"
    },
    {
      "time": 44.457,
      "duration": 0.12,
      "midi": 72,
      "noteNumber": 72,
      "velocity": 0.54,
      "track": "(unnamed)",
      "channel": 3,
      "lane": "K"
    },
    {
      "time": 44.551,
      "duration": 0.064,
      "midi": 58,
      "noteNumber": 58,
      "velocity": 0.49,
      "track": "(unnamed)",
      "channel": 2,
      "lane": "J"
    },
    {
      "time": 44.551,
      "duration": 0.079,
      "midi": 61,
      "noteNumber": 61,
      "velocity": 0.5,
      "track": "(unnamed)",
      "channel": 2,
      "lane": "J"
    },
    {
      "time": 44.551,
      "duration": 0.082,
      "midi": 66,
      "noteNumber": 66,
      "velocity": 0.46,
      "track": "(unnamed)",
      "channel": 2,
      "lane": "K"
    },
    {
      "time": 44.551,
      "duration": 0.007,
      "midi": 51,
      "noteNumber": 51,
      "velocity": 0.83,
      "track": "(unnamed)",
      "channel": 9,
      "lane": "F"
    },
    {
      "time": 44.551,
      "duration": 0.288,
      "midi": 30,
      "noteNumber": 30,
      "velocity": 0.62,
      "track": "(unnamed)",
      "channel": 1,
      "lane": "D"
    },
    {
      "time": 44.644,
      "duration": 0.138,
      "midi": 73,
      "noteNumber": 73,
      "velocity": 0.49,
      "track": "(unnamed)",
      "channel": 3,
      "lane": "K"
    },
    {
      "time": 44.671,
      "duration": 0.007,
      "midi": 40,
      "noteNumber": 40,
      "velocity": 0.26,
      "track": "(unnamed)",
      "channel": 9,
      "lane": "D"
    },
    {
      "time": 44.79,
      "duration": 0.007,
      "midi": 40,
      "noteNumber": 40,
      "velocity": 0.5,
      "track": "(unnamed)",
      "channel": 9,
      "lane": "D"
    },
    {
      "time": 44.798,
      "duration": 0.101,
      "midi": 74,
      "noteNumber": 74,
      "velocity": 0.68,
      "track": "(unnamed)",
      "channel": 3,
      "lane": "K"
    },
    {
      "time": 44.91,
      "duration": 0.554,
      "midi": 47,
      "noteNumber": 47,
      "velocity": 0.54,
      "track": "(unnamed)",
      "channel": 2,
      "lane": "F"
    },
    {
      "time": 44.91,
      "duration": 0.007,
      "midi": 35,
      "noteNumber": 35,
      "velocity": 0.74,
      "track": "(unnamed)",
      "channel": 9,
      "lane": "D"
    },
    {
      "time": 44.91,
      "duration": 0.007,
      "midi": 51,
      "noteNumber": 51,
      "velocity": 0.72,
      "track": "(unnamed)",
      "channel": 9,
      "lane": "F"
    },
    {
      "time": 44.91,
      "duration": 0.981,
      "midi": 35,
      "noteNumber": 35,
      "velocity": 0.69,
      "track": "(unnamed)",
      "channel": 1,
      "lane": "D"
    },
    {
      "time": 44.951,
      "duration": 0.165,
      "midi": 75,
      "noteNumber": 75,
      "velocity": 0.9,
      "track": "(unnamed)",
      "channel": 3,
      "lane": "K"
    },
    {
      "time": 45.138,
      "duration": 0.094,
      "midi": 54,
      "noteNumber": 54,
      "velocity": 0.66,
      "track": "(unnamed)",
      "channel": 2,
      "lane": "J"
    },
    {
      "time": 45.138,
      "duration": 0.056,
      "midi": 59,
      "noteNumber": 59,
      "velocity": 0.54,
      "track": "(unnamed)",
      "channel": 2,
      "lane": "J"
    },
    {
      "time": 45.138,
      "duration": 0.06,
      "midi": 61,
      "noteNumber": 61,
      "velocity": 0.54,
      "track": "(unnamed)",
      "channel": 2,
      "lane": "J"
    },
    {
      "time": 45.138,
      "duration": 0.064,
      "midi": 63,
      "noteNumber": 63,
      "velocity": 0.54,
      "track": "(unnamed)",
      "channel": 2,
      "lane": "J"
    },
    {
      "time": 45.183,
      "duration": 0.135,
      "midi": 78,
      "noteNumber": 78,
      "velocity": 0.9,
      "track": "(unnamed)",
      "channel": 3,
      "lane": "K"
    },
    {
      "time": 45.269,
      "duration": 0.007,
      "midi": 51,
      "noteNumber": 51,
      "velocity": 0.72,
      "track": "(unnamed)",
      "channel": 9,
      "lane": "F"
    },
    {
      "time": 45.494,
      "duration": 0.127,
      "midi": 75,
      "noteNumber": 75,
      "velocity": 0.99,
      "track": "(unnamed)",
      "channel": 3,
      "lane": "K"
    },
    {
      "time": 45.498,
      "duration": 0.49,
      "midi": 51,
      "noteNumber": 51,
      "velocity": 0.59,
      "track": "(unnamed)",
      "channel": 2,
      "lane": "F"
    },
    {
      "time": 45.509,
      "duration": 0.007,
      "midi": 40,
      "noteNumber": 40,
      "velocity": 0.53,
      "track": "(unnamed)",
      "channel": 9,
      "lane": "D"
    },
    {
      "time": 45.629,
      "duration": 0.007,
      "midi": 51,
      "noteNumber": 51,
      "velocity": 0.72,
      "track": "(unnamed)",
      "channel": 9,
      "lane": "F"
    },
    {
      "time": 45.67,
      "duration": 0.183,
      "midi": 71,
      "noteNumber": 71,
      "velocity": 0.9,
      "track": "(unnamed)",
      "channel": 3,
      "lane": "K"
    },
    {
      "time": 45.868,
      "duration": 0.007,
      "midi": 51,
      "noteNumber": 51,
      "velocity": 0.61,
      "track": "(unnamed)",
      "channel": 9,
      "lane": "F"
    },
    {
      "time": 45.988,
      "duration": 0.466,
      "midi": 53,
      "noteNumber": 53,
      "velocity": 0.66,
      "track": "(unnamed)",
      "channel": 2,
      "lane": "F"
    },
    {
      "time": 45.988,
      "duration": 0.007,
      "midi": 40,
      "noteNumber": 40,
      "velocity": 0.53,
      "track": "(unnamed)",
      "channel": 9,
      "lane": "D"
    },
    {
      "time": 45.988,
      "duration": 0.007,
      "midi": 51,
      "noteNumber": 51,
      "velocity": 0.69,
      "track": "(unnamed)",
      "channel": 9,
      "lane": "F"
    },
    {
      "time": 45.988,
      "duration": 0.281,
      "midi": 35,
      "noteNumber": 35,
      "velocity": 0.66,
      "track": "(unnamed)",
      "channel": 1,
      "lane": "D"
    },
    {
      "time": 46.022,
      "duration": 0.12,
      "midi": 68,
      "noteNumber": 68,
      "velocity": 0.54,
      "track": "(unnamed)",
      "channel": 3,
      "lane": "K"
    },
    {
      "time": 46.194,
      "duration": 0.135,
      "midi": 70,
      "noteNumber": 70,
      "velocity": 0.6,
      "track": "(unnamed)",
      "channel": 3,
      "lane": "K"
    },
    {
      "time": 46.227,
      "duration": 0.007,
      "midi": 51,
      "noteNumber": 51,
      "velocity": 0.54,
      "track": "(unnamed)",
      "channel": 9,
      "lane": "F"
    },
    {
      "time": 46.347,
      "duration": 0.086,
      "midi": 59,
      "noteNumber": 59,
      "velocity": 0.54,
      "track": "(unnamed)",
      "channel": 2,
      "lane": "J"
    },
    {
      "time": 46.347,
      "duration": 0.105,
      "midi": 63,
      "noteNumber": 63,
      "velocity": 0.45,
      "track": "(unnamed)",
      "channel": 2,
      "lane": "J"
    },
    {
      "time": 46.347,
      "duration": 0.007,
      "midi": 51,
      "noteNumber": 51,
      "velocity": 0.83,
      "track": "(unnamed)",
      "channel": 9,
      "lane": "F"
    },
    {
      "time": 46.347,
      "duration": 0.326,
      "midi": 35,
      "noteNumber": 35,
      "velocity": 0.66,
      "track": "(unnamed)",
      "channel": 1,
      "lane": "D"
    },
    {
      "time": 46.37,
      "duration": 0.15,
      "midi": 71,
      "noteNumber": 71,
      "velocity": 0.71,
      "track": "(unnamed)",
      "channel": 3,
      "lane": "K"
    },
    {
      "time": 46.467,
      "duration": 0.007,
      "midi": 40,
      "noteNumber": 40,
      "velocity": 0.26,
      "track": "(unnamed)",
      "channel": 9,
      "lane": "D"
    },
    {
      "time": 46.553,
      "duration": 0.127,
      "midi": 72,
      "noteNumber": 72,
      "velocity": 0.71,
      "track": "(unnamed)",
      "channel": 3,
      "lane": "K"
    },
    {
      "time": 46.587,
      "duration": 0.007,
      "midi": 40,
      "noteNumber": 40,
      "velocity": 0.5,
      "track": "(unnamed)",
      "channel": 9,
      "lane": "D"
    },
    {
      "time": 46.707,
      "duration": 0.689,
      "midi": 46,
      "noteNumber": 46,
      "velocity": 0.66,
      "track": "(unnamed)",
      "channel": 2,
      "lane": "F"
    },
    {
      "time": 46.707,
      "duration": 0.007,
      "midi": 35,
      "noteNumber": 35,
      "velocity": 0.74,
      "track": "(unnamed)",
      "channel": 9,
      "lane": "D"
    },
    {
      "time": 46.707,
      "duration": 0.007,
      "midi": 51,
      "noteNumber": 51,
      "velocity": 0.72,
      "track": "(unnamed)",
      "channel": 9,
      "lane": "F"
    },
    {
      "time": 46.707,
      "duration": 0.973,
      "midi": 34,
      "noteNumber": 34,
      "velocity": 0.66,
      "track": "(unnamed)",
      "channel": 1,
      "lane": "D"
    },
    {
      "time": 46.74,
      "duration": 0.176,
      "midi": 73,
      "noteNumber": 73,
      "velocity": 0.94,
      "track": "(unnamed)",
      "channel": 3,
      "lane": "K"
    },
    {
      "time": 46.935,
      "duration": 0.101,
      "midi": 53,
      "noteNumber": 53,
      "velocity": 0.49,
      "track": "(unnamed)",
      "channel": 2,
      "lane": "F"
    },
    {
      "time": 46.935,
      "duration": 0.067,
      "midi": 58,
      "noteNumber": 58,
      "velocity": 0.52,
      "track": "(unnamed)",
      "channel": 2,
      "lane": "J"
    },
    {
      "time": 46.935,
      "duration": 0.094,
      "midi": 61,
      "noteNumber": 61,
      "velocity": 0.62,
      "track": "(unnamed)",
      "channel": 2,
      "lane": "J"
    },
    {
      "time": 47.013,
      "duration": 0.109,
      "midi": 77,
      "noteNumber": 77,
      "velocity": 0.9,
      "track": "(unnamed)",
      "channel": 3,
      "lane": "K"
    },
    {
      "time": 47.066,
      "duration": 0.007,
      "midi": 51,
      "noteNumber": 51,
      "velocity": 0.72,
      "track": "(unnamed)",
      "channel": 9,
      "lane": "F"
    },
    {
      "time": 47.294,
      "duration": 0.494,
      "midi": 49,
      "noteNumber": 49,
      "velocity": 0.69,
      "track": "(unnamed)",
      "channel": 2,
      "lane": "F"
    },
    {
      "time": 47.305,
      "duration": 0.007,
      "midi": 40,
      "noteNumber": 40,
      "velocity": 0.53,
      "track": "(unnamed)",
      "channel": 9,
      "lane": "D"
    },
    {
      "time": 47.313,
      "duration": 0.142,
      "midi": 73,
      "noteNumber": 73,
      "velocity": 0.99,
      "track": "(unnamed)",
      "channel": 3,
      "lane": "K"
    },
    {
      "time": 47.425,
      "duration": 0.007,
      "midi": 51,
      "noteNumber": 51,
      "velocity": 0.72,
      "track": "(unnamed)",
      "channel": 9,
      "lane": "F"
    },
    {
      "time": 47.507,
      "duration": 0.21,
      "midi": 70,
      "noteNumber": 70,
      "velocity": 0.8,
      "track": "(unnamed)",
      "channel": 3,
      "lane": "K"
    },
    {
      "time": 47.665,
      "duration": 0.007,
      "midi": 51,
      "noteNumber": 51,
      "velocity": 0.61,
      "track": "(unnamed)",
      "channel": 9,
      "lane": "F"
    },
    {
      "time": 47.784,
      "duration": 0.468,
      "midi": 51,
      "noteNumber": 51,
      "velocity": 0.66,
      "track": "(unnamed)",
      "channel": 2,
      "lane": "F"
    },
    {
      "time": 47.784,
      "duration": 0.007,
      "midi": 40,
      "noteNumber": 40,
      "velocity": 0.53,
      "track": "(unnamed)",
      "channel": 9,
      "lane": "D"
    },
    {
      "time": 47.784,
      "duration": 0.007,
      "midi": 51,
      "noteNumber": 51,
      "velocity": 0.69,
      "track": "(unnamed)",
      "channel": 9,
      "lane": "F"
    },
    {
      "time": 47.784,
      "duration": 0.269,
      "midi": 34,
      "noteNumber": 34,
      "velocity": 0.62,
      "track": "(unnamed)",
      "channel": 1,
      "lane": "D"
    },
    {
      "time": 47.863,
      "duration": 0.15,
      "midi": 66,
      "noteNumber": 66,
      "velocity": 0.4,
      "track": "(unnamed)",
      "channel": 3,
      "lane": "K"
    },
    {
      "time": 48.024,
      "duration": 0.007,
      "midi": 51,
      "noteNumber": 51,
      "velocity": 0.54,
      "track": "(unnamed)",
      "channel": 9,
      "lane": "F"
    },
    {
      "time": 48.039,
      "duration": 0.142,
      "midi": 68,
      "noteNumber": 68,
      "velocity": 0.52,
      "track": "(unnamed)",
      "channel": 3,
      "lane": "K"
    },
    {
      "time": 48.144,
      "duration": 0.15,
      "midi": 54,
      "noteNumber": 54,
      "velocity": 0.43,
      "track": "(unnamed)",
      "channel": 2,
      "lane": "J"
    },
    {
      "time": 48.144,
      "duration": 0.127,
      "midi": 58,
      "noteNumber": 58,
      "velocity": 0.47,
      "track": "(unnamed)",
      "channel": 2,
      "lane": "J"
    },
    {
      "time": 48.144,
      "duration": 0.131,
      "midi": 63,
      "noteNumber": 63,
      "velocity": 0.5,
      "track": "(unnamed)",
      "channel": 2,
      "lane": "J"
    },
    {
      "time": 48.144,
      "duration": 0.007,
      "midi": 51,
      "noteNumber": 51,
      "velocity": 0.83,
      "track": "(unnamed)",
      "channel": 9,
      "lane": "F"
    },
    {
      "time": 48.144,
      "duration": 0.299,
      "midi": 34,
      "noteNumber": 34,
      "velocity": 0.69,
      "track": "(unnamed)",
      "channel": 1,
      "lane": "D"
    },
    {
      "time": 48.189,
      "duration": 0.124,
      "midi": 69,
      "noteNumber": 69,
      "velocity": 0.68,
      "track": "(unnamed)",
      "channel": 3,
      "lane": "K"
    },
    {
      "time": 48.263,
      "duration": 0.007,
      "midi": 40,
      "noteNumber": 40,
      "velocity": 0.26,
      "track": "(unnamed)",
      "channel": 9,
      "lane": "D"
    },
    {
      "time": 48.349,
      "duration": 0.135,
      "midi": 70,
      "noteNumber": 70,
      "velocity": 0.68,
      "track": "(unnamed)",
      "channel": 3,
      "lane": "K"
    },
    {
      "time": 48.383,
      "duration": 0.007,
      "midi": 40,
      "noteNumber": 40,
      "velocity": 0.5,
      "track": "(unnamed)",
      "channel": 9,
      "lane": "D"
    },
    {
      "time": 48.503,
      "duration": 0.543,
      "midi": 44,
      "noteNumber": 44,
      "velocity": 0.62,
      "track": "(unnamed)",
      "channel": 2,
      "lane": "F"
    },
    {
      "time": 48.503,
      "duration": 0.007,
      "midi": 35,
      "noteNumber": 35,
      "velocity": 0.74,
      "track": "(unnamed)",
      "channel": 9,
      "lane": "D"
    },
    {
      "time": 48.503,
      "duration": 0.007,
      "midi": 51,
      "noteNumber": 51,
      "velocity": 0.72,
      "track": "(unnamed)",
      "channel": 9,
      "lane": "F"
    },
    {
      "time": 48.503,
      "duration": 0.857,
      "midi": 32,
      "noteNumber": 32,
      "velocity": 0.66,
      "track": "(unnamed)",
      "channel": 1,
      "lane": "D"
    },
    {
      "time": 48.544,
      "duration": 0.191,
      "midi": 71,
      "noteNumber": 71,
      "velocity": 0.9,
      "track": "(unnamed)",
      "channel": 3,
      "lane": "K"
    },
    {
      "time": 48.731,
      "duration": 0.075,
      "midi": 54,
      "noteNumber": 54,
      "velocity": 0.52,
      "track": "(unnamed)",
      "channel": 2,
      "lane": "J"
    },
    {
      "time": 48.731,
      "duration": 0.052,
      "midi": 59,
      "noteNumber": 59,
      "velocity": 0.62,
      "track": "(unnamed)",
      "channel": 2,
      "lane": "J"
    },
    {
      "time": 48.731,
      "duration": 0.071,
      "midi": 63,
      "noteNumber": 63,
      "velocity": 0.66,
      "track": "(unnamed)",
      "channel": 2,
      "lane": "J"
    },
    {
      "time": 48.795,
      "duration": 0.116,
      "midi": 75,
      "noteNumber": 75,
      "velocity": 0.85,
      "track": "(unnamed)",
      "channel": 3,
      "lane": "K"
    },
    {
      "time": 48.862,
      "duration": 0.007,
      "midi": 51,
      "noteNumber": 51,
      "velocity": 0.72,
      "track": "(unnamed)",
      "channel": 9,
      "lane": "F"
    },
    {
      "time": 49.091,
      "duration": 0.479,
      "midi": 47,
      "noteNumber": 47,
      "velocity": 0.54,
      "track": "(unnamed)",
      "channel": 2,
      "lane": "F"
    },
    {
      "time": 49.102,
      "duration": 0.007,
      "midi": 40,
      "noteNumber": 40,
      "velocity": 0.53,
      "track": "(unnamed)",
      "channel": 9,
      "lane": "D"
    },
    {
      "time": 49.102,
      "duration": 0.138,
      "midi": 71,
      "noteNumber": 71,
      "velocity": 0.9,
      "track": "(unnamed)",
      "channel": 3,
      "lane": "K"
    },
    {
      "time": 49.221,
      "duration": 0.007,
      "midi": 51,
      "noteNumber": 51,
      "velocity": 0.72,
      "track": "(unnamed)",
      "channel": 9,
      "lane": "F"
    },
    {
      "time": 49.293,
      "duration": 0.206,
      "midi": 68,
      "noteNumber": 68,
      "velocity": 0.71,
      "track": "(unnamed)",
      "channel": 3,
      "lane": "K"
    },
    {
      "time": 49.461,
      "duration": 0.007,
      "midi": 51,
      "noteNumber": 51,
      "velocity": 0.61,
      "track": "(unnamed)",
      "channel": 9,
      "lane": "F"
    },
    {
      "time": 49.581,
      "duration": 0.561,
      "midi": 49,
      "noteNumber": 49,
      "velocity": 0.75,
      "track": "(unnamed)",
      "channel": 2,
      "lane": "F"
    },
    {
      "time": 49.581,
      "duration": 0.007,
      "midi": 40,
      "noteNumber": 40,
      "velocity": 0.53,
      "track": "(unnamed)",
      "channel": 9,
      "lane": "D"
    },
    {
      "time": 49.581,
      "duration": 0.007,
      "midi": 51,
      "noteNumber": 51,
      "velocity": 0.69,
      "track": "(unnamed)",
      "channel": 9,
      "lane": "F"
    },
    {
      "time": 49.581,
      "duration": 0.213,
      "midi": 32,
      "noteNumber": 32,
      "velocity": 0.62,
      "track": "(unnamed)",
      "channel": 1,
      "lane": "D"
    },
    {
      "time": 49.629,
      "duration": 0.142,
      "midi": 65,
      "noteNumber": 65,
      "velocity": 0.43,
      "track": "(unnamed)",
      "channel": 3,
      "lane": "J"
    },
    {
      "time": 49.817,
      "duration": 0.112,
      "midi": 68,
      "noteNumber": 68,
      "velocity": 0.57,
      "track": "(unnamed)",
      "channel": 3,
      "lane": "K"
    },
    {
      "time": 49.82,
      "duration": 0.007,
      "midi": 51,
      "noteNumber": 51,
      "velocity": 0.54,
      "track": "(unnamed)",
      "channel": 9,
      "lane": "F"
    },
    {
      "time": 49.94,
      "duration": 0.09,
      "midi": 56,
      "noteNumber": 56,
      "velocity": 0.52,
      "track": "(unnamed)",
      "channel": 2,
      "lane": "J"
    },
    {
      "time": 49.94,
      "duration": 0.067,
      "midi": 59,
      "noteNumber": 59,
      "velocity": 0.55,
      "track": "(unnamed)",
      "channel": 2,
      "lane": "J"
    },
    {
      "time": 49.94,
      "duration": 0.071,
      "midi": 61,
      "noteNumber": 61,
      "velocity": 0.5,
      "track": "(unnamed)",
      "channel": 2,
      "lane": "J"
    },
    {
      "time": 49.94,
      "duration": 0.007,
      "midi": 51,
      "noteNumber": 51,
      "velocity": 0.83,
      "track": "(unnamed)",
      "channel": 9,
      "lane": "F"
    },
    {
      "time": 49.94,
      "duration": 0.225,
      "midi": 32,
      "noteNumber": 32,
      "velocity": 0.69,
      "track": "(unnamed)",
      "channel": 1,
      "lane": "D"
    },
    {
      "time": 49.977,
      "duration": 0.142,
      "midi": 73,
      "noteNumber": 73,
      "velocity": 0.8,
      "track": "(unnamed)",
      "channel": 3,
      "lane": "K"
    },
    {
      "time": 50.06,
      "duration": 0.007,
      "midi": 40,
      "noteNumber": 40,
      "velocity": 0.26,
      "track": "(unnamed)",
      "channel": 9,
      "lane": "D"
    },
    {
      "time": 50.18,
      "duration": 0.007,
      "midi": 40,
      "noteNumber": 40,
      "velocity": 0.5,
      "track": "(unnamed)",
      "channel": 9,
      "lane": "D"
    },
    {
      "time": 50.183,
      "duration": 0.135,
      "midi": 71,
      "noteNumber": 71,
      "velocity": 0.68,
      "track": "(unnamed)",
      "channel": 3,
      "lane": "K"
    },
    {
      "time": 50.299,
      "duration": 0.389,
      "midi": 41,
      "noteNumber": 41,
      "velocity": 0.54,
      "track": "(unnamed)",
      "channel": 2,
      "lane": "D"
    },
    {
      "time": 50.299,
      "duration": 0.007,
      "midi": 35,
      "noteNumber": 35,
      "velocity": 0.74,
      "track": "(unnamed)",
      "channel": 9,
      "lane": "D"
    },
    {
      "time": 50.299,
      "duration": 0.007,
      "midi": 51,
      "noteNumber": 51,
      "velocity": 0.72,
      "track": "(unnamed)",
      "channel": 9,
      "lane": "F"
    },
    {
      "time": 50.299,
      "duration": 0.43,
      "midi": 29,
      "noteNumber": 29,
      "velocity": 0.66,
      "track": "(unnamed)",
      "channel": 1,
      "lane": "D"
    },
    {
      "time": 50.378,
      "duration": 0.879,
      "midi": 70,
      "noteNumber": 70,
      "velocity": 0.57,
      "track": "(unnamed)",
      "channel": 3,
      "lane": "K"
    },
    {
      "time": 50.528,
      "duration": 0.064,
      "midi": 56,
      "noteNumber": 56,
      "velocity": 0.31,
      "track": "(unnamed)",
      "channel": 2,
      "lane": "J"
    },
    {
      "time": 50.528,
      "duration": 0.045,
      "midi": 60,
      "noteNumber": 60,
      "velocity": 0.45,
      "track": "(unnamed)",
      "channel": 2,
      "lane": "J"
    },
    {
      "time": 50.528,
      "duration": 0.067,
      "midi": 63,
      "noteNumber": 63,
      "velocity": 0.52,
      "track": "(unnamed)",
      "channel": 2,
      "lane": "J"
    },
    {
      "time": 50.659,
      "duration": 0.007,
      "midi": 51,
      "noteNumber": 51,
      "velocity": 0.72,
      "track": "(unnamed)",
      "channel": 9,
      "lane": "F"
    },
    {
      "time": 50.887,
      "duration": 0.543,
      "midi": 41,
      "noteNumber": 41,
      "velocity": 0.66,
      "track": "(unnamed)",
      "channel": 2,
      "lane": "D"
    },
    {
      "time": 50.898,
      "duration": 0.007,
      "midi": 40,
      "noteNumber": 40,
      "velocity": 0.53,
      "track": "(unnamed)",
      "channel": 9,
      "lane": "D"
    },
    {
      "time": 50.898,
      "duration": 0.546,
      "midi": 29,
      "noteNumber": 29,
      "velocity": 0.62,
      "track": "(unnamed)",
      "channel": 1,
      "lane": "D"
    },
    {
      "time": 51.018,
      "duration": 0.071,
      "midi": 60,
      "noteNumber": 60,
      "velocity": 0.52,
      "track": "(unnamed)",
      "channel": 2,
      "lane": "J"
    },
    {
      "time": 51.018,
      "duration": 0.079,
      "midi": 63,
      "noteNumber": 63,
      "velocity": 0.52,
      "track": "(unnamed)",
      "channel": 2,
      "lane": "J"
    },
    {
      "time": 51.018,
      "duration": 0.007,
      "midi": 51,
      "noteNumber": 51,
      "velocity": 0.72,
      "track": "(unnamed)",
      "channel": 9,
      "lane": "F"
    },
    {
      "time": 51.257,
      "duration": 0.007,
      "midi": 51,
      "noteNumber": 51,
      "velocity": 0.61,
      "track": "(unnamed)",
      "channel": 9,
      "lane": "F"
    },
    {
      "time": 51.377,
      "duration": 0.524,
      "midi": 46,
      "noteNumber": 46,
      "velocity": 0.54,
      "track": "(unnamed)",
      "channel": 2,
      "lane": "F"
    },
    {
      "time": 51.377,
      "duration": 0.007,
      "midi": 40,
      "noteNumber": 40,
      "velocity": 0.53,
      "track": "(unnamed)",
      "channel": 9,
      "lane": "D"
    },
    {
      "time": 51.377,
      "duration": 0.007,
      "midi": 51,
      "noteNumber": 51,
      "velocity": 0.69,
      "track": "(unnamed)",
      "channel": 9,
      "lane": "F"
    },
    {
      "time": 51.377,
      "duration": 0.307,
      "midi": 34,
      "noteNumber": 34,
      "velocity": 0.48,
      "track": "(unnamed)",
      "channel": 1,
      "lane": "D"
    },
    {
      "time": 51.594,
      "duration": 0.06,
      "midi": 63,
      "noteNumber": 63,
      "velocity": 0.46,
      "track": "(unnamed)",
      "channel": 3,
      "lane": "J"
    },
    {
      "time": 51.617,
      "duration": 0.007,
      "midi": 51,
      "noteNumber": 51,
      "velocity": 0.54,
      "track": "(unnamed)",
      "channel": 9,
      "lane": "F"
    },
    {
      "time": 51.736,
      "duration": 0.007,
      "midi": 51,
      "noteNumber": 51,
      "velocity": 0.83,
      "track": "(unnamed)",
      "channel": 9,
      "lane": "F"
    },
    {
      "time": 51.736,
      "duration": 0.277,
      "midi": 34,
      "noteNumber": 34,
      "velocity": 0.74,
      "track": "(unnamed)",
      "channel": 1,
      "lane": "D"
    },
    {
      "time": 51.751,
      "duration": 0.116,
      "midi": 66,
      "noteNumber": 66,
      "velocity": 0.74,
      "track": "(unnamed)",
      "channel": 3,
      "lane": "K"
    },
    {
      "time": 51.856,
      "duration": 0.007,
      "midi": 40,
      "noteNumber": 40,
      "velocity": 0.26,
      "track": "(unnamed)",
      "channel": 9,
      "lane": "D"
    },
    {
      "time": 51.931,
      "duration": 0.097,
      "midi": 68,
      "noteNumber": 68,
      "velocity": 0.85,
      "track": "(unnamed)",
      "channel": 3,
      "lane": "K"
    },
    {
      "time": 51.976,
      "duration": 0.007,
      "midi": 40,
      "noteNumber": 40,
      "velocity": 0.5,
      "track": "(unnamed)",
      "channel": 9,
      "lane": "D"
    },
    {
      "time": 52.096,
      "duration": 0.161,
      "midi": 39,
      "noteNumber": 39,
      "velocity": 0.6,
      "track": "(unnamed)",
      "channel": 2,
      "lane": "D"
    },
    {
      "time": 52.096,
      "duration": 0.007,
      "midi": 35,
      "noteNumber": 35,
      "velocity": 0.74,
      "track": "(unnamed)",
      "channel": 9,
      "lane": "D"
    },
    {
      "time": 52.096,
      "duration": 0.007,
      "midi": 51,
      "noteNumber": 51,
      "velocity": 0.72,
      "track": "(unnamed)",
      "channel": 9,
      "lane": "F"
    },
    {
      "time": 52.096,
      "duration": 0.876,
      "midi": 39,
      "noteNumber": 39,
      "velocity": 0.66,
      "track": "(unnamed)",
      "channel": 1,
      "lane": "D"
    },
    {
      "time": 52.122,
      "duration": 0.146,
      "midi": 69,
      "noteNumber": 69,
      "velocity": 0.94,
      "track": "(unnamed)",
      "channel": 3,
      "lane": "K"
    },
    {
      "time": 52.302,
      "duration": 0.094,
      "midi": 70,
      "noteNumber": 70,
      "velocity": 0.77,
      "track": "(unnamed)",
      "channel": 3,
      "lane": "K"
    },
    {
      "time": 52.324,
      "duration": 0.056,
      "midi": 54,
      "noteNumber": 54,
      "velocity": 0.71,
      "track": "(unnamed)",
      "channel": 2,
      "lane": "J"
    },
    {
      "time": 52.324,
      "duration": 0.03,
      "midi": 58,
      "noteNumber": 58,
      "velocity": 0.54,
      "track": "(unnamed)",
      "channel": 2,
      "lane": "J"
    },
    {
      "time": 52.324,
      "duration": 0.06,
      "midi": 63,
      "noteNumber": 63,
      "velocity": 0.68,
      "track": "(unnamed)",
      "channel": 2,
      "lane": "J"
    },
    {
      "time": 52.455,
      "duration": 0.007,
      "midi": 51,
      "noteNumber": 51,
      "velocity": 0.72,
      "track": "(unnamed)",
      "channel": 9,
      "lane": "F"
    },
    {
      "time": 52.519,
      "duration": 0.071,
      "midi": 69,
      "noteNumber": 69,
      "velocity": 0.63,
      "track": "(unnamed)",
      "channel": 3,
      "lane": "K"
    },
    {
      "time": 52.683,
      "duration": 0.112,
      "midi": 39,
      "noteNumber": 39,
      "velocity": 0.74,
      "track": "(unnamed)",
      "channel": 2,
      "lane": "D"
    },
    {
      "time": 52.695,
      "duration": 0.007,
      "midi": 40,
      "noteNumber": 40,
      "velocity": 0.53,
      "track": "(unnamed)",
      "channel": 9,
      "lane": "D"
    },
    {
      "time": 52.706,
      "duration": 0.12,
      "midi": 68,
      "noteNumber": 68,
      "velocity": 0.8,
      "track": "(unnamed)",
      "channel": 3,
      "lane": "K"
    },
    {
      "time": 52.814,
      "duration": 0.086,
      "midi": 54,
      "noteNumber": 54,
      "velocity": 0.71,
      "track": "(unnamed)",
      "channel": 2,
      "lane": "J"
    },
    {
      "time": 52.814,
      "duration": 0.041,
      "midi": 58,
      "noteNumber": 58,
      "velocity": 0.68,
      "track": "(unnamed)",
      "channel": 2,
      "lane": "J"
    },
    {
      "time": 52.814,
      "duration": 0.049,
      "midi": 63,
      "noteNumber": 63,
      "velocity": 0.54,
      "track": "(unnamed)",
      "channel": 2,
      "lane": "J"
    },
    {
      "time": 52.814,
      "duration": 0.007,
      "midi": 51,
      "noteNumber": 51,
      "velocity": 0.72,
      "track": "(unnamed)",
      "channel": 9,
      "lane": "F"
    },
    {
      "time": 52.852,
      "duration": 0.172,
      "midi": 66,
      "noteNumber": 66,
      "velocity": 0.85,
      "track": "(unnamed)",
      "channel": 3,
      "lane": "K"
    },
    {
      "time": 53.054,
      "duration": 0.007,
      "midi": 51,
      "noteNumber": 51,
      "velocity": 0.61,
      "track": "(unnamed)",
      "channel": 9,
      "lane": "F"
    },
    {
      "time": 53.174,
      "duration": 0.52,
      "midi": 46,
      "noteNumber": 46,
      "velocity": 0.71,
      "track": "(unnamed)",
      "channel": 2,
      "lane": "F"
    },
    {
      "time": 53.174,
      "duration": 0.007,
      "midi": 40,
      "noteNumber": 40,
      "velocity": 0.53,
      "track": "(unnamed)",
      "channel": 9,
      "lane": "D"
    },
    {
      "time": 53.174,
      "duration": 0.007,
      "midi": 51,
      "noteNumber": 51,
      "velocity": 0.69,
      "track": "(unnamed)",
      "channel": 9,
      "lane": "F"
    },
    {
      "time": 53.174,
      "duration": 0.273,
      "midi": 46,
      "noteNumber": 46,
      "velocity": 0.51,
      "track": "(unnamed)",
      "channel": 1,
      "lane": "F"
    },
    {
      "time": 53.189,
      "duration": 0.314,
      "midi": 58,
      "noteNumber": 58,
      "velocity": 0.54,
      "track": "(unnamed)",
      "channel": 3,
      "lane": "J"
    },
    {
      "time": 53.413,
      "duration": 0.007,
      "midi": 51,
      "noteNumber": 51,
      "velocity": 0.54,
      "track": "(unnamed)",
      "channel": 9,
      "lane": "F"
    },
    {
      "time": 53.458,
      "duration": 0.105,
      "midi": 59,
      "noteNumber": 59,
      "velocity": 0.56,
      "track": "(unnamed)",
      "channel": 3,
      "lane": "J"
    },
    {
      "time": 53.533,
      "duration": 0.12,
      "midi": 53,
      "noteNumber": 53,
      "velocity": 0.57,
      "track": "(unnamed)",
      "channel": 2,
      "lane": "F"
    },
    {
      "time": 53.533,
      "duration": 0.12,
      "midi": 56,
      "noteNumber": 56,
      "velocity": 0.74,
      "track": "(unnamed)",
      "channel": 2,
      "lane": "J"
    },
    {
      "time": 53.533,
      "duration": 0.124,
      "midi": 61,
      "noteNumber": 61,
      "velocity": 0.71,
      "track": "(unnamed)",
      "channel": 2,
      "lane": "J"
    },
    {
      "time": 53.533,
      "duration": 0.007,
      "midi": 51,
      "noteNumber": 51,
      "velocity": 0.83,
      "track": "(unnamed)",
      "channel": 9,
      "lane": "F"
    },
    {
      "time": 53.533,
      "duration": 0.079,
      "midi": 60,
      "noteNumber": 60,
      "velocity": 0.52,
      "track": "(unnamed)",
      "channel": 3,
      "lane": "J"
    },
    {
      "time": 53.533,
      "duration": 0.213,
      "midi": 34,
      "noteNumber": 34,
      "velocity": 0.51,
      "track": "(unnamed)",
      "channel": 1,
      "lane": "D"
    },
    {
      "time": 53.563,
      "duration": 0.12,
      "midi": 61,
      "noteNumber": 61,
      "velocity": 0.77,
      "track": "(unnamed)",
      "channel": 3,
      "lane": "J"
    },
    {
      "time": 53.653,
      "duration": 0.007,
      "midi": 40,
      "noteNumber": 40,
      "velocity": 0.26,
      "track": "(unnamed)",
      "channel": 9,
      "lane": "D"
    },
    {
      "time": 53.772,
      "duration": 0.007,
      "midi": 40,
      "noteNumber": 40,
      "velocity": 0.5,
      "track": "(unnamed)",
      "channel": 9,
      "lane": "D"
    },
    {
      "time": 53.892,
      "duration": 0.161,
      "midi": 39,
      "noteNumber": 39,
      "velocity": 0.6,
      "track": "(unnamed)",
      "channel": 2,
      "lane": "D"
    },
    {
      "time": 53.892,
      "duration": 0.007,
      "midi": 35,
      "noteNumber": 35,
      "velocity": 0.74,
      "track": "(unnamed)",
      "channel": 9,
      "lane": "D"
    },
    {
      "time": 53.892,
      "duration": 0.007,
      "midi": 51,
      "noteNumber": 51,
      "velocity": 0.72,
      "track": "(unnamed)",
      "channel": 9,
      "lane": "F"
    },
    {
      "time": 53.892,
      "duration": 0.876,
      "midi": 39,
      "noteNumber": 39,
      "velocity": 0.66,
      "track": "(unnamed)",
      "channel": 1,
      "lane": "D"
    },
    {
      "time": 53.926,
      "duration": 1.018,
      "midi": 63,
      "noteNumber": 63,
      "velocity": 0.71,
      "track": "(unnamed)",
      "channel": 3,
      "lane": "J"
    },
    {
      "time": 54.12,
      "duration": 0.056,
      "midi": 54,
      "noteNumber": 54,
      "velocity": 0.71,
      "track": "(unnamed)",
      "channel": 2,
      "lane": "J"
    },
    {
      "time": 54.12,
      "duration": 0.03,
      "midi": 58,
      "noteNumber": 58,
      "velocity": 0.54,
      "track": "(unnamed)",
      "channel": 2,
      "lane": "J"
    },
    {
      "time": 54.12,
      "duration": 0.06,
      "midi": 63,
      "noteNumber": 63,
      "velocity": 0.68,
      "track": "(unnamed)",
      "channel": 2,
      "lane": "J"
    },
    {
      "time": 54.251,
      "duration": 0.007,
      "midi": 51,
      "noteNumber": 51,
      "velocity": 0.72,
      "track": "(unnamed)",
      "channel": 9,
      "lane": "F"
    },
    {
      "time": 54.48,
      "duration": 0.112,
      "midi": 39,
      "noteNumber": 39,
      "velocity": 0.74,
      "track": "(unnamed)",
      "channel": 2,
      "lane": "D"
    },
    {
      "time": 54.491,
      "duration": 0.007,
      "midi": 40,
      "noteNumber": 40,
      "velocity": 0.53,
      "track": "(unnamed)",
      "channel": 9,
      "lane": "D"
    },
    {
      "time": 54.611,
      "duration": 0.086,
      "midi": 54,
      "noteNumber": 54,
      "velocity": 0.71,
      "track": "(unnamed)",
      "channel": 2,
      "lane": "J"
    },
    {
      "time": 54.611,
      "duration": 0.041,
      "midi": 58,
      "noteNumber": 58,
      "velocity": 0.68,
      "track": "(unnamed)",
      "channel": 2,
      "lane": "J"
    },
    {
      "time": 54.611,
      "duration": 0.049,
      "midi": 63,
      "noteNumber": 63,
      "velocity": 0.54,
      "track": "(unnamed)",
      "channel": 2,
      "lane": "J"
    },
    {
      "time": 54.611,
      "duration": 0.007,
      "midi": 51,
      "noteNumber": 51,
      "velocity": 0.72,
      "track": "(unnamed)",
      "channel": 9,
      "lane": "F"
    },
    {
      "time": 54.85,
      "duration": 0.007,
      "midi": 51,
      "noteNumber": 51,
      "velocity": 0.61,
      "track": "(unnamed)",
      "channel": 9,
      "lane": "F"
    },
    {
      "time": 54.97,
      "duration": 0.52,
      "midi": 46,
      "noteNumber": 46,
      "velocity": 0.71,
      "track": "(unnamed)",
      "channel": 2,
      "lane": "F"
    },
    {
      "time": 54.97,
      "duration": 0.007,
      "midi": 40,
      "noteNumber": 40,
      "velocity": 0.53,
      "track": "(unnamed)",
      "channel": 9,
      "lane": "D"
    },
    {
      "time": 54.97,
      "duration": 0.007,
      "midi": 51,
      "noteNumber": 51,
      "velocity": 0.69,
      "track": "(unnamed)",
      "channel": 9,
      "lane": "F"
    },
    {
      "time": 54.97,
      "duration": 0.273,
      "midi": 46,
      "noteNumber": 46,
      "velocity": 0.51,
      "track": "(unnamed)",
      "channel": 1,
      "lane": "F"
    },
    {
      "time": 54.974,
      "duration": 0.138,
      "midi": 65,
      "noteNumber": 65,
      "velocity": 0.8,
      "track": "(unnamed)",
      "channel": 3,
      "lane": "J"
    },
    {
      "time": 55.135,
      "duration": 0.071,
      "midi": 66,
      "noteNumber": 66,
      "velocity": 0.52,
      "track": "(unnamed)",
      "channel": 3,
      "lane": "K"
    },
    {
      "time": 55.202,
      "duration": 0.056,
      "midi": 65,
      "noteNumber": 65,
      "velocity": 0.52,
      "track": "(unnamed)",
      "channel": 3,
      "lane": "J"
    },
    {
      "time": 55.21,
      "duration": 0.007,
      "midi": 51,
      "noteNumber": 51,
      "velocity": 0.54,
      "track": "(unnamed)",
      "channel": 9,
      "lane": "F"
    },
    {
      "time": 55.258,
      "duration": 0.071,
      "midi": 63,
      "noteNumber": 63,
      "velocity": 0.74,
      "track": "(unnamed)",
      "channel": 3,
      "lane": "J"
    },
    {
      "time": 55.329,
      "duration": 0.12,
      "midi": 53,
      "noteNumber": 53,
      "velocity": 0.57,
      "track": "(unnamed)",
      "channel": 2,
      "lane": "F"
    },
    {
      "time": 55.329,
      "duration": 0.12,
      "midi": 56,
      "noteNumber": 56,
      "velocity": 0.74,
      "track": "(unnamed)",
      "channel": 2,
      "lane": "J"
    },
    {
      "time": 55.329,
      "duration": 0.124,
      "midi": 61,
      "noteNumber": 61,
      "velocity": 0.71,
      "track": "(unnamed)",
      "channel": 2,
      "lane": "J"
    },
    {
      "time": 55.329,
      "duration": 0.007,
      "midi": 51,
      "noteNumber": 51,
      "velocity": 0.83,
      "track": "(unnamed)",
      "channel": 9,
      "lane": "F"
    },
    {
      "time": 55.329,
      "duration": 0.213,
      "midi": 34,
      "noteNumber": 34,
      "velocity": 0.51,
      "track": "(unnamed)",
      "channel": 1,
      "lane": "D"
    },
    {
      "time": 55.337,
      "duration": 0.352,
      "midi": 61,
      "noteNumber": 61,
      "velocity": 0.63,
      "track": "(unnamed)",
      "channel": 3,
      "lane": "J"
    },
    {
      "time": 55.449,
      "duration": 0.007,
      "midi": 40,
      "noteNumber": 40,
      "velocity": 0.26,
      "track": "(unnamed)",
      "channel": 9,
      "lane": "D"
    },
    {
      "time": 55.569,
      "duration": 0.007,
      "midi": 40,
      "noteNumber": 40,
      "velocity": 0.5,
      "track": "(unnamed)",
      "channel": 9,
      "lane": "D"
    },
    {
      "time": 55.689,
      "duration": 0.161,
      "midi": 39,
      "noteNumber": 39,
      "velocity": 0.6,
      "track": "(unnamed)",
      "channel": 2,
      "lane": "D"
    },
    {
      "time": 55.689,
      "duration": 0.007,
      "midi": 35,
      "noteNumber": 35,
      "velocity": 0.74,
      "track": "(unnamed)",
      "channel": 9,
      "lane": "D"
    },
    {
      "time": 55.689,
      "duration": 0.007,
      "midi": 51,
      "noteNumber": 51,
      "velocity": 0.72,
      "track": "(unnamed)",
      "channel": 9,
      "lane": "F"
    },
    {
      "time": 55.689,
      "duration": 0.876,
      "midi": 39,
      "noteNumber": 39,
      "velocity": 0.66,
      "track": "(unnamed)",
      "channel": 1,
      "lane": "D"
    },
    {
      "time": 55.704,
      "duration": 1.018,
      "midi": 63,
      "noteNumber": 63,
      "velocity": 0.63,
      "track": "(unnamed)",
      "channel": 3,
      "lane": "J"
    },
    {
      "time": 55.917,
      "duration": 0.056,
      "midi": 54,
      "noteNumber": 54,
      "velocity": 0.71,
      "track": "(unnamed)",
      "channel": 2,
      "lane": "J"
    },
    {
      "time": 55.917,
      "duration": 0.03,
      "midi": 58,
      "noteNumber": 58,
      "velocity": 0.54,
      "track": "(unnamed)",
      "channel": 2,
      "lane": "J"
    },
    {
      "time": 55.917,
      "duration": 0.06,
      "midi": 63,
      "noteNumber": 63,
      "velocity": 0.68,
      "track": "(unnamed)",
      "channel": 2,
      "lane": "J"
    },
    {
      "time": 56.048,
      "duration": 0.007,
      "midi": 51,
      "noteNumber": 51,
      "velocity": 0.72,
      "track": "(unnamed)",
      "channel": 9,
      "lane": "F"
    },
    {
      "time": 56.276,
      "duration": 0.112,
      "midi": 39,
      "noteNumber": 39,
      "velocity": 0.74,
      "track": "(unnamed)",
      "channel": 2,
      "lane": "D"
    },
    {
      "time": 56.287,
      "duration": 0.007,
      "midi": 40,
      "noteNumber": 40,
      "velocity": 0.53,
      "track": "(unnamed)",
      "channel": 9,
      "lane": "D"
    },
    {
      "time": 56.407,
      "duration": 0.086,
      "midi": 54,
      "noteNumber": 54,
      "velocity": 0.71,
      "track": "(unnamed)",
      "channel": 2,
      "lane": "J"
    },
    {
      "time": 56.407,
      "duration": 0.041,
      "midi": 58,
      "noteNumber": 58,
      "velocity": 0.68,
      "track": "(unnamed)",
      "channel": 2,
      "lane": "J"
    },
    {
      "time": 56.407,
      "duration": 0.049,
      "midi": 63,
      "noteNumber": 63,
      "velocity": 0.54,
      "track": "(unnamed)",
      "channel": 2,
      "lane": "J"
    },
    {
      "time": 56.407,
      "duration": 0.007,
      "midi": 51,
      "noteNumber": 51,
      "velocity": 0.72,
      "track": "(unnamed)",
      "channel": 9,
      "lane": "F"
    },
    {
      "time": 56.647,
      "duration": 0.007,
      "midi": 51,
      "noteNumber": 51,
      "velocity": 0.61,
      "track": "(unnamed)",
      "channel": 9,
      "lane": "F"
    },
    {
      "time": 56.766,
      "duration": 0.52,
      "midi": 46,
      "noteNumber": 46,
      "velocity": 0.71,
      "track": "(unnamed)",
      "channel": 2,
      "lane": "F"
    },
    {
      "time": 56.766,
      "duration": 0.007,
      "midi": 40,
      "noteNumber": 40,
      "velocity": 0.53,
      "track": "(unnamed)",
      "channel": 9,
      "lane": "D"
    },
    {
      "time": 56.766,
      "duration": 0.007,
      "midi": 51,
      "noteNumber": 51,
      "velocity": 0.69,
      "track": "(unnamed)",
      "channel": 9,
      "lane": "F"
    },
    {
      "time": 56.766,
      "duration": 0.273,
      "midi": 46,
      "noteNumber": 46,
      "velocity": 0.51,
      "track": "(unnamed)",
      "channel": 1,
      "lane": "F"
    },
    {
      "time": 56.77,
      "duration": 0.138,
      "midi": 61,
      "noteNumber": 61,
      "velocity": 0.8,
      "track": "(unnamed)",
      "channel": 3,
      "lane": "J"
    },
    {
      "time": 56.931,
      "duration": 0.071,
      "midi": 63,
      "noteNumber": 63,
      "velocity": 0.52,
      "track": "(unnamed)",
      "channel": 3,
      "lane": "J"
    },
    {
      "time": 56.998,
      "duration": 0.056,
      "midi": 61,
      "noteNumber": 61,
      "velocity": 0.52,
      "track": "(unnamed)",
      "channel": 3,
      "lane": "J"
    },
    {
      "time": 57.006,
      "duration": 0.007,
      "midi": 51,
      "noteNumber": 51,
      "velocity": 0.54,
      "track": "(unnamed)",
      "channel": 9,
      "lane": "F"
    },
    {
      "time": 57.055,
      "duration": 0.071,
      "midi": 58,
      "noteNumber": 58,
      "velocity": 0.74,
      "track": "(unnamed)",
      "channel": 3,
      "lane": "J"
    },
    {
      "time": 57.126,
      "duration": 0.12,
      "midi": 53,
      "noteNumber": 53,
      "velocity": 0.57,
      "track": "(unnamed)",
      "channel": 2,
      "lane": "F"
    },
    {
      "time": 57.126,
      "duration": 0.12,
      "midi": 56,
      "noteNumber": 56,
      "velocity": 0.74,
      "track": "(unnamed)",
      "channel": 2,
      "lane": "J"
    },
    {
      "time": 57.126,
      "duration": 0.124,
      "midi": 61,
      "noteNumber": 61,
      "velocity": 0.71,
      "track": "(unnamed)",
      "channel": 2,
      "lane": "J"
    },
    {
      "time": 57.126,
      "duration": 0.007,
      "midi": 51,
      "noteNumber": 51,
      "velocity": 0.83,
      "track": "(unnamed)",
      "channel": 9,
      "lane": "F"
    },
    {
      "time": 57.126,
      "duration": 0.213,
      "midi": 34,
      "noteNumber": 34,
      "velocity": 0.51,
      "track": "(unnamed)",
      "channel": 1,
      "lane": "D"
    },
    {
      "time": 57.133,
      "duration": 0.352,
      "midi": 56,
      "noteNumber": 56,
      "velocity": 0.63,
      "track": "(unnamed)",
      "channel": 3,
      "lane": "J"
    },
    {
      "time": 57.245,
      "duration": 0.007,
      "midi": 40,
      "noteNumber": 40,
      "velocity": 0.26,
      "track": "(unnamed)",
      "channel": 9,
      "lane": "D"
    },
    {
      "time": 57.365,
      "duration": 0.007,
      "midi": 40,
      "noteNumber": 40,
      "velocity": 0.5,
      "track": "(unnamed)",
      "channel": 9,
      "lane": "D"
    },
    {
      "time": 57.485,
      "duration": 0.161,
      "midi": 39,
      "noteNumber": 39,
      "velocity": 0.6,
      "track": "(unnamed)",
      "channel": 2,
      "lane": "D"
    },
    {
      "time": 57.485,
      "duration": 0.007,
      "midi": 35,
      "noteNumber": 35,
      "velocity": 0.74,
      "track": "(unnamed)",
      "channel": 9,
      "lane": "D"
    },
    {
      "time": 57.485,
      "duration": 0.007,
      "midi": 51,
      "noteNumber": 51,
      "velocity": 0.72,
      "track": "(unnamed)",
      "channel": 9,
      "lane": "F"
    },
    {
      "time": 57.485,
      "duration": 0.894,
      "midi": 58,
      "noteNumber": 58,
      "velocity": 0.68,
      "track": "(unnamed)",
      "channel": 3,
      "lane": "J"
    },
    {
      "time": 57.485,
      "duration": 0.876,
      "midi": 39,
      "noteNumber": 39,
      "velocity": 0.66,
      "track": "(unnamed)",
      "channel": 1,
      "lane": "D"
    },
    {
      "time": 57.713,
      "duration": 0.056,
      "midi": 54,
      "noteNumber": 54,
      "velocity": 0.71,
      "track": "(unnamed)",
      "channel": 2,
      "lane": "J"
    },
    {
      "time": 57.713,
      "duration": 0.03,
      "midi": 58,
      "noteNumber": 58,
      "velocity": 0.54,
      "track": "(unnamed)",
      "channel": 2,
      "lane": "J"
    },
    {
      "time": 57.713,
      "duration": 0.06,
      "midi": 63,
      "noteNumber": 63,
      "velocity": 0.68,
      "track": "(unnamed)",
      "channel": 2,
      "lane": "J"
    },
    {
      "time": 57.844,
      "duration": 0.007,
      "midi": 51,
      "noteNumber": 51,
      "velocity": 0.72,
      "track": "(unnamed)",
      "channel": 9,
      "lane": "F"
    },
    {
      "time": 58.073,
      "duration": 0.112,
      "midi": 39,
      "noteNumber": 39,
      "velocity": 0.74,
      "track": "(unnamed)",
      "channel": 2,
      "lane": "D"
    },
    {
      "time": 58.084,
      "duration": 0.007,
      "midi": 40,
      "noteNumber": 40,
      "velocity": 0.53,
      "track": "(unnamed)",
      "channel": 9,
      "lane": "D"
    },
    {
      "time": 58.204,
      "duration": 0.086,
      "midi": 54,
      "noteNumber": 54,
      "velocity": 0.71,
      "track": "(unnamed)",
      "channel": 2,
      "lane": "J"
    },
    {
      "time": 58.204,
      "duration": 0.041,
      "midi": 58,
      "noteNumber": 58,
      "velocity": 0.68,
      "track": "(unnamed)",
      "channel": 2,
      "lane": "J"
    },
    {
      "time": 58.204,
      "duration": 0.049,
      "midi": 63,
      "noteNumber": 63,
      "velocity": 0.54,
      "track": "(unnamed)",
      "channel": 2,
      "lane": "J"
    },
    {
      "time": 58.204,
      "duration": 0.007,
      "midi": 51,
      "noteNumber": 51,
      "velocity": 0.72,
      "track": "(unnamed)",
      "channel": 9,
      "lane": "F"
    },
    {
      "time": 58.443,
      "duration": 0.007,
      "midi": 51,
      "noteNumber": 51,
      "velocity": 0.61,
      "track": "(unnamed)",
      "channel": 9,
      "lane": "F"
    },
    {
      "time": 58.563,
      "duration": 0.52,
      "midi": 46,
      "noteNumber": 46,
      "velocity": 0.71,
      "track": "(unnamed)",
      "channel": 2,
      "lane": "F"
    },
    {
      "time": 58.563,
      "duration": 0.007,
      "midi": 40,
      "noteNumber": 40,
      "velocity": 0.53,
      "track": "(unnamed)",
      "channel": 9,
      "lane": "D"
    },
    {
      "time": 58.563,
      "duration": 0.007,
      "midi": 51,
      "noteNumber": 51,
      "velocity": 0.69,
      "track": "(unnamed)",
      "channel": 9,
      "lane": "F"
    },
    {
      "time": 58.563,
      "duration": 0.273,
      "midi": 46,
      "noteNumber": 46,
      "velocity": 0.51,
      "track": "(unnamed)",
      "channel": 1,
      "lane": "F"
    },
    {
      "time": 58.589,
      "duration": 0.138,
      "midi": 58,
      "noteNumber": 58,
      "velocity": 0.52,
      "track": "(unnamed)",
      "channel": 3,
      "lane": "J"
    },
    {
      "time": 58.791,
      "duration": 0.109,
      "midi": 63,
      "noteNumber": 63,
      "velocity": 0.54,
      "track": "(unnamed)",
      "channel": 3,
      "lane": "J"
    },
    {
      "time": 58.802,
      "duration": 0.007,
      "midi": 51,
      "noteNumber": 51,
      "velocity": 0.54,
      "track": "(unnamed)",
      "channel": 9,
      "lane": "F"
    },
    {
      "time": 58.922,
      "duration": 0.12,
      "midi": 53,
      "noteNumber": 53,
      "velocity": 0.57,
      "track": "(unnamed)",
      "channel": 2,
      "lane": "F"
    },
    {
      "time": 58.922,
      "duration": 0.12,
      "midi": 56,
      "noteNumber": 56,
      "velocity": 0.74,
      "track": "(unnamed)",
      "channel": 2,
      "lane": "J"
    },
    {
      "time": 58.922,
      "duration": 0.124,
      "midi": 61,
      "noteNumber": 61,
      "velocity": 0.71,
      "track": "(unnamed)",
      "channel": 2,
      "lane": "J"
    },
    {
      "time": 58.922,
      "duration": 0.007,
      "midi": 51,
      "noteNumber": 51,
      "velocity": 0.83,
      "track": "(unnamed)",
      "channel": 9,
      "lane": "F"
    },
    {
      "time": 58.922,
      "duration": 0.213,
      "midi": 34,
      "noteNumber": 34,
      "velocity": 0.51,
      "track": "(unnamed)",
      "channel": 1,
      "lane": "D"
    },
    {
      "time": 58.941,
      "duration": 0.131,
      "midi": 66,
      "noteNumber": 66,
      "velocity": 0.71,
      "track": "(unnamed)",
      "channel": 3,
      "lane": "K"
    },
    {
      "time": 59.042,
      "duration": 0.007,
      "midi": 40,
      "noteNumber": 40,
      "velocity": 0.26,
      "track": "(unnamed)",
      "channel": 9,
      "lane": "D"
    },
    {
      "time": 59.128,
      "duration": 0.112,
      "midi": 68,
      "noteNumber": 68,
      "velocity": 0.85,
      "track": "(unnamed)",
      "channel": 3,
      "lane": "K"
    },
    {
      "time": 59.162,
      "duration": 0.007,
      "midi": 40,
      "noteNumber": 40,
      "velocity": 0.5,
      "track": "(unnamed)",
      "channel": 9,
      "lane": "D"
    },
    {
      "time": 59.281,
      "duration": 0.161,
      "midi": 39,
      "noteNumber": 39,
      "velocity": 0.6,
      "track": "(unnamed)",
      "channel": 2,
      "lane": "D"
    },
    {
      "time": 59.281,
      "duration": 0.007,
      "midi": 35,
      "noteNumber": 35,
      "velocity": 0.74,
      "track": "(unnamed)",
      "channel": 9,
      "lane": "D"
    },
    {
      "time": 59.281,
      "duration": 0.007,
      "midi": 51,
      "noteNumber": 51,
      "velocity": 0.72,
      "track": "(unnamed)",
      "channel": 9,
      "lane": "F"
    },
    {
      "time": 59.281,
      "duration": 0.876,
      "midi": 39,
      "noteNumber": 39,
      "velocity": 0.66,
      "track": "(unnamed)",
      "channel": 1,
      "lane": "D"
    },
    {
      "time": 59.308,
      "duration": 0.146,
      "midi": 69,
      "noteNumber": 69,
      "velocity": 0.94,
      "track": "(unnamed)",
      "channel": 3,
      "lane": "K"
    },
    {
      "time": 59.487,
      "duration": 0.094,
      "midi": 70,
      "noteNumber": 70,
      "velocity": 0.77,
      "track": "(unnamed)",
      "channel": 3,
      "lane": "K"
    },
    {
      "time": 59.51,
      "duration": 0.056,
      "midi": 54,
      "noteNumber": 54,
      "velocity": 0.71,
      "track": "(unnamed)",
      "channel": 2,
      "lane": "J"
    },
    {
      "time": 59.51,
      "duration": 0.03,
      "midi": 58,
      "noteNumber": 58,
      "velocity": 0.54,
      "track": "(unnamed)",
      "channel": 2,
      "lane": "J"
    },
    {
      "time": 59.51,
      "duration": 0.06,
      "midi": 63,
      "noteNumber": 63,
      "velocity": 0.68,
      "track": "(unnamed)",
      "channel": 2,
      "lane": "J"
    },
    {
      "time": 59.641,
      "duration": 0.007,
      "midi": 51,
      "noteNumber": 51,
      "velocity": 0.72,
      "track": "(unnamed)",
      "channel": 9,
      "lane": "F"
    },
    {
      "time": 59.704,
      "duration": 0.071,
      "midi": 69,
      "noteNumber": 69,
      "velocity": 0.63,
      "track": "(unnamed)",
      "channel": 3,
      "lane": "K"
    },
    {
      "time": 59.869,
      "duration": 0.112,
      "midi": 39,
      "noteNumber": 39,
      "velocity": 0.74,
      "track": "(unnamed)",
      "channel": 2,
      "lane": "D"
    },
    {
      "time": 59.88,
      "duration": 0.007,
      "midi": 40,
      "noteNumber": 40,
      "velocity": 0.53,
      "track": "(unnamed)",
      "channel": 9,
      "lane": "D"
    },
    {
      "time": 59.891,
      "duration": 0.12,
      "midi": 68,
      "noteNumber": 68,
      "velocity": 0.8,
      "track": "(unnamed)",
      "channel": 3,
      "lane": "K"
    },
    {
      "time": 60,
      "duration": 0.086,
      "midi": 54,
      "noteNumber": 54,
      "velocity": 0.71,
      "track": "(unnamed)",
      "channel": 2,
      "lane": "J"
    },
    {
      "time": 60,
      "duration": 0.041,
      "midi": 58,
      "noteNumber": 58,
      "velocity": 0.68,
      "track": "(unnamed)",
      "channel": 2,
      "lane": "J"
    },
    {
      "time": 60,
      "duration": 0.049,
      "midi": 63,
      "noteNumber": 63,
      "velocity": 0.54,
      "track": "(unnamed)",
      "channel": 2,
      "lane": "J"
    },
    {
      "time": 60,
      "duration": 0.007,
      "midi": 51,
      "noteNumber": 51,
      "velocity": 0.72,
      "track": "(unnamed)",
      "channel": 9,
      "lane": "F"
    },
    {
      "time": 60.037,
      "duration": 0.172,
      "midi": 66,
      "noteNumber": 66,
      "velocity": 0.85,
      "track": "(unnamed)",
      "channel": 3,
      "lane": "K"
    },
    {
      "time": 60.239,
      "duration": 0.007,
      "midi": 51,
      "noteNumber": 51,
      "velocity": 0.61,
      "track": "(unnamed)",
      "channel": 9,
      "lane": "F"
    },
    {
      "time": 60.359,
      "duration": 0.52,
      "midi": 46,
      "noteNumber": 46,
      "velocity": 0.71,
      "track": "(unnamed)",
      "channel": 2,
      "lane": "F"
    },
    {
      "time": 60.359,
      "duration": 0.007,
      "midi": 40,
      "noteNumber": 40,
      "velocity": 0.53,
      "track": "(unnamed)",
      "channel": 9,
      "lane": "D"
    },
    {
      "time": 60.359,
      "duration": 0.007,
      "midi": 51,
      "noteNumber": 51,
      "velocity": 0.69,
      "track": "(unnamed)",
      "channel": 9,
      "lane": "F"
    },
    {
      "time": 60.359,
      "duration": 0.273,
      "midi": 46,
      "noteNumber": 46,
      "velocity": 0.51,
      "track": "(unnamed)",
      "channel": 1,
      "lane": "F"
    },
    {
      "time": 60.374,
      "duration": 0.314,
      "midi": 58,
      "noteNumber": 58,
      "velocity": 0.54,
      "track": "(unnamed)",
      "channel": 3,
      "lane": "J"
    },
    {
      "time": 60.599,
      "duration": 0.007,
      "midi": 51,
      "noteNumber": 51,
      "velocity": 0.54,
      "track": "(unnamed)",
      "channel": 9,
      "lane": "F"
    },
    {
      "time": 60.644,
      "duration": 0.105,
      "midi": 59,
      "noteNumber": 59,
      "velocity": 0.56,
      "track": "(unnamed)",
      "channel": 3,
      "lane": "J"
    },
    {
      "time": 60.718,
      "duration": 0.12,
      "midi": 53,
      "noteNumber": 53,
      "velocity": 0.57,
      "track": "(unnamed)",
      "channel": 2,
      "lane": "F"
    },
    {
      "time": 60.718,
      "duration": 0.12,
      "midi": 56,
      "noteNumber": 56,
      "velocity": 0.74,
      "track": "(unnamed)",
      "channel": 2,
      "lane": "J"
    },
    {
      "time": 60.718,
      "duration": 0.124,
      "midi": 61,
      "noteNumber": 61,
      "velocity": 0.71,
      "track": "(unnamed)",
      "channel": 2,
      "lane": "J"
    },
    {
      "time": 60.718,
      "duration": 0.007,
      "midi": 51,
      "noteNumber": 51,
      "velocity": 0.83,
      "track": "(unnamed)",
      "channel": 9,
      "lane": "F"
    },
    {
      "time": 60.718,
      "duration": 0.079,
      "midi": 60,
      "noteNumber": 60,
      "velocity": 0.52,
      "track": "(unnamed)",
      "channel": 3,
      "lane": "J"
    },
    {
      "time": 60.718,
      "duration": 0.213,
      "midi": 34,
      "noteNumber": 34,
      "velocity": 0.51,
      "track": "(unnamed)",
      "channel": 1,
      "lane": "D"
    },
    {
      "time": 60.748,
      "duration": 0.12,
      "midi": 61,
      "noteNumber": 61,
      "velocity": 0.77,
      "track": "(unnamed)",
      "channel": 3,
      "lane": "J"
    },
    {
      "time": 60.838,
      "duration": 0.007,
      "midi": 40,
      "noteNumber": 40,
      "velocity": 0.26,
      "track": "(unnamed)",
      "channel": 9,
      "lane": "D"
    },
    {
      "time": 60.958,
      "duration": 0.007,
      "midi": 40,
      "noteNumber": 40,
      "velocity": 0.5,
      "track": "(unnamed)",
      "channel": 9,
      "lane": "D"
    },
    {
      "time": 61.078,
      "duration": 0.161,
      "midi": 39,
      "noteNumber": 39,
      "velocity": 0.6,
      "track": "(unnamed)",
      "channel": 2,
      "lane": "D"
    },
    {
      "time": 61.078,
      "duration": 0.007,
      "midi": 35,
      "noteNumber": 35,
      "velocity": 0.74,
      "track": "(unnamed)",
      "channel": 9,
      "lane": "D"
    },
    {
      "time": 61.078,
      "duration": 0.007,
      "midi": 51,
      "noteNumber": 51,
      "velocity": 0.72,
      "track": "(unnamed)",
      "channel": 9,
      "lane": "F"
    },
    {
      "time": 61.078,
      "duration": 0.876,
      "midi": 39,
      "noteNumber": 39,
      "velocity": 0.66,
      "track": "(unnamed)",
      "channel": 1,
      "lane": "D"
    },
    {
      "time": 61.111,
      "duration": 1.018,
      "midi": 63,
      "noteNumber": 63,
      "velocity": 0.71,
      "track": "(unnamed)",
      "channel": 3,
      "lane": "J"
    },
    {
      "time": 61.306,
      "duration": 0.056,
      "midi": 54,
      "noteNumber": 54,
      "velocity": 0.71,
      "track": "(unnamed)",
      "channel": 2,
      "lane": "J"
    },
    {
      "time": 61.306,
      "duration": 0.03,
      "midi": 58,
      "noteNumber": 58,
      "velocity": 0.54,
      "track": "(unnamed)",
      "channel": 2,
      "lane": "J"
    },
    {
      "time": 61.306,
      "duration": 0.06,
      "midi": 63,
      "noteNumber": 63,
      "velocity": 0.68,
      "track": "(unnamed)",
      "channel": 2,
      "lane": "J"
    },
    {
      "time": 61.437,
      "duration": 0.007,
      "midi": 51,
      "noteNumber": 51,
      "velocity": 0.72,
      "track": "(unnamed)",
      "channel": 9,
      "lane": "F"
    },
    {
      "time": 61.665,
      "duration": 0.112,
      "midi": 39,
      "noteNumber": 39,
      "velocity": 0.74,
      "track": "(unnamed)",
      "channel": 2,
      "lane": "D"
    },
    {
      "time": 61.677,
      "duration": 0.007,
      "midi": 40,
      "noteNumber": 40,
      "velocity": 0.53,
      "track": "(unnamed)",
      "channel": 9,
      "lane": "D"
    },
    {
      "time": 61.796,
      "duration": 0.086,
      "midi": 54,
      "noteNumber": 54,
      "velocity": 0.71,
      "track": "(unnamed)",
      "channel": 2,
      "lane": "J"
    },
    {
      "time": 61.796,
      "duration": 0.041,
      "midi": 58,
      "noteNumber": 58,
      "velocity": 0.68,
      "track": "(unnamed)",
      "channel": 2,
      "lane": "J"
    },
    {
      "time": 61.796,
      "duration": 0.049,
      "midi": 63,
      "noteNumber": 63,
      "velocity": 0.54,
      "track": "(unnamed)",
      "channel": 2,
      "lane": "J"
    },
    {
      "time": 61.796,
      "duration": 0.007,
      "midi": 51,
      "noteNumber": 51,
      "velocity": 0.72,
      "track": "(unnamed)",
      "channel": 9,
      "lane": "F"
    },
    {
      "time": 62.036,
      "duration": 0.007,
      "midi": 51,
      "noteNumber": 51,
      "velocity": 0.61,
      "track": "(unnamed)",
      "channel": 9,
      "lane": "F"
    },
    {
      "time": 62.156,
      "duration": 0.52,
      "midi": 46,
      "noteNumber": 46,
      "velocity": 0.71,
      "track": "(unnamed)",
      "channel": 2,
      "lane": "F"
    },
    {
      "time": 62.156,
      "duration": 0.007,
      "midi": 40,
      "noteNumber": 40,
      "velocity": 0.53,
      "track": "(unnamed)",
      "channel": 9,
      "lane": "D"
    },
    {
      "time": 62.156,
      "duration": 0.007,
      "midi": 51,
      "noteNumber": 51,
      "velocity": 0.69,
      "track": "(unnamed)",
      "channel": 9,
      "lane": "F"
    },
    {
      "time": 62.156,
      "duration": 0.273,
      "midi": 46,
      "noteNumber": 46,
      "velocity": 0.51,
      "track": "(unnamed)",
      "channel": 1,
      "lane": "F"
    },
    {
      "time": 62.159,
      "duration": 0.138,
      "midi": 65,
      "noteNumber": 65,
      "velocity": 0.8,
      "track": "(unnamed)",
      "channel": 3,
      "lane": "J"
    },
    {
      "time": 62.32,
      "duration": 0.071,
      "midi": 66,
      "noteNumber": 66,
      "velocity": 0.52,
      "track": "(unnamed)",
      "channel": 3,
      "lane": "K"
    },
    {
      "time": 62.388,
      "duration": 0.056,
      "midi": 65,
      "noteNumber": 65,
      "velocity": 0.52,
      "track": "(unnamed)",
      "channel": 3,
      "lane": "J"
    },
    {
      "time": 62.395,
      "duration": 0.007,
      "midi": 51,
      "noteNumber": 51,
      "velocity": 0.54,
      "track": "(unnamed)",
      "channel": 9,
      "lane": "F"
    },
    {
      "time": 62.444,
      "duration": 0.071,
      "midi": 63,
      "noteNumber": 63,
      "velocity": 0.74,
      "track": "(unnamed)",
      "channel": 3,
      "lane": "J"
    },
    {
      "time": 62.515,
      "duration": 0.12,
      "midi": 53,
      "noteNumber": 53,
      "velocity": 0.57,
      "track": "(unnamed)",
      "channel": 2,
      "lane": "F"
    },
    {
      "time": 62.515,
      "duration": 0.12,
      "midi": 56,
      "noteNumber": 56,
      "velocity": 0.74,
      "track": "(unnamed)",
      "channel": 2,
      "lane": "J"
    },
    {
      "time": 62.515,
      "duration": 0.124,
      "midi": 61,
      "noteNumber": 61,
      "velocity": 0.71,
      "track": "(unnamed)",
      "channel": 2,
      "lane": "J"
    },
    {
      "time": 62.515,
      "duration": 0.007,
      "midi": 51,
      "noteNumber": 51,
      "velocity": 0.83,
      "track": "(unnamed)",
      "channel": 9,
      "lane": "F"
    },
    {
      "time": 62.515,
      "duration": 0.213,
      "midi": 34,
      "noteNumber": 34,
      "velocity": 0.51,
      "track": "(unnamed)",
      "channel": 1,
      "lane": "D"
    },
    {
      "time": 62.522,
      "duration": 0.352,
      "midi": 61,
      "noteNumber": 61,
      "velocity": 0.63,
      "track": "(unnamed)",
      "channel": 3,
      "lane": "J"
    },
    {
      "time": 62.635,
      "duration": 0.007,
      "midi": 40,
      "noteNumber": 40,
      "velocity": 0.26,
      "track": "(unnamed)",
      "channel": 9,
      "lane": "D"
    },
    {
      "time": 62.754,
      "duration": 0.007,
      "midi": 40,
      "noteNumber": 40,
      "velocity": 0.5,
      "track": "(unnamed)",
      "channel": 9,
      "lane": "D"
    },
    {
      "time": 62.874,
      "duration": 0.161,
      "midi": 39,
      "noteNumber": 39,
      "velocity": 0.6,
      "track": "(unnamed)",
      "channel": 2,
      "lane": "D"
    },
    {
      "time": 62.874,
      "duration": 0.007,
      "midi": 35,
      "noteNumber": 35,
      "velocity": 0.74,
      "track": "(unnamed)",
      "channel": 9,
      "lane": "D"
    },
    {
      "time": 62.874,
      "duration": 0.007,
      "midi": 51,
      "noteNumber": 51,
      "velocity": 0.72,
      "track": "(unnamed)",
      "channel": 9,
      "lane": "F"
    },
    {
      "time": 62.874,
      "duration": 0.876,
      "midi": 39,
      "noteNumber": 39,
      "velocity": 0.66,
      "track": "(unnamed)",
      "channel": 1,
      "lane": "D"
    },
    {
      "time": 62.889,
      "duration": 1.018,
      "midi": 63,
      "noteNumber": 63,
      "velocity": 0.63,
      "track": "(unnamed)",
      "channel": 3,
      "lane": "J"
    },
    {
      "time": 63.102,
      "duration": 0.056,
      "midi": 54,
      "noteNumber": 54,
      "velocity": 0.71,
      "track": "(unnamed)",
      "channel": 2,
      "lane": "J"
    },
    {
      "time": 63.102,
      "duration": 0.03,
      "midi": 58,
      "noteNumber": 58,
      "velocity": 0.54,
      "track": "(unnamed)",
      "channel": 2,
      "lane": "J"
    },
    {
      "time": 63.102,
      "duration": 0.06,
      "midi": 63,
      "noteNumber": 63,
      "velocity": 0.68,
      "track": "(unnamed)",
      "channel": 2,
      "lane": "J"
    },
    {
      "time": 63.233,
      "duration": 0.007,
      "midi": 51,
      "noteNumber": 51,
      "velocity": 0.72,
      "track": "(unnamed)",
      "channel": 9,
      "lane": "F"
    },
    {
      "time": 63.462,
      "duration": 0.112,
      "midi": 39,
      "noteNumber": 39,
      "velocity": 0.74,
      "track": "(unnamed)",
      "channel": 2,
      "lane": "D"
    },
    {
      "time": 63.473,
      "duration": 0.007,
      "midi": 40,
      "noteNumber": 40,
      "velocity": 0.53,
      "track": "(unnamed)",
      "channel": 9,
      "lane": "D"
    },
    {
      "time": 63.593,
      "duration": 0.086,
      "midi": 54,
      "noteNumber": 54,
      "velocity": 0.71,
      "track": "(unnamed)",
      "channel": 2,
      "lane": "J"
    },
    {
      "time": 63.593,
      "duration": 0.041,
      "midi": 58,
      "noteNumber": 58,
      "velocity": 0.68,
      "track": "(unnamed)",
      "channel": 2,
      "lane": "J"
    },
    {
      "time": 63.593,
      "duration": 0.049,
      "midi": 63,
      "noteNumber": 63,
      "velocity": 0.54,
      "track": "(unnamed)",
      "channel": 2,
      "lane": "J"
    },
    {
      "time": 63.593,
      "duration": 0.007,
      "midi": 51,
      "noteNumber": 51,
      "velocity": 0.72,
      "track": "(unnamed)",
      "channel": 9,
      "lane": "F"
    },
    {
      "time": 63.832,
      "duration": 0.007,
      "midi": 51,
      "noteNumber": 51,
      "velocity": 0.61,
      "track": "(unnamed)",
      "channel": 9,
      "lane": "F"
    },
    {
      "time": 63.952,
      "duration": 0.52,
      "midi": 46,
      "noteNumber": 46,
      "velocity": 0.71,
      "track": "(unnamed)",
      "channel": 2,
      "lane": "F"
    },
    {
      "time": 63.952,
      "duration": 0.007,
      "midi": 40,
      "noteNumber": 40,
      "velocity": 0.53,
      "track": "(unnamed)",
      "channel": 9,
      "lane": "D"
    },
    {
      "time": 63.952,
      "duration": 0.007,
      "midi": 51,
      "noteNumber": 51,
      "velocity": 0.69,
      "track": "(unnamed)",
      "channel": 9,
      "lane": "F"
    },
    {
      "time": 63.952,
      "duration": 0.273,
      "midi": 46,
      "noteNumber": 46,
      "velocity": 0.51,
      "track": "(unnamed)",
      "channel": 1,
      "lane": "F"
    },
    {
      "time": 63.956,
      "duration": 0.138,
      "midi": 61,
      "noteNumber": 61,
      "velocity": 0.8,
      "track": "(unnamed)",
      "channel": 3,
      "lane": "J"
    },
    {
      "time": 64.117,
      "duration": 0.071,
      "midi": 63,
      "noteNumber": 63,
      "velocity": 0.52,
      "track": "(unnamed)",
      "channel": 3,
      "lane": "J"
    },
    {
      "time": 64.184,
      "duration": 0.056,
      "midi": 61,
      "noteNumber": 61,
      "velocity": 0.52,
      "track": "(unnamed)",
      "channel": 3,
      "lane": "J"
    },
    {
      "time": 64.192,
      "duration": 0.007,
      "midi": 51,
      "noteNumber": 51,
      "velocity": 0.54,
      "track": "(unnamed)",
      "channel": 9,
      "lane": "F"
    },
    {
      "time": 64.24,
      "duration": 0.071,
      "midi": 58,
      "noteNumber": 58,
      "velocity": 0.74,
      "track": "(unnamed)",
      "channel": 3,
      "lane": "J"
    },
    {
      "time": 64.311,
      "duration": 0.12,
      "midi": 53,
      "noteNumber": 53,
      "velocity": 0.57,
      "track": "(unnamed)",
      "channel": 2,
      "lane": "F"
    },
    {
      "time": 64.311,
      "duration": 0.12,
      "midi": 56,
      "noteNumber": 56,
      "velocity": 0.74,
      "track": "(unnamed)",
      "channel": 2,
      "lane": "J"
    },
    {
      "time": 64.311,
      "duration": 0.124,
      "midi": 61,
      "noteNumber": 61,
      "velocity": 0.71,
      "track": "(unnamed)",
      "channel": 2,
      "lane": "J"
    },
    {
      "time": 64.311,
      "duration": 0.007,
      "midi": 51,
      "noteNumber": 51,
      "velocity": 0.83,
      "track": "(unnamed)",
      "channel": 9,
      "lane": "F"
    },
    {
      "time": 64.311,
      "duration": 0.213,
      "midi": 34,
      "noteNumber": 34,
      "velocity": 0.51,
      "track": "(unnamed)",
      "channel": 1,
      "lane": "D"
    },
    {
      "time": 64.319,
      "duration": 0.352,
      "midi": 56,
      "noteNumber": 56,
      "velocity": 0.63,
      "track": "(unnamed)",
      "channel": 3,
      "lane": "J"
    },
    {
      "time": 64.431,
      "duration": 0.007,
      "midi": 40,
      "noteNumber": 40,
      "velocity": 0.26,
      "track": "(unnamed)",
      "channel": 9,
      "lane": "D"
    },
    {
      "time": 64.551,
      "duration": 0.007,
      "midi": 40,
      "noteNumber": 40,
      "velocity": 0.5,
      "track": "(unnamed)",
      "channel": 9,
      "lane": "D"
    },
    {
      "time": 64.671,
      "duration": 0.161,
      "midi": 39,
      "noteNumber": 39,
      "velocity": 0.6,
      "track": "(unnamed)",
      "channel": 2,
      "lane": "D"
    },
    {
      "time": 64.671,
      "duration": 0.007,
      "midi": 35,
      "noteNumber": 35,
      "velocity": 0.74,
      "track": "(unnamed)",
      "channel": 9,
      "lane": "D"
    },
    {
      "time": 64.671,
      "duration": 0.007,
      "midi": 51,
      "noteNumber": 51,
      "velocity": 0.72,
      "track": "(unnamed)",
      "channel": 9,
      "lane": "F"
    },
    {
      "time": 64.671,
      "duration": 0.876,
      "midi": 39,
      "noteNumber": 39,
      "velocity": 0.66,
      "track": "(unnamed)",
      "channel": 1,
      "lane": "D"
    },
    {
      "time": 64.682,
      "duration": 0.969,
      "midi": 58,
      "noteNumber": 58,
      "velocity": 0.56,
      "track": "(unnamed)",
      "channel": 3,
      "lane": "J"
    },
    {
      "time": 64.899,
      "duration": 0.056,
      "midi": 54,
      "noteNumber": 54,
      "velocity": 0.71,
      "track": "(unnamed)",
      "channel": 2,
      "lane": "J"
    },
    {
      "time": 64.899,
      "duration": 0.03,
      "midi": 58,
      "noteNumber": 58,
      "velocity": 0.54,
      "track": "(unnamed)",
      "channel": 2,
      "lane": "J"
    },
    {
      "time": 64.899,
      "duration": 0.06,
      "midi": 63,
      "noteNumber": 63,
      "velocity": 0.68,
      "track": "(unnamed)",
      "channel": 2,
      "lane": "J"
    },
    {
      "time": 65.03,
      "duration": 0.007,
      "midi": 51,
      "noteNumber": 51,
      "velocity": 0.72,
      "track": "(unnamed)",
      "channel": 9,
      "lane": "F"
    },
    {
      "time": 65.258,
      "duration": 0.112,
      "midi": 39,
      "noteNumber": 39,
      "velocity": 0.74,
      "track": "(unnamed)",
      "channel": 2,
      "lane": "D"
    },
    {
      "time": 65.269,
      "duration": 0.007,
      "midi": 40,
      "noteNumber": 40,
      "velocity": 0.53,
      "track": "(unnamed)",
      "channel": 9,
      "lane": "D"
    },
    {
      "time": 65.389,
      "duration": 0.086,
      "midi": 54,
      "noteNumber": 54,
      "velocity": 0.71,
      "track": "(unnamed)",
      "channel": 2,
      "lane": "J"
    },
    {
      "time": 65.389,
      "duration": 0.041,
      "midi": 58,
      "noteNumber": 58,
      "velocity": 0.68,
      "track": "(unnamed)",
      "channel": 2,
      "lane": "J"
    },
    {
      "time": 65.389,
      "duration": 0.049,
      "midi": 63,
      "noteNumber": 63,
      "velocity": 0.54,
      "track": "(unnamed)",
      "channel": 2,
      "lane": "J"
    },
    {
      "time": 65.389,
      "duration": 0.007,
      "midi": 51,
      "noteNumber": 51,
      "velocity": 0.72,
      "track": "(unnamed)",
      "channel": 9,
      "lane": "F"
    },
    {
      "time": 65.629,
      "duration": 0.007,
      "midi": 51,
      "noteNumber": 51,
      "velocity": 0.61,
      "track": "(unnamed)",
      "channel": 9,
      "lane": "F"
    },
    {
      "time": 65.748,
      "duration": 0.52,
      "midi": 46,
      "noteNumber": 46,
      "velocity": 0.71,
      "track": "(unnamed)",
      "channel": 2,
      "lane": "F"
    },
    {
      "time": 65.748,
      "duration": 0.007,
      "midi": 40,
      "noteNumber": 40,
      "velocity": 0.53,
      "track": "(unnamed)",
      "channel": 9,
      "lane": "D"
    },
    {
      "time": 65.748,
      "duration": 0.007,
      "midi": 51,
      "noteNumber": 51,
      "velocity": 0.69,
      "track": "(unnamed)",
      "channel": 9,
      "lane": "F"
    },
    {
      "time": 65.748,
      "duration": 0.273,
      "midi": 46,
      "noteNumber": 46,
      "velocity": 0.51,
      "track": "(unnamed)",
      "channel": 1,
      "lane": "F"
    },
    {
      "time": 65.988,
      "duration": 0.007,
      "midi": 51,
      "noteNumber": 51,
      "velocity": 0.54,
      "track": "(unnamed)",
      "channel": 9,
      "lane": "F"
    },
    {
      "time": 66.108,
      "duration": 0.12,
      "midi": 53,
      "noteNumber": 53,
      "velocity": 0.57,
      "track": "(unnamed)",
      "channel": 2,
      "lane": "F"
    },
    {
      "time": 66.108,
      "duration": 0.12,
      "midi": 56,
      "noteNumber": 56,
      "velocity": 0.74,
      "track": "(unnamed)",
      "channel": 2,
      "lane": "J"
    },
    {
      "time": 66.108,
      "duration": 0.124,
      "midi": 61,
      "noteNumber": 61,
      "velocity": 0.71,
      "track": "(unnamed)",
      "channel": 2,
      "lane": "J"
    },
    {
      "time": 66.108,
      "duration": 0.007,
      "midi": 51,
      "noteNumber": 51,
      "velocity": 0.83,
      "track": "(unnamed)",
      "channel": 9,
      "lane": "F"
    },
    {
      "time": 66.108,
      "duration": 0.213,
      "midi": 34,
      "noteNumber": 34,
      "velocity": 0.51,
      "track": "(unnamed)",
      "channel": 1,
      "lane": "D"
    },
    {
      "time": 66.227,
      "duration": 0.007,
      "midi": 40,
      "noteNumber": 40,
      "velocity": 0.26,
      "track": "(unnamed)",
      "channel": 9,
      "lane": "D"
    },
    {
      "time": 66.347,
      "duration": 0.007,
      "midi": 40,
      "noteNumber": 40,
      "velocity": 0.5,
      "track": "(unnamed)",
      "channel": 9,
      "lane": "D"
    },
    {
      "time": 66.467,
      "duration": 0.161,
      "midi": 39,
      "noteNumber": 39,
      "velocity": 0.6,
      "track": "(unnamed)",
      "channel": 2,
      "lane": "D"
    },
    {
      "time": 66.467,
      "duration": 0.007,
      "midi": 35,
      "noteNumber": 35,
      "velocity": 0.74,
      "track": "(unnamed)",
      "channel": 9,
      "lane": "D"
    },
    {
      "time": 66.467,
      "duration": 0.007,
      "midi": 51,
      "noteNumber": 51,
      "velocity": 0.72,
      "track": "(unnamed)",
      "channel": 9,
      "lane": "F"
    },
    {
      "time": 66.467,
      "duration": 0.876,
      "midi": 39,
      "noteNumber": 39,
      "velocity": 0.66,
      "track": "(unnamed)",
      "channel": 1,
      "lane": "D"
    },
    {
      "time": 66.489,
      "duration": 0.052,
      "midi": 69,
      "noteNumber": 69,
      "velocity": 0.71,
      "track": "(unnamed)",
      "channel": 3,
      "lane": "K"
    },
    {
      "time": 66.542,
      "duration": 0.883,
      "midi": 70,
      "noteNumber": 70,
      "velocity": 0.71,
      "track": "(unnamed)",
      "channel": 3,
      "lane": "K"
    },
    {
      "time": 66.695,
      "duration": 0.056,
      "midi": 54,
      "noteNumber": 54,
      "velocity": 0.71,
      "track": "(unnamed)",
      "channel": 2,
      "lane": "J"
    },
    {
      "time": 66.695,
      "duration": 0.03,
      "midi": 58,
      "noteNumber": 58,
      "velocity": 0.54,
      "track": "(unnamed)",
      "channel": 2,
      "lane": "J"
    },
    {
      "time": 66.695,
      "duration": 0.06,
      "midi": 63,
      "noteNumber": 63,
      "velocity": 0.68,
      "track": "(unnamed)",
      "channel": 2,
      "lane": "J"
    },
    {
      "time": 66.826,
      "duration": 0.007,
      "midi": 51,
      "noteNumber": 51,
      "velocity": 0.72,
      "track": "(unnamed)",
      "channel": 9,
      "lane": "F"
    },
    {
      "time": 67.055,
      "duration": 0.112,
      "midi": 39,
      "noteNumber": 39,
      "velocity": 0.74,
      "track": "(unnamed)",
      "channel": 2,
      "lane": "D"
    },
    {
      "time": 67.066,
      "duration": 0.007,
      "midi": 40,
      "noteNumber": 40,
      "velocity": 0.53,
      "track": "(unnamed)",
      "channel": 9,
      "lane": "D"
    },
    {
      "time": 67.186,
      "duration": 0.086,
      "midi": 54,
      "noteNumber": 54,
      "velocity": 0.71,
      "track": "(unnamed)",
      "channel": 2,
      "lane": "J"
    },
    {
      "time": 67.186,
      "duration": 0.041,
      "midi": 58,
      "noteNumber": 58,
      "velocity": 0.68,
      "track": "(unnamed)",
      "channel": 2,
      "lane": "J"
    },
    {
      "time": 67.186,
      "duration": 0.049,
      "midi": 63,
      "noteNumber": 63,
      "velocity": 0.54,
      "track": "(unnamed)",
      "channel": 2,
      "lane": "J"
    },
    {
      "time": 67.186,
      "duration": 0.007,
      "midi": 51,
      "noteNumber": 51,
      "velocity": 0.72,
      "track": "(unnamed)",
      "channel": 9,
      "lane": "F"
    },
    {
      "time": 67.414,
      "duration": 0.131,
      "midi": 63,
      "noteNumber": 63,
      "velocity": 0.49,
      "track": "(unnamed)",
      "channel": 3,
      "lane": "J"
    },
    {
      "time": 67.425,
      "duration": 0.007,
      "midi": 51,
      "noteNumber": 51,
      "velocity": 0.61,
      "track": "(unnamed)",
      "channel": 9,
      "lane": "F"
    },
    {
      "time": 67.492,
      "duration": 0.094,
      "midi": 61,
      "noteNumber": 61,
      "velocity": 0.42,
      "track": "(unnamed)",
      "channel": 3,
      "lane": "J"
    },
    {
      "time": 67.545,
      "duration": 0.52,
      "midi": 46,
      "noteNumber": 46,
      "velocity": 0.71,
      "track": "(unnamed)",
      "channel": 2,
      "lane": "F"
    },
    {
      "time": 67.545,
      "duration": 0.007,
      "midi": 40,
      "noteNumber": 40,
      "velocity": 0.53,
      "track": "(unnamed)",
      "channel": 9,
      "lane": "D"
    },
    {
      "time": 67.545,
      "duration": 0.007,
      "midi": 51,
      "noteNumber": 51,
      "velocity": 0.69,
      "track": "(unnamed)",
      "channel": 9,
      "lane": "F"
    },
    {
      "time": 67.545,
      "duration": 0.273,
      "midi": 46,
      "noteNumber": 46,
      "velocity": 0.51,
      "track": "(unnamed)",
      "channel": 1,
      "lane": "F"
    },
    {
      "time": 67.56,
      "duration": 0.116,
      "midi": 58,
      "noteNumber": 58,
      "velocity": 0.43,
      "track": "(unnamed)",
      "channel": 3,
      "lane": "J"
    },
    {
      "time": 67.784,
      "duration": 0.007,
      "midi": 51,
      "noteNumber": 51,
      "velocity": 0.54,
      "track": "(unnamed)",
      "channel": 9,
      "lane": "F"
    },
    {
      "time": 67.904,
      "duration": 0.12,
      "midi": 53,
      "noteNumber": 53,
      "velocity": 0.57,
      "track": "(unnamed)",
      "channel": 2,
      "lane": "F"
    },
    {
      "time": 67.904,
      "duration": 0.12,
      "midi": 56,
      "noteNumber": 56,
      "velocity": 0.74,
      "track": "(unnamed)",
      "channel": 2,
      "lane": "J"
    },
    {
      "time": 67.904,
      "duration": 0.124,
      "midi": 61,
      "noteNumber": 61,
      "velocity": 0.71,
      "track": "(unnamed)",
      "channel": 2,
      "lane": "J"
    },
    {
      "time": 67.904,
      "duration": 0.007,
      "midi": 51,
      "noteNumber": 51,
      "velocity": 0.83,
      "track": "(unnamed)",
      "channel": 9,
      "lane": "F"
    },
    {
      "time": 67.904,
      "duration": 0.213,
      "midi": 34,
      "noteNumber": 34,
      "velocity": 0.51,
      "track": "(unnamed)",
      "channel": 1,
      "lane": "D"
    },
    {
      "time": 68.024,
      "duration": 0.007,
      "midi": 40,
      "noteNumber": 40,
      "velocity": 0.26,
      "track": "(unnamed)",
      "channel": 9,
      "lane": "D"
    },
    {
      "time": 68.144,
      "duration": 0.007,
      "midi": 40,
      "noteNumber": 40,
      "velocity": 0.5,
      "track": "(unnamed)",
      "channel": 9,
      "lane": "D"
    },
    {
      "time": 68.263,
      "duration": 0.161,
      "midi": 39,
      "noteNumber": 39,
      "velocity": 0.6,
      "track": "(unnamed)",
      "channel": 2,
      "lane": "D"
    },
    {
      "time": 68.263,
      "duration": 0.007,
      "midi": 35,
      "noteNumber": 35,
      "velocity": 0.74,
      "track": "(unnamed)",
      "channel": 9,
      "lane": "D"
    },
    {
      "time": 68.263,
      "duration": 0.007,
      "midi": 51,
      "noteNumber": 51,
      "velocity": 0.72,
      "track": "(unnamed)",
      "channel": 9,
      "lane": "F"
    },
    {
      "time": 68.263,
      "duration": 0.876,
      "midi": 39,
      "noteNumber": 39,
      "velocity": 0.66,
      "track": "(unnamed)",
      "channel": 1,
      "lane": "D"
    },
    {
      "time": 68.278,
      "duration": 0.588,
      "midi": 63,
      "noteNumber": 63,
      "velocity": 0.6,
      "track": "(unnamed)",
      "channel": 3,
      "lane": "J"
    },
    {
      "time": 68.492,
      "duration": 0.056,
      "midi": 54,
      "noteNumber": 54,
      "velocity": 0.71,
      "track": "(unnamed)",
      "channel": 2,
      "lane": "J"
    },
    {
      "time": 68.492,
      "duration": 0.03,
      "midi": 58,
      "noteNumber": 58,
      "velocity": 0.54,
      "track": "(unnamed)",
      "channel": 2,
      "lane": "J"
    },
    {
      "time": 68.492,
      "duration": 0.06,
      "midi": 63,
      "noteNumber": 63,
      "velocity": 0.68,
      "track": "(unnamed)",
      "channel": 2,
      "lane": "J"
    },
    {
      "time": 68.623,
      "duration": 0.007,
      "midi": 51,
      "noteNumber": 51,
      "velocity": 0.72,
      "track": "(unnamed)",
      "channel": 9,
      "lane": "F"
    },
    {
      "time": 68.851,
      "duration": 0.112,
      "midi": 39,
      "noteNumber": 39,
      "velocity": 0.74,
      "track": "(unnamed)",
      "channel": 2,
      "lane": "D"
    },
    {
      "time": 68.862,
      "duration": 0.007,
      "midi": 40,
      "noteNumber": 40,
      "velocity": 0.53,
      "track": "(unnamed)",
      "channel": 9,
      "lane": "D"
    },
    {
      "time": 68.873,
      "duration": 0.135,
      "midi": 65,
      "noteNumber": 65,
      "velocity": 0.71,
      "track": "(unnamed)",
      "channel": 3,
      "lane": "J"
    },
    {
      "time": 68.982,
      "duration": 0.086,
      "midi": 54,
      "noteNumber": 54,
      "velocity": 0.71,
      "track": "(unnamed)",
      "channel": 2,
      "lane": "J"
    },
    {
      "time": 68.982,
      "duration": 0.041,
      "midi": 58,
      "noteNumber": 58,
      "velocity": 0.68,
      "track": "(unnamed)",
      "channel": 2,
      "lane": "J"
    },
    {
      "time": 68.982,
      "duration": 0.049,
      "midi": 63,
      "noteNumber": 63,
      "velocity": 0.54,
      "track": "(unnamed)",
      "channel": 2,
      "lane": "J"
    },
    {
      "time": 68.982,
      "duration": 0.007,
      "midi": 51,
      "noteNumber": 51,
      "velocity": 0.72,
      "track": "(unnamed)",
      "channel": 9,
      "lane": "F"
    },
    {
      "time": 69.057,
      "duration": 0.161,
      "midi": 66,
      "noteNumber": 66,
      "velocity": 0.52,
      "track": "(unnamed)",
      "channel": 3,
      "lane": "K"
    },
    {
      "time": 69.221,
      "duration": 0.007,
      "midi": 51,
      "noteNumber": 51,
      "velocity": 0.61,
      "track": "(unnamed)",
      "channel": 9,
      "lane": "F"
    },
    {
      "time": 69.341,
      "duration": 0.52,
      "midi": 46,
      "noteNumber": 46,
      "velocity": 0.71,
      "track": "(unnamed)",
      "channel": 2,
      "lane": "F"
    },
    {
      "time": 69.341,
      "duration": 0.007,
      "midi": 40,
      "noteNumber": 40,
      "velocity": 0.53,
      "track": "(unnamed)",
      "channel": 9,
      "lane": "D"
    },
    {
      "time": 69.341,
      "duration": 0.007,
      "midi": 51,
      "noteNumber": 51,
      "velocity": 0.69,
      "track": "(unnamed)",
      "channel": 9,
      "lane": "F"
    },
    {
      "time": 69.341,
      "duration": 0.273,
      "midi": 46,
      "noteNumber": 46,
      "velocity": 0.51,
      "track": "(unnamed)",
      "channel": 1,
      "lane": "F"
    },
    {
      "time": 69.581,
      "duration": 0.007,
      "midi": 51,
      "noteNumber": 51,
      "velocity": 0.54,
      "track": "(unnamed)",
      "channel": 9,
      "lane": "F"
    },
    {
      "time": 69.701,
      "duration": 0.12,
      "midi": 53,
      "noteNumber": 53,
      "velocity": 0.57,
      "track": "(unnamed)",
      "channel": 2,
      "lane": "F"
    },
    {
      "time": 69.701,
      "duration": 0.12,
      "midi": 56,
      "noteNumber": 56,
      "velocity": 0.74,
      "track": "(unnamed)",
      "channel": 2,
      "lane": "J"
    },
    {
      "time": 69.701,
      "duration": 0.124,
      "midi": 61,
      "noteNumber": 61,
      "velocity": 0.71,
      "track": "(unnamed)",
      "channel": 2,
      "lane": "J"
    },
    {
      "time": 69.701,
      "duration": 0.007,
      "midi": 51,
      "noteNumber": 51,
      "velocity": 0.83,
      "track": "(unnamed)",
      "channel": 9,
      "lane": "F"
    },
    {
      "time": 69.701,
      "duration": 0.213,
      "midi": 34,
      "noteNumber": 34,
      "velocity": 0.51,
      "track": "(unnamed)",
      "channel": 1,
      "lane": "D"
    },
    {
      "time": 69.82,
      "duration": 0.007,
      "midi": 40,
      "noteNumber": 40,
      "velocity": 0.26,
      "track": "(unnamed)",
      "channel": 9,
      "lane": "D"
    },
    {
      "time": 69.94,
      "duration": 0.007,
      "midi": 40,
      "noteNumber": 40,
      "velocity": 0.5,
      "track": "(unnamed)",
      "channel": 9,
      "lane": "D"
    },
    {
      "time": 70.06,
      "duration": 0.161,
      "midi": 39,
      "noteNumber": 39,
      "velocity": 0.6,
      "track": "(unnamed)",
      "channel": 2,
      "lane": "D"
    },
    {
      "time": 70.06,
      "duration": 0.007,
      "midi": 35,
      "noteNumber": 35,
      "velocity": 0.74,
      "track": "(unnamed)",
      "channel": 9,
      "lane": "D"
    },
    {
      "time": 70.06,
      "duration": 0.007,
      "midi": 51,
      "noteNumber": 51,
      "velocity": 0.72,
      "track": "(unnamed)",
      "channel": 9,
      "lane": "F"
    },
    {
      "time": 70.06,
      "duration": 0.876,
      "midi": 39,
      "noteNumber": 39,
      "velocity": 0.66,
      "track": "(unnamed)",
      "channel": 1,
      "lane": "D"
    },
    {
      "time": 70.067,
      "duration": 0.195,
      "midi": 75,
      "noteNumber": 75,
      "velocity": 0.82,
      "track": "(unnamed)",
      "channel": 3,
      "lane": "K"
    },
    {
      "time": 70.288,
      "duration": 0.056,
      "midi": 54,
      "noteNumber": 54,
      "velocity": 0.71,
      "track": "(unnamed)",
      "channel": 2,
      "lane": "J"
    },
    {
      "time": 70.288,
      "duration": 0.03,
      "midi": 58,
      "noteNumber": 58,
      "velocity": 0.54,
      "track": "(unnamed)",
      "channel": 2,
      "lane": "J"
    },
    {
      "time": 70.288,
      "duration": 0.06,
      "midi": 63,
      "noteNumber": 63,
      "velocity": 0.68,
      "track": "(unnamed)",
      "channel": 2,
      "lane": "J"
    },
    {
      "time": 70.296,
      "duration": 0.12,
      "midi": 70,
      "noteNumber": 70,
      "velocity": 0.74,
      "track": "(unnamed)",
      "channel": 3,
      "lane": "K"
    },
    {
      "time": 70.419,
      "duration": 0.007,
      "midi": 51,
      "noteNumber": 51,
      "velocity": 0.72,
      "track": "(unnamed)",
      "channel": 9,
      "lane": "F"
    },
    {
      "time": 70.449,
      "duration": 0.157,
      "midi": 68,
      "noteNumber": 68,
      "velocity": 0.52,
      "track": "(unnamed)",
      "channel": 3,
      "lane": "K"
    },
    {
      "time": 70.647,
      "duration": 0.112,
      "midi": 39,
      "noteNumber": 39,
      "velocity": 0.74,
      "track": "(unnamed)",
      "channel": 2,
      "lane": "D"
    },
    {
      "time": 70.651,
      "duration": 0.109,
      "midi": 66,
      "noteNumber": 66,
      "velocity": 0.52,
      "track": "(unnamed)",
      "channel": 3,
      "lane": "K"
    },
    {
      "time": 70.659,
      "duration": 0.007,
      "midi": 40,
      "noteNumber": 40,
      "velocity": 0.53,
      "track": "(unnamed)",
      "channel": 9,
      "lane": "D"
    },
    {
      "time": 70.778,
      "duration": 0.086,
      "midi": 54,
      "noteNumber": 54,
      "velocity": 0.71,
      "track": "(unnamed)",
      "channel": 2,
      "lane": "J"
    },
    {
      "time": 70.778,
      "duration": 0.041,
      "midi": 58,
      "noteNumber": 58,
      "velocity": 0.68,
      "track": "(unnamed)",
      "channel": 2,
      "lane": "J"
    },
    {
      "time": 70.778,
      "duration": 0.049,
      "midi": 63,
      "noteNumber": 63,
      "velocity": 0.54,
      "track": "(unnamed)",
      "channel": 2,
      "lane": "J"
    },
    {
      "time": 70.778,
      "duration": 0.007,
      "midi": 51,
      "noteNumber": 51,
      "velocity": 0.72,
      "track": "(unnamed)",
      "channel": 9,
      "lane": "F"
    },
    {
      "time": 70.79,
      "duration": 0.165,
      "midi": 68,
      "noteNumber": 68,
      "velocity": 0.71,
      "track": "(unnamed)",
      "channel": 3,
      "lane": "K"
    },
    {
      "time": 70.965,
      "duration": 0.49,
      "midi": 63,
      "noteNumber": 63,
      "velocity": 0.57,
      "track": "(unnamed)",
      "channel": 3,
      "lane": "J"
    },
    {
      "time": 71.018,
      "duration": 0.007,
      "midi": 51,
      "noteNumber": 51,
      "velocity": 0.61,
      "track": "(unnamed)",
      "channel": 9,
      "lane": "F"
    },
    {
      "time": 71.138,
      "duration": 0.52,
      "midi": 46,
      "noteNumber": 46,
      "velocity": 0.71,
      "track": "(unnamed)",
      "channel": 2,
      "lane": "F"
    },
    {
      "time": 71.138,
      "duration": 0.007,
      "midi": 40,
      "noteNumber": 40,
      "velocity": 0.53,
      "track": "(unnamed)",
      "channel": 9,
      "lane": "D"
    },
    {
      "time": 71.138,
      "duration": 0.007,
      "midi": 51,
      "noteNumber": 51,
      "velocity": 0.69,
      "track": "(unnamed)",
      "channel": 9,
      "lane": "F"
    },
    {
      "time": 71.138,
      "duration": 0.273,
      "midi": 46,
      "noteNumber": 46,
      "velocity": 0.51,
      "track": "(unnamed)",
      "channel": 1,
      "lane": "F"
    },
    {
      "time": 71.377,
      "duration": 0.007,
      "midi": 51,
      "noteNumber": 51,
      "velocity": 0.54,
      "track": "(unnamed)",
      "channel": 9,
      "lane": "F"
    },
    {
      "time": 71.497,
      "duration": 0.12,
      "midi": 53,
      "noteNumber": 53,
      "velocity": 0.57,
      "track": "(unnamed)",
      "channel": 2,
      "lane": "F"
    },
    {
      "time": 71.497,
      "duration": 0.12,
      "midi": 56,
      "noteNumber": 56,
      "velocity": 0.74,
      "track": "(unnamed)",
      "channel": 2,
      "lane": "J"
    },
    {
      "time": 71.497,
      "duration": 0.124,
      "midi": 61,
      "noteNumber": 61,
      "velocity": 0.71,
      "track": "(unnamed)",
      "channel": 2,
      "lane": "J"
    },
    {
      "time": 71.497,
      "duration": 0.007,
      "midi": 51,
      "noteNumber": 51,
      "velocity": 0.83,
      "track": "(unnamed)",
      "channel": 9,
      "lane": "F"
    },
    {
      "time": 71.497,
      "duration": 0.213,
      "midi": 34,
      "noteNumber": 34,
      "velocity": 0.51,
      "track": "(unnamed)",
      "channel": 1,
      "lane": "D"
    },
    {
      "time": 71.523,
      "duration": 0.086,
      "midi": 66,
      "noteNumber": 66,
      "velocity": 0.8,
      "track": "(unnamed)",
      "channel": 3,
      "lane": "K"
    },
    {
      "time": 71.617,
      "duration": 0.007,
      "midi": 40,
      "noteNumber": 40,
      "velocity": 0.26,
      "track": "(unnamed)",
      "channel": 9,
      "lane": "D"
    },
    {
      "time": 71.736,
      "duration": 0.007,
      "midi": 40,
      "noteNumber": 40,
      "velocity": 0.5,
      "track": "(unnamed)",
      "channel": 9,
      "lane": "D"
    },
    {
      "time": 71.856,
      "duration": 0.161,
      "midi": 39,
      "noteNumber": 39,
      "velocity": 0.6,
      "track": "(unnamed)",
      "channel": 2,
      "lane": "D"
    },
    {
      "time": 71.856,
      "duration": 0.007,
      "midi": 35,
      "noteNumber": 35,
      "velocity": 0.74,
      "track": "(unnamed)",
      "channel": 9,
      "lane": "D"
    },
    {
      "time": 71.856,
      "duration": 0.007,
      "midi": 51,
      "noteNumber": 51,
      "velocity": 0.72,
      "track": "(unnamed)",
      "channel": 9,
      "lane": "F"
    },
    {
      "time": 71.856,
      "duration": 0.876,
      "midi": 39,
      "noteNumber": 39,
      "velocity": 0.66,
      "track": "(unnamed)",
      "channel": 1,
      "lane": "D"
    },
    {
      "time": 71.886,
      "duration": 0.528,
      "midi": 63,
      "noteNumber": 63,
      "velocity": 0.68,
      "track": "(unnamed)",
      "channel": 3,
      "lane": "J"
    },
    {
      "time": 72.084,
      "duration": 0.056,
      "midi": 54,
      "noteNumber": 54,
      "velocity": 0.71,
      "track": "(unnamed)",
      "channel": 2,
      "lane": "J"
    },
    {
      "time": 72.084,
      "duration": 0.03,
      "midi": 58,
      "noteNumber": 58,
      "velocity": 0.54,
      "track": "(unnamed)",
      "channel": 2,
      "lane": "J"
    },
    {
      "time": 72.084,
      "duration": 0.06,
      "midi": 63,
      "noteNumber": 63,
      "velocity": 0.68,
      "track": "(unnamed)",
      "channel": 2,
      "lane": "J"
    },
    {
      "time": 72.215,
      "duration": 0.007,
      "midi": 51,
      "noteNumber": 51,
      "velocity": 0.72,
      "track": "(unnamed)",
      "channel": 9,
      "lane": "F"
    },
    {
      "time": 72.444,
      "duration": 0.112,
      "midi": 39,
      "noteNumber": 39,
      "velocity": 0.74,
      "track": "(unnamed)",
      "channel": 2,
      "lane": "D"
    },
    {
      "time": 72.448,
      "duration": 0.138,
      "midi": 65,
      "noteNumber": 65,
      "velocity": 0.49,
      "track": "(unnamed)",
      "channel": 3,
      "lane": "J"
    },
    {
      "time": 72.455,
      "duration": 0.007,
      "midi": 40,
      "noteNumber": 40,
      "velocity": 0.53,
      "track": "(unnamed)",
      "channel": 9,
      "lane": "D"
    },
    {
      "time": 72.575,
      "duration": 0.086,
      "midi": 54,
      "noteNumber": 54,
      "velocity": 0.71,
      "track": "(unnamed)",
      "channel": 2,
      "lane": "J"
    },
    {
      "time": 72.575,
      "duration": 0.041,
      "midi": 58,
      "noteNumber": 58,
      "velocity": 0.68,
      "track": "(unnamed)",
      "channel": 2,
      "lane": "J"
    },
    {
      "time": 72.575,
      "duration": 0.049,
      "midi": 63,
      "noteNumber": 63,
      "velocity": 0.54,
      "track": "(unnamed)",
      "channel": 2,
      "lane": "J"
    },
    {
      "time": 72.575,
      "duration": 0.007,
      "midi": 51,
      "noteNumber": 51,
      "velocity": 0.72,
      "track": "(unnamed)",
      "channel": 9,
      "lane": "F"
    },
    {
      "time": 72.608,
      "duration": 0.157,
      "midi": 66,
      "noteNumber": 66,
      "velocity": 0.54,
      "track": "(unnamed)",
      "channel": 3,
      "lane": "K"
    },
    {
      "time": 72.814,
      "duration": 0.007,
      "midi": 51,
      "noteNumber": 51,
      "velocity": 0.61,
      "track": "(unnamed)",
      "channel": 9,
      "lane": "F"
    },
    {
      "time": 72.818,
      "duration": 0.097,
      "midi": 70,
      "noteNumber": 70,
      "velocity": 0.68,
      "track": "(unnamed)",
      "channel": 3,
      "lane": "K"
    },
    {
      "time": 72.934,
      "duration": 0.52,
      "midi": 46,
      "noteNumber": 46,
      "velocity": 0.71,
      "track": "(unnamed)",
      "channel": 2,
      "lane": "F"
    },
    {
      "time": 72.934,
      "duration": 0.007,
      "midi": 40,
      "noteNumber": 40,
      "velocity": 0.53,
      "track": "(unnamed)",
      "channel": 9,
      "lane": "D"
    },
    {
      "time": 72.934,
      "duration": 0.007,
      "midi": 51,
      "noteNumber": 51,
      "velocity": 0.69,
      "track": "(unnamed)",
      "channel": 9,
      "lane": "F"
    },
    {
      "time": 72.934,
      "duration": 0.273,
      "midi": 46,
      "noteNumber": 46,
      "velocity": 0.51,
      "track": "(unnamed)",
      "channel": 1,
      "lane": "F"
    },
    {
      "time": 73.174,
      "duration": 0.007,
      "midi": 51,
      "noteNumber": 51,
      "velocity": 0.54,
      "track": "(unnamed)",
      "channel": 9,
      "lane": "F"
    },
    {
      "time": 73.293,
      "duration": 0.12,
      "midi": 53,
      "noteNumber": 53,
      "velocity": 0.57,
      "track": "(unnamed)",
      "channel": 2,
      "lane": "F"
    },
    {
      "time": 73.293,
      "duration": 0.12,
      "midi": 56,
      "noteNumber": 56,
      "velocity": 0.74,
      "track": "(unnamed)",
      "channel": 2,
      "lane": "J"
    },
    {
      "time": 73.293,
      "duration": 0.124,
      "midi": 61,
      "noteNumber": 61,
      "velocity": 0.71,
      "track": "(unnamed)",
      "channel": 2,
      "lane": "J"
    },
    {
      "time": 73.293,
      "duration": 0.007,
      "midi": 51,
      "noteNumber": 51,
      "velocity": 0.83,
      "track": "(unnamed)",
      "channel": 9,
      "lane": "F"
    },
    {
      "time": 73.293,
      "duration": 0.213,
      "midi": 34,
      "noteNumber": 34,
      "velocity": 0.51,
      "track": "(unnamed)",
      "channel": 1,
      "lane": "D"
    },
    {
      "time": 73.413,
      "duration": 0.007,
      "midi": 40,
      "noteNumber": 40,
      "velocity": 0.26,
      "track": "(unnamed)",
      "channel": 9,
      "lane": "D"
    },
    {
      "time": 73.533,
      "duration": 0.007,
      "midi": 40,
      "noteNumber": 40,
      "velocity": 0.5,
      "track": "(unnamed)",
      "channel": 9,
      "lane": "D"
    },
    {
      "time": 73.653,
      "duration": 0.161,
      "midi": 39,
      "noteNumber": 39,
      "velocity": 0.6,
      "track": "(unnamed)",
      "channel": 2,
      "lane": "D"
    },
    {
      "time": 73.653,
      "duration": 0.007,
      "midi": 35,
      "noteNumber": 35,
      "velocity": 0.74,
      "track": "(unnamed)",
      "channel": 9,
      "lane": "D"
    },
    {
      "time": 73.653,
      "duration": 0.007,
      "midi": 51,
      "noteNumber": 51,
      "velocity": 0.72,
      "track": "(unnamed)",
      "channel": 9,
      "lane": "F"
    },
    {
      "time": 73.653,
      "duration": 0.876,
      "midi": 39,
      "noteNumber": 39,
      "velocity": 0.66,
      "track": "(unnamed)",
      "channel": 1,
      "lane": "D"
    },
    {
      "time": 73.679,
      "duration": 0.588,
      "midi": 63,
      "noteNumber": 63,
      "velocity": 0.57,
      "track": "(unnamed)",
      "channel": 3,
      "lane": "J"
    },
    {
      "time": 73.881,
      "duration": 0.056,
      "midi": 54,
      "noteNumber": 54,
      "velocity": 0.71,
      "track": "(unnamed)",
      "channel": 2,
      "lane": "J"
    },
    {
      "time": 73.881,
      "duration": 0.03,
      "midi": 58,
      "noteNumber": 58,
      "velocity": 0.54,
      "track": "(unnamed)",
      "channel": 2,
      "lane": "J"
    },
    {
      "time": 73.881,
      "duration": 0.06,
      "midi": 63,
      "noteNumber": 63,
      "velocity": 0.68,
      "track": "(unnamed)",
      "channel": 2,
      "lane": "J"
    },
    {
      "time": 74.012,
      "duration": 0.007,
      "midi": 51,
      "noteNumber": 51,
      "velocity": 0.72,
      "track": "(unnamed)",
      "channel": 9,
      "lane": "F"
    },
    {
      "time": 74.24,
      "duration": 0.112,
      "midi": 39,
      "noteNumber": 39,
      "velocity": 0.74,
      "track": "(unnamed)",
      "channel": 2,
      "lane": "D"
    },
    {
      "time": 74.251,
      "duration": 0.007,
      "midi": 40,
      "noteNumber": 40,
      "velocity": 0.53,
      "track": "(unnamed)",
      "channel": 9,
      "lane": "D"
    },
    {
      "time": 74.289,
      "duration": 0.288,
      "midi": 66,
      "noteNumber": 66,
      "velocity": 0.56,
      "track": "(unnamed)",
      "channel": 3,
      "lane": "K"
    },
    {
      "time": 74.371,
      "duration": 0.086,
      "midi": 54,
      "noteNumber": 54,
      "velocity": 0.71,
      "track": "(unnamed)",
      "channel": 2,
      "lane": "J"
    },
    {
      "time": 74.371,
      "duration": 0.041,
      "midi": 58,
      "noteNumber": 58,
      "velocity": 0.68,
      "track": "(unnamed)",
      "channel": 2,
      "lane": "J"
    },
    {
      "time": 74.371,
      "duration": 0.049,
      "midi": 63,
      "noteNumber": 63,
      "velocity": 0.54,
      "track": "(unnamed)",
      "channel": 2,
      "lane": "J"
    },
    {
      "time": 74.371,
      "duration": 0.007,
      "midi": 51,
      "noteNumber": 51,
      "velocity": 0.72,
      "track": "(unnamed)",
      "channel": 9,
      "lane": "F"
    },
    {
      "time": 74.603,
      "duration": 0.094,
      "midi": 63,
      "noteNumber": 63,
      "velocity": 0.49,
      "track": "(unnamed)",
      "channel": 3,
      "lane": "J"
    },
    {
      "time": 74.611,
      "duration": 0.007,
      "midi": 51,
      "noteNumber": 51,
      "velocity": 0.61,
      "track": "(unnamed)",
      "channel": 9,
      "lane": "F"
    },
    {
      "time": 74.73,
      "duration": 0.52,
      "midi": 46,
      "noteNumber": 46,
      "velocity": 0.71,
      "track": "(unnamed)",
      "channel": 2,
      "lane": "F"
    },
    {
      "time": 74.73,
      "duration": 0.007,
      "midi": 40,
      "noteNumber": 40,
      "velocity": 0.53,
      "track": "(unnamed)",
      "channel": 9,
      "lane": "D"
    },
    {
      "time": 74.73,
      "duration": 0.007,
      "midi": 51,
      "noteNumber": 51,
      "velocity": 0.69,
      "track": "(unnamed)",
      "channel": 9,
      "lane": "F"
    },
    {
      "time": 74.73,
      "duration": 0.273,
      "midi": 46,
      "noteNumber": 46,
      "velocity": 0.51,
      "track": "(unnamed)",
      "channel": 1,
      "lane": "F"
    },
    {
      "time": 74.738,
      "duration": 0.273,
      "midi": 65,
      "noteNumber": 65,
      "velocity": 0.57,
      "track": "(unnamed)",
      "channel": 3,
      "lane": "J"
    },
    {
      "time": 74.97,
      "duration": 0.007,
      "midi": 51,
      "noteNumber": 51,
      "velocity": 0.54,
      "track": "(unnamed)",
      "channel": 9,
      "lane": "F"
    },
    {
      "time": 75.09,
      "duration": 0.12,
      "midi": 53,
      "noteNumber": 53,
      "velocity": 0.57,
      "track": "(unnamed)",
      "channel": 2,
      "lane": "F"
    },
    {
      "time": 75.09,
      "duration": 0.12,
      "midi": 56,
      "noteNumber": 56,
      "velocity": 0.74,
      "track": "(unnamed)",
      "channel": 2,
      "lane": "J"
    },
    {
      "time": 75.09,
      "duration": 0.124,
      "midi": 61,
      "noteNumber": 61,
      "velocity": 0.71,
      "track": "(unnamed)",
      "channel": 2,
      "lane": "J"
    },
    {
      "time": 75.09,
      "duration": 0.007,
      "midi": 51,
      "noteNumber": 51,
      "velocity": 0.83,
      "track": "(unnamed)",
      "channel": 9,
      "lane": "F"
    },
    {
      "time": 75.09,
      "duration": 0.124,
      "midi": 68,
      "noteNumber": 68,
      "velocity": 0.8,
      "track": "(unnamed)",
      "channel": 3,
      "lane": "K"
    },
    {
      "time": 75.09,
      "duration": 0.213,
      "midi": 34,
      "noteNumber": 34,
      "velocity": 0.51,
      "track": "(unnamed)",
      "channel": 1,
      "lane": "D"
    },
    {
      "time": 75.209,
      "duration": 0.007,
      "midi": 40,
      "noteNumber": 40,
      "velocity": 0.26,
      "track": "(unnamed)",
      "channel": 9,
      "lane": "D"
    },
    {
      "time": 75.329,
      "duration": 0.007,
      "midi": 40,
      "noteNumber": 40,
      "velocity": 0.5,
      "track": "(unnamed)",
      "channel": 9,
      "lane": "D"
    },
    {
      "time": 75.449,
      "duration": 0.161,
      "midi": 39,
      "noteNumber": 39,
      "velocity": 0.6,
      "track": "(unnamed)",
      "channel": 2,
      "lane": "D"
    },
    {
      "time": 75.449,
      "duration": 0.007,
      "midi": 35,
      "noteNumber": 35,
      "velocity": 0.74,
      "track": "(unnamed)",
      "channel": 9,
      "lane": "D"
    },
    {
      "time": 75.449,
      "duration": 0.007,
      "midi": 51,
      "noteNumber": 51,
      "velocity": 0.72,
      "track": "(unnamed)",
      "channel": 9,
      "lane": "F"
    },
    {
      "time": 75.449,
      "duration": 0.876,
      "midi": 39,
      "noteNumber": 39,
      "velocity": 0.66,
      "track": "(unnamed)",
      "channel": 1,
      "lane": "D"
    },
    {
      "time": 75.486,
      "duration": 0.535,
      "midi": 63,
      "noteNumber": 63,
      "velocity": 0.63,
      "track": "(unnamed)",
      "channel": 3,
      "lane": "J"
    },
    {
      "time": 75.677,
      "duration": 0.056,
      "midi": 54,
      "noteNumber": 54,
      "velocity": 0.71,
      "track": "(unnamed)",
      "channel": 2,
      "lane": "J"
    },
    {
      "time": 75.677,
      "duration": 0.03,
      "midi": 58,
      "noteNumber": 58,
      "velocity": 0.54,
      "track": "(unnamed)",
      "channel": 2,
      "lane": "J"
    },
    {
      "time": 75.677,
      "duration": 0.06,
      "midi": 63,
      "noteNumber": 63,
      "velocity": 0.68,
      "track": "(unnamed)",
      "channel": 2,
      "lane": "J"
    },
    {
      "time": 75.808,
      "duration": 0.007,
      "midi": 51,
      "noteNumber": 51,
      "velocity": 0.72,
      "track": "(unnamed)",
      "channel": 9,
      "lane": "F"
    },
    {
      "time": 76.037,
      "duration": 0.112,
      "midi": 39,
      "noteNumber": 39,
      "velocity": 0.74,
      "track": "(unnamed)",
      "channel": 2,
      "lane": "D"
    },
    {
      "time": 76.048,
      "duration": 0.007,
      "midi": 40,
      "noteNumber": 40,
      "velocity": 0.53,
      "track": "(unnamed)",
      "channel": 9,
      "lane": "D"
    },
    {
      "time": 76.048,
      "duration": 0.341,
      "midi": 66,
      "noteNumber": 66,
      "velocity": 0.52,
      "track": "(unnamed)",
      "channel": 3,
      "lane": "K"
    },
    {
      "time": 76.168,
      "duration": 0.086,
      "midi": 54,
      "noteNumber": 54,
      "velocity": 0.71,
      "track": "(unnamed)",
      "channel": 2,
      "lane": "J"
    },
    {
      "time": 76.168,
      "duration": 0.041,
      "midi": 58,
      "noteNumber": 58,
      "velocity": 0.68,
      "track": "(unnamed)",
      "channel": 2,
      "lane": "J"
    },
    {
      "time": 76.168,
      "duration": 0.049,
      "midi": 63,
      "noteNumber": 63,
      "velocity": 0.54,
      "track": "(unnamed)",
      "channel": 2,
      "lane": "J"
    },
    {
      "time": 76.168,
      "duration": 0.007,
      "midi": 51,
      "noteNumber": 51,
      "velocity": 0.72,
      "track": "(unnamed)",
      "channel": 9,
      "lane": "F"
    },
    {
      "time": 76.407,
      "duration": 0.007,
      "midi": 51,
      "noteNumber": 51,
      "velocity": 0.61,
      "track": "(unnamed)",
      "channel": 9,
      "lane": "F"
    },
    {
      "time": 76.407,
      "duration": 0.124,
      "midi": 63,
      "noteNumber": 63,
      "velocity": 0.49,
      "track": "(unnamed)",
      "channel": 3,
      "lane": "J"
    },
    {
      "time": 76.527,
      "duration": 0.52,
      "midi": 46,
      "noteNumber": 46,
      "velocity": 0.71,
      "track": "(unnamed)",
      "channel": 2,
      "lane": "F"
    },
    {
      "time": 76.527,
      "duration": 0.007,
      "midi": 40,
      "noteNumber": 40,
      "velocity": 0.53,
      "track": "(unnamed)",
      "channel": 9,
      "lane": "D"
    },
    {
      "time": 76.527,
      "duration": 0.007,
      "midi": 51,
      "noteNumber": 51,
      "velocity": 0.69,
      "track": "(unnamed)",
      "channel": 9,
      "lane": "F"
    },
    {
      "time": 76.527,
      "duration": 0.273,
      "midi": 46,
      "noteNumber": 46,
      "velocity": 0.51,
      "track": "(unnamed)",
      "channel": 1,
      "lane": "F"
    },
    {
      "time": 76.557,
      "duration": 0.146,
      "midi": 65,
      "noteNumber": 65,
      "velocity": 0.77,
      "track": "(unnamed)",
      "channel": 3,
      "lane": "J"
    },
    {
      "time": 76.766,
      "duration": 0.007,
      "midi": 51,
      "noteNumber": 51,
      "velocity": 0.54,
      "track": "(unnamed)",
      "channel": 9,
      "lane": "F"
    },
    {
      "time": 76.766,
      "duration": 0.131,
      "midi": 61,
      "noteNumber": 61,
      "velocity": 0.68,
      "track": "(unnamed)",
      "channel": 3,
      "lane": "J"
    },
    {
      "time": 76.886,
      "duration": 0.12,
      "midi": 53,
      "noteNumber": 53,
      "velocity": 0.57,
      "track": "(unnamed)",
      "channel": 2,
      "lane": "F"
    },
    {
      "time": 76.886,
      "duration": 0.12,
      "midi": 56,
      "noteNumber": 56,
      "velocity": 0.74,
      "track": "(unnamed)",
      "channel": 2,
      "lane": "J"
    },
    {
      "time": 76.886,
      "duration": 0.124,
      "midi": 61,
      "noteNumber": 61,
      "velocity": 0.71,
      "track": "(unnamed)",
      "channel": 2,
      "lane": "J"
    },
    {
      "time": 76.886,
      "duration": 0.007,
      "midi": 51,
      "noteNumber": 51,
      "velocity": 0.83,
      "track": "(unnamed)",
      "channel": 9,
      "lane": "F"
    },
    {
      "time": 76.886,
      "duration": 0.213,
      "midi": 34,
      "noteNumber": 34,
      "velocity": 0.51,
      "track": "(unnamed)",
      "channel": 1,
      "lane": "D"
    },
    {
      "time": 76.942,
      "duration": 0.112,
      "midi": 58,
      "noteNumber": 58,
      "velocity": 0.52,
      "track": "(unnamed)",
      "channel": 3,
      "lane": "J"
    },
    {
      "time": 77.006,
      "duration": 0.007,
      "midi": 40,
      "noteNumber": 40,
      "velocity": 0.26,
      "track": "(unnamed)",
      "channel": 9,
      "lane": "D"
    },
    {
      "time": 77.111,
      "duration": 0.109,
      "midi": 56,
      "noteNumber": 56,
      "velocity": 0.57,
      "track": "(unnamed)",
      "channel": 3,
      "lane": "J"
    },
    {
      "time": 77.126,
      "duration": 0.007,
      "midi": 40,
      "noteNumber": 40,
      "velocity": 0.5,
      "track": "(unnamed)",
      "channel": 9,
      "lane": "D"
    },
    {
      "time": 77.245,
      "duration": 0.161,
      "midi": 39,
      "noteNumber": 39,
      "velocity": 0.6,
      "track": "(unnamed)",
      "channel": 2,
      "lane": "D"
    },
    {
      "time": 77.245,
      "duration": 0.007,
      "midi": 35,
      "noteNumber": 35,
      "velocity": 0.74,
      "track": "(unnamed)",
      "channel": 9,
      "lane": "D"
    },
    {
      "time": 77.245,
      "duration": 0.007,
      "midi": 51,
      "noteNumber": 51,
      "velocity": 0.72,
      "track": "(unnamed)",
      "channel": 9,
      "lane": "F"
    },
    {
      "time": 77.245,
      "duration": 0.876,
      "midi": 39,
      "noteNumber": 39,
      "velocity": 0.66,
      "track": "(unnamed)",
      "channel": 1,
      "lane": "D"
    },
    {
      "time": 77.279,
      "duration": 0.528,
      "midi": 63,
      "noteNumber": 63,
      "velocity": 0.57,
      "track": "(unnamed)",
      "channel": 3,
      "lane": "J"
    },
    {
      "time": 77.474,
      "duration": 0.056,
      "midi": 54,
      "noteNumber": 54,
      "velocity": 0.71,
      "track": "(unnamed)",
      "channel": 2,
      "lane": "J"
    },
    {
      "time": 77.474,
      "duration": 0.03,
      "midi": 58,
      "noteNumber": 58,
      "velocity": 0.54,
      "track": "(unnamed)",
      "channel": 2,
      "lane": "J"
    },
    {
      "time": 77.474,
      "duration": 0.06,
      "midi": 63,
      "noteNumber": 63,
      "velocity": 0.68,
      "track": "(unnamed)",
      "channel": 2,
      "lane": "J"
    },
    {
      "time": 77.605,
      "duration": 0.007,
      "midi": 51,
      "noteNumber": 51,
      "velocity": 0.72,
      "track": "(unnamed)",
      "channel": 9,
      "lane": "F"
    },
    {
      "time": 77.833,
      "duration": 0.112,
      "midi": 39,
      "noteNumber": 39,
      "velocity": 0.74,
      "track": "(unnamed)",
      "channel": 2,
      "lane": "D"
    },
    {
      "time": 77.844,
      "duration": 0.007,
      "midi": 40,
      "noteNumber": 40,
      "velocity": 0.53,
      "track": "(unnamed)",
      "channel": 9,
      "lane": "D"
    },
    {
      "time": 77.852,
      "duration": 0.352,
      "midi": 66,
      "noteNumber": 66,
      "velocity": 0.54,
      "track": "(unnamed)",
      "channel": 3,
      "lane": "K"
    },
    {
      "time": 77.964,
      "duration": 0.086,
      "midi": 54,
      "noteNumber": 54,
      "velocity": 0.71,
      "track": "(unnamed)",
      "channel": 2,
      "lane": "J"
    },
    {
      "time": 77.964,
      "duration": 0.041,
      "midi": 58,
      "noteNumber": 58,
      "velocity": 0.68,
      "track": "(unnamed)",
      "channel": 2,
      "lane": "J"
    },
    {
      "time": 77.964,
      "duration": 0.049,
      "midi": 63,
      "noteNumber": 63,
      "velocity": 0.54,
      "track": "(unnamed)",
      "channel": 2,
      "lane": "J"
    },
    {
      "time": 77.964,
      "duration": 0.007,
      "midi": 51,
      "noteNumber": 51,
      "velocity": 0.72,
      "track": "(unnamed)",
      "channel": 9,
      "lane": "F"
    },
    {
      "time": 78.203,
      "duration": 0.007,
      "midi": 51,
      "noteNumber": 51,
      "velocity": 0.61,
      "track": "(unnamed)",
      "channel": 9,
      "lane": "F"
    },
    {
      "time": 78.222,
      "duration": 0.09,
      "midi": 63,
      "noteNumber": 63,
      "velocity": 0.45,
      "track": "(unnamed)",
      "channel": 3,
      "lane": "J"
    },
    {
      "time": 78.323,
      "duration": 0.52,
      "midi": 46,
      "noteNumber": 46,
      "velocity": 0.71,
      "track": "(unnamed)",
      "channel": 2,
      "lane": "F"
    },
    {
      "time": 78.323,
      "duration": 0.007,
      "midi": 40,
      "noteNumber": 40,
      "velocity": 0.53,
      "track": "(unnamed)",
      "channel": 9,
      "lane": "D"
    },
    {
      "time": 78.323,
      "duration": 0.007,
      "midi": 51,
      "noteNumber": 51,
      "velocity": 0.69,
      "track": "(unnamed)",
      "channel": 9,
      "lane": "F"
    },
    {
      "time": 78.323,
      "duration": 0.273,
      "midi": 46,
      "noteNumber": 46,
      "velocity": 0.51,
      "track": "(unnamed)",
      "channel": 1,
      "lane": "F"
    },
    {
      "time": 78.361,
      "duration": 0.266,
      "midi": 65,
      "noteNumber": 65,
      "velocity": 0.54,
      "track": "(unnamed)",
      "channel": 3,
      "lane": "J"
    },
    {
      "time": 78.563,
      "duration": 0.007,
      "midi": 51,
      "noteNumber": 51,
      "velocity": 0.54,
      "track": "(unnamed)",
      "channel": 9,
      "lane": "F"
    },
    {
      "time": 78.679,
      "duration": 0.124,
      "midi": 68,
      "noteNumber": 68,
      "velocity": 0.8,
      "track": "(unnamed)",
      "channel": 3,
      "lane": "K"
    },
    {
      "time": 78.683,
      "duration": 0.12,
      "midi": 53,
      "noteNumber": 53,
      "velocity": 0.57,
      "track": "(unnamed)",
      "channel": 2,
      "lane": "F"
    },
    {
      "time": 78.683,
      "duration": 0.12,
      "midi": 56,
      "noteNumber": 56,
      "velocity": 0.74,
      "track": "(unnamed)",
      "channel": 2,
      "lane": "J"
    },
    {
      "time": 78.683,
      "duration": 0.124,
      "midi": 61,
      "noteNumber": 61,
      "velocity": 0.71,
      "track": "(unnamed)",
      "channel": 2,
      "lane": "J"
    },
    {
      "time": 78.683,
      "duration": 0.007,
      "midi": 51,
      "noteNumber": 51,
      "velocity": 0.83,
      "track": "(unnamed)",
      "channel": 9,
      "lane": "F"
    },
    {
      "time": 78.683,
      "duration": 0.213,
      "midi": 34,
      "noteNumber": 34,
      "velocity": 0.51,
      "track": "(unnamed)",
      "channel": 1,
      "lane": "D"
    },
    {
      "time": 78.802,
      "duration": 0.007,
      "midi": 40,
      "noteNumber": 40,
      "velocity": 0.26,
      "track": "(unnamed)",
      "channel": 9,
      "lane": "D"
    },
    {
      "time": 78.922,
      "duration": 0.007,
      "midi": 40,
      "noteNumber": 40,
      "velocity": 0.5,
      "track": "(unnamed)",
      "channel": 9,
      "lane": "D"
    },
    {
      "time": 79.042,
      "duration": 0.161,
      "midi": 39,
      "noteNumber": 39,
      "velocity": 0.6,
      "track": "(unnamed)",
      "channel": 2,
      "lane": "D"
    },
    {
      "time": 79.042,
      "duration": 0.007,
      "midi": 35,
      "noteNumber": 35,
      "velocity": 0.74,
      "track": "(unnamed)",
      "channel": 9,
      "lane": "D"
    },
    {
      "time": 79.042,
      "duration": 0.007,
      "midi": 51,
      "noteNumber": 51,
      "velocity": 0.72,
      "track": "(unnamed)",
      "channel": 9,
      "lane": "F"
    },
    {
      "time": 79.042,
      "duration": 0.876,
      "midi": 39,
      "noteNumber": 39,
      "velocity": 0.66,
      "track": "(unnamed)",
      "channel": 1,
      "lane": "D"
    },
    {
      "time": 79.068,
      "duration": 0.531,
      "midi": 63,
      "noteNumber": 63,
      "velocity": 0.6,
      "track": "(unnamed)",
      "channel": 3,
      "lane": "J"
    },
    {
      "time": 79.27,
      "duration": 0.056,
      "midi": 54,
      "noteNumber": 54,
      "velocity": 0.71,
      "track": "(unnamed)",
      "channel": 2,
      "lane": "J"
    },
    {
      "time": 79.27,
      "duration": 0.03,
      "midi": 58,
      "noteNumber": 58,
      "velocity": 0.54,
      "track": "(unnamed)",
      "channel": 2,
      "lane": "J"
    },
    {
      "time": 79.27,
      "duration": 0.06,
      "midi": 63,
      "noteNumber": 63,
      "velocity": 0.68,
      "track": "(unnamed)",
      "channel": 2,
      "lane": "J"
    },
    {
      "time": 79.401,
      "duration": 0.007,
      "midi": 51,
      "noteNumber": 51,
      "velocity": 0.72,
      "track": "(unnamed)",
      "channel": 9,
      "lane": "F"
    },
    {
      "time": 79.629,
      "duration": 0.112,
      "midi": 39,
      "noteNumber": 39,
      "velocity": 0.74,
      "track": "(unnamed)",
      "channel": 2,
      "lane": "D"
    },
    {
      "time": 79.641,
      "duration": 0.007,
      "midi": 40,
      "noteNumber": 40,
      "velocity": 0.53,
      "track": "(unnamed)",
      "channel": 9,
      "lane": "D"
    },
    {
      "time": 79.641,
      "duration": 0.359,
      "midi": 66,
      "noteNumber": 66,
      "velocity": 0.54,
      "track": "(unnamed)",
      "channel": 3,
      "lane": "K"
    },
    {
      "time": 79.76,
      "duration": 0.086,
      "midi": 54,
      "noteNumber": 54,
      "velocity": 0.71,
      "track": "(unnamed)",
      "channel": 2,
      "lane": "J"
    },
    {
      "time": 79.76,
      "duration": 0.041,
      "midi": 58,
      "noteNumber": 58,
      "velocity": 0.68,
      "track": "(unnamed)",
      "channel": 2,
      "lane": "J"
    },
    {
      "time": 79.76,
      "duration": 0.049,
      "midi": 63,
      "noteNumber": 63,
      "velocity": 0.54,
      "track": "(unnamed)",
      "channel": 2,
      "lane": "J"
    },
    {
      "time": 79.76,
      "duration": 0.007,
      "midi": 51,
      "noteNumber": 51,
      "velocity": 0.72,
      "track": "(unnamed)",
      "channel": 9,
      "lane": "F"
    },
    {
      "time": 79.992,
      "duration": 0.12,
      "midi": 63,
      "noteNumber": 63,
      "velocity": 0.52,
      "track": "(unnamed)",
      "channel": 3,
      "lane": "J"
    },
    {
      "time": 80,
      "duration": 0.007,
      "midi": 51,
      "noteNumber": 51,
      "velocity": 0.61,
      "track": "(unnamed)",
      "channel": 9,
      "lane": "F"
    },
    {
      "time": 80.12,
      "duration": 0.52,
      "midi": 46,
      "noteNumber": 46,
      "velocity": 0.71,
      "track": "(unnamed)",
      "channel": 2,
      "lane": "F"
    },
    {
      "time": 80.12,
      "duration": 0.007,
      "midi": 40,
      "noteNumber": 40,
      "velocity": 0.53,
      "track": "(unnamed)",
      "channel": 9,
      "lane": "D"
    },
    {
      "time": 80.12,
      "duration": 0.007,
      "midi": 51,
      "noteNumber": 51,
      "velocity": 0.69,
      "track": "(unnamed)",
      "channel": 9,
      "lane": "F"
    },
    {
      "time": 80.12,
      "duration": 0.273,
      "midi": 46,
      "noteNumber": 46,
      "velocity": 0.51,
      "track": "(unnamed)",
      "channel": 1,
      "lane": "F"
    },
    {
      "time": 80.146,
      "duration": 0.18,
      "midi": 65,
      "noteNumber": 65,
      "velocity": 0.54,
      "track": "(unnamed)",
      "channel": 3,
      "lane": "J"
    },
    {
      "time": 80.359,
      "duration": 0.007,
      "midi": 51,
      "noteNumber": 51,
      "velocity": 0.54,
      "track": "(unnamed)",
      "channel": 9,
      "lane": "F"
    },
    {
      "time": 80.363,
      "duration": 0.101,
      "midi": 70,
      "noteNumber": 70,
      "velocity": 0.8,
      "track": "(unnamed)",
      "channel": 3,
      "lane": "K"
    },
    {
      "time": 80.479,
      "duration": 0.12,
      "midi": 53,
      "noteNumber": 53,
      "velocity": 0.57,
      "track": "(unnamed)",
      "channel": 2,
      "lane": "F"
    },
    {
      "time": 80.479,
      "duration": 0.12,
      "midi": 56,
      "noteNumber": 56,
      "velocity": 0.74,
      "track": "(unnamed)",
      "channel": 2,
      "lane": "J"
    },
    {
      "time": 80.479,
      "duration": 0.124,
      "midi": 61,
      "noteNumber": 61,
      "velocity": 0.71,
      "track": "(unnamed)",
      "channel": 2,
      "lane": "J"
    },
    {
      "time": 80.479,
      "duration": 0.007,
      "midi": 51,
      "noteNumber": 51,
      "velocity": 0.83,
      "track": "(unnamed)",
      "channel": 9,
      "lane": "F"
    },
    {
      "time": 80.479,
      "duration": 0.213,
      "midi": 34,
      "noteNumber": 34,
      "velocity": 0.51,
      "track": "(unnamed)",
      "channel": 1,
      "lane": "D"
    },
    {
      "time": 80.599,
      "duration": 0.007,
      "midi": 40,
      "noteNumber": 40,
      "velocity": 0.26,
      "track": "(unnamed)",
      "channel": 9,
      "lane": "D"
    },
    {
      "time": 80.718,
      "duration": 0.007,
      "midi": 40,
      "noteNumber": 40,
      "velocity": 0.5,
      "track": "(unnamed)",
      "channel": 9,
      "lane": "D"
    },
    {
      "time": 80.838,
      "duration": 0.161,
      "midi": 39,
      "noteNumber": 39,
      "velocity": 0.6,
      "track": "(unnamed)",
      "channel": 2,
      "lane": "D"
    },
    {
      "time": 80.838,
      "duration": 0.007,
      "midi": 35,
      "noteNumber": 35,
      "velocity": 0.74,
      "track": "(unnamed)",
      "channel": 9,
      "lane": "D"
    },
    {
      "time": 80.838,
      "duration": 0.007,
      "midi": 51,
      "noteNumber": 51,
      "velocity": 0.72,
      "track": "(unnamed)",
      "channel": 9,
      "lane": "F"
    },
    {
      "time": 80.838,
      "duration": 0.876,
      "midi": 39,
      "noteNumber": 39,
      "velocity": 0.66,
      "track": "(unnamed)",
      "channel": 1,
      "lane": "D"
    },
    {
      "time": 81.067,
      "duration": 0.056,
      "midi": 54,
      "noteNumber": 54,
      "velocity": 0.71,
      "track": "(unnamed)",
      "channel": 2,
      "lane": "J"
    },
    {
      "time": 81.067,
      "duration": 0.03,
      "midi": 58,
      "noteNumber": 58,
      "velocity": 0.54,
      "track": "(unnamed)",
      "channel": 2,
      "lane": "J"
    },
    {
      "time": 81.067,
      "duration": 0.06,
      "midi": 63,
      "noteNumber": 63,
      "velocity": 0.68,
      "track": "(unnamed)",
      "channel": 2,
      "lane": "J"
    },
    {
      "time": 81.194,
      "duration": 0.049,
      "midi": 67,
      "noteNumber": 67,
      "velocity": 0.54,
      "track": "(unnamed)",
      "channel": 3,
      "lane": "K"
    },
    {
      "time": 81.198,
      "duration": 0.007,
      "midi": 51,
      "noteNumber": 51,
      "velocity": 0.72,
      "track": "(unnamed)",
      "channel": 9,
      "lane": "F"
    },
    {
      "time": 81.257,
      "duration": 1.119,
      "midi": 68,
      "noteNumber": 68,
      "velocity": 0.69,
      "track": "(unnamed)",
      "channel": 3,
      "lane": "K"
    },
    {
      "time": 81.426,
      "duration": 0.112,
      "midi": 39,
      "noteNumber": 39,
      "velocity": 0.74,
      "track": "(unnamed)",
      "channel": 2,
      "lane": "D"
    },
    {
      "time": 81.437,
      "duration": 0.007,
      "midi": 40,
      "noteNumber": 40,
      "velocity": 0.53,
      "track": "(unnamed)",
      "channel": 9,
      "lane": "D"
    },
    {
      "time": 81.557,
      "duration": 0.086,
      "midi": 54,
      "noteNumber": 54,
      "velocity": 0.71,
      "track": "(unnamed)",
      "channel": 2,
      "lane": "J"
    },
    {
      "time": 81.557,
      "duration": 0.041,
      "midi": 58,
      "noteNumber": 58,
      "velocity": 0.68,
      "track": "(unnamed)",
      "channel": 2,
      "lane": "J"
    },
    {
      "time": 81.557,
      "duration": 0.049,
      "midi": 63,
      "noteNumber": 63,
      "velocity": 0.54,
      "track": "(unnamed)",
      "channel": 2,
      "lane": "J"
    },
    {
      "time": 81.557,
      "duration": 0.007,
      "midi": 51,
      "noteNumber": 51,
      "velocity": 0.72,
      "track": "(unnamed)",
      "channel": 9,
      "lane": "F"
    },
    {
      "time": 81.796,
      "duration": 0.007,
      "midi": 51,
      "noteNumber": 51,
      "velocity": 0.61,
      "track": "(unnamed)",
      "channel": 9,
      "lane": "F"
    },
    {
      "time": 81.916,
      "duration": 0.52,
      "midi": 46,
      "noteNumber": 46,
      "velocity": 0.71,
      "track": "(unnamed)",
      "channel": 2,
      "lane": "F"
    },
    {
      "time": 81.916,
      "duration": 0.007,
      "midi": 40,
      "noteNumber": 40,
      "velocity": 0.53,
      "track": "(unnamed)",
      "channel": 9,
      "lane": "D"
    },
    {
      "time": 81.916,
      "duration": 0.007,
      "midi": 51,
      "noteNumber": 51,
      "velocity": 0.69,
      "track": "(unnamed)",
      "channel": 9,
      "lane": "F"
    },
    {
      "time": 81.916,
      "duration": 0.273,
      "midi": 46,
      "noteNumber": 46,
      "velocity": 0.51,
      "track": "(unnamed)",
      "channel": 1,
      "lane": "F"
    },
    {
      "time": 82.156,
      "duration": 0.007,
      "midi": 51,
      "noteNumber": 51,
      "velocity": 0.54,
      "track": "(unnamed)",
      "channel": 9,
      "lane": "F"
    },
    {
      "time": 82.275,
      "duration": 0.12,
      "midi": 53,
      "noteNumber": 53,
      "velocity": 0.57,
      "track": "(unnamed)",
      "channel": 2,
      "lane": "F"
    },
    {
      "time": 82.275,
      "duration": 0.12,
      "midi": 56,
      "noteNumber": 56,
      "velocity": 0.74,
      "track": "(unnamed)",
      "channel": 2,
      "lane": "J"
    },
    {
      "time": 82.275,
      "duration": 0.124,
      "midi": 61,
      "noteNumber": 61,
      "velocity": 0.71,
      "track": "(unnamed)",
      "channel": 2,
      "lane": "J"
    },
    {
      "time": 82.275,
      "duration": 0.007,
      "midi": 51,
      "noteNumber": 51,
      "velocity": 0.83,
      "track": "(unnamed)",
      "channel": 9,
      "lane": "F"
    },
    {
      "time": 82.275,
      "duration": 0.213,
      "midi": 34,
      "noteNumber": 34,
      "velocity": 0.51,
      "track": "(unnamed)",
      "channel": 1,
      "lane": "D"
    },
    {
      "time": 82.395,
      "duration": 0.007,
      "midi": 40,
      "noteNumber": 40,
      "velocity": 0.26,
      "track": "(unnamed)",
      "channel": 9,
      "lane": "D"
    },
    {
      "time": 82.515,
      "duration": 0.007,
      "midi": 40,
      "noteNumber": 40,
      "velocity": 0.5,
      "track": "(unnamed)",
      "channel": 9,
      "lane": "D"
    },
    {
      "time": 82.635,
      "duration": 0.161,
      "midi": 39,
      "noteNumber": 39,
      "velocity": 0.6,
      "track": "(unnamed)",
      "channel": 2,
      "lane": "D"
    },
    {
      "time": 82.635,
      "duration": 0.007,
      "midi": 35,
      "noteNumber": 35,
      "velocity": 0.74,
      "track": "(unnamed)",
      "channel": 9,
      "lane": "D"
    },
    {
      "time": 82.635,
      "duration": 0.007,
      "midi": 51,
      "noteNumber": 51,
      "velocity": 0.72,
      "track": "(unnamed)",
      "channel": 9,
      "lane": "F"
    },
    {
      "time": 82.635,
      "duration": 0.876,
      "midi": 39,
      "noteNumber": 39,
      "velocity": 0.66,
      "track": "(unnamed)",
      "channel": 1,
      "lane": "D"
    },
    {
      "time": 82.863,
      "duration": 0.056,
      "midi": 54,
      "noteNumber": 54,
      "velocity": 0.71,
      "track": "(unnamed)",
      "channel": 2,
      "lane": "J"
    },
    {
      "time": 82.863,
      "duration": 0.03,
      "midi": 58,
      "noteNumber": 58,
      "velocity": 0.54,
      "track": "(unnamed)",
      "channel": 2,
      "lane": "J"
    },
    {
      "time": 82.863,
      "duration": 0.06,
      "midi": 63,
      "noteNumber": 63,
      "velocity": 0.68,
      "track": "(unnamed)",
      "channel": 2,
      "lane": "J"
    },
    {
      "time": 82.893,
      "duration": 0.056,
      "midi": 66,
      "noteNumber": 66,
      "velocity": 0.71,
      "track": "(unnamed)",
      "channel": 3,
      "lane": "K"
    },
    {
      "time": 82.994,
      "duration": 0.007,
      "midi": 51,
      "noteNumber": 51,
      "velocity": 0.72,
      "track": "(unnamed)",
      "channel": 9,
      "lane": "F"
    },
    {
      "time": 83.218,
      "duration": 0.101,
      "midi": 65,
      "noteNumber": 65,
      "velocity": 0.63,
      "track": "(unnamed)",
      "channel": 3,
      "lane": "J"
    },
    {
      "time": 83.222,
      "duration": 0.112,
      "midi": 39,
      "noteNumber": 39,
      "velocity": 0.74,
      "track": "(unnamed)",
      "channel": 2,
      "lane": "D"
    },
    {
      "time": 83.233,
      "duration": 0.007,
      "midi": 40,
      "noteNumber": 40,
      "velocity": 0.53,
      "track": "(unnamed)",
      "channel": 9,
      "lane": "D"
    },
    {
      "time": 83.353,
      "duration": 0.086,
      "midi": 54,
      "noteNumber": 54,
      "velocity": 0.71,
      "track": "(unnamed)",
      "channel": 2,
      "lane": "J"
    },
    {
      "time": 83.353,
      "duration": 0.041,
      "midi": 58,
      "noteNumber": 58,
      "velocity": 0.68,
      "track": "(unnamed)",
      "channel": 2,
      "lane": "J"
    },
    {
      "time": 83.353,
      "duration": 0.049,
      "midi": 63,
      "noteNumber": 63,
      "velocity": 0.54,
      "track": "(unnamed)",
      "channel": 2,
      "lane": "J"
    },
    {
      "time": 83.353,
      "duration": 0.007,
      "midi": 51,
      "noteNumber": 51,
      "velocity": 0.72,
      "track": "(unnamed)",
      "channel": 9,
      "lane": "F"
    },
    {
      "time": 83.391,
      "duration": 0.64,
      "midi": 63,
      "noteNumber": 63,
      "velocity": 0.54,
      "track": "(unnamed)",
      "channel": 3,
      "lane": "J"
    },
    {
      "time": 83.593,
      "duration": 0.007,
      "midi": 51,
      "noteNumber": 51,
      "velocity": 0.61,
      "track": "(unnamed)",
      "channel": 9,
      "lane": "F"
    },
    {
      "time": 83.712,
      "duration": 0.52,
      "midi": 46,
      "noteNumber": 46,
      "velocity": 0.71,
      "track": "(unnamed)",
      "channel": 2,
      "lane": "F"
    },
    {
      "time": 83.712,
      "duration": 0.007,
      "midi": 40,
      "noteNumber": 40,
      "velocity": 0.53,
      "track": "(unnamed)",
      "channel": 9,
      "lane": "D"
    },
    {
      "time": 83.712,
      "duration": 0.007,
      "midi": 51,
      "noteNumber": 51,
      "velocity": 0.69,
      "track": "(unnamed)",
      "channel": 9,
      "lane": "F"
    },
    {
      "time": 83.712,
      "duration": 0.273,
      "midi": 46,
      "noteNumber": 46,
      "velocity": 0.51,
      "track": "(unnamed)",
      "channel": 1,
      "lane": "F"
    },
    {
      "time": 83.952,
      "duration": 0.007,
      "midi": 51,
      "noteNumber": 51,
      "velocity": 0.54,
      "track": "(unnamed)",
      "channel": 9,
      "lane": "F"
    },
    {
      "time": 84.072,
      "duration": 0.12,
      "midi": 53,
      "noteNumber": 53,
      "velocity": 0.57,
      "track": "(unnamed)",
      "channel": 2,
      "lane": "F"
    },
    {
      "time": 84.072,
      "duration": 0.12,
      "midi": 56,
      "noteNumber": 56,
      "velocity": 0.74,
      "track": "(unnamed)",
      "channel": 2,
      "lane": "J"
    },
    {
      "time": 84.072,
      "duration": 0.124,
      "midi": 61,
      "noteNumber": 61,
      "velocity": 0.71,
      "track": "(unnamed)",
      "channel": 2,
      "lane": "J"
    },
    {
      "time": 84.072,
      "duration": 0.007,
      "midi": 51,
      "noteNumber": 51,
      "velocity": 0.83,
      "track": "(unnamed)",
      "channel": 9,
      "lane": "F"
    },
    {
      "time": 84.072,
      "duration": 0.213,
      "midi": 34,
      "noteNumber": 34,
      "velocity": 0.51,
      "track": "(unnamed)",
      "channel": 1,
      "lane": "D"
    },
    {
      "time": 84.09,
      "duration": 0.131,
      "midi": 56,
      "noteNumber": 56,
      "velocity": 0.52,
      "track": "(unnamed)",
      "channel": 3,
      "lane": "J"
    },
    {
      "time": 84.192,
      "duration": 0.007,
      "midi": 40,
      "noteNumber": 40,
      "velocity": 0.26,
      "track": "(unnamed)",
      "channel": 9,
      "lane": "D"
    },
    {
      "time": 84.311,
      "duration": 0.007,
      "midi": 40,
      "noteNumber": 40,
      "velocity": 0.5,
      "track": "(unnamed)",
      "channel": 9,
      "lane": "D"
    },
    {
      "time": 84.431,
      "duration": 0.161,
      "midi": 39,
      "noteNumber": 39,
      "velocity": 0.6,
      "track": "(unnamed)",
      "channel": 2,
      "lane": "D"
    },
    {
      "time": 84.431,
      "duration": 0.007,
      "midi": 35,
      "noteNumber": 35,
      "velocity": 0.74,
      "track": "(unnamed)",
      "channel": 9,
      "lane": "D"
    },
    {
      "time": 84.431,
      "duration": 0.007,
      "midi": 51,
      "noteNumber": 51,
      "velocity": 0.72,
      "track": "(unnamed)",
      "channel": 9,
      "lane": "F"
    },
    {
      "time": 84.431,
      "duration": 0.876,
      "midi": 39,
      "noteNumber": 39,
      "velocity": 0.66,
      "track": "(unnamed)",
      "channel": 1,
      "lane": "D"
    },
    {
      "time": 84.659,
      "duration": 0.056,
      "midi": 54,
      "noteNumber": 54,
      "velocity": 0.71,
      "track": "(unnamed)",
      "channel": 2,
      "lane": "J"
    },
    {
      "time": 84.659,
      "duration": 0.03,
      "midi": 58,
      "noteNumber": 58,
      "velocity": 0.54,
      "track": "(unnamed)",
      "channel": 2,
      "lane": "J"
    },
    {
      "time": 84.659,
      "duration": 0.06,
      "midi": 63,
      "noteNumber": 63,
      "velocity": 0.68,
      "track": "(unnamed)",
      "channel": 2,
      "lane": "J"
    },
    {
      "time": 84.779,
      "duration": 0.045,
      "midi": 67,
      "noteNumber": 67,
      "velocity": 0.68,
      "track": "(unnamed)",
      "channel": 3,
      "lane": "K"
    },
    {
      "time": 84.79,
      "duration": 0.007,
      "midi": 51,
      "noteNumber": 51,
      "velocity": 0.72,
      "track": "(unnamed)",
      "channel": 9,
      "lane": "F"
    },
    {
      "time": 84.831,
      "duration": 0.752,
      "midi": 68,
      "noteNumber": 68,
      "velocity": 0.57,
      "track": "(unnamed)",
      "channel": 3,
      "lane": "K"
    },
    {
      "time": 85.019,
      "duration": 0.112,
      "midi": 39,
      "noteNumber": 39,
      "velocity": 0.74,
      "track": "(unnamed)",
      "channel": 2,
      "lane": "D"
    },
    {
      "time": 85.03,
      "duration": 0.007,
      "midi": 40,
      "noteNumber": 40,
      "velocity": 0.53,
      "track": "(unnamed)",
      "channel": 9,
      "lane": "D"
    },
    {
      "time": 85.15,
      "duration": 0.086,
      "midi": 54,
      "noteNumber": 54,
      "velocity": 0.71,
      "track": "(unnamed)",
      "channel": 2,
      "lane": "J"
    },
    {
      "time": 85.15,
      "duration": 0.041,
      "midi": 58,
      "noteNumber": 58,
      "velocity": 0.68,
      "track": "(unnamed)",
      "channel": 2,
      "lane": "J"
    },
    {
      "time": 85.15,
      "duration": 0.049,
      "midi": 63,
      "noteNumber": 63,
      "velocity": 0.54,
      "track": "(unnamed)",
      "channel": 2,
      "lane": "J"
    },
    {
      "time": 85.15,
      "duration": 0.007,
      "midi": 51,
      "noteNumber": 51,
      "velocity": 0.72,
      "track": "(unnamed)",
      "channel": 9,
      "lane": "F"
    },
    {
      "time": 85.389,
      "duration": 0.007,
      "midi": 51,
      "noteNumber": 51,
      "velocity": 0.61,
      "track": "(unnamed)",
      "channel": 9,
      "lane": "F"
    },
    {
      "time": 85.509,
      "duration": 0.52,
      "midi": 46,
      "noteNumber": 46,
      "velocity": 0.71,
      "track": "(unnamed)",
      "channel": 2,
      "lane": "F"
    },
    {
      "time": 85.509,
      "duration": 0.007,
      "midi": 40,
      "noteNumber": 40,
      "velocity": 0.53,
      "track": "(unnamed)",
      "channel": 9,
      "lane": "D"
    },
    {
      "time": 85.509,
      "duration": 0.007,
      "midi": 51,
      "noteNumber": 51,
      "velocity": 0.69,
      "track": "(unnamed)",
      "channel": 9,
      "lane": "F"
    },
    {
      "time": 85.509,
      "duration": 0.273,
      "midi": 46,
      "noteNumber": 46,
      "velocity": 0.51,
      "track": "(unnamed)",
      "channel": 1,
      "lane": "F"
    },
    {
      "time": 85.711,
      "duration": 0.116,
      "midi": 73,
      "noteNumber": 73,
      "velocity": 0.85,
      "track": "(unnamed)",
      "channel": 3,
      "lane": "K"
    },
    {
      "time": 85.748,
      "duration": 0.007,
      "midi": 51,
      "noteNumber": 51,
      "velocity": 0.54,
      "track": "(unnamed)",
      "channel": 9,
      "lane": "F"
    },
    {
      "time": 85.868,
      "duration": 0.12,
      "midi": 53,
      "noteNumber": 53,
      "velocity": 0.57,
      "track": "(unnamed)",
      "channel": 2,
      "lane": "F"
    },
    {
      "time": 85.868,
      "duration": 0.12,
      "midi": 56,
      "noteNumber": 56,
      "velocity": 0.74,
      "track": "(unnamed)",
      "channel": 2,
      "lane": "J"
    },
    {
      "time": 85.868,
      "duration": 0.124,
      "midi": 61,
      "noteNumber": 61,
      "velocity": 0.71,
      "track": "(unnamed)",
      "channel": 2,
      "lane": "J"
    },
    {
      "time": 85.868,
      "duration": 0.007,
      "midi": 51,
      "noteNumber": 51,
      "velocity": 0.83,
      "track": "(unnamed)",
      "channel": 9,
      "lane": "F"
    },
    {
      "time": 85.868,
      "duration": 0.213,
      "midi": 34,
      "noteNumber": 34,
      "velocity": 0.51,
      "track": "(unnamed)",
      "channel": 1,
      "lane": "D"
    },
    {
      "time": 85.883,
      "duration": 0.142,
      "midi": 70,
      "noteNumber": 70,
      "velocity": 0.9,
      "track": "(unnamed)",
      "channel": 3,
      "lane": "K"
    },
    {
      "time": 85.988,
      "duration": 0.007,
      "midi": 40,
      "noteNumber": 40,
      "velocity": 0.26,
      "track": "(unnamed)",
      "channel": 9,
      "lane": "D"
    },
    {
      "time": 86.078,
      "duration": 0.086,
      "midi": 66,
      "noteNumber": 66,
      "velocity": 0.68,
      "track": "(unnamed)",
      "channel": 3,
      "lane": "K"
    },
    {
      "time": 86.108,
      "duration": 0.007,
      "midi": 40,
      "noteNumber": 40,
      "velocity": 0.5,
      "track": "(unnamed)",
      "channel": 9,
      "lane": "D"
    },
    {
      "time": 86.227,
      "duration": 0.161,
      "midi": 39,
      "noteNumber": 39,
      "velocity": 0.6,
      "track": "(unnamed)",
      "channel": 2,
      "lane": "D"
    },
    {
      "time": 86.227,
      "duration": 0.007,
      "midi": 35,
      "noteNumber": 35,
      "velocity": 0.74,
      "track": "(unnamed)",
      "channel": 9,
      "lane": "D"
    },
    {
      "time": 86.227,
      "duration": 0.007,
      "midi": 51,
      "noteNumber": 51,
      "velocity": 0.72,
      "track": "(unnamed)",
      "channel": 9,
      "lane": "F"
    },
    {
      "time": 86.227,
      "duration": 0.876,
      "midi": 39,
      "noteNumber": 39,
      "velocity": 0.66,
      "track": "(unnamed)",
      "channel": 1,
      "lane": "D"
    },
    {
      "time": 86.456,
      "duration": 0.056,
      "midi": 54,
      "noteNumber": 54,
      "velocity": 0.71,
      "track": "(unnamed)",
      "channel": 2,
      "lane": "J"
    },
    {
      "time": 86.456,
      "duration": 0.03,
      "midi": 58,
      "noteNumber": 58,
      "velocity": 0.54,
      "track": "(unnamed)",
      "channel": 2,
      "lane": "J"
    },
    {
      "time": 86.456,
      "duration": 0.06,
      "midi": 63,
      "noteNumber": 63,
      "velocity": 0.68,
      "track": "(unnamed)",
      "channel": 2,
      "lane": "J"
    },
    {
      "time": 86.587,
      "duration": 0.007,
      "midi": 51,
      "noteNumber": 51,
      "velocity": 0.72,
      "track": "(unnamed)",
      "channel": 9,
      "lane": "F"
    },
    {
      "time": 86.617,
      "duration": 0.778,
      "midi": 63,
      "noteNumber": 63,
      "velocity": 0.54,
      "track": "(unnamed)",
      "channel": 3,
      "lane": "J"
    },
    {
      "time": 86.815,
      "duration": 0.112,
      "midi": 39,
      "noteNumber": 39,
      "velocity": 0.74,
      "track": "(unnamed)",
      "channel": 2,
      "lane": "D"
    },
    {
      "time": 86.826,
      "duration": 0.007,
      "midi": 40,
      "noteNumber": 40,
      "velocity": 0.53,
      "track": "(unnamed)",
      "channel": 9,
      "lane": "D"
    },
    {
      "time": 86.946,
      "duration": 0.086,
      "midi": 54,
      "noteNumber": 54,
      "velocity": 0.71,
      "track": "(unnamed)",
      "channel": 2,
      "lane": "J"
    },
    {
      "time": 86.946,
      "duration": 0.041,
      "midi": 58,
      "noteNumber": 58,
      "velocity": 0.68,
      "track": "(unnamed)",
      "channel": 2,
      "lane": "J"
    },
    {
      "time": 86.946,
      "duration": 0.049,
      "midi": 63,
      "noteNumber": 63,
      "velocity": 0.54,
      "track": "(unnamed)",
      "channel": 2,
      "lane": "J"
    },
    {
      "time": 86.946,
      "duration": 0.007,
      "midi": 51,
      "noteNumber": 51,
      "velocity": 0.72,
      "track": "(unnamed)",
      "channel": 9,
      "lane": "F"
    },
    {
      "time": 87.186,
      "duration": 0.007,
      "midi": 51,
      "noteNumber": 51,
      "velocity": 0.61,
      "track": "(unnamed)",
      "channel": 9,
      "lane": "F"
    },
    {
      "time": 87.305,
      "duration": 0.52,
      "midi": 46,
      "noteNumber": 46,
      "velocity": 0.71,
      "track": "(unnamed)",
      "channel": 2,
      "lane": "F"
    },
    {
      "time": 87.305,
      "duration": 0.007,
      "midi": 40,
      "noteNumber": 40,
      "velocity": 0.53,
      "track": "(unnamed)",
      "channel": 9,
      "lane": "D"
    },
    {
      "time": 87.305,
      "duration": 0.007,
      "midi": 51,
      "noteNumber": 51,
      "velocity": 0.69,
      "track": "(unnamed)",
      "channel": 9,
      "lane": "F"
    },
    {
      "time": 87.305,
      "duration": 0.273,
      "midi": 46,
      "noteNumber": 46,
      "velocity": 0.51,
      "track": "(unnamed)",
      "channel": 1,
      "lane": "F"
    },
    {
      "time": 87.545,
      "duration": 0.007,
      "midi": 51,
      "noteNumber": 51,
      "velocity": 0.54,
      "track": "(unnamed)",
      "channel": 9,
      "lane": "F"
    },
    {
      "time": 87.646,
      "duration": 0.109,
      "midi": 56,
      "noteNumber": 56,
      "velocity": 0.63,
      "track": "(unnamed)",
      "channel": 3,
      "lane": "J"
    },
    {
      "time": 87.665,
      "duration": 0.12,
      "midi": 53,
      "noteNumber": 53,
      "velocity": 0.57,
      "track": "(unnamed)",
      "channel": 2,
      "lane": "F"
    },
    {
      "time": 87.665,
      "duration": 0.12,
      "midi": 56,
      "noteNumber": 56,
      "velocity": 0.74,
      "track": "(unnamed)",
      "channel": 2,
      "lane": "J"
    },
    {
      "time": 87.665,
      "duration": 0.124,
      "midi": 61,
      "noteNumber": 61,
      "velocity": 0.71,
      "track": "(unnamed)",
      "channel": 2,
      "lane": "J"
    },
    {
      "time": 87.665,
      "duration": 0.007,
      "midi": 51,
      "noteNumber": 51,
      "velocity": 0.83,
      "track": "(unnamed)",
      "channel": 9,
      "lane": "F"
    },
    {
      "time": 87.665,
      "duration": 0.213,
      "midi": 34,
      "noteNumber": 34,
      "velocity": 0.51,
      "track": "(unnamed)",
      "channel": 1,
      "lane": "D"
    },
    {
      "time": 87.784,
      "duration": 0.007,
      "midi": 40,
      "noteNumber": 40,
      "velocity": 0.26,
      "track": "(unnamed)",
      "channel": 9,
      "lane": "D"
    },
    {
      "time": 87.904,
      "duration": 0.007,
      "midi": 40,
      "noteNumber": 40,
      "velocity": 0.5,
      "track": "(unnamed)",
      "channel": 9,
      "lane": "D"
    },
    {
      "time": 88.024,
      "duration": 0.161,
      "midi": 39,
      "noteNumber": 39,
      "velocity": 0.6,
      "track": "(unnamed)",
      "channel": 2,
      "lane": "D"
    },
    {
      "time": 88.024,
      "duration": 0.007,
      "midi": 35,
      "noteNumber": 35,
      "velocity": 0.74,
      "track": "(unnamed)",
      "channel": 9,
      "lane": "D"
    },
    {
      "time": 88.024,
      "duration": 0.007,
      "midi": 51,
      "noteNumber": 51,
      "velocity": 0.72,
      "track": "(unnamed)",
      "channel": 9,
      "lane": "F"
    },
    {
      "time": 88.024,
      "duration": 0.876,
      "midi": 39,
      "noteNumber": 39,
      "velocity": 0.66,
      "track": "(unnamed)",
      "channel": 1,
      "lane": "D"
    },
    {
      "time": 88.058,
      "duration": 0.531,
      "midi": 63,
      "noteNumber": 63,
      "velocity": 0.71,
      "track": "(unnamed)",
      "channel": 3,
      "lane": "J"
    },
    {
      "time": 88.252,
      "duration": 0.056,
      "midi": 54,
      "noteNumber": 54,
      "velocity": 0.71,
      "track": "(unnamed)",
      "channel": 2,
      "lane": "J"
    },
    {
      "time": 88.252,
      "duration": 0.03,
      "midi": 58,
      "noteNumber": 58,
      "velocity": 0.54,
      "track": "(unnamed)",
      "channel": 2,
      "lane": "J"
    },
    {
      "time": 88.252,
      "duration": 0.06,
      "midi": 63,
      "noteNumber": 63,
      "velocity": 0.68,
      "track": "(unnamed)",
      "channel": 2,
      "lane": "J"
    },
    {
      "time": 88.383,
      "duration": 0.007,
      "midi": 51,
      "noteNumber": 51,
      "velocity": 0.72,
      "track": "(unnamed)",
      "channel": 9,
      "lane": "F"
    },
    {
      "time": 88.611,
      "duration": 0.112,
      "midi": 39,
      "noteNumber": 39,
      "velocity": 0.74,
      "track": "(unnamed)",
      "channel": 2,
      "lane": "D"
    },
    {
      "time": 88.623,
      "duration": 0.007,
      "midi": 40,
      "noteNumber": 40,
      "velocity": 0.53,
      "track": "(unnamed)",
      "channel": 9,
      "lane": "D"
    },
    {
      "time": 88.634,
      "duration": 0.329,
      "midi": 65,
      "noteNumber": 65,
      "velocity": 0.49,
      "track": "(unnamed)",
      "channel": 3,
      "lane": "J"
    },
    {
      "time": 88.742,
      "duration": 0.086,
      "midi": 54,
      "noteNumber": 54,
      "velocity": 0.71,
      "track": "(unnamed)",
      "channel": 2,
      "lane": "J"
    },
    {
      "time": 88.742,
      "duration": 0.041,
      "midi": 58,
      "noteNumber": 58,
      "velocity": 0.68,
      "track": "(unnamed)",
      "channel": 2,
      "lane": "J"
    },
    {
      "time": 88.742,
      "duration": 0.049,
      "midi": 63,
      "noteNumber": 63,
      "velocity": 0.54,
      "track": "(unnamed)",
      "channel": 2,
      "lane": "J"
    },
    {
      "time": 88.742,
      "duration": 0.007,
      "midi": 51,
      "noteNumber": 51,
      "velocity": 0.72,
      "track": "(unnamed)",
      "channel": 9,
      "lane": "F"
    },
    {
      "time": 88.978,
      "duration": 0.131,
      "midi": 58,
      "noteNumber": 58,
      "velocity": 0.5,
      "track": "(unnamed)",
      "channel": 3,
      "lane": "J"
    },
    {
      "time": 88.982,
      "duration": 0.007,
      "midi": 51,
      "noteNumber": 51,
      "velocity": 0.61,
      "track": "(unnamed)",
      "channel": 9,
      "lane": "F"
    },
    {
      "time": 89.102,
      "duration": 0.52,
      "midi": 46,
      "noteNumber": 46,
      "velocity": 0.71,
      "track": "(unnamed)",
      "channel": 2,
      "lane": "F"
    },
    {
      "time": 89.102,
      "duration": 0.007,
      "midi": 40,
      "noteNumber": 40,
      "velocity": 0.53,
      "track": "(unnamed)",
      "channel": 9,
      "lane": "D"
    },
    {
      "time": 89.102,
      "duration": 0.007,
      "midi": 51,
      "noteNumber": 51,
      "velocity": 0.69,
      "track": "(unnamed)",
      "channel": 9,
      "lane": "F"
    },
    {
      "time": 89.102,
      "duration": 0.273,
      "midi": 46,
      "noteNumber": 46,
      "velocity": 0.51,
      "track": "(unnamed)",
      "channel": 1,
      "lane": "F"
    },
    {
      "time": 89.124,
      "duration": 0.131,
      "midi": 63,
      "noteNumber": 63,
      "velocity": 0.57,
      "track": "(unnamed)",
      "channel": 3,
      "lane": "J"
    },
    {
      "time": 89.341,
      "duration": 0.007,
      "midi": 51,
      "noteNumber": 51,
      "velocity": 0.54,
      "track": "(unnamed)",
      "channel": 9,
      "lane": "F"
    },
    {
      "time": 89.356,
      "duration": 0.082,
      "midi": 58,
      "noteNumber": 58,
      "velocity": 0.45,
      "track": "(unnamed)",
      "channel": 3,
      "lane": "J"
    },
    {
      "time": 89.461,
      "duration": 0.12,
      "midi": 53,
      "noteNumber": 53,
      "velocity": 0.57,
      "track": "(unnamed)",
      "channel": 2,
      "lane": "F"
    },
    {
      "time": 89.461,
      "duration": 0.12,
      "midi": 56,
      "noteNumber": 56,
      "velocity": 0.74,
      "track": "(unnamed)",
      "channel": 2,
      "lane": "J"
    },
    {
      "time": 89.461,
      "duration": 0.124,
      "midi": 61,
      "noteNumber": 61,
      "velocity": 0.71,
      "track": "(unnamed)",
      "channel": 2,
      "lane": "J"
    },
    {
      "time": 89.461,
      "duration": 0.007,
      "midi": 51,
      "noteNumber": 51,
      "velocity": 0.83,
      "track": "(unnamed)",
      "channel": 9,
      "lane": "F"
    },
    {
      "time": 89.461,
      "duration": 0.213,
      "midi": 34,
      "noteNumber": 34,
      "velocity": 0.51,
      "track": "(unnamed)",
      "channel": 1,
      "lane": "D"
    },
    {
      "time": 89.465,
      "duration": 0.135,
      "midi": 68,
      "noteNumber": 68,
      "velocity": 0.77,
      "track": "(unnamed)",
      "channel": 3,
      "lane": "K"
    },
    {
      "time": 89.581,
      "duration": 0.007,
      "midi": 40,
      "noteNumber": 40,
      "velocity": 0.26,
      "track": "(unnamed)",
      "channel": 9,
      "lane": "D"
    },
    {
      "time": 89.7,
      "duration": 0.007,
      "midi": 40,
      "noteNumber": 40,
      "velocity": 0.5,
      "track": "(unnamed)",
      "channel": 9,
      "lane": "D"
    },
    {
      "time": 89.82,
      "duration": 0.161,
      "midi": 39,
      "noteNumber": 39,
      "velocity": 0.6,
      "track": "(unnamed)",
      "channel": 2,
      "lane": "D"
    },
    {
      "time": 89.82,
      "duration": 0.007,
      "midi": 35,
      "noteNumber": 35,
      "velocity": 0.74,
      "track": "(unnamed)",
      "channel": 9,
      "lane": "D"
    },
    {
      "time": 89.82,
      "duration": 0.007,
      "midi": 51,
      "noteNumber": 51,
      "velocity": 0.72,
      "track": "(unnamed)",
      "channel": 9,
      "lane": "F"
    },
    {
      "time": 89.82,
      "duration": 0.876,
      "midi": 39,
      "noteNumber": 39,
      "velocity": 0.66,
      "track": "(unnamed)",
      "channel": 1,
      "lane": "D"
    },
    {
      "time": 89.865,
      "duration": 0.516,
      "midi": 63,
      "noteNumber": 63,
      "velocity": 0.74,
      "track": "(unnamed)",
      "channel": 3,
      "lane": "J"
    },
    {
      "time": 90.049,
      "duration": 0.056,
      "midi": 54,
      "noteNumber": 54,
      "velocity": 0.71,
      "track": "(unnamed)",
      "channel": 2,
      "lane": "J"
    },
    {
      "time": 90.049,
      "duration": 0.03,
      "midi": 58,
      "noteNumber": 58,
      "velocity": 0.54,
      "track": "(unnamed)",
      "channel": 2,
      "lane": "J"
    },
    {
      "time": 90.049,
      "duration": 0.06,
      "midi": 63,
      "noteNumber": 63,
      "velocity": 0.68,
      "track": "(unnamed)",
      "channel": 2,
      "lane": "J"
    },
    {
      "time": 90.18,
      "duration": 0.007,
      "midi": 51,
      "noteNumber": 51,
      "velocity": 0.72,
      "track": "(unnamed)",
      "channel": 9,
      "lane": "F"
    },
    {
      "time": 90.408,
      "duration": 0.112,
      "midi": 39,
      "noteNumber": 39,
      "velocity": 0.74,
      "track": "(unnamed)",
      "channel": 2,
      "lane": "D"
    },
    {
      "time": 90.419,
      "duration": 0.007,
      "midi": 40,
      "noteNumber": 40,
      "velocity": 0.53,
      "track": "(unnamed)",
      "channel": 9,
      "lane": "D"
    },
    {
      "time": 90.434,
      "duration": 0.314,
      "midi": 65,
      "noteNumber": 65,
      "velocity": 0.52,
      "track": "(unnamed)",
      "channel": 3,
      "lane": "J"
    },
    {
      "time": 90.539,
      "duration": 0.086,
      "midi": 54,
      "noteNumber": 54,
      "velocity": 0.71,
      "track": "(unnamed)",
      "channel": 2,
      "lane": "J"
    },
    {
      "time": 90.539,
      "duration": 0.041,
      "midi": 58,
      "noteNumber": 58,
      "velocity": 0.68,
      "track": "(unnamed)",
      "channel": 2,
      "lane": "J"
    },
    {
      "time": 90.539,
      "duration": 0.049,
      "midi": 63,
      "noteNumber": 63,
      "velocity": 0.54,
      "track": "(unnamed)",
      "channel": 2,
      "lane": "J"
    },
    {
      "time": 90.539,
      "duration": 0.007,
      "midi": 51,
      "noteNumber": 51,
      "velocity": 0.72,
      "track": "(unnamed)",
      "channel": 9,
      "lane": "F"
    },
    {
      "time": 90.778,
      "duration": 0.007,
      "midi": 51,
      "noteNumber": 51,
      "velocity": 0.61,
      "track": "(unnamed)",
      "channel": 9,
      "lane": "F"
    },
    {
      "time": 90.823,
      "duration": 0.116,
      "midi": 62,
      "noteNumber": 62,
      "velocity": 0.54,
      "track": "(unnamed)",
      "channel": 3,
      "lane": "J"
    },
    {
      "time": 90.898,
      "duration": 0.52,
      "midi": 46,
      "noteNumber": 46,
      "velocity": 0.71,
      "track": "(unnamed)",
      "channel": 2,
      "lane": "F"
    },
    {
      "time": 90.898,
      "duration": 0.007,
      "midi": 40,
      "noteNumber": 40,
      "velocity": 0.53,
      "track": "(unnamed)",
      "channel": 9,
      "lane": "D"
    },
    {
      "time": 90.898,
      "duration": 0.007,
      "midi": 51,
      "noteNumber": 51,
      "velocity": 0.69,
      "track": "(unnamed)",
      "channel": 9,
      "lane": "F"
    },
    {
      "time": 90.898,
      "duration": 0.273,
      "midi": 46,
      "noteNumber": 46,
      "velocity": 0.51,
      "track": "(unnamed)",
      "channel": 1,
      "lane": "F"
    },
    {
      "time": 90.958,
      "duration": 0.135,
      "midi": 63,
      "noteNumber": 63,
      "velocity": 0.56,
      "track": "(unnamed)",
      "channel": 3,
      "lane": "J"
    },
    {
      "time": 91.13,
      "duration": 0.135,
      "midi": 65,
      "noteNumber": 65,
      "velocity": 0.71,
      "track": "(unnamed)",
      "channel": 3,
      "lane": "J"
    },
    {
      "time": 91.138,
      "duration": 0.007,
      "midi": 51,
      "noteNumber": 51,
      "velocity": 0.54,
      "track": "(unnamed)",
      "channel": 9,
      "lane": "F"
    },
    {
      "time": 91.257,
      "duration": 0.12,
      "midi": 53,
      "noteNumber": 53,
      "velocity": 0.57,
      "track": "(unnamed)",
      "channel": 2,
      "lane": "F"
    },
    {
      "time": 91.257,
      "duration": 0.12,
      "midi": 56,
      "noteNumber": 56,
      "velocity": 0.74,
      "track": "(unnamed)",
      "channel": 2,
      "lane": "J"
    },
    {
      "time": 91.257,
      "duration": 0.124,
      "midi": 61,
      "noteNumber": 61,
      "velocity": 0.71,
      "track": "(unnamed)",
      "channel": 2,
      "lane": "J"
    },
    {
      "time": 91.257,
      "duration": 0.007,
      "midi": 51,
      "noteNumber": 51,
      "velocity": 0.83,
      "track": "(unnamed)",
      "channel": 9,
      "lane": "F"
    },
    {
      "time": 91.257,
      "duration": 0.213,
      "midi": 34,
      "noteNumber": 34,
      "velocity": 0.51,
      "track": "(unnamed)",
      "channel": 1,
      "lane": "D"
    },
    {
      "time": 91.302,
      "duration": 0.142,
      "midi": 66,
      "noteNumber": 66,
      "velocity": 0.71,
      "track": "(unnamed)",
      "channel": 3,
      "lane": "K"
    },
    {
      "time": 91.377,
      "duration": 0.007,
      "midi": 40,
      "noteNumber": 40,
      "velocity": 0.26,
      "track": "(unnamed)",
      "channel": 9,
      "lane": "D"
    },
    {
      "time": 91.482,
      "duration": 0.131,
      "midi": 68,
      "noteNumber": 68,
      "velocity": 0.9,
      "track": "(unnamed)",
      "channel": 3,
      "lane": "K"
    },
    {
      "time": 91.497,
      "duration": 0.007,
      "midi": 40,
      "noteNumber": 40,
      "velocity": 0.5,
      "track": "(unnamed)",
      "channel": 9,
      "lane": "D"
    },
    {
      "time": 91.617,
      "duration": 0.161,
      "midi": 39,
      "noteNumber": 39,
      "velocity": 0.6,
      "track": "(unnamed)",
      "channel": 2,
      "lane": "D"
    },
    {
      "time": 91.617,
      "duration": 0.007,
      "midi": 35,
      "noteNumber": 35,
      "velocity": 0.74,
      "track": "(unnamed)",
      "channel": 9,
      "lane": "D"
    },
    {
      "time": 91.617,
      "duration": 0.007,
      "midi": 51,
      "noteNumber": 51,
      "velocity": 0.72,
      "track": "(unnamed)",
      "channel": 9,
      "lane": "F"
    },
    {
      "time": 91.617,
      "duration": 0.876,
      "midi": 39,
      "noteNumber": 39,
      "velocity": 0.66,
      "track": "(unnamed)",
      "channel": 1,
      "lane": "D"
    },
    {
      "time": 91.669,
      "duration": 0.52,
      "midi": 70,
      "noteNumber": 70,
      "velocity": 0.71,
      "track": "(unnamed)",
      "channel": 3,
      "lane": "K"
    },
    {
      "time": 91.845,
      "duration": 0.056,
      "midi": 54,
      "noteNumber": 54,
      "velocity": 0.71,
      "track": "(unnamed)",
      "channel": 2,
      "lane": "J"
    },
    {
      "time": 91.845,
      "duration": 0.03,
      "midi": 58,
      "noteNumber": 58,
      "velocity": 0.54,
      "track": "(unnamed)",
      "channel": 2,
      "lane": "J"
    },
    {
      "time": 91.845,
      "duration": 0.06,
      "midi": 63,
      "noteNumber": 63,
      "velocity": 0.68,
      "track": "(unnamed)",
      "channel": 2,
      "lane": "J"
    },
    {
      "time": 91.976,
      "duration": 0.007,
      "midi": 51,
      "noteNumber": 51,
      "velocity": 0.72,
      "track": "(unnamed)",
      "channel": 9,
      "lane": "F"
    },
    {
      "time": 92.2,
      "duration": 0.4,
      "midi": 72,
      "noteNumber": 72,
      "velocity": 0.71,
      "track": "(unnamed)",
      "channel": 3,
      "lane": "K"
    },
    {
      "time": 92.204,
      "duration": 0.112,
      "midi": 39,
      "noteNumber": 39,
      "velocity": 0.74,
      "track": "(unnamed)",
      "channel": 2,
      "lane": "D"
    },
    {
      "time": 92.215,
      "duration": 0.007,
      "midi": 40,
      "noteNumber": 40,
      "velocity": 0.53,
      "track": "(unnamed)",
      "channel": 9,
      "lane": "D"
    },
    {
      "time": 92.335,
      "duration": 0.086,
      "midi": 54,
      "noteNumber": 54,
      "velocity": 0.71,
      "track": "(unnamed)",
      "channel": 2,
      "lane": "J"
    },
    {
      "time": 92.335,
      "duration": 0.041,
      "midi": 58,
      "noteNumber": 58,
      "velocity": 0.68,
      "track": "(unnamed)",
      "channel": 2,
      "lane": "J"
    },
    {
      "time": 92.335,
      "duration": 0.049,
      "midi": 63,
      "noteNumber": 63,
      "velocity": 0.54,
      "track": "(unnamed)",
      "channel": 2,
      "lane": "J"
    },
    {
      "time": 92.335,
      "duration": 0.007,
      "midi": 51,
      "noteNumber": 51,
      "velocity": 0.72,
      "track": "(unnamed)",
      "channel": 9,
      "lane": "F"
    },
    {
      "time": 92.575,
      "duration": 0.007,
      "midi": 51,
      "noteNumber": 51,
      "velocity": 0.61,
      "track": "(unnamed)",
      "channel": 9,
      "lane": "F"
    },
    {
      "time": 92.616,
      "duration": 0.082,
      "midi": 68,
      "noteNumber": 68,
      "velocity": 0.31,
      "track": "(unnamed)",
      "channel": 3,
      "lane": "K"
    },
    {
      "time": 92.694,
      "duration": 0.52,
      "midi": 46,
      "noteNumber": 46,
      "velocity": 0.71,
      "track": "(unnamed)",
      "channel": 2,
      "lane": "F"
    },
    {
      "time": 92.694,
      "duration": 0.007,
      "midi": 40,
      "noteNumber": 40,
      "velocity": 0.53,
      "track": "(unnamed)",
      "channel": 9,
      "lane": "D"
    },
    {
      "time": 92.694,
      "duration": 0.007,
      "midi": 51,
      "noteNumber": 51,
      "velocity": 0.69,
      "track": "(unnamed)",
      "channel": 9,
      "lane": "F"
    },
    {
      "time": 92.694,
      "duration": 0.273,
      "midi": 46,
      "noteNumber": 46,
      "velocity": 0.51,
      "track": "(unnamed)",
      "channel": 1,
      "lane": "F"
    },
    {
      "time": 92.713,
      "duration": 0.236,
      "midi": 70,
      "noteNumber": 70,
      "velocity": 0.56,
      "track": "(unnamed)",
      "channel": 3,
      "lane": "K"
    },
    {
      "time": 92.934,
      "duration": 0.007,
      "midi": 51,
      "noteNumber": 51,
      "velocity": 0.54,
      "track": "(unnamed)",
      "channel": 9,
      "lane": "F"
    },
    {
      "time": 92.956,
      "duration": 0.075,
      "midi": 68,
      "noteNumber": 68,
      "velocity": 0.45,
      "track": "(unnamed)",
      "channel": 3,
      "lane": "K"
    },
    {
      "time": 93.054,
      "duration": 0.12,
      "midi": 53,
      "noteNumber": 53,
      "velocity": 0.57,
      "track": "(unnamed)",
      "channel": 2,
      "lane": "F"
    },
    {
      "time": 93.054,
      "duration": 0.12,
      "midi": 56,
      "noteNumber": 56,
      "velocity": 0.74,
      "track": "(unnamed)",
      "channel": 2,
      "lane": "J"
    },
    {
      "time": 93.054,
      "duration": 0.124,
      "midi": 61,
      "noteNumber": 61,
      "velocity": 0.71,
      "track": "(unnamed)",
      "channel": 2,
      "lane": "J"
    },
    {
      "time": 93.054,
      "duration": 0.007,
      "midi": 51,
      "noteNumber": 51,
      "velocity": 0.83,
      "track": "(unnamed)",
      "channel": 9,
      "lane": "F"
    },
    {
      "time": 93.054,
      "duration": 0.213,
      "midi": 34,
      "noteNumber": 34,
      "velocity": 0.51,
      "track": "(unnamed)",
      "channel": 1,
      "lane": "D"
    },
    {
      "time": 93.058,
      "duration": 0.161,
      "midi": 75,
      "noteNumber": 75,
      "velocity": 0.74,
      "track": "(unnamed)",
      "channel": 3,
      "lane": "K"
    },
    {
      "time": 93.174,
      "duration": 0.007,
      "midi": 40,
      "noteNumber": 40,
      "velocity": 0.26,
      "track": "(unnamed)",
      "channel": 9,
      "lane": "D"
    },
    {
      "time": 93.293,
      "duration": 0.007,
      "midi": 40,
      "noteNumber": 40,
      "velocity": 0.5,
      "track": "(unnamed)",
      "channel": 9,
      "lane": "D"
    },
    {
      "time": 93.413,
      "duration": 0.161,
      "midi": 39,
      "noteNumber": 39,
      "velocity": 0.6,
      "track": "(unnamed)",
      "channel": 2,
      "lane": "D"
    },
    {
      "time": 93.413,
      "duration": 0.007,
      "midi": 35,
      "noteNumber": 35,
      "velocity": 0.74,
      "track": "(unnamed)",
      "channel": 9,
      "lane": "D"
    },
    {
      "time": 93.413,
      "duration": 0.007,
      "midi": 51,
      "noteNumber": 51,
      "velocity": 0.72,
      "track": "(unnamed)",
      "channel": 9,
      "lane": "F"
    },
    {
      "time": 93.413,
      "duration": 0.876,
      "midi": 39,
      "noteNumber": 39,
      "velocity": 0.66,
      "track": "(unnamed)",
      "channel": 1,
      "lane": "D"
    },
    {
      "time": 93.428,
      "duration": 0.58,
      "midi": 70,
      "noteNumber": 70,
      "velocity": 0.68,
      "track": "(unnamed)",
      "channel": 3,
      "lane": "K"
    },
    {
      "time": 93.641,
      "duration": 0.056,
      "midi": 54,
      "noteNumber": 54,
      "velocity": 0.71,
      "track": "(unnamed)",
      "channel": 2,
      "lane": "J"
    },
    {
      "time": 93.641,
      "duration": 0.03,
      "midi": 58,
      "noteNumber": 58,
      "velocity": 0.54,
      "track": "(unnamed)",
      "channel": 2,
      "lane": "J"
    },
    {
      "time": 93.641,
      "duration": 0.06,
      "midi": 63,
      "noteNumber": 63,
      "velocity": 0.68,
      "track": "(unnamed)",
      "channel": 2,
      "lane": "J"
    },
    {
      "time": 93.772,
      "duration": 0.007,
      "midi": 51,
      "noteNumber": 51,
      "velocity": 0.72,
      "track": "(unnamed)",
      "channel": 9,
      "lane": "F"
    },
    {
      "time": 94.001,
      "duration": 0.112,
      "midi": 39,
      "noteNumber": 39,
      "velocity": 0.74,
      "track": "(unnamed)",
      "channel": 2,
      "lane": "D"
    },
    {
      "time": 94.012,
      "duration": 0.007,
      "midi": 40,
      "noteNumber": 40,
      "velocity": 0.53,
      "track": "(unnamed)",
      "channel": 9,
      "lane": "D"
    },
    {
      "time": 94.023,
      "duration": 0.356,
      "midi": 72,
      "noteNumber": 72,
      "velocity": 0.6,
      "track": "(unnamed)",
      "channel": 3,
      "lane": "K"
    },
    {
      "time": 94.132,
      "duration": 0.086,
      "midi": 54,
      "noteNumber": 54,
      "velocity": 0.71,
      "track": "(unnamed)",
      "channel": 2,
      "lane": "J"
    },
    {
      "time": 94.132,
      "duration": 0.041,
      "midi": 58,
      "noteNumber": 58,
      "velocity": 0.68,
      "track": "(unnamed)",
      "channel": 2,
      "lane": "J"
    },
    {
      "time": 94.132,
      "duration": 0.049,
      "midi": 63,
      "noteNumber": 63,
      "velocity": 0.54,
      "track": "(unnamed)",
      "channel": 2,
      "lane": "J"
    },
    {
      "time": 94.132,
      "duration": 0.007,
      "midi": 51,
      "noteNumber": 51,
      "velocity": 0.72,
      "track": "(unnamed)",
      "channel": 9,
      "lane": "F"
    },
    {
      "time": 94.371,
      "duration": 0.007,
      "midi": 51,
      "noteNumber": 51,
      "velocity": 0.61,
      "track": "(unnamed)",
      "channel": 9,
      "lane": "F"
    },
    {
      "time": 94.405,
      "duration": 0.124,
      "midi": 69,
      "noteNumber": 69,
      "velocity": 0.49,
      "track": "(unnamed)",
      "channel": 3,
      "lane": "K"
    },
    {
      "time": 94.491,
      "duration": 0.52,
      "midi": 46,
      "noteNumber": 46,
      "velocity": 0.71,
      "track": "(unnamed)",
      "channel": 2,
      "lane": "F"
    },
    {
      "time": 94.491,
      "duration": 0.007,
      "midi": 40,
      "noteNumber": 40,
      "velocity": 0.53,
      "track": "(unnamed)",
      "channel": 9,
      "lane": "D"
    },
    {
      "time": 94.491,
      "duration": 0.007,
      "midi": 51,
      "noteNumber": 51,
      "velocity": 0.69,
      "track": "(unnamed)",
      "channel": 9,
      "lane": "F"
    },
    {
      "time": 94.491,
      "duration": 0.273,
      "midi": 46,
      "noteNumber": 46,
      "velocity": 0.51,
      "track": "(unnamed)",
      "channel": 1,
      "lane": "F"
    },
    {
      "time": 94.551,
      "duration": 0.142,
      "midi": 70,
      "noteNumber": 70,
      "velocity": 0.5,
      "track": "(unnamed)",
      "channel": 3,
      "lane": "K"
    },
    {
      "time": 94.712,
      "duration": 0.138,
      "midi": 72,
      "noteNumber": 72,
      "velocity": 0.74,
      "track": "(unnamed)",
      "channel": 3,
      "lane": "K"
    },
    {
      "time": 94.73,
      "duration": 0.007,
      "midi": 51,
      "noteNumber": 51,
      "velocity": 0.54,
      "track": "(unnamed)",
      "channel": 9,
      "lane": "F"
    },
    {
      "time": 94.85,
      "duration": 0.12,
      "midi": 53,
      "noteNumber": 53,
      "velocity": 0.57,
      "track": "(unnamed)",
      "channel": 2,
      "lane": "F"
    },
    {
      "time": 94.85,
      "duration": 0.12,
      "midi": 56,
      "noteNumber": 56,
      "velocity": 0.74,
      "track": "(unnamed)",
      "channel": 2,
      "lane": "J"
    },
    {
      "time": 94.85,
      "duration": 0.124,
      "midi": 61,
      "noteNumber": 61,
      "velocity": 0.71,
      "track": "(unnamed)",
      "channel": 2,
      "lane": "J"
    },
    {
      "time": 94.85,
      "duration": 0.007,
      "midi": 51,
      "noteNumber": 51,
      "velocity": 0.83,
      "track": "(unnamed)",
      "channel": 9,
      "lane": "F"
    },
    {
      "time": 94.85,
      "duration": 0.213,
      "midi": 34,
      "noteNumber": 34,
      "velocity": 0.51,
      "track": "(unnamed)",
      "channel": 1,
      "lane": "D"
    },
    {
      "time": 94.858,
      "duration": 0.116,
      "midi": 73,
      "noteNumber": 73,
      "velocity": 0.71,
      "track": "(unnamed)",
      "channel": 3,
      "lane": "K"
    },
    {
      "time": 94.97,
      "duration": 0.007,
      "midi": 40,
      "noteNumber": 40,
      "velocity": 0.26,
      "track": "(unnamed)",
      "channel": 9,
      "lane": "D"
    },
    {
      "time": 95.015,
      "duration": 0.142,
      "midi": 75,
      "noteNumber": 75,
      "velocity": 0.8,
      "track": "(unnamed)",
      "channel": 3,
      "lane": "K"
    },
    {
      "time": 95.09,
      "duration": 0.007,
      "midi": 40,
      "noteNumber": 40,
      "velocity": 0.5,
      "track": "(unnamed)",
      "channel": 9,
      "lane": "D"
    },
    {
      "time": 95.209,
      "duration": 0.161,
      "midi": 39,
      "noteNumber": 39,
      "velocity": 0.6,
      "track": "(unnamed)",
      "channel": 2,
      "lane": "D"
    },
    {
      "time": 95.209,
      "duration": 0.007,
      "midi": 35,
      "noteNumber": 35,
      "velocity": 0.74,
      "track": "(unnamed)",
      "channel": 9,
      "lane": "D"
    },
    {
      "time": 95.209,
      "duration": 0.007,
      "midi": 51,
      "noteNumber": 51,
      "velocity": 0.72,
      "track": "(unnamed)",
      "channel": 9,
      "lane": "F"
    },
    {
      "time": 95.209,
      "duration": 0.876,
      "midi": 39,
      "noteNumber": 39,
      "velocity": 0.66,
      "track": "(unnamed)",
      "channel": 1,
      "lane": "D"
    },
    {
      "time": 95.243,
      "duration": 0.157,
      "midi": 75,
      "noteNumber": 75,
      "velocity": 0.8,
      "track": "(unnamed)",
      "channel": 3,
      "lane": "K"
    },
    {
      "time": 95.438,
      "duration": 0.056,
      "midi": 54,
      "noteNumber": 54,
      "velocity": 0.71,
      "track": "(unnamed)",
      "channel": 2,
      "lane": "J"
    },
    {
      "time": 95.438,
      "duration": 0.03,
      "midi": 58,
      "noteNumber": 58,
      "velocity": 0.54,
      "track": "(unnamed)",
      "channel": 2,
      "lane": "J"
    },
    {
      "time": 95.438,
      "duration": 0.06,
      "midi": 63,
      "noteNumber": 63,
      "velocity": 0.68,
      "track": "(unnamed)",
      "channel": 2,
      "lane": "J"
    },
    {
      "time": 95.516,
      "duration": 0.719,
      "midi": 75,
      "noteNumber": 75,
      "velocity": 0.77,
      "track": "(unnamed)",
      "channel": 3,
      "lane": "K"
    },
    {
      "time": 95.569,
      "duration": 0.007,
      "midi": 51,
      "noteNumber": 51,
      "velocity": 0.72,
      "track": "(unnamed)",
      "channel": 9,
      "lane": "F"
    },
    {
      "time": 95.797,
      "duration": 0.112,
      "midi": 39,
      "noteNumber": 39,
      "velocity": 0.74,
      "track": "(unnamed)",
      "channel": 2,
      "lane": "D"
    },
    {
      "time": 95.808,
      "duration": 0.007,
      "midi": 40,
      "noteNumber": 40,
      "velocity": 0.53,
      "track": "(unnamed)",
      "channel": 9,
      "lane": "D"
    },
    {
      "time": 95.928,
      "duration": 0.086,
      "midi": 54,
      "noteNumber": 54,
      "velocity": 0.71,
      "track": "(unnamed)",
      "channel": 2,
      "lane": "J"
    },
    {
      "time": 95.928,
      "duration": 0.041,
      "midi": 58,
      "noteNumber": 58,
      "velocity": 0.68,
      "track": "(unnamed)",
      "channel": 2,
      "lane": "J"
    },
    {
      "time": 95.928,
      "duration": 0.049,
      "midi": 63,
      "noteNumber": 63,
      "velocity": 0.54,
      "track": "(unnamed)",
      "channel": 2,
      "lane": "J"
    },
    {
      "time": 95.928,
      "duration": 0.007,
      "midi": 51,
      "noteNumber": 51,
      "velocity": 0.72,
      "track": "(unnamed)",
      "channel": 9,
      "lane": "F"
    },
    {
      "time": 96.168,
      "duration": 0.007,
      "midi": 51,
      "noteNumber": 51,
      "velocity": 0.61,
      "track": "(unnamed)",
      "channel": 9,
      "lane": "F"
    },
    {
      "time": 96.205,
      "duration": 0.071,
      "midi": 70,
      "noteNumber": 70,
      "velocity": 0.52,
      "track": "(unnamed)",
      "channel": 3,
      "lane": "K"
    },
    {
      "time": 96.287,
      "duration": 0.52,
      "midi": 46,
      "noteNumber": 46,
      "velocity": 0.71,
      "track": "(unnamed)",
      "channel": 2,
      "lane": "F"
    },
    {
      "time": 96.287,
      "duration": 0.007,
      "midi": 40,
      "noteNumber": 40,
      "velocity": 0.53,
      "track": "(unnamed)",
      "channel": 9,
      "lane": "D"
    },
    {
      "time": 96.287,
      "duration": 0.007,
      "midi": 51,
      "noteNumber": 51,
      "velocity": 0.69,
      "track": "(unnamed)",
      "channel": 9,
      "lane": "F"
    },
    {
      "time": 96.287,
      "duration": 0.086,
      "midi": 68,
      "noteNumber": 68,
      "velocity": 0.71,
      "track": "(unnamed)",
      "channel": 3,
      "lane": "K"
    },
    {
      "time": 96.287,
      "duration": 0.273,
      "midi": 46,
      "noteNumber": 46,
      "velocity": 0.51,
      "track": "(unnamed)",
      "channel": 1,
      "lane": "F"
    },
    {
      "time": 96.355,
      "duration": 0.183,
      "midi": 66,
      "noteNumber": 66,
      "velocity": 0.6,
      "track": "(unnamed)",
      "channel": 3,
      "lane": "K"
    },
    {
      "time": 96.527,
      "duration": 0.007,
      "midi": 51,
      "noteNumber": 51,
      "velocity": 0.54,
      "track": "(unnamed)",
      "channel": 9,
      "lane": "F"
    },
    {
      "time": 96.647,
      "duration": 0.12,
      "midi": 53,
      "noteNumber": 53,
      "velocity": 0.57,
      "track": "(unnamed)",
      "channel": 2,
      "lane": "F"
    },
    {
      "time": 96.647,
      "duration": 0.12,
      "midi": 56,
      "noteNumber": 56,
      "velocity": 0.74,
      "track": "(unnamed)",
      "channel": 2,
      "lane": "J"
    },
    {
      "time": 96.647,
      "duration": 0.124,
      "midi": 61,
      "noteNumber": 61,
      "velocity": 0.71,
      "track": "(unnamed)",
      "channel": 2,
      "lane": "J"
    },
    {
      "time": 96.647,
      "duration": 0.007,
      "midi": 51,
      "noteNumber": 51,
      "velocity": 0.83,
      "track": "(unnamed)",
      "channel": 9,
      "lane": "F"
    },
    {
      "time": 96.647,
      "duration": 0.213,
      "midi": 34,
      "noteNumber": 34,
      "velocity": 0.51,
      "track": "(unnamed)",
      "channel": 1,
      "lane": "D"
    },
    {
      "time": 96.766,
      "duration": 0.007,
      "midi": 40,
      "noteNumber": 40,
      "velocity": 0.26,
      "track": "(unnamed)",
      "channel": 9,
      "lane": "D"
    },
    {
      "time": 96.886,
      "duration": 0.007,
      "midi": 40,
      "noteNumber": 40,
      "velocity": 0.5,
      "track": "(unnamed)",
      "channel": 9,
      "lane": "D"
    },
    {
      "time": 97.006,
      "duration": 0.161,
      "midi": 39,
      "noteNumber": 39,
      "velocity": 0.6,
      "track": "(unnamed)",
      "channel": 2,
      "lane": "D"
    },
    {
      "time": 97.006,
      "duration": 0.007,
      "midi": 35,
      "noteNumber": 35,
      "velocity": 0.74,
      "track": "(unnamed)",
      "channel": 9,
      "lane": "D"
    },
    {
      "time": 97.006,
      "duration": 0.007,
      "midi": 51,
      "noteNumber": 51,
      "velocity": 0.72,
      "track": "(unnamed)",
      "channel": 9,
      "lane": "F"
    },
    {
      "time": 97.006,
      "duration": 0.876,
      "midi": 39,
      "noteNumber": 39,
      "velocity": 0.66,
      "track": "(unnamed)",
      "channel": 1,
      "lane": "D"
    },
    {
      "time": 97.043,
      "duration": 0.509,
      "midi": 75,
      "noteNumber": 75,
      "velocity": 0.77,
      "track": "(unnamed)",
      "channel": 3,
      "lane": "K"
    },
    {
      "time": 97.234,
      "duration": 0.056,
      "midi": 54,
      "noteNumber": 54,
      "velocity": 0.71,
      "track": "(unnamed)",
      "channel": 2,
      "lane": "J"
    },
    {
      "time": 97.234,
      "duration": 0.03,
      "midi": 58,
      "noteNumber": 58,
      "velocity": 0.54,
      "track": "(unnamed)",
      "channel": 2,
      "lane": "J"
    },
    {
      "time": 97.234,
      "duration": 0.06,
      "midi": 63,
      "noteNumber": 63,
      "velocity": 0.68,
      "track": "(unnamed)",
      "channel": 2,
      "lane": "J"
    },
    {
      "time": 97.365,
      "duration": 0.007,
      "midi": 51,
      "noteNumber": 51,
      "velocity": 0.72,
      "track": "(unnamed)",
      "channel": 9,
      "lane": "F"
    },
    {
      "time": 97.582,
      "duration": 0.127,
      "midi": 72,
      "noteNumber": 72,
      "velocity": 0.8,
      "track": "(unnamed)",
      "channel": 3,
      "lane": "K"
    },
    {
      "time": 97.593,
      "duration": 0.112,
      "midi": 39,
      "noteNumber": 39,
      "velocity": 0.74,
      "track": "(unnamed)",
      "channel": 2,
      "lane": "D"
    },
    {
      "time": 97.605,
      "duration": 0.007,
      "midi": 40,
      "noteNumber": 40,
      "velocity": 0.53,
      "track": "(unnamed)",
      "channel": 9,
      "lane": "D"
    },
    {
      "time": 97.724,
      "duration": 0.086,
      "midi": 54,
      "noteNumber": 54,
      "velocity": 0.71,
      "track": "(unnamed)",
      "channel": 2,
      "lane": "J"
    },
    {
      "time": 97.724,
      "duration": 0.041,
      "midi": 58,
      "noteNumber": 58,
      "velocity": 0.68,
      "track": "(unnamed)",
      "channel": 2,
      "lane": "J"
    },
    {
      "time": 97.724,
      "duration": 0.049,
      "midi": 63,
      "noteNumber": 63,
      "velocity": 0.54,
      "track": "(unnamed)",
      "channel": 2,
      "lane": "J"
    },
    {
      "time": 97.724,
      "duration": 0.007,
      "midi": 51,
      "noteNumber": 51,
      "velocity": 0.72,
      "track": "(unnamed)",
      "channel": 9,
      "lane": "F"
    },
    {
      "time": 97.751,
      "duration": 0.161,
      "midi": 68,
      "noteNumber": 68,
      "velocity": 0.77,
      "track": "(unnamed)",
      "channel": 3,
      "lane": "K"
    },
    {
      "time": 97.964,
      "duration": 0.007,
      "midi": 51,
      "noteNumber": 51,
      "velocity": 0.61,
      "track": "(unnamed)",
      "channel": 9,
      "lane": "F"
    },
    {
      "time": 98.084,
      "duration": 0.52,
      "midi": 46,
      "noteNumber": 46,
      "velocity": 0.71,
      "track": "(unnamed)",
      "channel": 2,
      "lane": "F"
    },
    {
      "time": 98.084,
      "duration": 0.007,
      "midi": 40,
      "noteNumber": 40,
      "velocity": 0.53,
      "track": "(unnamed)",
      "channel": 9,
      "lane": "D"
    },
    {
      "time": 98.084,
      "duration": 0.007,
      "midi": 51,
      "noteNumber": 51,
      "velocity": 0.69,
      "track": "(unnamed)",
      "channel": 9,
      "lane": "F"
    },
    {
      "time": 98.084,
      "duration": 0.273,
      "midi": 46,
      "noteNumber": 46,
      "velocity": 0.51,
      "track": "(unnamed)",
      "channel": 1,
      "lane": "F"
    },
    {
      "time": 98.323,
      "duration": 0.007,
      "midi": 51,
      "noteNumber": 51,
      "velocity": 0.54,
      "track": "(unnamed)",
      "channel": 9,
      "lane": "F"
    },
    {
      "time": 98.443,
      "duration": 0.12,
      "midi": 53,
      "noteNumber": 53,
      "velocity": 0.57,
      "track": "(unnamed)",
      "channel": 2,
      "lane": "F"
    },
    {
      "time": 98.443,
      "duration": 0.12,
      "midi": 56,
      "noteNumber": 56,
      "velocity": 0.74,
      "track": "(unnamed)",
      "channel": 2,
      "lane": "J"
    },
    {
      "time": 98.443,
      "duration": 0.124,
      "midi": 61,
      "noteNumber": 61,
      "velocity": 0.71,
      "track": "(unnamed)",
      "channel": 2,
      "lane": "J"
    },
    {
      "time": 98.443,
      "duration": 0.007,
      "midi": 51,
      "noteNumber": 51,
      "velocity": 0.83,
      "track": "(unnamed)",
      "channel": 9,
      "lane": "F"
    },
    {
      "time": 98.443,
      "duration": 0.213,
      "midi": 34,
      "noteNumber": 34,
      "velocity": 0.51,
      "track": "(unnamed)",
      "channel": 1,
      "lane": "D"
    },
    {
      "time": 98.563,
      "duration": 0.007,
      "midi": 40,
      "noteNumber": 40,
      "velocity": 0.26,
      "track": "(unnamed)",
      "channel": 9,
      "lane": "D"
    },
    {
      "time": 98.683,
      "duration": 0.007,
      "midi": 40,
      "noteNumber": 40,
      "velocity": 0.5,
      "track": "(unnamed)",
      "channel": 9,
      "lane": "D"
    },
    {
      "time": 98.802,
      "duration": 0.161,
      "midi": 39,
      "noteNumber": 39,
      "velocity": 0.6,
      "track": "(unnamed)",
      "channel": 2,
      "lane": "D"
    },
    {
      "time": 98.802,
      "duration": 0.007,
      "midi": 35,
      "noteNumber": 35,
      "velocity": 0.74,
      "track": "(unnamed)",
      "channel": 9,
      "lane": "D"
    },
    {
      "time": 98.802,
      "duration": 0.007,
      "midi": 51,
      "noteNumber": 51,
      "velocity": 0.72,
      "track": "(unnamed)",
      "channel": 9,
      "lane": "F"
    },
    {
      "time": 98.802,
      "duration": 0.876,
      "midi": 39,
      "noteNumber": 39,
      "velocity": 0.66,
      "track": "(unnamed)",
      "channel": 1,
      "lane": "D"
    },
    {
      "time": 98.828,
      "duration": 0.501,
      "midi": 73,
      "noteNumber": 73,
      "velocity": 0.71,
      "track": "(unnamed)",
      "channel": 3,
      "lane": "K"
    },
    {
      "time": 99.031,
      "duration": 0.056,
      "midi": 54,
      "noteNumber": 54,
      "velocity": 0.71,
      "track": "(unnamed)",
      "channel": 2,
      "lane": "J"
    },
    {
      "time": 99.031,
      "duration": 0.03,
      "midi": 58,
      "noteNumber": 58,
      "velocity": 0.54,
      "track": "(unnamed)",
      "channel": 2,
      "lane": "J"
    },
    {
      "time": 99.031,
      "duration": 0.06,
      "midi": 63,
      "noteNumber": 63,
      "velocity": 0.68,
      "track": "(unnamed)",
      "channel": 2,
      "lane": "J"
    },
    {
      "time": 99.162,
      "duration": 0.007,
      "midi": 51,
      "noteNumber": 51,
      "velocity": 0.72,
      "track": "(unnamed)",
      "channel": 9,
      "lane": "F"
    },
    {
      "time": 99.386,
      "duration": 0.116,
      "midi": 66,
      "noteNumber": 66,
      "velocity": 0.6,
      "track": "(unnamed)",
      "channel": 3,
      "lane": "K"
    },
    {
      "time": 99.39,
      "duration": 0.112,
      "midi": 39,
      "noteNumber": 39,
      "velocity": 0.74,
      "track": "(unnamed)",
      "channel": 2,
      "lane": "D"
    },
    {
      "time": 99.401,
      "duration": 0.007,
      "midi": 40,
      "noteNumber": 40,
      "velocity": 0.53,
      "track": "(unnamed)",
      "channel": 9,
      "lane": "D"
    },
    {
      "time": 99.521,
      "duration": 0.086,
      "midi": 54,
      "noteNumber": 54,
      "velocity": 0.71,
      "track": "(unnamed)",
      "channel": 2,
      "lane": "J"
    },
    {
      "time": 99.521,
      "duration": 0.041,
      "midi": 58,
      "noteNumber": 58,
      "velocity": 0.68,
      "track": "(unnamed)",
      "channel": 2,
      "lane": "J"
    },
    {
      "time": 99.521,
      "duration": 0.049,
      "midi": 63,
      "noteNumber": 63,
      "velocity": 0.54,
      "track": "(unnamed)",
      "channel": 2,
      "lane": "J"
    },
    {
      "time": 99.521,
      "duration": 0.007,
      "midi": 51,
      "noteNumber": 51,
      "velocity": 0.72,
      "track": "(unnamed)",
      "channel": 9,
      "lane": "F"
    },
    {
      "time": 99.551,
      "duration": 0.079,
      "midi": 65,
      "noteNumber": 65,
      "velocity": 0.54,
      "track": "(unnamed)",
      "channel": 3,
      "lane": "J"
    },
    {
      "time": 99.749,
      "duration": 0.157,
      "midi": 62,
      "noteNumber": 62,
      "velocity": 0.39,
      "track": "(unnamed)",
      "channel": 3,
      "lane": "J"
    },
    {
      "time": 99.76,
      "duration": 0.007,
      "midi": 51,
      "noteNumber": 51,
      "velocity": 0.61,
      "track": "(unnamed)",
      "channel": 9,
      "lane": "F"
    },
    {
      "time": 99.88,
      "duration": 0.52,
      "midi": 46,
      "noteNumber": 46,
      "velocity": 0.71,
      "track": "(unnamed)",
      "channel": 2,
      "lane": "F"
    },
    {
      "time": 99.88,
      "duration": 0.007,
      "midi": 40,
      "noteNumber": 40,
      "velocity": 0.53,
      "track": "(unnamed)",
      "channel": 9,
      "lane": "D"
    },
    {
      "time": 99.88,
      "duration": 0.007,
      "midi": 51,
      "noteNumber": 51,
      "velocity": 0.69,
      "track": "(unnamed)",
      "channel": 9,
      "lane": "F"
    },
    {
      "time": 99.88,
      "duration": 0.273,
      "midi": 46,
      "noteNumber": 46,
      "velocity": 0.51,
      "track": "(unnamed)",
      "channel": 1,
      "lane": "F"
    },
    {
      "time": 99.914,
      "duration": 0.127,
      "midi": 63,
      "noteNumber": 63,
      "velocity": 0.54,
      "track": "(unnamed)",
      "channel": 3,
      "lane": "J"
    },
    {
      "time": 100.064,
      "duration": 0.153,
      "midi": 65,
      "noteNumber": 65,
      "velocity": 0.57,
      "track": "(unnamed)",
      "channel": 3,
      "lane": "J"
    },
    {
      "time": 100.12,
      "duration": 0.007,
      "midi": 51,
      "noteNumber": 51,
      "velocity": 0.54,
      "track": "(unnamed)",
      "channel": 9,
      "lane": "F"
    },
    {
      "time": 100.239,
      "duration": 0.12,
      "midi": 53,
      "noteNumber": 53,
      "velocity": 0.57,
      "track": "(unnamed)",
      "channel": 2,
      "lane": "F"
    },
    {
      "time": 100.239,
      "duration": 0.12,
      "midi": 56,
      "noteNumber": 56,
      "velocity": 0.74,
      "track": "(unnamed)",
      "channel": 2,
      "lane": "J"
    },
    {
      "time": 100.239,
      "duration": 0.124,
      "midi": 61,
      "noteNumber": 61,
      "velocity": 0.71,
      "track": "(unnamed)",
      "channel": 2,
      "lane": "J"
    },
    {
      "time": 100.239,
      "duration": 0.007,
      "midi": 51,
      "noteNumber": 51,
      "velocity": 0.83,
      "track": "(unnamed)",
      "channel": 9,
      "lane": "F"
    },
    {
      "time": 100.239,
      "duration": 0.213,
      "midi": 34,
      "noteNumber": 34,
      "velocity": 0.51,
      "track": "(unnamed)",
      "channel": 1,
      "lane": "D"
    },
    {
      "time": 100.247,
      "duration": 0.161,
      "midi": 66,
      "noteNumber": 66,
      "velocity": 0.74,
      "track": "(unnamed)",
      "channel": 3,
      "lane": "K"
    },
    {
      "time": 100.359,
      "duration": 0.007,
      "midi": 40,
      "noteNumber": 40,
      "velocity": 0.26,
      "track": "(unnamed)",
      "channel": 9,
      "lane": "D"
    },
    {
      "time": 100.434,
      "duration": 0.138,
      "midi": 68,
      "noteNumber": 68,
      "velocity": 0.6,
      "track": "(unnamed)",
      "channel": 3,
      "lane": "K"
    },
    {
      "time": 100.479,
      "duration": 0.007,
      "midi": 40,
      "noteNumber": 40,
      "velocity": 0.5,
      "track": "(unnamed)",
      "channel": 9,
      "lane": "D"
    },
    {
      "time": 100.599,
      "duration": 0.161,
      "midi": 39,
      "noteNumber": 39,
      "velocity": 0.6,
      "track": "(unnamed)",
      "channel": 2,
      "lane": "D"
    },
    {
      "time": 100.599,
      "duration": 0.007,
      "midi": 35,
      "noteNumber": 35,
      "velocity": 0.74,
      "track": "(unnamed)",
      "channel": 9,
      "lane": "D"
    },
    {
      "time": 100.599,
      "duration": 0.007,
      "midi": 51,
      "noteNumber": 51,
      "velocity": 0.72,
      "track": "(unnamed)",
      "channel": 9,
      "lane": "F"
    },
    {
      "time": 100.599,
      "duration": 0.876,
      "midi": 39,
      "noteNumber": 39,
      "velocity": 0.66,
      "track": "(unnamed)",
      "channel": 1,
      "lane": "D"
    },
    {
      "time": 100.625,
      "duration": 0.135,
      "midi": 70,
      "noteNumber": 70,
      "velocity": 0.85,
      "track": "(unnamed)",
      "channel": 3,
      "lane": "K"
    },
    {
      "time": 100.808,
      "duration": 0.112,
      "midi": 63,
      "noteNumber": 63,
      "velocity": 0.71,
      "track": "(unnamed)",
      "channel": 3,
      "lane": "J"
    },
    {
      "time": 100.827,
      "duration": 0.056,
      "midi": 54,
      "noteNumber": 54,
      "velocity": 0.71,
      "track": "(unnamed)",
      "channel": 2,
      "lane": "J"
    },
    {
      "time": 100.827,
      "duration": 0.03,
      "midi": 58,
      "noteNumber": 58,
      "velocity": 0.54,
      "track": "(unnamed)",
      "channel": 2,
      "lane": "J"
    },
    {
      "time": 100.827,
      "duration": 0.06,
      "midi": 63,
      "noteNumber": 63,
      "velocity": 0.68,
      "track": "(unnamed)",
      "channel": 2,
      "lane": "J"
    },
    {
      "time": 100.958,
      "duration": 0.007,
      "midi": 51,
      "noteNumber": 51,
      "velocity": 0.72,
      "track": "(unnamed)",
      "channel": 9,
      "lane": "F"
    },
    {
      "time": 101.186,
      "duration": 0.112,
      "midi": 39,
      "noteNumber": 39,
      "velocity": 0.74,
      "track": "(unnamed)",
      "channel": 2,
      "lane": "D"
    },
    {
      "time": 101.197,
      "duration": 0.007,
      "midi": 40,
      "noteNumber": 40,
      "velocity": 0.53,
      "track": "(unnamed)",
      "channel": 9,
      "lane": "D"
    },
    {
      "time": 101.317,
      "duration": 0.086,
      "midi": 54,
      "noteNumber": 54,
      "velocity": 0.71,
      "track": "(unnamed)",
      "channel": 2,
      "lane": "J"
    },
    {
      "time": 101.317,
      "duration": 0.041,
      "midi": 58,
      "noteNumber": 58,
      "velocity": 0.68,
      "track": "(unnamed)",
      "channel": 2,
      "lane": "J"
    },
    {
      "time": 101.317,
      "duration": 0.049,
      "midi": 63,
      "noteNumber": 63,
      "velocity": 0.54,
      "track": "(unnamed)",
      "channel": 2,
      "lane": "J"
    },
    {
      "time": 101.317,
      "duration": 0.007,
      "midi": 51,
      "noteNumber": 51,
      "velocity": 0.72,
      "track": "(unnamed)",
      "channel": 9,
      "lane": "F"
    },
    {
      "time": 101.328,
      "duration": 0.606,
      "midi": 63,
      "noteNumber": 63,
      "velocity": 0.52,
      "track": "(unnamed)",
      "channel": 3,
      "lane": "J"
    },
    {
      "time": 101.557,
      "duration": 0.007,
      "midi": 51,
      "noteNumber": 51,
      "velocity": 0.61,
      "track": "(unnamed)",
      "channel": 9,
      "lane": "F"
    },
    {
      "time": 101.677,
      "duration": 0.52,
      "midi": 46,
      "noteNumber": 46,
      "velocity": 0.71,
      "track": "(unnamed)",
      "channel": 2,
      "lane": "F"
    },
    {
      "time": 101.677,
      "duration": 0.007,
      "midi": 40,
      "noteNumber": 40,
      "velocity": 0.53,
      "track": "(unnamed)",
      "channel": 9,
      "lane": "D"
    },
    {
      "time": 101.677,
      "duration": 0.007,
      "midi": 51,
      "noteNumber": 51,
      "velocity": 0.69,
      "track": "(unnamed)",
      "channel": 9,
      "lane": "F"
    },
    {
      "time": 101.677,
      "duration": 0.273,
      "midi": 46,
      "noteNumber": 46,
      "velocity": 0.51,
      "track": "(unnamed)",
      "channel": 1,
      "lane": "F"
    },
    {
      "time": 101.916,
      "duration": 0.007,
      "midi": 51,
      "noteNumber": 51,
      "velocity": 0.54,
      "track": "(unnamed)",
      "channel": 9,
      "lane": "F"
    },
    {
      "time": 102.036,
      "duration": 0.12,
      "midi": 53,
      "noteNumber": 53,
      "velocity": 0.57,
      "track": "(unnamed)",
      "channel": 2,
      "lane": "F"
    },
    {
      "time": 102.036,
      "duration": 0.12,
      "midi": 56,
      "noteNumber": 56,
      "velocity": 0.74,
      "track": "(unnamed)",
      "channel": 2,
      "lane": "J"
    },
    {
      "time": 102.036,
      "duration": 0.124,
      "midi": 61,
      "noteNumber": 61,
      "velocity": 0.71,
      "track": "(unnamed)",
      "channel": 2,
      "lane": "J"
    },
    {
      "time": 102.036,
      "duration": 0.007,
      "midi": 51,
      "noteNumber": 51,
      "velocity": 0.83,
      "track": "(unnamed)",
      "channel": 9,
      "lane": "F"
    },
    {
      "time": 102.036,
      "duration": 0.213,
      "midi": 34,
      "noteNumber": 34,
      "velocity": 0.51,
      "track": "(unnamed)",
      "channel": 1,
      "lane": "D"
    },
    {
      "time": 102.156,
      "duration": 0.007,
      "midi": 40,
      "noteNumber": 40,
      "velocity": 0.26,
      "track": "(unnamed)",
      "channel": 9,
      "lane": "D"
    },
    {
      "time": 102.275,
      "duration": 0.007,
      "midi": 40,
      "noteNumber": 40,
      "velocity": 0.5,
      "track": "(unnamed)",
      "channel": 9,
      "lane": "D"
    },
    {
      "time": 102.395,
      "duration": 0.161,
      "midi": 39,
      "noteNumber": 39,
      "velocity": 0.6,
      "track": "(unnamed)",
      "channel": 2,
      "lane": "D"
    },
    {
      "time": 102.395,
      "duration": 0.007,
      "midi": 35,
      "noteNumber": 35,
      "velocity": 0.74,
      "track": "(unnamed)",
      "channel": 9,
      "lane": "D"
    },
    {
      "time": 102.395,
      "duration": 0.007,
      "midi": 51,
      "noteNumber": 51,
      "velocity": 0.72,
      "track": "(unnamed)",
      "channel": 9,
      "lane": "F"
    },
    {
      "time": 102.395,
      "duration": 0.876,
      "midi": 39,
      "noteNumber": 39,
      "velocity": 0.66,
      "track": "(unnamed)",
      "channel": 1,
      "lane": "D"
    },
    {
      "time": 102.421,
      "duration": 0.131,
      "midi": 56,
      "noteNumber": 56,
      "velocity": 0.52,
      "track": "(unnamed)",
      "channel": 3,
      "lane": "J"
    },
    {
      "time": 102.623,
      "duration": 0.056,
      "midi": 54,
      "noteNumber": 54,
      "velocity": 0.71,
      "track": "(unnamed)",
      "channel": 2,
      "lane": "J"
    },
    {
      "time": 102.623,
      "duration": 0.03,
      "midi": 58,
      "noteNumber": 58,
      "velocity": 0.54,
      "track": "(unnamed)",
      "channel": 2,
      "lane": "J"
    },
    {
      "time": 102.623,
      "duration": 0.06,
      "midi": 63,
      "noteNumber": 63,
      "velocity": 0.68,
      "track": "(unnamed)",
      "channel": 2,
      "lane": "J"
    },
    {
      "time": 102.623,
      "duration": 0.075,
      "midi": 54,
      "noteNumber": 54,
      "velocity": 0.49,
      "track": "(unnamed)",
      "channel": 3,
      "lane": "J"
    },
    {
      "time": 102.754,
      "duration": 0.007,
      "midi": 51,
      "noteNumber": 51,
      "velocity": 0.72,
      "track": "(unnamed)",
      "channel": 9,
      "lane": "F"
    },
    {
      "time": 102.762,
      "duration": 0.09,
      "midi": 56,
      "noteNumber": 56,
      "velocity": 0.74,
      "track": "(unnamed)",
      "channel": 3,
      "lane": "J"
    },
    {
      "time": 102.983,
      "duration": 0.112,
      "midi": 39,
      "noteNumber": 39,
      "velocity": 0.74,
      "track": "(unnamed)",
      "channel": 2,
      "lane": "D"
    },
    {
      "time": 102.994,
      "duration": 0.007,
      "midi": 40,
      "noteNumber": 40,
      "velocity": 0.53,
      "track": "(unnamed)",
      "channel": 9,
      "lane": "D"
    },
    {
      "time": 103.009,
      "duration": 0.109,
      "midi": 68,
      "noteNumber": 68,
      "velocity": 0.77,
      "track": "(unnamed)",
      "channel": 3,
      "lane": "K"
    },
    {
      "time": 103.114,
      "duration": 0.086,
      "midi": 54,
      "noteNumber": 54,
      "velocity": 0.71,
      "track": "(unnamed)",
      "channel": 2,
      "lane": "J"
    },
    {
      "time": 103.114,
      "duration": 0.041,
      "midi": 58,
      "noteNumber": 58,
      "velocity": 0.68,
      "track": "(unnamed)",
      "channel": 2,
      "lane": "J"
    },
    {
      "time": 103.114,
      "duration": 0.049,
      "midi": 63,
      "noteNumber": 63,
      "velocity": 0.54,
      "track": "(unnamed)",
      "channel": 2,
      "lane": "J"
    },
    {
      "time": 103.114,
      "duration": 0.007,
      "midi": 51,
      "noteNumber": 51,
      "velocity": 0.72,
      "track": "(unnamed)",
      "channel": 9,
      "lane": "F"
    },
    {
      "time": 103.353,
      "duration": 0.007,
      "midi": 51,
      "noteNumber": 51,
      "velocity": 0.61,
      "track": "(unnamed)",
      "channel": 9,
      "lane": "F"
    },
    {
      "time": 103.353,
      "duration": 0.03,
      "midi": 54,
      "noteNumber": 54,
      "velocity": 0.52,
      "track": "(unnamed)",
      "channel": 3,
      "lane": "J"
    },
    {
      "time": 103.473,
      "duration": 0.52,
      "midi": 46,
      "noteNumber": 46,
      "velocity": 0.71,
      "track": "(unnamed)",
      "channel": 2,
      "lane": "F"
    },
    {
      "time": 103.473,
      "duration": 0.007,
      "midi": 40,
      "noteNumber": 40,
      "velocity": 0.53,
      "track": "(unnamed)",
      "channel": 9,
      "lane": "D"
    },
    {
      "time": 103.473,
      "duration": 0.007,
      "midi": 51,
      "noteNumber": 51,
      "velocity": 0.69,
      "track": "(unnamed)",
      "channel": 9,
      "lane": "F"
    },
    {
      "time": 103.473,
      "duration": 0.273,
      "midi": 46,
      "noteNumber": 46,
      "velocity": 0.51,
      "track": "(unnamed)",
      "channel": 1,
      "lane": "F"
    },
    {
      "time": 103.499,
      "duration": 0.157,
      "midi": 66,
      "noteNumber": 66,
      "velocity": 0.8,
      "track": "(unnamed)",
      "channel": 3,
      "lane": "K"
    },
    {
      "time": 103.709,
      "duration": 0.082,
      "midi": 65,
      "noteNumber": 65,
      "velocity": 0.71,
      "track": "(unnamed)",
      "channel": 3,
      "lane": "J"
    },
    {
      "time": 103.712,
      "duration": 0.007,
      "midi": 51,
      "noteNumber": 51,
      "velocity": 0.54,
      "track": "(unnamed)",
      "channel": 9,
      "lane": "F"
    },
    {
      "time": 103.832,
      "duration": 0.12,
      "midi": 53,
      "noteNumber": 53,
      "velocity": 0.57,
      "track": "(unnamed)",
      "channel": 2,
      "lane": "F"
    },
    {
      "time": 103.832,
      "duration": 0.12,
      "midi": 56,
      "noteNumber": 56,
      "velocity": 0.74,
      "track": "(unnamed)",
      "channel": 2,
      "lane": "J"
    },
    {
      "time": 103.832,
      "duration": 0.124,
      "midi": 61,
      "noteNumber": 61,
      "velocity": 0.71,
      "track": "(unnamed)",
      "channel": 2,
      "lane": "J"
    },
    {
      "time": 103.832,
      "duration": 0.007,
      "midi": 51,
      "noteNumber": 51,
      "velocity": 0.83,
      "track": "(unnamed)",
      "channel": 9,
      "lane": "F"
    },
    {
      "time": 103.832,
      "duration": 0.213,
      "midi": 34,
      "noteNumber": 34,
      "velocity": 0.51,
      "track": "(unnamed)",
      "channel": 1,
      "lane": "D"
    },
    {
      "time": 103.858,
      "duration": 0.161,
      "midi": 63,
      "noteNumber": 63,
      "velocity": 0.46,
      "track": "(unnamed)",
      "channel": 3,
      "lane": "J"
    },
    {
      "time": 103.952,
      "duration": 0.007,
      "midi": 40,
      "noteNumber": 40,
      "velocity": 0.26,
      "track": "(unnamed)",
      "channel": 9,
      "lane": "D"
    },
    {
      "time": 104.068,
      "duration": 0.086,
      "midi": 61,
      "noteNumber": 61,
      "velocity": 0.56,
      "track": "(unnamed)",
      "channel": 3,
      "lane": "J"
    },
    {
      "time": 104.072,
      "duration": 0.007,
      "midi": 40,
      "noteNumber": 40,
      "velocity": 0.5,
      "track": "(unnamed)",
      "channel": 9,
      "lane": "D"
    },
    {
      "time": 104.191,
      "duration": 0.161,
      "midi": 39,
      "noteNumber": 39,
      "velocity": 0.6,
      "track": "(unnamed)",
      "channel": 2,
      "lane": "D"
    },
    {
      "time": 104.191,
      "duration": 0.007,
      "midi": 35,
      "noteNumber": 35,
      "velocity": 0.74,
      "track": "(unnamed)",
      "channel": 9,
      "lane": "D"
    },
    {
      "time": 104.191,
      "duration": 0.007,
      "midi": 51,
      "noteNumber": 51,
      "velocity": 0.72,
      "track": "(unnamed)",
      "channel": 9,
      "lane": "F"
    },
    {
      "time": 104.191,
      "duration": 0.876,
      "midi": 39,
      "noteNumber": 39,
      "velocity": 0.66,
      "track": "(unnamed)",
      "channel": 1,
      "lane": "D"
    },
    {
      "time": 104.21,
      "duration": 0.524,
      "midi": 56,
      "noteNumber": 56,
      "velocity": 0.5,
      "track": "(unnamed)",
      "channel": 3,
      "lane": "J"
    },
    {
      "time": 104.42,
      "duration": 0.056,
      "midi": 54,
      "noteNumber": 54,
      "velocity": 0.71,
      "track": "(unnamed)",
      "channel": 2,
      "lane": "J"
    },
    {
      "time": 104.42,
      "duration": 0.03,
      "midi": 58,
      "noteNumber": 58,
      "velocity": 0.54,
      "track": "(unnamed)",
      "channel": 2,
      "lane": "J"
    },
    {
      "time": 104.42,
      "duration": 0.06,
      "midi": 63,
      "noteNumber": 63,
      "velocity": 0.68,
      "track": "(unnamed)",
      "channel": 2,
      "lane": "J"
    },
    {
      "time": 104.551,
      "duration": 0.007,
      "midi": 51,
      "noteNumber": 51,
      "velocity": 0.72,
      "track": "(unnamed)",
      "channel": 9,
      "lane": "F"
    },
    {
      "time": 104.779,
      "duration": 0.112,
      "midi": 39,
      "noteNumber": 39,
      "velocity": 0.74,
      "track": "(unnamed)",
      "channel": 2,
      "lane": "D"
    },
    {
      "time": 104.79,
      "duration": 0.007,
      "midi": 40,
      "noteNumber": 40,
      "velocity": 0.53,
      "track": "(unnamed)",
      "channel": 9,
      "lane": "D"
    },
    {
      "time": 104.805,
      "duration": 0.124,
      "midi": 68,
      "noteNumber": 68,
      "velocity": 0.9,
      "track": "(unnamed)",
      "channel": 3,
      "lane": "K"
    },
    {
      "time": 104.91,
      "duration": 0.086,
      "midi": 54,
      "noteNumber": 54,
      "velocity": 0.71,
      "track": "(unnamed)",
      "channel": 2,
      "lane": "J"
    },
    {
      "time": 104.91,
      "duration": 0.041,
      "midi": 58,
      "noteNumber": 58,
      "velocity": 0.68,
      "track": "(unnamed)",
      "channel": 2,
      "lane": "J"
    },
    {
      "time": 104.91,
      "duration": 0.049,
      "midi": 63,
      "noteNumber": 63,
      "velocity": 0.54,
      "track": "(unnamed)",
      "channel": 2,
      "lane": "J"
    },
    {
      "time": 104.91,
      "duration": 0.007,
      "midi": 51,
      "noteNumber": 51,
      "velocity": 0.72,
      "track": "(unnamed)",
      "channel": 9,
      "lane": "F"
    },
    {
      "time": 105.15,
      "duration": 0.007,
      "midi": 51,
      "noteNumber": 51,
      "velocity": 0.61,
      "track": "(unnamed)",
      "channel": 9,
      "lane": "F"
    },
    {
      "time": 105.269,
      "duration": 0.52,
      "midi": 46,
      "noteNumber": 46,
      "velocity": 0.71,
      "track": "(unnamed)",
      "channel": 2,
      "lane": "F"
    },
    {
      "time": 105.269,
      "duration": 0.007,
      "midi": 40,
      "noteNumber": 40,
      "velocity": 0.53,
      "track": "(unnamed)",
      "channel": 9,
      "lane": "D"
    },
    {
      "time": 105.269,
      "duration": 0.007,
      "midi": 51,
      "noteNumber": 51,
      "velocity": 0.69,
      "track": "(unnamed)",
      "channel": 9,
      "lane": "F"
    },
    {
      "time": 105.269,
      "duration": 0.273,
      "midi": 46,
      "noteNumber": 46,
      "velocity": 0.51,
      "track": "(unnamed)",
      "channel": 1,
      "lane": "F"
    },
    {
      "time": 105.292,
      "duration": 0.127,
      "midi": 63,
      "noteNumber": 63,
      "velocity": 0.52,
      "track": "(unnamed)",
      "channel": 3,
      "lane": "J"
    },
    {
      "time": 105.49,
      "duration": 0.112,
      "midi": 65,
      "noteNumber": 65,
      "velocity": 0.6,
      "track": "(unnamed)",
      "channel": 3,
      "lane": "J"
    },
    {
      "time": 105.509,
      "duration": 0.007,
      "midi": 51,
      "noteNumber": 51,
      "velocity": 0.54,
      "track": "(unnamed)",
      "channel": 9,
      "lane": "F"
    },
    {
      "time": 105.629,
      "duration": 0.12,
      "midi": 53,
      "noteNumber": 53,
      "velocity": 0.57,
      "track": "(unnamed)",
      "channel": 2,
      "lane": "F"
    },
    {
      "time": 105.629,
      "duration": 0.12,
      "midi": 56,
      "noteNumber": 56,
      "velocity": 0.74,
      "track": "(unnamed)",
      "channel": 2,
      "lane": "J"
    },
    {
      "time": 105.629,
      "duration": 0.124,
      "midi": 61,
      "noteNumber": 61,
      "velocity": 0.71,
      "track": "(unnamed)",
      "channel": 2,
      "lane": "J"
    },
    {
      "time": 105.629,
      "duration": 0.007,
      "midi": 51,
      "noteNumber": 51,
      "velocity": 0.83,
      "track": "(unnamed)",
      "channel": 9,
      "lane": "F"
    },
    {
      "time": 105.629,
      "duration": 0.213,
      "midi": 34,
      "noteNumber": 34,
      "velocity": 0.51,
      "track": "(unnamed)",
      "channel": 1,
      "lane": "D"
    },
    {
      "time": 105.67,
      "duration": 0.146,
      "midi": 66,
      "noteNumber": 66,
      "velocity": 0.8,
      "track": "(unnamed)",
      "channel": 3,
      "lane": "K"
    },
    {
      "time": 105.748,
      "duration": 0.007,
      "midi": 40,
      "noteNumber": 40,
      "velocity": 0.26,
      "track": "(unnamed)",
      "channel": 9,
      "lane": "D"
    },
    {
      "time": 105.868,
      "duration": 0.007,
      "midi": 40,
      "noteNumber": 40,
      "velocity": 0.5,
      "track": "(unnamed)",
      "channel": 9,
      "lane": "D"
    },
    {
      "time": 105.988,
      "duration": 0.161,
      "midi": 39,
      "noteNumber": 39,
      "velocity": 0.6,
      "track": "(unnamed)",
      "channel": 2,
      "lane": "D"
    },
    {
      "time": 105.988,
      "duration": 0.007,
      "midi": 35,
      "noteNumber": 35,
      "velocity": 0.74,
      "track": "(unnamed)",
      "channel": 9,
      "lane": "D"
    },
    {
      "time": 105.988,
      "duration": 0.007,
      "midi": 51,
      "noteNumber": 51,
      "velocity": 0.72,
      "track": "(unnamed)",
      "channel": 9,
      "lane": "F"
    },
    {
      "time": 105.988,
      "duration": 0.876,
      "midi": 39,
      "noteNumber": 39,
      "velocity": 0.66,
      "track": "(unnamed)",
      "channel": 1,
      "lane": "D"
    },
    {
      "time": 106.003,
      "duration": 0.359,
      "midi": 56,
      "noteNumber": 56,
      "velocity": 0.52,
      "track": "(unnamed)",
      "channel": 3,
      "lane": "J"
    },
    {
      "time": 106.216,
      "duration": 0.056,
      "midi": 54,
      "noteNumber": 54,
      "velocity": 0.71,
      "track": "(unnamed)",
      "channel": 2,
      "lane": "J"
    },
    {
      "time": 106.216,
      "duration": 0.03,
      "midi": 58,
      "noteNumber": 58,
      "velocity": 0.54,
      "track": "(unnamed)",
      "channel": 2,
      "lane": "J"
    },
    {
      "time": 106.216,
      "duration": 0.06,
      "midi": 63,
      "noteNumber": 63,
      "velocity": 0.68,
      "track": "(unnamed)",
      "channel": 2,
      "lane": "J"
    },
    {
      "time": 106.347,
      "duration": 0.007,
      "midi": 51,
      "noteNumber": 51,
      "velocity": 0.72,
      "track": "(unnamed)",
      "channel": 9,
      "lane": "F"
    },
    {
      "time": 106.575,
      "duration": 0.112,
      "midi": 39,
      "noteNumber": 39,
      "velocity": 0.74,
      "track": "(unnamed)",
      "channel": 2,
      "lane": "D"
    },
    {
      "time": 106.587,
      "duration": 0.007,
      "midi": 40,
      "noteNumber": 40,
      "velocity": 0.53,
      "track": "(unnamed)",
      "channel": 9,
      "lane": "D"
    },
    {
      "time": 106.602,
      "duration": 0.109,
      "midi": 68,
      "noteNumber": 68,
      "velocity": 0.77,
      "track": "(unnamed)",
      "channel": 3,
      "lane": "K"
    },
    {
      "time": 106.706,
      "duration": 0.086,
      "midi": 54,
      "noteNumber": 54,
      "velocity": 0.71,
      "track": "(unnamed)",
      "channel": 2,
      "lane": "J"
    },
    {
      "time": 106.706,
      "duration": 0.041,
      "midi": 58,
      "noteNumber": 58,
      "velocity": 0.68,
      "track": "(unnamed)",
      "channel": 2,
      "lane": "J"
    },
    {
      "time": 106.706,
      "duration": 0.049,
      "midi": 63,
      "noteNumber": 63,
      "velocity": 0.54,
      "track": "(unnamed)",
      "channel": 2,
      "lane": "J"
    },
    {
      "time": 106.706,
      "duration": 0.007,
      "midi": 51,
      "noteNumber": 51,
      "velocity": 0.72,
      "track": "(unnamed)",
      "channel": 9,
      "lane": "F"
    },
    {
      "time": 106.946,
      "duration": 0.007,
      "midi": 51,
      "noteNumber": 51,
      "velocity": 0.61,
      "track": "(unnamed)",
      "channel": 9,
      "lane": "F"
    },
    {
      "time": 106.946,
      "duration": 0.03,
      "midi": 54,
      "noteNumber": 54,
      "velocity": 0.52,
      "track": "(unnamed)",
      "channel": 3,
      "lane": "J"
    },
    {
      "time": 107.066,
      "duration": 0.52,
      "midi": 46,
      "noteNumber": 46,
      "velocity": 0.71,
      "track": "(unnamed)",
      "channel": 2,
      "lane": "F"
    },
    {
      "time": 107.066,
      "duration": 0.007,
      "midi": 40,
      "noteNumber": 40,
      "velocity": 0.53,
      "track": "(unnamed)",
      "channel": 9,
      "lane": "D"
    },
    {
      "time": 107.066,
      "duration": 0.007,
      "midi": 51,
      "noteNumber": 51,
      "velocity": 0.69,
      "track": "(unnamed)",
      "channel": 9,
      "lane": "F"
    },
    {
      "time": 107.066,
      "duration": 0.273,
      "midi": 46,
      "noteNumber": 46,
      "velocity": 0.51,
      "track": "(unnamed)",
      "channel": 1,
      "lane": "F"
    },
    {
      "time": 107.092,
      "duration": 0.157,
      "midi": 66,
      "noteNumber": 66,
      "velocity": 0.8,
      "track": "(unnamed)",
      "channel": 3,
      "lane": "K"
    },
    {
      "time": 107.302,
      "duration": 0.082,
      "midi": 65,
      "noteNumber": 65,
      "velocity": 0.71,
      "track": "(unnamed)",
      "channel": 3,
      "lane": "J"
    },
    {
      "time": 107.305,
      "duration": 0.007,
      "midi": 51,
      "noteNumber": 51,
      "velocity": 0.54,
      "track": "(unnamed)",
      "channel": 9,
      "lane": "F"
    },
    {
      "time": 107.425,
      "duration": 0.12,
      "midi": 53,
      "noteNumber": 53,
      "velocity": 0.57,
      "track": "(unnamed)",
      "channel": 2,
      "lane": "F"
    },
    {
      "time": 107.425,
      "duration": 0.12,
      "midi": 56,
      "noteNumber": 56,
      "velocity": 0.74,
      "track": "(unnamed)",
      "channel": 2,
      "lane": "J"
    },
    {
      "time": 107.425,
      "duration": 0.124,
      "midi": 61,
      "noteNumber": 61,
      "velocity": 0.71,
      "track": "(unnamed)",
      "channel": 2,
      "lane": "J"
    },
    {
      "time": 107.425,
      "duration": 0.007,
      "midi": 51,
      "noteNumber": 51,
      "velocity": 0.83,
      "track": "(unnamed)",
      "channel": 9,
      "lane": "F"
    },
    {
      "time": 107.425,
      "duration": 0.213,
      "midi": 34,
      "noteNumber": 34,
      "velocity": 0.51,
      "track": "(unnamed)",
      "channel": 1,
      "lane": "D"
    },
    {
      "time": 107.451,
      "duration": 0.161,
      "midi": 63,
      "noteNumber": 63,
      "velocity": 0.46,
      "track": "(unnamed)",
      "channel": 3,
      "lane": "J"
    },
    {
      "time": 107.545,
      "duration": 0.007,
      "midi": 40,
      "noteNumber": 40,
      "velocity": 0.26,
      "track": "(unnamed)",
      "channel": 9,
      "lane": "D"
    },
    {
      "time": 107.661,
      "duration": 0.086,
      "midi": 61,
      "noteNumber": 61,
      "velocity": 0.56,
      "track": "(unnamed)",
      "channel": 3,
      "lane": "J"
    },
    {
      "time": 107.665,
      "duration": 0.007,
      "midi": 40,
      "noteNumber": 40,
      "velocity": 0.5,
      "track": "(unnamed)",
      "channel": 9,
      "lane": "D"
    },
    {
      "time": 107.784,
      "duration": 0.161,
      "midi": 39,
      "noteNumber": 39,
      "velocity": 0.6,
      "track": "(unnamed)",
      "channel": 2,
      "lane": "D"
    },
    {
      "time": 107.784,
      "duration": 0.007,
      "midi": 35,
      "noteNumber": 35,
      "velocity": 0.74,
      "track": "(unnamed)",
      "channel": 9,
      "lane": "D"
    },
    {
      "time": 107.784,
      "duration": 0.007,
      "midi": 51,
      "noteNumber": 51,
      "velocity": 0.72,
      "track": "(unnamed)",
      "channel": 9,
      "lane": "F"
    },
    {
      "time": 107.784,
      "duration": 0.876,
      "midi": 39,
      "noteNumber": 39,
      "velocity": 0.66,
      "track": "(unnamed)",
      "channel": 1,
      "lane": "D"
    },
    {
      "time": 107.848,
      "duration": 0.501,
      "midi": 56,
      "noteNumber": 56,
      "velocity": 0.54,
      "track": "(unnamed)",
      "channel": 3,
      "lane": "J"
    },
    {
      "time": 108.013,
      "duration": 0.056,
      "midi": 54,
      "noteNumber": 54,
      "velocity": 0.71,
      "track": "(unnamed)",
      "channel": 2,
      "lane": "J"
    },
    {
      "time": 108.013,
      "duration": 0.03,
      "midi": 58,
      "noteNumber": 58,
      "velocity": 0.54,
      "track": "(unnamed)",
      "channel": 2,
      "lane": "J"
    },
    {
      "time": 108.013,
      "duration": 0.06,
      "midi": 63,
      "noteNumber": 63,
      "velocity": 0.68,
      "track": "(unnamed)",
      "channel": 2,
      "lane": "J"
    },
    {
      "time": 108.144,
      "duration": 0.007,
      "midi": 51,
      "noteNumber": 51,
      "velocity": 0.72,
      "track": "(unnamed)",
      "channel": 9,
      "lane": "F"
    },
    {
      "time": 108.372,
      "duration": 0.112,
      "midi": 39,
      "noteNumber": 39,
      "velocity": 0.74,
      "track": "(unnamed)",
      "channel": 2,
      "lane": "D"
    },
    {
      "time": 108.379,
      "duration": 0.165,
      "midi": 65,
      "noteNumber": 65,
      "velocity": 0.71,
      "track": "(unnamed)",
      "channel": 3,
      "lane": "J"
    },
    {
      "time": 108.383,
      "duration": 0.007,
      "midi": 40,
      "noteNumber": 40,
      "velocity": 0.53,
      "track": "(unnamed)",
      "channel": 9,
      "lane": "D"
    },
    {
      "time": 108.503,
      "duration": 0.086,
      "midi": 54,
      "noteNumber": 54,
      "velocity": 0.71,
      "track": "(unnamed)",
      "channel": 2,
      "lane": "J"
    },
    {
      "time": 108.503,
      "duration": 0.041,
      "midi": 58,
      "noteNumber": 58,
      "velocity": 0.68,
      "track": "(unnamed)",
      "channel": 2,
      "lane": "J"
    },
    {
      "time": 108.503,
      "duration": 0.049,
      "midi": 63,
      "noteNumber": 63,
      "velocity": 0.54,
      "track": "(unnamed)",
      "channel": 2,
      "lane": "J"
    },
    {
      "time": 108.503,
      "duration": 0.007,
      "midi": 51,
      "noteNumber": 51,
      "velocity": 0.72,
      "track": "(unnamed)",
      "channel": 9,
      "lane": "F"
    },
    {
      "time": 108.742,
      "duration": 0.007,
      "midi": 51,
      "noteNumber": 51,
      "velocity": 0.61,
      "track": "(unnamed)",
      "channel": 9,
      "lane": "F"
    },
    {
      "time": 108.75,
      "duration": 0.086,
      "midi": 56,
      "noteNumber": 56,
      "velocity": 0.14,
      "track": "(unnamed)",
      "channel": 3,
      "lane": "J"
    },
    {
      "time": 108.862,
      "duration": 0.52,
      "midi": 46,
      "noteNumber": 46,
      "velocity": 0.71,
      "track": "(unnamed)",
      "channel": 2,
      "lane": "F"
    },
    {
      "time": 108.862,
      "duration": 0.007,
      "midi": 40,
      "noteNumber": 40,
      "velocity": 0.53,
      "track": "(unnamed)",
      "channel": 9,
      "lane": "D"
    },
    {
      "time": 108.862,
      "duration": 0.007,
      "midi": 51,
      "noteNumber": 51,
      "velocity": 0.69,
      "track": "(unnamed)",
      "channel": 9,
      "lane": "F"
    },
    {
      "time": 108.862,
      "duration": 0.273,
      "midi": 46,
      "noteNumber": 46,
      "velocity": 0.51,
      "track": "(unnamed)",
      "channel": 1,
      "lane": "F"
    },
    {
      "time": 108.9,
      "duration": 0.531,
      "midi": 63,
      "noteNumber": 63,
      "velocity": 0.74,
      "track": "(unnamed)",
      "channel": 3,
      "lane": "J"
    },
    {
      "time": 109.102,
      "duration": 0.007,
      "midi": 51,
      "noteNumber": 51,
      "velocity": 0.54,
      "track": "(unnamed)",
      "channel": 9,
      "lane": "F"
    },
    {
      "time": 109.221,
      "duration": 0.12,
      "midi": 53,
      "noteNumber": 53,
      "velocity": 0.57,
      "track": "(unnamed)",
      "channel": 2,
      "lane": "F"
    },
    {
      "time": 109.221,
      "duration": 0.12,
      "midi": 56,
      "noteNumber": 56,
      "velocity": 0.74,
      "track": "(unnamed)",
      "channel": 2,
      "lane": "J"
    },
    {
      "time": 109.221,
      "duration": 0.124,
      "midi": 61,
      "noteNumber": 61,
      "velocity": 0.71,
      "track": "(unnamed)",
      "channel": 2,
      "lane": "J"
    },
    {
      "time": 109.221,
      "duration": 0.007,
      "midi": 51,
      "noteNumber": 51,
      "velocity": 0.83,
      "track": "(unnamed)",
      "channel": 9,
      "lane": "F"
    },
    {
      "time": 109.221,
      "duration": 0.213,
      "midi": 34,
      "noteNumber": 34,
      "velocity": 0.51,
      "track": "(unnamed)",
      "channel": 1,
      "lane": "D"
    },
    {
      "time": 109.341,
      "duration": 0.007,
      "midi": 40,
      "noteNumber": 40,
      "velocity": 0.26,
      "track": "(unnamed)",
      "channel": 9,
      "lane": "D"
    },
    {
      "time": 109.457,
      "duration": 0.109,
      "midi": 60,
      "noteNumber": 60,
      "velocity": 0.71,
      "track": "(unnamed)",
      "channel": 3,
      "lane": "J"
    },
    {
      "time": 109.461,
      "duration": 0.007,
      "midi": 40,
      "noteNumber": 40,
      "velocity": 0.5,
      "track": "(unnamed)",
      "channel": 9,
      "lane": "D"
    },
    {
      "time": 109.581,
      "duration": 0.161,
      "midi": 39,
      "noteNumber": 39,
      "velocity": 0.6,
      "track": "(unnamed)",
      "channel": 2,
      "lane": "D"
    },
    {
      "time": 109.581,
      "duration": 0.007,
      "midi": 35,
      "noteNumber": 35,
      "velocity": 0.74,
      "track": "(unnamed)",
      "channel": 9,
      "lane": "D"
    },
    {
      "time": 109.581,
      "duration": 0.007,
      "midi": 51,
      "noteNumber": 51,
      "velocity": 0.72,
      "track": "(unnamed)",
      "channel": 9,
      "lane": "F"
    },
    {
      "time": 109.581,
      "duration": 0.876,
      "midi": 39,
      "noteNumber": 39,
      "velocity": 0.66,
      "track": "(unnamed)",
      "channel": 1,
      "lane": "D"
    },
    {
      "time": 109.674,
      "duration": 1.504,
      "midi": 58,
      "noteNumber": 58,
      "velocity": 0.52,
      "track": "(unnamed)",
      "channel": 3,
      "lane": "J"
    },
    {
      "time": 109.809,
      "duration": 0.056,
      "midi": 54,
      "noteNumber": 54,
      "velocity": 0.71,
      "track": "(unnamed)",
      "channel": 2,
      "lane": "J"
    },
    {
      "time": 109.809,
      "duration": 0.03,
      "midi": 58,
      "noteNumber": 58,
      "velocity": 0.54,
      "track": "(unnamed)",
      "channel": 2,
      "lane": "J"
    },
    {
      "time": 109.809,
      "duration": 0.06,
      "midi": 63,
      "noteNumber": 63,
      "velocity": 0.68,
      "track": "(unnamed)",
      "channel": 2,
      "lane": "J"
    },
    {
      "time": 109.94,
      "duration": 0.007,
      "midi": 51,
      "noteNumber": 51,
      "velocity": 0.72,
      "track": "(unnamed)",
      "channel": 9,
      "lane": "F"
    },
    {
      "time": 110.168,
      "duration": 0.112,
      "midi": 39,
      "noteNumber": 39,
      "velocity": 0.74,
      "track": "(unnamed)",
      "channel": 2,
      "lane": "D"
    },
    {
      "time": 110.18,
      "duration": 0.007,
      "midi": 40,
      "noteNumber": 40,
      "velocity": 0.53,
      "track": "(unnamed)",
      "channel": 9,
      "lane": "D"
    },
    {
      "time": 110.299,
      "duration": 0.086,
      "midi": 54,
      "noteNumber": 54,
      "velocity": 0.71,
      "track": "(unnamed)",
      "channel": 2,
      "lane": "J"
    },
    {
      "time": 110.299,
      "duration": 0.041,
      "midi": 58,
      "noteNumber": 58,
      "velocity": 0.68,
      "track": "(unnamed)",
      "channel": 2,
      "lane": "J"
    },
    {
      "time": 110.299,
      "duration": 0.049,
      "midi": 63,
      "noteNumber": 63,
      "velocity": 0.54,
      "track": "(unnamed)",
      "channel": 2,
      "lane": "J"
    },
    {
      "time": 110.299,
      "duration": 0.007,
      "midi": 51,
      "noteNumber": 51,
      "velocity": 0.72,
      "track": "(unnamed)",
      "channel": 9,
      "lane": "F"
    },
    {
      "time": 110.539,
      "duration": 0.007,
      "midi": 51,
      "noteNumber": 51,
      "velocity": 0.61,
      "track": "(unnamed)",
      "channel": 9,
      "lane": "F"
    },
    {
      "time": 110.659,
      "duration": 0.52,
      "midi": 46,
      "noteNumber": 46,
      "velocity": 0.71,
      "track": "(unnamed)",
      "channel": 2,
      "lane": "F"
    },
    {
      "time": 110.659,
      "duration": 0.007,
      "midi": 40,
      "noteNumber": 40,
      "velocity": 0.53,
      "track": "(unnamed)",
      "channel": 9,
      "lane": "D"
    },
    {
      "time": 110.659,
      "duration": 0.007,
      "midi": 51,
      "noteNumber": 51,
      "velocity": 0.69,
      "track": "(unnamed)",
      "channel": 9,
      "lane": "F"
    },
    {
      "time": 110.659,
      "duration": 0.273,
      "midi": 46,
      "noteNumber": 46,
      "velocity": 0.51,
      "track": "(unnamed)",
      "channel": 1,
      "lane": "F"
    },
    {
      "time": 110.898,
      "duration": 0.007,
      "midi": 51,
      "noteNumber": 51,
      "velocity": 0.54,
      "track": "(unnamed)",
      "channel": 9,
      "lane": "F"
    },
    {
      "time": 111.018,
      "duration": 0.12,
      "midi": 53,
      "noteNumber": 53,
      "velocity": 0.57,
      "track": "(unnamed)",
      "channel": 2,
      "lane": "F"
    },
    {
      "time": 111.018,
      "duration": 0.12,
      "midi": 56,
      "noteNumber": 56,
      "velocity": 0.74,
      "track": "(unnamed)",
      "channel": 2,
      "lane": "J"
    },
    {
      "time": 111.018,
      "duration": 0.124,
      "midi": 61,
      "noteNumber": 61,
      "velocity": 0.71,
      "track": "(unnamed)",
      "channel": 2,
      "lane": "J"
    },
    {
      "time": 111.018,
      "duration": 0.007,
      "midi": 51,
      "noteNumber": 51,
      "velocity": 0.83,
      "track": "(unnamed)",
      "channel": 9,
      "lane": "F"
    },
    {
      "time": 111.018,
      "duration": 0.213,
      "midi": 34,
      "noteNumber": 34,
      "velocity": 0.51,
      "track": "(unnamed)",
      "channel": 1,
      "lane": "D"
    },
    {
      "time": 111.138,
      "duration": 0.007,
      "midi": 40,
      "noteNumber": 40,
      "velocity": 0.26,
      "track": "(unnamed)",
      "channel": 9,
      "lane": "D"
    },
    {
      "time": 111.257,
      "duration": 0.007,
      "midi": 40,
      "noteNumber": 40,
      "velocity": 0.5,
      "track": "(unnamed)",
      "channel": 9,
      "lane": "D"
    },
    {
      "time": 111.377,
      "duration": 0.142,
      "midi": 39,
      "noteNumber": 39,
      "velocity": 0.68,
      "track": "(unnamed)",
      "channel": 2,
      "lane": "D"
    },
    {
      "time": 111.377,
      "duration": 0.007,
      "midi": 35,
      "noteNumber": 35,
      "velocity": 0.74,
      "track": "(unnamed)",
      "channel": 9,
      "lane": "D"
    },
    {
      "time": 111.377,
      "duration": 0.007,
      "midi": 51,
      "noteNumber": 51,
      "velocity": 0.72,
      "track": "(unnamed)",
      "channel": 9,
      "lane": "F"
    },
    {
      "time": 111.377,
      "duration": 0.876,
      "midi": 39,
      "noteNumber": 39,
      "velocity": 0.66,
      "track": "(unnamed)",
      "channel": 1,
      "lane": "D"
    },
    {
      "time": 111.605,
      "duration": 0.06,
      "midi": 54,
      "noteNumber": 54,
      "velocity": 0.39,
      "track": "(unnamed)",
      "channel": 2,
      "lane": "J"
    },
    {
      "time": 111.605,
      "duration": 0.056,
      "midi": 58,
      "noteNumber": 58,
      "velocity": 0.49,
      "track": "(unnamed)",
      "channel": 2,
      "lane": "J"
    },
    {
      "time": 111.605,
      "duration": 0.06,
      "midi": 63,
      "noteNumber": 63,
      "velocity": 0.54,
      "track": "(unnamed)",
      "channel": 2,
      "lane": "J"
    },
    {
      "time": 111.736,
      "duration": 0.007,
      "midi": 51,
      "noteNumber": 51,
      "velocity": 0.72,
      "track": "(unnamed)",
      "channel": 9,
      "lane": "F"
    },
    {
      "time": 111.965,
      "duration": 0.086,
      "midi": 39,
      "noteNumber": 39,
      "velocity": 0.6,
      "track": "(unnamed)",
      "channel": 2,
      "lane": "D"
    },
    {
      "time": 111.976,
      "duration": 0.007,
      "midi": 40,
      "noteNumber": 40,
      "velocity": 0.53,
      "track": "(unnamed)",
      "channel": 9,
      "lane": "D"
    },
    {
      "time": 112.096,
      "duration": 0.079,
      "midi": 54,
      "noteNumber": 54,
      "velocity": 0.6,
      "track": "(unnamed)",
      "channel": 2,
      "lane": "J"
    },
    {
      "time": 112.096,
      "duration": 0.067,
      "midi": 58,
      "noteNumber": 58,
      "velocity": 0.6,
      "track": "(unnamed)",
      "channel": 2,
      "lane": "J"
    },
    {
      "time": 112.096,
      "duration": 0.105,
      "midi": 63,
      "noteNumber": 63,
      "velocity": 0.74,
      "track": "(unnamed)",
      "channel": 2,
      "lane": "J"
    },
    {
      "time": 112.096,
      "duration": 0.007,
      "midi": 51,
      "noteNumber": 51,
      "velocity": 0.72,
      "track": "(unnamed)",
      "channel": 9,
      "lane": "F"
    },
    {
      "time": 112.335,
      "duration": 0.007,
      "midi": 51,
      "noteNumber": 51,
      "velocity": 0.61,
      "track": "(unnamed)",
      "channel": 9,
      "lane": "F"
    },
    {
      "time": 112.455,
      "duration": 0.588,
      "midi": 46,
      "noteNumber": 46,
      "velocity": 0.57,
      "track": "(unnamed)",
      "channel": 2,
      "lane": "F"
    },
    {
      "time": 112.455,
      "duration": 0.303,
      "midi": 58,
      "noteNumber": 58,
      "velocity": 0.6,
      "track": "(unnamed)",
      "channel": 2,
      "lane": "J"
    },
    {
      "time": 112.455,
      "duration": 0.311,
      "midi": 61,
      "noteNumber": 61,
      "velocity": 0.6,
      "track": "(unnamed)",
      "channel": 2,
      "lane": "J"
    },
    {
      "time": 112.455,
      "duration": 0.007,
      "midi": 40,
      "noteNumber": 40,
      "velocity": 0.53,
      "track": "(unnamed)",
      "channel": 9,
      "lane": "D"
    },
    {
      "time": 112.455,
      "duration": 0.007,
      "midi": 51,
      "noteNumber": 51,
      "velocity": 0.69,
      "track": "(unnamed)",
      "channel": 9,
      "lane": "F"
    },
    {
      "time": 112.455,
      "duration": 0.273,
      "midi": 46,
      "noteNumber": 46,
      "velocity": 0.51,
      "track": "(unnamed)",
      "channel": 1,
      "lane": "F"
    },
    {
      "time": 112.694,
      "duration": 0.007,
      "midi": 51,
      "noteNumber": 51,
      "velocity": 0.54,
      "track": "(unnamed)",
      "channel": 9,
      "lane": "F"
    },
    {
      "time": 112.814,
      "duration": 0.213,
      "midi": 56,
      "noteNumber": 56,
      "velocity": 0.5,
      "track": "(unnamed)",
      "channel": 2,
      "lane": "J"
    },
    {
      "time": 112.814,
      "duration": 0.18,
      "midi": 60,
      "noteNumber": 60,
      "velocity": 0.68,
      "track": "(unnamed)",
      "channel": 2,
      "lane": "J"
    },
    {
      "time": 112.814,
      "duration": 0.007,
      "midi": 51,
      "noteNumber": 51,
      "velocity": 0.83,
      "track": "(unnamed)",
      "channel": 9,
      "lane": "F"
    },
    {
      "time": 112.814,
      "duration": 0.213,
      "midi": 34,
      "noteNumber": 34,
      "velocity": 0.51,
      "track": "(unnamed)",
      "channel": 1,
      "lane": "D"
    },
    {
      "time": 112.934,
      "duration": 0.007,
      "midi": 40,
      "noteNumber": 40,
      "velocity": 0.26,
      "track": "(unnamed)",
      "channel": 9,
      "lane": "D"
    },
    {
      "time": 113.054,
      "duration": 0.007,
      "midi": 40,
      "noteNumber": 40,
      "velocity": 0.5,
      "track": "(unnamed)",
      "channel": 9,
      "lane": "D"
    },
    {
      "time": 113.174,
      "duration": 0.161,
      "midi": 39,
      "noteNumber": 39,
      "velocity": 0.6,
      "track": "(unnamed)",
      "channel": 2,
      "lane": "D"
    },
    {
      "time": 113.174,
      "duration": 0.007,
      "midi": 35,
      "noteNumber": 35,
      "velocity": 0.74,
      "track": "(unnamed)",
      "channel": 9,
      "lane": "D"
    },
    {
      "time": 113.174,
      "duration": 0.007,
      "midi": 51,
      "noteNumber": 51,
      "velocity": 0.72,
      "track": "(unnamed)",
      "channel": 9,
      "lane": "F"
    },
    {
      "time": 113.174,
      "duration": 0.876,
      "midi": 39,
      "noteNumber": 39,
      "velocity": 0.66,
      "track": "(unnamed)",
      "channel": 1,
      "lane": "D"
    },
    {
      "time": 113.402,
      "duration": 0.056,
      "midi": 54,
      "noteNumber": 54,
      "velocity": 0.71,
      "track": "(unnamed)",
      "channel": 2,
      "lane": "J"
    },
    {
      "time": 113.402,
      "duration": 0.03,
      "midi": 58,
      "noteNumber": 58,
      "velocity": 0.54,
      "track": "(unnamed)",
      "channel": 2,
      "lane": "J"
    },
    {
      "time": 113.402,
      "duration": 0.06,
      "midi": 63,
      "noteNumber": 63,
      "velocity": 0.68,
      "track": "(unnamed)",
      "channel": 2,
      "lane": "J"
    },
    {
      "time": 113.533,
      "duration": 0.007,
      "midi": 51,
      "noteNumber": 51,
      "velocity": 0.72,
      "track": "(unnamed)",
      "channel": 9,
      "lane": "F"
    },
    {
      "time": 113.761,
      "duration": 0.112,
      "midi": 39,
      "noteNumber": 39,
      "velocity": 0.74,
      "track": "(unnamed)",
      "channel": 2,
      "lane": "D"
    },
    {
      "time": 113.772,
      "duration": 0.007,
      "midi": 40,
      "noteNumber": 40,
      "velocity": 0.53,
      "track": "(unnamed)",
      "channel": 9,
      "lane": "D"
    },
    {
      "time": 113.892,
      "duration": 0.086,
      "midi": 54,
      "noteNumber": 54,
      "velocity": 0.71,
      "track": "(unnamed)",
      "channel": 2,
      "lane": "J"
    },
    {
      "time": 113.892,
      "duration": 0.041,
      "midi": 58,
      "noteNumber": 58,
      "velocity": 0.68,
      "track": "(unnamed)",
      "channel": 2,
      "lane": "J"
    },
    {
      "time": 113.892,
      "duration": 0.049,
      "midi": 63,
      "noteNumber": 63,
      "velocity": 0.54,
      "track": "(unnamed)",
      "channel": 2,
      "lane": "J"
    },
    {
      "time": 113.892,
      "duration": 0.007,
      "midi": 51,
      "noteNumber": 51,
      "velocity": 0.72,
      "track": "(unnamed)",
      "channel": 9,
      "lane": "F"
    },
    {
      "time": 114.132,
      "duration": 0.007,
      "midi": 51,
      "noteNumber": 51,
      "velocity": 0.61,
      "track": "(unnamed)",
      "channel": 9,
      "lane": "F"
    },
    {
      "time": 114.251,
      "duration": 0.52,
      "midi": 46,
      "noteNumber": 46,
      "velocity": 0.71,
      "track": "(unnamed)",
      "channel": 2,
      "lane": "F"
    },
    {
      "time": 114.251,
      "duration": 0.007,
      "midi": 40,
      "noteNumber": 40,
      "velocity": 0.53,
      "track": "(unnamed)",
      "channel": 9,
      "lane": "D"
    },
    {
      "time": 114.251,
      "duration": 0.007,
      "midi": 51,
      "noteNumber": 51,
      "velocity": 0.69,
      "track": "(unnamed)",
      "channel": 9,
      "lane": "F"
    },
    {
      "time": 114.251,
      "duration": 0.273,
      "midi": 46,
      "noteNumber": 46,
      "velocity": 0.51,
      "track": "(unnamed)",
      "channel": 1,
      "lane": "F"
    },
    {
      "time": 114.491,
      "duration": 0.007,
      "midi": 51,
      "noteNumber": 51,
      "velocity": 0.54,
      "track": "(unnamed)",
      "channel": 9,
      "lane": "F"
    },
    {
      "time": 114.611,
      "duration": 0.12,
      "midi": 53,
      "noteNumber": 53,
      "velocity": 0.57,
      "track": "(unnamed)",
      "channel": 2,
      "lane": "F"
    },
    {
      "time": 114.611,
      "duration": 0.12,
      "midi": 56,
      "noteNumber": 56,
      "velocity": 0.74,
      "track": "(unnamed)",
      "channel": 2,
      "lane": "J"
    },
    {
      "time": 114.611,
      "duration": 0.124,
      "midi": 61,
      "noteNumber": 61,
      "velocity": 0.71,
      "track": "(unnamed)",
      "channel": 2,
      "lane": "J"
    },
    {
      "time": 114.611,
      "duration": 0.007,
      "midi": 51,
      "noteNumber": 51,
      "velocity": 0.83,
      "track": "(unnamed)",
      "channel": 9,
      "lane": "F"
    },
    {
      "time": 114.611,
      "duration": 0.213,
      "midi": 34,
      "noteNumber": 34,
      "velocity": 0.51,
      "track": "(unnamed)",
      "channel": 1,
      "lane": "D"
    },
    {
      "time": 114.73,
      "duration": 0.007,
      "midi": 40,
      "noteNumber": 40,
      "velocity": 0.26,
      "track": "(unnamed)",
      "channel": 9,
      "lane": "D"
    },
    {
      "time": 114.85,
      "duration": 0.007,
      "midi": 40,
      "noteNumber": 40,
      "velocity": 0.5,
      "track": "(unnamed)",
      "channel": 9,
      "lane": "D"
    },
    {
      "time": 114.97,
      "duration": 0.161,
      "midi": 39,
      "noteNumber": 39,
      "velocity": 0.6,
      "track": "(unnamed)",
      "channel": 2,
      "lane": "D"
    },
    {
      "time": 114.97,
      "duration": 0.007,
      "midi": 35,
      "noteNumber": 35,
      "velocity": 0.74,
      "track": "(unnamed)",
      "channel": 9,
      "lane": "D"
    },
    {
      "time": 114.97,
      "duration": 0.007,
      "midi": 51,
      "noteNumber": 51,
      "velocity": 0.72,
      "track": "(unnamed)",
      "channel": 9,
      "lane": "F"
    },
    {
      "time": 114.97,
      "duration": 0.876,
      "midi": 39,
      "noteNumber": 39,
      "velocity": 0.66,
      "track": "(unnamed)",
      "channel": 1,
      "lane": "D"
    },
    {
      "time": 115.198,
      "duration": 0.056,
      "midi": 54,
      "noteNumber": 54,
      "velocity": 0.71,
      "track": "(unnamed)",
      "channel": 2,
      "lane": "J"
    },
    {
      "time": 115.198,
      "duration": 0.03,
      "midi": 58,
      "noteNumber": 58,
      "velocity": 0.54,
      "track": "(unnamed)",
      "channel": 2,
      "lane": "J"
    },
    {
      "time": 115.198,
      "duration": 0.06,
      "midi": 63,
      "noteNumber": 63,
      "velocity": 0.68,
      "track": "(unnamed)",
      "channel": 2,
      "lane": "J"
    },
    {
      "time": 115.329,
      "duration": 0.007,
      "midi": 51,
      "noteNumber": 51,
      "velocity": 0.72,
      "track": "(unnamed)",
      "channel": 9,
      "lane": "F"
    },
    {
      "time": 115.557,
      "duration": 0.112,
      "midi": 39,
      "noteNumber": 39,
      "velocity": 0.74,
      "track": "(unnamed)",
      "channel": 2,
      "lane": "D"
    },
    {
      "time": 115.569,
      "duration": 0.007,
      "midi": 40,
      "noteNumber": 40,
      "velocity": 0.53,
      "track": "(unnamed)",
      "channel": 9,
      "lane": "D"
    },
    {
      "time": 115.688,
      "duration": 0.086,
      "midi": 54,
      "noteNumber": 54,
      "velocity": 0.71,
      "track": "(unnamed)",
      "channel": 2,
      "lane": "J"
    },
    {
      "time": 115.688,
      "duration": 0.041,
      "midi": 58,
      "noteNumber": 58,
      "velocity": 0.68,
      "track": "(unnamed)",
      "channel": 2,
      "lane": "J"
    },
    {
      "time": 115.688,
      "duration": 0.049,
      "midi": 63,
      "noteNumber": 63,
      "velocity": 0.54,
      "track": "(unnamed)",
      "channel": 2,
      "lane": "J"
    },
    {
      "time": 115.688,
      "duration": 0.007,
      "midi": 51,
      "noteNumber": 51,
      "velocity": 0.72,
      "track": "(unnamed)",
      "channel": 9,
      "lane": "F"
    },
    {
      "time": 115.928,
      "duration": 0.007,
      "midi": 51,
      "noteNumber": 51,
      "velocity": 0.61,
      "track": "(unnamed)",
      "channel": 9,
      "lane": "F"
    },
    {
      "time": 116.048,
      "duration": 0.52,
      "midi": 46,
      "noteNumber": 46,
      "velocity": 0.71,
      "track": "(unnamed)",
      "channel": 2,
      "lane": "F"
    },
    {
      "time": 116.048,
      "duration": 0.007,
      "midi": 40,
      "noteNumber": 40,
      "velocity": 0.53,
      "track": "(unnamed)",
      "channel": 9,
      "lane": "D"
    },
    {
      "time": 116.048,
      "duration": 0.007,
      "midi": 51,
      "noteNumber": 51,
      "velocity": 0.69,
      "track": "(unnamed)",
      "channel": 9,
      "lane": "F"
    },
    {
      "time": 116.048,
      "duration": 0.273,
      "midi": 46,
      "noteNumber": 46,
      "velocity": 0.51,
      "track": "(unnamed)",
      "channel": 1,
      "lane": "F"
    },
    {
      "time": 116.287,
      "duration": 0.007,
      "midi": 51,
      "noteNumber": 51,
      "velocity": 0.54,
      "track": "(unnamed)",
      "channel": 9,
      "lane": "F"
    },
    {
      "time": 116.407,
      "duration": 0.12,
      "midi": 53,
      "noteNumber": 53,
      "velocity": 0.57,
      "track": "(unnamed)",
      "channel": 2,
      "lane": "F"
    },
    {
      "time": 116.407,
      "duration": 0.12,
      "midi": 56,
      "noteNumber": 56,
      "velocity": 0.74,
      "track": "(unnamed)",
      "channel": 2,
      "lane": "J"
    },
    {
      "time": 116.407,
      "duration": 0.124,
      "midi": 61,
      "noteNumber": 61,
      "velocity": 0.71,
      "track": "(unnamed)",
      "channel": 2,
      "lane": "J"
    },
    {
      "time": 116.407,
      "duration": 0.007,
      "midi": 51,
      "noteNumber": 51,
      "velocity": 0.83,
      "track": "(unnamed)",
      "channel": 9,
      "lane": "F"
    },
    {
      "time": 116.407,
      "duration": 0.213,
      "midi": 34,
      "noteNumber": 34,
      "velocity": 0.51,
      "track": "(unnamed)",
      "channel": 1,
      "lane": "D"
    },
    {
      "time": 116.527,
      "duration": 0.007,
      "midi": 40,
      "noteNumber": 40,
      "velocity": 0.26,
      "track": "(unnamed)",
      "channel": 9,
      "lane": "D"
    },
    {
      "time": 116.647,
      "duration": 0.007,
      "midi": 40,
      "noteNumber": 40,
      "velocity": 0.5,
      "track": "(unnamed)",
      "channel": 9,
      "lane": "D"
    },
    {
      "time": 116.766,
      "duration": 0.161,
      "midi": 39,
      "noteNumber": 39,
      "velocity": 0.6,
      "track": "(unnamed)",
      "channel": 2,
      "lane": "D"
    },
    {
      "time": 116.766,
      "duration": 0.007,
      "midi": 35,
      "noteNumber": 35,
      "velocity": 0.74,
      "track": "(unnamed)",
      "channel": 9,
      "lane": "D"
    },
    {
      "time": 116.766,
      "duration": 0.007,
      "midi": 51,
      "noteNumber": 51,
      "velocity": 0.72,
      "track": "(unnamed)",
      "channel": 9,
      "lane": "F"
    },
    {
      "time": 116.766,
      "duration": 0.876,
      "midi": 39,
      "noteNumber": 39,
      "velocity": 0.66,
      "track": "(unnamed)",
      "channel": 1,
      "lane": "D"
    },
    {
      "time": 116.995,
      "duration": 0.056,
      "midi": 54,
      "noteNumber": 54,
      "velocity": 0.71,
      "track": "(unnamed)",
      "channel": 2,
      "lane": "J"
    },
    {
      "time": 116.995,
      "duration": 0.03,
      "midi": 58,
      "noteNumber": 58,
      "velocity": 0.54,
      "track": "(unnamed)",
      "channel": 2,
      "lane": "J"
    },
    {
      "time": 116.995,
      "duration": 0.06,
      "midi": 63,
      "noteNumber": 63,
      "velocity": 0.68,
      "track": "(unnamed)",
      "channel": 2,
      "lane": "J"
    },
    {
      "time": 117.126,
      "duration": 0.007,
      "midi": 51,
      "noteNumber": 51,
      "velocity": 0.72,
      "track": "(unnamed)",
      "channel": 9,
      "lane": "F"
    },
    {
      "time": 117.354,
      "duration": 0.112,
      "midi": 39,
      "noteNumber": 39,
      "velocity": 0.74,
      "track": "(unnamed)",
      "channel": 2,
      "lane": "D"
    },
    {
      "time": 117.365,
      "duration": 0.007,
      "midi": 40,
      "noteNumber": 40,
      "velocity": 0.53,
      "track": "(unnamed)",
      "channel": 9,
      "lane": "D"
    },
    {
      "time": 117.485,
      "duration": 0.086,
      "midi": 54,
      "noteNumber": 54,
      "velocity": 0.71,
      "track": "(unnamed)",
      "channel": 2,
      "lane": "J"
    },
    {
      "time": 117.485,
      "duration": 0.041,
      "midi": 58,
      "noteNumber": 58,
      "velocity": 0.68,
      "track": "(unnamed)",
      "channel": 2,
      "lane": "J"
    },
    {
      "time": 117.485,
      "duration": 0.049,
      "midi": 63,
      "noteNumber": 63,
      "velocity": 0.54,
      "track": "(unnamed)",
      "channel": 2,
      "lane": "J"
    },
    {
      "time": 117.485,
      "duration": 0.007,
      "midi": 51,
      "noteNumber": 51,
      "velocity": 0.72,
      "track": "(unnamed)",
      "channel": 9,
      "lane": "F"
    },
    {
      "time": 117.724,
      "duration": 0.007,
      "midi": 51,
      "noteNumber": 51,
      "velocity": 0.61,
      "track": "(unnamed)",
      "channel": 9,
      "lane": "F"
    },
    {
      "time": 117.844,
      "duration": 0.52,
      "midi": 46,
      "noteNumber": 46,
      "velocity": 0.71,
      "track": "(unnamed)",
      "channel": 2,
      "lane": "F"
    },
    {
      "time": 117.844,
      "duration": 0.007,
      "midi": 40,
      "noteNumber": 40,
      "velocity": 0.53,
      "track": "(unnamed)",
      "channel": 9,
      "lane": "D"
    },
    {
      "time": 117.844,
      "duration": 0.007,
      "midi": 51,
      "noteNumber": 51,
      "velocity": 0.69,
      "track": "(unnamed)",
      "channel": 9,
      "lane": "F"
    },
    {
      "time": 117.844,
      "duration": 0.273,
      "midi": 46,
      "noteNumber": 46,
      "velocity": 0.51,
      "track": "(unnamed)",
      "channel": 1,
      "lane": "F"
    },
    {
      "time": 118.084,
      "duration": 0.007,
      "midi": 51,
      "noteNumber": 51,
      "velocity": 0.54,
      "track": "(unnamed)",
      "channel": 9,
      "lane": "F"
    },
    {
      "time": 118.203,
      "duration": 0.12,
      "midi": 53,
      "noteNumber": 53,
      "velocity": 0.57,
      "track": "(unnamed)",
      "channel": 2,
      "lane": "F"
    },
    {
      "time": 118.203,
      "duration": 0.12,
      "midi": 56,
      "noteNumber": 56,
      "velocity": 0.74,
      "track": "(unnamed)",
      "channel": 2,
      "lane": "J"
    },
    {
      "time": 118.203,
      "duration": 0.124,
      "midi": 61,
      "noteNumber": 61,
      "velocity": 0.71,
      "track": "(unnamed)",
      "channel": 2,
      "lane": "J"
    },
    {
      "time": 118.203,
      "duration": 0.007,
      "midi": 51,
      "noteNumber": 51,
      "velocity": 0.83,
      "track": "(unnamed)",
      "channel": 9,
      "lane": "F"
    },
    {
      "time": 118.203,
      "duration": 0.213,
      "midi": 34,
      "noteNumber": 34,
      "velocity": 0.51,
      "track": "(unnamed)",
      "channel": 1,
      "lane": "D"
    },
    {
      "time": 118.323,
      "duration": 0.007,
      "midi": 40,
      "noteNumber": 40,
      "velocity": 0.26,
      "track": "(unnamed)",
      "channel": 9,
      "lane": "D"
    },
    {
      "time": 118.443,
      "duration": 0.007,
      "midi": 40,
      "noteNumber": 40,
      "velocity": 0.5,
      "track": "(unnamed)",
      "channel": 9,
      "lane": "D"
    },
    {
      "time": 118.563,
      "duration": 0.161,
      "midi": 39,
      "noteNumber": 39,
      "velocity": 0.6,
      "track": "(unnamed)",
      "channel": 2,
      "lane": "D"
    },
    {
      "time": 118.563,
      "duration": 0.007,
      "midi": 35,
      "noteNumber": 35,
      "velocity": 0.74,
      "track": "(unnamed)",
      "channel": 9,
      "lane": "D"
    },
    {
      "time": 118.563,
      "duration": 0.007,
      "midi": 51,
      "noteNumber": 51,
      "velocity": 0.72,
      "track": "(unnamed)",
      "channel": 9,
      "lane": "F"
    },
    {
      "time": 118.563,
      "duration": 0.876,
      "midi": 39,
      "noteNumber": 39,
      "velocity": 0.66,
      "track": "(unnamed)",
      "channel": 1,
      "lane": "D"
    },
    {
      "time": 118.791,
      "duration": 0.056,
      "midi": 54,
      "noteNumber": 54,
      "velocity": 0.71,
      "track": "(unnamed)",
      "channel": 2,
      "lane": "J"
    },
    {
      "time": 118.791,
      "duration": 0.03,
      "midi": 58,
      "noteNumber": 58,
      "velocity": 0.54,
      "track": "(unnamed)",
      "channel": 2,
      "lane": "J"
    },
    {
      "time": 118.791,
      "duration": 0.06,
      "midi": 63,
      "noteNumber": 63,
      "velocity": 0.68,
      "track": "(unnamed)",
      "channel": 2,
      "lane": "J"
    },
    {
      "time": 118.922,
      "duration": 0.007,
      "midi": 51,
      "noteNumber": 51,
      "velocity": 0.72,
      "track": "(unnamed)",
      "channel": 9,
      "lane": "F"
    },
    {
      "time": 119.15,
      "duration": 0.112,
      "midi": 39,
      "noteNumber": 39,
      "velocity": 0.74,
      "track": "(unnamed)",
      "channel": 2,
      "lane": "D"
    },
    {
      "time": 119.162,
      "duration": 0.007,
      "midi": 40,
      "noteNumber": 40,
      "velocity": 0.53,
      "track": "(unnamed)",
      "channel": 9,
      "lane": "D"
    },
    {
      "time": 119.281,
      "duration": 0.086,
      "midi": 54,
      "noteNumber": 54,
      "velocity": 0.71,
      "track": "(unnamed)",
      "channel": 2,
      "lane": "J"
    },
    {
      "time": 119.281,
      "duration": 0.041,
      "midi": 58,
      "noteNumber": 58,
      "velocity": 0.68,
      "track": "(unnamed)",
      "channel": 2,
      "lane": "J"
    },
    {
      "time": 119.281,
      "duration": 0.049,
      "midi": 63,
      "noteNumber": 63,
      "velocity": 0.54,
      "track": "(unnamed)",
      "channel": 2,
      "lane": "J"
    },
    {
      "time": 119.281,
      "duration": 0.007,
      "midi": 51,
      "noteNumber": 51,
      "velocity": 0.72,
      "track": "(unnamed)",
      "channel": 9,
      "lane": "F"
    },
    {
      "time": 119.521,
      "duration": 0.007,
      "midi": 51,
      "noteNumber": 51,
      "velocity": 0.61,
      "track": "(unnamed)",
      "channel": 9,
      "lane": "F"
    },
    {
      "time": 119.641,
      "duration": 0.52,
      "midi": 46,
      "noteNumber": 46,
      "velocity": 0.71,
      "track": "(unnamed)",
      "channel": 2,
      "lane": "F"
    },
    {
      "time": 119.641,
      "duration": 0.007,
      "midi": 40,
      "noteNumber": 40,
      "velocity": 0.53,
      "track": "(unnamed)",
      "channel": 9,
      "lane": "D"
    },
    {
      "time": 119.641,
      "duration": 0.007,
      "midi": 51,
      "noteNumber": 51,
      "velocity": 0.69,
      "track": "(unnamed)",
      "channel": 9,
      "lane": "F"
    },
    {
      "time": 119.641,
      "duration": 0.273,
      "midi": 46,
      "noteNumber": 46,
      "velocity": 0.51,
      "track": "(unnamed)",
      "channel": 1,
      "lane": "F"
    },
    {
      "time": 119.88,
      "duration": 0.007,
      "midi": 51,
      "noteNumber": 51,
      "velocity": 0.54,
      "track": "(unnamed)",
      "channel": 9,
      "lane": "F"
    },
    {
      "time": 120,
      "duration": 0.12,
      "midi": 53,
      "noteNumber": 53,
      "velocity": 0.57,
      "track": "(unnamed)",
      "channel": 2,
      "lane": "F"
    },
    {
      "time": 120,
      "duration": 0.12,
      "midi": 56,
      "noteNumber": 56,
      "velocity": 0.74,
      "track": "(unnamed)",
      "channel": 2,
      "lane": "J"
    },
    {
      "time": 120,
      "duration": 0.124,
      "midi": 61,
      "noteNumber": 61,
      "velocity": 0.71,
      "track": "(unnamed)",
      "channel": 2,
      "lane": "J"
    },
    {
      "time": 120,
      "duration": 0.007,
      "midi": 51,
      "noteNumber": 51,
      "velocity": 0.83,
      "track": "(unnamed)",
      "channel": 9,
      "lane": "F"
    },
    {
      "time": 120,
      "duration": 0.213,
      "midi": 34,
      "noteNumber": 34,
      "velocity": 0.51,
      "track": "(unnamed)",
      "channel": 1,
      "lane": "D"
    },
    {
      "time": 120.12,
      "duration": 0.007,
      "midi": 40,
      "noteNumber": 40,
      "velocity": 0.26,
      "track": "(unnamed)",
      "channel": 9,
      "lane": "D"
    },
    {
      "time": 120.239,
      "duration": 0.007,
      "midi": 40,
      "noteNumber": 40,
      "velocity": 0.5,
      "track": "(unnamed)",
      "channel": 9,
      "lane": "D"
    },
    {
      "time": 120.359,
      "duration": 0.161,
      "midi": 39,
      "noteNumber": 39,
      "velocity": 0.6,
      "track": "(unnamed)",
      "channel": 2,
      "lane": "D"
    },
    {
      "time": 120.359,
      "duration": 0.007,
      "midi": 35,
      "noteNumber": 35,
      "velocity": 0.74,
      "track": "(unnamed)",
      "channel": 9,
      "lane": "D"
    },
    {
      "time": 120.359,
      "duration": 0.007,
      "midi": 51,
      "noteNumber": 51,
      "velocity": 0.72,
      "track": "(unnamed)",
      "channel": 9,
      "lane": "F"
    },
    {
      "time": 120.359,
      "duration": 0.876,
      "midi": 39,
      "noteNumber": 39,
      "velocity": 0.66,
      "track": "(unnamed)",
      "channel": 1,
      "lane": "D"
    },
    {
      "time": 120.584,
      "duration": 0.007,
      "midi": 40,
      "noteNumber": 40,
      "velocity": 0.51,
      "track": "(unnamed)",
      "channel": 9,
      "lane": "D"
    },
    {
      "time": 120.587,
      "duration": 0.056,
      "midi": 54,
      "noteNumber": 54,
      "velocity": 0.71,
      "track": "(unnamed)",
      "channel": 2,
      "lane": "J"
    },
    {
      "time": 120.587,
      "duration": 0.03,
      "midi": 58,
      "noteNumber": 58,
      "velocity": 0.54,
      "track": "(unnamed)",
      "channel": 2,
      "lane": "J"
    },
    {
      "time": 120.587,
      "duration": 0.06,
      "midi": 63,
      "noteNumber": 63,
      "velocity": 0.68,
      "track": "(unnamed)",
      "channel": 2,
      "lane": "J"
    },
    {
      "time": 120.718,
      "duration": 0.007,
      "midi": 40,
      "noteNumber": 40,
      "velocity": 0.51,
      "track": "(unnamed)",
      "channel": 9,
      "lane": "D"
    },
    {
      "time": 120.718,
      "duration": 0.007,
      "midi": 51,
      "noteNumber": 51,
      "velocity": 0.72,
      "track": "(unnamed)",
      "channel": 9,
      "lane": "F"
    },
    {
      "time": 120.947,
      "duration": 0.112,
      "midi": 39,
      "noteNumber": 39,
      "velocity": 0.74,
      "track": "(unnamed)",
      "channel": 2,
      "lane": "D"
    },
    {
      "time": 121.078,
      "duration": 0.086,
      "midi": 54,
      "noteNumber": 54,
      "velocity": 0.71,
      "track": "(unnamed)",
      "channel": 2,
      "lane": "J"
    },
    {
      "time": 121.078,
      "duration": 0.041,
      "midi": 58,
      "noteNumber": 58,
      "velocity": 0.68,
      "track": "(unnamed)",
      "channel": 2,
      "lane": "J"
    },
    {
      "time": 121.078,
      "duration": 0.049,
      "midi": 63,
      "noteNumber": 63,
      "velocity": 0.54,
      "track": "(unnamed)",
      "channel": 2,
      "lane": "J"
    },
    {
      "time": 121.078,
      "duration": 0.007,
      "midi": 51,
      "noteNumber": 51,
      "velocity": 0.72,
      "track": "(unnamed)",
      "channel": 9,
      "lane": "F"
    },
    {
      "time": 121.302,
      "duration": 0.007,
      "midi": 40,
      "noteNumber": 40,
      "velocity": 0.59,
      "track": "(unnamed)",
      "channel": 9,
      "lane": "D"
    },
    {
      "time": 121.302,
      "duration": 0.007,
      "midi": 51,
      "noteNumber": 51,
      "velocity": 0.61,
      "track": "(unnamed)",
      "channel": 9,
      "lane": "F"
    },
    {
      "time": 121.437,
      "duration": 0.52,
      "midi": 46,
      "noteNumber": 46,
      "velocity": 0.71,
      "track": "(unnamed)",
      "channel": 2,
      "lane": "F"
    },
    {
      "time": 121.437,
      "duration": 0.007,
      "midi": 51,
      "noteNumber": 51,
      "velocity": 0.69,
      "track": "(unnamed)",
      "channel": 9,
      "lane": "F"
    },
    {
      "time": 121.437,
      "duration": 0.273,
      "midi": 46,
      "noteNumber": 46,
      "velocity": 0.51,
      "track": "(unnamed)",
      "channel": 1,
      "lane": "F"
    },
    {
      "time": 121.662,
      "duration": 0.007,
      "midi": 40,
      "noteNumber": 40,
      "velocity": 0.4,
      "track": "(unnamed)",
      "channel": 9,
      "lane": "D"
    },
    {
      "time": 121.662,
      "duration": 0.007,
      "midi": 51,
      "noteNumber": 51,
      "velocity": 0.54,
      "track": "(unnamed)",
      "channel": 9,
      "lane": "F"
    },
    {
      "time": 121.796,
      "duration": 0.12,
      "midi": 53,
      "noteNumber": 53,
      "velocity": 0.57,
      "track": "(unnamed)",
      "channel": 2,
      "lane": "F"
    },
    {
      "time": 121.796,
      "duration": 0.12,
      "midi": 56,
      "noteNumber": 56,
      "velocity": 0.74,
      "track": "(unnamed)",
      "channel": 2,
      "lane": "J"
    },
    {
      "time": 121.796,
      "duration": 0.124,
      "midi": 61,
      "noteNumber": 61,
      "velocity": 0.71,
      "track": "(unnamed)",
      "channel": 2,
      "lane": "J"
    },
    {
      "time": 121.796,
      "duration": 0.007,
      "midi": 40,
      "noteNumber": 40,
      "velocity": 0.62,
      "track": "(unnamed)",
      "channel": 9,
      "lane": "D"
    },
    {
      "time": 121.796,
      "duration": 0.007,
      "midi": 51,
      "noteNumber": 51,
      "velocity": 0.83,
      "track": "(unnamed)",
      "channel": 9,
      "lane": "F"
    },
    {
      "time": 121.796,
      "duration": 0.213,
      "midi": 34,
      "noteNumber": 34,
      "velocity": 0.51,
      "track": "(unnamed)",
      "channel": 1,
      "lane": "D"
    },
    {
      "time": 122.156,
      "duration": 0.161,
      "midi": 39,
      "noteNumber": 39,
      "velocity": 0.6,
      "track": "(unnamed)",
      "channel": 2,
      "lane": "D"
    },
    {
      "time": 122.156,
      "duration": 0.007,
      "midi": 35,
      "noteNumber": 35,
      "velocity": 0.74,
      "track": "(unnamed)",
      "channel": 9,
      "lane": "D"
    },
    {
      "time": 122.156,
      "duration": 0.007,
      "midi": 51,
      "noteNumber": 51,
      "velocity": 0.72,
      "track": "(unnamed)",
      "channel": 9,
      "lane": "F"
    },
    {
      "time": 122.156,
      "duration": 0.876,
      "midi": 39,
      "noteNumber": 39,
      "velocity": 0.66,
      "track": "(unnamed)",
      "channel": 1,
      "lane": "D"
    },
    {
      "time": 122.38,
      "duration": 0.007,
      "midi": 40,
      "noteNumber": 40,
      "velocity": 0.51,
      "track": "(unnamed)",
      "channel": 9,
      "lane": "D"
    },
    {
      "time": 122.384,
      "duration": 0.056,
      "midi": 54,
      "noteNumber": 54,
      "velocity": 0.71,
      "track": "(unnamed)",
      "channel": 2,
      "lane": "J"
    },
    {
      "time": 122.384,
      "duration": 0.03,
      "midi": 58,
      "noteNumber": 58,
      "velocity": 0.54,
      "track": "(unnamed)",
      "channel": 2,
      "lane": "J"
    },
    {
      "time": 122.384,
      "duration": 0.06,
      "midi": 63,
      "noteNumber": 63,
      "velocity": 0.68,
      "track": "(unnamed)",
      "channel": 2,
      "lane": "J"
    },
    {
      "time": 122.515,
      "duration": 0.007,
      "midi": 40,
      "noteNumber": 40,
      "velocity": 0.51,
      "track": "(unnamed)",
      "channel": 9,
      "lane": "D"
    },
    {
      "time": 122.515,
      "duration": 0.007,
      "midi": 51,
      "noteNumber": 51,
      "velocity": 0.72,
      "track": "(unnamed)",
      "channel": 9,
      "lane": "F"
    },
    {
      "time": 122.743,
      "duration": 0.112,
      "midi": 39,
      "noteNumber": 39,
      "velocity": 0.74,
      "track": "(unnamed)",
      "channel": 2,
      "lane": "D"
    },
    {
      "time": 122.874,
      "duration": 0.086,
      "midi": 54,
      "noteNumber": 54,
      "velocity": 0.71,
      "track": "(unnamed)",
      "channel": 2,
      "lane": "J"
    },
    {
      "time": 122.874,
      "duration": 0.041,
      "midi": 58,
      "noteNumber": 58,
      "velocity": 0.68,
      "track": "(unnamed)",
      "channel": 2,
      "lane": "J"
    },
    {
      "time": 122.874,
      "duration": 0.049,
      "midi": 63,
      "noteNumber": 63,
      "velocity": 0.54,
      "track": "(unnamed)",
      "channel": 2,
      "lane": "J"
    },
    {
      "time": 122.874,
      "duration": 0.007,
      "midi": 51,
      "noteNumber": 51,
      "velocity": 0.72,
      "track": "(unnamed)",
      "channel": 9,
      "lane": "F"
    },
    {
      "time": 123.099,
      "duration": 0.007,
      "midi": 40,
      "noteNumber": 40,
      "velocity": 0.59,
      "track": "(unnamed)",
      "channel": 9,
      "lane": "D"
    },
    {
      "time": 123.099,
      "duration": 0.007,
      "midi": 51,
      "noteNumber": 51,
      "velocity": 0.61,
      "track": "(unnamed)",
      "channel": 9,
      "lane": "F"
    },
    {
      "time": 123.233,
      "duration": 0.52,
      "midi": 46,
      "noteNumber": 46,
      "velocity": 0.71,
      "track": "(unnamed)",
      "channel": 2,
      "lane": "F"
    },
    {
      "time": 123.233,
      "duration": 0.007,
      "midi": 51,
      "noteNumber": 51,
      "velocity": 0.69,
      "track": "(unnamed)",
      "channel": 9,
      "lane": "F"
    },
    {
      "time": 123.233,
      "duration": 0.273,
      "midi": 46,
      "noteNumber": 46,
      "velocity": 0.51,
      "track": "(unnamed)",
      "channel": 1,
      "lane": "F"
    },
    {
      "time": 123.458,
      "duration": 0.007,
      "midi": 51,
      "noteNumber": 51,
      "velocity": 0.54,
      "track": "(unnamed)",
      "channel": 9,
      "lane": "F"
    },
    {
      "time": 123.593,
      "duration": 0.12,
      "midi": 53,
      "noteNumber": 53,
      "velocity": 0.57,
      "track": "(unnamed)",
      "channel": 2,
      "lane": "F"
    },
    {
      "time": 123.593,
      "duration": 0.12,
      "midi": 56,
      "noteNumber": 56,
      "velocity": 0.74,
      "track": "(unnamed)",
      "channel": 2,
      "lane": "J"
    },
    {
      "time": 123.593,
      "duration": 0.124,
      "midi": 61,
      "noteNumber": 61,
      "velocity": 0.71,
      "track": "(unnamed)",
      "channel": 2,
      "lane": "J"
    },
    {
      "time": 123.593,
      "duration": 0.007,
      "midi": 51,
      "noteNumber": 51,
      "velocity": 0.83,
      "track": "(unnamed)",
      "channel": 9,
      "lane": "F"
    },
    {
      "time": 123.593,
      "duration": 0.213,
      "midi": 34,
      "noteNumber": 34,
      "velocity": 0.51,
      "track": "(unnamed)",
      "channel": 1,
      "lane": "D"
    },
    {
      "time": 123.952,
      "duration": 0.161,
      "midi": 39,
      "noteNumber": 39,
      "velocity": 0.6,
      "track": "(unnamed)",
      "channel": 2,
      "lane": "D"
    },
    {
      "time": 123.952,
      "duration": 0.007,
      "midi": 35,
      "noteNumber": 35,
      "velocity": 0.74,
      "track": "(unnamed)",
      "channel": 9,
      "lane": "D"
    },
    {
      "time": 123.952,
      "duration": 0.007,
      "midi": 51,
      "noteNumber": 51,
      "velocity": 0.72,
      "track": "(unnamed)",
      "channel": 9,
      "lane": "F"
    },
    {
      "time": 123.952,
      "duration": 0.876,
      "midi": 39,
      "noteNumber": 39,
      "velocity": 0.66,
      "track": "(unnamed)",
      "channel": 1,
      "lane": "D"
    },
    {
      "time": 124.176,
      "duration": 0.007,
      "midi": 40,
      "noteNumber": 40,
      "velocity": 0.48,
      "track": "(unnamed)",
      "channel": 9,
      "lane": "D"
    },
    {
      "time": 124.18,
      "duration": 0.056,
      "midi": 54,
      "noteNumber": 54,
      "velocity": 0.71,
      "track": "(unnamed)",
      "channel": 2,
      "lane": "J"
    },
    {
      "time": 124.18,
      "duration": 0.03,
      "midi": 58,
      "noteNumber": 58,
      "velocity": 0.54,
      "track": "(unnamed)",
      "channel": 2,
      "lane": "J"
    },
    {
      "time": 124.18,
      "duration": 0.06,
      "midi": 63,
      "noteNumber": 63,
      "velocity": 0.68,
      "track": "(unnamed)",
      "channel": 2,
      "lane": "J"
    },
    {
      "time": 124.311,
      "duration": 0.007,
      "midi": 40,
      "noteNumber": 40,
      "velocity": 0.62,
      "track": "(unnamed)",
      "channel": 9,
      "lane": "D"
    },
    {
      "time": 124.311,
      "duration": 0.007,
      "midi": 51,
      "noteNumber": 51,
      "velocity": 0.72,
      "track": "(unnamed)",
      "channel": 9,
      "lane": "F"
    },
    {
      "time": 124.54,
      "duration": 0.112,
      "midi": 39,
      "noteNumber": 39,
      "velocity": 0.74,
      "track": "(unnamed)",
      "channel": 2,
      "lane": "D"
    },
    {
      "time": 124.671,
      "duration": 0.086,
      "midi": 54,
      "noteNumber": 54,
      "velocity": 0.71,
      "track": "(unnamed)",
      "channel": 2,
      "lane": "J"
    },
    {
      "time": 124.671,
      "duration": 0.041,
      "midi": 58,
      "noteNumber": 58,
      "velocity": 0.68,
      "track": "(unnamed)",
      "channel": 2,
      "lane": "J"
    },
    {
      "time": 124.671,
      "duration": 0.049,
      "midi": 63,
      "noteNumber": 63,
      "velocity": 0.54,
      "track": "(unnamed)",
      "channel": 2,
      "lane": "J"
    },
    {
      "time": 124.671,
      "duration": 0.007,
      "midi": 51,
      "noteNumber": 51,
      "velocity": 0.72,
      "track": "(unnamed)",
      "channel": 9,
      "lane": "F"
    },
    {
      "time": 124.895,
      "duration": 0.007,
      "midi": 51,
      "noteNumber": 51,
      "velocity": 0.61,
      "track": "(unnamed)",
      "channel": 9,
      "lane": "F"
    },
    {
      "time": 125.03,
      "duration": 0.52,
      "midi": 46,
      "noteNumber": 46,
      "velocity": 0.71,
      "track": "(unnamed)",
      "channel": 2,
      "lane": "F"
    },
    {
      "time": 125.03,
      "duration": 0.007,
      "midi": 40,
      "noteNumber": 40,
      "velocity": 0.5,
      "track": "(unnamed)",
      "channel": 9,
      "lane": "D"
    },
    {
      "time": 125.03,
      "duration": 0.007,
      "midi": 51,
      "noteNumber": 51,
      "velocity": 0.69,
      "track": "(unnamed)",
      "channel": 9,
      "lane": "F"
    },
    {
      "time": 125.03,
      "duration": 0.273,
      "midi": 46,
      "noteNumber": 46,
      "velocity": 0.51,
      "track": "(unnamed)",
      "channel": 1,
      "lane": "F"
    },
    {
      "time": 125.254,
      "duration": 0.007,
      "midi": 51,
      "noteNumber": 51,
      "velocity": 0.54,
      "track": "(unnamed)",
      "channel": 9,
      "lane": "F"
    },
    {
      "time": 125.389,
      "duration": 0.12,
      "midi": 53,
      "noteNumber": 53,
      "velocity": 0.57,
      "track": "(unnamed)",
      "channel": 2,
      "lane": "F"
    },
    {
      "time": 125.389,
      "duration": 0.12,
      "midi": 56,
      "noteNumber": 56,
      "velocity": 0.74,
      "track": "(unnamed)",
      "channel": 2,
      "lane": "J"
    },
    {
      "time": 125.389,
      "duration": 0.124,
      "midi": 61,
      "noteNumber": 61,
      "velocity": 0.71,
      "track": "(unnamed)",
      "channel": 2,
      "lane": "J"
    },
    {
      "time": 125.389,
      "duration": 0.007,
      "midi": 51,
      "noteNumber": 51,
      "velocity": 0.83,
      "track": "(unnamed)",
      "channel": 9,
      "lane": "F"
    },
    {
      "time": 125.389,
      "duration": 0.213,
      "midi": 34,
      "noteNumber": 34,
      "velocity": 0.51,
      "track": "(unnamed)",
      "channel": 1,
      "lane": "D"
    },
    {
      "time": 125.509,
      "duration": 0.007,
      "midi": 40,
      "noteNumber": 40,
      "velocity": 0.2,
      "track": "(unnamed)",
      "channel": 9,
      "lane": "D"
    },
    {
      "time": 125.614,
      "duration": 0.007,
      "midi": 40,
      "noteNumber": 40,
      "velocity": 0.69,
      "track": "(unnamed)",
      "channel": 9,
      "lane": "D"
    },
    {
      "time": 125.748,
      "duration": 0.161,
      "midi": 39,
      "noteNumber": 39,
      "velocity": 0.6,
      "track": "(unnamed)",
      "channel": 2,
      "lane": "D"
    },
    {
      "time": 125.748,
      "duration": 0.007,
      "midi": 35,
      "noteNumber": 35,
      "velocity": 0.74,
      "track": "(unnamed)",
      "channel": 9,
      "lane": "D"
    },
    {
      "time": 125.748,
      "duration": 0.007,
      "midi": 51,
      "noteNumber": 51,
      "velocity": 0.72,
      "track": "(unnamed)",
      "channel": 9,
      "lane": "F"
    },
    {
      "time": 125.748,
      "duration": 0.876,
      "midi": 39,
      "noteNumber": 39,
      "velocity": 0.66,
      "track": "(unnamed)",
      "channel": 1,
      "lane": "D"
    },
    {
      "time": 125.973,
      "duration": 0.007,
      "midi": 40,
      "noteNumber": 40,
      "velocity": 0.51,
      "track": "(unnamed)",
      "channel": 9,
      "lane": "D"
    },
    {
      "time": 125.977,
      "duration": 0.056,
      "midi": 54,
      "noteNumber": 54,
      "velocity": 0.71,
      "track": "(unnamed)",
      "channel": 2,
      "lane": "J"
    },
    {
      "time": 125.977,
      "duration": 0.03,
      "midi": 58,
      "noteNumber": 58,
      "velocity": 0.54,
      "track": "(unnamed)",
      "channel": 2,
      "lane": "J"
    },
    {
      "time": 125.977,
      "duration": 0.06,
      "midi": 63,
      "noteNumber": 63,
      "velocity": 0.68,
      "track": "(unnamed)",
      "channel": 2,
      "lane": "J"
    },
    {
      "time": 126.108,
      "duration": 0.007,
      "midi": 40,
      "noteNumber": 40,
      "velocity": 0.51,
      "track": "(unnamed)",
      "channel": 9,
      "lane": "D"
    },
    {
      "time": 126.108,
      "duration": 0.007,
      "midi": 51,
      "noteNumber": 51,
      "velocity": 0.72,
      "track": "(unnamed)",
      "channel": 9,
      "lane": "F"
    },
    {
      "time": 126.336,
      "duration": 0.112,
      "midi": 39,
      "noteNumber": 39,
      "velocity": 0.74,
      "track": "(unnamed)",
      "channel": 2,
      "lane": "D"
    },
    {
      "time": 126.467,
      "duration": 0.086,
      "midi": 54,
      "noteNumber": 54,
      "velocity": 0.71,
      "track": "(unnamed)",
      "channel": 2,
      "lane": "J"
    },
    {
      "time": 126.467,
      "duration": 0.041,
      "midi": 58,
      "noteNumber": 58,
      "velocity": 0.68,
      "track": "(unnamed)",
      "channel": 2,
      "lane": "J"
    },
    {
      "time": 126.467,
      "duration": 0.049,
      "midi": 63,
      "noteNumber": 63,
      "velocity": 0.54,
      "track": "(unnamed)",
      "channel": 2,
      "lane": "J"
    },
    {
      "time": 126.467,
      "duration": 0.007,
      "midi": 51,
      "noteNumber": 51,
      "velocity": 0.72,
      "track": "(unnamed)",
      "channel": 9,
      "lane": "F"
    },
    {
      "time": 126.691,
      "duration": 0.007,
      "midi": 40,
      "noteNumber": 40,
      "velocity": 0.59,
      "track": "(unnamed)",
      "channel": 9,
      "lane": "D"
    },
    {
      "time": 126.691,
      "duration": 0.007,
      "midi": 51,
      "noteNumber": 51,
      "velocity": 0.61,
      "track": "(unnamed)",
      "channel": 9,
      "lane": "F"
    },
    {
      "time": 126.826,
      "duration": 0.52,
      "midi": 46,
      "noteNumber": 46,
      "velocity": 0.71,
      "track": "(unnamed)",
      "channel": 2,
      "lane": "F"
    },
    {
      "time": 126.826,
      "duration": 0.007,
      "midi": 51,
      "noteNumber": 51,
      "velocity": 0.69,
      "track": "(unnamed)",
      "channel": 9,
      "lane": "F"
    },
    {
      "time": 126.826,
      "duration": 0.273,
      "midi": 46,
      "noteNumber": 46,
      "velocity": 0.51,
      "track": "(unnamed)",
      "channel": 1,
      "lane": "F"
    },
    {
      "time": 127.051,
      "duration": 0.007,
      "midi": 51,
      "noteNumber": 51,
      "velocity": 0.54,
      "track": "(unnamed)",
      "channel": 9,
      "lane": "F"
    },
    {
      "time": 127.185,
      "duration": 0.12,
      "midi": 53,
      "noteNumber": 53,
      "velocity": 0.57,
      "track": "(unnamed)",
      "channel": 2,
      "lane": "F"
    },
    {
      "time": 127.185,
      "duration": 0.12,
      "midi": 56,
      "noteNumber": 56,
      "velocity": 0.74,
      "track": "(unnamed)",
      "channel": 2,
      "lane": "J"
    },
    {
      "time": 127.185,
      "duration": 0.124,
      "midi": 61,
      "noteNumber": 61,
      "velocity": 0.71,
      "track": "(unnamed)",
      "channel": 2,
      "lane": "J"
    },
    {
      "time": 127.185,
      "duration": 0.007,
      "midi": 51,
      "noteNumber": 51,
      "velocity": 0.83,
      "track": "(unnamed)",
      "channel": 9,
      "lane": "F"
    },
    {
      "time": 127.185,
      "duration": 0.213,
      "midi": 34,
      "noteNumber": 34,
      "velocity": 0.51,
      "track": "(unnamed)",
      "channel": 1,
      "lane": "D"
    },
    {
      "time": 127.545,
      "duration": 0.161,
      "midi": 39,
      "noteNumber": 39,
      "velocity": 0.6,
      "track": "(unnamed)",
      "channel": 2,
      "lane": "D"
    },
    {
      "time": 127.545,
      "duration": 0.007,
      "midi": 35,
      "noteNumber": 35,
      "velocity": 0.74,
      "track": "(unnamed)",
      "channel": 9,
      "lane": "D"
    },
    {
      "time": 127.545,
      "duration": 0.007,
      "midi": 51,
      "noteNumber": 51,
      "velocity": 0.72,
      "track": "(unnamed)",
      "channel": 9,
      "lane": "F"
    },
    {
      "time": 127.545,
      "duration": 0.876,
      "midi": 39,
      "noteNumber": 39,
      "velocity": 0.66,
      "track": "(unnamed)",
      "channel": 1,
      "lane": "D"
    },
    {
      "time": 127.769,
      "duration": 0.007,
      "midi": 40,
      "noteNumber": 40,
      "velocity": 0.48,
      "track": "(unnamed)",
      "channel": 9,
      "lane": "D"
    },
    {
      "time": 127.773,
      "duration": 0.056,
      "midi": 54,
      "noteNumber": 54,
      "velocity": 0.71,
      "track": "(unnamed)",
      "channel": 2,
      "lane": "J"
    },
    {
      "time": 127.773,
      "duration": 0.03,
      "midi": 58,
      "noteNumber": 58,
      "velocity": 0.54,
      "track": "(unnamed)",
      "channel": 2,
      "lane": "J"
    },
    {
      "time": 127.773,
      "duration": 0.06,
      "midi": 63,
      "noteNumber": 63,
      "velocity": 0.68,
      "track": "(unnamed)",
      "channel": 2,
      "lane": "J"
    },
    {
      "time": 127.904,
      "duration": 0.007,
      "midi": 40,
      "noteNumber": 40,
      "velocity": 0.62,
      "track": "(unnamed)",
      "channel": 9,
      "lane": "D"
    },
    {
      "time": 127.904,
      "duration": 0.007,
      "midi": 51,
      "noteNumber": 51,
      "velocity": 0.72,
      "track": "(unnamed)",
      "channel": 9,
      "lane": "F"
    },
    {
      "time": 128.132,
      "duration": 0.112,
      "midi": 39,
      "noteNumber": 39,
      "velocity": 0.74,
      "track": "(unnamed)",
      "channel": 2,
      "lane": "D"
    },
    {
      "time": 128.263,
      "duration": 0.086,
      "midi": 54,
      "noteNumber": 54,
      "velocity": 0.71,
      "track": "(unnamed)",
      "channel": 2,
      "lane": "J"
    },
    {
      "time": 128.263,
      "duration": 0.041,
      "midi": 58,
      "noteNumber": 58,
      "velocity": 0.68,
      "track": "(unnamed)",
      "channel": 2,
      "lane": "J"
    },
    {
      "time": 128.263,
      "duration": 0.049,
      "midi": 63,
      "noteNumber": 63,
      "velocity": 0.54,
      "track": "(unnamed)",
      "channel": 2,
      "lane": "J"
    },
    {
      "time": 128.263,
      "duration": 0.007,
      "midi": 51,
      "noteNumber": 51,
      "velocity": 0.72,
      "track": "(unnamed)",
      "channel": 9,
      "lane": "F"
    },
    {
      "time": 128.488,
      "duration": 0.007,
      "midi": 51,
      "noteNumber": 51,
      "velocity": 0.61,
      "track": "(unnamed)",
      "channel": 9,
      "lane": "F"
    },
    {
      "time": 128.623,
      "duration": 0.52,
      "midi": 46,
      "noteNumber": 46,
      "velocity": 0.71,
      "track": "(unnamed)",
      "channel": 2,
      "lane": "F"
    },
    {
      "time": 128.623,
      "duration": 0.007,
      "midi": 40,
      "noteNumber": 40,
      "velocity": 0.5,
      "track": "(unnamed)",
      "channel": 9,
      "lane": "D"
    },
    {
      "time": 128.623,
      "duration": 0.007,
      "midi": 51,
      "noteNumber": 51,
      "velocity": 0.69,
      "track": "(unnamed)",
      "channel": 9,
      "lane": "F"
    },
    {
      "time": 128.623,
      "duration": 0.273,
      "midi": 46,
      "noteNumber": 46,
      "velocity": 0.51,
      "track": "(unnamed)",
      "channel": 1,
      "lane": "F"
    },
    {
      "time": 128.862,
      "duration": 0.007,
      "midi": 51,
      "noteNumber": 51,
      "velocity": 0.54,
      "track": "(unnamed)",
      "channel": 9,
      "lane": "F"
    },
    {
      "time": 128.982,
      "duration": 0.12,
      "midi": 53,
      "noteNumber": 53,
      "velocity": 0.57,
      "track": "(unnamed)",
      "channel": 2,
      "lane": "F"
    },
    {
      "time": 128.982,
      "duration": 0.12,
      "midi": 56,
      "noteNumber": 56,
      "velocity": 0.74,
      "track": "(unnamed)",
      "channel": 2,
      "lane": "J"
    },
    {
      "time": 128.982,
      "duration": 0.124,
      "midi": 61,
      "noteNumber": 61,
      "velocity": 0.71,
      "track": "(unnamed)",
      "channel": 2,
      "lane": "J"
    },
    {
      "time": 128.982,
      "duration": 0.007,
      "midi": 51,
      "noteNumber": 51,
      "velocity": 0.83,
      "track": "(unnamed)",
      "channel": 9,
      "lane": "F"
    },
    {
      "time": 128.982,
      "duration": 0.213,
      "midi": 34,
      "noteNumber": 34,
      "velocity": 0.51,
      "track": "(unnamed)",
      "channel": 1,
      "lane": "D"
    },
    {
      "time": 129.102,
      "duration": 0.007,
      "midi": 40,
      "noteNumber": 40,
      "velocity": 0.2,
      "track": "(unnamed)",
      "channel": 9,
      "lane": "D"
    },
    {
      "time": 129.221,
      "duration": 0.007,
      "midi": 40,
      "noteNumber": 40,
      "velocity": 0.69,
      "track": "(unnamed)",
      "channel": 9,
      "lane": "D"
    },
    {
      "time": 129.341,
      "duration": 0.161,
      "midi": 39,
      "noteNumber": 39,
      "velocity": 0.6,
      "track": "(unnamed)",
      "channel": 2,
      "lane": "D"
    },
    {
      "time": 129.341,
      "duration": 0.007,
      "midi": 35,
      "noteNumber": 35,
      "velocity": 0.74,
      "track": "(unnamed)",
      "channel": 9,
      "lane": "D"
    },
    {
      "time": 129.341,
      "duration": 0.007,
      "midi": 51,
      "noteNumber": 51,
      "velocity": 0.72,
      "track": "(unnamed)",
      "channel": 9,
      "lane": "F"
    },
    {
      "time": 129.341,
      "duration": 0.876,
      "midi": 39,
      "noteNumber": 39,
      "velocity": 0.66,
      "track": "(unnamed)",
      "channel": 1,
      "lane": "D"
    },
    {
      "time": 129.566,
      "duration": 0.007,
      "midi": 40,
      "noteNumber": 40,
      "velocity": 0.59,
      "track": "(unnamed)",
      "channel": 9,
      "lane": "D"
    },
    {
      "time": 129.569,
      "duration": 0.056,
      "midi": 54,
      "noteNumber": 54,
      "velocity": 0.71,
      "track": "(unnamed)",
      "channel": 2,
      "lane": "J"
    },
    {
      "time": 129.569,
      "duration": 0.03,
      "midi": 58,
      "noteNumber": 58,
      "velocity": 0.54,
      "track": "(unnamed)",
      "channel": 2,
      "lane": "J"
    },
    {
      "time": 129.569,
      "duration": 0.06,
      "midi": 63,
      "noteNumber": 63,
      "velocity": 0.68,
      "track": "(unnamed)",
      "channel": 2,
      "lane": "J"
    },
    {
      "time": 129.7,
      "duration": 0.007,
      "midi": 40,
      "noteNumber": 40,
      "velocity": 0.72,
      "track": "(unnamed)",
      "channel": 9,
      "lane": "D"
    },
    {
      "time": 129.7,
      "duration": 0.007,
      "midi": 51,
      "noteNumber": 51,
      "velocity": 0.72,
      "track": "(unnamed)",
      "channel": 9,
      "lane": "F"
    },
    {
      "time": 129.929,
      "duration": 0.112,
      "midi": 39,
      "noteNumber": 39,
      "velocity": 0.74,
      "track": "(unnamed)",
      "channel": 2,
      "lane": "D"
    },
    {
      "time": 130.06,
      "duration": 0.086,
      "midi": 54,
      "noteNumber": 54,
      "velocity": 0.71,
      "track": "(unnamed)",
      "channel": 2,
      "lane": "J"
    },
    {
      "time": 130.06,
      "duration": 0.041,
      "midi": 58,
      "noteNumber": 58,
      "velocity": 0.68,
      "track": "(unnamed)",
      "channel": 2,
      "lane": "J"
    },
    {
      "time": 130.06,
      "duration": 0.049,
      "midi": 63,
      "noteNumber": 63,
      "velocity": 0.54,
      "track": "(unnamed)",
      "channel": 2,
      "lane": "J"
    },
    {
      "time": 130.06,
      "duration": 0.007,
      "midi": 40,
      "noteNumber": 40,
      "velocity": 0.72,
      "track": "(unnamed)",
      "channel": 9,
      "lane": "D"
    },
    {
      "time": 130.06,
      "duration": 0.007,
      "midi": 51,
      "noteNumber": 51,
      "velocity": 0.72,
      "track": "(unnamed)",
      "channel": 9,
      "lane": "F"
    },
    {
      "time": 130.284,
      "duration": 0.007,
      "midi": 51,
      "noteNumber": 51,
      "velocity": 0.61,
      "track": "(unnamed)",
      "channel": 9,
      "lane": "F"
    },
    {
      "time": 130.419,
      "duration": 0.52,
      "midi": 46,
      "noteNumber": 46,
      "velocity": 0.71,
      "track": "(unnamed)",
      "channel": 2,
      "lane": "F"
    },
    {
      "time": 130.419,
      "duration": 0.007,
      "midi": 40,
      "noteNumber": 40,
      "velocity": 0.51,
      "track": "(unnamed)",
      "channel": 9,
      "lane": "D"
    },
    {
      "time": 130.419,
      "duration": 0.007,
      "midi": 51,
      "noteNumber": 51,
      "velocity": 0.69,
      "track": "(unnamed)",
      "channel": 9,
      "lane": "F"
    },
    {
      "time": 130.419,
      "duration": 0.273,
      "midi": 46,
      "noteNumber": 46,
      "velocity": 0.51,
      "track": "(unnamed)",
      "channel": 1,
      "lane": "F"
    },
    {
      "time": 130.644,
      "duration": 0.007,
      "midi": 40,
      "noteNumber": 40,
      "velocity": 0.69,
      "track": "(unnamed)",
      "channel": 9,
      "lane": "D"
    },
    {
      "time": 130.644,
      "duration": 0.007,
      "midi": 51,
      "noteNumber": 51,
      "velocity": 0.54,
      "track": "(unnamed)",
      "channel": 9,
      "lane": "F"
    },
    {
      "time": 130.778,
      "duration": 0.12,
      "midi": 53,
      "noteNumber": 53,
      "velocity": 0.57,
      "track": "(unnamed)",
      "channel": 2,
      "lane": "F"
    },
    {
      "time": 130.778,
      "duration": 0.12,
      "midi": 56,
      "noteNumber": 56,
      "velocity": 0.74,
      "track": "(unnamed)",
      "channel": 2,
      "lane": "J"
    },
    {
      "time": 130.778,
      "duration": 0.124,
      "midi": 61,
      "noteNumber": 61,
      "velocity": 0.71,
      "track": "(unnamed)",
      "channel": 2,
      "lane": "J"
    },
    {
      "time": 130.778,
      "duration": 0.007,
      "midi": 40,
      "noteNumber": 40,
      "velocity": 0.72,
      "track": "(unnamed)",
      "channel": 9,
      "lane": "D"
    },
    {
      "time": 130.778,
      "duration": 0.007,
      "midi": 51,
      "noteNumber": 51,
      "velocity": 0.83,
      "track": "(unnamed)",
      "channel": 9,
      "lane": "F"
    },
    {
      "time": 130.778,
      "duration": 0.213,
      "midi": 34,
      "noteNumber": 34,
      "velocity": 0.51,
      "track": "(unnamed)",
      "channel": 1,
      "lane": "D"
    },
    {
      "time": 131.138,
      "duration": 0.161,
      "midi": 39,
      "noteNumber": 39,
      "velocity": 0.6,
      "track": "(unnamed)",
      "channel": 2,
      "lane": "D"
    },
    {
      "time": 131.138,
      "duration": 0.007,
      "midi": 35,
      "noteNumber": 35,
      "velocity": 0.74,
      "track": "(unnamed)",
      "channel": 9,
      "lane": "D"
    },
    {
      "time": 131.138,
      "duration": 0.007,
      "midi": 51,
      "noteNumber": 51,
      "velocity": 0.72,
      "track": "(unnamed)",
      "channel": 9,
      "lane": "F"
    },
    {
      "time": 131.138,
      "duration": 0.876,
      "midi": 39,
      "noteNumber": 39,
      "velocity": 0.66,
      "track": "(unnamed)",
      "channel": 1,
      "lane": "D"
    },
    {
      "time": 131.362,
      "duration": 0.007,
      "midi": 40,
      "noteNumber": 40,
      "velocity": 0.59,
      "track": "(unnamed)",
      "channel": 9,
      "lane": "D"
    },
    {
      "time": 131.366,
      "duration": 0.056,
      "midi": 54,
      "noteNumber": 54,
      "velocity": 0.71,
      "track": "(unnamed)",
      "channel": 2,
      "lane": "J"
    },
    {
      "time": 131.366,
      "duration": 0.03,
      "midi": 58,
      "noteNumber": 58,
      "velocity": 0.54,
      "track": "(unnamed)",
      "channel": 2,
      "lane": "J"
    },
    {
      "time": 131.366,
      "duration": 0.06,
      "midi": 63,
      "noteNumber": 63,
      "velocity": 0.68,
      "track": "(unnamed)",
      "channel": 2,
      "lane": "J"
    },
    {
      "time": 131.497,
      "duration": 0.007,
      "midi": 40,
      "noteNumber": 40,
      "velocity": 0.69,
      "track": "(unnamed)",
      "channel": 9,
      "lane": "D"
    },
    {
      "time": 131.497,
      "duration": 0.007,
      "midi": 51,
      "noteNumber": 51,
      "velocity": 0.72,
      "track": "(unnamed)",
      "channel": 9,
      "lane": "F"
    },
    {
      "time": 131.725,
      "duration": 0.112,
      "midi": 39,
      "noteNumber": 39,
      "velocity": 0.74,
      "track": "(unnamed)",
      "channel": 2,
      "lane": "D"
    },
    {
      "time": 131.856,
      "duration": 0.086,
      "midi": 54,
      "noteNumber": 54,
      "velocity": 0.71,
      "track": "(unnamed)",
      "channel": 2,
      "lane": "J"
    },
    {
      "time": 131.856,
      "duration": 0.041,
      "midi": 58,
      "noteNumber": 58,
      "velocity": 0.68,
      "track": "(unnamed)",
      "channel": 2,
      "lane": "J"
    },
    {
      "time": 131.856,
      "duration": 0.049,
      "midi": 63,
      "noteNumber": 63,
      "velocity": 0.54,
      "track": "(unnamed)",
      "channel": 2,
      "lane": "J"
    },
    {
      "time": 131.856,
      "duration": 0.007,
      "midi": 40,
      "noteNumber": 40,
      "velocity": 0.72,
      "track": "(unnamed)",
      "channel": 9,
      "lane": "D"
    },
    {
      "time": 131.856,
      "duration": 0.007,
      "midi": 51,
      "noteNumber": 51,
      "velocity": 0.72,
      "track": "(unnamed)",
      "channel": 9,
      "lane": "F"
    },
    {
      "time": 132.081,
      "duration": 0.007,
      "midi": 51,
      "noteNumber": 51,
      "velocity": 0.61,
      "track": "(unnamed)",
      "channel": 9,
      "lane": "F"
    },
    {
      "time": 132.215,
      "duration": 0.52,
      "midi": 46,
      "noteNumber": 46,
      "velocity": 0.71,
      "track": "(unnamed)",
      "channel": 2,
      "lane": "F"
    },
    {
      "time": 132.215,
      "duration": 0.007,
      "midi": 40,
      "noteNumber": 40,
      "velocity": 0.51,
      "track": "(unnamed)",
      "channel": 9,
      "lane": "D"
    },
    {
      "time": 132.215,
      "duration": 0.007,
      "midi": 51,
      "noteNumber": 51,
      "velocity": 0.69,
      "track": "(unnamed)",
      "channel": 9,
      "lane": "F"
    },
    {
      "time": 132.215,
      "duration": 0.273,
      "midi": 46,
      "noteNumber": 46,
      "velocity": 0.51,
      "track": "(unnamed)",
      "channel": 1,
      "lane": "F"
    },
    {
      "time": 132.44,
      "duration": 0.007,
      "midi": 40,
      "noteNumber": 40,
      "velocity": 0.69,
      "track": "(unnamed)",
      "channel": 9,
      "lane": "D"
    },
    {
      "time": 132.44,
      "duration": 0.007,
      "midi": 51,
      "noteNumber": 51,
      "velocity": 0.54,
      "track": "(unnamed)",
      "channel": 9,
      "lane": "F"
    },
    {
      "time": 132.575,
      "duration": 0.12,
      "midi": 53,
      "noteNumber": 53,
      "velocity": 0.57,
      "track": "(unnamed)",
      "channel": 2,
      "lane": "F"
    },
    {
      "time": 132.575,
      "duration": 0.12,
      "midi": 56,
      "noteNumber": 56,
      "velocity": 0.74,
      "track": "(unnamed)",
      "channel": 2,
      "lane": "J"
    },
    {
      "time": 132.575,
      "duration": 0.124,
      "midi": 61,
      "noteNumber": 61,
      "velocity": 0.71,
      "track": "(unnamed)",
      "channel": 2,
      "lane": "J"
    },
    {
      "time": 132.575,
      "duration": 0.007,
      "midi": 40,
      "noteNumber": 40,
      "velocity": 0.72,
      "track": "(unnamed)",
      "channel": 9,
      "lane": "D"
    },
    {
      "time": 132.575,
      "duration": 0.007,
      "midi": 51,
      "noteNumber": 51,
      "velocity": 0.83,
      "track": "(unnamed)",
      "channel": 9,
      "lane": "F"
    },
    {
      "time": 132.575,
      "duration": 0.213,
      "midi": 34,
      "noteNumber": 34,
      "velocity": 0.51,
      "track": "(unnamed)",
      "channel": 1,
      "lane": "D"
    },
    {
      "time": 132.934,
      "duration": 0.161,
      "midi": 39,
      "noteNumber": 39,
      "velocity": 0.6,
      "track": "(unnamed)",
      "channel": 2,
      "lane": "D"
    },
    {
      "time": 132.934,
      "duration": 0.007,
      "midi": 35,
      "noteNumber": 35,
      "velocity": 0.74,
      "track": "(unnamed)",
      "channel": 9,
      "lane": "D"
    },
    {
      "time": 132.934,
      "duration": 0.876,
      "midi": 39,
      "noteNumber": 39,
      "velocity": 0.66,
      "track": "(unnamed)",
      "channel": 1,
      "lane": "D"
    },
    {
      "time": 133.159,
      "duration": 0.007,
      "midi": 40,
      "noteNumber": 40,
      "velocity": 0.81,
      "track": "(unnamed)",
      "channel": 9,
      "lane": "D"
    },
    {
      "time": 133.162,
      "duration": 0.056,
      "midi": 54,
      "noteNumber": 54,
      "velocity": 0.71,
      "track": "(unnamed)",
      "channel": 2,
      "lane": "J"
    },
    {
      "time": 133.162,
      "duration": 0.03,
      "midi": 58,
      "noteNumber": 58,
      "velocity": 0.54,
      "track": "(unnamed)",
      "channel": 2,
      "lane": "J"
    },
    {
      "time": 133.162,
      "duration": 0.06,
      "midi": 63,
      "noteNumber": 63,
      "velocity": 0.68,
      "track": "(unnamed)",
      "channel": 2,
      "lane": "J"
    },
    {
      "time": 133.218,
      "duration": 0.007,
      "midi": 40,
      "noteNumber": 40,
      "velocity": 0.37,
      "track": "(unnamed)",
      "channel": 9,
      "lane": "D"
    },
    {
      "time": 133.256,
      "duration": 0.007,
      "midi": 40,
      "noteNumber": 40,
      "velocity": 0.36,
      "track": "(unnamed)",
      "channel": 9,
      "lane": "D"
    },
    {
      "time": 133.293,
      "duration": 0.007,
      "midi": 40,
      "noteNumber": 40,
      "velocity": 0.36,
      "track": "(unnamed)",
      "channel": 9,
      "lane": "D"
    },
    {
      "time": 133.316,
      "duration": 0.007,
      "midi": 40,
      "noteNumber": 40,
      "velocity": 0.28,
      "track": "(unnamed)",
      "channel": 9,
      "lane": "D"
    },
    {
      "time": 133.353,
      "duration": 0.007,
      "midi": 40,
      "noteNumber": 40,
      "velocity": 0.26,
      "track": "(unnamed)",
      "channel": 9,
      "lane": "D"
    },
    {
      "time": 133.391,
      "duration": 0.007,
      "midi": 40,
      "noteNumber": 40,
      "velocity": 0.29,
      "track": "(unnamed)",
      "channel": 9,
      "lane": "D"
    },
    {
      "time": 133.518,
      "duration": 0.007,
      "midi": 40,
      "noteNumber": 40,
      "velocity": 0.65,
      "track": "(unnamed)",
      "channel": 9,
      "lane": "D"
    },
    {
      "time": 133.522,
      "duration": 0.112,
      "midi": 39,
      "noteNumber": 39,
      "velocity": 0.74,
      "track": "(unnamed)",
      "channel": 2,
      "lane": "D"
    },
    {
      "time": 133.653,
      "duration": 0.086,
      "midi": 54,
      "noteNumber": 54,
      "velocity": 0.71,
      "track": "(unnamed)",
      "channel": 2,
      "lane": "J"
    },
    {
      "time": 133.653,
      "duration": 0.041,
      "midi": 58,
      "noteNumber": 58,
      "velocity": 0.68,
      "track": "(unnamed)",
      "channel": 2,
      "lane": "J"
    },
    {
      "time": 133.653,
      "duration": 0.049,
      "midi": 63,
      "noteNumber": 63,
      "velocity": 0.54,
      "track": "(unnamed)",
      "channel": 2,
      "lane": "J"
    },
    {
      "time": 133.653,
      "duration": 0.007,
      "midi": 40,
      "noteNumber": 40,
      "velocity": 0.91,
      "track": "(unnamed)",
      "channel": 9,
      "lane": "D"
    },
    {
      "time": 134.012,
      "duration": 0.52,
      "midi": 46,
      "noteNumber": 46,
      "velocity": 0.71,
      "track": "(unnamed)",
      "channel": 2,
      "lane": "F"
    },
    {
      "time": 134.012,
      "duration": 0.007,
      "midi": 40,
      "noteNumber": 40,
      "velocity": 0.5,
      "track": "(unnamed)",
      "channel": 9,
      "lane": "D"
    },
    {
      "time": 134.012,
      "duration": 0.007,
      "midi": 51,
      "noteNumber": 51,
      "velocity": 0.69,
      "track": "(unnamed)",
      "channel": 9,
      "lane": "F"
    },
    {
      "time": 134.012,
      "duration": 0.273,
      "midi": 46,
      "noteNumber": 46,
      "velocity": 0.51,
      "track": "(unnamed)",
      "channel": 1,
      "lane": "F"
    },
    {
      "time": 134.236,
      "duration": 0.007,
      "midi": 51,
      "noteNumber": 51,
      "velocity": 0.72,
      "track": "(unnamed)",
      "channel": 9,
      "lane": "F"
    },
    {
      "time": 134.371,
      "duration": 0.12,
      "midi": 53,
      "noteNumber": 53,
      "velocity": 0.57,
      "track": "(unnamed)",
      "channel": 2,
      "lane": "F"
    },
    {
      "time": 134.371,
      "duration": 0.12,
      "midi": 56,
      "noteNumber": 56,
      "velocity": 0.74,
      "track": "(unnamed)",
      "channel": 2,
      "lane": "J"
    },
    {
      "time": 134.371,
      "duration": 0.124,
      "midi": 61,
      "noteNumber": 61,
      "velocity": 0.71,
      "track": "(unnamed)",
      "channel": 2,
      "lane": "J"
    },
    {
      "time": 134.371,
      "duration": 0.007,
      "midi": 51,
      "noteNumber": 51,
      "velocity": 0.88,
      "track": "(unnamed)",
      "channel": 9,
      "lane": "F"
    },
    {
      "time": 134.371,
      "duration": 0.213,
      "midi": 34,
      "noteNumber": 34,
      "velocity": 0.51,
      "track": "(unnamed)",
      "channel": 1,
      "lane": "D"
    },
    {
      "time": 134.491,
      "duration": 0.007,
      "midi": 40,
      "noteNumber": 40,
      "velocity": 0.2,
      "track": "(unnamed)",
      "channel": 9,
      "lane": "D"
    },
    {
      "time": 134.596,
      "duration": 0.007,
      "midi": 40,
      "noteNumber": 40,
      "velocity": 0.69,
      "track": "(unnamed)",
      "channel": 9,
      "lane": "D"
    },
    {
      "time": 134.73,
      "duration": 0.161,
      "midi": 39,
      "noteNumber": 39,
      "velocity": 0.6,
      "track": "(unnamed)",
      "channel": 2,
      "lane": "D"
    },
    {
      "time": 134.73,
      "duration": 0.007,
      "midi": 35,
      "noteNumber": 35,
      "velocity": 0.74,
      "track": "(unnamed)",
      "channel": 9,
      "lane": "D"
    },
    {
      "time": 134.73,
      "duration": 0.876,
      "midi": 39,
      "noteNumber": 39,
      "velocity": 0.66,
      "track": "(unnamed)",
      "channel": 1,
      "lane": "D"
    },
    {
      "time": 134.955,
      "duration": 0.007,
      "midi": 40,
      "noteNumber": 40,
      "velocity": 0.62,
      "track": "(unnamed)",
      "channel": 9,
      "lane": "D"
    },
    {
      "time": 134.955,
      "duration": 0.007,
      "midi": 51,
      "noteNumber": 51,
      "velocity": 0.72,
      "track": "(unnamed)",
      "channel": 9,
      "lane": "F"
    },
    {
      "time": 134.959,
      "duration": 0.056,
      "midi": 54,
      "noteNumber": 54,
      "velocity": 0.71,
      "track": "(unnamed)",
      "channel": 2,
      "lane": "J"
    },
    {
      "time": 134.959,
      "duration": 0.03,
      "midi": 58,
      "noteNumber": 58,
      "velocity": 0.54,
      "track": "(unnamed)",
      "channel": 2,
      "lane": "J"
    },
    {
      "time": 134.959,
      "duration": 0.06,
      "midi": 63,
      "noteNumber": 63,
      "velocity": 0.68,
      "track": "(unnamed)",
      "channel": 2,
      "lane": "J"
    },
    {
      "time": 135.09,
      "duration": 0.007,
      "midi": 40,
      "noteNumber": 40,
      "velocity": 0.65,
      "track": "(unnamed)",
      "channel": 9,
      "lane": "D"
    },
    {
      "time": 135.09,
      "duration": 0.007,
      "midi": 51,
      "noteNumber": 51,
      "velocity": 0.72,
      "track": "(unnamed)",
      "channel": 9,
      "lane": "F"
    },
    {
      "time": 135.318,
      "duration": 0.112,
      "midi": 39,
      "noteNumber": 39,
      "velocity": 0.74,
      "track": "(unnamed)",
      "channel": 2,
      "lane": "D"
    },
    {
      "time": 135.449,
      "duration": 0.086,
      "midi": 54,
      "noteNumber": 54,
      "velocity": 0.71,
      "track": "(unnamed)",
      "channel": 2,
      "lane": "J"
    },
    {
      "time": 135.449,
      "duration": 0.041,
      "midi": 58,
      "noteNumber": 58,
      "velocity": 0.68,
      "track": "(unnamed)",
      "channel": 2,
      "lane": "J"
    },
    {
      "time": 135.449,
      "duration": 0.049,
      "midi": 63,
      "noteNumber": 63,
      "velocity": 0.54,
      "track": "(unnamed)",
      "channel": 2,
      "lane": "J"
    },
    {
      "time": 135.449,
      "duration": 0.007,
      "midi": 40,
      "noteNumber": 40,
      "velocity": 0.62,
      "track": "(unnamed)",
      "channel": 9,
      "lane": "D"
    },
    {
      "time": 135.449,
      "duration": 0.007,
      "midi": 51,
      "noteNumber": 51,
      "velocity": 0.76,
      "track": "(unnamed)",
      "channel": 9,
      "lane": "F"
    },
    {
      "time": 135.808,
      "duration": 0.52,
      "midi": 46,
      "noteNumber": 46,
      "velocity": 0.71,
      "track": "(unnamed)",
      "channel": 2,
      "lane": "F"
    },
    {
      "time": 135.808,
      "duration": 0.007,
      "midi": 40,
      "noteNumber": 40,
      "velocity": 0.37,
      "track": "(unnamed)",
      "channel": 9,
      "lane": "D"
    },
    {
      "time": 135.808,
      "duration": 0.273,
      "midi": 46,
      "noteNumber": 46,
      "velocity": 0.51,
      "track": "(unnamed)",
      "channel": 1,
      "lane": "F"
    },
    {
      "time": 135.928,
      "duration": 0.007,
      "midi": 40,
      "noteNumber": 40,
      "velocity": 0.45,
      "track": "(unnamed)",
      "channel": 9,
      "lane": "D"
    },
    {
      "time": 136.048,
      "duration": 0.007,
      "midi": 40,
      "noteNumber": 40,
      "velocity": 0.72,
      "track": "(unnamed)",
      "channel": 9,
      "lane": "D"
    },
    {
      "time": 136.167,
      "duration": 0.12,
      "midi": 53,
      "noteNumber": 53,
      "velocity": 0.57,
      "track": "(unnamed)",
      "channel": 2,
      "lane": "F"
    },
    {
      "time": 136.167,
      "duration": 0.12,
      "midi": 56,
      "noteNumber": 56,
      "velocity": 0.74,
      "track": "(unnamed)",
      "channel": 2,
      "lane": "J"
    },
    {
      "time": 136.167,
      "duration": 0.124,
      "midi": 61,
      "noteNumber": 61,
      "velocity": 0.71,
      "track": "(unnamed)",
      "channel": 2,
      "lane": "J"
    },
    {
      "time": 136.167,
      "duration": 0.007,
      "midi": 40,
      "noteNumber": 40,
      "velocity": 0.91,
      "track": "(unnamed)",
      "channel": 9,
      "lane": "D"
    },
    {
      "time": 136.167,
      "duration": 0.213,
      "midi": 34,
      "noteNumber": 34,
      "velocity": 0.51,
      "track": "(unnamed)",
      "channel": 1,
      "lane": "D"
    },
    {
      "time": 136.527,
      "duration": 0.161,
      "midi": 39,
      "noteNumber": 39,
      "velocity": 0.6,
      "track": "(unnamed)",
      "channel": 2,
      "lane": "D"
    },
    {
      "time": 136.527,
      "duration": 0.007,
      "midi": 35,
      "noteNumber": 35,
      "velocity": 0.74,
      "track": "(unnamed)",
      "channel": 9,
      "lane": "D"
    },
    {
      "time": 136.527,
      "duration": 0.876,
      "midi": 39,
      "noteNumber": 39,
      "velocity": 0.66,
      "track": "(unnamed)",
      "channel": 1,
      "lane": "D"
    },
    {
      "time": 136.751,
      "duration": 0.007,
      "midi": 40,
      "noteNumber": 40,
      "velocity": 0.39,
      "track": "(unnamed)",
      "channel": 9,
      "lane": "D"
    },
    {
      "time": 136.751,
      "duration": 0.007,
      "midi": 51,
      "noteNumber": 51,
      "velocity": 0.44,
      "track": "(unnamed)",
      "channel": 9,
      "lane": "F"
    },
    {
      "time": 136.755,
      "duration": 0.056,
      "midi": 54,
      "noteNumber": 54,
      "velocity": 0.71,
      "track": "(unnamed)",
      "channel": 2,
      "lane": "J"
    },
    {
      "time": 136.755,
      "duration": 0.03,
      "midi": 58,
      "noteNumber": 58,
      "velocity": 0.54,
      "track": "(unnamed)",
      "channel": 2,
      "lane": "J"
    },
    {
      "time": 136.755,
      "duration": 0.06,
      "midi": 63,
      "noteNumber": 63,
      "velocity": 0.68,
      "track": "(unnamed)",
      "channel": 2,
      "lane": "J"
    },
    {
      "time": 136.886,
      "duration": 0.007,
      "midi": 40,
      "noteNumber": 40,
      "velocity": 0.72,
      "track": "(unnamed)",
      "channel": 9,
      "lane": "D"
    },
    {
      "time": 136.886,
      "duration": 0.007,
      "midi": 51,
      "noteNumber": 51,
      "velocity": 0.76,
      "track": "(unnamed)",
      "channel": 9,
      "lane": "F"
    },
    {
      "time": 137.111,
      "duration": 0.007,
      "midi": 35,
      "noteNumber": 35,
      "velocity": 0.84,
      "track": "(unnamed)",
      "channel": 9,
      "lane": "D"
    },
    {
      "time": 137.114,
      "duration": 0.112,
      "midi": 39,
      "noteNumber": 39,
      "velocity": 0.74,
      "track": "(unnamed)",
      "channel": 2,
      "lane": "D"
    },
    {
      "time": 137.245,
      "duration": 0.086,
      "midi": 54,
      "noteNumber": 54,
      "velocity": 0.71,
      "track": "(unnamed)",
      "channel": 2,
      "lane": "J"
    },
    {
      "time": 137.245,
      "duration": 0.041,
      "midi": 58,
      "noteNumber": 58,
      "velocity": 0.68,
      "track": "(unnamed)",
      "channel": 2,
      "lane": "J"
    },
    {
      "time": 137.245,
      "duration": 0.049,
      "midi": 63,
      "noteNumber": 63,
      "velocity": 0.54,
      "track": "(unnamed)",
      "channel": 2,
      "lane": "J"
    },
    {
      "time": 137.245,
      "duration": 0.007,
      "midi": 40,
      "noteNumber": 40,
      "velocity": 0.62,
      "track": "(unnamed)",
      "channel": 9,
      "lane": "D"
    },
    {
      "time": 137.245,
      "duration": 0.007,
      "midi": 51,
      "noteNumber": 51,
      "velocity": 0.8,
      "track": "(unnamed)",
      "channel": 9,
      "lane": "F"
    },
    {
      "time": 137.47,
      "duration": 0.007,
      "midi": 35,
      "noteNumber": 35,
      "velocity": 0.88,
      "track": "(unnamed)",
      "channel": 9,
      "lane": "D"
    },
    {
      "time": 137.605,
      "duration": 0.52,
      "midi": 46,
      "noteNumber": 46,
      "velocity": 0.71,
      "track": "(unnamed)",
      "channel": 2,
      "lane": "F"
    },
    {
      "time": 137.605,
      "duration": 0.007,
      "midi": 40,
      "noteNumber": 40,
      "velocity": 0.45,
      "track": "(unnamed)",
      "channel": 9,
      "lane": "D"
    },
    {
      "time": 137.605,
      "duration": 0.007,
      "midi": 51,
      "noteNumber": 51,
      "velocity": 0.72,
      "track": "(unnamed)",
      "channel": 9,
      "lane": "F"
    },
    {
      "time": 137.605,
      "duration": 0.273,
      "midi": 46,
      "noteNumber": 46,
      "velocity": 0.51,
      "track": "(unnamed)",
      "channel": 1,
      "lane": "F"
    },
    {
      "time": 137.724,
      "duration": 0.007,
      "midi": 40,
      "noteNumber": 40,
      "velocity": 0.62,
      "track": "(unnamed)",
      "channel": 9,
      "lane": "D"
    },
    {
      "time": 137.829,
      "duration": 0.007,
      "midi": 40,
      "noteNumber": 40,
      "velocity": 0.76,
      "track": "(unnamed)",
      "channel": 9,
      "lane": "D"
    },
    {
      "time": 137.964,
      "duration": 0.12,
      "midi": 53,
      "noteNumber": 53,
      "velocity": 0.57,
      "track": "(unnamed)",
      "channel": 2,
      "lane": "F"
    },
    {
      "time": 137.964,
      "duration": 0.12,
      "midi": 56,
      "noteNumber": 56,
      "velocity": 0.74,
      "track": "(unnamed)",
      "channel": 2,
      "lane": "J"
    },
    {
      "time": 137.964,
      "duration": 0.124,
      "midi": 61,
      "noteNumber": 61,
      "velocity": 0.71,
      "track": "(unnamed)",
      "channel": 2,
      "lane": "J"
    },
    {
      "time": 137.964,
      "duration": 0.007,
      "midi": 40,
      "noteNumber": 40,
      "velocity": 0.86,
      "track": "(unnamed)",
      "channel": 9,
      "lane": "D"
    },
    {
      "time": 137.964,
      "duration": 0.213,
      "midi": 34,
      "noteNumber": 34,
      "velocity": 0.51,
      "track": "(unnamed)",
      "channel": 1,
      "lane": "D"
    },
    {
      "time": 138.323,
      "duration": 0.161,
      "midi": 39,
      "noteNumber": 39,
      "velocity": 0.6,
      "track": "(unnamed)",
      "channel": 2,
      "lane": "D"
    },
    {
      "time": 138.323,
      "duration": 0.007,
      "midi": 35,
      "noteNumber": 35,
      "velocity": 0.74,
      "track": "(unnamed)",
      "channel": 9,
      "lane": "D"
    },
    {
      "time": 138.323,
      "duration": 0.876,
      "midi": 39,
      "noteNumber": 39,
      "velocity": 0.66,
      "track": "(unnamed)",
      "channel": 1,
      "lane": "D"
    },
    {
      "time": 138.548,
      "duration": 0.007,
      "midi": 40,
      "noteNumber": 40,
      "velocity": 0.39,
      "track": "(unnamed)",
      "channel": 9,
      "lane": "D"
    },
    {
      "time": 138.548,
      "duration": 0.007,
      "midi": 51,
      "noteNumber": 51,
      "velocity": 0.44,
      "track": "(unnamed)",
      "channel": 9,
      "lane": "F"
    },
    {
      "time": 138.551,
      "duration": 0.056,
      "midi": 54,
      "noteNumber": 54,
      "velocity": 0.71,
      "track": "(unnamed)",
      "channel": 2,
      "lane": "J"
    },
    {
      "time": 138.551,
      "duration": 0.03,
      "midi": 58,
      "noteNumber": 58,
      "velocity": 0.54,
      "track": "(unnamed)",
      "channel": 2,
      "lane": "J"
    },
    {
      "time": 138.551,
      "duration": 0.06,
      "midi": 63,
      "noteNumber": 63,
      "velocity": 0.68,
      "track": "(unnamed)",
      "channel": 2,
      "lane": "J"
    },
    {
      "time": 138.682,
      "duration": 0.007,
      "midi": 40,
      "noteNumber": 40,
      "velocity": 0.72,
      "track": "(unnamed)",
      "channel": 9,
      "lane": "D"
    },
    {
      "time": 138.682,
      "duration": 0.007,
      "midi": 51,
      "noteNumber": 51,
      "velocity": 0.76,
      "track": "(unnamed)",
      "channel": 9,
      "lane": "F"
    },
    {
      "time": 138.907,
      "duration": 0.007,
      "midi": 35,
      "noteNumber": 35,
      "velocity": 0.84,
      "track": "(unnamed)",
      "channel": 9,
      "lane": "D"
    },
    {
      "time": 138.911,
      "duration": 0.112,
      "midi": 39,
      "noteNumber": 39,
      "velocity": 0.74,
      "track": "(unnamed)",
      "channel": 2,
      "lane": "D"
    },
    {
      "time": 139.042,
      "duration": 0.086,
      "midi": 54,
      "noteNumber": 54,
      "velocity": 0.71,
      "track": "(unnamed)",
      "channel": 2,
      "lane": "J"
    },
    {
      "time": 139.042,
      "duration": 0.041,
      "midi": 58,
      "noteNumber": 58,
      "velocity": 0.68,
      "track": "(unnamed)",
      "channel": 2,
      "lane": "J"
    },
    {
      "time": 139.042,
      "duration": 0.049,
      "midi": 63,
      "noteNumber": 63,
      "velocity": 0.54,
      "track": "(unnamed)",
      "channel": 2,
      "lane": "J"
    },
    {
      "time": 139.042,
      "duration": 0.007,
      "midi": 40,
      "noteNumber": 40,
      "velocity": 0.62,
      "track": "(unnamed)",
      "channel": 9,
      "lane": "D"
    },
    {
      "time": 139.042,
      "duration": 0.007,
      "midi": 51,
      "noteNumber": 51,
      "velocity": 0.8,
      "track": "(unnamed)",
      "channel": 9,
      "lane": "F"
    },
    {
      "time": 139.266,
      "duration": 0.007,
      "midi": 35,
      "noteNumber": 35,
      "velocity": 0.88,
      "track": "(unnamed)",
      "channel": 9,
      "lane": "D"
    },
    {
      "time": 139.401,
      "duration": 0.52,
      "midi": 46,
      "noteNumber": 46,
      "velocity": 0.71,
      "track": "(unnamed)",
      "channel": 2,
      "lane": "F"
    },
    {
      "time": 139.401,
      "duration": 0.007,
      "midi": 40,
      "noteNumber": 40,
      "velocity": 0.45,
      "track": "(unnamed)",
      "channel": 9,
      "lane": "D"
    },
    {
      "time": 139.401,
      "duration": 0.007,
      "midi": 51,
      "noteNumber": 51,
      "velocity": 0.72,
      "track": "(unnamed)",
      "channel": 9,
      "lane": "F"
    },
    {
      "time": 139.401,
      "duration": 0.273,
      "midi": 46,
      "noteNumber": 46,
      "velocity": 0.51,
      "track": "(unnamed)",
      "channel": 1,
      "lane": "F"
    },
    {
      "time": 139.521,
      "duration": 0.007,
      "midi": 40,
      "noteNumber": 40,
      "velocity": 0.62,
      "track": "(unnamed)",
      "channel": 9,
      "lane": "D"
    },
    {
      "time": 139.626,
      "duration": 0.007,
      "midi": 40,
      "noteNumber": 40,
      "velocity": 0.76,
      "track": "(unnamed)",
      "channel": 9,
      "lane": "D"
    },
    {
      "time": 139.76,
      "duration": 0.12,
      "midi": 53,
      "noteNumber": 53,
      "velocity": 0.57,
      "track": "(unnamed)",
      "channel": 2,
      "lane": "F"
    },
    {
      "time": 139.76,
      "duration": 0.12,
      "midi": 56,
      "noteNumber": 56,
      "velocity": 0.74,
      "track": "(unnamed)",
      "channel": 2,
      "lane": "J"
    },
    {
      "time": 139.76,
      "duration": 0.124,
      "midi": 61,
      "noteNumber": 61,
      "velocity": 0.71,
      "track": "(unnamed)",
      "channel": 2,
      "lane": "J"
    },
    {
      "time": 139.76,
      "duration": 0.007,
      "midi": 40,
      "noteNumber": 40,
      "velocity": 0.86,
      "track": "(unnamed)",
      "channel": 9,
      "lane": "D"
    },
    {
      "time": 139.76,
      "duration": 0.213,
      "midi": 34,
      "noteNumber": 34,
      "velocity": 0.51,
      "track": "(unnamed)",
      "channel": 1,
      "lane": "D"
    },
    {
      "time": 140.12,
      "duration": 0.161,
      "midi": 39,
      "noteNumber": 39,
      "velocity": 0.6,
      "track": "(unnamed)",
      "channel": 2,
      "lane": "D"
    },
    {
      "time": 140.12,
      "duration": 0.007,
      "midi": 35,
      "noteNumber": 35,
      "velocity": 0.74,
      "track": "(unnamed)",
      "channel": 9,
      "lane": "D"
    },
    {
      "time": 140.12,
      "duration": 0.876,
      "midi": 39,
      "noteNumber": 39,
      "velocity": 0.66,
      "track": "(unnamed)",
      "channel": 1,
      "lane": "D"
    },
    {
      "time": 140.344,
      "duration": 0.007,
      "midi": 40,
      "noteNumber": 40,
      "velocity": 0.51,
      "track": "(unnamed)",
      "channel": 9,
      "lane": "D"
    },
    {
      "time": 140.344,
      "duration": 0.007,
      "midi": 51,
      "noteNumber": 51,
      "velocity": 0.65,
      "track": "(unnamed)",
      "channel": 9,
      "lane": "F"
    },
    {
      "time": 140.348,
      "duration": 0.056,
      "midi": 54,
      "noteNumber": 54,
      "velocity": 0.71,
      "track": "(unnamed)",
      "channel": 2,
      "lane": "J"
    },
    {
      "time": 140.348,
      "duration": 0.03,
      "midi": 58,
      "noteNumber": 58,
      "velocity": 0.54,
      "track": "(unnamed)",
      "channel": 2,
      "lane": "J"
    },
    {
      "time": 140.348,
      "duration": 0.06,
      "midi": 63,
      "noteNumber": 63,
      "velocity": 0.68,
      "track": "(unnamed)",
      "channel": 2,
      "lane": "J"
    },
    {
      "time": 140.479,
      "duration": 0.007,
      "midi": 40,
      "noteNumber": 40,
      "velocity": 0.62,
      "track": "(unnamed)",
      "channel": 9,
      "lane": "D"
    },
    {
      "time": 140.479,
      "duration": 0.007,
      "midi": 51,
      "noteNumber": 51,
      "velocity": 0.69,
      "track": "(unnamed)",
      "channel": 9,
      "lane": "F"
    },
    {
      "time": 140.707,
      "duration": 0.112,
      "midi": 39,
      "noteNumber": 39,
      "velocity": 0.74,
      "track": "(unnamed)",
      "channel": 2,
      "lane": "D"
    },
    {
      "time": 140.838,
      "duration": 0.086,
      "midi": 54,
      "noteNumber": 54,
      "velocity": 0.71,
      "track": "(unnamed)",
      "channel": 2,
      "lane": "J"
    },
    {
      "time": 140.838,
      "duration": 0.041,
      "midi": 58,
      "noteNumber": 58,
      "velocity": 0.68,
      "track": "(unnamed)",
      "channel": 2,
      "lane": "J"
    },
    {
      "time": 140.838,
      "duration": 0.049,
      "midi": 63,
      "noteNumber": 63,
      "velocity": 0.54,
      "track": "(unnamed)",
      "channel": 2,
      "lane": "J"
    },
    {
      "time": 140.838,
      "duration": 0.007,
      "midi": 40,
      "noteNumber": 40,
      "velocity": 0.65,
      "track": "(unnamed)",
      "channel": 9,
      "lane": "D"
    },
    {
      "time": 140.838,
      "duration": 0.007,
      "midi": 51,
      "noteNumber": 51,
      "velocity": 0.8,
      "track": "(unnamed)",
      "channel": 9,
      "lane": "F"
    },
    {
      "time": 141.197,
      "duration": 0.52,
      "midi": 46,
      "noteNumber": 46,
      "velocity": 0.71,
      "track": "(unnamed)",
      "channel": 2,
      "lane": "F"
    },
    {
      "time": 141.197,
      "duration": 0.007,
      "midi": 40,
      "noteNumber": 40,
      "velocity": 0.54,
      "track": "(unnamed)",
      "channel": 9,
      "lane": "D"
    },
    {
      "time": 141.197,
      "duration": 0.007,
      "midi": 51,
      "noteNumber": 51,
      "velocity": 0.65,
      "track": "(unnamed)",
      "channel": 9,
      "lane": "F"
    },
    {
      "time": 141.197,
      "duration": 0.273,
      "midi": 46,
      "noteNumber": 46,
      "velocity": 0.51,
      "track": "(unnamed)",
      "channel": 1,
      "lane": "F"
    },
    {
      "time": 141.422,
      "duration": 0.007,
      "midi": 40,
      "noteNumber": 40,
      "velocity": 0.65,
      "track": "(unnamed)",
      "channel": 9,
      "lane": "D"
    },
    {
      "time": 141.422,
      "duration": 0.007,
      "midi": 51,
      "noteNumber": 51,
      "velocity": 0.88,
      "track": "(unnamed)",
      "channel": 9,
      "lane": "F"
    },
    {
      "time": 141.557,
      "duration": 0.12,
      "midi": 53,
      "noteNumber": 53,
      "velocity": 0.57,
      "track": "(unnamed)",
      "channel": 2,
      "lane": "F"
    },
    {
      "time": 141.557,
      "duration": 0.12,
      "midi": 56,
      "noteNumber": 56,
      "velocity": 0.74,
      "track": "(unnamed)",
      "channel": 2,
      "lane": "J"
    },
    {
      "time": 141.557,
      "duration": 0.124,
      "midi": 61,
      "noteNumber": 61,
      "velocity": 0.71,
      "track": "(unnamed)",
      "channel": 2,
      "lane": "J"
    },
    {
      "time": 141.557,
      "duration": 0.213,
      "midi": 34,
      "noteNumber": 34,
      "velocity": 0.51,
      "track": "(unnamed)",
      "channel": 1,
      "lane": "D"
    },
    {
      "time": 141.781,
      "duration": 0.007,
      "midi": 40,
      "noteNumber": 40,
      "velocity": 0.62,
      "track": "(unnamed)",
      "channel": 9,
      "lane": "D"
    },
    {
      "time": 141.781,
      "duration": 0.007,
      "midi": 51,
      "noteNumber": 51,
      "velocity": 0.72,
      "track": "(unnamed)",
      "channel": 9,
      "lane": "F"
    },
    {
      "time": 141.916,
      "duration": 0.161,
      "midi": 39,
      "noteNumber": 39,
      "velocity": 0.6,
      "track": "(unnamed)",
      "channel": 2,
      "lane": "D"
    },
    {
      "time": 141.916,
      "duration": 0.007,
      "midi": 35,
      "noteNumber": 35,
      "velocity": 0.74,
      "track": "(unnamed)",
      "channel": 9,
      "lane": "D"
    },
    {
      "time": 141.916,
      "duration": 0.007,
      "midi": 40,
      "noteNumber": 40,
      "velocity": 0.69,
      "track": "(unnamed)",
      "channel": 9,
      "lane": "D"
    },
    {
      "time": 141.916,
      "duration": 0.007,
      "midi": 51,
      "noteNumber": 51,
      "velocity": 0.93,
      "track": "(unnamed)",
      "channel": 9,
      "lane": "F"
    },
    {
      "time": 141.916,
      "duration": 0.876,
      "midi": 39,
      "noteNumber": 39,
      "velocity": 0.66,
      "track": "(unnamed)",
      "channel": 1,
      "lane": "D"
    },
    {
      "time": 142.144,
      "duration": 0.056,
      "midi": 54,
      "noteNumber": 54,
      "velocity": 0.71,
      "track": "(unnamed)",
      "channel": 2,
      "lane": "J"
    },
    {
      "time": 142.144,
      "duration": 0.03,
      "midi": 58,
      "noteNumber": 58,
      "velocity": 0.54,
      "track": "(unnamed)",
      "channel": 2,
      "lane": "J"
    },
    {
      "time": 142.144,
      "duration": 0.06,
      "midi": 63,
      "noteNumber": 63,
      "velocity": 0.68,
      "track": "(unnamed)",
      "channel": 2,
      "lane": "J"
    },
    {
      "time": 142.275,
      "duration": 0.007,
      "midi": 51,
      "noteNumber": 51,
      "velocity": 0.61,
      "track": "(unnamed)",
      "channel": 9,
      "lane": "F"
    },
    {
      "time": 142.5,
      "duration": 0.007,
      "midi": 40,
      "noteNumber": 40,
      "velocity": 0.69,
      "track": "(unnamed)",
      "channel": 9,
      "lane": "D"
    },
    {
      "time": 142.5,
      "duration": 0.007,
      "midi": 51,
      "noteNumber": 51,
      "velocity": 0.88,
      "track": "(unnamed)",
      "channel": 9,
      "lane": "F"
    },
    {
      "time": 142.504,
      "duration": 0.112,
      "midi": 39,
      "noteNumber": 39,
      "velocity": 0.74,
      "track": "(unnamed)",
      "channel": 2,
      "lane": "D"
    },
    {
      "time": 142.635,
      "duration": 0.086,
      "midi": 54,
      "noteNumber": 54,
      "velocity": 0.71,
      "track": "(unnamed)",
      "channel": 2,
      "lane": "J"
    },
    {
      "time": 142.635,
      "duration": 0.041,
      "midi": 58,
      "noteNumber": 58,
      "velocity": 0.68,
      "track": "(unnamed)",
      "channel": 2,
      "lane": "J"
    },
    {
      "time": 142.635,
      "duration": 0.049,
      "midi": 63,
      "noteNumber": 63,
      "velocity": 0.54,
      "track": "(unnamed)",
      "channel": 2,
      "lane": "J"
    },
    {
      "time": 142.859,
      "duration": 0.007,
      "midi": 40,
      "noteNumber": 40,
      "velocity": 0.54,
      "track": "(unnamed)",
      "channel": 9,
      "lane": "D"
    },
    {
      "time": 142.859,
      "duration": 0.007,
      "midi": 51,
      "noteNumber": 51,
      "velocity": 0.88,
      "track": "(unnamed)",
      "channel": 9,
      "lane": "F"
    },
    {
      "time": 142.994,
      "duration": 0.52,
      "midi": 46,
      "noteNumber": 46,
      "velocity": 0.71,
      "track": "(unnamed)",
      "channel": 2,
      "lane": "F"
    },
    {
      "time": 142.994,
      "duration": 0.007,
      "midi": 40,
      "noteNumber": 40,
      "velocity": 0.76,
      "track": "(unnamed)",
      "channel": 9,
      "lane": "D"
    },
    {
      "time": 142.994,
      "duration": 0.007,
      "midi": 51,
      "noteNumber": 51,
      "velocity": 0.98,
      "track": "(unnamed)",
      "channel": 9,
      "lane": "F"
    },
    {
      "time": 142.994,
      "duration": 0.273,
      "midi": 46,
      "noteNumber": 46,
      "velocity": 0.51,
      "track": "(unnamed)",
      "channel": 1,
      "lane": "F"
    },
    {
      "time": 143.353,
      "duration": 0.12,
      "midi": 53,
      "noteNumber": 53,
      "velocity": 0.57,
      "track": "(unnamed)",
      "channel": 2,
      "lane": "F"
    },
    {
      "time": 143.353,
      "duration": 0.12,
      "midi": 56,
      "noteNumber": 56,
      "velocity": 0.74,
      "track": "(unnamed)",
      "channel": 2,
      "lane": "J"
    },
    {
      "time": 143.353,
      "duration": 0.124,
      "midi": 61,
      "noteNumber": 61,
      "velocity": 0.71,
      "track": "(unnamed)",
      "channel": 2,
      "lane": "J"
    },
    {
      "time": 143.353,
      "duration": 0.007,
      "midi": 35,
      "noteNumber": 35,
      "velocity": 0.9,
      "track": "(unnamed)",
      "channel": 9,
      "lane": "D"
    },
    {
      "time": 143.353,
      "duration": 0.213,
      "midi": 34,
      "noteNumber": 34,
      "velocity": 0.51,
      "track": "(unnamed)",
      "channel": 1,
      "lane": "D"
    },
    {
      "time": 143.578,
      "duration": 0.007,
      "midi": 40,
      "noteNumber": 40,
      "velocity": 0.59,
      "track": "(unnamed)",
      "channel": 9,
      "lane": "D"
    },
    {
      "time": 143.712,
      "duration": 0.161,
      "midi": 39,
      "noteNumber": 39,
      "velocity": 0.6,
      "track": "(unnamed)",
      "channel": 2,
      "lane": "D"
    },
    {
      "time": 143.712,
      "duration": 0.007,
      "midi": 35,
      "noteNumber": 35,
      "velocity": 0.9,
      "track": "(unnamed)",
      "channel": 9,
      "lane": "D"
    },
    {
      "time": 143.712,
      "duration": 0.007,
      "midi": 40,
      "noteNumber": 40,
      "velocity": 0.59,
      "track": "(unnamed)",
      "channel": 9,
      "lane": "D"
    },
    {
      "time": 143.712,
      "duration": 0.876,
      "midi": 39,
      "noteNumber": 39,
      "velocity": 0.66,
      "track": "(unnamed)",
      "channel": 1,
      "lane": "D"
    },
    {
      "time": 143.937,
      "duration": 0.007,
      "midi": 51,
      "noteNumber": 51,
      "velocity": 0.83,
      "track": "(unnamed)",
      "channel": 9,
      "lane": "F"
    },
    {
      "time": 143.941,
      "duration": 0.056,
      "midi": 54,
      "noteNumber": 54,
      "velocity": 0.71,
      "track": "(unnamed)",
      "channel": 2,
      "lane": "J"
    },
    {
      "time": 143.941,
      "duration": 0.03,
      "midi": 58,
      "noteNumber": 58,
      "velocity": 0.54,
      "track": "(unnamed)",
      "channel": 2,
      "lane": "J"
    },
    {
      "time": 143.941,
      "duration": 0.06,
      "midi": 63,
      "noteNumber": 63,
      "velocity": 0.68,
      "track": "(unnamed)",
      "channel": 2,
      "lane": "J"
    },
    {
      "time": 144.296,
      "duration": 0.007,
      "midi": 40,
      "noteNumber": 40,
      "velocity": 0.81,
      "track": "(unnamed)",
      "channel": 9,
      "lane": "D"
    },
    {
      "time": 144.3,
      "duration": 0.112,
      "midi": 39,
      "noteNumber": 39,
      "velocity": 0.74,
      "track": "(unnamed)",
      "channel": 2,
      "lane": "D"
    },
    {
      "time": 144.431,
      "duration": 0.086,
      "midi": 54,
      "noteNumber": 54,
      "velocity": 0.71,
      "track": "(unnamed)",
      "channel": 2,
      "lane": "J"
    },
    {
      "time": 144.431,
      "duration": 0.041,
      "midi": 58,
      "noteNumber": 58,
      "velocity": 0.68,
      "track": "(unnamed)",
      "channel": 2,
      "lane": "J"
    },
    {
      "time": 144.431,
      "duration": 0.049,
      "midi": 63,
      "noteNumber": 63,
      "velocity": 0.54,
      "track": "(unnamed)",
      "channel": 2,
      "lane": "J"
    },
    {
      "time": 144.431,
      "duration": 0.007,
      "midi": 40,
      "noteNumber": 40,
      "velocity": 0.91,
      "track": "(unnamed)",
      "channel": 9,
      "lane": "D"
    },
    {
      "time": 144.79,
      "duration": 0.52,
      "midi": 46,
      "noteNumber": 46,
      "velocity": 0.71,
      "track": "(unnamed)",
      "channel": 2,
      "lane": "F"
    },
    {
      "time": 144.79,
      "duration": 0.007,
      "midi": 35,
      "noteNumber": 35,
      "velocity": 0.81,
      "track": "(unnamed)",
      "channel": 9,
      "lane": "D"
    },
    {
      "time": 144.79,
      "duration": 0.007,
      "midi": 51,
      "noteNumber": 51,
      "velocity": 0.72,
      "track": "(unnamed)",
      "channel": 9,
      "lane": "F"
    },
    {
      "time": 144.79,
      "duration": 0.273,
      "midi": 46,
      "noteNumber": 46,
      "velocity": 0.51,
      "track": "(unnamed)",
      "channel": 1,
      "lane": "F"
    },
    {
      "time": 145.015,
      "duration": 0.007,
      "midi": 35,
      "noteNumber": 35,
      "velocity": 0.78,
      "track": "(unnamed)",
      "channel": 9,
      "lane": "D"
    },
    {
      "time": 145.015,
      "duration": 0.007,
      "midi": 51,
      "noteNumber": 51,
      "velocity": 0.76,
      "track": "(unnamed)",
      "channel": 9,
      "lane": "F"
    },
    {
      "time": 145.15,
      "duration": 0.12,
      "midi": 53,
      "noteNumber": 53,
      "velocity": 0.57,
      "track": "(unnamed)",
      "channel": 2,
      "lane": "F"
    },
    {
      "time": 145.15,
      "duration": 0.12,
      "midi": 56,
      "noteNumber": 56,
      "velocity": 0.74,
      "track": "(unnamed)",
      "channel": 2,
      "lane": "J"
    },
    {
      "time": 145.15,
      "duration": 0.124,
      "midi": 61,
      "noteNumber": 61,
      "velocity": 0.71,
      "track": "(unnamed)",
      "channel": 2,
      "lane": "J"
    },
    {
      "time": 145.15,
      "duration": 0.213,
      "midi": 34,
      "noteNumber": 34,
      "velocity": 0.51,
      "track": "(unnamed)",
      "channel": 1,
      "lane": "D"
    },
    {
      "time": 145.269,
      "duration": 0.007,
      "midi": 35,
      "noteNumber": 35,
      "velocity": 0.81,
      "track": "(unnamed)",
      "channel": 9,
      "lane": "D"
    },
    {
      "time": 145.269,
      "duration": 0.007,
      "midi": 51,
      "noteNumber": 51,
      "velocity": 0.76,
      "track": "(unnamed)",
      "channel": 9,
      "lane": "F"
    },
    {
      "time": 145.509,
      "duration": 0.161,
      "midi": 39,
      "noteNumber": 39,
      "velocity": 0.6,
      "track": "(unnamed)",
      "channel": 2,
      "lane": "D"
    },
    {
      "time": 145.509,
      "duration": 0.007,
      "midi": 35,
      "noteNumber": 35,
      "velocity": 0.9,
      "track": "(unnamed)",
      "channel": 9,
      "lane": "D"
    },
    {
      "time": 145.509,
      "duration": 0.007,
      "midi": 40,
      "noteNumber": 40,
      "velocity": 0.59,
      "track": "(unnamed)",
      "channel": 9,
      "lane": "D"
    },
    {
      "time": 145.509,
      "duration": 0.876,
      "midi": 39,
      "noteNumber": 39,
      "velocity": 0.66,
      "track": "(unnamed)",
      "channel": 1,
      "lane": "D"
    },
    {
      "time": 145.733,
      "duration": 0.007,
      "midi": 51,
      "noteNumber": 51,
      "velocity": 0.83,
      "track": "(unnamed)",
      "channel": 9,
      "lane": "F"
    },
    {
      "time": 145.737,
      "duration": 0.056,
      "midi": 54,
      "noteNumber": 54,
      "velocity": 0.71,
      "track": "(unnamed)",
      "channel": 2,
      "lane": "J"
    },
    {
      "time": 145.737,
      "duration": 0.03,
      "midi": 58,
      "noteNumber": 58,
      "velocity": 0.54,
      "track": "(unnamed)",
      "channel": 2,
      "lane": "J"
    },
    {
      "time": 145.737,
      "duration": 0.06,
      "midi": 63,
      "noteNumber": 63,
      "velocity": 0.68,
      "track": "(unnamed)",
      "channel": 2,
      "lane": "J"
    },
    {
      "time": 146.093,
      "duration": 0.007,
      "midi": 40,
      "noteNumber": 40,
      "velocity": 0.81,
      "track": "(unnamed)",
      "channel": 9,
      "lane": "D"
    },
    {
      "time": 146.096,
      "duration": 0.112,
      "midi": 39,
      "noteNumber": 39,
      "velocity": 0.74,
      "track": "(unnamed)",
      "channel": 2,
      "lane": "D"
    },
    {
      "time": 146.227,
      "duration": 0.086,
      "midi": 54,
      "noteNumber": 54,
      "velocity": 0.71,
      "track": "(unnamed)",
      "channel": 2,
      "lane": "J"
    },
    {
      "time": 146.227,
      "duration": 0.041,
      "midi": 58,
      "noteNumber": 58,
      "velocity": 0.68,
      "track": "(unnamed)",
      "channel": 2,
      "lane": "J"
    },
    {
      "time": 146.227,
      "duration": 0.049,
      "midi": 63,
      "noteNumber": 63,
      "velocity": 0.54,
      "track": "(unnamed)",
      "channel": 2,
      "lane": "J"
    },
    {
      "time": 146.227,
      "duration": 0.007,
      "midi": 40,
      "noteNumber": 40,
      "velocity": 0.91,
      "track": "(unnamed)",
      "channel": 9,
      "lane": "D"
    },
    {
      "time": 146.587,
      "duration": 0.52,
      "midi": 46,
      "noteNumber": 46,
      "velocity": 0.71,
      "track": "(unnamed)",
      "channel": 2,
      "lane": "F"
    },
    {
      "time": 146.587,
      "duration": 0.007,
      "midi": 35,
      "noteNumber": 35,
      "velocity": 0.81,
      "track": "(unnamed)",
      "channel": 9,
      "lane": "D"
    },
    {
      "time": 146.587,
      "duration": 0.007,
      "midi": 51,
      "noteNumber": 51,
      "velocity": 0.72,
      "track": "(unnamed)",
      "channel": 9,
      "lane": "F"
    },
    {
      "time": 146.587,
      "duration": 0.273,
      "midi": 46,
      "noteNumber": 46,
      "velocity": 0.51,
      "track": "(unnamed)",
      "channel": 1,
      "lane": "F"
    },
    {
      "time": 146.811,
      "duration": 0.007,
      "midi": 35,
      "noteNumber": 35,
      "velocity": 0.78,
      "track": "(unnamed)",
      "channel": 9,
      "lane": "D"
    },
    {
      "time": 146.811,
      "duration": 0.007,
      "midi": 51,
      "noteNumber": 51,
      "velocity": 0.76,
      "track": "(unnamed)",
      "channel": 9,
      "lane": "F"
    },
    {
      "time": 146.946,
      "duration": 0.12,
      "midi": 53,
      "noteNumber": 53,
      "velocity": 0.57,
      "track": "(unnamed)",
      "channel": 2,
      "lane": "F"
    },
    {
      "time": 146.946,
      "duration": 0.12,
      "midi": 56,
      "noteNumber": 56,
      "velocity": 0.74,
      "track": "(unnamed)",
      "channel": 2,
      "lane": "J"
    },
    {
      "time": 146.946,
      "duration": 0.124,
      "midi": 61,
      "noteNumber": 61,
      "velocity": 0.71,
      "track": "(unnamed)",
      "channel": 2,
      "lane": "J"
    },
    {
      "time": 146.946,
      "duration": 0.213,
      "midi": 34,
      "noteNumber": 34,
      "velocity": 0.51,
      "track": "(unnamed)",
      "channel": 1,
      "lane": "D"
    },
    {
      "time": 147.066,
      "duration": 0.007,
      "midi": 35,
      "noteNumber": 35,
      "velocity": 0.81,
      "track": "(unnamed)",
      "channel": 9,
      "lane": "D"
    },
    {
      "time": 147.066,
      "duration": 0.007,
      "midi": 51,
      "noteNumber": 51,
      "velocity": 0.76,
      "track": "(unnamed)",
      "channel": 9,
      "lane": "F"
    },
    {
      "time": 147.305,
      "duration": 0.161,
      "midi": 39,
      "noteNumber": 39,
      "velocity": 0.6,
      "track": "(unnamed)",
      "channel": 2,
      "lane": "D"
    },
    {
      "time": 147.305,
      "duration": 0.007,
      "midi": 35,
      "noteNumber": 35,
      "velocity": 0.9,
      "track": "(unnamed)",
      "channel": 9,
      "lane": "D"
    },
    {
      "time": 147.305,
      "duration": 0.007,
      "midi": 40,
      "noteNumber": 40,
      "velocity": 0.59,
      "track": "(unnamed)",
      "channel": 9,
      "lane": "D"
    },
    {
      "time": 147.305,
      "duration": 0.876,
      "midi": 39,
      "noteNumber": 39,
      "velocity": 0.66,
      "track": "(unnamed)",
      "channel": 1,
      "lane": "D"
    },
    {
      "time": 147.53,
      "duration": 0.007,
      "midi": 51,
      "noteNumber": 51,
      "velocity": 0.83,
      "track": "(unnamed)",
      "channel": 9,
      "lane": "F"
    },
    {
      "time": 147.534,
      "duration": 0.056,
      "midi": 54,
      "noteNumber": 54,
      "velocity": 0.71,
      "track": "(unnamed)",
      "channel": 2,
      "lane": "J"
    },
    {
      "time": 147.534,
      "duration": 0.03,
      "midi": 58,
      "noteNumber": 58,
      "velocity": 0.54,
      "track": "(unnamed)",
      "channel": 2,
      "lane": "J"
    },
    {
      "time": 147.534,
      "duration": 0.06,
      "midi": 63,
      "noteNumber": 63,
      "velocity": 0.68,
      "track": "(unnamed)",
      "channel": 2,
      "lane": "J"
    },
    {
      "time": 147.889,
      "duration": 0.007,
      "midi": 40,
      "noteNumber": 40,
      "velocity": 0.81,
      "track": "(unnamed)",
      "channel": 9,
      "lane": "D"
    },
    {
      "time": 147.893,
      "duration": 0.112,
      "midi": 39,
      "noteNumber": 39,
      "velocity": 0.74,
      "track": "(unnamed)",
      "channel": 2,
      "lane": "D"
    },
    {
      "time": 148.024,
      "duration": 0.086,
      "midi": 54,
      "noteNumber": 54,
      "velocity": 0.71,
      "track": "(unnamed)",
      "channel": 2,
      "lane": "J"
    },
    {
      "time": 148.024,
      "duration": 0.041,
      "midi": 58,
      "noteNumber": 58,
      "velocity": 0.68,
      "track": "(unnamed)",
      "channel": 2,
      "lane": "J"
    },
    {
      "time": 148.024,
      "duration": 0.049,
      "midi": 63,
      "noteNumber": 63,
      "velocity": 0.54,
      "track": "(unnamed)",
      "channel": 2,
      "lane": "J"
    },
    {
      "time": 148.024,
      "duration": 0.007,
      "midi": 40,
      "noteNumber": 40,
      "velocity": 0.91,
      "track": "(unnamed)",
      "channel": 9,
      "lane": "D"
    },
    {
      "time": 148.383,
      "duration": 0.52,
      "midi": 46,
      "noteNumber": 46,
      "velocity": 0.71,
      "track": "(unnamed)",
      "channel": 2,
      "lane": "F"
    },
    {
      "time": 148.383,
      "duration": 0.007,
      "midi": 35,
      "noteNumber": 35,
      "velocity": 0.81,
      "track": "(unnamed)",
      "channel": 9,
      "lane": "D"
    },
    {
      "time": 148.383,
      "duration": 0.007,
      "midi": 51,
      "noteNumber": 51,
      "velocity": 0.72,
      "track": "(unnamed)",
      "channel": 9,
      "lane": "F"
    },
    {
      "time": 148.383,
      "duration": 0.273,
      "midi": 46,
      "noteNumber": 46,
      "velocity": 0.51,
      "track": "(unnamed)",
      "channel": 1,
      "lane": "F"
    },
    {
      "time": 148.611,
      "duration": 0.007,
      "midi": 35,
      "noteNumber": 35,
      "velocity": 0.78,
      "track": "(unnamed)",
      "channel": 9,
      "lane": "D"
    },
    {
      "time": 148.611,
      "duration": 0.007,
      "midi": 51,
      "noteNumber": 51,
      "velocity": 0.76,
      "track": "(unnamed)",
      "channel": 9,
      "lane": "F"
    },
    {
      "time": 148.742,
      "duration": 0.12,
      "midi": 53,
      "noteNumber": 53,
      "velocity": 0.57,
      "track": "(unnamed)",
      "channel": 2,
      "lane": "F"
    },
    {
      "time": 148.742,
      "duration": 0.12,
      "midi": 56,
      "noteNumber": 56,
      "velocity": 0.74,
      "track": "(unnamed)",
      "channel": 2,
      "lane": "J"
    },
    {
      "time": 148.742,
      "duration": 0.124,
      "midi": 61,
      "noteNumber": 61,
      "velocity": 0.71,
      "track": "(unnamed)",
      "channel": 2,
      "lane": "J"
    },
    {
      "time": 148.742,
      "duration": 0.213,
      "midi": 34,
      "noteNumber": 34,
      "velocity": 0.51,
      "track": "(unnamed)",
      "channel": 1,
      "lane": "D"
    },
    {
      "time": 148.862,
      "duration": 0.007,
      "midi": 35,
      "noteNumber": 35,
      "velocity": 0.81,
      "track": "(unnamed)",
      "channel": 9,
      "lane": "D"
    },
    {
      "time": 148.862,
      "duration": 0.007,
      "midi": 51,
      "noteNumber": 51,
      "velocity": 0.76,
      "track": "(unnamed)",
      "channel": 9,
      "lane": "F"
    },
    {
      "time": 149.102,
      "duration": 0.161,
      "midi": 39,
      "noteNumber": 39,
      "velocity": 0.6,
      "track": "(unnamed)",
      "channel": 2,
      "lane": "D"
    },
    {
      "time": 149.102,
      "duration": 0.007,
      "midi": 35,
      "noteNumber": 35,
      "velocity": 0.9,
      "track": "(unnamed)",
      "channel": 9,
      "lane": "D"
    },
    {
      "time": 149.102,
      "duration": 0.007,
      "midi": 40,
      "noteNumber": 40,
      "velocity": 0.59,
      "track": "(unnamed)",
      "channel": 9,
      "lane": "D"
    },
    {
      "time": 149.102,
      "duration": 0.876,
      "midi": 39,
      "noteNumber": 39,
      "velocity": 0.66,
      "track": "(unnamed)",
      "channel": 1,
      "lane": "D"
    },
    {
      "time": 149.326,
      "duration": 0.007,
      "midi": 43,
      "noteNumber": 43,
      "velocity": 0.9,
      "track": "(unnamed)",
      "channel": 9,
      "lane": "F"
    },
    {
      "time": 149.326,
      "duration": 0.007,
      "midi": 51,
      "noteNumber": 51,
      "velocity": 0.83,
      "track": "(unnamed)",
      "channel": 9,
      "lane": "F"
    },
    {
      "time": 149.33,
      "duration": 0.056,
      "midi": 54,
      "noteNumber": 54,
      "velocity": 0.71,
      "track": "(unnamed)",
      "channel": 2,
      "lane": "J"
    },
    {
      "time": 149.33,
      "duration": 0.03,
      "midi": 58,
      "noteNumber": 58,
      "velocity": 0.54,
      "track": "(unnamed)",
      "channel": 2,
      "lane": "J"
    },
    {
      "time": 149.33,
      "duration": 0.06,
      "midi": 63,
      "noteNumber": 63,
      "velocity": 0.68,
      "track": "(unnamed)",
      "channel": 2,
      "lane": "J"
    },
    {
      "time": 149.685,
      "duration": 0.007,
      "midi": 40,
      "noteNumber": 40,
      "velocity": 0.81,
      "track": "(unnamed)",
      "channel": 9,
      "lane": "D"
    },
    {
      "time": 149.689,
      "duration": 0.112,
      "midi": 39,
      "noteNumber": 39,
      "velocity": 0.74,
      "track": "(unnamed)",
      "channel": 2,
      "lane": "D"
    },
    {
      "time": 149.82,
      "duration": 0.086,
      "midi": 54,
      "noteNumber": 54,
      "velocity": 0.71,
      "track": "(unnamed)",
      "channel": 2,
      "lane": "J"
    },
    {
      "time": 149.82,
      "duration": 0.041,
      "midi": 58,
      "noteNumber": 58,
      "velocity": 0.68,
      "track": "(unnamed)",
      "channel": 2,
      "lane": "J"
    },
    {
      "time": 149.82,
      "duration": 0.049,
      "midi": 63,
      "noteNumber": 63,
      "velocity": 0.54,
      "track": "(unnamed)",
      "channel": 2,
      "lane": "J"
    },
    {
      "time": 149.82,
      "duration": 0.007,
      "midi": 40,
      "noteNumber": 40,
      "velocity": 0.91,
      "track": "(unnamed)",
      "channel": 9,
      "lane": "D"
    },
    {
      "time": 150.179,
      "duration": 0.52,
      "midi": 46,
      "noteNumber": 46,
      "velocity": 0.71,
      "track": "(unnamed)",
      "channel": 2,
      "lane": "F"
    },
    {
      "time": 150.179,
      "duration": 0.007,
      "midi": 35,
      "noteNumber": 35,
      "velocity": 0.81,
      "track": "(unnamed)",
      "channel": 9,
      "lane": "D"
    },
    {
      "time": 150.179,
      "duration": 0.007,
      "midi": 51,
      "noteNumber": 51,
      "velocity": 0.72,
      "track": "(unnamed)",
      "channel": 9,
      "lane": "F"
    },
    {
      "time": 150.179,
      "duration": 0.273,
      "midi": 46,
      "noteNumber": 46,
      "velocity": 0.51,
      "track": "(unnamed)",
      "channel": 1,
      "lane": "F"
    },
    {
      "time": 150.404,
      "duration": 0.007,
      "midi": 35,
      "noteNumber": 35,
      "velocity": 0.78,
      "track": "(unnamed)",
      "channel": 9,
      "lane": "D"
    },
    {
      "time": 150.404,
      "duration": 0.007,
      "midi": 51,
      "noteNumber": 51,
      "velocity": 0.76,
      "track": "(unnamed)",
      "channel": 9,
      "lane": "F"
    },
    {
      "time": 150.539,
      "duration": 0.12,
      "midi": 53,
      "noteNumber": 53,
      "velocity": 0.57,
      "track": "(unnamed)",
      "channel": 2,
      "lane": "F"
    },
    {
      "time": 150.539,
      "duration": 0.12,
      "midi": 56,
      "noteNumber": 56,
      "velocity": 0.74,
      "track": "(unnamed)",
      "channel": 2,
      "lane": "J"
    },
    {
      "time": 150.539,
      "duration": 0.124,
      "midi": 61,
      "noteNumber": 61,
      "velocity": 0.71,
      "track": "(unnamed)",
      "channel": 2,
      "lane": "J"
    },
    {
      "time": 150.539,
      "duration": 0.213,
      "midi": 34,
      "noteNumber": 34,
      "velocity": 0.51,
      "track": "(unnamed)",
      "channel": 1,
      "lane": "D"
    },
    {
      "time": 150.658,
      "duration": 0.007,
      "midi": 35,
      "noteNumber": 35,
      "velocity": 0.81,
      "track": "(unnamed)",
      "channel": 9,
      "lane": "D"
    },
    {
      "time": 150.658,
      "duration": 0.007,
      "midi": 51,
      "noteNumber": 51,
      "velocity": 0.76,
      "track": "(unnamed)",
      "channel": 9,
      "lane": "F"
    },
    {
      "time": 150.898,
      "duration": 0.161,
      "midi": 39,
      "noteNumber": 39,
      "velocity": 0.6,
      "track": "(unnamed)",
      "channel": 2,
      "lane": "D"
    },
    {
      "time": 150.898,
      "duration": 0.007,
      "midi": 35,
      "noteNumber": 35,
      "velocity": 0.74,
      "track": "(unnamed)",
      "channel": 9,
      "lane": "D"
    },
    {
      "time": 150.898,
      "duration": 0.876,
      "midi": 39,
      "noteNumber": 39,
      "velocity": 0.66,
      "track": "(unnamed)",
      "channel": 1,
      "lane": "D"
    },
    {
      "time": 151.123,
      "duration": 0.007,
      "midi": 40,
      "noteNumber": 40,
      "velocity": 0.81,
      "track": "(unnamed)",
      "channel": 9,
      "lane": "D"
    },
    {
      "time": 151.126,
      "duration": 0.056,
      "midi": 54,
      "noteNumber": 54,
      "velocity": 0.71,
      "track": "(unnamed)",
      "channel": 2,
      "lane": "J"
    },
    {
      "time": 151.126,
      "duration": 0.03,
      "midi": 58,
      "noteNumber": 58,
      "velocity": 0.54,
      "track": "(unnamed)",
      "channel": 2,
      "lane": "J"
    },
    {
      "time": 151.126,
      "duration": 0.06,
      "midi": 63,
      "noteNumber": 63,
      "velocity": 0.68,
      "track": "(unnamed)",
      "channel": 2,
      "lane": "J"
    },
    {
      "time": 151.482,
      "duration": 0.007,
      "midi": 40,
      "noteNumber": 40,
      "velocity": 0.81,
      "track": "(unnamed)",
      "channel": 9,
      "lane": "D"
    },
    {
      "time": 151.486,
      "duration": 0.112,
      "midi": 39,
      "noteNumber": 39,
      "velocity": 0.74,
      "track": "(unnamed)",
      "channel": 2,
      "lane": "D"
    },
    {
      "time": 151.617,
      "duration": 0.086,
      "midi": 54,
      "noteNumber": 54,
      "velocity": 0.71,
      "track": "(unnamed)",
      "channel": 2,
      "lane": "J"
    },
    {
      "time": 151.617,
      "duration": 0.041,
      "midi": 58,
      "noteNumber": 58,
      "velocity": 0.68,
      "track": "(unnamed)",
      "channel": 2,
      "lane": "J"
    },
    {
      "time": 151.617,
      "duration": 0.049,
      "midi": 63,
      "noteNumber": 63,
      "velocity": 0.54,
      "track": "(unnamed)",
      "channel": 2,
      "lane": "J"
    },
    {
      "time": 151.841,
      "duration": 0.007,
      "midi": 40,
      "noteNumber": 40,
      "velocity": 0.69,
      "track": "(unnamed)",
      "channel": 9,
      "lane": "D"
    },
    {
      "time": 151.976,
      "duration": 0.52,
      "midi": 46,
      "noteNumber": 46,
      "velocity": 0.71,
      "track": "(unnamed)",
      "channel": 2,
      "lane": "F"
    },
    {
      "time": 151.976,
      "duration": 0.007,
      "midi": 43,
      "noteNumber": 43,
      "velocity": 0.83,
      "track": "(unnamed)",
      "channel": 9,
      "lane": "F"
    },
    {
      "time": 151.976,
      "duration": 0.273,
      "midi": 46,
      "noteNumber": 46,
      "velocity": 0.51,
      "track": "(unnamed)",
      "channel": 1,
      "lane": "F"
    },
    {
      "time": 152.006,
      "duration": 0.007,
      "midi": 45,
      "noteNumber": 45,
      "velocity": 0.74,
      "track": "(unnamed)",
      "channel": 9,
      "lane": "F"
    },
    {
      "time": 152.2,
      "duration": 0.007,
      "midi": 40,
      "noteNumber": 40,
      "velocity": 0.28,
      "track": "(unnamed)",
      "channel": 9,
      "lane": "D"
    },
    {
      "time": 152.335,
      "duration": 0.12,
      "midi": 53,
      "noteNumber": 53,
      "velocity": 0.57,
      "track": "(unnamed)",
      "channel": 2,
      "lane": "F"
    },
    {
      "time": 152.335,
      "duration": 0.12,
      "midi": 56,
      "noteNumber": 56,
      "velocity": 0.74,
      "track": "(unnamed)",
      "channel": 2,
      "lane": "J"
    },
    {
      "time": 152.335,
      "duration": 0.124,
      "midi": 61,
      "noteNumber": 61,
      "velocity": 0.71,
      "track": "(unnamed)",
      "channel": 2,
      "lane": "J"
    },
    {
      "time": 152.335,
      "duration": 0.007,
      "midi": 41,
      "noteNumber": 41,
      "velocity": 0.86,
      "track": "(unnamed)",
      "channel": 9,
      "lane": "D"
    },
    {
      "time": 152.335,
      "duration": 0.213,
      "midi": 34,
      "noteNumber": 34,
      "velocity": 0.51,
      "track": "(unnamed)",
      "channel": 1,
      "lane": "D"
    },
    {
      "time": 152.365,
      "duration": 0.007,
      "midi": 43,
      "noteNumber": 43,
      "velocity": 0.47,
      "track": "(unnamed)",
      "channel": 9,
      "lane": "F"
    },
    {
      "time": 152.694,
      "duration": 0.161,
      "midi": 39,
      "noteNumber": 39,
      "velocity": 0.6,
      "track": "(unnamed)",
      "channel": 2,
      "lane": "D"
    },
    {
      "time": 152.694,
      "duration": 0.007,
      "midi": 35,
      "noteNumber": 35,
      "velocity": 0.9,
      "track": "(unnamed)",
      "channel": 9,
      "lane": "D"
    },
    {
      "time": 152.694,
      "duration": 0.876,
      "midi": 39,
      "noteNumber": 39,
      "velocity": 0.66,
      "track": "(unnamed)",
      "channel": 1,
      "lane": "D"
    },
    {
      "time": 152.923,
      "duration": 0.056,
      "midi": 54,
      "noteNumber": 54,
      "velocity": 0.71,
      "track": "(unnamed)",
      "channel": 2,
      "lane": "J"
    },
    {
      "time": 152.923,
      "duration": 0.03,
      "midi": 58,
      "noteNumber": 58,
      "velocity": 0.54,
      "track": "(unnamed)",
      "channel": 2,
      "lane": "J"
    },
    {
      "time": 152.923,
      "duration": 0.06,
      "midi": 63,
      "noteNumber": 63,
      "velocity": 0.68,
      "track": "(unnamed)",
      "channel": 2,
      "lane": "J"
    },
    {
      "time": 153.278,
      "duration": 0.007,
      "midi": 40,
      "noteNumber": 40,
      "velocity": 0.86,
      "track": "(unnamed)",
      "channel": 9,
      "lane": "D"
    },
    {
      "time": 153.282,
      "duration": 0.112,
      "midi": 39,
      "noteNumber": 39,
      "velocity": 0.74,
      "track": "(unnamed)",
      "channel": 2,
      "lane": "D"
    },
    {
      "time": 153.413,
      "duration": 0.086,
      "midi": 54,
      "noteNumber": 54,
      "velocity": 0.71,
      "track": "(unnamed)",
      "channel": 2,
      "lane": "J"
    },
    {
      "time": 153.413,
      "duration": 0.041,
      "midi": 58,
      "noteNumber": 58,
      "velocity": 0.68,
      "track": "(unnamed)",
      "channel": 2,
      "lane": "J"
    },
    {
      "time": 153.413,
      "duration": 0.049,
      "midi": 63,
      "noteNumber": 63,
      "velocity": 0.54,
      "track": "(unnamed)",
      "channel": 2,
      "lane": "J"
    },
    {
      "time": 153.638,
      "duration": 0.007,
      "midi": 45,
      "noteNumber": 45,
      "velocity": 0.71,
      "track": "(unnamed)",
      "channel": 9,
      "lane": "F"
    },
    {
      "time": 153.772,
      "duration": 0.52,
      "midi": 46,
      "noteNumber": 46,
      "velocity": 0.71,
      "track": "(unnamed)",
      "channel": 2,
      "lane": "F"
    },
    {
      "time": 153.772,
      "duration": 0.007,
      "midi": 48,
      "noteNumber": 48,
      "velocity": 0.5,
      "track": "(unnamed)",
      "channel": 9,
      "lane": "F"
    },
    {
      "time": 153.772,
      "duration": 0.273,
      "midi": 46,
      "noteNumber": 46,
      "velocity": 0.51,
      "track": "(unnamed)",
      "channel": 1,
      "lane": "F"
    },
    {
      "time": 153.997,
      "duration": 0.007,
      "midi": 41,
      "noteNumber": 41,
      "velocity": 0.52,
      "track": "(unnamed)",
      "channel": 9,
      "lane": "D"
    },
    {
      "time": 154.132,
      "duration": 0.12,
      "midi": 53,
      "noteNumber": 53,
      "velocity": 0.57,
      "track": "(unnamed)",
      "channel": 2,
      "lane": "F"
    },
    {
      "time": 154.132,
      "duration": 0.12,
      "midi": 56,
      "noteNumber": 56,
      "velocity": 0.74,
      "track": "(unnamed)",
      "channel": 2,
      "lane": "J"
    },
    {
      "time": 154.132,
      "duration": 0.124,
      "midi": 61,
      "noteNumber": 61,
      "velocity": 0.71,
      "track": "(unnamed)",
      "channel": 2,
      "lane": "J"
    },
    {
      "time": 154.132,
      "duration": 0.007,
      "midi": 43,
      "noteNumber": 43,
      "velocity": 0.86,
      "track": "(unnamed)",
      "channel": 9,
      "lane": "F"
    },
    {
      "time": 154.132,
      "duration": 0.213,
      "midi": 34,
      "noteNumber": 34,
      "velocity": 0.51,
      "track": "(unnamed)",
      "channel": 1,
      "lane": "D"
    },
    {
      "time": 154.356,
      "duration": 0.007,
      "midi": 43,
      "noteNumber": 43,
      "velocity": 0.44,
      "track": "(unnamed)",
      "channel": 9,
      "lane": "F"
    },
    {
      "time": 154.491,
      "duration": 0.161,
      "midi": 39,
      "noteNumber": 39,
      "velocity": 0.6,
      "track": "(unnamed)",
      "channel": 2,
      "lane": "D"
    },
    {
      "time": 154.491,
      "duration": 0.007,
      "midi": 35,
      "noteNumber": 35,
      "velocity": 0.9,
      "track": "(unnamed)",
      "channel": 9,
      "lane": "D"
    },
    {
      "time": 154.491,
      "duration": 0.876,
      "midi": 39,
      "noteNumber": 39,
      "velocity": 0.66,
      "track": "(unnamed)",
      "channel": 1,
      "lane": "D"
    },
    {
      "time": 154.719,
      "duration": 0.056,
      "midi": 54,
      "noteNumber": 54,
      "velocity": 0.71,
      "track": "(unnamed)",
      "channel": 2,
      "lane": "J"
    },
    {
      "time": 154.719,
      "duration": 0.03,
      "midi": 58,
      "noteNumber": 58,
      "velocity": 0.54,
      "track": "(unnamed)",
      "channel": 2,
      "lane": "J"
    },
    {
      "time": 154.719,
      "duration": 0.06,
      "midi": 63,
      "noteNumber": 63,
      "velocity": 0.68,
      "track": "(unnamed)",
      "channel": 2,
      "lane": "J"
    },
    {
      "time": 155.075,
      "duration": 0.007,
      "midi": 40,
      "noteNumber": 40,
      "velocity": 0.86,
      "track": "(unnamed)",
      "channel": 9,
      "lane": "D"
    },
    {
      "time": 155.078,
      "duration": 0.112,
      "midi": 39,
      "noteNumber": 39,
      "velocity": 0.74,
      "track": "(unnamed)",
      "channel": 2,
      "lane": "D"
    },
    {
      "time": 155.209,
      "duration": 0.086,
      "midi": 54,
      "noteNumber": 54,
      "velocity": 0.71,
      "track": "(unnamed)",
      "channel": 2,
      "lane": "J"
    },
    {
      "time": 155.209,
      "duration": 0.041,
      "midi": 58,
      "noteNumber": 58,
      "velocity": 0.68,
      "track": "(unnamed)",
      "channel": 2,
      "lane": "J"
    },
    {
      "time": 155.209,
      "duration": 0.049,
      "midi": 63,
      "noteNumber": 63,
      "velocity": 0.54,
      "track": "(unnamed)",
      "channel": 2,
      "lane": "J"
    },
    {
      "time": 155.434,
      "duration": 0.007,
      "midi": 45,
      "noteNumber": 45,
      "velocity": 0.71,
      "track": "(unnamed)",
      "channel": 9,
      "lane": "F"
    },
    {
      "time": 155.569,
      "duration": 0.52,
      "midi": 46,
      "noteNumber": 46,
      "velocity": 0.71,
      "track": "(unnamed)",
      "channel": 2,
      "lane": "F"
    },
    {
      "time": 155.569,
      "duration": 0.007,
      "midi": 48,
      "noteNumber": 48,
      "velocity": 0.5,
      "track": "(unnamed)",
      "channel": 9,
      "lane": "F"
    },
    {
      "time": 155.569,
      "duration": 0.273,
      "midi": 46,
      "noteNumber": 46,
      "velocity": 0.51,
      "track": "(unnamed)",
      "channel": 1,
      "lane": "F"
    },
    {
      "time": 155.793,
      "duration": 0.007,
      "midi": 41,
      "noteNumber": 41,
      "velocity": 0.52,
      "track": "(unnamed)",
      "channel": 9,
      "lane": "D"
    },
    {
      "time": 155.928,
      "duration": 0.12,
      "midi": 53,
      "noteNumber": 53,
      "velocity": 0.57,
      "track": "(unnamed)",
      "channel": 2,
      "lane": "F"
    },
    {
      "time": 155.928,
      "duration": 0.12,
      "midi": 56,
      "noteNumber": 56,
      "velocity": 0.74,
      "track": "(unnamed)",
      "channel": 2,
      "lane": "J"
    },
    {
      "time": 155.928,
      "duration": 0.124,
      "midi": 61,
      "noteNumber": 61,
      "velocity": 0.71,
      "track": "(unnamed)",
      "channel": 2,
      "lane": "J"
    },
    {
      "time": 155.928,
      "duration": 0.007,
      "midi": 43,
      "noteNumber": 43,
      "velocity": 0.86,
      "track": "(unnamed)",
      "channel": 9,
      "lane": "F"
    },
    {
      "time": 155.928,
      "duration": 0.213,
      "midi": 34,
      "noteNumber": 34,
      "velocity": 0.51,
      "track": "(unnamed)",
      "channel": 1,
      "lane": "D"
    },
    {
      "time": 156.153,
      "duration": 0.007,
      "midi": 43,
      "noteNumber": 43,
      "velocity": 0.44,
      "track": "(unnamed)",
      "channel": 9,
      "lane": "F"
    },
    {
      "time": 156.287,
      "duration": 0.161,
      "midi": 39,
      "noteNumber": 39,
      "velocity": 0.6,
      "track": "(unnamed)",
      "channel": 2,
      "lane": "D"
    },
    {
      "time": 156.287,
      "duration": 0.007,
      "midi": 40,
      "noteNumber": 40,
      "velocity": 0.32,
      "track": "(unnamed)",
      "channel": 9,
      "lane": "D"
    },
    {
      "time": 156.287,
      "duration": 0.876,
      "midi": 39,
      "noteNumber": 39,
      "velocity": 0.66,
      "track": "(unnamed)",
      "channel": 1,
      "lane": "D"
    },
    {
      "time": 156.377,
      "duration": 0.007,
      "midi": 40,
      "noteNumber": 40,
      "velocity": 0.32,
      "track": "(unnamed)",
      "channel": 9,
      "lane": "D"
    },
    {
      "time": 156.467,
      "duration": 0.007,
      "midi": 40,
      "noteNumber": 40,
      "velocity": 0.4,
      "track": "(unnamed)",
      "channel": 9,
      "lane": "D"
    },
    {
      "time": 156.516,
      "duration": 0.056,
      "midi": 54,
      "noteNumber": 54,
      "velocity": 0.71,
      "track": "(unnamed)",
      "channel": 2,
      "lane": "J"
    },
    {
      "time": 156.516,
      "duration": 0.03,
      "midi": 58,
      "noteNumber": 58,
      "velocity": 0.54,
      "track": "(unnamed)",
      "channel": 2,
      "lane": "J"
    },
    {
      "time": 156.516,
      "duration": 0.06,
      "midi": 63,
      "noteNumber": 63,
      "velocity": 0.68,
      "track": "(unnamed)",
      "channel": 2,
      "lane": "J"
    },
    {
      "time": 156.557,
      "duration": 0.007,
      "midi": 40,
      "noteNumber": 40,
      "velocity": 0.4,
      "track": "(unnamed)",
      "channel": 9,
      "lane": "D"
    },
    {
      "time": 156.647,
      "duration": 0.007,
      "midi": 40,
      "noteNumber": 40,
      "velocity": 0.5,
      "track": "(unnamed)",
      "channel": 9,
      "lane": "D"
    },
    {
      "time": 156.736,
      "duration": 0.007,
      "midi": 40,
      "noteNumber": 40,
      "velocity": 0.67,
      "track": "(unnamed)",
      "channel": 9,
      "lane": "D"
    },
    {
      "time": 156.826,
      "duration": 0.007,
      "midi": 40,
      "noteNumber": 40,
      "velocity": 0.75,
      "track": "(unnamed)",
      "channel": 9,
      "lane": "D"
    },
    {
      "time": 156.875,
      "duration": 0.112,
      "midi": 39,
      "noteNumber": 39,
      "velocity": 0.74,
      "track": "(unnamed)",
      "channel": 2,
      "lane": "D"
    },
    {
      "time": 156.916,
      "duration": 0.007,
      "midi": 40,
      "noteNumber": 40,
      "velocity": 0.83,
      "track": "(unnamed)",
      "channel": 9,
      "lane": "D"
    },
    {
      "time": 157.006,
      "duration": 0.086,
      "midi": 54,
      "noteNumber": 54,
      "velocity": 0.71,
      "track": "(unnamed)",
      "channel": 2,
      "lane": "J"
    },
    {
      "time": 157.006,
      "duration": 0.041,
      "midi": 58,
      "noteNumber": 58,
      "velocity": 0.68,
      "track": "(unnamed)",
      "channel": 2,
      "lane": "J"
    },
    {
      "time": 157.006,
      "duration": 0.049,
      "midi": 63,
      "noteNumber": 63,
      "velocity": 0.54,
      "track": "(unnamed)",
      "channel": 2,
      "lane": "J"
    },
    {
      "time": 157.006,
      "duration": 0.007,
      "midi": 40,
      "noteNumber": 40,
      "velocity": 0.91,
      "track": "(unnamed)",
      "channel": 9,
      "lane": "D"
    },
    {
      "time": 157.365,
      "duration": 0.52,
      "midi": 46,
      "noteNumber": 46,
      "velocity": 0.71,
      "track": "(unnamed)",
      "channel": 2,
      "lane": "F"
    },
    {
      "time": 157.365,
      "duration": 0.273,
      "midi": 46,
      "noteNumber": 46,
      "velocity": 0.51,
      "track": "(unnamed)",
      "channel": 1,
      "lane": "F"
    },
    {
      "time": 157.724,
      "duration": 0.12,
      "midi": 53,
      "noteNumber": 53,
      "velocity": 0.57,
      "track": "(unnamed)",
      "channel": 2,
      "lane": "F"
    },
    {
      "time": 157.724,
      "duration": 0.12,
      "midi": 56,
      "noteNumber": 56,
      "velocity": 0.74,
      "track": "(unnamed)",
      "channel": 2,
      "lane": "J"
    },
    {
      "time": 157.724,
      "duration": 0.124,
      "midi": 61,
      "noteNumber": 61,
      "velocity": 0.71,
      "track": "(unnamed)",
      "channel": 2,
      "lane": "J"
    },
    {
      "time": 157.724,
      "duration": 0.213,
      "midi": 34,
      "noteNumber": 34,
      "velocity": 0.51,
      "track": "(unnamed)",
      "channel": 1,
      "lane": "D"
    },
    {
      "time": 158.084,
      "duration": 0.161,
      "midi": 39,
      "noteNumber": 39,
      "velocity": 0.6,
      "track": "(unnamed)",
      "channel": 2,
      "lane": "D"
    },
    {
      "time": 158.084,
      "duration": 0.007,
      "midi": 35,
      "noteNumber": 35,
      "velocity": 0.85,
      "track": "(unnamed)",
      "channel": 9,
      "lane": "D"
    },
    {
      "time": 158.084,
      "duration": 0.007,
      "midi": 43,
      "noteNumber": 43,
      "velocity": 1,
      "track": "(unnamed)",
      "channel": 9,
      "lane": "F"
    },
    {
      "time": 158.084,
      "duration": 0.876,
      "midi": 39,
      "noteNumber": 39,
      "velocity": 0.66,
      "track": "(unnamed)",
      "channel": 1,
      "lane": "D"
    },
    {
      "time": 158.312,
      "duration": 0.056,
      "midi": 54,
      "noteNumber": 54,
      "velocity": 0.71,
      "track": "(unnamed)",
      "channel": 2,
      "lane": "J"
    },
    {
      "time": 158.312,
      "duration": 0.03,
      "midi": 58,
      "noteNumber": 58,
      "velocity": 0.54,
      "track": "(unnamed)",
      "channel": 2,
      "lane": "J"
    },
    {
      "time": 158.312,
      "duration": 0.06,
      "midi": 63,
      "noteNumber": 63,
      "velocity": 0.68,
      "track": "(unnamed)",
      "channel": 2,
      "lane": "J"
    },
    {
      "time": 158.671,
      "duration": 0.112,
      "midi": 39,
      "noteNumber": 39,
      "velocity": 0.74,
      "track": "(unnamed)",
      "channel": 2,
      "lane": "D"
    },
    {
      "time": 158.802,
      "duration": 0.086,
      "midi": 54,
      "noteNumber": 54,
      "velocity": 0.71,
      "track": "(unnamed)",
      "channel": 2,
      "lane": "J"
    },
    {
      "time": 158.802,
      "duration": 0.041,
      "midi": 58,
      "noteNumber": 58,
      "velocity": 0.68,
      "track": "(unnamed)",
      "channel": 2,
      "lane": "J"
    },
    {
      "time": 158.802,
      "duration": 0.049,
      "midi": 63,
      "noteNumber": 63,
      "velocity": 0.54,
      "track": "(unnamed)",
      "channel": 2,
      "lane": "J"
    },
    {
      "time": 159.161,
      "duration": 0.52,
      "midi": 46,
      "noteNumber": 46,
      "velocity": 0.71,
      "track": "(unnamed)",
      "channel": 2,
      "lane": "F"
    },
    {
      "time": 159.161,
      "duration": 0.273,
      "midi": 46,
      "noteNumber": 46,
      "velocity": 0.51,
      "track": "(unnamed)",
      "channel": 1,
      "lane": "F"
    },
    {
      "time": 159.521,
      "duration": 0.12,
      "midi": 53,
      "noteNumber": 53,
      "velocity": 0.57,
      "track": "(unnamed)",
      "channel": 2,
      "lane": "F"
    },
    {
      "time": 159.521,
      "duration": 0.12,
      "midi": 56,
      "noteNumber": 56,
      "velocity": 0.74,
      "track": "(unnamed)",
      "channel": 2,
      "lane": "J"
    },
    {
      "time": 159.521,
      "duration": 0.124,
      "midi": 61,
      "noteNumber": 61,
      "velocity": 0.71,
      "track": "(unnamed)",
      "channel": 2,
      "lane": "J"
    },
    {
      "time": 159.521,
      "duration": 0.213,
      "midi": 34,
      "noteNumber": 34,
      "velocity": 0.51,
      "track": "(unnamed)",
      "channel": 1,
      "lane": "D"
    },
    {
      "time": 159.88,
      "duration": 0.161,
      "midi": 39,
      "noteNumber": 39,
      "velocity": 0.6,
      "track": "(unnamed)",
      "channel": 2,
      "lane": "D"
    },
    {
      "time": 159.88,
      "duration": 0.007,
      "midi": 40,
      "noteNumber": 40,
      "velocity": 0.32,
      "track": "(unnamed)",
      "channel": 9,
      "lane": "D"
    },
    {
      "time": 159.88,
      "duration": 0.876,
      "midi": 39,
      "noteNumber": 39,
      "velocity": 0.66,
      "track": "(unnamed)",
      "channel": 1,
      "lane": "D"
    },
    {
      "time": 159.97,
      "duration": 0.007,
      "midi": 40,
      "noteNumber": 40,
      "velocity": 0.32,
      "track": "(unnamed)",
      "channel": 9,
      "lane": "D"
    },
    {
      "time": 160.06,
      "duration": 0.007,
      "midi": 40,
      "noteNumber": 40,
      "velocity": 0.4,
      "track": "(unnamed)",
      "channel": 9,
      "lane": "D"
    },
    {
      "time": 160.108,
      "duration": 0.056,
      "midi": 54,
      "noteNumber": 54,
      "velocity": 0.71,
      "track": "(unnamed)",
      "channel": 2,
      "lane": "J"
    },
    {
      "time": 160.108,
      "duration": 0.03,
      "midi": 58,
      "noteNumber": 58,
      "velocity": 0.54,
      "track": "(unnamed)",
      "channel": 2,
      "lane": "J"
    },
    {
      "time": 160.108,
      "duration": 0.06,
      "midi": 63,
      "noteNumber": 63,
      "velocity": 0.68,
      "track": "(unnamed)",
      "channel": 2,
      "lane": "J"
    },
    {
      "time": 160.15,
      "duration": 0.007,
      "midi": 40,
      "noteNumber": 40,
      "velocity": 0.4,
      "track": "(unnamed)",
      "channel": 9,
      "lane": "D"
    },
    {
      "time": 160.239,
      "duration": 0.007,
      "midi": 40,
      "noteNumber": 40,
      "velocity": 0.5,
      "track": "(unnamed)",
      "channel": 9,
      "lane": "D"
    },
    {
      "time": 160.329,
      "duration": 0.007,
      "midi": 40,
      "noteNumber": 40,
      "velocity": 0.67,
      "track": "(unnamed)",
      "channel": 9,
      "lane": "D"
    },
    {
      "time": 160.419,
      "duration": 0.007,
      "midi": 40,
      "noteNumber": 40,
      "velocity": 0.75,
      "track": "(unnamed)",
      "channel": 9,
      "lane": "D"
    },
    {
      "time": 160.468,
      "duration": 0.112,
      "midi": 39,
      "noteNumber": 39,
      "velocity": 0.74,
      "track": "(unnamed)",
      "channel": 2,
      "lane": "D"
    },
    {
      "time": 160.509,
      "duration": 0.007,
      "midi": 40,
      "noteNumber": 40,
      "velocity": 0.83,
      "track": "(unnamed)",
      "channel": 9,
      "lane": "D"
    },
    {
      "time": 160.599,
      "duration": 0.086,
      "midi": 54,
      "noteNumber": 54,
      "velocity": 0.71,
      "track": "(unnamed)",
      "channel": 2,
      "lane": "J"
    },
    {
      "time": 160.599,
      "duration": 0.041,
      "midi": 58,
      "noteNumber": 58,
      "velocity": 0.68,
      "track": "(unnamed)",
      "channel": 2,
      "lane": "J"
    },
    {
      "time": 160.599,
      "duration": 0.049,
      "midi": 63,
      "noteNumber": 63,
      "velocity": 0.54,
      "track": "(unnamed)",
      "channel": 2,
      "lane": "J"
    },
    {
      "time": 160.599,
      "duration": 0.007,
      "midi": 40,
      "noteNumber": 40,
      "velocity": 0.91,
      "track": "(unnamed)",
      "channel": 9,
      "lane": "D"
    },
    {
      "time": 160.958,
      "duration": 0.52,
      "midi": 46,
      "noteNumber": 46,
      "velocity": 0.71,
      "track": "(unnamed)",
      "channel": 2,
      "lane": "F"
    },
    {
      "time": 160.958,
      "duration": 0.273,
      "midi": 46,
      "noteNumber": 46,
      "velocity": 0.51,
      "track": "(unnamed)",
      "channel": 1,
      "lane": "F"
    },
    {
      "time": 161.317,
      "duration": 0.12,
      "midi": 53,
      "noteNumber": 53,
      "velocity": 0.57,
      "track": "(unnamed)",
      "channel": 2,
      "lane": "F"
    },
    {
      "time": 161.317,
      "duration": 0.12,
      "midi": 56,
      "noteNumber": 56,
      "velocity": 0.74,
      "track": "(unnamed)",
      "channel": 2,
      "lane": "J"
    },
    {
      "time": 161.317,
      "duration": 0.124,
      "midi": 61,
      "noteNumber": 61,
      "velocity": 0.71,
      "track": "(unnamed)",
      "channel": 2,
      "lane": "J"
    },
    {
      "time": 161.317,
      "duration": 0.213,
      "midi": 34,
      "noteNumber": 34,
      "velocity": 0.51,
      "track": "(unnamed)",
      "channel": 1,
      "lane": "D"
    },
    {
      "time": 161.676,
      "duration": 0.161,
      "midi": 39,
      "noteNumber": 39,
      "velocity": 0.6,
      "track": "(unnamed)",
      "channel": 2,
      "lane": "D"
    },
    {
      "time": 161.676,
      "duration": 0.007,
      "midi": 35,
      "noteNumber": 35,
      "velocity": 0.85,
      "track": "(unnamed)",
      "channel": 9,
      "lane": "D"
    },
    {
      "time": 161.676,
      "duration": 0.007,
      "midi": 43,
      "noteNumber": 43,
      "velocity": 1,
      "track": "(unnamed)",
      "channel": 9,
      "lane": "F"
    },
    {
      "time": 161.676,
      "duration": 0.876,
      "midi": 39,
      "noteNumber": 39,
      "velocity": 0.66,
      "track": "(unnamed)",
      "channel": 1,
      "lane": "D"
    },
    {
      "time": 161.905,
      "duration": 0.056,
      "midi": 54,
      "noteNumber": 54,
      "velocity": 0.71,
      "track": "(unnamed)",
      "channel": 2,
      "lane": "J"
    },
    {
      "time": 161.905,
      "duration": 0.03,
      "midi": 58,
      "noteNumber": 58,
      "velocity": 0.54,
      "track": "(unnamed)",
      "channel": 2,
      "lane": "J"
    },
    {
      "time": 161.905,
      "duration": 0.06,
      "midi": 63,
      "noteNumber": 63,
      "velocity": 0.68,
      "track": "(unnamed)",
      "channel": 2,
      "lane": "J"
    },
    {
      "time": 162.264,
      "duration": 0.112,
      "midi": 39,
      "noteNumber": 39,
      "velocity": 0.74,
      "track": "(unnamed)",
      "channel": 2,
      "lane": "D"
    },
    {
      "time": 162.395,
      "duration": 0.086,
      "midi": 54,
      "noteNumber": 54,
      "velocity": 0.71,
      "track": "(unnamed)",
      "channel": 2,
      "lane": "J"
    },
    {
      "time": 162.395,
      "duration": 0.041,
      "midi": 58,
      "noteNumber": 58,
      "velocity": 0.68,
      "track": "(unnamed)",
      "channel": 2,
      "lane": "J"
    },
    {
      "time": 162.395,
      "duration": 0.049,
      "midi": 63,
      "noteNumber": 63,
      "velocity": 0.54,
      "track": "(unnamed)",
      "channel": 2,
      "lane": "J"
    },
    {
      "time": 162.754,
      "duration": 0.52,
      "midi": 46,
      "noteNumber": 46,
      "velocity": 0.71,
      "track": "(unnamed)",
      "channel": 2,
      "lane": "F"
    },
    {
      "time": 162.754,
      "duration": 0.273,
      "midi": 46,
      "noteNumber": 46,
      "velocity": 0.51,
      "track": "(unnamed)",
      "channel": 1,
      "lane": "F"
    },
    {
      "time": 163.114,
      "duration": 0.12,
      "midi": 53,
      "noteNumber": 53,
      "velocity": 0.57,
      "track": "(unnamed)",
      "channel": 2,
      "lane": "F"
    },
    {
      "time": 163.114,
      "duration": 0.12,
      "midi": 56,
      "noteNumber": 56,
      "velocity": 0.74,
      "track": "(unnamed)",
      "channel": 2,
      "lane": "J"
    },
    {
      "time": 163.114,
      "duration": 0.124,
      "midi": 61,
      "noteNumber": 61,
      "velocity": 0.71,
      "track": "(unnamed)",
      "channel": 2,
      "lane": "J"
    },
    {
      "time": 163.114,
      "duration": 0.213,
      "midi": 34,
      "noteNumber": 34,
      "velocity": 0.51,
      "track": "(unnamed)",
      "channel": 1,
      "lane": "D"
    },
    {
      "time": 163.473,
      "duration": 0.161,
      "midi": 39,
      "noteNumber": 39,
      "velocity": 0.6,
      "track": "(unnamed)",
      "channel": 2,
      "lane": "D"
    },
    {
      "time": 163.473,
      "duration": 0.007,
      "midi": 40,
      "noteNumber": 40,
      "velocity": 0.32,
      "track": "(unnamed)",
      "channel": 9,
      "lane": "D"
    },
    {
      "time": 163.473,
      "duration": 0.876,
      "midi": 39,
      "noteNumber": 39,
      "velocity": 0.66,
      "track": "(unnamed)",
      "channel": 1,
      "lane": "D"
    },
    {
      "time": 163.563,
      "duration": 0.007,
      "midi": 40,
      "noteNumber": 40,
      "velocity": 0.32,
      "track": "(unnamed)",
      "channel": 9,
      "lane": "D"
    },
    {
      "time": 163.652,
      "duration": 0.007,
      "midi": 40,
      "noteNumber": 40,
      "velocity": 0.4,
      "track": "(unnamed)",
      "channel": 9,
      "lane": "D"
    },
    {
      "time": 163.701,
      "duration": 0.056,
      "midi": 54,
      "noteNumber": 54,
      "velocity": 0.71,
      "track": "(unnamed)",
      "channel": 2,
      "lane": "J"
    },
    {
      "time": 163.701,
      "duration": 0.03,
      "midi": 58,
      "noteNumber": 58,
      "velocity": 0.54,
      "track": "(unnamed)",
      "channel": 2,
      "lane": "J"
    },
    {
      "time": 163.701,
      "duration": 0.06,
      "midi": 63,
      "noteNumber": 63,
      "velocity": 0.68,
      "track": "(unnamed)",
      "channel": 2,
      "lane": "J"
    },
    {
      "time": 163.742,
      "duration": 0.007,
      "midi": 40,
      "noteNumber": 40,
      "velocity": 0.4,
      "track": "(unnamed)",
      "channel": 9,
      "lane": "D"
    },
    {
      "time": 163.832,
      "duration": 0.007,
      "midi": 40,
      "noteNumber": 40,
      "velocity": 0.5,
      "track": "(unnamed)",
      "channel": 9,
      "lane": "D"
    },
    {
      "time": 163.922,
      "duration": 0.007,
      "midi": 40,
      "noteNumber": 40,
      "velocity": 0.67,
      "track": "(unnamed)",
      "channel": 9,
      "lane": "D"
    },
    {
      "time": 164.012,
      "duration": 0.007,
      "midi": 40,
      "noteNumber": 40,
      "velocity": 0.75,
      "track": "(unnamed)",
      "channel": 9,
      "lane": "D"
    },
    {
      "time": 164.06,
      "duration": 0.112,
      "midi": 39,
      "noteNumber": 39,
      "velocity": 0.74,
      "track": "(unnamed)",
      "channel": 2,
      "lane": "D"
    },
    {
      "time": 164.102,
      "duration": 0.007,
      "midi": 40,
      "noteNumber": 40,
      "velocity": 0.83,
      "track": "(unnamed)",
      "channel": 9,
      "lane": "D"
    },
    {
      "time": 164.191,
      "duration": 0.086,
      "midi": 54,
      "noteNumber": 54,
      "velocity": 0.71,
      "track": "(unnamed)",
      "channel": 2,
      "lane": "J"
    },
    {
      "time": 164.191,
      "duration": 0.041,
      "midi": 58,
      "noteNumber": 58,
      "velocity": 0.68,
      "track": "(unnamed)",
      "channel": 2,
      "lane": "J"
    },
    {
      "time": 164.191,
      "duration": 0.049,
      "midi": 63,
      "noteNumber": 63,
      "velocity": 0.54,
      "track": "(unnamed)",
      "channel": 2,
      "lane": "J"
    },
    {
      "time": 164.191,
      "duration": 0.007,
      "midi": 40,
      "noteNumber": 40,
      "velocity": 0.91,
      "track": "(unnamed)",
      "channel": 9,
      "lane": "D"
    },
    {
      "time": 164.551,
      "duration": 0.52,
      "midi": 46,
      "noteNumber": 46,
      "velocity": 0.71,
      "track": "(unnamed)",
      "channel": 2,
      "lane": "F"
    },
    {
      "time": 164.551,
      "duration": 0.273,
      "midi": 46,
      "noteNumber": 46,
      "velocity": 0.51,
      "track": "(unnamed)",
      "channel": 1,
      "lane": "F"
    },
    {
      "time": 164.91,
      "duration": 0.12,
      "midi": 53,
      "noteNumber": 53,
      "velocity": 0.57,
      "track": "(unnamed)",
      "channel": 2,
      "lane": "F"
    },
    {
      "time": 164.91,
      "duration": 0.12,
      "midi": 56,
      "noteNumber": 56,
      "velocity": 0.74,
      "track": "(unnamed)",
      "channel": 2,
      "lane": "J"
    },
    {
      "time": 164.91,
      "duration": 0.124,
      "midi": 61,
      "noteNumber": 61,
      "velocity": 0.71,
      "track": "(unnamed)",
      "channel": 2,
      "lane": "J"
    },
    {
      "time": 164.91,
      "duration": 0.213,
      "midi": 34,
      "noteNumber": 34,
      "velocity": 0.51,
      "track": "(unnamed)",
      "channel": 1,
      "lane": "D"
    },
    {
      "time": 165.269,
      "duration": 0.161,
      "midi": 39,
      "noteNumber": 39,
      "velocity": 0.6,
      "track": "(unnamed)",
      "channel": 2,
      "lane": "D"
    },
    {
      "time": 165.269,
      "duration": 0.007,
      "midi": 35,
      "noteNumber": 35,
      "velocity": 0.85,
      "track": "(unnamed)",
      "channel": 9,
      "lane": "D"
    },
    {
      "time": 165.269,
      "duration": 0.007,
      "midi": 43,
      "noteNumber": 43,
      "velocity": 1,
      "track": "(unnamed)",
      "channel": 9,
      "lane": "F"
    },
    {
      "time": 165.269,
      "duration": 0.876,
      "midi": 39,
      "noteNumber": 39,
      "velocity": 0.66,
      "track": "(unnamed)",
      "channel": 1,
      "lane": "D"
    },
    {
      "time": 165.498,
      "duration": 0.056,
      "midi": 54,
      "noteNumber": 54,
      "velocity": 0.71,
      "track": "(unnamed)",
      "channel": 2,
      "lane": "J"
    },
    {
      "time": 165.498,
      "duration": 0.03,
      "midi": 58,
      "noteNumber": 58,
      "velocity": 0.54,
      "track": "(unnamed)",
      "channel": 2,
      "lane": "J"
    },
    {
      "time": 165.498,
      "duration": 0.06,
      "midi": 63,
      "noteNumber": 63,
      "velocity": 0.68,
      "track": "(unnamed)",
      "channel": 2,
      "lane": "J"
    },
    {
      "time": 165.857,
      "duration": 0.112,
      "midi": 39,
      "noteNumber": 39,
      "velocity": 0.74,
      "track": "(unnamed)",
      "channel": 2,
      "lane": "D"
    },
    {
      "time": 165.988,
      "duration": 0.086,
      "midi": 54,
      "noteNumber": 54,
      "velocity": 0.71,
      "track": "(unnamed)",
      "channel": 2,
      "lane": "J"
    },
    {
      "time": 165.988,
      "duration": 0.041,
      "midi": 58,
      "noteNumber": 58,
      "velocity": 0.68,
      "track": "(unnamed)",
      "channel": 2,
      "lane": "J"
    },
    {
      "time": 165.988,
      "duration": 0.049,
      "midi": 63,
      "noteNumber": 63,
      "velocity": 0.54,
      "track": "(unnamed)",
      "channel": 2,
      "lane": "J"
    },
    {
      "time": 166.347,
      "duration": 0.52,
      "midi": 46,
      "noteNumber": 46,
      "velocity": 0.71,
      "track": "(unnamed)",
      "channel": 2,
      "lane": "F"
    },
    {
      "time": 166.347,
      "duration": 0.273,
      "midi": 46,
      "noteNumber": 46,
      "velocity": 0.51,
      "track": "(unnamed)",
      "channel": 1,
      "lane": "F"
    },
    {
      "time": 166.706,
      "duration": 0.12,
      "midi": 53,
      "noteNumber": 53,
      "velocity": 0.57,
      "track": "(unnamed)",
      "channel": 2,
      "lane": "F"
    },
    {
      "time": 166.706,
      "duration": 0.12,
      "midi": 56,
      "noteNumber": 56,
      "velocity": 0.74,
      "track": "(unnamed)",
      "channel": 2,
      "lane": "J"
    },
    {
      "time": 166.706,
      "duration": 0.124,
      "midi": 61,
      "noteNumber": 61,
      "velocity": 0.71,
      "track": "(unnamed)",
      "channel": 2,
      "lane": "J"
    },
    {
      "time": 166.706,
      "duration": 0.213,
      "midi": 34,
      "noteNumber": 34,
      "velocity": 0.51,
      "track": "(unnamed)",
      "channel": 1,
      "lane": "D"
    },
    {
      "time": 167.066,
      "duration": 0.161,
      "midi": 39,
      "noteNumber": 39,
      "velocity": 0.6,
      "track": "(unnamed)",
      "channel": 2,
      "lane": "D"
    },
    {
      "time": 167.066,
      "duration": 0.007,
      "midi": 40,
      "noteNumber": 40,
      "velocity": 0.32,
      "track": "(unnamed)",
      "channel": 9,
      "lane": "D"
    },
    {
      "time": 167.066,
      "duration": 0.876,
      "midi": 39,
      "noteNumber": 39,
      "velocity": 0.66,
      "track": "(unnamed)",
      "channel": 1,
      "lane": "D"
    },
    {
      "time": 167.155,
      "duration": 0.007,
      "midi": 40,
      "noteNumber": 40,
      "velocity": 0.32,
      "track": "(unnamed)",
      "channel": 9,
      "lane": "D"
    },
    {
      "time": 167.245,
      "duration": 0.007,
      "midi": 40,
      "noteNumber": 40,
      "velocity": 0.4,
      "track": "(unnamed)",
      "channel": 9,
      "lane": "D"
    },
    {
      "time": 167.294,
      "duration": 0.056,
      "midi": 54,
      "noteNumber": 54,
      "velocity": 0.71,
      "track": "(unnamed)",
      "channel": 2,
      "lane": "J"
    },
    {
      "time": 167.294,
      "duration": 0.03,
      "midi": 58,
      "noteNumber": 58,
      "velocity": 0.54,
      "track": "(unnamed)",
      "channel": 2,
      "lane": "J"
    },
    {
      "time": 167.294,
      "duration": 0.06,
      "midi": 63,
      "noteNumber": 63,
      "velocity": 0.68,
      "track": "(unnamed)",
      "channel": 2,
      "lane": "J"
    },
    {
      "time": 167.335,
      "duration": 0.007,
      "midi": 40,
      "noteNumber": 40,
      "velocity": 0.4,
      "track": "(unnamed)",
      "channel": 9,
      "lane": "D"
    },
    {
      "time": 167.425,
      "duration": 0.007,
      "midi": 40,
      "noteNumber": 40,
      "velocity": 0.5,
      "track": "(unnamed)",
      "channel": 9,
      "lane": "D"
    },
    {
      "time": 167.515,
      "duration": 0.007,
      "midi": 40,
      "noteNumber": 40,
      "velocity": 0.67,
      "track": "(unnamed)",
      "channel": 9,
      "lane": "D"
    },
    {
      "time": 167.605,
      "duration": 0.007,
      "midi": 40,
      "noteNumber": 40,
      "velocity": 0.75,
      "track": "(unnamed)",
      "channel": 9,
      "lane": "D"
    },
    {
      "time": 167.653,
      "duration": 0.112,
      "midi": 39,
      "noteNumber": 39,
      "velocity": 0.74,
      "track": "(unnamed)",
      "channel": 2,
      "lane": "D"
    },
    {
      "time": 167.694,
      "duration": 0.007,
      "midi": 40,
      "noteNumber": 40,
      "velocity": 0.83,
      "track": "(unnamed)",
      "channel": 9,
      "lane": "D"
    },
    {
      "time": 167.784,
      "duration": 0.086,
      "midi": 54,
      "noteNumber": 54,
      "velocity": 0.71,
      "track": "(unnamed)",
      "channel": 2,
      "lane": "J"
    },
    {
      "time": 167.784,
      "duration": 0.041,
      "midi": 58,
      "noteNumber": 58,
      "velocity": 0.68,
      "track": "(unnamed)",
      "channel": 2,
      "lane": "J"
    },
    {
      "time": 167.784,
      "duration": 0.049,
      "midi": 63,
      "noteNumber": 63,
      "velocity": 0.54,
      "track": "(unnamed)",
      "channel": 2,
      "lane": "J"
    },
    {
      "time": 167.784,
      "duration": 0.007,
      "midi": 40,
      "noteNumber": 40,
      "velocity": 0.91,
      "track": "(unnamed)",
      "channel": 9,
      "lane": "D"
    },
    {
      "time": 168.144,
      "duration": 0.52,
      "midi": 46,
      "noteNumber": 46,
      "velocity": 0.71,
      "track": "(unnamed)",
      "channel": 2,
      "lane": "F"
    },
    {
      "time": 168.144,
      "duration": 0.273,
      "midi": 46,
      "noteNumber": 46,
      "velocity": 0.51,
      "track": "(unnamed)",
      "channel": 1,
      "lane": "F"
    },
    {
      "time": 168.383,
      "duration": 0.007,
      "midi": 35,
      "noteNumber": 35,
      "velocity": 0.9,
      "track": "(unnamed)",
      "channel": 9,
      "lane": "D"
    },
    {
      "time": 168.383,
      "duration": 0.007,
      "midi": 41,
      "noteNumber": 41,
      "velocity": 1,
      "track": "(unnamed)",
      "channel": 9,
      "lane": "D"
    },
    {
      "time": 168.503,
      "duration": 0.12,
      "midi": 53,
      "noteNumber": 53,
      "velocity": 0.57,
      "track": "(unnamed)",
      "channel": 2,
      "lane": "F"
    },
    {
      "time": 168.503,
      "duration": 0.12,
      "midi": 56,
      "noteNumber": 56,
      "velocity": 0.74,
      "track": "(unnamed)",
      "channel": 2,
      "lane": "J"
    },
    {
      "time": 168.503,
      "duration": 0.124,
      "midi": 61,
      "noteNumber": 61,
      "velocity": 0.71,
      "track": "(unnamed)",
      "channel": 2,
      "lane": "J"
    },
    {
      "time": 168.503,
      "duration": 0.213,
      "midi": 34,
      "noteNumber": 34,
      "velocity": 0.51,
      "track": "(unnamed)",
      "channel": 1,
      "lane": "D"
    },
    {
      "time": 168.862,
      "duration": 0.161,
      "midi": 39,
      "noteNumber": 39,
      "velocity": 0.6,
      "track": "(unnamed)",
      "channel": 2,
      "lane": "D"
    },
    {
      "time": 168.862,
      "duration": 0.876,
      "midi": 39,
      "noteNumber": 39,
      "velocity": 0.66,
      "track": "(unnamed)",
      "channel": 1,
      "lane": "D"
    },
    {
      "time": 169.09,
      "duration": 0.056,
      "midi": 54,
      "noteNumber": 54,
      "velocity": 0.71,
      "track": "(unnamed)",
      "channel": 2,
      "lane": "J"
    },
    {
      "time": 169.09,
      "duration": 0.03,
      "midi": 58,
      "noteNumber": 58,
      "velocity": 0.54,
      "track": "(unnamed)",
      "channel": 2,
      "lane": "J"
    },
    {
      "time": 169.09,
      "duration": 0.06,
      "midi": 63,
      "noteNumber": 63,
      "velocity": 0.68,
      "track": "(unnamed)",
      "channel": 2,
      "lane": "J"
    },
    {
      "time": 169.45,
      "duration": 0.112,
      "midi": 39,
      "noteNumber": 39,
      "velocity": 0.74,
      "track": "(unnamed)",
      "channel": 2,
      "lane": "D"
    },
    {
      "time": 169.461,
      "duration": 0.007,
      "midi": 35,
      "noteNumber": 35,
      "velocity": 0.85,
      "track": "(unnamed)",
      "channel": 9,
      "lane": "D"
    },
    {
      "time": 169.461,
      "duration": 0.007,
      "midi": 41,
      "noteNumber": 41,
      "velocity": 0.94,
      "track": "(unnamed)",
      "channel": 9,
      "lane": "D"
    },
    {
      "time": 169.581,
      "duration": 0.086,
      "midi": 54,
      "noteNumber": 54,
      "velocity": 0.71,
      "track": "(unnamed)",
      "channel": 2,
      "lane": "J"
    },
    {
      "time": 169.581,
      "duration": 0.041,
      "midi": 58,
      "noteNumber": 58,
      "velocity": 0.68,
      "track": "(unnamed)",
      "channel": 2,
      "lane": "J"
    },
    {
      "time": 169.581,
      "duration": 0.049,
      "midi": 63,
      "noteNumber": 63,
      "velocity": 0.54,
      "track": "(unnamed)",
      "channel": 2,
      "lane": "J"
    },
    {
      "time": 169.94,
      "duration": 0.52,
      "midi": 46,
      "noteNumber": 46,
      "velocity": 0.71,
      "track": "(unnamed)",
      "channel": 2,
      "lane": "F"
    },
    {
      "time": 169.94,
      "duration": 0.273,
      "midi": 46,
      "noteNumber": 46,
      "velocity": 0.51,
      "track": "(unnamed)",
      "channel": 1,
      "lane": "F"
    },
    {
      "time": 170.299,
      "duration": 0.12,
      "midi": 53,
      "noteNumber": 53,
      "velocity": 0.57,
      "track": "(unnamed)",
      "channel": 2,
      "lane": "F"
    },
    {
      "time": 170.299,
      "duration": 0.12,
      "midi": 56,
      "noteNumber": 56,
      "velocity": 0.74,
      "track": "(unnamed)",
      "channel": 2,
      "lane": "J"
    },
    {
      "time": 170.299,
      "duration": 0.124,
      "midi": 61,
      "noteNumber": 61,
      "velocity": 0.71,
      "track": "(unnamed)",
      "channel": 2,
      "lane": "J"
    },
    {
      "time": 170.299,
      "duration": 0.213,
      "midi": 34,
      "noteNumber": 34,
      "velocity": 0.51,
      "track": "(unnamed)",
      "channel": 1,
      "lane": "D"
    },
    {
      "time": 170.658,
      "duration": 0.161,
      "midi": 39,
      "noteNumber": 39,
      "velocity": 0.6,
      "track": "(unnamed)",
      "channel": 2,
      "lane": "D"
    },
    {
      "time": 170.658,
      "duration": 0.007,
      "midi": 40,
      "noteNumber": 40,
      "velocity": 0.32,
      "track": "(unnamed)",
      "channel": 9,
      "lane": "D"
    },
    {
      "time": 170.658,
      "duration": 0.876,
      "midi": 39,
      "noteNumber": 39,
      "velocity": 0.66,
      "track": "(unnamed)",
      "channel": 1,
      "lane": "D"
    },
    {
      "time": 170.748,
      "duration": 0.007,
      "midi": 40,
      "noteNumber": 40,
      "velocity": 0.32,
      "track": "(unnamed)",
      "channel": 9,
      "lane": "D"
    },
    {
      "time": 170.838,
      "duration": 0.007,
      "midi": 40,
      "noteNumber": 40,
      "velocity": 0.4,
      "track": "(unnamed)",
      "channel": 9,
      "lane": "D"
    },
    {
      "time": 170.887,
      "duration": 0.056,
      "midi": 54,
      "noteNumber": 54,
      "velocity": 0.71,
      "track": "(unnamed)",
      "channel": 2,
      "lane": "J"
    },
    {
      "time": 170.887,
      "duration": 0.03,
      "midi": 58,
      "noteNumber": 58,
      "velocity": 0.54,
      "track": "(unnamed)",
      "channel": 2,
      "lane": "J"
    },
    {
      "time": 170.887,
      "duration": 0.06,
      "midi": 63,
      "noteNumber": 63,
      "velocity": 0.68,
      "track": "(unnamed)",
      "channel": 2,
      "lane": "J"
    },
    {
      "time": 170.928,
      "duration": 0.007,
      "midi": 40,
      "noteNumber": 40,
      "velocity": 0.4,
      "track": "(unnamed)",
      "channel": 9,
      "lane": "D"
    },
    {
      "time": 171.018,
      "duration": 0.007,
      "midi": 40,
      "noteNumber": 40,
      "velocity": 0.5,
      "track": "(unnamed)",
      "channel": 9,
      "lane": "D"
    },
    {
      "time": 171.108,
      "duration": 0.007,
      "midi": 40,
      "noteNumber": 40,
      "velocity": 0.67,
      "track": "(unnamed)",
      "channel": 9,
      "lane": "D"
    },
    {
      "time": 171.197,
      "duration": 0.007,
      "midi": 40,
      "noteNumber": 40,
      "velocity": 0.75,
      "track": "(unnamed)",
      "channel": 9,
      "lane": "D"
    },
    {
      "time": 171.246,
      "duration": 0.112,
      "midi": 39,
      "noteNumber": 39,
      "velocity": 0.74,
      "track": "(unnamed)",
      "channel": 2,
      "lane": "D"
    },
    {
      "time": 171.287,
      "duration": 0.007,
      "midi": 40,
      "noteNumber": 40,
      "velocity": 0.83,
      "track": "(unnamed)",
      "channel": 9,
      "lane": "D"
    },
    {
      "time": 171.377,
      "duration": 0.086,
      "midi": 54,
      "noteNumber": 54,
      "velocity": 0.71,
      "track": "(unnamed)",
      "channel": 2,
      "lane": "J"
    },
    {
      "time": 171.377,
      "duration": 0.041,
      "midi": 58,
      "noteNumber": 58,
      "velocity": 0.68,
      "track": "(unnamed)",
      "channel": 2,
      "lane": "J"
    },
    {
      "time": 171.377,
      "duration": 0.049,
      "midi": 63,
      "noteNumber": 63,
      "velocity": 0.54,
      "track": "(unnamed)",
      "channel": 2,
      "lane": "J"
    },
    {
      "time": 171.377,
      "duration": 0.007,
      "midi": 40,
      "noteNumber": 40,
      "velocity": 0.91,
      "track": "(unnamed)",
      "channel": 9,
      "lane": "D"
    },
    {
      "time": 171.736,
      "duration": 0.52,
      "midi": 46,
      "noteNumber": 46,
      "velocity": 0.71,
      "track": "(unnamed)",
      "channel": 2,
      "lane": "F"
    },
    {
      "time": 171.736,
      "duration": 0.273,
      "midi": 46,
      "noteNumber": 46,
      "velocity": 0.51,
      "track": "(unnamed)",
      "channel": 1,
      "lane": "F"
    },
    {
      "time": 171.976,
      "duration": 0.007,
      "midi": 35,
      "noteNumber": 35,
      "velocity": 0.9,
      "track": "(unnamed)",
      "channel": 9,
      "lane": "D"
    },
    {
      "time": 171.976,
      "duration": 0.007,
      "midi": 41,
      "noteNumber": 41,
      "velocity": 1,
      "track": "(unnamed)",
      "channel": 9,
      "lane": "D"
    },
    {
      "time": 172.096,
      "duration": 0.12,
      "midi": 53,
      "noteNumber": 53,
      "velocity": 0.57,
      "track": "(unnamed)",
      "channel": 2,
      "lane": "F"
    },
    {
      "time": 172.096,
      "duration": 0.12,
      "midi": 56,
      "noteNumber": 56,
      "velocity": 0.74,
      "track": "(unnamed)",
      "channel": 2,
      "lane": "J"
    },
    {
      "time": 172.096,
      "duration": 0.124,
      "midi": 61,
      "noteNumber": 61,
      "velocity": 0.71,
      "track": "(unnamed)",
      "channel": 2,
      "lane": "J"
    },
    {
      "time": 172.096,
      "duration": 0.213,
      "midi": 34,
      "noteNumber": 34,
      "velocity": 0.51,
      "track": "(unnamed)",
      "channel": 1,
      "lane": "D"
    },
    {
      "time": 172.455,
      "duration": 0.161,
      "midi": 39,
      "noteNumber": 39,
      "velocity": 0.6,
      "track": "(unnamed)",
      "channel": 2,
      "lane": "D"
    },
    {
      "time": 172.455,
      "duration": 0.007,
      "midi": 35,
      "noteNumber": 35,
      "velocity": 0.9,
      "track": "(unnamed)",
      "channel": 9,
      "lane": "D"
    },
    {
      "time": 172.455,
      "duration": 0.007,
      "midi": 41,
      "noteNumber": 41,
      "velocity": 1,
      "track": "(unnamed)",
      "channel": 9,
      "lane": "D"
    },
    {
      "time": 172.455,
      "duration": 0.876,
      "midi": 39,
      "noteNumber": 39,
      "velocity": 0.66,
      "track": "(unnamed)",
      "channel": 1,
      "lane": "D"
    },
    {
      "time": 172.683,
      "duration": 0.056,
      "midi": 54,
      "noteNumber": 54,
      "velocity": 0.71,
      "track": "(unnamed)",
      "channel": 2,
      "lane": "J"
    },
    {
      "time": 172.683,
      "duration": 0.03,
      "midi": 58,
      "noteNumber": 58,
      "velocity": 0.54,
      "track": "(unnamed)",
      "channel": 2,
      "lane": "J"
    },
    {
      "time": 172.683,
      "duration": 0.06,
      "midi": 63,
      "noteNumber": 63,
      "velocity": 0.68,
      "track": "(unnamed)",
      "channel": 2,
      "lane": "J"
    },
    {
      "time": 173.042,
      "duration": 0.112,
      "midi": 39,
      "noteNumber": 39,
      "velocity": 0.74,
      "track": "(unnamed)",
      "channel": 2,
      "lane": "D"
    },
    {
      "time": 173.173,
      "duration": 0.086,
      "midi": 54,
      "noteNumber": 54,
      "velocity": 0.71,
      "track": "(unnamed)",
      "channel": 2,
      "lane": "J"
    },
    {
      "time": 173.173,
      "duration": 0.041,
      "midi": 58,
      "noteNumber": 58,
      "velocity": 0.68,
      "track": "(unnamed)",
      "channel": 2,
      "lane": "J"
    },
    {
      "time": 173.173,
      "duration": 0.049,
      "midi": 63,
      "noteNumber": 63,
      "velocity": 0.54,
      "track": "(unnamed)",
      "channel": 2,
      "lane": "J"
    },
    {
      "time": 173.533,
      "duration": 0.52,
      "midi": 46,
      "noteNumber": 46,
      "velocity": 0.71,
      "track": "(unnamed)",
      "channel": 2,
      "lane": "F"
    },
    {
      "time": 173.533,
      "duration": 0.273,
      "midi": 46,
      "noteNumber": 46,
      "velocity": 0.51,
      "track": "(unnamed)",
      "channel": 1,
      "lane": "F"
    },
    {
      "time": 173.892,
      "duration": 0.12,
      "midi": 53,
      "noteNumber": 53,
      "velocity": 0.57,
      "track": "(unnamed)",
      "channel": 2,
      "lane": "F"
    },
    {
      "time": 173.892,
      "duration": 0.12,
      "midi": 56,
      "noteNumber": 56,
      "velocity": 0.74,
      "track": "(unnamed)",
      "channel": 2,
      "lane": "J"
    },
    {
      "time": 173.892,
      "duration": 0.124,
      "midi": 61,
      "noteNumber": 61,
      "velocity": 0.71,
      "track": "(unnamed)",
      "channel": 2,
      "lane": "J"
    },
    {
      "time": 173.892,
      "duration": 0.213,
      "midi": 34,
      "noteNumber": 34,
      "velocity": 0.51,
      "track": "(unnamed)",
      "channel": 1,
      "lane": "D"
    },
    {
      "time": 174.251,
      "duration": 0.161,
      "midi": 39,
      "noteNumber": 39,
      "velocity": 0.6,
      "track": "(unnamed)",
      "channel": 2,
      "lane": "D"
    },
    {
      "time": 174.251,
      "duration": 0.007,
      "midi": 40,
      "noteNumber": 40,
      "velocity": 0.92,
      "track": "(unnamed)",
      "channel": 9,
      "lane": "D"
    },
    {
      "time": 174.251,
      "duration": 0.876,
      "midi": 39,
      "noteNumber": 39,
      "velocity": 0.66,
      "track": "(unnamed)",
      "channel": 1,
      "lane": "D"
    },
    {
      "time": 174.341,
      "duration": 0.007,
      "midi": 40,
      "noteNumber": 40,
      "velocity": 0.32,
      "track": "(unnamed)",
      "channel": 9,
      "lane": "D"
    },
    {
      "time": 174.431,
      "duration": 0.007,
      "midi": 40,
      "noteNumber": 40,
      "velocity": 0.4,
      "track": "(unnamed)",
      "channel": 9,
      "lane": "D"
    },
    {
      "time": 174.48,
      "duration": 0.056,
      "midi": 54,
      "noteNumber": 54,
      "velocity": 0.71,
      "track": "(unnamed)",
      "channel": 2,
      "lane": "J"
    },
    {
      "time": 174.48,
      "duration": 0.03,
      "midi": 58,
      "noteNumber": 58,
      "velocity": 0.54,
      "track": "(unnamed)",
      "channel": 2,
      "lane": "J"
    },
    {
      "time": 174.48,
      "duration": 0.06,
      "midi": 63,
      "noteNumber": 63,
      "velocity": 0.68,
      "track": "(unnamed)",
      "channel": 2,
      "lane": "J"
    },
    {
      "time": 174.521,
      "duration": 0.007,
      "midi": 40,
      "noteNumber": 40,
      "velocity": 0.4,
      "track": "(unnamed)",
      "channel": 9,
      "lane": "D"
    },
    {
      "time": 174.611,
      "duration": 0.007,
      "midi": 40,
      "noteNumber": 40,
      "velocity": 0.5,
      "track": "(unnamed)",
      "channel": 9,
      "lane": "D"
    },
    {
      "time": 174.7,
      "duration": 0.007,
      "midi": 40,
      "noteNumber": 40,
      "velocity": 0.4,
      "track": "(unnamed)",
      "channel": 9,
      "lane": "D"
    },
    {
      "time": 174.79,
      "duration": 0.007,
      "midi": 40,
      "noteNumber": 40,
      "velocity": 0.5,
      "track": "(unnamed)",
      "channel": 9,
      "lane": "D"
    },
    {
      "time": 174.839,
      "duration": 0.112,
      "midi": 39,
      "noteNumber": 39,
      "velocity": 0.74,
      "track": "(unnamed)",
      "channel": 2,
      "lane": "D"
    },
    {
      "time": 174.88,
      "duration": 0.007,
      "midi": 40,
      "noteNumber": 40,
      "velocity": 0.62,
      "track": "(unnamed)",
      "channel": 9,
      "lane": "D"
    },
    {
      "time": 174.97,
      "duration": 0.086,
      "midi": 54,
      "noteNumber": 54,
      "velocity": 0.71,
      "track": "(unnamed)",
      "channel": 2,
      "lane": "J"
    },
    {
      "time": 174.97,
      "duration": 0.041,
      "midi": 58,
      "noteNumber": 58,
      "velocity": 0.68,
      "track": "(unnamed)",
      "channel": 2,
      "lane": "J"
    },
    {
      "time": 174.97,
      "duration": 0.049,
      "midi": 63,
      "noteNumber": 63,
      "velocity": 0.54,
      "track": "(unnamed)",
      "channel": 2,
      "lane": "J"
    },
    {
      "time": 174.97,
      "duration": 0.007,
      "midi": 40,
      "noteNumber": 40,
      "velocity": 0.97,
      "track": "(unnamed)",
      "channel": 9,
      "lane": "D"
    },
    {
      "time": 175.329,
      "duration": 0.52,
      "midi": 46,
      "noteNumber": 46,
      "velocity": 0.71,
      "track": "(unnamed)",
      "channel": 2,
      "lane": "F"
    },
    {
      "time": 175.329,
      "duration": 0.273,
      "midi": 46,
      "noteNumber": 46,
      "velocity": 0.51,
      "track": "(unnamed)",
      "channel": 1,
      "lane": "F"
    },
    {
      "time": 175.569,
      "duration": 0.007,
      "midi": 35,
      "noteNumber": 35,
      "velocity": 0.9,
      "track": "(unnamed)",
      "channel": 9,
      "lane": "D"
    },
    {
      "time": 175.569,
      "duration": 0.007,
      "midi": 41,
      "noteNumber": 41,
      "velocity": 1,
      "track": "(unnamed)",
      "channel": 9,
      "lane": "D"
    },
    {
      "time": 175.688,
      "duration": 0.12,
      "midi": 53,
      "noteNumber": 53,
      "velocity": 0.57,
      "track": "(unnamed)",
      "channel": 2,
      "lane": "F"
    },
    {
      "time": 175.688,
      "duration": 0.12,
      "midi": 56,
      "noteNumber": 56,
      "velocity": 0.74,
      "track": "(unnamed)",
      "channel": 2,
      "lane": "J"
    },
    {
      "time": 175.688,
      "duration": 0.124,
      "midi": 61,
      "noteNumber": 61,
      "velocity": 0.71,
      "track": "(unnamed)",
      "channel": 2,
      "lane": "J"
    },
    {
      "time": 175.688,
      "duration": 0.213,
      "midi": 34,
      "noteNumber": 34,
      "velocity": 0.51,
      "track": "(unnamed)",
      "channel": 1,
      "lane": "D"
    },
    {
      "time": 175.905,
      "duration": 0.007,
      "midi": 35,
      "noteNumber": 35,
      "velocity": 0.9,
      "track": "(unnamed)",
      "channel": 9,
      "lane": "D"
    },
    {
      "time": 176.048,
      "duration": 0.161,
      "midi": 39,
      "noteNumber": 39,
      "velocity": 0.6,
      "track": "(unnamed)",
      "channel": 2,
      "lane": "D"
    },
    {
      "time": 176.048,
      "duration": 0.007,
      "midi": 35,
      "noteNumber": 35,
      "velocity": 0.9,
      "track": "(unnamed)",
      "channel": 9,
      "lane": "D"
    },
    {
      "time": 176.048,
      "duration": 0.007,
      "midi": 41,
      "noteNumber": 41,
      "velocity": 1,
      "track": "(unnamed)",
      "channel": 9,
      "lane": "D"
    },
    {
      "time": 176.048,
      "duration": 0.876,
      "midi": 39,
      "noteNumber": 39,
      "velocity": 0.66,
      "track": "(unnamed)",
      "channel": 1,
      "lane": "D"
    },
    {
      "time": 176.276,
      "duration": 0.056,
      "midi": 54,
      "noteNumber": 54,
      "velocity": 0.71,
      "track": "(unnamed)",
      "channel": 2,
      "lane": "J"
    },
    {
      "time": 176.276,
      "duration": 0.03,
      "midi": 58,
      "noteNumber": 58,
      "velocity": 0.54,
      "track": "(unnamed)",
      "channel": 2,
      "lane": "J"
    },
    {
      "time": 176.276,
      "duration": 0.06,
      "midi": 63,
      "noteNumber": 63,
      "velocity": 0.68,
      "track": "(unnamed)",
      "channel": 2,
      "lane": "J"
    },
    {
      "time": 176.635,
      "duration": 0.112,
      "midi": 39,
      "noteNumber": 39,
      "velocity": 0.74,
      "track": "(unnamed)",
      "channel": 2,
      "lane": "D"
    },
    {
      "time": 176.766,
      "duration": 0.086,
      "midi": 54,
      "noteNumber": 54,
      "velocity": 0.71,
      "track": "(unnamed)",
      "channel": 2,
      "lane": "J"
    },
    {
      "time": 176.766,
      "duration": 0.041,
      "midi": 58,
      "noteNumber": 58,
      "velocity": 0.68,
      "track": "(unnamed)",
      "channel": 2,
      "lane": "J"
    },
    {
      "time": 176.766,
      "duration": 0.049,
      "midi": 63,
      "noteNumber": 63,
      "velocity": 0.54,
      "track": "(unnamed)",
      "channel": 2,
      "lane": "J"
    },
    {
      "time": 177.126,
      "duration": 0.52,
      "midi": 46,
      "noteNumber": 46,
      "velocity": 0.71,
      "track": "(unnamed)",
      "channel": 2,
      "lane": "F"
    },
    {
      "time": 177.126,
      "duration": 0.273,
      "midi": 46,
      "noteNumber": 46,
      "velocity": 0.51,
      "track": "(unnamed)",
      "channel": 1,
      "lane": "F"
    },
    {
      "time": 177.365,
      "duration": 0.007,
      "midi": 45,
      "noteNumber": 45,
      "velocity": 0.6,
      "track": "(unnamed)",
      "channel": 9,
      "lane": "F"
    },
    {
      "time": 177.485,
      "duration": 0.12,
      "midi": 53,
      "noteNumber": 53,
      "velocity": 0.57,
      "track": "(unnamed)",
      "channel": 2,
      "lane": "F"
    },
    {
      "time": 177.485,
      "duration": 0.12,
      "midi": 56,
      "noteNumber": 56,
      "velocity": 0.74,
      "track": "(unnamed)",
      "channel": 2,
      "lane": "J"
    },
    {
      "time": 177.485,
      "duration": 0.124,
      "midi": 61,
      "noteNumber": 61,
      "velocity": 0.71,
      "track": "(unnamed)",
      "channel": 2,
      "lane": "J"
    },
    {
      "time": 177.485,
      "duration": 0.007,
      "midi": 43,
      "noteNumber": 43,
      "velocity": 0.9,
      "track": "(unnamed)",
      "channel": 9,
      "lane": "F"
    },
    {
      "time": 177.485,
      "duration": 0.213,
      "midi": 34,
      "noteNumber": 34,
      "velocity": 0.51,
      "track": "(unnamed)",
      "channel": 1,
      "lane": "D"
    },
    {
      "time": 177.844,
      "duration": 0.161,
      "midi": 39,
      "noteNumber": 39,
      "velocity": 0.6,
      "track": "(unnamed)",
      "channel": 2,
      "lane": "D"
    },
    {
      "time": 177.844,
      "duration": 0.007,
      "midi": 40,
      "noteNumber": 40,
      "velocity": 0.92,
      "track": "(unnamed)",
      "channel": 9,
      "lane": "D"
    },
    {
      "time": 177.844,
      "duration": 0.876,
      "midi": 39,
      "noteNumber": 39,
      "velocity": 0.66,
      "track": "(unnamed)",
      "channel": 1,
      "lane": "D"
    },
    {
      "time": 177.934,
      "duration": 0.007,
      "midi": 40,
      "noteNumber": 40,
      "velocity": 0.32,
      "track": "(unnamed)",
      "channel": 9,
      "lane": "D"
    },
    {
      "time": 178.024,
      "duration": 0.007,
      "midi": 40,
      "noteNumber": 40,
      "velocity": 0.4,
      "track": "(unnamed)",
      "channel": 9,
      "lane": "D"
    },
    {
      "time": 178.072,
      "duration": 0.056,
      "midi": 54,
      "noteNumber": 54,
      "velocity": 0.71,
      "track": "(unnamed)",
      "channel": 2,
      "lane": "J"
    },
    {
      "time": 178.072,
      "duration": 0.03,
      "midi": 58,
      "noteNumber": 58,
      "velocity": 0.54,
      "track": "(unnamed)",
      "channel": 2,
      "lane": "J"
    },
    {
      "time": 178.072,
      "duration": 0.06,
      "midi": 63,
      "noteNumber": 63,
      "velocity": 0.68,
      "track": "(unnamed)",
      "channel": 2,
      "lane": "J"
    },
    {
      "time": 178.114,
      "duration": 0.007,
      "midi": 40,
      "noteNumber": 40,
      "velocity": 0.4,
      "track": "(unnamed)",
      "channel": 9,
      "lane": "D"
    },
    {
      "time": 178.203,
      "duration": 0.007,
      "midi": 40,
      "noteNumber": 40,
      "velocity": 0.5,
      "track": "(unnamed)",
      "channel": 9,
      "lane": "D"
    },
    {
      "time": 178.293,
      "duration": 0.007,
      "midi": 40,
      "noteNumber": 40,
      "velocity": 0.4,
      "track": "(unnamed)",
      "channel": 9,
      "lane": "D"
    },
    {
      "time": 178.383,
      "duration": 0.007,
      "midi": 40,
      "noteNumber": 40,
      "velocity": 0.5,
      "track": "(unnamed)",
      "channel": 9,
      "lane": "D"
    },
    {
      "time": 178.432,
      "duration": 0.112,
      "midi": 39,
      "noteNumber": 39,
      "velocity": 0.74,
      "track": "(unnamed)",
      "channel": 2,
      "lane": "D"
    },
    {
      "time": 178.473,
      "duration": 0.007,
      "midi": 40,
      "noteNumber": 40,
      "velocity": 0.62,
      "track": "(unnamed)",
      "channel": 9,
      "lane": "D"
    },
    {
      "time": 178.563,
      "duration": 0.086,
      "midi": 54,
      "noteNumber": 54,
      "velocity": 0.71,
      "track": "(unnamed)",
      "channel": 2,
      "lane": "J"
    },
    {
      "time": 178.563,
      "duration": 0.041,
      "midi": 58,
      "noteNumber": 58,
      "velocity": 0.68,
      "track": "(unnamed)",
      "channel": 2,
      "lane": "J"
    },
    {
      "time": 178.563,
      "duration": 0.049,
      "midi": 63,
      "noteNumber": 63,
      "velocity": 0.54,
      "track": "(unnamed)",
      "channel": 2,
      "lane": "J"
    },
    {
      "time": 178.563,
      "duration": 0.007,
      "midi": 40,
      "noteNumber": 40,
      "velocity": 0.97,
      "track": "(unnamed)",
      "channel": 9,
      "lane": "D"
    },
    {
      "time": 178.922,
      "duration": 0.52,
      "midi": 46,
      "noteNumber": 46,
      "velocity": 0.71,
      "track": "(unnamed)",
      "channel": 2,
      "lane": "F"
    },
    {
      "time": 178.922,
      "duration": 0.273,
      "midi": 46,
      "noteNumber": 46,
      "velocity": 0.51,
      "track": "(unnamed)",
      "channel": 1,
      "lane": "F"
    },
    {
      "time": 179.161,
      "duration": 0.007,
      "midi": 35,
      "noteNumber": 35,
      "velocity": 0.9,
      "track": "(unnamed)",
      "channel": 9,
      "lane": "D"
    },
    {
      "time": 179.161,
      "duration": 0.007,
      "midi": 41,
      "noteNumber": 41,
      "velocity": 1,
      "track": "(unnamed)",
      "channel": 9,
      "lane": "D"
    },
    {
      "time": 179.281,
      "duration": 0.12,
      "midi": 53,
      "noteNumber": 53,
      "velocity": 0.57,
      "track": "(unnamed)",
      "channel": 2,
      "lane": "F"
    },
    {
      "time": 179.281,
      "duration": 0.12,
      "midi": 56,
      "noteNumber": 56,
      "velocity": 0.74,
      "track": "(unnamed)",
      "channel": 2,
      "lane": "J"
    },
    {
      "time": 179.281,
      "duration": 0.124,
      "midi": 61,
      "noteNumber": 61,
      "velocity": 0.71,
      "track": "(unnamed)",
      "channel": 2,
      "lane": "J"
    },
    {
      "time": 179.281,
      "duration": 0.213,
      "midi": 34,
      "noteNumber": 34,
      "velocity": 0.51,
      "track": "(unnamed)",
      "channel": 1,
      "lane": "D"
    },
    {
      "time": 179.498,
      "duration": 0.007,
      "midi": 35,
      "noteNumber": 35,
      "velocity": 0.9,
      "track": "(unnamed)",
      "channel": 9,
      "lane": "D"
    },
    {
      "time": 179.641,
      "duration": 0.161,
      "midi": 39,
      "noteNumber": 39,
      "velocity": 0.6,
      "track": "(unnamed)",
      "channel": 2,
      "lane": "D"
    },
    {
      "time": 179.641,
      "duration": 0.007,
      "midi": 35,
      "noteNumber": 35,
      "velocity": 0.9,
      "track": "(unnamed)",
      "channel": 9,
      "lane": "D"
    },
    {
      "time": 179.641,
      "duration": 0.007,
      "midi": 41,
      "noteNumber": 41,
      "velocity": 1,
      "track": "(unnamed)",
      "channel": 9,
      "lane": "D"
    },
    {
      "time": 179.641,
      "duration": 0.876,
      "midi": 39,
      "noteNumber": 39,
      "velocity": 0.66,
      "track": "(unnamed)",
      "channel": 1,
      "lane": "D"
    },
    {
      "time": 179.869,
      "duration": 0.056,
      "midi": 54,
      "noteNumber": 54,
      "velocity": 0.71,
      "track": "(unnamed)",
      "channel": 2,
      "lane": "J"
    },
    {
      "time": 179.869,
      "duration": 0.03,
      "midi": 58,
      "noteNumber": 58,
      "velocity": 0.54,
      "track": "(unnamed)",
      "channel": 2,
      "lane": "J"
    },
    {
      "time": 179.869,
      "duration": 0.06,
      "midi": 63,
      "noteNumber": 63,
      "velocity": 0.68,
      "track": "(unnamed)",
      "channel": 2,
      "lane": "J"
    },
    {
      "time": 180.228,
      "duration": 0.112,
      "midi": 39,
      "noteNumber": 39,
      "velocity": 0.74,
      "track": "(unnamed)",
      "channel": 2,
      "lane": "D"
    },
    {
      "time": 180.359,
      "duration": 0.086,
      "midi": 54,
      "noteNumber": 54,
      "velocity": 0.71,
      "track": "(unnamed)",
      "channel": 2,
      "lane": "J"
    },
    {
      "time": 180.359,
      "duration": 0.041,
      "midi": 58,
      "noteNumber": 58,
      "velocity": 0.68,
      "track": "(unnamed)",
      "channel": 2,
      "lane": "J"
    },
    {
      "time": 180.359,
      "duration": 0.049,
      "midi": 63,
      "noteNumber": 63,
      "velocity": 0.54,
      "track": "(unnamed)",
      "channel": 2,
      "lane": "J"
    },
    {
      "time": 180.718,
      "duration": 0.52,
      "midi": 46,
      "noteNumber": 46,
      "velocity": 0.71,
      "track": "(unnamed)",
      "channel": 2,
      "lane": "F"
    },
    {
      "time": 180.718,
      "duration": 0.273,
      "midi": 46,
      "noteNumber": 46,
      "velocity": 0.51,
      "track": "(unnamed)",
      "channel": 1,
      "lane": "F"
    },
    {
      "time": 180.958,
      "duration": 0.007,
      "midi": 45,
      "noteNumber": 45,
      "velocity": 0.6,
      "track": "(unnamed)",
      "channel": 9,
      "lane": "F"
    },
    {
      "time": 181.078,
      "duration": 0.12,
      "midi": 53,
      "noteNumber": 53,
      "velocity": 0.57,
      "track": "(unnamed)",
      "channel": 2,
      "lane": "F"
    },
    {
      "time": 181.078,
      "duration": 0.12,
      "midi": 56,
      "noteNumber": 56,
      "velocity": 0.74,
      "track": "(unnamed)",
      "channel": 2,
      "lane": "J"
    },
    {
      "time": 181.078,
      "duration": 0.124,
      "midi": 61,
      "noteNumber": 61,
      "velocity": 0.71,
      "track": "(unnamed)",
      "channel": 2,
      "lane": "J"
    },
    {
      "time": 181.078,
      "duration": 0.007,
      "midi": 43,
      "noteNumber": 43,
      "velocity": 0.9,
      "track": "(unnamed)",
      "channel": 9,
      "lane": "F"
    },
    {
      "time": 181.078,
      "duration": 0.213,
      "midi": 34,
      "noteNumber": 34,
      "velocity": 0.51,
      "track": "(unnamed)",
      "channel": 1,
      "lane": "D"
    },
    {
      "time": 181.437,
      "duration": 0.161,
      "midi": 39,
      "noteNumber": 39,
      "velocity": 0.6,
      "track": "(unnamed)",
      "channel": 2,
      "lane": "D"
    },
    {
      "time": 181.437,
      "duration": 0.876,
      "midi": 39,
      "noteNumber": 39,
      "velocity": 0.66,
      "track": "(unnamed)",
      "channel": 1,
      "lane": "D"
    },
    {
      "time": 181.665,
      "duration": 0.056,
      "midi": 54,
      "noteNumber": 54,
      "velocity": 0.71,
      "track": "(unnamed)",
      "channel": 2,
      "lane": "J"
    },
    {
      "time": 181.665,
      "duration": 0.03,
      "midi": 58,
      "noteNumber": 58,
      "velocity": 0.54,
      "track": "(unnamed)",
      "channel": 2,
      "lane": "J"
    },
    {
      "time": 181.665,
      "duration": 0.06,
      "midi": 63,
      "noteNumber": 63,
      "velocity": 0.68,
      "track": "(unnamed)",
      "channel": 2,
      "lane": "J"
    },
    {
      "time": 182.024,
      "duration": 0.112,
      "midi": 39,
      "noteNumber": 39,
      "velocity": 0.74,
      "track": "(unnamed)",
      "channel": 2,
      "lane": "D"
    },
    {
      "time": 182.036,
      "duration": 0.007,
      "midi": 40,
      "noteNumber": 40,
      "velocity": 0.91,
      "track": "(unnamed)",
      "channel": 9,
      "lane": "D"
    },
    {
      "time": 182.073,
      "duration": 0.007,
      "midi": 40,
      "noteNumber": 40,
      "velocity": 0.32,
      "track": "(unnamed)",
      "channel": 9,
      "lane": "D"
    },
    {
      "time": 182.118,
      "duration": 0.007,
      "midi": 40,
      "noteNumber": 40,
      "velocity": 0.23,
      "track": "(unnamed)",
      "channel": 9,
      "lane": "D"
    },
    {
      "time": 182.155,
      "duration": 0.086,
      "midi": 54,
      "noteNumber": 54,
      "velocity": 0.71,
      "track": "(unnamed)",
      "channel": 2,
      "lane": "J"
    },
    {
      "time": 182.155,
      "duration": 0.041,
      "midi": 58,
      "noteNumber": 58,
      "velocity": 0.68,
      "track": "(unnamed)",
      "channel": 2,
      "lane": "J"
    },
    {
      "time": 182.155,
      "duration": 0.049,
      "midi": 63,
      "noteNumber": 63,
      "velocity": 0.54,
      "track": "(unnamed)",
      "channel": 2,
      "lane": "J"
    },
    {
      "time": 182.155,
      "duration": 0.007,
      "midi": 40,
      "noteNumber": 40,
      "velocity": 0.28,
      "track": "(unnamed)",
      "channel": 9,
      "lane": "D"
    },
    {
      "time": 182.193,
      "duration": 0.007,
      "midi": 40,
      "noteNumber": 40,
      "velocity": 0.32,
      "track": "(unnamed)",
      "channel": 9,
      "lane": "D"
    },
    {
      "time": 182.23,
      "duration": 0.007,
      "midi": 40,
      "noteNumber": 40,
      "velocity": 0.39,
      "track": "(unnamed)",
      "channel": 9,
      "lane": "D"
    },
    {
      "time": 182.268,
      "duration": 0.007,
      "midi": 40,
      "noteNumber": 40,
      "velocity": 0.48,
      "track": "(unnamed)",
      "channel": 9,
      "lane": "D"
    },
    {
      "time": 182.305,
      "duration": 0.007,
      "midi": 40,
      "noteNumber": 40,
      "velocity": 0.61,
      "track": "(unnamed)",
      "channel": 9,
      "lane": "D"
    },
    {
      "time": 182.343,
      "duration": 0.007,
      "midi": 40,
      "noteNumber": 40,
      "velocity": 0.43,
      "track": "(unnamed)",
      "channel": 9,
      "lane": "D"
    },
    {
      "time": 182.395,
      "duration": 0.007,
      "midi": 40,
      "noteNumber": 40,
      "velocity": 0.69,
      "track": "(unnamed)",
      "channel": 9,
      "lane": "D"
    },
    {
      "time": 182.515,
      "duration": 0.52,
      "midi": 46,
      "noteNumber": 46,
      "velocity": 0.71,
      "track": "(unnamed)",
      "channel": 2,
      "lane": "F"
    },
    {
      "time": 182.515,
      "duration": 0.007,
      "midi": 40,
      "noteNumber": 40,
      "velocity": 0.92,
      "track": "(unnamed)",
      "channel": 9,
      "lane": "D"
    },
    {
      "time": 182.515,
      "duration": 0.273,
      "midi": 46,
      "noteNumber": 46,
      "velocity": 0.51,
      "track": "(unnamed)",
      "channel": 1,
      "lane": "F"
    },
    {
      "time": 182.874,
      "duration": 0.12,
      "midi": 53,
      "noteNumber": 53,
      "velocity": 0.57,
      "track": "(unnamed)",
      "channel": 2,
      "lane": "F"
    },
    {
      "time": 182.874,
      "duration": 0.12,
      "midi": 56,
      "noteNumber": 56,
      "velocity": 0.74,
      "track": "(unnamed)",
      "channel": 2,
      "lane": "J"
    },
    {
      "time": 182.874,
      "duration": 0.124,
      "midi": 61,
      "noteNumber": 61,
      "velocity": 0.71,
      "track": "(unnamed)",
      "channel": 2,
      "lane": "J"
    },
    {
      "time": 182.874,
      "duration": 0.213,
      "midi": 34,
      "noteNumber": 34,
      "velocity": 0.51,
      "track": "(unnamed)",
      "channel": 1,
      "lane": "D"
    },
    {
      "time": 183.114,
      "duration": 0.007,
      "midi": 40,
      "noteNumber": 40,
      "velocity": 0.78,
      "track": "(unnamed)",
      "channel": 9,
      "lane": "D"
    },
    {
      "time": 183.233,
      "duration": 0.161,
      "midi": 39,
      "noteNumber": 39,
      "velocity": 0.6,
      "track": "(unnamed)",
      "channel": 2,
      "lane": "D"
    },
    {
      "time": 183.233,
      "duration": 0.007,
      "midi": 43,
      "noteNumber": 43,
      "velocity": 0.94,
      "track": "(unnamed)",
      "channel": 9,
      "lane": "F"
    },
    {
      "time": 183.233,
      "duration": 0.876,
      "midi": 39,
      "noteNumber": 39,
      "velocity": 0.66,
      "track": "(unnamed)",
      "channel": 1,
      "lane": "D"
    },
    {
      "time": 183.462,
      "duration": 0.056,
      "midi": 54,
      "noteNumber": 54,
      "velocity": 0.71,
      "track": "(unnamed)",
      "channel": 2,
      "lane": "J"
    },
    {
      "time": 183.462,
      "duration": 0.03,
      "midi": 58,
      "noteNumber": 58,
      "velocity": 0.54,
      "track": "(unnamed)",
      "channel": 2,
      "lane": "J"
    },
    {
      "time": 183.462,
      "duration": 0.06,
      "midi": 63,
      "noteNumber": 63,
      "velocity": 0.68,
      "track": "(unnamed)",
      "channel": 2,
      "lane": "J"
    },
    {
      "time": 183.821,
      "duration": 0.112,
      "midi": 39,
      "noteNumber": 39,
      "velocity": 0.74,
      "track": "(unnamed)",
      "channel": 2,
      "lane": "D"
    },
    {
      "time": 183.952,
      "duration": 0.086,
      "midi": 54,
      "noteNumber": 54,
      "velocity": 0.71,
      "track": "(unnamed)",
      "channel": 2,
      "lane": "J"
    },
    {
      "time": 183.952,
      "duration": 0.041,
      "midi": 58,
      "noteNumber": 58,
      "velocity": 0.68,
      "track": "(unnamed)",
      "channel": 2,
      "lane": "J"
    },
    {
      "time": 183.952,
      "duration": 0.049,
      "midi": 63,
      "noteNumber": 63,
      "velocity": 0.54,
      "track": "(unnamed)",
      "channel": 2,
      "lane": "J"
    },
    {
      "time": 184.191,
      "duration": 0.007,
      "midi": 40,
      "noteNumber": 40,
      "velocity": 0.83,
      "track": "(unnamed)",
      "channel": 9,
      "lane": "D"
    },
    {
      "time": 184.311,
      "duration": 0.52,
      "midi": 46,
      "noteNumber": 46,
      "velocity": 0.71,
      "track": "(unnamed)",
      "channel": 2,
      "lane": "F"
    },
    {
      "time": 184.311,
      "duration": 0.007,
      "midi": 40,
      "noteNumber": 40,
      "velocity": 0.92,
      "track": "(unnamed)",
      "channel": 9,
      "lane": "D"
    },
    {
      "time": 184.311,
      "duration": 0.273,
      "midi": 46,
      "noteNumber": 46,
      "velocity": 0.51,
      "track": "(unnamed)",
      "channel": 1,
      "lane": "F"
    },
    {
      "time": 184.67,
      "duration": 0.12,
      "midi": 53,
      "noteNumber": 53,
      "velocity": 0.57,
      "track": "(unnamed)",
      "channel": 2,
      "lane": "F"
    },
    {
      "time": 184.67,
      "duration": 0.12,
      "midi": 56,
      "noteNumber": 56,
      "velocity": 0.74,
      "track": "(unnamed)",
      "channel": 2,
      "lane": "J"
    },
    {
      "time": 184.67,
      "duration": 0.124,
      "midi": 61,
      "noteNumber": 61,
      "velocity": 0.71,
      "track": "(unnamed)",
      "channel": 2,
      "lane": "J"
    },
    {
      "time": 184.67,
      "duration": 0.007,
      "midi": 40,
      "noteNumber": 40,
      "velocity": 0.87,
      "track": "(unnamed)",
      "channel": 9,
      "lane": "D"
    },
    {
      "time": 184.67,
      "duration": 0.213,
      "midi": 34,
      "noteNumber": 34,
      "velocity": 0.51,
      "track": "(unnamed)",
      "channel": 1,
      "lane": "D"
    },
    {
      "time": 185.03,
      "duration": 0.161,
      "midi": 39,
      "noteNumber": 39,
      "velocity": 0.6,
      "track": "(unnamed)",
      "channel": 2,
      "lane": "D"
    },
    {
      "time": 185.03,
      "duration": 0.876,
      "midi": 39,
      "noteNumber": 39,
      "velocity": 0.66,
      "track": "(unnamed)",
      "channel": 1,
      "lane": "D"
    },
    {
      "time": 185.258,
      "duration": 0.056,
      "midi": 54,
      "noteNumber": 54,
      "velocity": 0.71,
      "track": "(unnamed)",
      "channel": 2,
      "lane": "J"
    },
    {
      "time": 185.258,
      "duration": 0.03,
      "midi": 58,
      "noteNumber": 58,
      "velocity": 0.54,
      "track": "(unnamed)",
      "channel": 2,
      "lane": "J"
    },
    {
      "time": 185.258,
      "duration": 0.06,
      "midi": 63,
      "noteNumber": 63,
      "velocity": 0.68,
      "track": "(unnamed)",
      "channel": 2,
      "lane": "J"
    },
    {
      "time": 185.617,
      "duration": 0.112,
      "midi": 39,
      "noteNumber": 39,
      "velocity": 0.74,
      "track": "(unnamed)",
      "channel": 2,
      "lane": "D"
    },
    {
      "time": 185.629,
      "duration": 0.007,
      "midi": 40,
      "noteNumber": 40,
      "velocity": 0.91,
      "track": "(unnamed)",
      "channel": 9,
      "lane": "D"
    },
    {
      "time": 185.666,
      "duration": 0.007,
      "midi": 40,
      "noteNumber": 40,
      "velocity": 0.35,
      "track": "(unnamed)",
      "channel": 9,
      "lane": "D"
    },
    {
      "time": 185.711,
      "duration": 0.007,
      "midi": 40,
      "noteNumber": 40,
      "velocity": 0.25,
      "track": "(unnamed)",
      "channel": 9,
      "lane": "D"
    },
    {
      "time": 185.748,
      "duration": 0.086,
      "midi": 54,
      "noteNumber": 54,
      "velocity": 0.71,
      "track": "(unnamed)",
      "channel": 2,
      "lane": "J"
    },
    {
      "time": 185.748,
      "duration": 0.041,
      "midi": 58,
      "noteNumber": 58,
      "velocity": 0.68,
      "track": "(unnamed)",
      "channel": 2,
      "lane": "J"
    },
    {
      "time": 185.748,
      "duration": 0.049,
      "midi": 63,
      "noteNumber": 63,
      "velocity": 0.54,
      "track": "(unnamed)",
      "channel": 2,
      "lane": "J"
    },
    {
      "time": 185.748,
      "duration": 0.007,
      "midi": 40,
      "noteNumber": 40,
      "velocity": 0.3,
      "track": "(unnamed)",
      "channel": 9,
      "lane": "D"
    },
    {
      "time": 185.786,
      "duration": 0.007,
      "midi": 40,
      "noteNumber": 40,
      "velocity": 0.35,
      "track": "(unnamed)",
      "channel": 9,
      "lane": "D"
    },
    {
      "time": 185.823,
      "duration": 0.007,
      "midi": 40,
      "noteNumber": 40,
      "velocity": 0.43,
      "track": "(unnamed)",
      "channel": 9,
      "lane": "D"
    },
    {
      "time": 185.861,
      "duration": 0.007,
      "midi": 40,
      "noteNumber": 40,
      "velocity": 0.54,
      "track": "(unnamed)",
      "channel": 9,
      "lane": "D"
    },
    {
      "time": 185.898,
      "duration": 0.007,
      "midi": 40,
      "noteNumber": 40,
      "velocity": 0.65,
      "track": "(unnamed)",
      "channel": 9,
      "lane": "D"
    },
    {
      "time": 185.935,
      "duration": 0.007,
      "midi": 40,
      "noteNumber": 40,
      "velocity": 0.47,
      "track": "(unnamed)",
      "channel": 9,
      "lane": "D"
    },
    {
      "time": 185.988,
      "duration": 0.007,
      "midi": 40,
      "noteNumber": 40,
      "velocity": 0.73,
      "track": "(unnamed)",
      "channel": 9,
      "lane": "D"
    },
    {
      "time": 186.108,
      "duration": 0.52,
      "midi": 46,
      "noteNumber": 46,
      "velocity": 0.71,
      "track": "(unnamed)",
      "channel": 2,
      "lane": "F"
    },
    {
      "time": 186.108,
      "duration": 0.007,
      "midi": 40,
      "noteNumber": 40,
      "velocity": 0.92,
      "track": "(unnamed)",
      "channel": 9,
      "lane": "D"
    },
    {
      "time": 186.108,
      "duration": 0.273,
      "midi": 46,
      "noteNumber": 46,
      "velocity": 0.51,
      "track": "(unnamed)",
      "channel": 1,
      "lane": "F"
    },
    {
      "time": 186.467,
      "duration": 0.12,
      "midi": 53,
      "noteNumber": 53,
      "velocity": 0.57,
      "track": "(unnamed)",
      "channel": 2,
      "lane": "F"
    },
    {
      "time": 186.467,
      "duration": 0.12,
      "midi": 56,
      "noteNumber": 56,
      "velocity": 0.74,
      "track": "(unnamed)",
      "channel": 2,
      "lane": "J"
    },
    {
      "time": 186.467,
      "duration": 0.124,
      "midi": 61,
      "noteNumber": 61,
      "velocity": 0.71,
      "track": "(unnamed)",
      "channel": 2,
      "lane": "J"
    },
    {
      "time": 186.467,
      "duration": 0.213,
      "midi": 34,
      "noteNumber": 34,
      "velocity": 0.51,
      "track": "(unnamed)",
      "channel": 1,
      "lane": "D"
    },
    {
      "time": 186.706,
      "duration": 0.007,
      "midi": 40,
      "noteNumber": 40,
      "velocity": 0.78,
      "track": "(unnamed)",
      "channel": 9,
      "lane": "D"
    },
    {
      "time": 186.826,
      "duration": 0.161,
      "midi": 39,
      "noteNumber": 39,
      "velocity": 0.6,
      "track": "(unnamed)",
      "channel": 2,
      "lane": "D"
    },
    {
      "time": 186.826,
      "duration": 0.007,
      "midi": 35,
      "noteNumber": 35,
      "velocity": 0.9,
      "track": "(unnamed)",
      "channel": 9,
      "lane": "D"
    },
    {
      "time": 186.826,
      "duration": 0.007,
      "midi": 41,
      "noteNumber": 41,
      "velocity": 1,
      "track": "(unnamed)",
      "channel": 9,
      "lane": "D"
    },
    {
      "time": 186.826,
      "duration": 0.876,
      "midi": 39,
      "noteNumber": 39,
      "velocity": 0.66,
      "track": "(unnamed)",
      "channel": 1,
      "lane": "D"
    },
    {
      "time": 187.054,
      "duration": 0.056,
      "midi": 54,
      "noteNumber": 54,
      "velocity": 0.71,
      "track": "(unnamed)",
      "channel": 2,
      "lane": "J"
    },
    {
      "time": 187.054,
      "duration": 0.03,
      "midi": 58,
      "noteNumber": 58,
      "velocity": 0.54,
      "track": "(unnamed)",
      "channel": 2,
      "lane": "J"
    },
    {
      "time": 187.054,
      "duration": 0.06,
      "midi": 63,
      "noteNumber": 63,
      "velocity": 0.68,
      "track": "(unnamed)",
      "channel": 2,
      "lane": "J"
    },
    {
      "time": 187.185,
      "duration": 0.007,
      "midi": 41,
      "noteNumber": 41,
      "velocity": 0.39,
      "track": "(unnamed)",
      "channel": 9,
      "lane": "D"
    },
    {
      "time": 187.414,
      "duration": 0.112,
      "midi": 39,
      "noteNumber": 39,
      "velocity": 0.74,
      "track": "(unnamed)",
      "channel": 2,
      "lane": "D"
    },
    {
      "time": 187.425,
      "duration": 0.007,
      "midi": 40,
      "noteNumber": 40,
      "velocity": 0.92,
      "track": "(unnamed)",
      "channel": 9,
      "lane": "D"
    },
    {
      "time": 187.545,
      "duration": 0.086,
      "midi": 54,
      "noteNumber": 54,
      "velocity": 0.71,
      "track": "(unnamed)",
      "channel": 2,
      "lane": "J"
    },
    {
      "time": 187.545,
      "duration": 0.041,
      "midi": 58,
      "noteNumber": 58,
      "velocity": 0.68,
      "track": "(unnamed)",
      "channel": 2,
      "lane": "J"
    },
    {
      "time": 187.545,
      "duration": 0.049,
      "midi": 63,
      "noteNumber": 63,
      "velocity": 0.54,
      "track": "(unnamed)",
      "channel": 2,
      "lane": "J"
    },
    {
      "time": 187.904,
      "duration": 0.52,
      "midi": 46,
      "noteNumber": 46,
      "velocity": 0.71,
      "track": "(unnamed)",
      "channel": 2,
      "lane": "F"
    },
    {
      "time": 187.904,
      "duration": 0.007,
      "midi": 43,
      "noteNumber": 43,
      "velocity": 1,
      "track": "(unnamed)",
      "channel": 9,
      "lane": "F"
    },
    {
      "time": 187.904,
      "duration": 0.273,
      "midi": 46,
      "noteNumber": 46,
      "velocity": 0.51,
      "track": "(unnamed)",
      "channel": 1,
      "lane": "F"
    },
    {
      "time": 188.263,
      "duration": 0.12,
      "midi": 53,
      "noteNumber": 53,
      "velocity": 0.57,
      "track": "(unnamed)",
      "channel": 2,
      "lane": "F"
    },
    {
      "time": 188.263,
      "duration": 0.12,
      "midi": 56,
      "noteNumber": 56,
      "velocity": 0.74,
      "track": "(unnamed)",
      "channel": 2,
      "lane": "J"
    },
    {
      "time": 188.263,
      "duration": 0.124,
      "midi": 61,
      "noteNumber": 61,
      "velocity": 0.71,
      "track": "(unnamed)",
      "channel": 2,
      "lane": "J"
    },
    {
      "time": 188.263,
      "duration": 0.007,
      "midi": 41,
      "noteNumber": 41,
      "velocity": 0.79,
      "track": "(unnamed)",
      "channel": 9,
      "lane": "D"
    },
    {
      "time": 188.263,
      "duration": 0.213,
      "midi": 34,
      "noteNumber": 34,
      "velocity": 0.51,
      "track": "(unnamed)",
      "channel": 1,
      "lane": "D"
    },
    {
      "time": 188.623,
      "duration": 0.161,
      "midi": 39,
      "noteNumber": 39,
      "velocity": 0.6,
      "track": "(unnamed)",
      "channel": 2,
      "lane": "D"
    },
    {
      "time": 188.623,
      "duration": 0.876,
      "midi": 39,
      "noteNumber": 39,
      "velocity": 0.66,
      "track": "(unnamed)",
      "channel": 1,
      "lane": "D"
    },
    {
      "time": 188.832,
      "duration": 0.007,
      "midi": 40,
      "noteNumber": 40,
      "velocity": 0.87,
      "track": "(unnamed)",
      "channel": 9,
      "lane": "D"
    },
    {
      "time": 188.851,
      "duration": 0.056,
      "midi": 54,
      "noteNumber": 54,
      "velocity": 0.71,
      "track": "(unnamed)",
      "channel": 2,
      "lane": "J"
    },
    {
      "time": 188.851,
      "duration": 0.03,
      "midi": 58,
      "noteNumber": 58,
      "velocity": 0.54,
      "track": "(unnamed)",
      "channel": 2,
      "lane": "J"
    },
    {
      "time": 188.851,
      "duration": 0.06,
      "midi": 63,
      "noteNumber": 63,
      "velocity": 0.68,
      "track": "(unnamed)",
      "channel": 2,
      "lane": "J"
    },
    {
      "time": 188.982,
      "duration": 0.007,
      "midi": 40,
      "noteNumber": 40,
      "velocity": 0.57,
      "track": "(unnamed)",
      "channel": 9,
      "lane": "D"
    },
    {
      "time": 189.191,
      "duration": 0.007,
      "midi": 40,
      "noteNumber": 40,
      "velocity": 0.87,
      "track": "(unnamed)",
      "channel": 9,
      "lane": "D"
    },
    {
      "time": 189.21,
      "duration": 0.112,
      "midi": 39,
      "noteNumber": 39,
      "velocity": 0.74,
      "track": "(unnamed)",
      "channel": 2,
      "lane": "D"
    },
    {
      "time": 189.341,
      "duration": 0.086,
      "midi": 54,
      "noteNumber": 54,
      "velocity": 0.71,
      "track": "(unnamed)",
      "channel": 2,
      "lane": "J"
    },
    {
      "time": 189.341,
      "duration": 0.041,
      "midi": 58,
      "noteNumber": 58,
      "velocity": 0.68,
      "track": "(unnamed)",
      "channel": 2,
      "lane": "J"
    },
    {
      "time": 189.341,
      "duration": 0.049,
      "midi": 63,
      "noteNumber": 63,
      "velocity": 0.54,
      "track": "(unnamed)",
      "channel": 2,
      "lane": "J"
    },
    {
      "time": 189.341,
      "duration": 0.007,
      "midi": 40,
      "noteNumber": 40,
      "velocity": 0.89,
      "track": "(unnamed)",
      "channel": 9,
      "lane": "D"
    },
    {
      "time": 189.371,
      "duration": 0.007,
      "midi": 40,
      "noteNumber": 40,
      "velocity": 0.91,
      "track": "(unnamed)",
      "channel": 9,
      "lane": "D"
    },
    {
      "time": 189.7,
      "duration": 0.52,
      "midi": 46,
      "noteNumber": 46,
      "velocity": 0.71,
      "track": "(unnamed)",
      "channel": 2,
      "lane": "F"
    },
    {
      "time": 189.7,
      "duration": 0.273,
      "midi": 46,
      "noteNumber": 46,
      "velocity": 0.51,
      "track": "(unnamed)",
      "channel": 1,
      "lane": "F"
    },
    {
      "time": 190.06,
      "duration": 0.12,
      "midi": 53,
      "noteNumber": 53,
      "velocity": 0.57,
      "track": "(unnamed)",
      "channel": 2,
      "lane": "F"
    },
    {
      "time": 190.06,
      "duration": 0.12,
      "midi": 56,
      "noteNumber": 56,
      "velocity": 0.74,
      "track": "(unnamed)",
      "channel": 2,
      "lane": "J"
    },
    {
      "time": 190.06,
      "duration": 0.124,
      "midi": 61,
      "noteNumber": 61,
      "velocity": 0.71,
      "track": "(unnamed)",
      "channel": 2,
      "lane": "J"
    },
    {
      "time": 190.06,
      "duration": 0.007,
      "midi": 47,
      "noteNumber": 47,
      "velocity": 0.44,
      "track": "(unnamed)",
      "channel": 9,
      "lane": "F"
    },
    {
      "time": 190.06,
      "duration": 0.213,
      "midi": 34,
      "noteNumber": 34,
      "velocity": 0.51,
      "track": "(unnamed)",
      "channel": 1,
      "lane": "D"
    },
    {
      "time": 190.12,
      "duration": 0.007,
      "midi": 45,
      "noteNumber": 45,
      "velocity": 0.42,
      "track": "(unnamed)",
      "channel": 9,
      "lane": "F"
    },
    {
      "time": 190.179,
      "duration": 0.007,
      "midi": 43,
      "noteNumber": 43,
      "velocity": 0.67,
      "track": "(unnamed)",
      "channel": 9,
      "lane": "F"
    },
    {
      "time": 190.284,
      "duration": 0.007,
      "midi": 41,
      "noteNumber": 41,
      "velocity": 0.94,
      "track": "(unnamed)",
      "channel": 9,
      "lane": "D"
    },
    {
      "time": 190.419,
      "duration": 0.161,
      "midi": 39,
      "noteNumber": 39,
      "velocity": 0.6,
      "track": "(unnamed)",
      "channel": 2,
      "lane": "D"
    },
    {
      "time": 190.419,
      "duration": 0.007,
      "midi": 35,
      "noteNumber": 35,
      "velocity": 0.9,
      "track": "(unnamed)",
      "channel": 9,
      "lane": "D"
    },
    {
      "time": 190.419,
      "duration": 0.007,
      "midi": 40,
      "noteNumber": 40,
      "velocity": 0.87,
      "track": "(unnamed)",
      "channel": 9,
      "lane": "D"
    },
    {
      "time": 190.419,
      "duration": 0.007,
      "midi": 41,
      "noteNumber": 41,
      "velocity": 1,
      "track": "(unnamed)",
      "channel": 9,
      "lane": "D"
    },
    {
      "time": 190.419,
      "duration": 0.876,
      "midi": 39,
      "noteNumber": 39,
      "velocity": 0.66,
      "track": "(unnamed)",
      "channel": 1,
      "lane": "D"
    },
    {
      "time": 190.647,
      "duration": 0.056,
      "midi": 54,
      "noteNumber": 54,
      "velocity": 0.71,
      "track": "(unnamed)",
      "channel": 2,
      "lane": "J"
    },
    {
      "time": 190.647,
      "duration": 0.03,
      "midi": 58,
      "noteNumber": 58,
      "velocity": 0.54,
      "track": "(unnamed)",
      "channel": 2,
      "lane": "J"
    },
    {
      "time": 190.647,
      "duration": 0.06,
      "midi": 63,
      "noteNumber": 63,
      "velocity": 0.68,
      "track": "(unnamed)",
      "channel": 2,
      "lane": "J"
    },
    {
      "time": 190.838,
      "duration": 0.007,
      "midi": 47,
      "noteNumber": 47,
      "velocity": 0.44,
      "track": "(unnamed)",
      "channel": 9,
      "lane": "F"
    },
    {
      "time": 190.898,
      "duration": 0.007,
      "midi": 45,
      "noteNumber": 45,
      "velocity": 0.44,
      "track": "(unnamed)",
      "channel": 9,
      "lane": "F"
    },
    {
      "time": 191.003,
      "duration": 0.007,
      "midi": 43,
      "noteNumber": 43,
      "velocity": 0.67,
      "track": "(unnamed)",
      "channel": 9,
      "lane": "F"
    },
    {
      "time": 191.007,
      "duration": 0.112,
      "midi": 39,
      "noteNumber": 39,
      "velocity": 0.74,
      "track": "(unnamed)",
      "channel": 2,
      "lane": "D"
    },
    {
      "time": 191.063,
      "duration": 0.007,
      "midi": 41,
      "noteNumber": 41,
      "velocity": 1,
      "track": "(unnamed)",
      "channel": 9,
      "lane": "D"
    },
    {
      "time": 191.137,
      "duration": 0.086,
      "midi": 54,
      "noteNumber": 54,
      "velocity": 0.71,
      "track": "(unnamed)",
      "channel": 2,
      "lane": "J"
    },
    {
      "time": 191.137,
      "duration": 0.041,
      "midi": 58,
      "noteNumber": 58,
      "velocity": 0.68,
      "track": "(unnamed)",
      "channel": 2,
      "lane": "J"
    },
    {
      "time": 191.137,
      "duration": 0.049,
      "midi": 63,
      "noteNumber": 63,
      "velocity": 0.54,
      "track": "(unnamed)",
      "channel": 2,
      "lane": "J"
    },
    {
      "time": 191.137,
      "duration": 0.007,
      "midi": 40,
      "noteNumber": 40,
      "velocity": 0.87,
      "track": "(unnamed)",
      "channel": 9,
      "lane": "D"
    },
    {
      "time": 191.497,
      "duration": 0.52,
      "midi": 46,
      "noteNumber": 46,
      "velocity": 0.71,
      "track": "(unnamed)",
      "channel": 2,
      "lane": "F"
    },
    {
      "time": 191.497,
      "duration": 0.007,
      "midi": 47,
      "noteNumber": 47,
      "velocity": 0.39,
      "track": "(unnamed)",
      "channel": 9,
      "lane": "F"
    },
    {
      "time": 191.497,
      "duration": 0.273,
      "midi": 46,
      "noteNumber": 46,
      "velocity": 0.51,
      "track": "(unnamed)",
      "channel": 1,
      "lane": "F"
    },
    {
      "time": 191.557,
      "duration": 0.007,
      "midi": 45,
      "noteNumber": 45,
      "velocity": 0.47,
      "track": "(unnamed)",
      "channel": 9,
      "lane": "F"
    },
    {
      "time": 191.617,
      "duration": 0.007,
      "midi": 43,
      "noteNumber": 43,
      "velocity": 0.5,
      "track": "(unnamed)",
      "channel": 9,
      "lane": "F"
    },
    {
      "time": 191.721,
      "duration": 0.007,
      "midi": 45,
      "noteNumber": 45,
      "velocity": 0.54,
      "track": "(unnamed)",
      "channel": 9,
      "lane": "F"
    },
    {
      "time": 191.781,
      "duration": 0.007,
      "midi": 35,
      "noteNumber": 35,
      "velocity": 0.65,
      "track": "(unnamed)",
      "channel": 9,
      "lane": "D"
    },
    {
      "time": 191.856,
      "duration": 0.12,
      "midi": 53,
      "noteNumber": 53,
      "velocity": 0.57,
      "track": "(unnamed)",
      "channel": 2,
      "lane": "F"
    },
    {
      "time": 191.856,
      "duration": 0.12,
      "midi": 56,
      "noteNumber": 56,
      "velocity": 0.74,
      "track": "(unnamed)",
      "channel": 2,
      "lane": "J"
    },
    {
      "time": 191.856,
      "duration": 0.124,
      "midi": 61,
      "noteNumber": 61,
      "velocity": 0.71,
      "track": "(unnamed)",
      "channel": 2,
      "lane": "J"
    },
    {
      "time": 191.856,
      "duration": 0.213,
      "midi": 34,
      "noteNumber": 34,
      "velocity": 0.51,
      "track": "(unnamed)",
      "channel": 1,
      "lane": "D"
    },
    {
      "time": 191.864,
      "duration": 0.007,
      "midi": 40,
      "noteNumber": 40,
      "velocity": 0.97,
      "track": "(unnamed)",
      "channel": 9,
      "lane": "D"
    },
    {
      "time": 192.215,
      "duration": 0.161,
      "midi": 39,
      "noteNumber": 39,
      "velocity": 0.6,
      "track": "(unnamed)",
      "channel": 2,
      "lane": "D"
    },
    {
      "time": 192.215,
      "duration": 0.876,
      "midi": 39,
      "noteNumber": 39,
      "velocity": 0.66,
      "track": "(unnamed)",
      "channel": 1,
      "lane": "D"
    },
    {
      "time": 192.223,
      "duration": 0.007,
      "midi": 35,
      "noteNumber": 35,
      "velocity": 0.94,
      "track": "(unnamed)",
      "channel": 9,
      "lane": "D"
    },
    {
      "time": 192.227,
      "duration": 0.007,
      "midi": 43,
      "noteNumber": 43,
      "velocity": 1,
      "track": "(unnamed)",
      "channel": 9,
      "lane": "F"
    },
    {
      "time": 192.444,
      "duration": 0.056,
      "midi": 54,
      "noteNumber": 54,
      "velocity": 0.71,
      "track": "(unnamed)",
      "channel": 2,
      "lane": "J"
    },
    {
      "time": 192.444,
      "duration": 0.03,
      "midi": 58,
      "noteNumber": 58,
      "velocity": 0.54,
      "track": "(unnamed)",
      "channel": 2,
      "lane": "J"
    },
    {
      "time": 192.444,
      "duration": 0.06,
      "midi": 63,
      "noteNumber": 63,
      "velocity": 0.68,
      "track": "(unnamed)",
      "channel": 2,
      "lane": "J"
    },
    {
      "time": 192.803,
      "duration": 0.112,
      "midi": 39,
      "noteNumber": 39,
      "velocity": 0.74,
      "track": "(unnamed)",
      "channel": 2,
      "lane": "D"
    },
    {
      "time": 192.934,
      "duration": 0.086,
      "midi": 54,
      "noteNumber": 54,
      "velocity": 0.71,
      "track": "(unnamed)",
      "channel": 2,
      "lane": "J"
    },
    {
      "time": 192.934,
      "duration": 0.041,
      "midi": 58,
      "noteNumber": 58,
      "velocity": 0.68,
      "track": "(unnamed)",
      "channel": 2,
      "lane": "J"
    },
    {
      "time": 192.934,
      "duration": 0.049,
      "midi": 63,
      "noteNumber": 63,
      "velocity": 0.54,
      "track": "(unnamed)",
      "channel": 2,
      "lane": "J"
    },
    {
      "time": 193.147,
      "duration": 0.007,
      "midi": 40,
      "noteNumber": 40,
      "velocity": 0.78,
      "track": "(unnamed)",
      "channel": 9,
      "lane": "D"
    },
    {
      "time": 193.293,
      "duration": 0.52,
      "midi": 46,
      "noteNumber": 46,
      "velocity": 0.71,
      "track": "(unnamed)",
      "channel": 2,
      "lane": "F"
    },
    {
      "time": 193.293,
      "duration": 0.273,
      "midi": 46,
      "noteNumber": 46,
      "velocity": 0.51,
      "track": "(unnamed)",
      "channel": 1,
      "lane": "F"
    },
    {
      "time": 193.304,
      "duration": 0.007,
      "midi": 40,
      "noteNumber": 40,
      "velocity": 0.97,
      "track": "(unnamed)",
      "channel": 9,
      "lane": "D"
    },
    {
      "time": 193.652,
      "duration": 0.12,
      "midi": 53,
      "noteNumber": 53,
      "velocity": 0.57,
      "track": "(unnamed)",
      "channel": 2,
      "lane": "F"
    },
    {
      "time": 193.652,
      "duration": 0.12,
      "midi": 56,
      "noteNumber": 56,
      "velocity": 0.74,
      "track": "(unnamed)",
      "channel": 2,
      "lane": "J"
    },
    {
      "time": 193.652,
      "duration": 0.124,
      "midi": 61,
      "noteNumber": 61,
      "velocity": 0.71,
      "track": "(unnamed)",
      "channel": 2,
      "lane": "J"
    },
    {
      "time": 193.652,
      "duration": 0.213,
      "midi": 34,
      "noteNumber": 34,
      "velocity": 0.51,
      "track": "(unnamed)",
      "channel": 1,
      "lane": "D"
    },
    {
      "time": 193.675,
      "duration": 0.007,
      "midi": 43,
      "noteNumber": 43,
      "velocity": 0.75,
      "track": "(unnamed)",
      "channel": 9,
      "lane": "F"
    },
    {
      "time": 194.012,
      "duration": 0.161,
      "midi": 39,
      "noteNumber": 39,
      "velocity": 0.6,
      "track": "(unnamed)",
      "channel": 2,
      "lane": "D"
    },
    {
      "time": 194.012,
      "duration": 0.876,
      "midi": 39,
      "noteNumber": 39,
      "velocity": 0.66,
      "track": "(unnamed)",
      "channel": 1,
      "lane": "D"
    },
    {
      "time": 194.24,
      "duration": 0.056,
      "midi": 54,
      "noteNumber": 54,
      "velocity": 0.71,
      "track": "(unnamed)",
      "channel": 2,
      "lane": "J"
    },
    {
      "time": 194.24,
      "duration": 0.03,
      "midi": 58,
      "noteNumber": 58,
      "velocity": 0.54,
      "track": "(unnamed)",
      "channel": 2,
      "lane": "J"
    },
    {
      "time": 194.24,
      "duration": 0.06,
      "midi": 63,
      "noteNumber": 63,
      "velocity": 0.68,
      "track": "(unnamed)",
      "channel": 2,
      "lane": "J"
    },
    {
      "time": 194.599,
      "duration": 0.112,
      "midi": 39,
      "noteNumber": 39,
      "velocity": 0.74,
      "track": "(unnamed)",
      "channel": 2,
      "lane": "D"
    },
    {
      "time": 194.64,
      "duration": 0.007,
      "midi": 45,
      "noteNumber": 45,
      "velocity": 0.51,
      "track": "(unnamed)",
      "channel": 9,
      "lane": "F"
    },
    {
      "time": 194.67,
      "duration": 0.007,
      "midi": 43,
      "noteNumber": 43,
      "velocity": 0.83,
      "track": "(unnamed)",
      "channel": 9,
      "lane": "F"
    },
    {
      "time": 194.73,
      "duration": 0.086,
      "midi": 54,
      "noteNumber": 54,
      "velocity": 0.71,
      "track": "(unnamed)",
      "channel": 2,
      "lane": "J"
    },
    {
      "time": 194.73,
      "duration": 0.041,
      "midi": 58,
      "noteNumber": 58,
      "velocity": 0.68,
      "track": "(unnamed)",
      "channel": 2,
      "lane": "J"
    },
    {
      "time": 194.73,
      "duration": 0.049,
      "midi": 63,
      "noteNumber": 63,
      "velocity": 0.54,
      "track": "(unnamed)",
      "channel": 2,
      "lane": "J"
    },
    {
      "time": 194.73,
      "duration": 0.007,
      "midi": 41,
      "noteNumber": 41,
      "velocity": 0.75,
      "track": "(unnamed)",
      "channel": 9,
      "lane": "D"
    },
    {
      "time": 195.09,
      "duration": 0.52,
      "midi": 46,
      "noteNumber": 46,
      "velocity": 0.71,
      "track": "(unnamed)",
      "channel": 2,
      "lane": "F"
    },
    {
      "time": 195.09,
      "duration": 0.273,
      "midi": 46,
      "noteNumber": 46,
      "velocity": 0.51,
      "track": "(unnamed)",
      "channel": 1,
      "lane": "F"
    },
    {
      "time": 195.449,
      "duration": 0.12,
      "midi": 53,
      "noteNumber": 53,
      "velocity": 0.57,
      "track": "(unnamed)",
      "channel": 2,
      "lane": "F"
    },
    {
      "time": 195.449,
      "duration": 0.12,
      "midi": 56,
      "noteNumber": 56,
      "velocity": 0.74,
      "track": "(unnamed)",
      "channel": 2,
      "lane": "J"
    },
    {
      "time": 195.449,
      "duration": 0.124,
      "midi": 61,
      "noteNumber": 61,
      "velocity": 0.71,
      "track": "(unnamed)",
      "channel": 2,
      "lane": "J"
    },
    {
      "time": 195.449,
      "duration": 0.213,
      "midi": 34,
      "noteNumber": 34,
      "velocity": 0.51,
      "track": "(unnamed)",
      "channel": 1,
      "lane": "D"
    },
    {
      "time": 195.479,
      "duration": 0.007,
      "midi": 45,
      "noteNumber": 45,
      "velocity": 0.53,
      "track": "(unnamed)",
      "channel": 9,
      "lane": "F"
    },
    {
      "time": 195.569,
      "duration": 0.007,
      "midi": 43,
      "noteNumber": 43,
      "velocity": 0.49,
      "track": "(unnamed)",
      "channel": 9,
      "lane": "F"
    },
    {
      "time": 195.658,
      "duration": 0.007,
      "midi": 41,
      "noteNumber": 41,
      "velocity": 0.9,
      "track": "(unnamed)",
      "channel": 9,
      "lane": "D"
    },
    {
      "time": 195.808,
      "duration": 0.161,
      "midi": 39,
      "noteNumber": 39,
      "velocity": 0.6,
      "track": "(unnamed)",
      "channel": 2,
      "lane": "D"
    },
    {
      "time": 195.808,
      "duration": 0.876,
      "midi": 39,
      "noteNumber": 39,
      "velocity": 0.66,
      "track": "(unnamed)",
      "channel": 1,
      "lane": "D"
    },
    {
      "time": 195.838,
      "duration": 0.007,
      "midi": 43,
      "noteNumber": 43,
      "velocity": 0.94,
      "track": "(unnamed)",
      "channel": 9,
      "lane": "F"
    },
    {
      "time": 195.928,
      "duration": 0.007,
      "midi": 45,
      "noteNumber": 45,
      "velocity": 0.68,
      "track": "(unnamed)",
      "channel": 9,
      "lane": "F"
    },
    {
      "time": 195.988,
      "duration": 0.007,
      "midi": 43,
      "noteNumber": 43,
      "velocity": 0.79,
      "track": "(unnamed)",
      "channel": 9,
      "lane": "F"
    },
    {
      "time": 196.036,
      "duration": 0.056,
      "midi": 54,
      "noteNumber": 54,
      "velocity": 0.71,
      "track": "(unnamed)",
      "channel": 2,
      "lane": "J"
    },
    {
      "time": 196.036,
      "duration": 0.03,
      "midi": 58,
      "noteNumber": 58,
      "velocity": 0.54,
      "track": "(unnamed)",
      "channel": 2,
      "lane": "J"
    },
    {
      "time": 196.036,
      "duration": 0.06,
      "midi": 63,
      "noteNumber": 63,
      "velocity": 0.68,
      "track": "(unnamed)",
      "channel": 2,
      "lane": "J"
    },
    {
      "time": 196.078,
      "duration": 0.007,
      "midi": 41,
      "noteNumber": 41,
      "velocity": 0.86,
      "track": "(unnamed)",
      "channel": 9,
      "lane": "D"
    },
    {
      "time": 196.197,
      "duration": 0.007,
      "midi": 35,
      "noteNumber": 35,
      "velocity": 0.94,
      "track": "(unnamed)",
      "channel": 9,
      "lane": "D"
    },
    {
      "time": 196.197,
      "duration": 0.007,
      "midi": 41,
      "noteNumber": 41,
      "velocity": 1,
      "track": "(unnamed)",
      "channel": 9,
      "lane": "D"
    },
    {
      "time": 196.396,
      "duration": 0.112,
      "midi": 39,
      "noteNumber": 39,
      "velocity": 0.74,
      "track": "(unnamed)",
      "channel": 2,
      "lane": "D"
    },
    {
      "time": 196.527,
      "duration": 0.086,
      "midi": 54,
      "noteNumber": 54,
      "velocity": 0.71,
      "track": "(unnamed)",
      "channel": 2,
      "lane": "J"
    },
    {
      "time": 196.527,
      "duration": 0.041,
      "midi": 58,
      "noteNumber": 58,
      "velocity": 0.68,
      "track": "(unnamed)",
      "channel": 2,
      "lane": "J"
    },
    {
      "time": 196.527,
      "duration": 0.049,
      "midi": 63,
      "noteNumber": 63,
      "velocity": 0.54,
      "track": "(unnamed)",
      "channel": 2,
      "lane": "J"
    },
    {
      "time": 196.886,
      "duration": 0.52,
      "midi": 46,
      "noteNumber": 46,
      "velocity": 0.71,
      "track": "(unnamed)",
      "channel": 2,
      "lane": "F"
    },
    {
      "time": 196.886,
      "duration": 0.273,
      "midi": 46,
      "noteNumber": 46,
      "velocity": 0.51,
      "track": "(unnamed)",
      "channel": 1,
      "lane": "F"
    },
    {
      "time": 196.905,
      "duration": 0.007,
      "midi": 43,
      "noteNumber": 43,
      "velocity": 0.94,
      "track": "(unnamed)",
      "channel": 9,
      "lane": "F"
    },
    {
      "time": 197.245,
      "duration": 0.12,
      "midi": 53,
      "noteNumber": 53,
      "velocity": 0.57,
      "track": "(unnamed)",
      "channel": 2,
      "lane": "F"
    },
    {
      "time": 197.245,
      "duration": 0.12,
      "midi": 56,
      "noteNumber": 56,
      "velocity": 0.74,
      "track": "(unnamed)",
      "channel": 2,
      "lane": "J"
    },
    {
      "time": 197.245,
      "duration": 0.124,
      "midi": 61,
      "noteNumber": 61,
      "velocity": 0.71,
      "track": "(unnamed)",
      "channel": 2,
      "lane": "J"
    },
    {
      "time": 197.245,
      "duration": 0.007,
      "midi": 43,
      "noteNumber": 43,
      "velocity": 0.86,
      "track": "(unnamed)",
      "channel": 9,
      "lane": "F"
    },
    {
      "time": 197.245,
      "duration": 0.213,
      "midi": 34,
      "noteNumber": 34,
      "velocity": 0.51,
      "track": "(unnamed)",
      "channel": 1,
      "lane": "D"
    },
    {
      "time": 197.605,
      "duration": 0.161,
      "midi": 39,
      "noteNumber": 39,
      "velocity": 0.6,
      "track": "(unnamed)",
      "channel": 2,
      "lane": "D"
    },
    {
      "time": 197.605,
      "duration": 0.007,
      "midi": 35,
      "noteNumber": 35,
      "velocity": 0.84,
      "track": "(unnamed)",
      "channel": 9,
      "lane": "D"
    },
    {
      "time": 197.605,
      "duration": 0.007,
      "midi": 45,
      "noteNumber": 45,
      "velocity": 0.83,
      "track": "(unnamed)",
      "channel": 9,
      "lane": "F"
    },
    {
      "time": 197.605,
      "duration": 0.876,
      "midi": 39,
      "noteNumber": 39,
      "velocity": 0.66,
      "track": "(unnamed)",
      "channel": 1,
      "lane": "D"
    },
    {
      "time": 197.833,
      "duration": 0.056,
      "midi": 54,
      "noteNumber": 54,
      "velocity": 0.71,
      "track": "(unnamed)",
      "channel": 2,
      "lane": "J"
    },
    {
      "time": 197.833,
      "duration": 0.03,
      "midi": 58,
      "noteNumber": 58,
      "velocity": 0.54,
      "track": "(unnamed)",
      "channel": 2,
      "lane": "J"
    },
    {
      "time": 197.833,
      "duration": 0.06,
      "midi": 63,
      "noteNumber": 63,
      "velocity": 0.68,
      "track": "(unnamed)",
      "channel": 2,
      "lane": "J"
    },
    {
      "time": 198.17,
      "duration": 0.007,
      "midi": 40,
      "noteNumber": 40,
      "velocity": 0.87,
      "track": "(unnamed)",
      "channel": 9,
      "lane": "D"
    },
    {
      "time": 198.192,
      "duration": 0.112,
      "midi": 39,
      "noteNumber": 39,
      "velocity": 0.74,
      "track": "(unnamed)",
      "channel": 2,
      "lane": "D"
    },
    {
      "time": 198.319,
      "duration": 0.007,
      "midi": 40,
      "noteNumber": 40,
      "velocity": 0.92,
      "track": "(unnamed)",
      "channel": 9,
      "lane": "D"
    },
    {
      "time": 198.323,
      "duration": 0.086,
      "midi": 54,
      "noteNumber": 54,
      "velocity": 0.71,
      "track": "(unnamed)",
      "channel": 2,
      "lane": "J"
    },
    {
      "time": 198.323,
      "duration": 0.041,
      "midi": 58,
      "noteNumber": 58,
      "velocity": 0.68,
      "track": "(unnamed)",
      "channel": 2,
      "lane": "J"
    },
    {
      "time": 198.323,
      "duration": 0.049,
      "midi": 63,
      "noteNumber": 63,
      "velocity": 0.54,
      "track": "(unnamed)",
      "channel": 2,
      "lane": "J"
    },
    {
      "time": 198.682,
      "duration": 0.52,
      "midi": 46,
      "noteNumber": 46,
      "velocity": 0.71,
      "track": "(unnamed)",
      "channel": 2,
      "lane": "F"
    },
    {
      "time": 198.682,
      "duration": 0.273,
      "midi": 46,
      "noteNumber": 46,
      "velocity": 0.51,
      "track": "(unnamed)",
      "channel": 1,
      "lane": "F"
    },
    {
      "time": 198.903,
      "duration": 0.007,
      "midi": 45,
      "noteNumber": 45,
      "velocity": 0.71,
      "track": "(unnamed)",
      "channel": 9,
      "lane": "F"
    },
    {
      "time": 199.042,
      "duration": 0.12,
      "midi": 53,
      "noteNumber": 53,
      "velocity": 0.57,
      "track": "(unnamed)",
      "channel": 2,
      "lane": "F"
    },
    {
      "time": 199.042,
      "duration": 0.12,
      "midi": 56,
      "noteNumber": 56,
      "velocity": 0.74,
      "track": "(unnamed)",
      "channel": 2,
      "lane": "J"
    },
    {
      "time": 199.042,
      "duration": 0.124,
      "midi": 61,
      "noteNumber": 61,
      "velocity": 0.71,
      "track": "(unnamed)",
      "channel": 2,
      "lane": "J"
    },
    {
      "time": 199.042,
      "duration": 0.007,
      "midi": 40,
      "noteNumber": 40,
      "velocity": 0.37,
      "track": "(unnamed)",
      "channel": 9,
      "lane": "D"
    },
    {
      "time": 199.042,
      "duration": 0.213,
      "midi": 34,
      "noteNumber": 34,
      "velocity": 0.51,
      "track": "(unnamed)",
      "channel": 1,
      "lane": "D"
    },
    {
      "time": 199.259,
      "duration": 0.007,
      "midi": 40,
      "noteNumber": 40,
      "velocity": 0.37,
      "track": "(unnamed)",
      "channel": 9,
      "lane": "D"
    },
    {
      "time": 199.401,
      "duration": 0.161,
      "midi": 39,
      "noteNumber": 39,
      "velocity": 0.6,
      "track": "(unnamed)",
      "channel": 2,
      "lane": "D"
    },
    {
      "time": 199.401,
      "duration": 0.007,
      "midi": 40,
      "noteNumber": 40,
      "velocity": 0.54,
      "track": "(unnamed)",
      "channel": 9,
      "lane": "D"
    },
    {
      "time": 199.401,
      "duration": 0.876,
      "midi": 39,
      "noteNumber": 39,
      "velocity": 0.66,
      "track": "(unnamed)",
      "channel": 1,
      "lane": "D"
    },
    {
      "time": 199.491,
      "duration": 0.007,
      "midi": 40,
      "noteNumber": 40,
      "velocity": 0.72,
      "track": "(unnamed)",
      "channel": 9,
      "lane": "D"
    },
    {
      "time": 199.581,
      "duration": 0.007,
      "midi": 40,
      "noteNumber": 40,
      "velocity": 0.54,
      "track": "(unnamed)",
      "channel": 9,
      "lane": "D"
    },
    {
      "time": 199.629,
      "duration": 0.056,
      "midi": 54,
      "noteNumber": 54,
      "velocity": 0.71,
      "track": "(unnamed)",
      "channel": 2,
      "lane": "J"
    },
    {
      "time": 199.629,
      "duration": 0.03,
      "midi": 58,
      "noteNumber": 58,
      "velocity": 0.54,
      "track": "(unnamed)",
      "channel": 2,
      "lane": "J"
    },
    {
      "time": 199.629,
      "duration": 0.06,
      "midi": 63,
      "noteNumber": 63,
      "velocity": 0.68,
      "track": "(unnamed)",
      "channel": 2,
      "lane": "J"
    },
    {
      "time": 199.67,
      "duration": 0.007,
      "midi": 40,
      "noteNumber": 40,
      "velocity": 0.78,
      "track": "(unnamed)",
      "channel": 9,
      "lane": "D"
    },
    {
      "time": 199.76,
      "duration": 0.007,
      "midi": 40,
      "noteNumber": 40,
      "velocity": 0.97,
      "track": "(unnamed)",
      "channel": 9,
      "lane": "D"
    },
    {
      "time": 199.989,
      "duration": 0.112,
      "midi": 39,
      "noteNumber": 39,
      "velocity": 0.74,
      "track": "(unnamed)",
      "channel": 2,
      "lane": "D"
    },
    {
      "time": 200.12,
      "duration": 0.086,
      "midi": 54,
      "noteNumber": 54,
      "velocity": 0.71,
      "track": "(unnamed)",
      "channel": 2,
      "lane": "J"
    },
    {
      "time": 200.12,
      "duration": 0.041,
      "midi": 58,
      "noteNumber": 58,
      "velocity": 0.68,
      "track": "(unnamed)",
      "channel": 2,
      "lane": "J"
    },
    {
      "time": 200.12,
      "duration": 0.049,
      "midi": 63,
      "noteNumber": 63,
      "velocity": 0.54,
      "track": "(unnamed)",
      "channel": 2,
      "lane": "J"
    },
    {
      "time": 200.299,
      "duration": 0.007,
      "midi": 40,
      "noteNumber": 40,
      "velocity": 0.92,
      "track": "(unnamed)",
      "channel": 9,
      "lane": "D"
    },
    {
      "time": 200.479,
      "duration": 0.52,
      "midi": 46,
      "noteNumber": 46,
      "velocity": 0.71,
      "track": "(unnamed)",
      "channel": 2,
      "lane": "F"
    },
    {
      "time": 200.479,
      "duration": 0.273,
      "midi": 46,
      "noteNumber": 46,
      "velocity": 0.51,
      "track": "(unnamed)",
      "channel": 1,
      "lane": "F"
    },
    {
      "time": 200.658,
      "duration": 0.007,
      "midi": 43,
      "noteNumber": 43,
      "velocity": 0.67,
      "track": "(unnamed)",
      "channel": 9,
      "lane": "F"
    },
    {
      "time": 200.838,
      "duration": 0.12,
      "midi": 53,
      "noteNumber": 53,
      "velocity": 0.57,
      "track": "(unnamed)",
      "channel": 2,
      "lane": "F"
    },
    {
      "time": 200.838,
      "duration": 0.12,
      "midi": 56,
      "noteNumber": 56,
      "velocity": 0.74,
      "track": "(unnamed)",
      "channel": 2,
      "lane": "J"
    },
    {
      "time": 200.838,
      "duration": 0.124,
      "midi": 61,
      "noteNumber": 61,
      "velocity": 0.71,
      "track": "(unnamed)",
      "channel": 2,
      "lane": "J"
    },
    {
      "time": 200.838,
      "duration": 0.007,
      "midi": 45,
      "noteNumber": 45,
      "velocity": 0.63,
      "track": "(unnamed)",
      "channel": 9,
      "lane": "F"
    },
    {
      "time": 200.838,
      "duration": 0.213,
      "midi": 34,
      "noteNumber": 34,
      "velocity": 0.51,
      "track": "(unnamed)",
      "channel": 1,
      "lane": "D"
    },
    {
      "time": 201.018,
      "duration": 0.007,
      "midi": 43,
      "noteNumber": 43,
      "velocity": 0.86,
      "track": "(unnamed)",
      "channel": 9,
      "lane": "F"
    },
    {
      "time": 201.197,
      "duration": 0.161,
      "midi": 39,
      "noteNumber": 39,
      "velocity": 0.6,
      "track": "(unnamed)",
      "channel": 2,
      "lane": "D"
    },
    {
      "time": 201.197,
      "duration": 0.007,
      "midi": 35,
      "noteNumber": 35,
      "velocity": 0.87,
      "track": "(unnamed)",
      "channel": 9,
      "lane": "D"
    },
    {
      "time": 201.197,
      "duration": 0.007,
      "midi": 43,
      "noteNumber": 43,
      "velocity": 0.77,
      "track": "(unnamed)",
      "channel": 9,
      "lane": "F"
    },
    {
      "time": 201.197,
      "duration": 0.876,
      "midi": 39,
      "noteNumber": 39,
      "velocity": 0.66,
      "track": "(unnamed)",
      "channel": 1,
      "lane": "D"
    },
    {
      "time": 201.426,
      "duration": 0.056,
      "midi": 54,
      "noteNumber": 54,
      "velocity": 0.71,
      "track": "(unnamed)",
      "channel": 2,
      "lane": "J"
    },
    {
      "time": 201.426,
      "duration": 0.03,
      "midi": 58,
      "noteNumber": 58,
      "velocity": 0.54,
      "track": "(unnamed)",
      "channel": 2,
      "lane": "J"
    },
    {
      "time": 201.426,
      "duration": 0.06,
      "midi": 63,
      "noteNumber": 63,
      "velocity": 0.68,
      "track": "(unnamed)",
      "channel": 2,
      "lane": "J"
    },
    {
      "time": 201.557,
      "duration": 0.007,
      "midi": 40,
      "noteNumber": 40,
      "velocity": 0.97,
      "track": "(unnamed)",
      "channel": 9,
      "lane": "D"
    },
    {
      "time": 201.785,
      "duration": 0.112,
      "midi": 39,
      "noteNumber": 39,
      "velocity": 0.74,
      "track": "(unnamed)",
      "channel": 2,
      "lane": "D"
    },
    {
      "time": 201.916,
      "duration": 0.086,
      "midi": 54,
      "noteNumber": 54,
      "velocity": 0.71,
      "track": "(unnamed)",
      "channel": 2,
      "lane": "J"
    },
    {
      "time": 201.916,
      "duration": 0.041,
      "midi": 58,
      "noteNumber": 58,
      "velocity": 0.68,
      "track": "(unnamed)",
      "channel": 2,
      "lane": "J"
    },
    {
      "time": 201.916,
      "duration": 0.049,
      "midi": 63,
      "noteNumber": 63,
      "velocity": 0.54,
      "track": "(unnamed)",
      "channel": 2,
      "lane": "J"
    },
    {
      "time": 202.275,
      "duration": 0.52,
      "midi": 46,
      "noteNumber": 46,
      "velocity": 0.71,
      "track": "(unnamed)",
      "channel": 2,
      "lane": "F"
    },
    {
      "time": 202.275,
      "duration": 0.007,
      "midi": 40,
      "noteNumber": 40,
      "velocity": 0.78,
      "track": "(unnamed)",
      "channel": 9,
      "lane": "D"
    },
    {
      "time": 202.275,
      "duration": 0.007,
      "midi": 41,
      "noteNumber": 41,
      "velocity": 0.63,
      "track": "(unnamed)",
      "channel": 9,
      "lane": "D"
    },
    {
      "time": 202.275,
      "duration": 0.273,
      "midi": 46,
      "noteNumber": 46,
      "velocity": 0.51,
      "track": "(unnamed)",
      "channel": 1,
      "lane": "F"
    },
    {
      "time": 202.515,
      "duration": 0.007,
      "midi": 40,
      "noteNumber": 40,
      "velocity": 0.87,
      "track": "(unnamed)",
      "channel": 9,
      "lane": "D"
    },
    {
      "time": 202.634,
      "duration": 0.12,
      "midi": 53,
      "noteNumber": 53,
      "velocity": 0.57,
      "track": "(unnamed)",
      "channel": 2,
      "lane": "F"
    },
    {
      "time": 202.634,
      "duration": 0.12,
      "midi": 56,
      "noteNumber": 56,
      "velocity": 0.74,
      "track": "(unnamed)",
      "channel": 2,
      "lane": "J"
    },
    {
      "time": 202.634,
      "duration": 0.124,
      "midi": 61,
      "noteNumber": 61,
      "velocity": 0.71,
      "track": "(unnamed)",
      "channel": 2,
      "lane": "J"
    },
    {
      "time": 202.634,
      "duration": 0.213,
      "midi": 34,
      "noteNumber": 34,
      "velocity": 0.51,
      "track": "(unnamed)",
      "channel": 1,
      "lane": "D"
    },
    {
      "time": 202.754,
      "duration": 0.007,
      "midi": 40,
      "noteNumber": 40,
      "velocity": 0.87,
      "track": "(unnamed)",
      "channel": 9,
      "lane": "D"
    },
    {
      "time": 202.994,
      "duration": 0.161,
      "midi": 39,
      "noteNumber": 39,
      "velocity": 0.6,
      "track": "(unnamed)",
      "channel": 2,
      "lane": "D"
    },
    {
      "time": 202.994,
      "duration": 0.007,
      "midi": 35,
      "noteNumber": 35,
      "velocity": 0.85,
      "track": "(unnamed)",
      "channel": 9,
      "lane": "D"
    },
    {
      "time": 202.994,
      "duration": 0.007,
      "midi": 43,
      "noteNumber": 43,
      "velocity": 1,
      "track": "(unnamed)",
      "channel": 9,
      "lane": "F"
    },
    {
      "time": 202.994,
      "duration": 0.876,
      "midi": 39,
      "noteNumber": 39,
      "velocity": 0.66,
      "track": "(unnamed)",
      "channel": 1,
      "lane": "D"
    },
    {
      "time": 203.222,
      "duration": 0.056,
      "midi": 54,
      "noteNumber": 54,
      "velocity": 0.71,
      "track": "(unnamed)",
      "channel": 2,
      "lane": "J"
    },
    {
      "time": 203.222,
      "duration": 0.03,
      "midi": 58,
      "noteNumber": 58,
      "velocity": 0.54,
      "track": "(unnamed)",
      "channel": 2,
      "lane": "J"
    },
    {
      "time": 203.222,
      "duration": 0.06,
      "midi": 63,
      "noteNumber": 63,
      "velocity": 0.68,
      "track": "(unnamed)",
      "channel": 2,
      "lane": "J"
    },
    {
      "time": 203.353,
      "duration": 0.007,
      "midi": 40,
      "noteNumber": 40,
      "velocity": 0.45,
      "track": "(unnamed)",
      "channel": 9,
      "lane": "D"
    },
    {
      "time": 203.443,
      "duration": 0.007,
      "midi": 40,
      "noteNumber": 40,
      "velocity": 0.54,
      "track": "(unnamed)",
      "channel": 9,
      "lane": "D"
    },
    {
      "time": 203.533,
      "duration": 0.007,
      "midi": 40,
      "noteNumber": 40,
      "velocity": 0.65,
      "track": "(unnamed)",
      "channel": 9,
      "lane": "D"
    },
    {
      "time": 203.581,
      "duration": 0.112,
      "midi": 39,
      "noteNumber": 39,
      "velocity": 0.74,
      "track": "(unnamed)",
      "channel": 2,
      "lane": "D"
    },
    {
      "time": 203.623,
      "duration": 0.007,
      "midi": 40,
      "noteNumber": 40,
      "velocity": 0.69,
      "track": "(unnamed)",
      "channel": 9,
      "lane": "D"
    },
    {
      "time": 203.712,
      "duration": 0.086,
      "midi": 54,
      "noteNumber": 54,
      "velocity": 0.71,
      "track": "(unnamed)",
      "channel": 2,
      "lane": "J"
    },
    {
      "time": 203.712,
      "duration": 0.041,
      "midi": 58,
      "noteNumber": 58,
      "velocity": 0.68,
      "track": "(unnamed)",
      "channel": 2,
      "lane": "J"
    },
    {
      "time": 203.712,
      "duration": 0.049,
      "midi": 63,
      "noteNumber": 63,
      "velocity": 0.54,
      "track": "(unnamed)",
      "channel": 2,
      "lane": "J"
    },
    {
      "time": 203.712,
      "duration": 0.007,
      "midi": 40,
      "noteNumber": 40,
      "velocity": 0.97,
      "track": "(unnamed)",
      "channel": 9,
      "lane": "D"
    },
    {
      "time": 204.072,
      "duration": 0.52,
      "midi": 46,
      "noteNumber": 46,
      "velocity": 0.71,
      "track": "(unnamed)",
      "channel": 2,
      "lane": "F"
    },
    {
      "time": 204.072,
      "duration": 0.273,
      "midi": 46,
      "noteNumber": 46,
      "velocity": 0.51,
      "track": "(unnamed)",
      "channel": 1,
      "lane": "F"
    },
    {
      "time": 204.289,
      "duration": 0.007,
      "midi": 40,
      "noteNumber": 40,
      "velocity": 0.87,
      "track": "(unnamed)",
      "channel": 9,
      "lane": "D"
    },
    {
      "time": 204.431,
      "duration": 0.12,
      "midi": 53,
      "noteNumber": 53,
      "velocity": 0.57,
      "track": "(unnamed)",
      "channel": 2,
      "lane": "F"
    },
    {
      "time": 204.431,
      "duration": 0.12,
      "midi": 56,
      "noteNumber": 56,
      "velocity": 0.74,
      "track": "(unnamed)",
      "channel": 2,
      "lane": "J"
    },
    {
      "time": 204.431,
      "duration": 0.124,
      "midi": 61,
      "noteNumber": 61,
      "velocity": 0.71,
      "track": "(unnamed)",
      "channel": 2,
      "lane": "J"
    },
    {
      "time": 204.431,
      "duration": 0.213,
      "midi": 34,
      "noteNumber": 34,
      "velocity": 0.51,
      "track": "(unnamed)",
      "channel": 1,
      "lane": "D"
    },
    {
      "time": 204.79,
      "duration": 0.161,
      "midi": 39,
      "noteNumber": 39,
      "velocity": 0.6,
      "track": "(unnamed)",
      "channel": 2,
      "lane": "D"
    },
    {
      "time": 204.79,
      "duration": 0.007,
      "midi": 40,
      "noteNumber": 40,
      "velocity": 0.78,
      "track": "(unnamed)",
      "channel": 9,
      "lane": "D"
    },
    {
      "time": 204.79,
      "duration": 0.876,
      "midi": 39,
      "noteNumber": 39,
      "velocity": 0.66,
      "track": "(unnamed)",
      "channel": 1,
      "lane": "D"
    },
    {
      "time": 205.018,
      "duration": 0.056,
      "midi": 54,
      "noteNumber": 54,
      "velocity": 0.71,
      "track": "(unnamed)",
      "channel": 2,
      "lane": "J"
    },
    {
      "time": 205.018,
      "duration": 0.03,
      "midi": 58,
      "noteNumber": 58,
      "velocity": 0.54,
      "track": "(unnamed)",
      "channel": 2,
      "lane": "J"
    },
    {
      "time": 205.018,
      "duration": 0.06,
      "midi": 63,
      "noteNumber": 63,
      "velocity": 0.68,
      "track": "(unnamed)",
      "channel": 2,
      "lane": "J"
    },
    {
      "time": 205.329,
      "duration": 0.007,
      "midi": 40,
      "noteNumber": 40,
      "velocity": 0.78,
      "track": "(unnamed)",
      "channel": 9,
      "lane": "D"
    },
    {
      "time": 205.378,
      "duration": 0.112,
      "midi": 39,
      "noteNumber": 39,
      "velocity": 0.74,
      "track": "(unnamed)",
      "channel": 2,
      "lane": "D"
    },
    {
      "time": 205.509,
      "duration": 0.086,
      "midi": 54,
      "noteNumber": 54,
      "velocity": 0.71,
      "track": "(unnamed)",
      "channel": 2,
      "lane": "J"
    },
    {
      "time": 205.509,
      "duration": 0.041,
      "midi": 58,
      "noteNumber": 58,
      "velocity": 0.68,
      "track": "(unnamed)",
      "channel": 2,
      "lane": "J"
    },
    {
      "time": 205.509,
      "duration": 0.049,
      "midi": 63,
      "noteNumber": 63,
      "velocity": 0.54,
      "track": "(unnamed)",
      "channel": 2,
      "lane": "J"
    },
    {
      "time": 205.599,
      "duration": 0.007,
      "midi": 43,
      "noteNumber": 43,
      "velocity": 0.86,
      "track": "(unnamed)",
      "channel": 9,
      "lane": "F"
    },
    {
      "time": 205.868,
      "duration": 0.52,
      "midi": 46,
      "noteNumber": 46,
      "velocity": 0.71,
      "track": "(unnamed)",
      "channel": 2,
      "lane": "F"
    },
    {
      "time": 205.868,
      "duration": 0.007,
      "midi": 43,
      "noteNumber": 43,
      "velocity": 0.7,
      "track": "(unnamed)",
      "channel": 9,
      "lane": "F"
    },
    {
      "time": 205.868,
      "duration": 0.273,
      "midi": 46,
      "noteNumber": 46,
      "velocity": 0.51,
      "track": "(unnamed)",
      "channel": 1,
      "lane": "F"
    },
    {
      "time": 206.137,
      "duration": 0.007,
      "midi": 43,
      "noteNumber": 43,
      "velocity": 0.83,
      "track": "(unnamed)",
      "channel": 9,
      "lane": "F"
    },
    {
      "time": 206.227,
      "duration": 0.12,
      "midi": 53,
      "noteNumber": 53,
      "velocity": 0.57,
      "track": "(unnamed)",
      "channel": 2,
      "lane": "F"
    },
    {
      "time": 206.227,
      "duration": 0.12,
      "midi": 56,
      "noteNumber": 56,
      "velocity": 0.74,
      "track": "(unnamed)",
      "channel": 2,
      "lane": "J"
    },
    {
      "time": 206.227,
      "duration": 0.124,
      "midi": 61,
      "noteNumber": 61,
      "velocity": 0.71,
      "track": "(unnamed)",
      "channel": 2,
      "lane": "J"
    },
    {
      "time": 206.227,
      "duration": 0.213,
      "midi": 34,
      "noteNumber": 34,
      "velocity": 0.51,
      "track": "(unnamed)",
      "channel": 1,
      "lane": "D"
    },
    {
      "time": 206.587,
      "duration": 0.161,
      "midi": 39,
      "noteNumber": 39,
      "velocity": 0.6,
      "track": "(unnamed)",
      "channel": 2,
      "lane": "D"
    },
    {
      "time": 206.587,
      "duration": 0.007,
      "midi": 35,
      "noteNumber": 35,
      "velocity": 0.81,
      "track": "(unnamed)",
      "channel": 9,
      "lane": "D"
    },
    {
      "time": 206.587,
      "duration": 0.007,
      "midi": 43,
      "noteNumber": 43,
      "velocity": 0.94,
      "track": "(unnamed)",
      "channel": 9,
      "lane": "F"
    },
    {
      "time": 206.587,
      "duration": 0.876,
      "midi": 39,
      "noteNumber": 39,
      "velocity": 0.66,
      "track": "(unnamed)",
      "channel": 1,
      "lane": "D"
    },
    {
      "time": 206.815,
      "duration": 0.056,
      "midi": 54,
      "noteNumber": 54,
      "velocity": 0.71,
      "track": "(unnamed)",
      "channel": 2,
      "lane": "J"
    },
    {
      "time": 206.815,
      "duration": 0.03,
      "midi": 58,
      "noteNumber": 58,
      "velocity": 0.54,
      "track": "(unnamed)",
      "channel": 2,
      "lane": "J"
    },
    {
      "time": 206.815,
      "duration": 0.06,
      "midi": 63,
      "noteNumber": 63,
      "velocity": 0.68,
      "track": "(unnamed)",
      "channel": 2,
      "lane": "J"
    },
    {
      "time": 207.155,
      "duration": 0.007,
      "midi": 40,
      "noteNumber": 40,
      "velocity": 0.72,
      "track": "(unnamed)",
      "channel": 9,
      "lane": "D"
    },
    {
      "time": 207.174,
      "duration": 0.112,
      "midi": 39,
      "noteNumber": 39,
      "velocity": 0.74,
      "track": "(unnamed)",
      "channel": 2,
      "lane": "D"
    },
    {
      "time": 207.305,
      "duration": 0.086,
      "midi": 54,
      "noteNumber": 54,
      "velocity": 0.71,
      "track": "(unnamed)",
      "channel": 2,
      "lane": "J"
    },
    {
      "time": 207.305,
      "duration": 0.041,
      "midi": 58,
      "noteNumber": 58,
      "velocity": 0.68,
      "track": "(unnamed)",
      "channel": 2,
      "lane": "J"
    },
    {
      "time": 207.305,
      "duration": 0.049,
      "midi": 63,
      "noteNumber": 63,
      "velocity": 0.54,
      "track": "(unnamed)",
      "channel": 2,
      "lane": "J"
    },
    {
      "time": 207.515,
      "duration": 0.007,
      "midi": 40,
      "noteNumber": 40,
      "velocity": 0.83,
      "track": "(unnamed)",
      "channel": 9,
      "lane": "D"
    },
    {
      "time": 207.664,
      "duration": 0.52,
      "midi": 46,
      "noteNumber": 46,
      "velocity": 0.71,
      "track": "(unnamed)",
      "channel": 2,
      "lane": "F"
    },
    {
      "time": 207.664,
      "duration": 0.007,
      "midi": 40,
      "noteNumber": 40,
      "velocity": 0.34,
      "track": "(unnamed)",
      "channel": 9,
      "lane": "D"
    },
    {
      "time": 207.664,
      "duration": 0.273,
      "midi": 46,
      "noteNumber": 46,
      "velocity": 0.51,
      "track": "(unnamed)",
      "channel": 1,
      "lane": "F"
    },
    {
      "time": 207.724,
      "duration": 0.007,
      "midi": 40,
      "noteNumber": 40,
      "velocity": 0.34,
      "track": "(unnamed)",
      "channel": 9,
      "lane": "D"
    },
    {
      "time": 207.784,
      "duration": 0.007,
      "midi": 40,
      "noteNumber": 40,
      "velocity": 0.34,
      "track": "(unnamed)",
      "channel": 9,
      "lane": "D"
    },
    {
      "time": 207.844,
      "duration": 0.007,
      "midi": 40,
      "noteNumber": 40,
      "velocity": 0.34,
      "track": "(unnamed)",
      "channel": 9,
      "lane": "D"
    },
    {
      "time": 207.904,
      "duration": 0.007,
      "midi": 40,
      "noteNumber": 40,
      "velocity": 0.65,
      "track": "(unnamed)",
      "channel": 9,
      "lane": "D"
    },
    {
      "time": 208.024,
      "duration": 0.12,
      "midi": 53,
      "noteNumber": 53,
      "velocity": 0.57,
      "track": "(unnamed)",
      "channel": 2,
      "lane": "F"
    },
    {
      "time": 208.024,
      "duration": 0.12,
      "midi": 56,
      "noteNumber": 56,
      "velocity": 0.74,
      "track": "(unnamed)",
      "channel": 2,
      "lane": "J"
    },
    {
      "time": 208.024,
      "duration": 0.124,
      "midi": 61,
      "noteNumber": 61,
      "velocity": 0.71,
      "track": "(unnamed)",
      "channel": 2,
      "lane": "J"
    },
    {
      "time": 208.024,
      "duration": 0.007,
      "midi": 40,
      "noteNumber": 40,
      "velocity": 0.78,
      "track": "(unnamed)",
      "channel": 9,
      "lane": "D"
    },
    {
      "time": 208.024,
      "duration": 0.213,
      "midi": 34,
      "noteNumber": 34,
      "velocity": 0.51,
      "track": "(unnamed)",
      "channel": 1,
      "lane": "D"
    },
    {
      "time": 208.233,
      "duration": 0.007,
      "midi": 35,
      "noteNumber": 35,
      "velocity": 0.69,
      "track": "(unnamed)",
      "channel": 9,
      "lane": "D"
    },
    {
      "time": 208.383,
      "duration": 0.161,
      "midi": 39,
      "noteNumber": 39,
      "velocity": 0.6,
      "track": "(unnamed)",
      "channel": 2,
      "lane": "D"
    },
    {
      "time": 208.383,
      "duration": 0.007,
      "midi": 35,
      "noteNumber": 35,
      "velocity": 0.81,
      "track": "(unnamed)",
      "channel": 9,
      "lane": "D"
    },
    {
      "time": 208.383,
      "duration": 0.007,
      "midi": 43,
      "noteNumber": 43,
      "velocity": 0.86,
      "track": "(unnamed)",
      "channel": 9,
      "lane": "F"
    },
    {
      "time": 208.383,
      "duration": 0.876,
      "midi": 39,
      "noteNumber": 39,
      "velocity": 0.66,
      "track": "(unnamed)",
      "channel": 1,
      "lane": "D"
    },
    {
      "time": 208.611,
      "duration": 0.056,
      "midi": 54,
      "noteNumber": 54,
      "velocity": 0.71,
      "track": "(unnamed)",
      "channel": 2,
      "lane": "J"
    },
    {
      "time": 208.611,
      "duration": 0.03,
      "midi": 58,
      "noteNumber": 58,
      "velocity": 0.54,
      "track": "(unnamed)",
      "channel": 2,
      "lane": "J"
    },
    {
      "time": 208.611,
      "duration": 0.06,
      "midi": 63,
      "noteNumber": 63,
      "velocity": 0.68,
      "track": "(unnamed)",
      "channel": 2,
      "lane": "J"
    },
    {
      "time": 208.952,
      "duration": 0.007,
      "midi": 40,
      "noteNumber": 40,
      "velocity": 0.54,
      "track": "(unnamed)",
      "channel": 9,
      "lane": "D"
    },
    {
      "time": 208.971,
      "duration": 0.112,
      "midi": 39,
      "noteNumber": 39,
      "velocity": 0.74,
      "track": "(unnamed)",
      "channel": 2,
      "lane": "D"
    },
    {
      "time": 209.102,
      "duration": 0.086,
      "midi": 54,
      "noteNumber": 54,
      "velocity": 0.71,
      "track": "(unnamed)",
      "channel": 2,
      "lane": "J"
    },
    {
      "time": 209.102,
      "duration": 0.041,
      "midi": 58,
      "noteNumber": 58,
      "velocity": 0.68,
      "track": "(unnamed)",
      "channel": 2,
      "lane": "J"
    },
    {
      "time": 209.102,
      "duration": 0.049,
      "midi": 63,
      "noteNumber": 63,
      "velocity": 0.54,
      "track": "(unnamed)",
      "channel": 2,
      "lane": "J"
    },
    {
      "time": 209.311,
      "duration": 0.007,
      "midi": 40,
      "noteNumber": 40,
      "velocity": 0.42,
      "track": "(unnamed)",
      "channel": 9,
      "lane": "D"
    },
    {
      "time": 209.461,
      "duration": 0.52,
      "midi": 46,
      "noteNumber": 46,
      "velocity": 0.71,
      "track": "(unnamed)",
      "channel": 2,
      "lane": "F"
    },
    {
      "time": 209.461,
      "duration": 0.007,
      "midi": 40,
      "noteNumber": 40,
      "velocity": 0.75,
      "track": "(unnamed)",
      "channel": 9,
      "lane": "D"
    },
    {
      "time": 209.461,
      "duration": 0.273,
      "midi": 46,
      "noteNumber": 46,
      "velocity": 0.51,
      "track": "(unnamed)",
      "channel": 1,
      "lane": "F"
    },
    {
      "time": 209.82,
      "duration": 0.12,
      "midi": 53,
      "noteNumber": 53,
      "velocity": 0.57,
      "track": "(unnamed)",
      "channel": 2,
      "lane": "F"
    },
    {
      "time": 209.82,
      "duration": 0.12,
      "midi": 56,
      "noteNumber": 56,
      "velocity": 0.74,
      "track": "(unnamed)",
      "channel": 2,
      "lane": "J"
    },
    {
      "time": 209.82,
      "duration": 0.124,
      "midi": 61,
      "noteNumber": 61,
      "velocity": 0.71,
      "track": "(unnamed)",
      "channel": 2,
      "lane": "J"
    },
    {
      "time": 209.82,
      "duration": 0.007,
      "midi": 35,
      "noteNumber": 35,
      "velocity": 0.54,
      "track": "(unnamed)",
      "channel": 9,
      "lane": "D"
    },
    {
      "time": 209.82,
      "duration": 0.007,
      "midi": 41,
      "noteNumber": 41,
      "velocity": 0.54,
      "track": "(unnamed)",
      "channel": 9,
      "lane": "D"
    },
    {
      "time": 209.82,
      "duration": 0.213,
      "midi": 34,
      "noteNumber": 34,
      "velocity": 0.51,
      "track": "(unnamed)",
      "channel": 1,
      "lane": "D"
    },
    {
      "time": 210.045,
      "duration": 0.007,
      "midi": 35,
      "noteNumber": 35,
      "velocity": 0.62,
      "track": "(unnamed)",
      "channel": 9,
      "lane": "D"
    },
    {
      "time": 210.045,
      "duration": 0.007,
      "midi": 41,
      "noteNumber": 41,
      "velocity": 0.67,
      "track": "(unnamed)",
      "channel": 9,
      "lane": "D"
    },
    {
      "time": 210.179,
      "duration": 0.161,
      "midi": 39,
      "noteNumber": 39,
      "velocity": 0.6,
      "track": "(unnamed)",
      "channel": 2,
      "lane": "D"
    },
    {
      "time": 210.179,
      "duration": 0.007,
      "midi": 35,
      "noteNumber": 35,
      "velocity": 0.69,
      "track": "(unnamed)",
      "channel": 9,
      "lane": "D"
    },
    {
      "time": 210.179,
      "duration": 0.007,
      "midi": 43,
      "noteNumber": 43,
      "velocity": 0.63,
      "track": "(unnamed)",
      "channel": 9,
      "lane": "F"
    },
    {
      "time": 210.179,
      "duration": 0.876,
      "midi": 39,
      "noteNumber": 39,
      "velocity": 0.66,
      "track": "(unnamed)",
      "channel": 1,
      "lane": "D"
    },
    {
      "time": 210.408,
      "duration": 0.056,
      "midi": 54,
      "noteNumber": 54,
      "velocity": 0.71,
      "track": "(unnamed)",
      "channel": 2,
      "lane": "J"
    },
    {
      "time": 210.408,
      "duration": 0.03,
      "midi": 58,
      "noteNumber": 58,
      "velocity": 0.54,
      "track": "(unnamed)",
      "channel": 2,
      "lane": "J"
    },
    {
      "time": 210.408,
      "duration": 0.06,
      "midi": 63,
      "noteNumber": 63,
      "velocity": 0.68,
      "track": "(unnamed)",
      "channel": 2,
      "lane": "J"
    },
    {
      "time": 210.759,
      "duration": 0.007,
      "midi": 45,
      "noteNumber": 45,
      "velocity": 0.5,
      "track": "(unnamed)",
      "channel": 9,
      "lane": "F"
    },
    {
      "time": 210.767,
      "duration": 0.112,
      "midi": 39,
      "noteNumber": 39,
      "velocity": 0.74,
      "track": "(unnamed)",
      "channel": 2,
      "lane": "D"
    },
    {
      "time": 210.898,
      "duration": 0.086,
      "midi": 54,
      "noteNumber": 54,
      "velocity": 0.71,
      "track": "(unnamed)",
      "channel": 2,
      "lane": "J"
    },
    {
      "time": 210.898,
      "duration": 0.041,
      "midi": 58,
      "noteNumber": 58,
      "velocity": 0.68,
      "track": "(unnamed)",
      "channel": 2,
      "lane": "J"
    },
    {
      "time": 210.898,
      "duration": 0.049,
      "midi": 63,
      "noteNumber": 63,
      "velocity": 0.54,
      "track": "(unnamed)",
      "channel": 2,
      "lane": "J"
    },
    {
      "time": 210.898,
      "duration": 0.007,
      "midi": 45,
      "noteNumber": 45,
      "velocity": 0.83,
      "track": "(unnamed)",
      "channel": 9,
      "lane": "F"
    },
    {
      "time": 211.257,
      "duration": 0.52,
      "midi": 46,
      "noteNumber": 46,
      "velocity": 0.71,
      "track": "(unnamed)",
      "channel": 2,
      "lane": "F"
    },
    {
      "time": 211.257,
      "duration": 0.273,
      "midi": 46,
      "noteNumber": 46,
      "velocity": 0.51,
      "track": "(unnamed)",
      "channel": 1,
      "lane": "F"
    },
    {
      "time": 211.497,
      "duration": 0.007,
      "midi": 40,
      "noteNumber": 40,
      "velocity": 0.65,
      "track": "(unnamed)",
      "channel": 9,
      "lane": "D"
    },
    {
      "time": 211.617,
      "duration": 0.12,
      "midi": 53,
      "noteNumber": 53,
      "velocity": 0.57,
      "track": "(unnamed)",
      "channel": 2,
      "lane": "F"
    },
    {
      "time": 211.617,
      "duration": 0.12,
      "midi": 56,
      "noteNumber": 56,
      "velocity": 0.74,
      "track": "(unnamed)",
      "channel": 2,
      "lane": "J"
    },
    {
      "time": 211.617,
      "duration": 0.124,
      "midi": 61,
      "noteNumber": 61,
      "velocity": 0.71,
      "track": "(unnamed)",
      "channel": 2,
      "lane": "J"
    },
    {
      "time": 211.617,
      "duration": 0.213,
      "midi": 34,
      "noteNumber": 34,
      "velocity": 0.51,
      "track": "(unnamed)",
      "channel": 1,
      "lane": "D"
    },
    {
      "time": 211.841,
      "duration": 0.007,
      "midi": 35,
      "noteNumber": 35,
      "velocity": 0.74,
      "track": "(unnamed)",
      "channel": 9,
      "lane": "D"
    },
    {
      "time": 211.976,
      "duration": 0.161,
      "midi": 39,
      "noteNumber": 39,
      "velocity": 0.6,
      "track": "(unnamed)",
      "channel": 2,
      "lane": "D"
    },
    {
      "time": 211.976,
      "duration": 0.007,
      "midi": 35,
      "noteNumber": 35,
      "velocity": 0.62,
      "track": "(unnamed)",
      "channel": 9,
      "lane": "D"
    },
    {
      "time": 211.976,
      "duration": 0.007,
      "midi": 43,
      "noteNumber": 43,
      "velocity": 0.54,
      "track": "(unnamed)",
      "channel": 9,
      "lane": "F"
    },
    {
      "time": 211.976,
      "duration": 0.876,
      "midi": 39,
      "noteNumber": 39,
      "velocity": 0.66,
      "track": "(unnamed)",
      "channel": 1,
      "lane": "D"
    },
    {
      "time": 212.204,
      "duration": 0.056,
      "midi": 54,
      "noteNumber": 54,
      "velocity": 0.71,
      "track": "(unnamed)",
      "channel": 2,
      "lane": "J"
    },
    {
      "time": 212.204,
      "duration": 0.03,
      "midi": 58,
      "noteNumber": 58,
      "velocity": 0.54,
      "track": "(unnamed)",
      "channel": 2,
      "lane": "J"
    },
    {
      "time": 212.204,
      "duration": 0.06,
      "midi": 63,
      "noteNumber": 63,
      "velocity": 0.68,
      "track": "(unnamed)",
      "channel": 2,
      "lane": "J"
    },
    {
      "time": 212.56,
      "duration": 0.007,
      "midi": 35,
      "noteNumber": 35,
      "velocity": 0.58,
      "track": "(unnamed)",
      "channel": 9,
      "lane": "D"
    },
    {
      "time": 212.56,
      "duration": 0.007,
      "midi": 43,
      "noteNumber": 43,
      "velocity": 0.63,
      "track": "(unnamed)",
      "channel": 9,
      "lane": "F"
    },
    {
      "time": 212.563,
      "duration": 0.112,
      "midi": 39,
      "noteNumber": 39,
      "velocity": 0.74,
      "track": "(unnamed)",
      "channel": 2,
      "lane": "D"
    },
    {
      "time": 212.694,
      "duration": 0.086,
      "midi": 54,
      "noteNumber": 54,
      "velocity": 0.71,
      "track": "(unnamed)",
      "channel": 2,
      "lane": "J"
    },
    {
      "time": 212.694,
      "duration": 0.041,
      "midi": 58,
      "noteNumber": 58,
      "velocity": 0.68,
      "track": "(unnamed)",
      "channel": 2,
      "lane": "J"
    },
    {
      "time": 212.694,
      "duration": 0.049,
      "midi": 63,
      "noteNumber": 63,
      "velocity": 0.54,
      "track": "(unnamed)",
      "channel": 2,
      "lane": "J"
    },
    {
      "time": 212.919,
      "duration": 0.007,
      "midi": 43,
      "noteNumber": 43,
      "velocity": 0.39,
      "track": "(unnamed)",
      "channel": 9,
      "lane": "F"
    },
    {
      "time": 213.054,
      "duration": 0.52,
      "midi": 46,
      "noteNumber": 46,
      "velocity": 0.71,
      "track": "(unnamed)",
      "channel": 2,
      "lane": "F"
    },
    {
      "time": 213.054,
      "duration": 0.007,
      "midi": 35,
      "noteNumber": 35,
      "velocity": 0.54,
      "track": "(unnamed)",
      "channel": 9,
      "lane": "D"
    },
    {
      "time": 213.054,
      "duration": 0.007,
      "midi": 43,
      "noteNumber": 43,
      "velocity": 0.59,
      "track": "(unnamed)",
      "channel": 9,
      "lane": "F"
    },
    {
      "time": 213.054,
      "duration": 0.273,
      "midi": 46,
      "noteNumber": 46,
      "velocity": 0.51,
      "track": "(unnamed)",
      "channel": 1,
      "lane": "F"
    },
    {
      "time": 213.413,
      "duration": 0.12,
      "midi": 53,
      "noteNumber": 53,
      "velocity": 0.57,
      "track": "(unnamed)",
      "channel": 2,
      "lane": "F"
    },
    {
      "time": 213.413,
      "duration": 0.12,
      "midi": 56,
      "noteNumber": 56,
      "velocity": 0.74,
      "track": "(unnamed)",
      "channel": 2,
      "lane": "J"
    },
    {
      "time": 213.413,
      "duration": 0.124,
      "midi": 61,
      "noteNumber": 61,
      "velocity": 0.71,
      "track": "(unnamed)",
      "channel": 2,
      "lane": "J"
    },
    {
      "time": 213.413,
      "duration": 0.007,
      "midi": 35,
      "noteNumber": 35,
      "velocity": 0.58,
      "track": "(unnamed)",
      "channel": 9,
      "lane": "D"
    },
    {
      "time": 213.413,
      "duration": 0.007,
      "midi": 43,
      "noteNumber": 43,
      "velocity": 0.63,
      "track": "(unnamed)",
      "channel": 9,
      "lane": "F"
    },
    {
      "time": 213.413,
      "duration": 0.213,
      "midi": 34,
      "noteNumber": 34,
      "velocity": 0.51,
      "track": "(unnamed)",
      "channel": 1,
      "lane": "D"
    },
    {
      "time": 213.772,
      "duration": 0.161,
      "midi": 39,
      "noteNumber": 39,
      "velocity": 0.6,
      "track": "(unnamed)",
      "channel": 2,
      "lane": "D"
    },
    {
      "time": 213.772,
      "duration": 0.007,
      "midi": 40,
      "noteNumber": 40,
      "velocity": 0.57,
      "track": "(unnamed)",
      "channel": 9,
      "lane": "D"
    },
    {
      "time": 213.772,
      "duration": 0.876,
      "midi": 39,
      "noteNumber": 39,
      "velocity": 0.66,
      "track": "(unnamed)",
      "channel": 1,
      "lane": "D"
    },
    {
      "time": 213.892,
      "duration": 0.007,
      "midi": 40,
      "noteNumber": 40,
      "velocity": 0.4,
      "track": "(unnamed)",
      "channel": 9,
      "lane": "D"
    },
    {
      "time": 214,
      "duration": 0.056,
      "midi": 54,
      "noteNumber": 54,
      "velocity": 0.71,
      "track": "(unnamed)",
      "channel": 2,
      "lane": "J"
    },
    {
      "time": 214,
      "duration": 0.03,
      "midi": 58,
      "noteNumber": 58,
      "velocity": 0.54,
      "track": "(unnamed)",
      "channel": 2,
      "lane": "J"
    },
    {
      "time": 214,
      "duration": 0.06,
      "midi": 63,
      "noteNumber": 63,
      "velocity": 0.68,
      "track": "(unnamed)",
      "channel": 2,
      "lane": "J"
    },
    {
      "time": 214.131,
      "duration": 0.007,
      "midi": 40,
      "noteNumber": 40,
      "velocity": 0.4,
      "track": "(unnamed)",
      "channel": 9,
      "lane": "D"
    },
    {
      "time": 214.356,
      "duration": 0.007,
      "midi": 40,
      "noteNumber": 40,
      "velocity": 0.69,
      "track": "(unnamed)",
      "channel": 9,
      "lane": "D"
    },
    {
      "time": 214.36,
      "duration": 0.112,
      "midi": 39,
      "noteNumber": 39,
      "velocity": 0.74,
      "track": "(unnamed)",
      "channel": 2,
      "lane": "D"
    },
    {
      "time": 214.491,
      "duration": 0.086,
      "midi": 54,
      "noteNumber": 54,
      "velocity": 0.71,
      "track": "(unnamed)",
      "channel": 2,
      "lane": "J"
    },
    {
      "time": 214.491,
      "duration": 0.041,
      "midi": 58,
      "noteNumber": 58,
      "velocity": 0.68,
      "track": "(unnamed)",
      "channel": 2,
      "lane": "J"
    },
    {
      "time": 214.491,
      "duration": 0.049,
      "midi": 63,
      "noteNumber": 63,
      "velocity": 0.54,
      "track": "(unnamed)",
      "channel": 2,
      "lane": "J"
    },
    {
      "time": 214.715,
      "duration": 0.007,
      "midi": 35,
      "noteNumber": 35,
      "velocity": 0.52,
      "track": "(unnamed)",
      "channel": 9,
      "lane": "D"
    },
    {
      "time": 214.715,
      "duration": 0.007,
      "midi": 45,
      "noteNumber": 45,
      "velocity": 0.5,
      "track": "(unnamed)",
      "channel": 9,
      "lane": "F"
    },
    {
      "time": 214.85,
      "duration": 0.52,
      "midi": 46,
      "noteNumber": 46,
      "velocity": 0.71,
      "track": "(unnamed)",
      "channel": 2,
      "lane": "F"
    },
    {
      "time": 214.85,
      "duration": 0.273,
      "midi": 46,
      "noteNumber": 46,
      "velocity": 0.51,
      "track": "(unnamed)",
      "channel": 1,
      "lane": "F"
    },
    {
      "time": 215.075,
      "duration": 0.007,
      "midi": 35,
      "noteNumber": 35,
      "velocity": 0.62,
      "track": "(unnamed)",
      "channel": 9,
      "lane": "D"
    },
    {
      "time": 215.075,
      "duration": 0.007,
      "midi": 45,
      "noteNumber": 45,
      "velocity": 0.44,
      "track": "(unnamed)",
      "channel": 9,
      "lane": "F"
    },
    {
      "time": 215.209,
      "duration": 0.12,
      "midi": 53,
      "noteNumber": 53,
      "velocity": 0.57,
      "track": "(unnamed)",
      "channel": 2,
      "lane": "F"
    },
    {
      "time": 215.209,
      "duration": 0.12,
      "midi": 56,
      "noteNumber": 56,
      "velocity": 0.74,
      "track": "(unnamed)",
      "channel": 2,
      "lane": "J"
    },
    {
      "time": 215.209,
      "duration": 0.124,
      "midi": 61,
      "noteNumber": 61,
      "velocity": 0.71,
      "track": "(unnamed)",
      "channel": 2,
      "lane": "J"
    },
    {
      "time": 215.209,
      "duration": 0.007,
      "midi": 35,
      "noteNumber": 35,
      "velocity": 0.65,
      "track": "(unnamed)",
      "channel": 9,
      "lane": "D"
    },
    {
      "time": 215.209,
      "duration": 0.007,
      "midi": 45,
      "noteNumber": 45,
      "velocity": 0.76,
      "track": "(unnamed)",
      "channel": 9,
      "lane": "F"
    },
    {
      "time": 215.209,
      "duration": 0.213,
      "midi": 34,
      "noteNumber": 34,
      "velocity": 0.51,
      "track": "(unnamed)",
      "channel": 1,
      "lane": "D"
    },
    {
      "time": 215.569,
      "duration": 0.161,
      "midi": 39,
      "noteNumber": 39,
      "velocity": 0.6,
      "track": "(unnamed)",
      "channel": 2,
      "lane": "D"
    },
    {
      "time": 215.569,
      "duration": 0.007,
      "midi": 35,
      "noteNumber": 35,
      "velocity": 0.78,
      "track": "(unnamed)",
      "channel": 9,
      "lane": "D"
    },
    {
      "time": 215.569,
      "duration": 0.007,
      "midi": 43,
      "noteNumber": 43,
      "velocity": 0.9,
      "track": "(unnamed)",
      "channel": 9,
      "lane": "F"
    },
    {
      "time": 215.569,
      "duration": 0.876,
      "midi": 39,
      "noteNumber": 39,
      "velocity": 0.66,
      "track": "(unnamed)",
      "channel": 1,
      "lane": "D"
    },
    {
      "time": 215.797,
      "duration": 0.056,
      "midi": 54,
      "noteNumber": 54,
      "velocity": 0.71,
      "track": "(unnamed)",
      "channel": 2,
      "lane": "J"
    },
    {
      "time": 215.797,
      "duration": 0.03,
      "midi": 58,
      "noteNumber": 58,
      "velocity": 0.54,
      "track": "(unnamed)",
      "channel": 2,
      "lane": "J"
    },
    {
      "time": 215.797,
      "duration": 0.06,
      "midi": 63,
      "noteNumber": 63,
      "velocity": 0.68,
      "track": "(unnamed)",
      "channel": 2,
      "lane": "J"
    },
    {
      "time": 216.152,
      "duration": 0.007,
      "midi": 40,
      "noteNumber": 40,
      "velocity": 0.45,
      "track": "(unnamed)",
      "channel": 9,
      "lane": "D"
    },
    {
      "time": 216.156,
      "duration": 0.112,
      "midi": 39,
      "noteNumber": 39,
      "velocity": 0.74,
      "track": "(unnamed)",
      "channel": 2,
      "lane": "D"
    },
    {
      "time": 216.287,
      "duration": 0.086,
      "midi": 54,
      "noteNumber": 54,
      "velocity": 0.71,
      "track": "(unnamed)",
      "channel": 2,
      "lane": "J"
    },
    {
      "time": 216.287,
      "duration": 0.041,
      "midi": 58,
      "noteNumber": 58,
      "velocity": 0.68,
      "track": "(unnamed)",
      "channel": 2,
      "lane": "J"
    },
    {
      "time": 216.287,
      "duration": 0.049,
      "midi": 63,
      "noteNumber": 63,
      "velocity": 0.54,
      "track": "(unnamed)",
      "channel": 2,
      "lane": "J"
    },
    {
      "time": 216.512,
      "duration": 0.007,
      "midi": 40,
      "noteNumber": 40,
      "velocity": 0.46,
      "track": "(unnamed)",
      "channel": 9,
      "lane": "D"
    },
    {
      "time": 216.646,
      "duration": 0.52,
      "midi": 46,
      "noteNumber": 46,
      "velocity": 0.71,
      "track": "(unnamed)",
      "channel": 2,
      "lane": "F"
    },
    {
      "time": 216.646,
      "duration": 0.007,
      "midi": 40,
      "noteNumber": 40,
      "velocity": 0.87,
      "track": "(unnamed)",
      "channel": 9,
      "lane": "D"
    },
    {
      "time": 216.646,
      "duration": 0.273,
      "midi": 46,
      "noteNumber": 46,
      "velocity": 0.51,
      "track": "(unnamed)",
      "channel": 1,
      "lane": "F"
    },
    {
      "time": 217.006,
      "duration": 0.12,
      "midi": 53,
      "noteNumber": 53,
      "velocity": 0.57,
      "track": "(unnamed)",
      "channel": 2,
      "lane": "F"
    },
    {
      "time": 217.006,
      "duration": 0.12,
      "midi": 56,
      "noteNumber": 56,
      "velocity": 0.74,
      "track": "(unnamed)",
      "channel": 2,
      "lane": "J"
    },
    {
      "time": 217.006,
      "duration": 0.124,
      "midi": 61,
      "noteNumber": 61,
      "velocity": 0.71,
      "track": "(unnamed)",
      "channel": 2,
      "lane": "J"
    },
    {
      "time": 217.006,
      "duration": 0.007,
      "midi": 35,
      "noteNumber": 35,
      "velocity": 0.84,
      "track": "(unnamed)",
      "channel": 9,
      "lane": "D"
    },
    {
      "time": 217.006,
      "duration": 0.213,
      "midi": 34,
      "noteNumber": 34,
      "velocity": 0.51,
      "track": "(unnamed)",
      "channel": 1,
      "lane": "D"
    },
    {
      "time": 217.365,
      "duration": 0.161,
      "midi": 39,
      "noteNumber": 39,
      "velocity": 0.6,
      "track": "(unnamed)",
      "channel": 2,
      "lane": "D"
    },
    {
      "time": 217.365,
      "duration": 0.007,
      "midi": 37,
      "noteNumber": 37,
      "velocity": 0.74,
      "track": "(unnamed)",
      "channel": 9,
      "lane": "D"
    },
    {
      "time": 217.365,
      "duration": 0.007,
      "midi": 40,
      "noteNumber": 40,
      "velocity": 0.69,
      "track": "(unnamed)",
      "channel": 9,
      "lane": "D"
    },
    {
      "time": 217.365,
      "duration": 0.876,
      "midi": 39,
      "noteNumber": 39,
      "velocity": 0.66,
      "track": "(unnamed)",
      "channel": 1,
      "lane": "D"
    },
    {
      "time": 217.485,
      "duration": 0.007,
      "midi": 40,
      "noteNumber": 40,
      "velocity": 0.69,
      "track": "(unnamed)",
      "channel": 9,
      "lane": "D"
    },
    {
      "time": 217.593,
      "duration": 0.056,
      "midi": 54,
      "noteNumber": 54,
      "velocity": 0.71,
      "track": "(unnamed)",
      "channel": 2,
      "lane": "J"
    },
    {
      "time": 217.593,
      "duration": 0.03,
      "midi": 58,
      "noteNumber": 58,
      "velocity": 0.54,
      "track": "(unnamed)",
      "channel": 2,
      "lane": "J"
    },
    {
      "time": 217.593,
      "duration": 0.06,
      "midi": 63,
      "noteNumber": 63,
      "velocity": 0.68,
      "track": "(unnamed)",
      "channel": 2,
      "lane": "J"
    },
    {
      "time": 217.724,
      "duration": 0.007,
      "midi": 40,
      "noteNumber": 40,
      "velocity": 0.45,
      "track": "(unnamed)",
      "channel": 9,
      "lane": "D"
    },
    {
      "time": 217.949,
      "duration": 0.007,
      "midi": 43,
      "noteNumber": 43,
      "velocity": 0.9,
      "track": "(unnamed)",
      "channel": 9,
      "lane": "F"
    },
    {
      "time": 217.953,
      "duration": 0.112,
      "midi": 39,
      "noteNumber": 39,
      "velocity": 0.74,
      "track": "(unnamed)",
      "channel": 2,
      "lane": "D"
    },
    {
      "time": 218.084,
      "duration": 0.086,
      "midi": 54,
      "noteNumber": 54,
      "velocity": 0.71,
      "track": "(unnamed)",
      "channel": 2,
      "lane": "J"
    },
    {
      "time": 218.084,
      "duration": 0.041,
      "midi": 58,
      "noteNumber": 58,
      "velocity": 0.68,
      "track": "(unnamed)",
      "channel": 2,
      "lane": "J"
    },
    {
      "time": 218.084,
      "duration": 0.049,
      "midi": 63,
      "noteNumber": 63,
      "velocity": 0.54,
      "track": "(unnamed)",
      "channel": 2,
      "lane": "J"
    },
    {
      "time": 218.308,
      "duration": 0.007,
      "midi": 40,
      "noteNumber": 40,
      "velocity": 0.4,
      "track": "(unnamed)",
      "channel": 9,
      "lane": "D"
    },
    {
      "time": 218.443,
      "duration": 0.52,
      "midi": 46,
      "noteNumber": 46,
      "velocity": 0.71,
      "track": "(unnamed)",
      "channel": 2,
      "lane": "F"
    },
    {
      "time": 218.443,
      "duration": 0.007,
      "midi": 40,
      "noteNumber": 40,
      "velocity": 0.46,
      "track": "(unnamed)",
      "channel": 9,
      "lane": "D"
    },
    {
      "time": 218.443,
      "duration": 0.273,
      "midi": 46,
      "noteNumber": 46,
      "velocity": 0.51,
      "track": "(unnamed)",
      "channel": 1,
      "lane": "F"
    },
    {
      "time": 218.667,
      "duration": 0.007,
      "midi": 40,
      "noteNumber": 40,
      "velocity": 0.45,
      "track": "(unnamed)",
      "channel": 9,
      "lane": "D"
    },
    {
      "time": 218.802,
      "duration": 0.12,
      "midi": 53,
      "noteNumber": 53,
      "velocity": 0.57,
      "track": "(unnamed)",
      "channel": 2,
      "lane": "F"
    },
    {
      "time": 218.802,
      "duration": 0.12,
      "midi": 56,
      "noteNumber": 56,
      "velocity": 0.74,
      "track": "(unnamed)",
      "channel": 2,
      "lane": "J"
    },
    {
      "time": 218.802,
      "duration": 0.124,
      "midi": 61,
      "noteNumber": 61,
      "velocity": 0.71,
      "track": "(unnamed)",
      "channel": 2,
      "lane": "J"
    },
    {
      "time": 218.802,
      "duration": 0.007,
      "midi": 43,
      "noteNumber": 43,
      "velocity": 0.79,
      "track": "(unnamed)",
      "channel": 9,
      "lane": "F"
    },
    {
      "time": 218.802,
      "duration": 0.213,
      "midi": 34,
      "noteNumber": 34,
      "velocity": 0.51,
      "track": "(unnamed)",
      "channel": 1,
      "lane": "D"
    },
    {
      "time": 219.027,
      "duration": 0.007,
      "midi": 41,
      "noteNumber": 41,
      "velocity": 0.79,
      "track": "(unnamed)",
      "channel": 9,
      "lane": "D"
    },
    {
      "time": 219.161,
      "duration": 0.161,
      "midi": 39,
      "noteNumber": 39,
      "velocity": 0.6,
      "track": "(unnamed)",
      "channel": 2,
      "lane": "D"
    },
    {
      "time": 219.161,
      "duration": 0.007,
      "midi": 35,
      "noteNumber": 35,
      "velocity": 0.81,
      "track": "(unnamed)",
      "channel": 9,
      "lane": "D"
    },
    {
      "time": 219.161,
      "duration": 0.007,
      "midi": 43,
      "noteNumber": 43,
      "velocity": 0.9,
      "track": "(unnamed)",
      "channel": 9,
      "lane": "F"
    },
    {
      "time": 219.161,
      "duration": 0.876,
      "midi": 39,
      "noteNumber": 39,
      "velocity": 0.66,
      "track": "(unnamed)",
      "channel": 1,
      "lane": "D"
    },
    {
      "time": 219.39,
      "duration": 0.056,
      "midi": 54,
      "noteNumber": 54,
      "velocity": 0.71,
      "track": "(unnamed)",
      "channel": 2,
      "lane": "J"
    },
    {
      "time": 219.39,
      "duration": 0.03,
      "midi": 58,
      "noteNumber": 58,
      "velocity": 0.54,
      "track": "(unnamed)",
      "channel": 2,
      "lane": "J"
    },
    {
      "time": 219.39,
      "duration": 0.06,
      "midi": 63,
      "noteNumber": 63,
      "velocity": 0.68,
      "track": "(unnamed)",
      "channel": 2,
      "lane": "J"
    },
    {
      "time": 219.749,
      "duration": 0.112,
      "midi": 39,
      "noteNumber": 39,
      "velocity": 0.74,
      "track": "(unnamed)",
      "channel": 2,
      "lane": "D"
    },
    {
      "time": 219.88,
      "duration": 0.086,
      "midi": 54,
      "noteNumber": 54,
      "velocity": 0.71,
      "track": "(unnamed)",
      "channel": 2,
      "lane": "J"
    },
    {
      "time": 219.88,
      "duration": 0.041,
      "midi": 58,
      "noteNumber": 58,
      "velocity": 0.68,
      "track": "(unnamed)",
      "channel": 2,
      "lane": "J"
    },
    {
      "time": 219.88,
      "duration": 0.049,
      "midi": 63,
      "noteNumber": 63,
      "velocity": 0.54,
      "track": "(unnamed)",
      "channel": 2,
      "lane": "J"
    },
    {
      "time": 220.105,
      "duration": 0.007,
      "midi": 40,
      "noteNumber": 40,
      "velocity": 0.54,
      "track": "(unnamed)",
      "channel": 9,
      "lane": "D"
    },
    {
      "time": 220.239,
      "duration": 0.52,
      "midi": 46,
      "noteNumber": 46,
      "velocity": 0.71,
      "track": "(unnamed)",
      "channel": 2,
      "lane": "F"
    },
    {
      "time": 220.239,
      "duration": 0.007,
      "midi": 40,
      "noteNumber": 40,
      "velocity": 0.35,
      "track": "(unnamed)",
      "channel": 9,
      "lane": "D"
    },
    {
      "time": 220.239,
      "duration": 0.273,
      "midi": 46,
      "noteNumber": 46,
      "velocity": 0.51,
      "track": "(unnamed)",
      "channel": 1,
      "lane": "F"
    },
    {
      "time": 220.464,
      "duration": 0.007,
      "midi": 40,
      "noteNumber": 40,
      "velocity": 0.54,
      "track": "(unnamed)",
      "channel": 9,
      "lane": "D"
    },
    {
      "time": 220.599,
      "duration": 0.12,
      "midi": 53,
      "noteNumber": 53,
      "velocity": 0.57,
      "track": "(unnamed)",
      "channel": 2,
      "lane": "F"
    },
    {
      "time": 220.599,
      "duration": 0.12,
      "midi": 56,
      "noteNumber": 56,
      "velocity": 0.74,
      "track": "(unnamed)",
      "channel": 2,
      "lane": "J"
    },
    {
      "time": 220.599,
      "duration": 0.124,
      "midi": 61,
      "noteNumber": 61,
      "velocity": 0.71,
      "track": "(unnamed)",
      "channel": 2,
      "lane": "J"
    },
    {
      "time": 220.599,
      "duration": 0.007,
      "midi": 43,
      "noteNumber": 43,
      "velocity": 0.83,
      "track": "(unnamed)",
      "channel": 9,
      "lane": "F"
    },
    {
      "time": 220.599,
      "duration": 0.213,
      "midi": 34,
      "noteNumber": 34,
      "velocity": 0.51,
      "track": "(unnamed)",
      "channel": 1,
      "lane": "D"
    },
    {
      "time": 220.958,
      "duration": 0.161,
      "midi": 39,
      "noteNumber": 39,
      "velocity": 0.6,
      "track": "(unnamed)",
      "channel": 2,
      "lane": "D"
    },
    {
      "time": 220.958,
      "duration": 0.007,
      "midi": 35,
      "noteNumber": 35,
      "velocity": 0.84,
      "track": "(unnamed)",
      "channel": 9,
      "lane": "D"
    },
    {
      "time": 220.958,
      "duration": 0.007,
      "midi": 43,
      "noteNumber": 43,
      "velocity": 1,
      "track": "(unnamed)",
      "channel": 9,
      "lane": "F"
    },
    {
      "time": 220.958,
      "duration": 0.876,
      "midi": 39,
      "noteNumber": 39,
      "velocity": 0.66,
      "track": "(unnamed)",
      "channel": 1,
      "lane": "D"
    },
    {
      "time": 221.186,
      "duration": 0.056,
      "midi": 54,
      "noteNumber": 54,
      "velocity": 0.71,
      "track": "(unnamed)",
      "channel": 2,
      "lane": "J"
    },
    {
      "time": 221.186,
      "duration": 0.03,
      "midi": 58,
      "noteNumber": 58,
      "velocity": 0.54,
      "track": "(unnamed)",
      "channel": 2,
      "lane": "J"
    },
    {
      "time": 221.186,
      "duration": 0.06,
      "midi": 63,
      "noteNumber": 63,
      "velocity": 0.68,
      "track": "(unnamed)",
      "channel": 2,
      "lane": "J"
    },
    {
      "time": 221.542,
      "duration": 0.007,
      "midi": 40,
      "noteNumber": 40,
      "velocity": 0.86,
      "track": "(unnamed)",
      "channel": 9,
      "lane": "D"
    },
    {
      "time": 221.545,
      "duration": 0.112,
      "midi": 39,
      "noteNumber": 39,
      "velocity": 0.74,
      "track": "(unnamed)",
      "channel": 2,
      "lane": "D"
    },
    {
      "time": 221.602,
      "duration": 0.007,
      "midi": 40,
      "noteNumber": 40,
      "velocity": 0.43,
      "track": "(unnamed)",
      "channel": 9,
      "lane": "D"
    },
    {
      "time": 221.661,
      "duration": 0.007,
      "midi": 40,
      "noteNumber": 40,
      "velocity": 0.37,
      "track": "(unnamed)",
      "channel": 9,
      "lane": "D"
    },
    {
      "time": 221.676,
      "duration": 0.086,
      "midi": 54,
      "noteNumber": 54,
      "velocity": 0.71,
      "track": "(unnamed)",
      "channel": 2,
      "lane": "J"
    },
    {
      "time": 221.676,
      "duration": 0.041,
      "midi": 58,
      "noteNumber": 58,
      "velocity": 0.68,
      "track": "(unnamed)",
      "channel": 2,
      "lane": "J"
    },
    {
      "time": 221.676,
      "duration": 0.049,
      "midi": 63,
      "noteNumber": 63,
      "velocity": 0.54,
      "track": "(unnamed)",
      "channel": 2,
      "lane": "J"
    },
    {
      "time": 221.721,
      "duration": 0.007,
      "midi": 40,
      "noteNumber": 40,
      "velocity": 0.37,
      "track": "(unnamed)",
      "channel": 9,
      "lane": "D"
    },
    {
      "time": 221.781,
      "duration": 0.007,
      "midi": 40,
      "noteNumber": 40,
      "velocity": 0.37,
      "track": "(unnamed)",
      "channel": 9,
      "lane": "D"
    },
    {
      "time": 221.841,
      "duration": 0.007,
      "midi": 40,
      "noteNumber": 40,
      "velocity": 0.37,
      "track": "(unnamed)",
      "channel": 9,
      "lane": "D"
    },
    {
      "time": 221.901,
      "duration": 0.007,
      "midi": 40,
      "noteNumber": 40,
      "velocity": 0.48,
      "track": "(unnamed)",
      "channel": 9,
      "lane": "D"
    },
    {
      "time": 221.916,
      "duration": 0.007,
      "midi": 40,
      "noteNumber": 40,
      "velocity": 0.97,
      "track": "(unnamed)",
      "channel": 9,
      "lane": "D"
    },
    {
      "time": 222.036,
      "duration": 0.52,
      "midi": 46,
      "noteNumber": 46,
      "velocity": 0.71,
      "track": "(unnamed)",
      "channel": 2,
      "lane": "F"
    },
    {
      "time": 222.036,
      "duration": 0.007,
      "midi": 40,
      "noteNumber": 40,
      "velocity": 0.61,
      "track": "(unnamed)",
      "channel": 9,
      "lane": "D"
    },
    {
      "time": 222.036,
      "duration": 0.273,
      "midi": 46,
      "noteNumber": 46,
      "velocity": 0.51,
      "track": "(unnamed)",
      "channel": 1,
      "lane": "F"
    },
    {
      "time": 222.155,
      "duration": 0.007,
      "midi": 40,
      "noteNumber": 40,
      "velocity": 0.46,
      "track": "(unnamed)",
      "channel": 9,
      "lane": "D"
    },
    {
      "time": 222.275,
      "duration": 0.007,
      "midi": 40,
      "noteNumber": 40,
      "velocity": 0.57,
      "track": "(unnamed)",
      "channel": 9,
      "lane": "D"
    },
    {
      "time": 222.395,
      "duration": 0.12,
      "midi": 53,
      "noteNumber": 53,
      "velocity": 0.57,
      "track": "(unnamed)",
      "channel": 2,
      "lane": "F"
    },
    {
      "time": 222.395,
      "duration": 0.12,
      "midi": 56,
      "noteNumber": 56,
      "velocity": 0.74,
      "track": "(unnamed)",
      "channel": 2,
      "lane": "J"
    },
    {
      "time": 222.395,
      "duration": 0.124,
      "midi": 61,
      "noteNumber": 61,
      "velocity": 0.71,
      "track": "(unnamed)",
      "channel": 2,
      "lane": "J"
    },
    {
      "time": 222.395,
      "duration": 0.007,
      "midi": 40,
      "noteNumber": 40,
      "velocity": 0.48,
      "track": "(unnamed)",
      "channel": 9,
      "lane": "D"
    },
    {
      "time": 222.395,
      "duration": 0.213,
      "midi": 34,
      "noteNumber": 34,
      "velocity": 0.51,
      "track": "(unnamed)",
      "channel": 1,
      "lane": "D"
    },
    {
      "time": 222.515,
      "duration": 0.007,
      "midi": 45,
      "noteNumber": 45,
      "velocity": 0.47,
      "track": "(unnamed)",
      "channel": 9,
      "lane": "F"
    },
    {
      "time": 222.634,
      "duration": 0.007,
      "midi": 41,
      "noteNumber": 41,
      "velocity": 0.57,
      "track": "(unnamed)",
      "channel": 9,
      "lane": "D"
    },
    {
      "time": 222.754,
      "duration": 0.161,
      "midi": 39,
      "noteNumber": 39,
      "velocity": 0.6,
      "track": "(unnamed)",
      "channel": 2,
      "lane": "D"
    },
    {
      "time": 222.754,
      "duration": 0.007,
      "midi": 35,
      "noteNumber": 35,
      "velocity": 0.87,
      "track": "(unnamed)",
      "channel": 9,
      "lane": "D"
    },
    {
      "time": 222.754,
      "duration": 0.007,
      "midi": 43,
      "noteNumber": 43,
      "velocity": 0.93,
      "track": "(unnamed)",
      "channel": 9,
      "lane": "F"
    },
    {
      "time": 222.754,
      "duration": 0.876,
      "midi": 39,
      "noteNumber": 39,
      "velocity": 0.66,
      "track": "(unnamed)",
      "channel": 1,
      "lane": "D"
    },
    {
      "time": 222.983,
      "duration": 0.056,
      "midi": 54,
      "noteNumber": 54,
      "velocity": 0.71,
      "track": "(unnamed)",
      "channel": 2,
      "lane": "J"
    },
    {
      "time": 222.983,
      "duration": 0.03,
      "midi": 58,
      "noteNumber": 58,
      "velocity": 0.54,
      "track": "(unnamed)",
      "channel": 2,
      "lane": "J"
    },
    {
      "time": 222.983,
      "duration": 0.06,
      "midi": 63,
      "noteNumber": 63,
      "velocity": 0.68,
      "track": "(unnamed)",
      "channel": 2,
      "lane": "J"
    },
    {
      "time": 223.338,
      "duration": 0.007,
      "midi": 40,
      "noteNumber": 40,
      "velocity": 0.57,
      "track": "(unnamed)",
      "channel": 9,
      "lane": "D"
    },
    {
      "time": 223.338,
      "duration": 0.007,
      "midi": 45,
      "noteNumber": 45,
      "velocity": 0.68,
      "track": "(unnamed)",
      "channel": 9,
      "lane": "F"
    },
    {
      "time": 223.342,
      "duration": 0.112,
      "midi": 39,
      "noteNumber": 39,
      "velocity": 0.74,
      "track": "(unnamed)",
      "channel": 2,
      "lane": "D"
    },
    {
      "time": 223.473,
      "duration": 0.086,
      "midi": 54,
      "noteNumber": 54,
      "velocity": 0.71,
      "track": "(unnamed)",
      "channel": 2,
      "lane": "J"
    },
    {
      "time": 223.473,
      "duration": 0.041,
      "midi": 58,
      "noteNumber": 58,
      "velocity": 0.68,
      "track": "(unnamed)",
      "channel": 2,
      "lane": "J"
    },
    {
      "time": 223.473,
      "duration": 0.049,
      "midi": 63,
      "noteNumber": 63,
      "velocity": 0.54,
      "track": "(unnamed)",
      "channel": 2,
      "lane": "J"
    },
    {
      "time": 223.697,
      "duration": 0.007,
      "midi": 40,
      "noteNumber": 40,
      "velocity": 0.39,
      "track": "(unnamed)",
      "channel": 9,
      "lane": "D"
    },
    {
      "time": 223.697,
      "duration": 0.007,
      "midi": 45,
      "noteNumber": 45,
      "velocity": 0.5,
      "track": "(unnamed)",
      "channel": 9,
      "lane": "F"
    },
    {
      "time": 223.832,
      "duration": 0.52,
      "midi": 46,
      "noteNumber": 46,
      "velocity": 0.71,
      "track": "(unnamed)",
      "channel": 2,
      "lane": "F"
    },
    {
      "time": 223.832,
      "duration": 0.007,
      "midi": 40,
      "noteNumber": 40,
      "velocity": 0.45,
      "track": "(unnamed)",
      "channel": 9,
      "lane": "D"
    },
    {
      "time": 223.832,
      "duration": 0.007,
      "midi": 45,
      "noteNumber": 45,
      "velocity": 0.51,
      "track": "(unnamed)",
      "channel": 9,
      "lane": "F"
    },
    {
      "time": 223.832,
      "duration": 0.273,
      "midi": 46,
      "noteNumber": 46,
      "velocity": 0.51,
      "track": "(unnamed)",
      "channel": 1,
      "lane": "F"
    },
    {
      "time": 223.952,
      "duration": 0.007,
      "midi": 35,
      "noteNumber": 35,
      "velocity": 0.32,
      "track": "(unnamed)",
      "channel": 9,
      "lane": "D"
    },
    {
      "time": 224.057,
      "duration": 0.007,
      "midi": 40,
      "noteNumber": 40,
      "velocity": 0.4,
      "track": "(unnamed)",
      "channel": 9,
      "lane": "D"
    },
    {
      "time": 224.057,
      "duration": 0.007,
      "midi": 45,
      "noteNumber": 45,
      "velocity": 0.54,
      "track": "(unnamed)",
      "channel": 9,
      "lane": "F"
    },
    {
      "time": 224.188,
      "duration": 0.007,
      "midi": 45,
      "noteNumber": 45,
      "velocity": 0.76,
      "track": "(unnamed)",
      "channel": 9,
      "lane": "F"
    },
    {
      "time": 224.191,
      "duration": 0.12,
      "midi": 53,
      "noteNumber": 53,
      "velocity": 0.57,
      "track": "(unnamed)",
      "channel": 2,
      "lane": "F"
    },
    {
      "time": 224.191,
      "duration": 0.12,
      "midi": 56,
      "noteNumber": 56,
      "velocity": 0.74,
      "track": "(unnamed)",
      "channel": 2,
      "lane": "J"
    },
    {
      "time": 224.191,
      "duration": 0.124,
      "midi": 61,
      "noteNumber": 61,
      "velocity": 0.71,
      "track": "(unnamed)",
      "channel": 2,
      "lane": "J"
    },
    {
      "time": 224.191,
      "duration": 0.007,
      "midi": 35,
      "noteNumber": 35,
      "velocity": 0.58,
      "track": "(unnamed)",
      "channel": 9,
      "lane": "D"
    },
    {
      "time": 224.191,
      "duration": 0.007,
      "midi": 40,
      "noteNumber": 40,
      "velocity": 0.48,
      "track": "(unnamed)",
      "channel": 9,
      "lane": "D"
    },
    {
      "time": 224.191,
      "duration": 0.213,
      "midi": 34,
      "noteNumber": 34,
      "velocity": 0.51,
      "track": "(unnamed)",
      "channel": 1,
      "lane": "D"
    },
    {
      "time": 224.551,
      "duration": 0.161,
      "midi": 39,
      "noteNumber": 39,
      "velocity": 0.6,
      "track": "(unnamed)",
      "channel": 2,
      "lane": "D"
    },
    {
      "time": 224.551,
      "duration": 0.007,
      "midi": 35,
      "noteNumber": 35,
      "velocity": 0.84,
      "track": "(unnamed)",
      "channel": 9,
      "lane": "D"
    },
    {
      "time": 224.551,
      "duration": 0.007,
      "midi": 43,
      "noteNumber": 43,
      "velocity": 1,
      "track": "(unnamed)",
      "channel": 9,
      "lane": "F"
    },
    {
      "time": 224.551,
      "duration": 0.876,
      "midi": 39,
      "noteNumber": 39,
      "velocity": 0.66,
      "track": "(unnamed)",
      "channel": 1,
      "lane": "D"
    },
    {
      "time": 224.779,
      "duration": 0.056,
      "midi": 54,
      "noteNumber": 54,
      "velocity": 0.71,
      "track": "(unnamed)",
      "channel": 2,
      "lane": "J"
    },
    {
      "time": 224.779,
      "duration": 0.03,
      "midi": 58,
      "noteNumber": 58,
      "velocity": 0.54,
      "track": "(unnamed)",
      "channel": 2,
      "lane": "J"
    },
    {
      "time": 224.779,
      "duration": 0.06,
      "midi": 63,
      "noteNumber": 63,
      "velocity": 0.68,
      "track": "(unnamed)",
      "channel": 2,
      "lane": "J"
    },
    {
      "time": 225.134,
      "duration": 0.007,
      "midi": 40,
      "noteNumber": 40,
      "velocity": 0.86,
      "track": "(unnamed)",
      "channel": 9,
      "lane": "D"
    },
    {
      "time": 225.138,
      "duration": 0.112,
      "midi": 39,
      "noteNumber": 39,
      "velocity": 0.74,
      "track": "(unnamed)",
      "channel": 2,
      "lane": "D"
    },
    {
      "time": 225.194,
      "duration": 0.007,
      "midi": 40,
      "noteNumber": 40,
      "velocity": 0.43,
      "track": "(unnamed)",
      "channel": 9,
      "lane": "D"
    },
    {
      "time": 225.254,
      "duration": 0.007,
      "midi": 40,
      "noteNumber": 40,
      "velocity": 0.37,
      "track": "(unnamed)",
      "channel": 9,
      "lane": "D"
    },
    {
      "time": 225.269,
      "duration": 0.086,
      "midi": 54,
      "noteNumber": 54,
      "velocity": 0.71,
      "track": "(unnamed)",
      "channel": 2,
      "lane": "J"
    },
    {
      "time": 225.269,
      "duration": 0.041,
      "midi": 58,
      "noteNumber": 58,
      "velocity": 0.68,
      "track": "(unnamed)",
      "channel": 2,
      "lane": "J"
    },
    {
      "time": 225.269,
      "duration": 0.049,
      "midi": 63,
      "noteNumber": 63,
      "velocity": 0.54,
      "track": "(unnamed)",
      "channel": 2,
      "lane": "J"
    },
    {
      "time": 225.314,
      "duration": 0.007,
      "midi": 40,
      "noteNumber": 40,
      "velocity": 0.37,
      "track": "(unnamed)",
      "channel": 9,
      "lane": "D"
    },
    {
      "time": 225.374,
      "duration": 0.007,
      "midi": 40,
      "noteNumber": 40,
      "velocity": 0.37,
      "track": "(unnamed)",
      "channel": 9,
      "lane": "D"
    },
    {
      "time": 225.434,
      "duration": 0.007,
      "midi": 40,
      "noteNumber": 40,
      "velocity": 0.37,
      "track": "(unnamed)",
      "channel": 9,
      "lane": "D"
    },
    {
      "time": 225.494,
      "duration": 0.007,
      "midi": 40,
      "noteNumber": 40,
      "velocity": 0.48,
      "track": "(unnamed)",
      "channel": 9,
      "lane": "D"
    },
    {
      "time": 225.509,
      "duration": 0.007,
      "midi": 40,
      "noteNumber": 40,
      "velocity": 0.97,
      "track": "(unnamed)",
      "channel": 9,
      "lane": "D"
    },
    {
      "time": 225.628,
      "duration": 0.52,
      "midi": 46,
      "noteNumber": 46,
      "velocity": 0.71,
      "track": "(unnamed)",
      "channel": 2,
      "lane": "F"
    },
    {
      "time": 225.628,
      "duration": 0.007,
      "midi": 45,
      "noteNumber": 45,
      "velocity": 0.87,
      "track": "(unnamed)",
      "channel": 9,
      "lane": "F"
    },
    {
      "time": 225.628,
      "duration": 0.273,
      "midi": 46,
      "noteNumber": 46,
      "velocity": 0.51,
      "track": "(unnamed)",
      "channel": 1,
      "lane": "F"
    },
    {
      "time": 225.658,
      "duration": 0.007,
      "midi": 43,
      "noteNumber": 43,
      "velocity": 0.86,
      "track": "(unnamed)",
      "channel": 9,
      "lane": "F"
    },
    {
      "time": 225.868,
      "duration": 0.007,
      "midi": 41,
      "noteNumber": 41,
      "velocity": 0.83,
      "track": "(unnamed)",
      "channel": 9,
      "lane": "D"
    },
    {
      "time": 225.988,
      "duration": 0.12,
      "midi": 53,
      "noteNumber": 53,
      "velocity": 0.57,
      "track": "(unnamed)",
      "channel": 2,
      "lane": "F"
    },
    {
      "time": 225.988,
      "duration": 0.12,
      "midi": 56,
      "noteNumber": 56,
      "velocity": 0.74,
      "track": "(unnamed)",
      "channel": 2,
      "lane": "J"
    },
    {
      "time": 225.988,
      "duration": 0.124,
      "midi": 61,
      "noteNumber": 61,
      "velocity": 0.71,
      "track": "(unnamed)",
      "channel": 2,
      "lane": "J"
    },
    {
      "time": 225.988,
      "duration": 0.007,
      "midi": 43,
      "noteNumber": 43,
      "velocity": 1,
      "track": "(unnamed)",
      "channel": 9,
      "lane": "F"
    },
    {
      "time": 225.988,
      "duration": 0.213,
      "midi": 34,
      "noteNumber": 34,
      "velocity": 0.51,
      "track": "(unnamed)",
      "channel": 1,
      "lane": "D"
    },
    {
      "time": 226.01,
      "duration": 0.007,
      "midi": 41,
      "noteNumber": 41,
      "velocity": 1,
      "track": "(unnamed)",
      "channel": 9,
      "lane": "D"
    },
    {
      "time": 226.347,
      "duration": 0.161,
      "midi": 39,
      "noteNumber": 39,
      "velocity": 0.6,
      "track": "(unnamed)",
      "channel": 2,
      "lane": "D"
    },
    {
      "time": 226.347,
      "duration": 0.876,
      "midi": 39,
      "noteNumber": 39,
      "velocity": 0.66,
      "track": "(unnamed)",
      "channel": 1,
      "lane": "D"
    },
    {
      "time": 226.575,
      "duration": 0.056,
      "midi": 54,
      "noteNumber": 54,
      "velocity": 0.71,
      "track": "(unnamed)",
      "channel": 2,
      "lane": "J"
    },
    {
      "time": 226.575,
      "duration": 0.03,
      "midi": 58,
      "noteNumber": 58,
      "velocity": 0.54,
      "track": "(unnamed)",
      "channel": 2,
      "lane": "J"
    },
    {
      "time": 226.575,
      "duration": 0.06,
      "midi": 63,
      "noteNumber": 63,
      "velocity": 0.68,
      "track": "(unnamed)",
      "channel": 2,
      "lane": "J"
    },
    {
      "time": 226.706,
      "duration": 0.007,
      "midi": 37,
      "noteNumber": 37,
      "velocity": 0.68,
      "track": "(unnamed)",
      "channel": 9,
      "lane": "D"
    },
    {
      "time": 226.935,
      "duration": 0.112,
      "midi": 39,
      "noteNumber": 39,
      "velocity": 0.74,
      "track": "(unnamed)",
      "channel": 2,
      "lane": "D"
    },
    {
      "time": 227.066,
      "duration": 0.086,
      "midi": 54,
      "noteNumber": 54,
      "velocity": 0.71,
      "track": "(unnamed)",
      "channel": 2,
      "lane": "J"
    },
    {
      "time": 227.066,
      "duration": 0.041,
      "midi": 58,
      "noteNumber": 58,
      "velocity": 0.68,
      "track": "(unnamed)",
      "channel": 2,
      "lane": "J"
    },
    {
      "time": 227.066,
      "duration": 0.049,
      "midi": 63,
      "noteNumber": 63,
      "velocity": 0.54,
      "track": "(unnamed)",
      "channel": 2,
      "lane": "J"
    },
    {
      "time": 227.29,
      "duration": 0.007,
      "midi": 40,
      "noteNumber": 40,
      "velocity": 0.54,
      "track": "(unnamed)",
      "channel": 9,
      "lane": "D"
    },
    {
      "time": 227.425,
      "duration": 0.52,
      "midi": 46,
      "noteNumber": 46,
      "velocity": 0.71,
      "track": "(unnamed)",
      "channel": 2,
      "lane": "F"
    },
    {
      "time": 227.425,
      "duration": 0.007,
      "midi": 40,
      "noteNumber": 40,
      "velocity": 0.45,
      "track": "(unnamed)",
      "channel": 9,
      "lane": "D"
    },
    {
      "time": 227.425,
      "duration": 0.007,
      "midi": 43,
      "noteNumber": 43,
      "velocity": 0.54,
      "track": "(unnamed)",
      "channel": 9,
      "lane": "F"
    },
    {
      "time": 227.425,
      "duration": 0.273,
      "midi": 46,
      "noteNumber": 46,
      "velocity": 0.51,
      "track": "(unnamed)",
      "channel": 1,
      "lane": "F"
    },
    {
      "time": 227.649,
      "duration": 0.007,
      "midi": 40,
      "noteNumber": 40,
      "velocity": 0.51,
      "track": "(unnamed)",
      "channel": 9,
      "lane": "D"
    },
    {
      "time": 227.649,
      "duration": 0.007,
      "midi": 43,
      "noteNumber": 43,
      "velocity": 0.67,
      "track": "(unnamed)",
      "channel": 9,
      "lane": "F"
    },
    {
      "time": 227.784,
      "duration": 0.12,
      "midi": 53,
      "noteNumber": 53,
      "velocity": 0.57,
      "track": "(unnamed)",
      "channel": 2,
      "lane": "F"
    },
    {
      "time": 227.784,
      "duration": 0.12,
      "midi": 56,
      "noteNumber": 56,
      "velocity": 0.74,
      "track": "(unnamed)",
      "channel": 2,
      "lane": "J"
    },
    {
      "time": 227.784,
      "duration": 0.124,
      "midi": 61,
      "noteNumber": 61,
      "velocity": 0.71,
      "track": "(unnamed)",
      "channel": 2,
      "lane": "J"
    },
    {
      "time": 227.784,
      "duration": 0.007,
      "midi": 40,
      "noteNumber": 40,
      "velocity": 0.69,
      "track": "(unnamed)",
      "channel": 9,
      "lane": "D"
    },
    {
      "time": 227.784,
      "duration": 0.007,
      "midi": 43,
      "noteNumber": 43,
      "velocity": 0.75,
      "track": "(unnamed)",
      "channel": 9,
      "lane": "F"
    },
    {
      "time": 227.784,
      "duration": 0.213,
      "midi": 34,
      "noteNumber": 34,
      "velocity": 0.51,
      "track": "(unnamed)",
      "channel": 1,
      "lane": "D"
    },
    {
      "time": 228.009,
      "duration": 0.007,
      "midi": 40,
      "noteNumber": 40,
      "velocity": 0.83,
      "track": "(unnamed)",
      "channel": 9,
      "lane": "D"
    },
    {
      "time": 228.143,
      "duration": 0.161,
      "midi": 39,
      "noteNumber": 39,
      "velocity": 0.6,
      "track": "(unnamed)",
      "channel": 2,
      "lane": "D"
    },
    {
      "time": 228.143,
      "duration": 0.007,
      "midi": 35,
      "noteNumber": 35,
      "velocity": 0.9,
      "track": "(unnamed)",
      "channel": 9,
      "lane": "D"
    },
    {
      "time": 228.143,
      "duration": 0.007,
      "midi": 43,
      "noteNumber": 43,
      "velocity": 1,
      "track": "(unnamed)",
      "channel": 9,
      "lane": "F"
    },
    {
      "time": 228.143,
      "duration": 0.876,
      "midi": 39,
      "noteNumber": 39,
      "velocity": 0.66,
      "track": "(unnamed)",
      "channel": 1,
      "lane": "D"
    },
    {
      "time": 228.372,
      "duration": 0.056,
      "midi": 54,
      "noteNumber": 54,
      "velocity": 0.71,
      "track": "(unnamed)",
      "channel": 2,
      "lane": "J"
    },
    {
      "time": 228.372,
      "duration": 0.03,
      "midi": 58,
      "noteNumber": 58,
      "velocity": 0.54,
      "track": "(unnamed)",
      "channel": 2,
      "lane": "J"
    },
    {
      "time": 228.372,
      "duration": 0.06,
      "midi": 63,
      "noteNumber": 63,
      "velocity": 0.68,
      "track": "(unnamed)",
      "channel": 2,
      "lane": "J"
    },
    {
      "time": 228.731,
      "duration": 0.112,
      "midi": 39,
      "noteNumber": 39,
      "velocity": 0.74,
      "track": "(unnamed)",
      "channel": 2,
      "lane": "D"
    },
    {
      "time": 228.731,
      "duration": 0.007,
      "midi": 40,
      "noteNumber": 40,
      "velocity": 0.83,
      "track": "(unnamed)",
      "channel": 9,
      "lane": "D"
    },
    {
      "time": 228.862,
      "duration": 0.086,
      "midi": 54,
      "noteNumber": 54,
      "velocity": 0.71,
      "track": "(unnamed)",
      "channel": 2,
      "lane": "J"
    },
    {
      "time": 228.862,
      "duration": 0.041,
      "midi": 58,
      "noteNumber": 58,
      "velocity": 0.68,
      "track": "(unnamed)",
      "channel": 2,
      "lane": "J"
    },
    {
      "time": 228.862,
      "duration": 0.049,
      "midi": 63,
      "noteNumber": 63,
      "velocity": 0.54,
      "track": "(unnamed)",
      "channel": 2,
      "lane": "J"
    },
    {
      "time": 229.087,
      "duration": 0.007,
      "midi": 35,
      "noteNumber": 35,
      "velocity": 0.78,
      "track": "(unnamed)",
      "channel": 9,
      "lane": "D"
    },
    {
      "time": 229.221,
      "duration": 0.52,
      "midi": 46,
      "noteNumber": 46,
      "velocity": 0.71,
      "track": "(unnamed)",
      "channel": 2,
      "lane": "F"
    },
    {
      "time": 229.221,
      "duration": 0.007,
      "midi": 40,
      "noteNumber": 40,
      "velocity": 0.87,
      "track": "(unnamed)",
      "channel": 9,
      "lane": "D"
    },
    {
      "time": 229.221,
      "duration": 0.273,
      "midi": 46,
      "noteNumber": 46,
      "velocity": 0.51,
      "track": "(unnamed)",
      "channel": 1,
      "lane": "F"
    },
    {
      "time": 229.446,
      "duration": 0.007,
      "midi": 35,
      "noteNumber": 35,
      "velocity": 0.81,
      "track": "(unnamed)",
      "channel": 9,
      "lane": "D"
    },
    {
      "time": 229.581,
      "duration": 0.12,
      "midi": 53,
      "noteNumber": 53,
      "velocity": 0.57,
      "track": "(unnamed)",
      "channel": 2,
      "lane": "F"
    },
    {
      "time": 229.581,
      "duration": 0.12,
      "midi": 56,
      "noteNumber": 56,
      "velocity": 0.74,
      "track": "(unnamed)",
      "channel": 2,
      "lane": "J"
    },
    {
      "time": 229.581,
      "duration": 0.124,
      "midi": 61,
      "noteNumber": 61,
      "velocity": 0.71,
      "track": "(unnamed)",
      "channel": 2,
      "lane": "J"
    },
    {
      "time": 229.581,
      "duration": 0.007,
      "midi": 43,
      "noteNumber": 43,
      "velocity": 0.94,
      "track": "(unnamed)",
      "channel": 9,
      "lane": "F"
    },
    {
      "time": 229.581,
      "duration": 0.213,
      "midi": 34,
      "noteNumber": 34,
      "velocity": 0.51,
      "track": "(unnamed)",
      "channel": 1,
      "lane": "D"
    },
    {
      "time": 229.805,
      "duration": 0.007,
      "midi": 35,
      "noteNumber": 35,
      "velocity": 0.85,
      "track": "(unnamed)",
      "channel": 9,
      "lane": "D"
    },
    {
      "time": 229.94,
      "duration": 0.161,
      "midi": 39,
      "noteNumber": 39,
      "velocity": 0.6,
      "track": "(unnamed)",
      "channel": 2,
      "lane": "D"
    },
    {
      "time": 229.94,
      "duration": 0.007,
      "midi": 35,
      "noteNumber": 35,
      "velocity": 0.85,
      "track": "(unnamed)",
      "channel": 9,
      "lane": "D"
    },
    {
      "time": 229.94,
      "duration": 0.007,
      "midi": 43,
      "noteNumber": 43,
      "velocity": 0.86,
      "track": "(unnamed)",
      "channel": 9,
      "lane": "F"
    },
    {
      "time": 229.94,
      "duration": 0.876,
      "midi": 39,
      "noteNumber": 39,
      "velocity": 0.66,
      "track": "(unnamed)",
      "channel": 1,
      "lane": "D"
    },
    {
      "time": 230.168,
      "duration": 0.056,
      "midi": 54,
      "noteNumber": 54,
      "velocity": 0.71,
      "track": "(unnamed)",
      "channel": 2,
      "lane": "J"
    },
    {
      "time": 230.168,
      "duration": 0.03,
      "midi": 58,
      "noteNumber": 58,
      "velocity": 0.54,
      "track": "(unnamed)",
      "channel": 2,
      "lane": "J"
    },
    {
      "time": 230.168,
      "duration": 0.06,
      "midi": 63,
      "noteNumber": 63,
      "velocity": 0.68,
      "track": "(unnamed)",
      "channel": 2,
      "lane": "J"
    },
    {
      "time": 230.524,
      "duration": 0.007,
      "midi": 40,
      "noteNumber": 40,
      "velocity": 0.39,
      "track": "(unnamed)",
      "channel": 9,
      "lane": "D"
    },
    {
      "time": 230.527,
      "duration": 0.112,
      "midi": 39,
      "noteNumber": 39,
      "velocity": 0.74,
      "track": "(unnamed)",
      "channel": 2,
      "lane": "D"
    },
    {
      "time": 230.599,
      "duration": 0.007,
      "midi": 40,
      "noteNumber": 40,
      "velocity": 0.54,
      "track": "(unnamed)",
      "channel": 9,
      "lane": "D"
    },
    {
      "time": 230.658,
      "duration": 0.086,
      "midi": 54,
      "noteNumber": 54,
      "velocity": 0.71,
      "track": "(unnamed)",
      "channel": 2,
      "lane": "J"
    },
    {
      "time": 230.658,
      "duration": 0.041,
      "midi": 58,
      "noteNumber": 58,
      "velocity": 0.68,
      "track": "(unnamed)",
      "channel": 2,
      "lane": "J"
    },
    {
      "time": 230.658,
      "duration": 0.049,
      "midi": 63,
      "noteNumber": 63,
      "velocity": 0.54,
      "track": "(unnamed)",
      "channel": 2,
      "lane": "J"
    },
    {
      "time": 230.658,
      "duration": 0.007,
      "midi": 40,
      "noteNumber": 40,
      "velocity": 0.89,
      "track": "(unnamed)",
      "channel": 9,
      "lane": "D"
    },
    {
      "time": 231.018,
      "duration": 0.52,
      "midi": 46,
      "noteNumber": 46,
      "velocity": 0.71,
      "track": "(unnamed)",
      "channel": 2,
      "lane": "F"
    },
    {
      "time": 231.018,
      "duration": 0.007,
      "midi": 44,
      "noteNumber": 44,
      "velocity": 0.85,
      "track": "(unnamed)",
      "channel": 9,
      "lane": "F"
    },
    {
      "time": 231.018,
      "duration": 0.273,
      "midi": 46,
      "noteNumber": 46,
      "velocity": 0.51,
      "track": "(unnamed)",
      "channel": 1,
      "lane": "F"
    },
    {
      "time": 231.257,
      "duration": 0.007,
      "midi": 40,
      "noteNumber": 40,
      "velocity": 0.65,
      "track": "(unnamed)",
      "channel": 9,
      "lane": "D"
    },
    {
      "time": 231.377,
      "duration": 0.12,
      "midi": 53,
      "noteNumber": 53,
      "velocity": 0.57,
      "track": "(unnamed)",
      "channel": 2,
      "lane": "F"
    },
    {
      "time": 231.377,
      "duration": 0.12,
      "midi": 56,
      "noteNumber": 56,
      "velocity": 0.74,
      "track": "(unnamed)",
      "channel": 2,
      "lane": "J"
    },
    {
      "time": 231.377,
      "duration": 0.124,
      "midi": 61,
      "noteNumber": 61,
      "velocity": 0.71,
      "track": "(unnamed)",
      "channel": 2,
      "lane": "J"
    },
    {
      "time": 231.377,
      "duration": 0.213,
      "midi": 34,
      "noteNumber": 34,
      "velocity": 0.51,
      "track": "(unnamed)",
      "channel": 1,
      "lane": "D"
    },
    {
      "time": 231.736,
      "duration": 0.161,
      "midi": 39,
      "noteNumber": 39,
      "velocity": 0.6,
      "track": "(unnamed)",
      "channel": 2,
      "lane": "D"
    },
    {
      "time": 231.736,
      "duration": 0.007,
      "midi": 33,
      "noteNumber": 33,
      "velocity": 0.71,
      "track": "(unnamed)",
      "channel": 9,
      "lane": "D"
    },
    {
      "time": 231.736,
      "duration": 0.007,
      "midi": 35,
      "noteNumber": 35,
      "velocity": 0.88,
      "track": "(unnamed)",
      "channel": 9,
      "lane": "D"
    },
    {
      "time": 231.736,
      "duration": 0.007,
      "midi": 43,
      "noteNumber": 43,
      "velocity": 1,
      "track": "(unnamed)",
      "channel": 9,
      "lane": "F"
    },
    {
      "time": 231.736,
      "duration": 0.876,
      "midi": 39,
      "noteNumber": 39,
      "velocity": 0.66,
      "track": "(unnamed)",
      "channel": 1,
      "lane": "D"
    },
    {
      "time": 231.965,
      "duration": 0.056,
      "midi": 54,
      "noteNumber": 54,
      "velocity": 0.71,
      "track": "(unnamed)",
      "channel": 2,
      "lane": "J"
    },
    {
      "time": 231.965,
      "duration": 0.03,
      "midi": 58,
      "noteNumber": 58,
      "velocity": 0.54,
      "track": "(unnamed)",
      "channel": 2,
      "lane": "J"
    },
    {
      "time": 231.965,
      "duration": 0.06,
      "midi": 63,
      "noteNumber": 63,
      "velocity": 0.68,
      "track": "(unnamed)",
      "channel": 2,
      "lane": "J"
    },
    {
      "time": 232.324,
      "duration": 0.112,
      "midi": 39,
      "noteNumber": 39,
      "velocity": 0.74,
      "track": "(unnamed)",
      "channel": 2,
      "lane": "D"
    },
    {
      "time": 232.328,
      "duration": 0.007,
      "midi": 40,
      "noteNumber": 40,
      "velocity": 0.87,
      "track": "(unnamed)",
      "channel": 9,
      "lane": "D"
    },
    {
      "time": 232.38,
      "duration": 0.007,
      "midi": 40,
      "noteNumber": 40,
      "velocity": 0.34,
      "track": "(unnamed)",
      "channel": 9,
      "lane": "D"
    },
    {
      "time": 232.425,
      "duration": 0.007,
      "midi": 40,
      "noteNumber": 40,
      "velocity": 0.31,
      "track": "(unnamed)",
      "channel": 9,
      "lane": "D"
    },
    {
      "time": 232.455,
      "duration": 0.086,
      "midi": 54,
      "noteNumber": 54,
      "velocity": 0.71,
      "track": "(unnamed)",
      "channel": 2,
      "lane": "J"
    },
    {
      "time": 232.455,
      "duration": 0.041,
      "midi": 58,
      "noteNumber": 58,
      "velocity": 0.68,
      "track": "(unnamed)",
      "channel": 2,
      "lane": "J"
    },
    {
      "time": 232.455,
      "duration": 0.049,
      "midi": 63,
      "noteNumber": 63,
      "velocity": 0.54,
      "track": "(unnamed)",
      "channel": 2,
      "lane": "J"
    },
    {
      "time": 232.47,
      "duration": 0.007,
      "midi": 40,
      "noteNumber": 40,
      "velocity": 0.4,
      "track": "(unnamed)",
      "channel": 9,
      "lane": "D"
    },
    {
      "time": 232.515,
      "duration": 0.007,
      "midi": 40,
      "noteNumber": 40,
      "velocity": 0.31,
      "track": "(unnamed)",
      "channel": 9,
      "lane": "D"
    },
    {
      "time": 232.687,
      "duration": 0.007,
      "midi": 40,
      "noteNumber": 40,
      "velocity": 0.83,
      "track": "(unnamed)",
      "channel": 9,
      "lane": "D"
    },
    {
      "time": 232.814,
      "duration": 0.52,
      "midi": 46,
      "noteNumber": 46,
      "velocity": 0.71,
      "track": "(unnamed)",
      "channel": 2,
      "lane": "F"
    },
    {
      "time": 232.814,
      "duration": 0.007,
      "midi": 40,
      "noteNumber": 40,
      "velocity": 0.92,
      "track": "(unnamed)",
      "channel": 9,
      "lane": "D"
    },
    {
      "time": 232.814,
      "duration": 0.273,
      "midi": 46,
      "noteNumber": 46,
      "velocity": 0.51,
      "track": "(unnamed)",
      "channel": 1,
      "lane": "F"
    },
    {
      "time": 233.046,
      "duration": 0.007,
      "midi": 40,
      "noteNumber": 40,
      "velocity": 0.61,
      "track": "(unnamed)",
      "channel": 9,
      "lane": "D"
    },
    {
      "time": 233.173,
      "duration": 0.12,
      "midi": 53,
      "noteNumber": 53,
      "velocity": 0.57,
      "track": "(unnamed)",
      "channel": 2,
      "lane": "F"
    },
    {
      "time": 233.173,
      "duration": 0.12,
      "midi": 56,
      "noteNumber": 56,
      "velocity": 0.74,
      "track": "(unnamed)",
      "channel": 2,
      "lane": "J"
    },
    {
      "time": 233.173,
      "duration": 0.124,
      "midi": 61,
      "noteNumber": 61,
      "velocity": 0.71,
      "track": "(unnamed)",
      "channel": 2,
      "lane": "J"
    },
    {
      "time": 233.173,
      "duration": 0.007,
      "midi": 40,
      "noteNumber": 40,
      "velocity": 0.69,
      "track": "(unnamed)",
      "channel": 9,
      "lane": "D"
    },
    {
      "time": 233.173,
      "duration": 0.213,
      "midi": 34,
      "noteNumber": 34,
      "velocity": 0.51,
      "track": "(unnamed)",
      "channel": 1,
      "lane": "D"
    },
    {
      "time": 233.405,
      "duration": 0.007,
      "midi": 35,
      "noteNumber": 35,
      "velocity": 0.85,
      "track": "(unnamed)",
      "channel": 9,
      "lane": "D"
    },
    {
      "time": 233.533,
      "duration": 0.161,
      "midi": 39,
      "noteNumber": 39,
      "velocity": 0.6,
      "track": "(unnamed)",
      "channel": 2,
      "lane": "D"
    },
    {
      "time": 233.533,
      "duration": 0.007,
      "midi": 35,
      "noteNumber": 35,
      "velocity": 0.9,
      "track": "(unnamed)",
      "channel": 9,
      "lane": "D"
    },
    {
      "time": 233.533,
      "duration": 0.007,
      "midi": 43,
      "noteNumber": 43,
      "velocity": 1,
      "track": "(unnamed)",
      "channel": 9,
      "lane": "F"
    },
    {
      "time": 233.533,
      "duration": 0.876,
      "midi": 39,
      "noteNumber": 39,
      "velocity": 0.66,
      "track": "(unnamed)",
      "channel": 1,
      "lane": "D"
    },
    {
      "time": 233.761,
      "duration": 0.056,
      "midi": 54,
      "noteNumber": 54,
      "velocity": 0.71,
      "track": "(unnamed)",
      "channel": 2,
      "lane": "J"
    },
    {
      "time": 233.761,
      "duration": 0.03,
      "midi": 58,
      "noteNumber": 58,
      "velocity": 0.54,
      "track": "(unnamed)",
      "channel": 2,
      "lane": "J"
    },
    {
      "time": 233.761,
      "duration": 0.06,
      "midi": 63,
      "noteNumber": 63,
      "velocity": 0.68,
      "track": "(unnamed)",
      "channel": 2,
      "lane": "J"
    },
    {
      "time": 234.12,
      "duration": 0.112,
      "midi": 39,
      "noteNumber": 39,
      "velocity": 0.74,
      "track": "(unnamed)",
      "channel": 2,
      "lane": "D"
    },
    {
      "time": 234.131,
      "duration": 0.007,
      "midi": 45,
      "noteNumber": 45,
      "velocity": 0.51,
      "track": "(unnamed)",
      "channel": 9,
      "lane": "F"
    },
    {
      "time": 234.191,
      "duration": 0.007,
      "midi": 43,
      "noteNumber": 43,
      "velocity": 0.79,
      "track": "(unnamed)",
      "channel": 9,
      "lane": "F"
    },
    {
      "time": 234.251,
      "duration": 0.086,
      "midi": 54,
      "noteNumber": 54,
      "velocity": 0.71,
      "track": "(unnamed)",
      "channel": 2,
      "lane": "J"
    },
    {
      "time": 234.251,
      "duration": 0.041,
      "midi": 58,
      "noteNumber": 58,
      "velocity": 0.68,
      "track": "(unnamed)",
      "channel": 2,
      "lane": "J"
    },
    {
      "time": 234.251,
      "duration": 0.049,
      "midi": 63,
      "noteNumber": 63,
      "velocity": 0.54,
      "track": "(unnamed)",
      "channel": 2,
      "lane": "J"
    },
    {
      "time": 234.251,
      "duration": 0.007,
      "midi": 41,
      "noteNumber": 41,
      "velocity": 0.94,
      "track": "(unnamed)",
      "channel": 9,
      "lane": "D"
    },
    {
      "time": 234.61,
      "duration": 0.52,
      "midi": 46,
      "noteNumber": 46,
      "velocity": 0.71,
      "track": "(unnamed)",
      "channel": 2,
      "lane": "F"
    },
    {
      "time": 234.61,
      "duration": 0.273,
      "midi": 46,
      "noteNumber": 46,
      "velocity": 0.51,
      "track": "(unnamed)",
      "channel": 1,
      "lane": "F"
    },
    {
      "time": 234.85,
      "duration": 0.007,
      "midi": 40,
      "noteNumber": 40,
      "velocity": 0.92,
      "track": "(unnamed)",
      "channel": 9,
      "lane": "D"
    },
    {
      "time": 234.97,
      "duration": 0.12,
      "midi": 53,
      "noteNumber": 53,
      "velocity": 0.57,
      "track": "(unnamed)",
      "channel": 2,
      "lane": "F"
    },
    {
      "time": 234.97,
      "duration": 0.12,
      "midi": 56,
      "noteNumber": 56,
      "velocity": 0.74,
      "track": "(unnamed)",
      "channel": 2,
      "lane": "J"
    },
    {
      "time": 234.97,
      "duration": 0.124,
      "midi": 61,
      "noteNumber": 61,
      "velocity": 0.71,
      "track": "(unnamed)",
      "channel": 2,
      "lane": "J"
    },
    {
      "time": 234.97,
      "duration": 0.213,
      "midi": 34,
      "noteNumber": 34,
      "velocity": 0.51,
      "track": "(unnamed)",
      "channel": 1,
      "lane": "D"
    },
    {
      "time": 235.329,
      "duration": 0.161,
      "midi": 39,
      "noteNumber": 39,
      "velocity": 0.6,
      "track": "(unnamed)",
      "channel": 2,
      "lane": "D"
    },
    {
      "time": 235.329,
      "duration": 0.007,
      "midi": 40,
      "noteNumber": 40,
      "velocity": 0.54,
      "track": "(unnamed)",
      "channel": 9,
      "lane": "D"
    },
    {
      "time": 235.329,
      "duration": 0.876,
      "midi": 39,
      "noteNumber": 39,
      "velocity": 0.66,
      "track": "(unnamed)",
      "channel": 1,
      "lane": "D"
    },
    {
      "time": 235.557,
      "duration": 0.056,
      "midi": 54,
      "noteNumber": 54,
      "velocity": 0.71,
      "track": "(unnamed)",
      "channel": 2,
      "lane": "J"
    },
    {
      "time": 235.557,
      "duration": 0.03,
      "midi": 58,
      "noteNumber": 58,
      "velocity": 0.54,
      "track": "(unnamed)",
      "channel": 2,
      "lane": "J"
    },
    {
      "time": 235.557,
      "duration": 0.06,
      "midi": 63,
      "noteNumber": 63,
      "velocity": 0.68,
      "track": "(unnamed)",
      "channel": 2,
      "lane": "J"
    },
    {
      "time": 235.917,
      "duration": 0.112,
      "midi": 39,
      "noteNumber": 39,
      "velocity": 0.74,
      "track": "(unnamed)",
      "channel": 2,
      "lane": "D"
    },
    {
      "time": 236.048,
      "duration": 0.086,
      "midi": 54,
      "noteNumber": 54,
      "velocity": 0.71,
      "track": "(unnamed)",
      "channel": 2,
      "lane": "J"
    },
    {
      "time": 236.048,
      "duration": 0.041,
      "midi": 58,
      "noteNumber": 58,
      "velocity": 0.68,
      "track": "(unnamed)",
      "channel": 2,
      "lane": "J"
    },
    {
      "time": 236.048,
      "duration": 0.049,
      "midi": 63,
      "noteNumber": 63,
      "velocity": 0.54,
      "track": "(unnamed)",
      "channel": 2,
      "lane": "J"
    },
    {
      "time": 236.407,
      "duration": 0.52,
      "midi": 46,
      "noteNumber": 46,
      "velocity": 0.71,
      "track": "(unnamed)",
      "channel": 2,
      "lane": "F"
    },
    {
      "time": 236.407,
      "duration": 0.007,
      "midi": 40,
      "noteNumber": 40,
      "velocity": 0.69,
      "track": "(unnamed)",
      "channel": 9,
      "lane": "D"
    },
    {
      "time": 236.407,
      "duration": 0.273,
      "midi": 46,
      "noteNumber": 46,
      "velocity": 0.51,
      "track": "(unnamed)",
      "channel": 1,
      "lane": "F"
    },
    {
      "time": 236.766,
      "duration": 0.12,
      "midi": 53,
      "noteNumber": 53,
      "velocity": 0.57,
      "track": "(unnamed)",
      "channel": 2,
      "lane": "F"
    },
    {
      "time": 236.766,
      "duration": 0.12,
      "midi": 56,
      "noteNumber": 56,
      "velocity": 0.74,
      "track": "(unnamed)",
      "channel": 2,
      "lane": "J"
    },
    {
      "time": 236.766,
      "duration": 0.124,
      "midi": 61,
      "noteNumber": 61,
      "velocity": 0.71,
      "track": "(unnamed)",
      "channel": 2,
      "lane": "J"
    },
    {
      "time": 236.766,
      "duration": 0.213,
      "midi": 34,
      "noteNumber": 34,
      "velocity": 0.51,
      "track": "(unnamed)",
      "channel": 1,
      "lane": "D"
    },
    {
      "time": 237.006,
      "duration": 0.007,
      "midi": 45,
      "noteNumber": 45,
      "velocity": 0.6,
      "track": "(unnamed)",
      "channel": 9,
      "lane": "F"
    },
    {
      "time": 237.066,
      "duration": 0.007,
      "midi": 43,
      "noteNumber": 43,
      "velocity": 0.54,
      "track": "(unnamed)",
      "channel": 9,
      "lane": "F"
    },
    {
      "time": 237.125,
      "duration": 0.161,
      "midi": 39,
      "noteNumber": 39,
      "velocity": 0.6,
      "track": "(unnamed)",
      "channel": 2,
      "lane": "D"
    },
    {
      "time": 237.125,
      "duration": 0.007,
      "midi": 35,
      "noteNumber": 35,
      "velocity": 0.81,
      "track": "(unnamed)",
      "channel": 9,
      "lane": "D"
    },
    {
      "time": 237.125,
      "duration": 0.007,
      "midi": 43,
      "noteNumber": 43,
      "velocity": 0.75,
      "track": "(unnamed)",
      "channel": 9,
      "lane": "F"
    },
    {
      "time": 237.125,
      "duration": 0.876,
      "midi": 39,
      "noteNumber": 39,
      "velocity": 0.66,
      "track": "(unnamed)",
      "channel": 1,
      "lane": "D"
    },
    {
      "time": 237.354,
      "duration": 0.056,
      "midi": 54,
      "noteNumber": 54,
      "velocity": 0.71,
      "track": "(unnamed)",
      "channel": 2,
      "lane": "J"
    },
    {
      "time": 237.354,
      "duration": 0.03,
      "midi": 58,
      "noteNumber": 58,
      "velocity": 0.54,
      "track": "(unnamed)",
      "channel": 2,
      "lane": "J"
    },
    {
      "time": 237.354,
      "duration": 0.06,
      "midi": 63,
      "noteNumber": 63,
      "velocity": 0.68,
      "track": "(unnamed)",
      "channel": 2,
      "lane": "J"
    },
    {
      "time": 237.709,
      "duration": 0.007,
      "midi": 40,
      "noteNumber": 40,
      "velocity": 0.65,
      "track": "(unnamed)",
      "channel": 9,
      "lane": "D"
    },
    {
      "time": 237.713,
      "duration": 0.112,
      "midi": 39,
      "noteNumber": 39,
      "velocity": 0.74,
      "track": "(unnamed)",
      "channel": 2,
      "lane": "D"
    },
    {
      "time": 237.844,
      "duration": 0.086,
      "midi": 54,
      "noteNumber": 54,
      "velocity": 0.71,
      "track": "(unnamed)",
      "channel": 2,
      "lane": "J"
    },
    {
      "time": 237.844,
      "duration": 0.041,
      "midi": 58,
      "noteNumber": 58,
      "velocity": 0.68,
      "track": "(unnamed)",
      "channel": 2,
      "lane": "J"
    },
    {
      "time": 237.844,
      "duration": 0.049,
      "midi": 63,
      "noteNumber": 63,
      "velocity": 0.54,
      "track": "(unnamed)",
      "channel": 2,
      "lane": "J"
    },
    {
      "time": 238.069,
      "duration": 0.007,
      "midi": 40,
      "noteNumber": 40,
      "velocity": 0.37,
      "track": "(unnamed)",
      "channel": 9,
      "lane": "D"
    },
    {
      "time": 238.203,
      "duration": 0.52,
      "midi": 46,
      "noteNumber": 46,
      "velocity": 0.71,
      "track": "(unnamed)",
      "channel": 2,
      "lane": "F"
    },
    {
      "time": 238.203,
      "duration": 0.007,
      "midi": 40,
      "noteNumber": 40,
      "velocity": 0.83,
      "track": "(unnamed)",
      "channel": 9,
      "lane": "D"
    },
    {
      "time": 238.203,
      "duration": 0.273,
      "midi": 46,
      "noteNumber": 46,
      "velocity": 0.51,
      "track": "(unnamed)",
      "channel": 1,
      "lane": "F"
    },
    {
      "time": 238.563,
      "duration": 0.12,
      "midi": 53,
      "noteNumber": 53,
      "velocity": 0.57,
      "track": "(unnamed)",
      "channel": 2,
      "lane": "F"
    },
    {
      "time": 238.563,
      "duration": 0.12,
      "midi": 56,
      "noteNumber": 56,
      "velocity": 0.74,
      "track": "(unnamed)",
      "channel": 2,
      "lane": "J"
    },
    {
      "time": 238.563,
      "duration": 0.124,
      "midi": 61,
      "noteNumber": 61,
      "velocity": 0.71,
      "track": "(unnamed)",
      "channel": 2,
      "lane": "J"
    },
    {
      "time": 238.563,
      "duration": 0.007,
      "midi": 35,
      "noteNumber": 35,
      "velocity": 0.62,
      "track": "(unnamed)",
      "channel": 9,
      "lane": "D"
    },
    {
      "time": 238.563,
      "duration": 0.213,
      "midi": 34,
      "noteNumber": 34,
      "velocity": 0.51,
      "track": "(unnamed)",
      "channel": 1,
      "lane": "D"
    },
    {
      "time": 238.787,
      "duration": 0.007,
      "midi": 40,
      "noteNumber": 40,
      "velocity": 0.57,
      "track": "(unnamed)",
      "channel": 9,
      "lane": "D"
    },
    {
      "time": 238.922,
      "duration": 0.161,
      "midi": 39,
      "noteNumber": 39,
      "velocity": 0.6,
      "track": "(unnamed)",
      "channel": 2,
      "lane": "D"
    },
    {
      "time": 238.922,
      "duration": 0.007,
      "midi": 35,
      "noteNumber": 35,
      "velocity": 0.81,
      "track": "(unnamed)",
      "channel": 9,
      "lane": "D"
    },
    {
      "time": 238.922,
      "duration": 0.876,
      "midi": 39,
      "noteNumber": 39,
      "velocity": 0.66,
      "track": "(unnamed)",
      "channel": 1,
      "lane": "D"
    },
    {
      "time": 239.15,
      "duration": 0.056,
      "midi": 54,
      "noteNumber": 54,
      "velocity": 0.71,
      "track": "(unnamed)",
      "channel": 2,
      "lane": "J"
    },
    {
      "time": 239.15,
      "duration": 0.03,
      "midi": 58,
      "noteNumber": 58,
      "velocity": 0.54,
      "track": "(unnamed)",
      "channel": 2,
      "lane": "J"
    },
    {
      "time": 239.15,
      "duration": 0.06,
      "midi": 63,
      "noteNumber": 63,
      "velocity": 0.68,
      "track": "(unnamed)",
      "channel": 2,
      "lane": "J"
    },
    {
      "time": 239.281,
      "duration": 0.007,
      "midi": 40,
      "noteNumber": 40,
      "velocity": 0.78,
      "track": "(unnamed)",
      "channel": 9,
      "lane": "D"
    },
    {
      "time": 239.509,
      "duration": 0.112,
      "midi": 39,
      "noteNumber": 39,
      "velocity": 0.74,
      "track": "(unnamed)",
      "channel": 2,
      "lane": "D"
    },
    {
      "time": 239.64,
      "duration": 0.086,
      "midi": 54,
      "noteNumber": 54,
      "velocity": 0.71,
      "track": "(unnamed)",
      "channel": 2,
      "lane": "J"
    },
    {
      "time": 239.64,
      "duration": 0.041,
      "midi": 58,
      "noteNumber": 58,
      "velocity": 0.68,
      "track": "(unnamed)",
      "channel": 2,
      "lane": "J"
    },
    {
      "time": 239.64,
      "duration": 0.049,
      "midi": 63,
      "noteNumber": 63,
      "velocity": 0.54,
      "track": "(unnamed)",
      "channel": 2,
      "lane": "J"
    },
    {
      "time": 240,
      "duration": 0.52,
      "midi": 46,
      "noteNumber": 46,
      "velocity": 0.71,
      "track": "(unnamed)",
      "channel": 2,
      "lane": "F"
    },
    {
      "time": 240,
      "duration": 0.273,
      "midi": 46,
      "noteNumber": 46,
      "velocity": 0.51,
      "track": "(unnamed)",
      "channel": 1,
      "lane": "F"
    },
    {
      "time": 240.359,
      "duration": 0.12,
      "midi": 53,
      "noteNumber": 53,
      "velocity": 0.57,
      "track": "(unnamed)",
      "channel": 2,
      "lane": "F"
    },
    {
      "time": 240.359,
      "duration": 0.12,
      "midi": 56,
      "noteNumber": 56,
      "velocity": 0.74,
      "track": "(unnamed)",
      "channel": 2,
      "lane": "J"
    },
    {
      "time": 240.359,
      "duration": 0.124,
      "midi": 61,
      "noteNumber": 61,
      "velocity": 0.71,
      "track": "(unnamed)",
      "channel": 2,
      "lane": "J"
    },
    {
      "time": 240.359,
      "duration": 0.007,
      "midi": 40,
      "noteNumber": 40,
      "velocity": 0.75,
      "track": "(unnamed)",
      "channel": 9,
      "lane": "D"
    },
    {
      "time": 240.359,
      "duration": 0.213,
      "midi": 34,
      "noteNumber": 34,
      "velocity": 0.51,
      "track": "(unnamed)",
      "channel": 1,
      "lane": "D"
    },
    {
      "time": 240.718,
      "duration": 0.161,
      "midi": 39,
      "noteNumber": 39,
      "velocity": 0.6,
      "track": "(unnamed)",
      "channel": 2,
      "lane": "D"
    },
    {
      "time": 240.718,
      "duration": 0.007,
      "midi": 35,
      "noteNumber": 35,
      "velocity": 0.65,
      "track": "(unnamed)",
      "channel": 9,
      "lane": "D"
    },
    {
      "time": 240.718,
      "duration": 0.007,
      "midi": 43,
      "noteNumber": 43,
      "velocity": 0.79,
      "track": "(unnamed)",
      "channel": 9,
      "lane": "F"
    },
    {
      "time": 240.718,
      "duration": 0.876,
      "midi": 39,
      "noteNumber": 39,
      "velocity": 0.66,
      "track": "(unnamed)",
      "channel": 1,
      "lane": "D"
    },
    {
      "time": 240.947,
      "duration": 0.056,
      "midi": 54,
      "noteNumber": 54,
      "velocity": 0.71,
      "track": "(unnamed)",
      "channel": 2,
      "lane": "J"
    },
    {
      "time": 240.947,
      "duration": 0.03,
      "midi": 58,
      "noteNumber": 58,
      "velocity": 0.54,
      "track": "(unnamed)",
      "channel": 2,
      "lane": "J"
    },
    {
      "time": 240.947,
      "duration": 0.06,
      "midi": 63,
      "noteNumber": 63,
      "velocity": 0.68,
      "track": "(unnamed)",
      "channel": 2,
      "lane": "J"
    },
    {
      "time": 241.306,
      "duration": 0.112,
      "midi": 39,
      "noteNumber": 39,
      "velocity": 0.74,
      "track": "(unnamed)",
      "channel": 2,
      "lane": "D"
    },
    {
      "time": 241.317,
      "duration": 0.007,
      "midi": 45,
      "noteNumber": 45,
      "velocity": 0.63,
      "track": "(unnamed)",
      "channel": 9,
      "lane": "F"
    },
    {
      "time": 241.437,
      "duration": 0.086,
      "midi": 54,
      "noteNumber": 54,
      "velocity": 0.71,
      "track": "(unnamed)",
      "channel": 2,
      "lane": "J"
    },
    {
      "time": 241.437,
      "duration": 0.041,
      "midi": 58,
      "noteNumber": 58,
      "velocity": 0.68,
      "track": "(unnamed)",
      "channel": 2,
      "lane": "J"
    },
    {
      "time": 241.437,
      "duration": 0.049,
      "midi": 63,
      "noteNumber": 63,
      "velocity": 0.54,
      "track": "(unnamed)",
      "channel": 2,
      "lane": "J"
    },
    {
      "time": 241.616,
      "duration": 0.007,
      "midi": 45,
      "noteNumber": 45,
      "velocity": 0.5,
      "track": "(unnamed)",
      "channel": 9,
      "lane": "F"
    },
    {
      "time": 241.676,
      "duration": 0.007,
      "midi": 43,
      "noteNumber": 43,
      "velocity": 0.79,
      "track": "(unnamed)",
      "channel": 9,
      "lane": "F"
    },
    {
      "time": 241.796,
      "duration": 0.52,
      "midi": 46,
      "noteNumber": 46,
      "velocity": 0.71,
      "track": "(unnamed)",
      "channel": 2,
      "lane": "F"
    },
    {
      "time": 241.796,
      "duration": 0.007,
      "midi": 41,
      "noteNumber": 41,
      "velocity": 1,
      "track": "(unnamed)",
      "channel": 9,
      "lane": "D"
    },
    {
      "time": 241.796,
      "duration": 0.273,
      "midi": 46,
      "noteNumber": 46,
      "velocity": 0.51,
      "track": "(unnamed)",
      "channel": 1,
      "lane": "F"
    },
    {
      "time": 242.155,
      "duration": 0.12,
      "midi": 53,
      "noteNumber": 53,
      "velocity": 0.57,
      "track": "(unnamed)",
      "channel": 2,
      "lane": "F"
    },
    {
      "time": 242.155,
      "duration": 0.12,
      "midi": 56,
      "noteNumber": 56,
      "velocity": 0.74,
      "track": "(unnamed)",
      "channel": 2,
      "lane": "J"
    },
    {
      "time": 242.155,
      "duration": 0.124,
      "midi": 61,
      "noteNumber": 61,
      "velocity": 0.71,
      "track": "(unnamed)",
      "channel": 2,
      "lane": "J"
    },
    {
      "time": 242.155,
      "duration": 0.213,
      "midi": 34,
      "noteNumber": 34,
      "velocity": 0.51,
      "track": "(unnamed)",
      "channel": 1,
      "lane": "D"
    },
    {
      "time": 242.515,
      "duration": 0.161,
      "midi": 39,
      "noteNumber": 39,
      "velocity": 0.6,
      "track": "(unnamed)",
      "channel": 2,
      "lane": "D"
    },
    {
      "time": 242.515,
      "duration": 0.007,
      "midi": 40,
      "noteNumber": 40,
      "velocity": 0.75,
      "track": "(unnamed)",
      "channel": 9,
      "lane": "D"
    },
    {
      "time": 242.515,
      "duration": 0.876,
      "midi": 39,
      "noteNumber": 39,
      "velocity": 0.66,
      "track": "(unnamed)",
      "channel": 1,
      "lane": "D"
    },
    {
      "time": 242.743,
      "duration": 0.056,
      "midi": 54,
      "noteNumber": 54,
      "velocity": 0.71,
      "track": "(unnamed)",
      "channel": 2,
      "lane": "J"
    },
    {
      "time": 242.743,
      "duration": 0.03,
      "midi": 58,
      "noteNumber": 58,
      "velocity": 0.54,
      "track": "(unnamed)",
      "channel": 2,
      "lane": "J"
    },
    {
      "time": 242.743,
      "duration": 0.06,
      "midi": 63,
      "noteNumber": 63,
      "velocity": 0.68,
      "track": "(unnamed)",
      "channel": 2,
      "lane": "J"
    },
    {
      "time": 243.054,
      "duration": 0.007,
      "midi": 40,
      "noteNumber": 40,
      "velocity": 0.78,
      "track": "(unnamed)",
      "channel": 9,
      "lane": "D"
    },
    {
      "time": 243.102,
      "duration": 0.112,
      "midi": 39,
      "noteNumber": 39,
      "velocity": 0.74,
      "track": "(unnamed)",
      "channel": 2,
      "lane": "D"
    },
    {
      "time": 243.233,
      "duration": 0.086,
      "midi": 54,
      "noteNumber": 54,
      "velocity": 0.71,
      "track": "(unnamed)",
      "channel": 2,
      "lane": "J"
    },
    {
      "time": 243.233,
      "duration": 0.041,
      "midi": 58,
      "noteNumber": 58,
      "velocity": 0.68,
      "track": "(unnamed)",
      "channel": 2,
      "lane": "J"
    },
    {
      "time": 243.233,
      "duration": 0.049,
      "midi": 63,
      "noteNumber": 63,
      "velocity": 0.54,
      "track": "(unnamed)",
      "channel": 2,
      "lane": "J"
    },
    {
      "time": 243.593,
      "duration": 0.52,
      "midi": 46,
      "noteNumber": 46,
      "velocity": 0.71,
      "track": "(unnamed)",
      "channel": 2,
      "lane": "F"
    },
    {
      "time": 243.593,
      "duration": 0.007,
      "midi": 40,
      "noteNumber": 40,
      "velocity": 0.83,
      "track": "(unnamed)",
      "channel": 9,
      "lane": "D"
    },
    {
      "time": 243.593,
      "duration": 0.273,
      "midi": 46,
      "noteNumber": 46,
      "velocity": 0.51,
      "track": "(unnamed)",
      "channel": 1,
      "lane": "F"
    },
    {
      "time": 243.952,
      "duration": 0.12,
      "midi": 53,
      "noteNumber": 53,
      "velocity": 0.57,
      "track": "(unnamed)",
      "channel": 2,
      "lane": "F"
    },
    {
      "time": 243.952,
      "duration": 0.12,
      "midi": 56,
      "noteNumber": 56,
      "velocity": 0.74,
      "track": "(unnamed)",
      "channel": 2,
      "lane": "J"
    },
    {
      "time": 243.952,
      "duration": 0.124,
      "midi": 61,
      "noteNumber": 61,
      "velocity": 0.71,
      "track": "(unnamed)",
      "channel": 2,
      "lane": "J"
    },
    {
      "time": 243.952,
      "duration": 0.213,
      "midi": 34,
      "noteNumber": 34,
      "velocity": 0.51,
      "track": "(unnamed)",
      "channel": 1,
      "lane": "D"
    },
    {
      "time": 244.311,
      "duration": 0.161,
      "midi": 39,
      "noteNumber": 39,
      "velocity": 0.6,
      "track": "(unnamed)",
      "channel": 2,
      "lane": "D"
    },
    {
      "time": 244.311,
      "duration": 0.876,
      "midi": 39,
      "noteNumber": 39,
      "velocity": 0.66,
      "track": "(unnamed)",
      "channel": 1,
      "lane": "D"
    },
    {
      "time": 244.539,
      "duration": 0.056,
      "midi": 54,
      "noteNumber": 54,
      "velocity": 0.71,
      "track": "(unnamed)",
      "channel": 2,
      "lane": "J"
    },
    {
      "time": 244.539,
      "duration": 0.03,
      "midi": 58,
      "noteNumber": 58,
      "velocity": 0.54,
      "track": "(unnamed)",
      "channel": 2,
      "lane": "J"
    },
    {
      "time": 244.539,
      "duration": 0.06,
      "midi": 63,
      "noteNumber": 63,
      "velocity": 0.68,
      "track": "(unnamed)",
      "channel": 2,
      "lane": "J"
    },
    {
      "time": 244.899,
      "duration": 0.112,
      "midi": 39,
      "noteNumber": 39,
      "velocity": 0.74,
      "track": "(unnamed)",
      "channel": 2,
      "lane": "D"
    },
    {
      "time": 244.91,
      "duration": 0.007,
      "midi": 40,
      "noteNumber": 40,
      "velocity": 0.34,
      "track": "(unnamed)",
      "channel": 9,
      "lane": "D"
    },
    {
      "time": 244.97,
      "duration": 0.007,
      "midi": 43,
      "noteNumber": 43,
      "velocity": 0.79,
      "track": "(unnamed)",
      "channel": 9,
      "lane": "F"
    },
    {
      "time": 245.03,
      "duration": 0.086,
      "midi": 54,
      "noteNumber": 54,
      "velocity": 0.71,
      "track": "(unnamed)",
      "channel": 2,
      "lane": "J"
    },
    {
      "time": 245.03,
      "duration": 0.041,
      "midi": 58,
      "noteNumber": 58,
      "velocity": 0.68,
      "track": "(unnamed)",
      "channel": 2,
      "lane": "J"
    },
    {
      "time": 245.03,
      "duration": 0.049,
      "midi": 63,
      "noteNumber": 63,
      "velocity": 0.54,
      "track": "(unnamed)",
      "channel": 2,
      "lane": "J"
    },
    {
      "time": 245.03,
      "duration": 0.007,
      "midi": 41,
      "noteNumber": 41,
      "velocity": 0.79,
      "track": "(unnamed)",
      "channel": 9,
      "lane": "D"
    },
    {
      "time": 245.389,
      "duration": 0.52,
      "midi": 46,
      "noteNumber": 46,
      "velocity": 0.71,
      "track": "(unnamed)",
      "channel": 2,
      "lane": "F"
    },
    {
      "time": 245.389,
      "duration": 0.273,
      "midi": 46,
      "noteNumber": 46,
      "velocity": 0.51,
      "track": "(unnamed)",
      "channel": 1,
      "lane": "F"
    },
    {
      "time": 245.613,
      "duration": 0.007,
      "midi": 43,
      "noteNumber": 43,
      "velocity": 0.67,
      "track": "(unnamed)",
      "channel": 9,
      "lane": "F"
    },
    {
      "time": 245.748,
      "duration": 0.12,
      "midi": 53,
      "noteNumber": 53,
      "velocity": 0.57,
      "track": "(unnamed)",
      "channel": 2,
      "lane": "F"
    },
    {
      "time": 245.748,
      "duration": 0.12,
      "midi": 56,
      "noteNumber": 56,
      "velocity": 0.74,
      "track": "(unnamed)",
      "channel": 2,
      "lane": "J"
    },
    {
      "time": 245.748,
      "duration": 0.124,
      "midi": 61,
      "noteNumber": 61,
      "velocity": 0.71,
      "track": "(unnamed)",
      "channel": 2,
      "lane": "J"
    },
    {
      "time": 245.748,
      "duration": 0.213,
      "midi": 34,
      "noteNumber": 34,
      "velocity": 0.51,
      "track": "(unnamed)",
      "channel": 1,
      "lane": "D"
    },
    {
      "time": 246.107,
      "duration": 0.161,
      "midi": 39,
      "noteNumber": 39,
      "velocity": 0.6,
      "track": "(unnamed)",
      "channel": 2,
      "lane": "D"
    },
    {
      "time": 246.107,
      "duration": 0.876,
      "midi": 39,
      "noteNumber": 39,
      "velocity": 0.66,
      "track": "(unnamed)",
      "channel": 1,
      "lane": "D"
    },
    {
      "time": 246.336,
      "duration": 0.056,
      "midi": 54,
      "noteNumber": 54,
      "velocity": 0.71,
      "track": "(unnamed)",
      "channel": 2,
      "lane": "J"
    },
    {
      "time": 246.336,
      "duration": 0.03,
      "midi": 58,
      "noteNumber": 58,
      "velocity": 0.54,
      "track": "(unnamed)",
      "channel": 2,
      "lane": "J"
    },
    {
      "time": 246.336,
      "duration": 0.06,
      "midi": 63,
      "noteNumber": 63,
      "velocity": 0.68,
      "track": "(unnamed)",
      "channel": 2,
      "lane": "J"
    },
    {
      "time": 246.691,
      "duration": 0.007,
      "midi": 40,
      "noteNumber": 40,
      "velocity": 0.54,
      "track": "(unnamed)",
      "channel": 9,
      "lane": "D"
    },
    {
      "time": 246.695,
      "duration": 0.112,
      "midi": 39,
      "noteNumber": 39,
      "velocity": 0.74,
      "track": "(unnamed)",
      "channel": 2,
      "lane": "D"
    },
    {
      "time": 246.826,
      "duration": 0.086,
      "midi": 54,
      "noteNumber": 54,
      "velocity": 0.71,
      "track": "(unnamed)",
      "channel": 2,
      "lane": "J"
    },
    {
      "time": 246.826,
      "duration": 0.041,
      "midi": 58,
      "noteNumber": 58,
      "velocity": 0.68,
      "track": "(unnamed)",
      "channel": 2,
      "lane": "J"
    },
    {
      "time": 246.826,
      "duration": 0.049,
      "midi": 63,
      "noteNumber": 63,
      "velocity": 0.54,
      "track": "(unnamed)",
      "channel": 2,
      "lane": "J"
    },
    {
      "time": 247.185,
      "duration": 0.52,
      "midi": 46,
      "noteNumber": 46,
      "velocity": 0.71,
      "track": "(unnamed)",
      "channel": 2,
      "lane": "F"
    },
    {
      "time": 247.185,
      "duration": 0.007,
      "midi": 40,
      "noteNumber": 40,
      "velocity": 0.54,
      "track": "(unnamed)",
      "channel": 9,
      "lane": "D"
    },
    {
      "time": 247.185,
      "duration": 0.273,
      "midi": 46,
      "noteNumber": 46,
      "velocity": 0.51,
      "track": "(unnamed)",
      "channel": 1,
      "lane": "F"
    },
    {
      "time": 247.545,
      "duration": 0.12,
      "midi": 53,
      "noteNumber": 53,
      "velocity": 0.57,
      "track": "(unnamed)",
      "channel": 2,
      "lane": "F"
    },
    {
      "time": 247.545,
      "duration": 0.12,
      "midi": 56,
      "noteNumber": 56,
      "velocity": 0.74,
      "track": "(unnamed)",
      "channel": 2,
      "lane": "J"
    },
    {
      "time": 247.545,
      "duration": 0.124,
      "midi": 61,
      "noteNumber": 61,
      "velocity": 0.71,
      "track": "(unnamed)",
      "channel": 2,
      "lane": "J"
    },
    {
      "time": 247.545,
      "duration": 0.007,
      "midi": 40,
      "noteNumber": 40,
      "velocity": 0.69,
      "track": "(unnamed)",
      "channel": 9,
      "lane": "D"
    },
    {
      "time": 247.545,
      "duration": 0.213,
      "midi": 34,
      "noteNumber": 34,
      "velocity": 0.51,
      "track": "(unnamed)",
      "channel": 1,
      "lane": "D"
    },
    {
      "time": 247.904,
      "duration": 0.161,
      "midi": 39,
      "noteNumber": 39,
      "velocity": 0.6,
      "track": "(unnamed)",
      "channel": 2,
      "lane": "D"
    },
    {
      "time": 247.904,
      "duration": 0.007,
      "midi": 35,
      "noteNumber": 35,
      "velocity": 0.62,
      "track": "(unnamed)",
      "channel": 9,
      "lane": "D"
    },
    {
      "time": 247.904,
      "duration": 0.007,
      "midi": 43,
      "noteNumber": 43,
      "velocity": 0.67,
      "track": "(unnamed)",
      "channel": 9,
      "lane": "F"
    },
    {
      "time": 247.904,
      "duration": 0.876,
      "midi": 39,
      "noteNumber": 39,
      "velocity": 0.66,
      "track": "(unnamed)",
      "channel": 1,
      "lane": "D"
    },
    {
      "time": 248.132,
      "duration": 0.056,
      "midi": 54,
      "noteNumber": 54,
      "velocity": 0.71,
      "track": "(unnamed)",
      "channel": 2,
      "lane": "J"
    },
    {
      "time": 248.132,
      "duration": 0.03,
      "midi": 58,
      "noteNumber": 58,
      "velocity": 0.54,
      "track": "(unnamed)",
      "channel": 2,
      "lane": "J"
    },
    {
      "time": 248.132,
      "duration": 0.06,
      "midi": 63,
      "noteNumber": 63,
      "velocity": 0.68,
      "track": "(unnamed)",
      "channel": 2,
      "lane": "J"
    },
    {
      "time": 248.488,
      "duration": 0.007,
      "midi": 40,
      "noteNumber": 40,
      "velocity": 0.83,
      "track": "(unnamed)",
      "channel": 9,
      "lane": "D"
    },
    {
      "time": 248.491,
      "duration": 0.112,
      "midi": 39,
      "noteNumber": 39,
      "velocity": 0.74,
      "track": "(unnamed)",
      "channel": 2,
      "lane": "D"
    },
    {
      "time": 248.622,
      "duration": 0.086,
      "midi": 54,
      "noteNumber": 54,
      "velocity": 0.71,
      "track": "(unnamed)",
      "channel": 2,
      "lane": "J"
    },
    {
      "time": 248.622,
      "duration": 0.041,
      "midi": 58,
      "noteNumber": 58,
      "velocity": 0.68,
      "track": "(unnamed)",
      "channel": 2,
      "lane": "J"
    },
    {
      "time": 248.622,
      "duration": 0.049,
      "midi": 63,
      "noteNumber": 63,
      "velocity": 0.54,
      "track": "(unnamed)",
      "channel": 2,
      "lane": "J"
    },
    {
      "time": 248.982,
      "duration": 0.52,
      "midi": 46,
      "noteNumber": 46,
      "velocity": 0.71,
      "track": "(unnamed)",
      "channel": 2,
      "lane": "F"
    },
    {
      "time": 248.982,
      "duration": 0.007,
      "midi": 43,
      "noteNumber": 43,
      "velocity": 0.63,
      "track": "(unnamed)",
      "channel": 9,
      "lane": "F"
    },
    {
      "time": 248.982,
      "duration": 0.273,
      "midi": 46,
      "noteNumber": 46,
      "velocity": 0.51,
      "track": "(unnamed)",
      "channel": 1,
      "lane": "F"
    },
    {
      "time": 249.206,
      "duration": 0.007,
      "midi": 43,
      "noteNumber": 43,
      "velocity": 0.42,
      "track": "(unnamed)",
      "channel": 9,
      "lane": "F"
    },
    {
      "time": 249.341,
      "duration": 0.12,
      "midi": 53,
      "noteNumber": 53,
      "velocity": 0.57,
      "track": "(unnamed)",
      "channel": 2,
      "lane": "F"
    },
    {
      "time": 249.341,
      "duration": 0.12,
      "midi": 56,
      "noteNumber": 56,
      "velocity": 0.74,
      "track": "(unnamed)",
      "channel": 2,
      "lane": "J"
    },
    {
      "time": 249.341,
      "duration": 0.124,
      "midi": 61,
      "noteNumber": 61,
      "velocity": 0.71,
      "track": "(unnamed)",
      "channel": 2,
      "lane": "J"
    },
    {
      "time": 249.341,
      "duration": 0.007,
      "midi": 43,
      "noteNumber": 43,
      "velocity": 0.52,
      "track": "(unnamed)",
      "channel": 9,
      "lane": "F"
    },
    {
      "time": 249.341,
      "duration": 0.213,
      "midi": 34,
      "noteNumber": 34,
      "velocity": 0.51,
      "track": "(unnamed)",
      "channel": 1,
      "lane": "D"
    },
    {
      "time": 249.566,
      "duration": 0.007,
      "midi": 43,
      "noteNumber": 43,
      "velocity": 0.63,
      "track": "(unnamed)",
      "channel": 9,
      "lane": "F"
    },
    {
      "time": 249.7,
      "duration": 0.161,
      "midi": 39,
      "noteNumber": 39,
      "velocity": 0.6,
      "track": "(unnamed)",
      "channel": 2,
      "lane": "D"
    },
    {
      "time": 249.7,
      "duration": 0.007,
      "midi": 35,
      "noteNumber": 35,
      "velocity": 0.62,
      "track": "(unnamed)",
      "channel": 9,
      "lane": "D"
    },
    {
      "time": 249.7,
      "duration": 0.007,
      "midi": 43,
      "noteNumber": 43,
      "velocity": 0.67,
      "track": "(unnamed)",
      "channel": 9,
      "lane": "F"
    },
    {
      "time": 249.7,
      "duration": 0.876,
      "midi": 39,
      "noteNumber": 39,
      "velocity": 0.66,
      "track": "(unnamed)",
      "channel": 1,
      "lane": "D"
    },
    {
      "time": 249.929,
      "duration": 0.056,
      "midi": 54,
      "noteNumber": 54,
      "velocity": 0.71,
      "track": "(unnamed)",
      "channel": 2,
      "lane": "J"
    },
    {
      "time": 249.929,
      "duration": 0.03,
      "midi": 58,
      "noteNumber": 58,
      "velocity": 0.54,
      "track": "(unnamed)",
      "channel": 2,
      "lane": "J"
    },
    {
      "time": 249.929,
      "duration": 0.06,
      "midi": 63,
      "noteNumber": 63,
      "velocity": 0.68,
      "track": "(unnamed)",
      "channel": 2,
      "lane": "J"
    },
    {
      "time": 250.284,
      "duration": 0.007,
      "midi": 40,
      "noteNumber": 40,
      "velocity": 0.83,
      "track": "(unnamed)",
      "channel": 9,
      "lane": "D"
    },
    {
      "time": 250.288,
      "duration": 0.112,
      "midi": 39,
      "noteNumber": 39,
      "velocity": 0.74,
      "track": "(unnamed)",
      "channel": 2,
      "lane": "D"
    },
    {
      "time": 250.419,
      "duration": 0.086,
      "midi": 54,
      "noteNumber": 54,
      "velocity": 0.71,
      "track": "(unnamed)",
      "channel": 2,
      "lane": "J"
    },
    {
      "time": 250.419,
      "duration": 0.041,
      "midi": 58,
      "noteNumber": 58,
      "velocity": 0.68,
      "track": "(unnamed)",
      "channel": 2,
      "lane": "J"
    },
    {
      "time": 250.419,
      "duration": 0.049,
      "midi": 63,
      "noteNumber": 63,
      "velocity": 0.54,
      "track": "(unnamed)",
      "channel": 2,
      "lane": "J"
    },
    {
      "time": 250.778,
      "duration": 0.52,
      "midi": 46,
      "noteNumber": 46,
      "velocity": 0.71,
      "track": "(unnamed)",
      "channel": 2,
      "lane": "F"
    },
    {
      "time": 250.778,
      "duration": 0.007,
      "midi": 43,
      "noteNumber": 43,
      "velocity": 0.63,
      "track": "(unnamed)",
      "channel": 9,
      "lane": "F"
    },
    {
      "time": 250.778,
      "duration": 0.273,
      "midi": 46,
      "noteNumber": 46,
      "velocity": 0.51,
      "track": "(unnamed)",
      "channel": 1,
      "lane": "F"
    },
    {
      "time": 251.003,
      "duration": 0.007,
      "midi": 43,
      "noteNumber": 43,
      "velocity": 0.42,
      "track": "(unnamed)",
      "channel": 9,
      "lane": "F"
    },
    {
      "time": 251.137,
      "duration": 0.12,
      "midi": 53,
      "noteNumber": 53,
      "velocity": 0.57,
      "track": "(unnamed)",
      "channel": 2,
      "lane": "F"
    },
    {
      "time": 251.137,
      "duration": 0.12,
      "midi": 56,
      "noteNumber": 56,
      "velocity": 0.74,
      "track": "(unnamed)",
      "channel": 2,
      "lane": "J"
    },
    {
      "time": 251.137,
      "duration": 0.124,
      "midi": 61,
      "noteNumber": 61,
      "velocity": 0.71,
      "track": "(unnamed)",
      "channel": 2,
      "lane": "J"
    },
    {
      "time": 251.137,
      "duration": 0.007,
      "midi": 43,
      "noteNumber": 43,
      "velocity": 0.52,
      "track": "(unnamed)",
      "channel": 9,
      "lane": "F"
    },
    {
      "time": 251.137,
      "duration": 0.213,
      "midi": 34,
      "noteNumber": 34,
      "velocity": 0.51,
      "track": "(unnamed)",
      "channel": 1,
      "lane": "D"
    },
    {
      "time": 251.362,
      "duration": 0.007,
      "midi": 43,
      "noteNumber": 43,
      "velocity": 0.63,
      "track": "(unnamed)",
      "channel": 9,
      "lane": "F"
    },
    {
      "time": 251.497,
      "duration": 0.161,
      "midi": 39,
      "noteNumber": 39,
      "velocity": 0.6,
      "track": "(unnamed)",
      "channel": 2,
      "lane": "D"
    },
    {
      "time": 251.497,
      "duration": 0.876,
      "midi": 39,
      "noteNumber": 39,
      "velocity": 0.66,
      "track": "(unnamed)",
      "channel": 1,
      "lane": "D"
    },
    {
      "time": 251.538,
      "duration": 0.007,
      "midi": 43,
      "noteNumber": 43,
      "velocity": 0.94,
      "track": "(unnamed)",
      "channel": 9,
      "lane": "F"
    },
    {
      "time": 251.616,
      "duration": 0.007,
      "midi": 41,
      "noteNumber": 41,
      "velocity": 0.52,
      "track": "(unnamed)",
      "channel": 9,
      "lane": "D"
    },
    {
      "time": 251.725,
      "duration": 0.056,
      "midi": 54,
      "noteNumber": 54,
      "velocity": 0.71,
      "track": "(unnamed)",
      "channel": 2,
      "lane": "J"
    },
    {
      "time": 251.725,
      "duration": 0.03,
      "midi": 58,
      "noteNumber": 58,
      "velocity": 0.54,
      "track": "(unnamed)",
      "channel": 2,
      "lane": "J"
    },
    {
      "time": 251.725,
      "duration": 0.06,
      "midi": 63,
      "noteNumber": 63,
      "velocity": 0.68,
      "track": "(unnamed)",
      "channel": 2,
      "lane": "J"
    },
    {
      "time": 251.852,
      "duration": 0.007,
      "midi": 45,
      "noteNumber": 45,
      "velocity": 1,
      "track": "(unnamed)",
      "channel": 9,
      "lane": "F"
    },
    {
      "time": 252.036,
      "duration": 0.007,
      "midi": 43,
      "noteNumber": 43,
      "velocity": 0.9,
      "track": "(unnamed)",
      "channel": 9,
      "lane": "F"
    },
    {
      "time": 252.084,
      "duration": 0.112,
      "midi": 39,
      "noteNumber": 39,
      "velocity": 0.74,
      "track": "(unnamed)",
      "channel": 2,
      "lane": "D"
    },
    {
      "time": 252.133,
      "duration": 0.007,
      "midi": 41,
      "noteNumber": 41,
      "velocity": 0.54,
      "track": "(unnamed)",
      "channel": 9,
      "lane": "D"
    },
    {
      "time": 252.215,
      "duration": 0.086,
      "midi": 54,
      "noteNumber": 54,
      "velocity": 0.71,
      "track": "(unnamed)",
      "channel": 2,
      "lane": "J"
    },
    {
      "time": 252.215,
      "duration": 0.041,
      "midi": 58,
      "noteNumber": 58,
      "velocity": 0.68,
      "track": "(unnamed)",
      "channel": 2,
      "lane": "J"
    },
    {
      "time": 252.215,
      "duration": 0.049,
      "midi": 63,
      "noteNumber": 63,
      "velocity": 0.54,
      "track": "(unnamed)",
      "channel": 2,
      "lane": "J"
    },
    {
      "time": 252.354,
      "duration": 0.007,
      "midi": 45,
      "noteNumber": 45,
      "velocity": 1,
      "track": "(unnamed)",
      "channel": 9,
      "lane": "F"
    },
    {
      "time": 252.575,
      "duration": 0.52,
      "midi": 46,
      "noteNumber": 46,
      "velocity": 0.71,
      "track": "(unnamed)",
      "channel": 2,
      "lane": "F"
    },
    {
      "time": 252.575,
      "duration": 0.273,
      "midi": 46,
      "noteNumber": 46,
      "velocity": 0.51,
      "track": "(unnamed)",
      "channel": 1,
      "lane": "F"
    },
    {
      "time": 252.934,
      "duration": 0.12,
      "midi": 53,
      "noteNumber": 53,
      "velocity": 0.57,
      "track": "(unnamed)",
      "channel": 2,
      "lane": "F"
    },
    {
      "time": 252.934,
      "duration": 0.12,
      "midi": 56,
      "noteNumber": 56,
      "velocity": 0.74,
      "track": "(unnamed)",
      "channel": 2,
      "lane": "J"
    },
    {
      "time": 252.934,
      "duration": 0.124,
      "midi": 61,
      "noteNumber": 61,
      "velocity": 0.71,
      "track": "(unnamed)",
      "channel": 2,
      "lane": "J"
    },
    {
      "time": 252.934,
      "duration": 0.213,
      "midi": 34,
      "noteNumber": 34,
      "velocity": 0.51,
      "track": "(unnamed)",
      "channel": 1,
      "lane": "D"
    },
    {
      "time": 253.293,
      "duration": 0.161,
      "midi": 39,
      "noteNumber": 39,
      "velocity": 0.6,
      "track": "(unnamed)",
      "channel": 2,
      "lane": "D"
    },
    {
      "time": 253.293,
      "duration": 0.876,
      "midi": 39,
      "noteNumber": 39,
      "velocity": 0.66,
      "track": "(unnamed)",
      "channel": 1,
      "lane": "D"
    },
    {
      "time": 253.521,
      "duration": 0.056,
      "midi": 54,
      "noteNumber": 54,
      "velocity": 0.71,
      "track": "(unnamed)",
      "channel": 2,
      "lane": "J"
    },
    {
      "time": 253.521,
      "duration": 0.03,
      "midi": 58,
      "noteNumber": 58,
      "velocity": 0.54,
      "track": "(unnamed)",
      "channel": 2,
      "lane": "J"
    },
    {
      "time": 253.521,
      "duration": 0.06,
      "midi": 63,
      "noteNumber": 63,
      "velocity": 0.68,
      "track": "(unnamed)",
      "channel": 2,
      "lane": "J"
    },
    {
      "time": 253.877,
      "duration": 0.007,
      "midi": 43,
      "noteNumber": 43,
      "velocity": 0.67,
      "track": "(unnamed)",
      "channel": 9,
      "lane": "F"
    },
    {
      "time": 253.881,
      "duration": 0.112,
      "midi": 39,
      "noteNumber": 39,
      "velocity": 0.74,
      "track": "(unnamed)",
      "channel": 2,
      "lane": "D"
    },
    {
      "time": 254.012,
      "duration": 0.086,
      "midi": 54,
      "noteNumber": 54,
      "velocity": 0.71,
      "track": "(unnamed)",
      "channel": 2,
      "lane": "J"
    },
    {
      "time": 254.012,
      "duration": 0.041,
      "midi": 58,
      "noteNumber": 58,
      "velocity": 0.68,
      "track": "(unnamed)",
      "channel": 2,
      "lane": "J"
    },
    {
      "time": 254.012,
      "duration": 0.049,
      "midi": 63,
      "noteNumber": 63,
      "velocity": 0.54,
      "track": "(unnamed)",
      "channel": 2,
      "lane": "J"
    },
    {
      "time": 254.236,
      "duration": 0.007,
      "midi": 45,
      "noteNumber": 45,
      "velocity": 0.53,
      "track": "(unnamed)",
      "channel": 9,
      "lane": "F"
    },
    {
      "time": 254.371,
      "duration": 0.52,
      "midi": 46,
      "noteNumber": 46,
      "velocity": 0.71,
      "track": "(unnamed)",
      "channel": 2,
      "lane": "F"
    },
    {
      "time": 254.371,
      "duration": 0.007,
      "midi": 45,
      "noteNumber": 45,
      "velocity": 0.46,
      "track": "(unnamed)",
      "channel": 9,
      "lane": "F"
    },
    {
      "time": 254.371,
      "duration": 0.273,
      "midi": 46,
      "noteNumber": 46,
      "velocity": 0.51,
      "track": "(unnamed)",
      "channel": 1,
      "lane": "F"
    },
    {
      "time": 254.595,
      "duration": 0.007,
      "midi": 41,
      "noteNumber": 41,
      "velocity": 0.52,
      "track": "(unnamed)",
      "channel": 9,
      "lane": "D"
    },
    {
      "time": 254.73,
      "duration": 0.12,
      "midi": 53,
      "noteNumber": 53,
      "velocity": 0.57,
      "track": "(unnamed)",
      "channel": 2,
      "lane": "F"
    },
    {
      "time": 254.73,
      "duration": 0.12,
      "midi": 56,
      "noteNumber": 56,
      "velocity": 0.74,
      "track": "(unnamed)",
      "channel": 2,
      "lane": "J"
    },
    {
      "time": 254.73,
      "duration": 0.124,
      "midi": 61,
      "noteNumber": 61,
      "velocity": 0.71,
      "track": "(unnamed)",
      "channel": 2,
      "lane": "J"
    },
    {
      "time": 254.73,
      "duration": 0.007,
      "midi": 43,
      "noteNumber": 43,
      "velocity": 0.63,
      "track": "(unnamed)",
      "channel": 9,
      "lane": "F"
    },
    {
      "time": 254.73,
      "duration": 0.213,
      "midi": 34,
      "noteNumber": 34,
      "velocity": 0.51,
      "track": "(unnamed)",
      "channel": 1,
      "lane": "D"
    },
    {
      "time": 254.955,
      "duration": 0.007,
      "midi": 41,
      "noteNumber": 41,
      "velocity": 0.63,
      "track": "(unnamed)",
      "channel": 9,
      "lane": "D"
    },
    {
      "time": 255.09,
      "duration": 0.161,
      "midi": 39,
      "noteNumber": 39,
      "velocity": 0.6,
      "track": "(unnamed)",
      "channel": 2,
      "lane": "D"
    },
    {
      "time": 255.09,
      "duration": 0.876,
      "midi": 39,
      "noteNumber": 39,
      "velocity": 0.66,
      "track": "(unnamed)",
      "channel": 1,
      "lane": "D"
    },
    {
      "time": 255.131,
      "duration": 0.007,
      "midi": 43,
      "noteNumber": 43,
      "velocity": 0.94,
      "track": "(unnamed)",
      "channel": 9,
      "lane": "F"
    },
    {
      "time": 255.209,
      "duration": 0.007,
      "midi": 41,
      "noteNumber": 41,
      "velocity": 0.52,
      "track": "(unnamed)",
      "channel": 9,
      "lane": "D"
    },
    {
      "time": 255.318,
      "duration": 0.056,
      "midi": 54,
      "noteNumber": 54,
      "velocity": 0.71,
      "track": "(unnamed)",
      "channel": 2,
      "lane": "J"
    },
    {
      "time": 255.318,
      "duration": 0.03,
      "midi": 58,
      "noteNumber": 58,
      "velocity": 0.54,
      "track": "(unnamed)",
      "channel": 2,
      "lane": "J"
    },
    {
      "time": 255.318,
      "duration": 0.06,
      "midi": 63,
      "noteNumber": 63,
      "velocity": 0.68,
      "track": "(unnamed)",
      "channel": 2,
      "lane": "J"
    },
    {
      "time": 255.445,
      "duration": 0.007,
      "midi": 45,
      "noteNumber": 45,
      "velocity": 1,
      "track": "(unnamed)",
      "channel": 9,
      "lane": "F"
    },
    {
      "time": 255.628,
      "duration": 0.007,
      "midi": 43,
      "noteNumber": 43,
      "velocity": 0.9,
      "track": "(unnamed)",
      "channel": 9,
      "lane": "F"
    },
    {
      "time": 255.677,
      "duration": 0.112,
      "midi": 39,
      "noteNumber": 39,
      "velocity": 0.74,
      "track": "(unnamed)",
      "channel": 2,
      "lane": "D"
    },
    {
      "time": 255.726,
      "duration": 0.007,
      "midi": 41,
      "noteNumber": 41,
      "velocity": 0.54,
      "track": "(unnamed)",
      "channel": 9,
      "lane": "D"
    },
    {
      "time": 255.808,
      "duration": 0.086,
      "midi": 54,
      "noteNumber": 54,
      "velocity": 0.71,
      "track": "(unnamed)",
      "channel": 2,
      "lane": "J"
    },
    {
      "time": 255.808,
      "duration": 0.041,
      "midi": 58,
      "noteNumber": 58,
      "velocity": 0.68,
      "track": "(unnamed)",
      "channel": 2,
      "lane": "J"
    },
    {
      "time": 255.808,
      "duration": 0.049,
      "midi": 63,
      "noteNumber": 63,
      "velocity": 0.54,
      "track": "(unnamed)",
      "channel": 2,
      "lane": "J"
    },
    {
      "time": 255.947,
      "duration": 0.007,
      "midi": 45,
      "noteNumber": 45,
      "velocity": 1,
      "track": "(unnamed)",
      "channel": 9,
      "lane": "F"
    },
    {
      "time": 256.167,
      "duration": 0.52,
      "midi": 46,
      "noteNumber": 46,
      "velocity": 0.71,
      "track": "(unnamed)",
      "channel": 2,
      "lane": "F"
    },
    {
      "time": 256.167,
      "duration": 0.273,
      "midi": 46,
      "noteNumber": 46,
      "velocity": 0.51,
      "track": "(unnamed)",
      "channel": 1,
      "lane": "F"
    },
    {
      "time": 256.527,
      "duration": 0.12,
      "midi": 53,
      "noteNumber": 53,
      "velocity": 0.57,
      "track": "(unnamed)",
      "channel": 2,
      "lane": "F"
    },
    {
      "time": 256.527,
      "duration": 0.12,
      "midi": 56,
      "noteNumber": 56,
      "velocity": 0.74,
      "track": "(unnamed)",
      "channel": 2,
      "lane": "J"
    },
    {
      "time": 256.527,
      "duration": 0.124,
      "midi": 61,
      "noteNumber": 61,
      "velocity": 0.71,
      "track": "(unnamed)",
      "channel": 2,
      "lane": "J"
    },
    {
      "time": 256.527,
      "duration": 0.213,
      "midi": 34,
      "noteNumber": 34,
      "velocity": 0.51,
      "track": "(unnamed)",
      "channel": 1,
      "lane": "D"
    },
    {
      "time": 256.886,
      "duration": 0.161,
      "midi": 39,
      "noteNumber": 39,
      "velocity": 0.6,
      "track": "(unnamed)",
      "channel": 2,
      "lane": "D"
    },
    {
      "time": 256.886,
      "duration": 0.876,
      "midi": 39,
      "noteNumber": 39,
      "velocity": 0.66,
      "track": "(unnamed)",
      "channel": 1,
      "lane": "D"
    },
    {
      "time": 257.114,
      "duration": 0.056,
      "midi": 54,
      "noteNumber": 54,
      "velocity": 0.71,
      "track": "(unnamed)",
      "channel": 2,
      "lane": "J"
    },
    {
      "time": 257.114,
      "duration": 0.03,
      "midi": 58,
      "noteNumber": 58,
      "velocity": 0.54,
      "track": "(unnamed)",
      "channel": 2,
      "lane": "J"
    },
    {
      "time": 257.114,
      "duration": 0.06,
      "midi": 63,
      "noteNumber": 63,
      "velocity": 0.68,
      "track": "(unnamed)",
      "channel": 2,
      "lane": "J"
    },
    {
      "time": 257.47,
      "duration": 0.007,
      "midi": 43,
      "noteNumber": 43,
      "velocity": 0.67,
      "track": "(unnamed)",
      "channel": 9,
      "lane": "F"
    },
    {
      "time": 257.473,
      "duration": 0.112,
      "midi": 39,
      "noteNumber": 39,
      "velocity": 0.74,
      "track": "(unnamed)",
      "channel": 2,
      "lane": "D"
    },
    {
      "time": 257.604,
      "duration": 0.086,
      "midi": 54,
      "noteNumber": 54,
      "velocity": 0.71,
      "track": "(unnamed)",
      "channel": 2,
      "lane": "J"
    },
    {
      "time": 257.604,
      "duration": 0.041,
      "midi": 58,
      "noteNumber": 58,
      "velocity": 0.68,
      "track": "(unnamed)",
      "channel": 2,
      "lane": "J"
    },
    {
      "time": 257.604,
      "duration": 0.049,
      "midi": 63,
      "noteNumber": 63,
      "velocity": 0.54,
      "track": "(unnamed)",
      "channel": 2,
      "lane": "J"
    },
    {
      "time": 257.829,
      "duration": 0.007,
      "midi": 45,
      "noteNumber": 45,
      "velocity": 0.53,
      "track": "(unnamed)",
      "channel": 9,
      "lane": "F"
    },
    {
      "time": 257.964,
      "duration": 0.52,
      "midi": 46,
      "noteNumber": 46,
      "velocity": 0.71,
      "track": "(unnamed)",
      "channel": 2,
      "lane": "F"
    },
    {
      "time": 257.964,
      "duration": 0.007,
      "midi": 45,
      "noteNumber": 45,
      "velocity": 0.46,
      "track": "(unnamed)",
      "channel": 9,
      "lane": "F"
    },
    {
      "time": 257.964,
      "duration": 0.273,
      "midi": 46,
      "noteNumber": 46,
      "velocity": 0.51,
      "track": "(unnamed)",
      "channel": 1,
      "lane": "F"
    },
    {
      "time": 258.188,
      "duration": 0.007,
      "midi": 41,
      "noteNumber": 41,
      "velocity": 0.52,
      "track": "(unnamed)",
      "channel": 9,
      "lane": "D"
    },
    {
      "time": 258.323,
      "duration": 0.12,
      "midi": 53,
      "noteNumber": 53,
      "velocity": 0.57,
      "track": "(unnamed)",
      "channel": 2,
      "lane": "F"
    },
    {
      "time": 258.323,
      "duration": 0.12,
      "midi": 56,
      "noteNumber": 56,
      "velocity": 0.74,
      "track": "(unnamed)",
      "channel": 2,
      "lane": "J"
    },
    {
      "time": 258.323,
      "duration": 0.124,
      "midi": 61,
      "noteNumber": 61,
      "velocity": 0.71,
      "track": "(unnamed)",
      "channel": 2,
      "lane": "J"
    },
    {
      "time": 258.323,
      "duration": 0.007,
      "midi": 43,
      "noteNumber": 43,
      "velocity": 0.63,
      "track": "(unnamed)",
      "channel": 9,
      "lane": "F"
    },
    {
      "time": 258.323,
      "duration": 0.213,
      "midi": 34,
      "noteNumber": 34,
      "velocity": 0.51,
      "track": "(unnamed)",
      "channel": 1,
      "lane": "D"
    },
    {
      "time": 258.548,
      "duration": 0.007,
      "midi": 41,
      "noteNumber": 41,
      "velocity": 0.63,
      "track": "(unnamed)",
      "channel": 9,
      "lane": "D"
    },
    {
      "time": 258.682,
      "duration": 0.161,
      "midi": 39,
      "noteNumber": 39,
      "velocity": 0.6,
      "track": "(unnamed)",
      "channel": 2,
      "lane": "D"
    },
    {
      "time": 258.682,
      "duration": 0.876,
      "midi": 39,
      "noteNumber": 39,
      "velocity": 0.66,
      "track": "(unnamed)",
      "channel": 1,
      "lane": "D"
    },
    {
      "time": 258.723,
      "duration": 0.007,
      "midi": 43,
      "noteNumber": 43,
      "velocity": 0.94,
      "track": "(unnamed)",
      "channel": 9,
      "lane": "F"
    },
    {
      "time": 258.802,
      "duration": 0.007,
      "midi": 41,
      "noteNumber": 41,
      "velocity": 0.52,
      "track": "(unnamed)",
      "channel": 9,
      "lane": "D"
    },
    {
      "time": 258.911,
      "duration": 0.056,
      "midi": 54,
      "noteNumber": 54,
      "velocity": 0.71,
      "track": "(unnamed)",
      "channel": 2,
      "lane": "J"
    },
    {
      "time": 258.911,
      "duration": 0.03,
      "midi": 58,
      "noteNumber": 58,
      "velocity": 0.54,
      "track": "(unnamed)",
      "channel": 2,
      "lane": "J"
    },
    {
      "time": 258.911,
      "duration": 0.06,
      "midi": 63,
      "noteNumber": 63,
      "velocity": 0.68,
      "track": "(unnamed)",
      "channel": 2,
      "lane": "J"
    },
    {
      "time": 259.038,
      "duration": 0.007,
      "midi": 45,
      "noteNumber": 45,
      "velocity": 1,
      "track": "(unnamed)",
      "channel": 9,
      "lane": "F"
    },
    {
      "time": 259.221,
      "duration": 0.007,
      "midi": 43,
      "noteNumber": 43,
      "velocity": 0.9,
      "track": "(unnamed)",
      "channel": 9,
      "lane": "F"
    },
    {
      "time": 259.27,
      "duration": 0.112,
      "midi": 39,
      "noteNumber": 39,
      "velocity": 0.74,
      "track": "(unnamed)",
      "channel": 2,
      "lane": "D"
    },
    {
      "time": 259.319,
      "duration": 0.007,
      "midi": 41,
      "noteNumber": 41,
      "velocity": 0.54,
      "track": "(unnamed)",
      "channel": 9,
      "lane": "D"
    },
    {
      "time": 259.401,
      "duration": 0.086,
      "midi": 54,
      "noteNumber": 54,
      "velocity": 0.71,
      "track": "(unnamed)",
      "channel": 2,
      "lane": "J"
    },
    {
      "time": 259.401,
      "duration": 0.041,
      "midi": 58,
      "noteNumber": 58,
      "velocity": 0.68,
      "track": "(unnamed)",
      "channel": 2,
      "lane": "J"
    },
    {
      "time": 259.401,
      "duration": 0.049,
      "midi": 63,
      "noteNumber": 63,
      "velocity": 0.54,
      "track": "(unnamed)",
      "channel": 2,
      "lane": "J"
    },
    {
      "time": 259.539,
      "duration": 0.007,
      "midi": 45,
      "noteNumber": 45,
      "velocity": 1,
      "track": "(unnamed)",
      "channel": 9,
      "lane": "F"
    },
    {
      "time": 259.76,
      "duration": 0.52,
      "midi": 46,
      "noteNumber": 46,
      "velocity": 0.71,
      "track": "(unnamed)",
      "channel": 2,
      "lane": "F"
    },
    {
      "time": 259.76,
      "duration": 0.273,
      "midi": 46,
      "noteNumber": 46,
      "velocity": 0.51,
      "track": "(unnamed)",
      "channel": 1,
      "lane": "F"
    },
    {
      "time": 260.119,
      "duration": 0.12,
      "midi": 53,
      "noteNumber": 53,
      "velocity": 0.57,
      "track": "(unnamed)",
      "channel": 2,
      "lane": "F"
    },
    {
      "time": 260.119,
      "duration": 0.12,
      "midi": 56,
      "noteNumber": 56,
      "velocity": 0.74,
      "track": "(unnamed)",
      "channel": 2,
      "lane": "J"
    },
    {
      "time": 260.119,
      "duration": 0.124,
      "midi": 61,
      "noteNumber": 61,
      "velocity": 0.71,
      "track": "(unnamed)",
      "channel": 2,
      "lane": "J"
    },
    {
      "time": 260.119,
      "duration": 0.213,
      "midi": 34,
      "noteNumber": 34,
      "velocity": 0.51,
      "track": "(unnamed)",
      "channel": 1,
      "lane": "D"
    },
    {
      "time": 260.479,
      "duration": 0.161,
      "midi": 39,
      "noteNumber": 39,
      "velocity": 0.6,
      "track": "(unnamed)",
      "channel": 2,
      "lane": "D"
    },
    {
      "time": 260.479,
      "duration": 0.876,
      "midi": 39,
      "noteNumber": 39,
      "velocity": 0.66,
      "track": "(unnamed)",
      "channel": 1,
      "lane": "D"
    },
    {
      "time": 260.707,
      "duration": 0.056,
      "midi": 54,
      "noteNumber": 54,
      "velocity": 0.71,
      "track": "(unnamed)",
      "channel": 2,
      "lane": "J"
    },
    {
      "time": 260.707,
      "duration": 0.03,
      "midi": 58,
      "noteNumber": 58,
      "velocity": 0.54,
      "track": "(unnamed)",
      "channel": 2,
      "lane": "J"
    },
    {
      "time": 260.707,
      "duration": 0.06,
      "midi": 63,
      "noteNumber": 63,
      "velocity": 0.68,
      "track": "(unnamed)",
      "channel": 2,
      "lane": "J"
    },
    {
      "time": 261.063,
      "duration": 0.007,
      "midi": 43,
      "noteNumber": 43,
      "velocity": 0.67,
      "track": "(unnamed)",
      "channel": 9,
      "lane": "F"
    },
    {
      "time": 261.066,
      "duration": 0.112,
      "midi": 39,
      "noteNumber": 39,
      "velocity": 0.74,
      "track": "(unnamed)",
      "channel": 2,
      "lane": "D"
    },
    {
      "time": 261.197,
      "duration": 0.086,
      "midi": 54,
      "noteNumber": 54,
      "velocity": 0.71,
      "track": "(unnamed)",
      "channel": 2,
      "lane": "J"
    },
    {
      "time": 261.197,
      "duration": 0.041,
      "midi": 58,
      "noteNumber": 58,
      "velocity": 0.68,
      "track": "(unnamed)",
      "channel": 2,
      "lane": "J"
    },
    {
      "time": 261.197,
      "duration": 0.049,
      "midi": 63,
      "noteNumber": 63,
      "velocity": 0.54,
      "track": "(unnamed)",
      "channel": 2,
      "lane": "J"
    },
    {
      "time": 261.422,
      "duration": 0.007,
      "midi": 45,
      "noteNumber": 45,
      "velocity": 0.53,
      "track": "(unnamed)",
      "channel": 9,
      "lane": "F"
    },
    {
      "time": 261.557,
      "duration": 0.52,
      "midi": 46,
      "noteNumber": 46,
      "velocity": 0.71,
      "track": "(unnamed)",
      "channel": 2,
      "lane": "F"
    },
    {
      "time": 261.557,
      "duration": 0.007,
      "midi": 45,
      "noteNumber": 45,
      "velocity": 0.46,
      "track": "(unnamed)",
      "channel": 9,
      "lane": "F"
    },
    {
      "time": 261.557,
      "duration": 0.273,
      "midi": 46,
      "noteNumber": 46,
      "velocity": 0.51,
      "track": "(unnamed)",
      "channel": 1,
      "lane": "F"
    },
    {
      "time": 261.781,
      "duration": 0.007,
      "midi": 41,
      "noteNumber": 41,
      "velocity": 0.52,
      "track": "(unnamed)",
      "channel": 9,
      "lane": "D"
    },
    {
      "time": 261.916,
      "duration": 0.12,
      "midi": 53,
      "noteNumber": 53,
      "velocity": 0.57,
      "track": "(unnamed)",
      "channel": 2,
      "lane": "F"
    },
    {
      "time": 261.916,
      "duration": 0.12,
      "midi": 56,
      "noteNumber": 56,
      "velocity": 0.74,
      "track": "(unnamed)",
      "channel": 2,
      "lane": "J"
    },
    {
      "time": 261.916,
      "duration": 0.124,
      "midi": 61,
      "noteNumber": 61,
      "velocity": 0.71,
      "track": "(unnamed)",
      "channel": 2,
      "lane": "J"
    },
    {
      "time": 261.916,
      "duration": 0.007,
      "midi": 43,
      "noteNumber": 43,
      "velocity": 0.63,
      "track": "(unnamed)",
      "channel": 9,
      "lane": "F"
    },
    {
      "time": 261.916,
      "duration": 0.213,
      "midi": 34,
      "noteNumber": 34,
      "velocity": 0.51,
      "track": "(unnamed)",
      "channel": 1,
      "lane": "D"
    },
    {
      "time": 262.14,
      "duration": 0.007,
      "midi": 41,
      "noteNumber": 41,
      "velocity": 0.63,
      "track": "(unnamed)",
      "channel": 9,
      "lane": "D"
    },
    {
      "time": 262.275,
      "duration": 0.161,
      "midi": 39,
      "noteNumber": 39,
      "velocity": 0.6,
      "track": "(unnamed)",
      "channel": 2,
      "lane": "D"
    },
    {
      "time": 262.275,
      "duration": 0.876,
      "midi": 39,
      "noteNumber": 39,
      "velocity": 0.66,
      "track": "(unnamed)",
      "channel": 1,
      "lane": "D"
    },
    {
      "time": 262.503,
      "duration": 0.056,
      "midi": 54,
      "noteNumber": 54,
      "velocity": 0.71,
      "track": "(unnamed)",
      "channel": 2,
      "lane": "J"
    },
    {
      "time": 262.503,
      "duration": 0.03,
      "midi": 58,
      "noteNumber": 58,
      "velocity": 0.54,
      "track": "(unnamed)",
      "channel": 2,
      "lane": "J"
    },
    {
      "time": 262.503,
      "duration": 0.06,
      "midi": 63,
      "noteNumber": 63,
      "velocity": 0.68,
      "track": "(unnamed)",
      "channel": 2,
      "lane": "J"
    },
    {
      "time": 262.634,
      "duration": 0.007,
      "midi": 47,
      "noteNumber": 47,
      "velocity": 1,
      "track": "(unnamed)",
      "channel": 9,
      "lane": "F"
    },
    {
      "time": 262.863,
      "duration": 0.112,
      "midi": 39,
      "noteNumber": 39,
      "velocity": 0.74,
      "track": "(unnamed)",
      "channel": 2,
      "lane": "D"
    },
    {
      "time": 262.994,
      "duration": 0.086,
      "midi": 54,
      "noteNumber": 54,
      "velocity": 0.71,
      "track": "(unnamed)",
      "channel": 2,
      "lane": "J"
    },
    {
      "time": 262.994,
      "duration": 0.041,
      "midi": 58,
      "noteNumber": 58,
      "velocity": 0.68,
      "track": "(unnamed)",
      "channel": 2,
      "lane": "J"
    },
    {
      "time": 262.994,
      "duration": 0.049,
      "midi": 63,
      "noteNumber": 63,
      "velocity": 0.54,
      "track": "(unnamed)",
      "channel": 2,
      "lane": "J"
    },
    {
      "time": 263.233,
      "duration": 0.007,
      "midi": 47,
      "noteNumber": 47,
      "velocity": 0.95,
      "track": "(unnamed)",
      "channel": 9,
      "lane": "F"
    },
    {
      "time": 263.353,
      "duration": 0.52,
      "midi": 46,
      "noteNumber": 46,
      "velocity": 0.71,
      "track": "(unnamed)",
      "channel": 2,
      "lane": "F"
    },
    {
      "time": 263.353,
      "duration": 0.273,
      "midi": 46,
      "noteNumber": 46,
      "velocity": 0.51,
      "track": "(unnamed)",
      "channel": 1,
      "lane": "F"
    },
    {
      "time": 263.712,
      "duration": 0.12,
      "midi": 53,
      "noteNumber": 53,
      "velocity": 0.57,
      "track": "(unnamed)",
      "channel": 2,
      "lane": "F"
    },
    {
      "time": 263.712,
      "duration": 0.12,
      "midi": 56,
      "noteNumber": 56,
      "velocity": 0.74,
      "track": "(unnamed)",
      "channel": 2,
      "lane": "J"
    },
    {
      "time": 263.712,
      "duration": 0.124,
      "midi": 61,
      "noteNumber": 61,
      "velocity": 0.71,
      "track": "(unnamed)",
      "channel": 2,
      "lane": "J"
    },
    {
      "time": 263.712,
      "duration": 0.007,
      "midi": 47,
      "noteNumber": 47,
      "velocity": 0.95,
      "track": "(unnamed)",
      "channel": 9,
      "lane": "F"
    },
    {
      "time": 263.712,
      "duration": 0.213,
      "midi": 34,
      "noteNumber": 34,
      "velocity": 0.51,
      "track": "(unnamed)",
      "channel": 1,
      "lane": "D"
    },
    {
      "time": 264.072,
      "duration": 0.161,
      "midi": 39,
      "noteNumber": 39,
      "velocity": 0.43,
      "track": "(unnamed)",
      "channel": 2,
      "lane": "D"
    },
    {
      "time": 264.072,
      "duration": 0.876,
      "midi": 39,
      "noteNumber": 39,
      "velocity": 0.46,
      "track": "(unnamed)",
      "channel": 1,
      "lane": "D"
    },
    {
      "time": 264.3,
      "duration": 0.056,
      "midi": 54,
      "noteNumber": 54,
      "velocity": 0.5,
      "track": "(unnamed)",
      "channel": 2,
      "lane": "J"
    },
    {
      "time": 264.3,
      "duration": 0.03,
      "midi": 58,
      "noteNumber": 58,
      "velocity": 0.38,
      "track": "(unnamed)",
      "channel": 2,
      "lane": "J"
    },
    {
      "time": 264.3,
      "duration": 0.06,
      "midi": 63,
      "noteNumber": 63,
      "velocity": 0.47,
      "track": "(unnamed)",
      "channel": 2,
      "lane": "J"
    },
    {
      "time": 264.659,
      "duration": 0.112,
      "midi": 39,
      "noteNumber": 39,
      "velocity": 0.52,
      "track": "(unnamed)",
      "channel": 2,
      "lane": "D"
    },
    {
      "time": 264.79,
      "duration": 0.086,
      "midi": 54,
      "noteNumber": 54,
      "velocity": 0.5,
      "track": "(unnamed)",
      "channel": 2,
      "lane": "J"
    },
    {
      "time": 264.79,
      "duration": 0.041,
      "midi": 58,
      "noteNumber": 58,
      "velocity": 0.47,
      "track": "(unnamed)",
      "channel": 2,
      "lane": "J"
    },
    {
      "time": 264.79,
      "duration": 0.049,
      "midi": 63,
      "noteNumber": 63,
      "velocity": 0.38,
      "track": "(unnamed)",
      "channel": 2,
      "lane": "J"
    },
    {
      "time": 265.015,
      "duration": 0.007,
      "midi": 40,
      "noteNumber": 40,
      "velocity": 0.69,
      "track": "(unnamed)",
      "channel": 9,
      "lane": "D"
    },
    {
      "time": 265.015,
      "duration": 0.007,
      "midi": 45,
      "noteNumber": 45,
      "velocity": 0.68,
      "track": "(unnamed)",
      "channel": 9,
      "lane": "F"
    },
    {
      "time": 265.149,
      "duration": 0.52,
      "midi": 46,
      "noteNumber": 46,
      "velocity": 0.5,
      "track": "(unnamed)",
      "channel": 2,
      "lane": "F"
    },
    {
      "time": 265.149,
      "duration": 0.007,
      "midi": 40,
      "noteNumber": 40,
      "velocity": 0.57,
      "track": "(unnamed)",
      "channel": 9,
      "lane": "D"
    },
    {
      "time": 265.149,
      "duration": 0.007,
      "midi": 45,
      "noteNumber": 45,
      "velocity": 0.63,
      "track": "(unnamed)",
      "channel": 9,
      "lane": "F"
    },
    {
      "time": 265.149,
      "duration": 0.273,
      "midi": 46,
      "noteNumber": 46,
      "velocity": 0.36,
      "track": "(unnamed)",
      "channel": 1,
      "lane": "F"
    },
    {
      "time": 265.374,
      "duration": 0.007,
      "midi": 35,
      "noteNumber": 35,
      "velocity": 0.85,
      "track": "(unnamed)",
      "channel": 9,
      "lane": "D"
    },
    {
      "time": 265.509,
      "duration": 0.12,
      "midi": 53,
      "noteNumber": 53,
      "velocity": 0.39,
      "track": "(unnamed)",
      "channel": 2,
      "lane": "F"
    },
    {
      "time": 265.509,
      "duration": 0.12,
      "midi": 56,
      "noteNumber": 56,
      "velocity": 0.52,
      "track": "(unnamed)",
      "channel": 2,
      "lane": "J"
    },
    {
      "time": 265.509,
      "duration": 0.124,
      "midi": 61,
      "noteNumber": 61,
      "velocity": 0.5,
      "track": "(unnamed)",
      "channel": 2,
      "lane": "J"
    },
    {
      "time": 265.509,
      "duration": 0.007,
      "midi": 40,
      "noteNumber": 40,
      "velocity": 0.78,
      "track": "(unnamed)",
      "channel": 9,
      "lane": "D"
    },
    {
      "time": 265.509,
      "duration": 0.007,
      "midi": 43,
      "noteNumber": 43,
      "velocity": 0.79,
      "track": "(unnamed)",
      "channel": 9,
      "lane": "F"
    },
    {
      "time": 265.509,
      "duration": 0.213,
      "midi": 34,
      "noteNumber": 34,
      "velocity": 0.36,
      "track": "(unnamed)",
      "channel": 1,
      "lane": "D"
    },
    {
      "time": 265.733,
      "duration": 0.007,
      "midi": 35,
      "noteNumber": 35,
      "velocity": 0.9,
      "track": "(unnamed)",
      "channel": 9,
      "lane": "D"
    },
    {
      "time": 265.868,
      "duration": 0.161,
      "midi": 39,
      "noteNumber": 39,
      "velocity": 0.43,
      "track": "(unnamed)",
      "channel": 2,
      "lane": "D"
    },
    {
      "time": 265.868,
      "duration": 0.007,
      "midi": 35,
      "noteNumber": 35,
      "velocity": 0.48,
      "track": "(unnamed)",
      "channel": 9,
      "lane": "D"
    },
    {
      "time": 265.868,
      "duration": 0.007,
      "midi": 43,
      "noteNumber": 43,
      "velocity": 0.54,
      "track": "(unnamed)",
      "channel": 9,
      "lane": "F"
    },
    {
      "time": 265.868,
      "duration": 0.876,
      "midi": 39,
      "noteNumber": 39,
      "velocity": 0.46,
      "track": "(unnamed)",
      "channel": 1,
      "lane": "D"
    },
    {
      "time": 266.096,
      "duration": 0.056,
      "midi": 54,
      "noteNumber": 54,
      "velocity": 0.5,
      "track": "(unnamed)",
      "channel": 2,
      "lane": "J"
    },
    {
      "time": 266.096,
      "duration": 0.03,
      "midi": 58,
      "noteNumber": 58,
      "velocity": 0.38,
      "track": "(unnamed)",
      "channel": 2,
      "lane": "J"
    },
    {
      "time": 266.096,
      "duration": 0.06,
      "midi": 63,
      "noteNumber": 63,
      "velocity": 0.47,
      "track": "(unnamed)",
      "channel": 2,
      "lane": "J"
    },
    {
      "time": 266.452,
      "duration": 0.007,
      "midi": 40,
      "noteNumber": 40,
      "velocity": 0.69,
      "track": "(unnamed)",
      "channel": 9,
      "lane": "D"
    },
    {
      "time": 266.456,
      "duration": 0.112,
      "midi": 39,
      "noteNumber": 39,
      "velocity": 0.52,
      "track": "(unnamed)",
      "channel": 2,
      "lane": "D"
    },
    {
      "time": 266.587,
      "duration": 0.086,
      "midi": 54,
      "noteNumber": 54,
      "velocity": 0.5,
      "track": "(unnamed)",
      "channel": 2,
      "lane": "J"
    },
    {
      "time": 266.587,
      "duration": 0.041,
      "midi": 58,
      "noteNumber": 58,
      "velocity": 0.47,
      "track": "(unnamed)",
      "channel": 2,
      "lane": "J"
    },
    {
      "time": 266.587,
      "duration": 0.049,
      "midi": 63,
      "noteNumber": 63,
      "velocity": 0.38,
      "track": "(unnamed)",
      "channel": 2,
      "lane": "J"
    },
    {
      "time": 266.946,
      "duration": 0.52,
      "midi": 46,
      "noteNumber": 46,
      "velocity": 0.5,
      "track": "(unnamed)",
      "channel": 2,
      "lane": "F"
    },
    {
      "time": 266.946,
      "duration": 0.007,
      "midi": 45,
      "noteNumber": 45,
      "velocity": 0.44,
      "track": "(unnamed)",
      "channel": 9,
      "lane": "F"
    },
    {
      "time": 266.946,
      "duration": 0.273,
      "midi": 46,
      "noteNumber": 46,
      "velocity": 0.36,
      "track": "(unnamed)",
      "channel": 1,
      "lane": "F"
    },
    {
      "time": 267.174,
      "duration": 0.007,
      "midi": 35,
      "noteNumber": 35,
      "velocity": 0.62,
      "track": "(unnamed)",
      "channel": 9,
      "lane": "D"
    },
    {
      "time": 267.305,
      "duration": 0.12,
      "midi": 53,
      "noteNumber": 53,
      "velocity": 0.39,
      "track": "(unnamed)",
      "channel": 2,
      "lane": "F"
    },
    {
      "time": 267.305,
      "duration": 0.12,
      "midi": 56,
      "noteNumber": 56,
      "velocity": 0.52,
      "track": "(unnamed)",
      "channel": 2,
      "lane": "J"
    },
    {
      "time": 267.305,
      "duration": 0.124,
      "midi": 61,
      "noteNumber": 61,
      "velocity": 0.5,
      "track": "(unnamed)",
      "channel": 2,
      "lane": "J"
    },
    {
      "time": 267.305,
      "duration": 0.007,
      "midi": 45,
      "noteNumber": 45,
      "velocity": 0.53,
      "track": "(unnamed)",
      "channel": 9,
      "lane": "F"
    },
    {
      "time": 267.305,
      "duration": 0.213,
      "midi": 34,
      "noteNumber": 34,
      "velocity": 0.36,
      "track": "(unnamed)",
      "channel": 1,
      "lane": "D"
    },
    {
      "time": 267.533,
      "duration": 0.007,
      "midi": 35,
      "noteNumber": 35,
      "velocity": 0.78,
      "track": "(unnamed)",
      "channel": 9,
      "lane": "D"
    },
    {
      "time": 267.664,
      "duration": 0.161,
      "midi": 39,
      "noteNumber": 39,
      "velocity": 0.43,
      "track": "(unnamed)",
      "channel": 2,
      "lane": "D"
    },
    {
      "time": 267.664,
      "duration": 0.007,
      "midi": 35,
      "noteNumber": 35,
      "velocity": 0.48,
      "track": "(unnamed)",
      "channel": 9,
      "lane": "D"
    },
    {
      "time": 267.664,
      "duration": 0.007,
      "midi": 43,
      "noteNumber": 43,
      "velocity": 0.54,
      "track": "(unnamed)",
      "channel": 9,
      "lane": "F"
    },
    {
      "time": 267.664,
      "duration": 0.876,
      "midi": 39,
      "noteNumber": 39,
      "velocity": 0.46,
      "track": "(unnamed)",
      "channel": 1,
      "lane": "D"
    },
    {
      "time": 267.893,
      "duration": 0.056,
      "midi": 54,
      "noteNumber": 54,
      "velocity": 0.5,
      "track": "(unnamed)",
      "channel": 2,
      "lane": "J"
    },
    {
      "time": 267.893,
      "duration": 0.03,
      "midi": 58,
      "noteNumber": 58,
      "velocity": 0.38,
      "track": "(unnamed)",
      "channel": 2,
      "lane": "J"
    },
    {
      "time": 267.893,
      "duration": 0.06,
      "midi": 63,
      "noteNumber": 63,
      "velocity": 0.47,
      "track": "(unnamed)",
      "channel": 2,
      "lane": "J"
    },
    {
      "time": 268.248,
      "duration": 0.007,
      "midi": 40,
      "noteNumber": 40,
      "velocity": 0.69,
      "track": "(unnamed)",
      "channel": 9,
      "lane": "D"
    },
    {
      "time": 268.252,
      "duration": 0.112,
      "midi": 39,
      "noteNumber": 39,
      "velocity": 0.52,
      "track": "(unnamed)",
      "channel": 2,
      "lane": "D"
    },
    {
      "time": 268.383,
      "duration": 0.086,
      "midi": 54,
      "noteNumber": 54,
      "velocity": 0.5,
      "track": "(unnamed)",
      "channel": 2,
      "lane": "J"
    },
    {
      "time": 268.383,
      "duration": 0.041,
      "midi": 58,
      "noteNumber": 58,
      "velocity": 0.47,
      "track": "(unnamed)",
      "channel": 2,
      "lane": "J"
    },
    {
      "time": 268.383,
      "duration": 0.049,
      "midi": 63,
      "noteNumber": 63,
      "velocity": 0.38,
      "track": "(unnamed)",
      "channel": 2,
      "lane": "J"
    },
    {
      "time": 268.742,
      "duration": 0.52,
      "midi": 46,
      "noteNumber": 46,
      "velocity": 0.5,
      "track": "(unnamed)",
      "channel": 2,
      "lane": "F"
    },
    {
      "time": 268.742,
      "duration": 0.007,
      "midi": 45,
      "noteNumber": 45,
      "velocity": 0.44,
      "track": "(unnamed)",
      "channel": 9,
      "lane": "F"
    },
    {
      "time": 268.742,
      "duration": 0.273,
      "midi": 46,
      "noteNumber": 46,
      "velocity": 0.36,
      "track": "(unnamed)",
      "channel": 1,
      "lane": "F"
    },
    {
      "time": 268.97,
      "duration": 0.007,
      "midi": 35,
      "noteNumber": 35,
      "velocity": 0.62,
      "track": "(unnamed)",
      "channel": 9,
      "lane": "D"
    },
    {
      "time": 269.101,
      "duration": 0.12,
      "midi": 53,
      "noteNumber": 53,
      "velocity": 0.39,
      "track": "(unnamed)",
      "channel": 2,
      "lane": "F"
    },
    {
      "time": 269.101,
      "duration": 0.12,
      "midi": 56,
      "noteNumber": 56,
      "velocity": 0.52,
      "track": "(unnamed)",
      "channel": 2,
      "lane": "J"
    },
    {
      "time": 269.101,
      "duration": 0.124,
      "midi": 61,
      "noteNumber": 61,
      "velocity": 0.5,
      "track": "(unnamed)",
      "channel": 2,
      "lane": "J"
    },
    {
      "time": 269.101,
      "duration": 0.007,
      "midi": 45,
      "noteNumber": 45,
      "velocity": 0.53,
      "track": "(unnamed)",
      "channel": 9,
      "lane": "F"
    },
    {
      "time": 269.101,
      "duration": 0.213,
      "midi": 34,
      "noteNumber": 34,
      "velocity": 0.36,
      "track": "(unnamed)",
      "channel": 1,
      "lane": "D"
    },
    {
      "time": 269.33,
      "duration": 0.007,
      "midi": 35,
      "noteNumber": 35,
      "velocity": 0.78,
      "track": "(unnamed)",
      "channel": 9,
      "lane": "D"
    },
    {
      "time": 269.461,
      "duration": 0.161,
      "midi": 39,
      "noteNumber": 39,
      "velocity": 0.43,
      "track": "(unnamed)",
      "channel": 2,
      "lane": "D"
    },
    {
      "time": 269.461,
      "duration": 0.007,
      "midi": 35,
      "noteNumber": 35,
      "velocity": 0.62,
      "track": "(unnamed)",
      "channel": 9,
      "lane": "D"
    },
    {
      "time": 269.461,
      "duration": 0.007,
      "midi": 43,
      "noteNumber": 43,
      "velocity": 0.67,
      "track": "(unnamed)",
      "channel": 9,
      "lane": "F"
    },
    {
      "time": 269.461,
      "duration": 0.876,
      "midi": 39,
      "noteNumber": 39,
      "velocity": 0.46,
      "track": "(unnamed)",
      "channel": 1,
      "lane": "D"
    },
    {
      "time": 269.689,
      "duration": 0.056,
      "midi": 54,
      "noteNumber": 54,
      "velocity": 0.5,
      "track": "(unnamed)",
      "channel": 2,
      "lane": "J"
    },
    {
      "time": 269.689,
      "duration": 0.03,
      "midi": 58,
      "noteNumber": 58,
      "velocity": 0.38,
      "track": "(unnamed)",
      "channel": 2,
      "lane": "J"
    },
    {
      "time": 269.689,
      "duration": 0.06,
      "midi": 63,
      "noteNumber": 63,
      "velocity": 0.47,
      "track": "(unnamed)",
      "channel": 2,
      "lane": "J"
    },
    {
      "time": 270.045,
      "duration": 0.007,
      "midi": 40,
      "noteNumber": 40,
      "velocity": 0.45,
      "track": "(unnamed)",
      "channel": 9,
      "lane": "D"
    },
    {
      "time": 270.048,
      "duration": 0.112,
      "midi": 39,
      "noteNumber": 39,
      "velocity": 0.52,
      "track": "(unnamed)",
      "channel": 2,
      "lane": "D"
    },
    {
      "time": 270.179,
      "duration": 0.086,
      "midi": 54,
      "noteNumber": 54,
      "velocity": 0.5,
      "track": "(unnamed)",
      "channel": 2,
      "lane": "J"
    },
    {
      "time": 270.179,
      "duration": 0.041,
      "midi": 58,
      "noteNumber": 58,
      "velocity": 0.47,
      "track": "(unnamed)",
      "channel": 2,
      "lane": "J"
    },
    {
      "time": 270.179,
      "duration": 0.049,
      "midi": 63,
      "noteNumber": 63,
      "velocity": 0.38,
      "track": "(unnamed)",
      "channel": 2,
      "lane": "J"
    },
    {
      "time": 270.179,
      "duration": 0.007,
      "midi": 40,
      "noteNumber": 40,
      "velocity": 0.65,
      "track": "(unnamed)",
      "channel": 9,
      "lane": "D"
    },
    {
      "time": 270.539,
      "duration": 0.52,
      "midi": 46,
      "noteNumber": 46,
      "velocity": 0.5,
      "track": "(unnamed)",
      "channel": 2,
      "lane": "F"
    },
    {
      "time": 270.539,
      "duration": 0.007,
      "midi": 43,
      "noteNumber": 43,
      "velocity": 0.67,
      "track": "(unnamed)",
      "channel": 9,
      "lane": "F"
    },
    {
      "time": 270.539,
      "duration": 0.273,
      "midi": 46,
      "noteNumber": 46,
      "velocity": 0.36,
      "track": "(unnamed)",
      "channel": 1,
      "lane": "F"
    },
    {
      "time": 270.569,
      "duration": 0.138,
      "midi": 58,
      "noteNumber": 58,
      "velocity": 0.54,
      "track": "(unnamed)",
      "channel": 3,
      "lane": "J"
    },
    {
      "time": 270.774,
      "duration": 0.06,
      "midi": 63,
      "noteNumber": 63,
      "velocity": 0.45,
      "track": "(unnamed)",
      "channel": 3,
      "lane": "J"
    },
    {
      "time": 270.898,
      "duration": 0.12,
      "midi": 53,
      "noteNumber": 53,
      "velocity": 0.39,
      "track": "(unnamed)",
      "channel": 2,
      "lane": "F"
    },
    {
      "time": 270.898,
      "duration": 0.12,
      "midi": 56,
      "noteNumber": 56,
      "velocity": 0.52,
      "track": "(unnamed)",
      "channel": 2,
      "lane": "J"
    },
    {
      "time": 270.898,
      "duration": 0.124,
      "midi": 61,
      "noteNumber": 61,
      "velocity": 0.5,
      "track": "(unnamed)",
      "channel": 2,
      "lane": "J"
    },
    {
      "time": 270.898,
      "duration": 0.007,
      "midi": 43,
      "noteNumber": 43,
      "velocity": 0.67,
      "track": "(unnamed)",
      "channel": 9,
      "lane": "F"
    },
    {
      "time": 270.898,
      "duration": 0.213,
      "midi": 34,
      "noteNumber": 34,
      "velocity": 0.36,
      "track": "(unnamed)",
      "channel": 1,
      "lane": "D"
    },
    {
      "time": 270.92,
      "duration": 0.116,
      "midi": 66,
      "noteNumber": 66,
      "velocity": 0.8,
      "track": "(unnamed)",
      "channel": 3,
      "lane": "K"
    },
    {
      "time": 271.096,
      "duration": 0.15,
      "midi": 68,
      "noteNumber": 68,
      "velocity": 0.77,
      "track": "(unnamed)",
      "channel": 3,
      "lane": "K"
    },
    {
      "time": 271.257,
      "duration": 0.161,
      "midi": 39,
      "noteNumber": 39,
      "velocity": 0.6,
      "track": "(unnamed)",
      "channel": 2,
      "lane": "D"
    },
    {
      "time": 271.257,
      "duration": 0.007,
      "midi": 35,
      "noteNumber": 35,
      "velocity": 0.74,
      "track": "(unnamed)",
      "channel": 9,
      "lane": "D"
    },
    {
      "time": 271.257,
      "duration": 0.007,
      "midi": 51,
      "noteNumber": 51,
      "velocity": 0.72,
      "track": "(unnamed)",
      "channel": 9,
      "lane": "F"
    },
    {
      "time": 271.257,
      "duration": 0.876,
      "midi": 39,
      "noteNumber": 39,
      "velocity": 0.66,
      "track": "(unnamed)",
      "channel": 1,
      "lane": "D"
    },
    {
      "time": 271.283,
      "duration": 0.146,
      "midi": 69,
      "noteNumber": 69,
      "velocity": 0.94,
      "track": "(unnamed)",
      "channel": 3,
      "lane": "K"
    },
    {
      "time": 271.463,
      "duration": 0.094,
      "midi": 70,
      "noteNumber": 70,
      "velocity": 0.77,
      "track": "(unnamed)",
      "channel": 3,
      "lane": "K"
    },
    {
      "time": 271.485,
      "duration": 0.056,
      "midi": 54,
      "noteNumber": 54,
      "velocity": 0.71,
      "track": "(unnamed)",
      "channel": 2,
      "lane": "J"
    },
    {
      "time": 271.485,
      "duration": 0.03,
      "midi": 58,
      "noteNumber": 58,
      "velocity": 0.54,
      "track": "(unnamed)",
      "channel": 2,
      "lane": "J"
    },
    {
      "time": 271.485,
      "duration": 0.06,
      "midi": 63,
      "noteNumber": 63,
      "velocity": 0.68,
      "track": "(unnamed)",
      "channel": 2,
      "lane": "J"
    },
    {
      "time": 271.616,
      "duration": 0.007,
      "midi": 51,
      "noteNumber": 51,
      "velocity": 0.72,
      "track": "(unnamed)",
      "channel": 9,
      "lane": "F"
    },
    {
      "time": 271.68,
      "duration": 0.071,
      "midi": 69,
      "noteNumber": 69,
      "velocity": 0.63,
      "track": "(unnamed)",
      "channel": 3,
      "lane": "K"
    },
    {
      "time": 271.845,
      "duration": 0.112,
      "midi": 39,
      "noteNumber": 39,
      "velocity": 0.74,
      "track": "(unnamed)",
      "channel": 2,
      "lane": "D"
    },
    {
      "time": 271.856,
      "duration": 0.007,
      "midi": 40,
      "noteNumber": 40,
      "velocity": 0.53,
      "track": "(unnamed)",
      "channel": 9,
      "lane": "D"
    },
    {
      "time": 271.867,
      "duration": 0.12,
      "midi": 68,
      "noteNumber": 68,
      "velocity": 0.8,
      "track": "(unnamed)",
      "channel": 3,
      "lane": "K"
    },
    {
      "time": 271.976,
      "duration": 0.086,
      "midi": 54,
      "noteNumber": 54,
      "velocity": 0.71,
      "track": "(unnamed)",
      "channel": 2,
      "lane": "J"
    },
    {
      "time": 271.976,
      "duration": 0.041,
      "midi": 58,
      "noteNumber": 58,
      "velocity": 0.68,
      "track": "(unnamed)",
      "channel": 2,
      "lane": "J"
    },
    {
      "time": 271.976,
      "duration": 0.049,
      "midi": 63,
      "noteNumber": 63,
      "velocity": 0.54,
      "track": "(unnamed)",
      "channel": 2,
      "lane": "J"
    },
    {
      "time": 271.976,
      "duration": 0.007,
      "midi": 51,
      "noteNumber": 51,
      "velocity": 0.72,
      "track": "(unnamed)",
      "channel": 9,
      "lane": "F"
    },
    {
      "time": 272.013,
      "duration": 0.172,
      "midi": 66,
      "noteNumber": 66,
      "velocity": 0.85,
      "track": "(unnamed)",
      "channel": 3,
      "lane": "K"
    },
    {
      "time": 272.215,
      "duration": 0.007,
      "midi": 51,
      "noteNumber": 51,
      "velocity": 0.61,
      "track": "(unnamed)",
      "channel": 9,
      "lane": "F"
    },
    {
      "time": 272.335,
      "duration": 0.52,
      "midi": 46,
      "noteNumber": 46,
      "velocity": 0.71,
      "track": "(unnamed)",
      "channel": 2,
      "lane": "F"
    },
    {
      "time": 272.335,
      "duration": 0.007,
      "midi": 40,
      "noteNumber": 40,
      "velocity": 0.53,
      "track": "(unnamed)",
      "channel": 9,
      "lane": "D"
    },
    {
      "time": 272.335,
      "duration": 0.007,
      "midi": 51,
      "noteNumber": 51,
      "velocity": 0.69,
      "track": "(unnamed)",
      "channel": 9,
      "lane": "F"
    },
    {
      "time": 272.335,
      "duration": 0.273,
      "midi": 46,
      "noteNumber": 46,
      "velocity": 0.51,
      "track": "(unnamed)",
      "channel": 1,
      "lane": "F"
    },
    {
      "time": 272.35,
      "duration": 0.314,
      "midi": 58,
      "noteNumber": 58,
      "velocity": 0.54,
      "track": "(unnamed)",
      "channel": 3,
      "lane": "J"
    },
    {
      "time": 272.575,
      "duration": 0.007,
      "midi": 51,
      "noteNumber": 51,
      "velocity": 0.54,
      "track": "(unnamed)",
      "channel": 9,
      "lane": "F"
    },
    {
      "time": 272.619,
      "duration": 0.105,
      "midi": 59,
      "noteNumber": 59,
      "velocity": 0.56,
      "track": "(unnamed)",
      "channel": 3,
      "lane": "J"
    },
    {
      "time": 272.694,
      "duration": 0.12,
      "midi": 53,
      "noteNumber": 53,
      "velocity": 0.57,
      "track": "(unnamed)",
      "channel": 2,
      "lane": "F"
    },
    {
      "time": 272.694,
      "duration": 0.12,
      "midi": 56,
      "noteNumber": 56,
      "velocity": 0.74,
      "track": "(unnamed)",
      "channel": 2,
      "lane": "J"
    },
    {
      "time": 272.694,
      "duration": 0.124,
      "midi": 61,
      "noteNumber": 61,
      "velocity": 0.71,
      "track": "(unnamed)",
      "channel": 2,
      "lane": "J"
    },
    {
      "time": 272.694,
      "duration": 0.007,
      "midi": 51,
      "noteNumber": 51,
      "velocity": 0.83,
      "track": "(unnamed)",
      "channel": 9,
      "lane": "F"
    },
    {
      "time": 272.694,
      "duration": 0.079,
      "midi": 60,
      "noteNumber": 60,
      "velocity": 0.52,
      "track": "(unnamed)",
      "channel": 3,
      "lane": "J"
    },
    {
      "time": 272.694,
      "duration": 0.213,
      "midi": 34,
      "noteNumber": 34,
      "velocity": 0.51,
      "track": "(unnamed)",
      "channel": 1,
      "lane": "D"
    },
    {
      "time": 272.724,
      "duration": 0.12,
      "midi": 61,
      "noteNumber": 61,
      "velocity": 0.77,
      "track": "(unnamed)",
      "channel": 3,
      "lane": "J"
    },
    {
      "time": 272.814,
      "duration": 0.007,
      "midi": 40,
      "noteNumber": 40,
      "velocity": 0.26,
      "track": "(unnamed)",
      "channel": 9,
      "lane": "D"
    },
    {
      "time": 272.934,
      "duration": 0.007,
      "midi": 40,
      "noteNumber": 40,
      "velocity": 0.5,
      "track": "(unnamed)",
      "channel": 9,
      "lane": "D"
    },
    {
      "time": 273.054,
      "duration": 0.161,
      "midi": 39,
      "noteNumber": 39,
      "velocity": 0.6,
      "track": "(unnamed)",
      "channel": 2,
      "lane": "D"
    },
    {
      "time": 273.054,
      "duration": 0.007,
      "midi": 35,
      "noteNumber": 35,
      "velocity": 0.74,
      "track": "(unnamed)",
      "channel": 9,
      "lane": "D"
    },
    {
      "time": 273.054,
      "duration": 0.007,
      "midi": 51,
      "noteNumber": 51,
      "velocity": 0.72,
      "track": "(unnamed)",
      "channel": 9,
      "lane": "F"
    },
    {
      "time": 273.054,
      "duration": 0.876,
      "midi": 39,
      "noteNumber": 39,
      "velocity": 0.66,
      "track": "(unnamed)",
      "channel": 1,
      "lane": "D"
    },
    {
      "time": 273.087,
      "duration": 1.018,
      "midi": 63,
      "noteNumber": 63,
      "velocity": 0.71,
      "track": "(unnamed)",
      "channel": 3,
      "lane": "J"
    },
    {
      "time": 273.282,
      "duration": 0.056,
      "midi": 54,
      "noteNumber": 54,
      "velocity": 0.71,
      "track": "(unnamed)",
      "channel": 2,
      "lane": "J"
    },
    {
      "time": 273.282,
      "duration": 0.03,
      "midi": 58,
      "noteNumber": 58,
      "velocity": 0.54,
      "track": "(unnamed)",
      "channel": 2,
      "lane": "J"
    },
    {
      "time": 273.282,
      "duration": 0.06,
      "midi": 63,
      "noteNumber": 63,
      "velocity": 0.68,
      "track": "(unnamed)",
      "channel": 2,
      "lane": "J"
    },
    {
      "time": 273.413,
      "duration": 0.007,
      "midi": 51,
      "noteNumber": 51,
      "velocity": 0.72,
      "track": "(unnamed)",
      "channel": 9,
      "lane": "F"
    },
    {
      "time": 273.641,
      "duration": 0.112,
      "midi": 39,
      "noteNumber": 39,
      "velocity": 0.74,
      "track": "(unnamed)",
      "channel": 2,
      "lane": "D"
    },
    {
      "time": 273.652,
      "duration": 0.007,
      "midi": 40,
      "noteNumber": 40,
      "velocity": 0.53,
      "track": "(unnamed)",
      "channel": 9,
      "lane": "D"
    },
    {
      "time": 273.772,
      "duration": 0.086,
      "midi": 54,
      "noteNumber": 54,
      "velocity": 0.71,
      "track": "(unnamed)",
      "channel": 2,
      "lane": "J"
    },
    {
      "time": 273.772,
      "duration": 0.041,
      "midi": 58,
      "noteNumber": 58,
      "velocity": 0.68,
      "track": "(unnamed)",
      "channel": 2,
      "lane": "J"
    },
    {
      "time": 273.772,
      "duration": 0.049,
      "midi": 63,
      "noteNumber": 63,
      "velocity": 0.54,
      "track": "(unnamed)",
      "channel": 2,
      "lane": "J"
    },
    {
      "time": 273.772,
      "duration": 0.007,
      "midi": 51,
      "noteNumber": 51,
      "velocity": 0.72,
      "track": "(unnamed)",
      "channel": 9,
      "lane": "F"
    },
    {
      "time": 274.012,
      "duration": 0.007,
      "midi": 51,
      "noteNumber": 51,
      "velocity": 0.61,
      "track": "(unnamed)",
      "channel": 9,
      "lane": "F"
    },
    {
      "time": 274.131,
      "duration": 0.52,
      "midi": 46,
      "noteNumber": 46,
      "velocity": 0.71,
      "track": "(unnamed)",
      "channel": 2,
      "lane": "F"
    },
    {
      "time": 274.131,
      "duration": 0.007,
      "midi": 40,
      "noteNumber": 40,
      "velocity": 0.53,
      "track": "(unnamed)",
      "channel": 9,
      "lane": "D"
    },
    {
      "time": 274.131,
      "duration": 0.007,
      "midi": 51,
      "noteNumber": 51,
      "velocity": 0.69,
      "track": "(unnamed)",
      "channel": 9,
      "lane": "F"
    },
    {
      "time": 274.131,
      "duration": 0.273,
      "midi": 46,
      "noteNumber": 46,
      "velocity": 0.51,
      "track": "(unnamed)",
      "channel": 1,
      "lane": "F"
    },
    {
      "time": 274.135,
      "duration": 0.138,
      "midi": 65,
      "noteNumber": 65,
      "velocity": 0.8,
      "track": "(unnamed)",
      "channel": 3,
      "lane": "J"
    },
    {
      "time": 274.296,
      "duration": 0.071,
      "midi": 66,
      "noteNumber": 66,
      "velocity": 0.52,
      "track": "(unnamed)",
      "channel": 3,
      "lane": "K"
    },
    {
      "time": 274.363,
      "duration": 0.056,
      "midi": 65,
      "noteNumber": 65,
      "velocity": 0.52,
      "track": "(unnamed)",
      "channel": 3,
      "lane": "J"
    },
    {
      "time": 274.371,
      "duration": 0.007,
      "midi": 51,
      "noteNumber": 51,
      "velocity": 0.54,
      "track": "(unnamed)",
      "channel": 9,
      "lane": "F"
    },
    {
      "time": 274.42,
      "duration": 0.071,
      "midi": 63,
      "noteNumber": 63,
      "velocity": 0.74,
      "track": "(unnamed)",
      "channel": 3,
      "lane": "J"
    },
    {
      "time": 274.491,
      "duration": 0.12,
      "midi": 53,
      "noteNumber": 53,
      "velocity": 0.57,
      "track": "(unnamed)",
      "channel": 2,
      "lane": "F"
    },
    {
      "time": 274.491,
      "duration": 0.12,
      "midi": 56,
      "noteNumber": 56,
      "velocity": 0.74,
      "track": "(unnamed)",
      "channel": 2,
      "lane": "J"
    },
    {
      "time": 274.491,
      "duration": 0.124,
      "midi": 61,
      "noteNumber": 61,
      "velocity": 0.71,
      "track": "(unnamed)",
      "channel": 2,
      "lane": "J"
    },
    {
      "time": 274.491,
      "duration": 0.007,
      "midi": 51,
      "noteNumber": 51,
      "velocity": 0.83,
      "track": "(unnamed)",
      "channel": 9,
      "lane": "F"
    },
    {
      "time": 274.491,
      "duration": 0.213,
      "midi": 34,
      "noteNumber": 34,
      "velocity": 0.51,
      "track": "(unnamed)",
      "channel": 1,
      "lane": "D"
    },
    {
      "time": 274.498,
      "duration": 0.367,
      "midi": 61,
      "noteNumber": 61,
      "velocity": 0.63,
      "track": "(unnamed)",
      "channel": 3,
      "lane": "J"
    },
    {
      "time": 274.61,
      "duration": 0.007,
      "midi": 40,
      "noteNumber": 40,
      "velocity": 0.26,
      "track": "(unnamed)",
      "channel": 9,
      "lane": "D"
    },
    {
      "time": 274.73,
      "duration": 0.007,
      "midi": 40,
      "noteNumber": 40,
      "velocity": 0.5,
      "track": "(unnamed)",
      "channel": 9,
      "lane": "D"
    },
    {
      "time": 274.85,
      "duration": 0.161,
      "midi": 39,
      "noteNumber": 39,
      "velocity": 0.6,
      "track": "(unnamed)",
      "channel": 2,
      "lane": "D"
    },
    {
      "time": 274.85,
      "duration": 0.007,
      "midi": 35,
      "noteNumber": 35,
      "velocity": 0.74,
      "track": "(unnamed)",
      "channel": 9,
      "lane": "D"
    },
    {
      "time": 274.85,
      "duration": 0.007,
      "midi": 51,
      "noteNumber": 51,
      "velocity": 0.72,
      "track": "(unnamed)",
      "channel": 9,
      "lane": "F"
    },
    {
      "time": 274.85,
      "duration": 0.876,
      "midi": 39,
      "noteNumber": 39,
      "velocity": 0.66,
      "track": "(unnamed)",
      "channel": 1,
      "lane": "D"
    },
    {
      "time": 274.872,
      "duration": 1.037,
      "midi": 63,
      "noteNumber": 63,
      "velocity": 0.6,
      "track": "(unnamed)",
      "channel": 3,
      "lane": "J"
    },
    {
      "time": 275.078,
      "duration": 0.056,
      "midi": 54,
      "noteNumber": 54,
      "velocity": 0.71,
      "track": "(unnamed)",
      "channel": 2,
      "lane": "J"
    },
    {
      "time": 275.078,
      "duration": 0.03,
      "midi": 58,
      "noteNumber": 58,
      "velocity": 0.54,
      "track": "(unnamed)",
      "channel": 2,
      "lane": "J"
    },
    {
      "time": 275.078,
      "duration": 0.06,
      "midi": 63,
      "noteNumber": 63,
      "velocity": 0.68,
      "track": "(unnamed)",
      "channel": 2,
      "lane": "J"
    },
    {
      "time": 275.209,
      "duration": 0.007,
      "midi": 51,
      "noteNumber": 51,
      "velocity": 0.72,
      "track": "(unnamed)",
      "channel": 9,
      "lane": "F"
    },
    {
      "time": 275.438,
      "duration": 0.112,
      "midi": 39,
      "noteNumber": 39,
      "velocity": 0.74,
      "track": "(unnamed)",
      "channel": 2,
      "lane": "D"
    },
    {
      "time": 275.449,
      "duration": 0.007,
      "midi": 40,
      "noteNumber": 40,
      "velocity": 0.53,
      "track": "(unnamed)",
      "channel": 9,
      "lane": "D"
    },
    {
      "time": 275.569,
      "duration": 0.086,
      "midi": 54,
      "noteNumber": 54,
      "velocity": 0.71,
      "track": "(unnamed)",
      "channel": 2,
      "lane": "J"
    },
    {
      "time": 275.569,
      "duration": 0.041,
      "midi": 58,
      "noteNumber": 58,
      "velocity": 0.68,
      "track": "(unnamed)",
      "channel": 2,
      "lane": "J"
    },
    {
      "time": 275.569,
      "duration": 0.049,
      "midi": 63,
      "noteNumber": 63,
      "velocity": 0.54,
      "track": "(unnamed)",
      "channel": 2,
      "lane": "J"
    },
    {
      "time": 275.569,
      "duration": 0.007,
      "midi": 51,
      "noteNumber": 51,
      "velocity": 0.72,
      "track": "(unnamed)",
      "channel": 9,
      "lane": "F"
    },
    {
      "time": 275.808,
      "duration": 0.007,
      "midi": 51,
      "noteNumber": 51,
      "velocity": 0.61,
      "track": "(unnamed)",
      "channel": 9,
      "lane": "F"
    },
    {
      "time": 275.928,
      "duration": 0.52,
      "midi": 46,
      "noteNumber": 46,
      "velocity": 0.71,
      "track": "(unnamed)",
      "channel": 2,
      "lane": "F"
    },
    {
      "time": 275.928,
      "duration": 0.007,
      "midi": 40,
      "noteNumber": 40,
      "velocity": 0.53,
      "track": "(unnamed)",
      "channel": 9,
      "lane": "D"
    },
    {
      "time": 275.928,
      "duration": 0.007,
      "midi": 51,
      "noteNumber": 51,
      "velocity": 0.69,
      "track": "(unnamed)",
      "channel": 9,
      "lane": "F"
    },
    {
      "time": 275.928,
      "duration": 0.273,
      "midi": 46,
      "noteNumber": 46,
      "velocity": 0.51,
      "track": "(unnamed)",
      "channel": 1,
      "lane": "F"
    },
    {
      "time": 275.935,
      "duration": 0.138,
      "midi": 61,
      "noteNumber": 61,
      "velocity": 0.71,
      "track": "(unnamed)",
      "channel": 3,
      "lane": "J"
    },
    {
      "time": 276.126,
      "duration": 0.041,
      "midi": 63,
      "noteNumber": 63,
      "velocity": 0.46,
      "track": "(unnamed)",
      "channel": 3,
      "lane": "J"
    },
    {
      "time": 276.145,
      "duration": 0.075,
      "midi": 61,
      "noteNumber": 61,
      "velocity": 0.52,
      "track": "(unnamed)",
      "channel": 3,
      "lane": "J"
    },
    {
      "time": 276.167,
      "duration": 0.007,
      "midi": 51,
      "noteNumber": 51,
      "velocity": 0.54,
      "track": "(unnamed)",
      "channel": 9,
      "lane": "F"
    },
    {
      "time": 276.216,
      "duration": 0.09,
      "midi": 58,
      "noteNumber": 58,
      "velocity": 0.74,
      "track": "(unnamed)",
      "channel": 3,
      "lane": "J"
    },
    {
      "time": 276.287,
      "duration": 0.12,
      "midi": 53,
      "noteNumber": 53,
      "velocity": 0.57,
      "track": "(unnamed)",
      "channel": 2,
      "lane": "F"
    },
    {
      "time": 276.287,
      "duration": 0.12,
      "midi": 56,
      "noteNumber": 56,
      "velocity": 0.74,
      "track": "(unnamed)",
      "channel": 2,
      "lane": "J"
    },
    {
      "time": 276.287,
      "duration": 0.124,
      "midi": 61,
      "noteNumber": 61,
      "velocity": 0.71,
      "track": "(unnamed)",
      "channel": 2,
      "lane": "J"
    },
    {
      "time": 276.287,
      "duration": 0.007,
      "midi": 51,
      "noteNumber": 51,
      "velocity": 0.83,
      "track": "(unnamed)",
      "channel": 9,
      "lane": "F"
    },
    {
      "time": 276.287,
      "duration": 0.213,
      "midi": 34,
      "noteNumber": 34,
      "velocity": 0.51,
      "track": "(unnamed)",
      "channel": 1,
      "lane": "D"
    },
    {
      "time": 276.298,
      "duration": 0.348,
      "midi": 56,
      "noteNumber": 56,
      "velocity": 0.6,
      "track": "(unnamed)",
      "channel": 3,
      "lane": "J"
    },
    {
      "time": 276.407,
      "duration": 0.007,
      "midi": 40,
      "noteNumber": 40,
      "velocity": 0.26,
      "track": "(unnamed)",
      "channel": 9,
      "lane": "D"
    },
    {
      "time": 276.527,
      "duration": 0.007,
      "midi": 40,
      "noteNumber": 40,
      "velocity": 0.5,
      "track": "(unnamed)",
      "channel": 9,
      "lane": "D"
    },
    {
      "time": 276.646,
      "duration": 0.161,
      "midi": 39,
      "noteNumber": 39,
      "velocity": 0.6,
      "track": "(unnamed)",
      "channel": 2,
      "lane": "D"
    },
    {
      "time": 276.646,
      "duration": 0.007,
      "midi": 35,
      "noteNumber": 35,
      "velocity": 0.74,
      "track": "(unnamed)",
      "channel": 9,
      "lane": "D"
    },
    {
      "time": 276.646,
      "duration": 0.007,
      "midi": 51,
      "noteNumber": 51,
      "velocity": 0.72,
      "track": "(unnamed)",
      "channel": 9,
      "lane": "F"
    },
    {
      "time": 276.646,
      "duration": 0.894,
      "midi": 58,
      "noteNumber": 58,
      "velocity": 0.68,
      "track": "(unnamed)",
      "channel": 3,
      "lane": "J"
    },
    {
      "time": 276.646,
      "duration": 0.876,
      "midi": 39,
      "noteNumber": 39,
      "velocity": 0.66,
      "track": "(unnamed)",
      "channel": 1,
      "lane": "D"
    },
    {
      "time": 276.875,
      "duration": 0.056,
      "midi": 54,
      "noteNumber": 54,
      "velocity": 0.71,
      "track": "(unnamed)",
      "channel": 2,
      "lane": "J"
    },
    {
      "time": 276.875,
      "duration": 0.03,
      "midi": 58,
      "noteNumber": 58,
      "velocity": 0.54,
      "track": "(unnamed)",
      "channel": 2,
      "lane": "J"
    },
    {
      "time": 276.875,
      "duration": 0.06,
      "midi": 63,
      "noteNumber": 63,
      "velocity": 0.68,
      "track": "(unnamed)",
      "channel": 2,
      "lane": "J"
    },
    {
      "time": 277.006,
      "duration": 0.007,
      "midi": 51,
      "noteNumber": 51,
      "velocity": 0.72,
      "track": "(unnamed)",
      "channel": 9,
      "lane": "F"
    },
    {
      "time": 277.234,
      "duration": 0.112,
      "midi": 39,
      "noteNumber": 39,
      "velocity": 0.74,
      "track": "(unnamed)",
      "channel": 2,
      "lane": "D"
    },
    {
      "time": 277.245,
      "duration": 0.007,
      "midi": 40,
      "noteNumber": 40,
      "velocity": 0.53,
      "track": "(unnamed)",
      "channel": 9,
      "lane": "D"
    },
    {
      "time": 277.365,
      "duration": 0.086,
      "midi": 54,
      "noteNumber": 54,
      "velocity": 0.71,
      "track": "(unnamed)",
      "channel": 2,
      "lane": "J"
    },
    {
      "time": 277.365,
      "duration": 0.041,
      "midi": 58,
      "noteNumber": 58,
      "velocity": 0.68,
      "track": "(unnamed)",
      "channel": 2,
      "lane": "J"
    },
    {
      "time": 277.365,
      "duration": 0.049,
      "midi": 63,
      "noteNumber": 63,
      "velocity": 0.54,
      "track": "(unnamed)",
      "channel": 2,
      "lane": "J"
    },
    {
      "time": 277.365,
      "duration": 0.007,
      "midi": 51,
      "noteNumber": 51,
      "velocity": 0.72,
      "track": "(unnamed)",
      "channel": 9,
      "lane": "F"
    },
    {
      "time": 277.604,
      "duration": 0.007,
      "midi": 51,
      "noteNumber": 51,
      "velocity": 0.61,
      "track": "(unnamed)",
      "channel": 9,
      "lane": "F"
    },
    {
      "time": 277.724,
      "duration": 0.52,
      "midi": 46,
      "noteNumber": 46,
      "velocity": 0.71,
      "track": "(unnamed)",
      "channel": 2,
      "lane": "F"
    },
    {
      "time": 277.724,
      "duration": 0.007,
      "midi": 40,
      "noteNumber": 40,
      "velocity": 0.53,
      "track": "(unnamed)",
      "channel": 9,
      "lane": "D"
    },
    {
      "time": 277.724,
      "duration": 0.007,
      "midi": 51,
      "noteNumber": 51,
      "velocity": 0.69,
      "track": "(unnamed)",
      "channel": 9,
      "lane": "F"
    },
    {
      "time": 277.724,
      "duration": 0.273,
      "midi": 46,
      "noteNumber": 46,
      "velocity": 0.51,
      "track": "(unnamed)",
      "channel": 1,
      "lane": "F"
    },
    {
      "time": 277.75,
      "duration": 0.138,
      "midi": 58,
      "noteNumber": 58,
      "velocity": 0.52,
      "track": "(unnamed)",
      "channel": 3,
      "lane": "J"
    },
    {
      "time": 277.953,
      "duration": 0.109,
      "midi": 63,
      "noteNumber": 63,
      "velocity": 0.54,
      "track": "(unnamed)",
      "channel": 3,
      "lane": "J"
    },
    {
      "time": 277.964,
      "duration": 0.007,
      "midi": 51,
      "noteNumber": 51,
      "velocity": 0.54,
      "track": "(unnamed)",
      "channel": 9,
      "lane": "F"
    },
    {
      "time": 278.083,
      "duration": 0.12,
      "midi": 53,
      "noteNumber": 53,
      "velocity": 0.57,
      "track": "(unnamed)",
      "channel": 2,
      "lane": "F"
    },
    {
      "time": 278.083,
      "duration": 0.12,
      "midi": 56,
      "noteNumber": 56,
      "velocity": 0.74,
      "track": "(unnamed)",
      "channel": 2,
      "lane": "J"
    },
    {
      "time": 278.083,
      "duration": 0.124,
      "midi": 61,
      "noteNumber": 61,
      "velocity": 0.71,
      "track": "(unnamed)",
      "channel": 2,
      "lane": "J"
    },
    {
      "time": 278.083,
      "duration": 0.007,
      "midi": 51,
      "noteNumber": 51,
      "velocity": 0.83,
      "track": "(unnamed)",
      "channel": 9,
      "lane": "F"
    },
    {
      "time": 278.083,
      "duration": 0.213,
      "midi": 34,
      "noteNumber": 34,
      "velocity": 0.51,
      "track": "(unnamed)",
      "channel": 1,
      "lane": "D"
    },
    {
      "time": 278.102,
      "duration": 0.131,
      "midi": 66,
      "noteNumber": 66,
      "velocity": 0.71,
      "track": "(unnamed)",
      "channel": 3,
      "lane": "K"
    },
    {
      "time": 278.203,
      "duration": 0.007,
      "midi": 40,
      "noteNumber": 40,
      "velocity": 0.26,
      "track": "(unnamed)",
      "channel": 9,
      "lane": "D"
    },
    {
      "time": 278.289,
      "duration": 0.112,
      "midi": 68,
      "noteNumber": 68,
      "velocity": 0.85,
      "track": "(unnamed)",
      "channel": 3,
      "lane": "K"
    },
    {
      "time": 278.323,
      "duration": 0.007,
      "midi": 40,
      "noteNumber": 40,
      "velocity": 0.5,
      "track": "(unnamed)",
      "channel": 9,
      "lane": "D"
    },
    {
      "time": 278.443,
      "duration": 0.161,
      "midi": 39,
      "noteNumber": 39,
      "velocity": 0.6,
      "track": "(unnamed)",
      "channel": 2,
      "lane": "D"
    },
    {
      "time": 278.443,
      "duration": 0.007,
      "midi": 35,
      "noteNumber": 35,
      "velocity": 0.74,
      "track": "(unnamed)",
      "channel": 9,
      "lane": "D"
    },
    {
      "time": 278.443,
      "duration": 0.007,
      "midi": 51,
      "noteNumber": 51,
      "velocity": 0.72,
      "track": "(unnamed)",
      "channel": 9,
      "lane": "F"
    },
    {
      "time": 278.443,
      "duration": 0.876,
      "midi": 39,
      "noteNumber": 39,
      "velocity": 0.66,
      "track": "(unnamed)",
      "channel": 1,
      "lane": "D"
    },
    {
      "time": 278.469,
      "duration": 0.146,
      "midi": 69,
      "noteNumber": 69,
      "velocity": 0.94,
      "track": "(unnamed)",
      "channel": 3,
      "lane": "K"
    },
    {
      "time": 278.649,
      "duration": 0.094,
      "midi": 70,
      "noteNumber": 70,
      "velocity": 0.77,
      "track": "(unnamed)",
      "channel": 3,
      "lane": "K"
    },
    {
      "time": 278.671,
      "duration": 0.056,
      "midi": 54,
      "noteNumber": 54,
      "velocity": 0.71,
      "track": "(unnamed)",
      "channel": 2,
      "lane": "J"
    },
    {
      "time": 278.671,
      "duration": 0.03,
      "midi": 58,
      "noteNumber": 58,
      "velocity": 0.54,
      "track": "(unnamed)",
      "channel": 2,
      "lane": "J"
    },
    {
      "time": 278.671,
      "duration": 0.06,
      "midi": 63,
      "noteNumber": 63,
      "velocity": 0.68,
      "track": "(unnamed)",
      "channel": 2,
      "lane": "J"
    },
    {
      "time": 278.802,
      "duration": 0.007,
      "midi": 51,
      "noteNumber": 51,
      "velocity": 0.72,
      "track": "(unnamed)",
      "channel": 9,
      "lane": "F"
    },
    {
      "time": 278.866,
      "duration": 0.071,
      "midi": 69,
      "noteNumber": 69,
      "velocity": 0.63,
      "track": "(unnamed)",
      "channel": 3,
      "lane": "K"
    },
    {
      "time": 279.03,
      "duration": 0.112,
      "midi": 39,
      "noteNumber": 39,
      "velocity": 0.74,
      "track": "(unnamed)",
      "channel": 2,
      "lane": "D"
    },
    {
      "time": 279.042,
      "duration": 0.007,
      "midi": 40,
      "noteNumber": 40,
      "velocity": 0.53,
      "track": "(unnamed)",
      "channel": 9,
      "lane": "D"
    },
    {
      "time": 279.053,
      "duration": 0.12,
      "midi": 68,
      "noteNumber": 68,
      "velocity": 0.8,
      "track": "(unnamed)",
      "channel": 3,
      "lane": "K"
    },
    {
      "time": 279.161,
      "duration": 0.086,
      "midi": 54,
      "noteNumber": 54,
      "velocity": 0.71,
      "track": "(unnamed)",
      "channel": 2,
      "lane": "J"
    },
    {
      "time": 279.161,
      "duration": 0.041,
      "midi": 58,
      "noteNumber": 58,
      "velocity": 0.68,
      "track": "(unnamed)",
      "channel": 2,
      "lane": "J"
    },
    {
      "time": 279.161,
      "duration": 0.049,
      "midi": 63,
      "noteNumber": 63,
      "velocity": 0.54,
      "track": "(unnamed)",
      "channel": 2,
      "lane": "J"
    },
    {
      "time": 279.161,
      "duration": 0.007,
      "midi": 51,
      "noteNumber": 51,
      "velocity": 0.72,
      "track": "(unnamed)",
      "channel": 9,
      "lane": "F"
    },
    {
      "time": 279.199,
      "duration": 0.172,
      "midi": 66,
      "noteNumber": 66,
      "velocity": 0.85,
      "track": "(unnamed)",
      "channel": 3,
      "lane": "K"
    },
    {
      "time": 279.401,
      "duration": 0.007,
      "midi": 51,
      "noteNumber": 51,
      "velocity": 0.61,
      "track": "(unnamed)",
      "channel": 9,
      "lane": "F"
    },
    {
      "time": 279.521,
      "duration": 0.52,
      "midi": 46,
      "noteNumber": 46,
      "velocity": 0.71,
      "track": "(unnamed)",
      "channel": 2,
      "lane": "F"
    },
    {
      "time": 279.521,
      "duration": 0.007,
      "midi": 40,
      "noteNumber": 40,
      "velocity": 0.53,
      "track": "(unnamed)",
      "channel": 9,
      "lane": "D"
    },
    {
      "time": 279.521,
      "duration": 0.007,
      "midi": 51,
      "noteNumber": 51,
      "velocity": 0.69,
      "track": "(unnamed)",
      "channel": 9,
      "lane": "F"
    },
    {
      "time": 279.521,
      "duration": 0.273,
      "midi": 46,
      "noteNumber": 46,
      "velocity": 0.51,
      "track": "(unnamed)",
      "channel": 1,
      "lane": "F"
    },
    {
      "time": 279.536,
      "duration": 0.314,
      "midi": 58,
      "noteNumber": 58,
      "velocity": 0.54,
      "track": "(unnamed)",
      "channel": 3,
      "lane": "J"
    },
    {
      "time": 279.76,
      "duration": 0.007,
      "midi": 51,
      "noteNumber": 51,
      "velocity": 0.54,
      "track": "(unnamed)",
      "channel": 9,
      "lane": "F"
    },
    {
      "time": 279.805,
      "duration": 0.105,
      "midi": 59,
      "noteNumber": 59,
      "velocity": 0.56,
      "track": "(unnamed)",
      "channel": 3,
      "lane": "J"
    },
    {
      "time": 279.88,
      "duration": 0.12,
      "midi": 53,
      "noteNumber": 53,
      "velocity": 0.57,
      "track": "(unnamed)",
      "channel": 2,
      "lane": "F"
    },
    {
      "time": 279.88,
      "duration": 0.12,
      "midi": 56,
      "noteNumber": 56,
      "velocity": 0.74,
      "track": "(unnamed)",
      "channel": 2,
      "lane": "J"
    },
    {
      "time": 279.88,
      "duration": 0.124,
      "midi": 61,
      "noteNumber": 61,
      "velocity": 0.71,
      "track": "(unnamed)",
      "channel": 2,
      "lane": "J"
    },
    {
      "time": 279.88,
      "duration": 0.007,
      "midi": 51,
      "noteNumber": 51,
      "velocity": 0.83,
      "track": "(unnamed)",
      "channel": 9,
      "lane": "F"
    },
    {
      "time": 279.88,
      "duration": 0.079,
      "midi": 60,
      "noteNumber": 60,
      "velocity": 0.52,
      "track": "(unnamed)",
      "channel": 3,
      "lane": "J"
    },
    {
      "time": 279.88,
      "duration": 0.213,
      "midi": 34,
      "noteNumber": 34,
      "velocity": 0.51,
      "track": "(unnamed)",
      "channel": 1,
      "lane": "D"
    },
    {
      "time": 279.91,
      "duration": 0.12,
      "midi": 61,
      "noteNumber": 61,
      "velocity": 0.77,
      "track": "(unnamed)",
      "channel": 3,
      "lane": "J"
    },
    {
      "time": 280,
      "duration": 0.007,
      "midi": 40,
      "noteNumber": 40,
      "velocity": 0.26,
      "track": "(unnamed)",
      "channel": 9,
      "lane": "D"
    },
    {
      "time": 280.119,
      "duration": 0.007,
      "midi": 40,
      "noteNumber": 40,
      "velocity": 0.5,
      "track": "(unnamed)",
      "channel": 9,
      "lane": "D"
    },
    {
      "time": 280.239,
      "duration": 0.161,
      "midi": 39,
      "noteNumber": 39,
      "velocity": 0.6,
      "track": "(unnamed)",
      "channel": 2,
      "lane": "D"
    },
    {
      "time": 280.239,
      "duration": 0.007,
      "midi": 35,
      "noteNumber": 35,
      "velocity": 0.74,
      "track": "(unnamed)",
      "channel": 9,
      "lane": "D"
    },
    {
      "time": 280.239,
      "duration": 0.007,
      "midi": 51,
      "noteNumber": 51,
      "velocity": 0.72,
      "track": "(unnamed)",
      "channel": 9,
      "lane": "F"
    },
    {
      "time": 280.239,
      "duration": 0.876,
      "midi": 39,
      "noteNumber": 39,
      "velocity": 0.66,
      "track": "(unnamed)",
      "channel": 1,
      "lane": "D"
    },
    {
      "time": 280.273,
      "duration": 1.018,
      "midi": 63,
      "noteNumber": 63,
      "velocity": 0.71,
      "track": "(unnamed)",
      "channel": 3,
      "lane": "J"
    },
    {
      "time": 280.467,
      "duration": 0.056,
      "midi": 54,
      "noteNumber": 54,
      "velocity": 0.71,
      "track": "(unnamed)",
      "channel": 2,
      "lane": "J"
    },
    {
      "time": 280.467,
      "duration": 0.03,
      "midi": 58,
      "noteNumber": 58,
      "velocity": 0.54,
      "track": "(unnamed)",
      "channel": 2,
      "lane": "J"
    },
    {
      "time": 280.467,
      "duration": 0.06,
      "midi": 63,
      "noteNumber": 63,
      "velocity": 0.68,
      "track": "(unnamed)",
      "channel": 2,
      "lane": "J"
    },
    {
      "time": 280.598,
      "duration": 0.007,
      "midi": 51,
      "noteNumber": 51,
      "velocity": 0.72,
      "track": "(unnamed)",
      "channel": 9,
      "lane": "F"
    },
    {
      "time": 280.827,
      "duration": 0.112,
      "midi": 39,
      "noteNumber": 39,
      "velocity": 0.74,
      "track": "(unnamed)",
      "channel": 2,
      "lane": "D"
    },
    {
      "time": 280.838,
      "duration": 0.007,
      "midi": 40,
      "noteNumber": 40,
      "velocity": 0.53,
      "track": "(unnamed)",
      "channel": 9,
      "lane": "D"
    },
    {
      "time": 280.958,
      "duration": 0.086,
      "midi": 54,
      "noteNumber": 54,
      "velocity": 0.71,
      "track": "(unnamed)",
      "channel": 2,
      "lane": "J"
    },
    {
      "time": 280.958,
      "duration": 0.041,
      "midi": 58,
      "noteNumber": 58,
      "velocity": 0.68,
      "track": "(unnamed)",
      "channel": 2,
      "lane": "J"
    },
    {
      "time": 280.958,
      "duration": 0.049,
      "midi": 63,
      "noteNumber": 63,
      "velocity": 0.54,
      "track": "(unnamed)",
      "channel": 2,
      "lane": "J"
    },
    {
      "time": 280.958,
      "duration": 0.007,
      "midi": 51,
      "noteNumber": 51,
      "velocity": 0.72,
      "track": "(unnamed)",
      "channel": 9,
      "lane": "F"
    },
    {
      "time": 281.197,
      "duration": 0.007,
      "midi": 51,
      "noteNumber": 51,
      "velocity": 0.61,
      "track": "(unnamed)",
      "channel": 9,
      "lane": "F"
    },
    {
      "time": 281.317,
      "duration": 0.52,
      "midi": 46,
      "noteNumber": 46,
      "velocity": 0.71,
      "track": "(unnamed)",
      "channel": 2,
      "lane": "F"
    },
    {
      "time": 281.317,
      "duration": 0.007,
      "midi": 40,
      "noteNumber": 40,
      "velocity": 0.53,
      "track": "(unnamed)",
      "channel": 9,
      "lane": "D"
    },
    {
      "time": 281.317,
      "duration": 0.007,
      "midi": 51,
      "noteNumber": 51,
      "velocity": 0.69,
      "track": "(unnamed)",
      "channel": 9,
      "lane": "F"
    },
    {
      "time": 281.317,
      "duration": 0.273,
      "midi": 46,
      "noteNumber": 46,
      "velocity": 0.51,
      "track": "(unnamed)",
      "channel": 1,
      "lane": "F"
    },
    {
      "time": 281.321,
      "duration": 0.138,
      "midi": 65,
      "noteNumber": 65,
      "velocity": 0.8,
      "track": "(unnamed)",
      "channel": 3,
      "lane": "J"
    },
    {
      "time": 281.482,
      "duration": 0.071,
      "midi": 66,
      "noteNumber": 66,
      "velocity": 0.52,
      "track": "(unnamed)",
      "channel": 3,
      "lane": "K"
    },
    {
      "time": 281.549,
      "duration": 0.056,
      "midi": 65,
      "noteNumber": 65,
      "velocity": 0.52,
      "track": "(unnamed)",
      "channel": 3,
      "lane": "J"
    },
    {
      "time": 281.557,
      "duration": 0.007,
      "midi": 51,
      "noteNumber": 51,
      "velocity": 0.54,
      "track": "(unnamed)",
      "channel": 9,
      "lane": "F"
    },
    {
      "time": 281.605,
      "duration": 0.071,
      "midi": 63,
      "noteNumber": 63,
      "velocity": 0.74,
      "track": "(unnamed)",
      "channel": 3,
      "lane": "J"
    },
    {
      "time": 281.676,
      "duration": 0.12,
      "midi": 53,
      "noteNumber": 53,
      "velocity": 0.57,
      "track": "(unnamed)",
      "channel": 2,
      "lane": "F"
    },
    {
      "time": 281.676,
      "duration": 0.12,
      "midi": 56,
      "noteNumber": 56,
      "velocity": 0.74,
      "track": "(unnamed)",
      "channel": 2,
      "lane": "J"
    },
    {
      "time": 281.676,
      "duration": 0.124,
      "midi": 61,
      "noteNumber": 61,
      "velocity": 0.71,
      "track": "(unnamed)",
      "channel": 2,
      "lane": "J"
    },
    {
      "time": 281.676,
      "duration": 0.007,
      "midi": 51,
      "noteNumber": 51,
      "velocity": 0.83,
      "track": "(unnamed)",
      "channel": 9,
      "lane": "F"
    },
    {
      "time": 281.676,
      "duration": 0.213,
      "midi": 34,
      "noteNumber": 34,
      "velocity": 0.51,
      "track": "(unnamed)",
      "channel": 1,
      "lane": "D"
    },
    {
      "time": 281.684,
      "duration": 0.367,
      "midi": 61,
      "noteNumber": 61,
      "velocity": 0.63,
      "track": "(unnamed)",
      "channel": 3,
      "lane": "J"
    },
    {
      "time": 281.796,
      "duration": 0.007,
      "midi": 40,
      "noteNumber": 40,
      "velocity": 0.26,
      "track": "(unnamed)",
      "channel": 9,
      "lane": "D"
    },
    {
      "time": 281.916,
      "duration": 0.007,
      "midi": 40,
      "noteNumber": 40,
      "velocity": 0.5,
      "track": "(unnamed)",
      "channel": 9,
      "lane": "D"
    },
    {
      "time": 282.036,
      "duration": 0.161,
      "midi": 39,
      "noteNumber": 39,
      "velocity": 0.6,
      "track": "(unnamed)",
      "channel": 2,
      "lane": "D"
    },
    {
      "time": 282.036,
      "duration": 0.007,
      "midi": 35,
      "noteNumber": 35,
      "velocity": 0.74,
      "track": "(unnamed)",
      "channel": 9,
      "lane": "D"
    },
    {
      "time": 282.036,
      "duration": 0.007,
      "midi": 51,
      "noteNumber": 51,
      "velocity": 0.72,
      "track": "(unnamed)",
      "channel": 9,
      "lane": "F"
    },
    {
      "time": 282.036,
      "duration": 0.876,
      "midi": 39,
      "noteNumber": 39,
      "velocity": 0.66,
      "track": "(unnamed)",
      "channel": 1,
      "lane": "D"
    },
    {
      "time": 282.058,
      "duration": 1.037,
      "midi": 63,
      "noteNumber": 63,
      "velocity": 0.6,
      "track": "(unnamed)",
      "channel": 3,
      "lane": "J"
    },
    {
      "time": 282.264,
      "duration": 0.056,
      "midi": 54,
      "noteNumber": 54,
      "velocity": 0.71,
      "track": "(unnamed)",
      "channel": 2,
      "lane": "J"
    },
    {
      "time": 282.264,
      "duration": 0.03,
      "midi": 58,
      "noteNumber": 58,
      "velocity": 0.54,
      "track": "(unnamed)",
      "channel": 2,
      "lane": "J"
    },
    {
      "time": 282.264,
      "duration": 0.06,
      "midi": 63,
      "noteNumber": 63,
      "velocity": 0.68,
      "track": "(unnamed)",
      "channel": 2,
      "lane": "J"
    },
    {
      "time": 282.395,
      "duration": 0.007,
      "midi": 51,
      "noteNumber": 51,
      "velocity": 0.72,
      "track": "(unnamed)",
      "channel": 9,
      "lane": "F"
    },
    {
      "time": 282.623,
      "duration": 0.112,
      "midi": 39,
      "noteNumber": 39,
      "velocity": 0.74,
      "track": "(unnamed)",
      "channel": 2,
      "lane": "D"
    },
    {
      "time": 282.634,
      "duration": 0.007,
      "midi": 40,
      "noteNumber": 40,
      "velocity": 0.53,
      "track": "(unnamed)",
      "channel": 9,
      "lane": "D"
    },
    {
      "time": 282.754,
      "duration": 0.086,
      "midi": 54,
      "noteNumber": 54,
      "velocity": 0.71,
      "track": "(unnamed)",
      "channel": 2,
      "lane": "J"
    },
    {
      "time": 282.754,
      "duration": 0.041,
      "midi": 58,
      "noteNumber": 58,
      "velocity": 0.68,
      "track": "(unnamed)",
      "channel": 2,
      "lane": "J"
    },
    {
      "time": 282.754,
      "duration": 0.049,
      "midi": 63,
      "noteNumber": 63,
      "velocity": 0.54,
      "track": "(unnamed)",
      "channel": 2,
      "lane": "J"
    },
    {
      "time": 282.754,
      "duration": 0.007,
      "midi": 51,
      "noteNumber": 51,
      "velocity": 0.72,
      "track": "(unnamed)",
      "channel": 9,
      "lane": "F"
    },
    {
      "time": 282.994,
      "duration": 0.007,
      "midi": 51,
      "noteNumber": 51,
      "velocity": 0.61,
      "track": "(unnamed)",
      "channel": 9,
      "lane": "F"
    },
    {
      "time": 283.113,
      "duration": 0.52,
      "midi": 46,
      "noteNumber": 46,
      "velocity": 0.71,
      "track": "(unnamed)",
      "channel": 2,
      "lane": "F"
    },
    {
      "time": 283.113,
      "duration": 0.007,
      "midi": 40,
      "noteNumber": 40,
      "velocity": 0.53,
      "track": "(unnamed)",
      "channel": 9,
      "lane": "D"
    },
    {
      "time": 283.113,
      "duration": 0.007,
      "midi": 51,
      "noteNumber": 51,
      "velocity": 0.69,
      "track": "(unnamed)",
      "channel": 9,
      "lane": "F"
    },
    {
      "time": 283.113,
      "duration": 0.273,
      "midi": 46,
      "noteNumber": 46,
      "velocity": 0.51,
      "track": "(unnamed)",
      "channel": 1,
      "lane": "F"
    },
    {
      "time": 283.121,
      "duration": 0.138,
      "midi": 61,
      "noteNumber": 61,
      "velocity": 0.71,
      "track": "(unnamed)",
      "channel": 3,
      "lane": "J"
    },
    {
      "time": 283.312,
      "duration": 0.041,
      "midi": 63,
      "noteNumber": 63,
      "velocity": 0.46,
      "track": "(unnamed)",
      "channel": 3,
      "lane": "J"
    },
    {
      "time": 283.33,
      "duration": 0.075,
      "midi": 61,
      "noteNumber": 61,
      "velocity": 0.52,
      "track": "(unnamed)",
      "channel": 3,
      "lane": "J"
    },
    {
      "time": 283.353,
      "duration": 0.007,
      "midi": 51,
      "noteNumber": 51,
      "velocity": 0.54,
      "track": "(unnamed)",
      "channel": 9,
      "lane": "F"
    },
    {
      "time": 283.402,
      "duration": 0.09,
      "midi": 58,
      "noteNumber": 58,
      "velocity": 0.74,
      "track": "(unnamed)",
      "channel": 3,
      "lane": "J"
    },
    {
      "time": 283.473,
      "duration": 0.12,
      "midi": 53,
      "noteNumber": 53,
      "velocity": 0.57,
      "track": "(unnamed)",
      "channel": 2,
      "lane": "F"
    },
    {
      "time": 283.473,
      "duration": 0.12,
      "midi": 56,
      "noteNumber": 56,
      "velocity": 0.74,
      "track": "(unnamed)",
      "channel": 2,
      "lane": "J"
    },
    {
      "time": 283.473,
      "duration": 0.124,
      "midi": 61,
      "noteNumber": 61,
      "velocity": 0.71,
      "track": "(unnamed)",
      "channel": 2,
      "lane": "J"
    },
    {
      "time": 283.473,
      "duration": 0.007,
      "midi": 51,
      "noteNumber": 51,
      "velocity": 0.83,
      "track": "(unnamed)",
      "channel": 9,
      "lane": "F"
    },
    {
      "time": 283.473,
      "duration": 0.213,
      "midi": 34,
      "noteNumber": 34,
      "velocity": 0.51,
      "track": "(unnamed)",
      "channel": 1,
      "lane": "D"
    },
    {
      "time": 283.484,
      "duration": 0.348,
      "midi": 56,
      "noteNumber": 56,
      "velocity": 0.6,
      "track": "(unnamed)",
      "channel": 3,
      "lane": "J"
    },
    {
      "time": 283.592,
      "duration": 0.007,
      "midi": 40,
      "noteNumber": 40,
      "velocity": 0.26,
      "track": "(unnamed)",
      "channel": 9,
      "lane": "D"
    },
    {
      "time": 283.712,
      "duration": 0.007,
      "midi": 40,
      "noteNumber": 40,
      "velocity": 0.5,
      "track": "(unnamed)",
      "channel": 9,
      "lane": "D"
    },
    {
      "time": 283.832,
      "duration": 0.161,
      "midi": 39,
      "noteNumber": 39,
      "velocity": 0.6,
      "track": "(unnamed)",
      "channel": 2,
      "lane": "D"
    },
    {
      "time": 283.832,
      "duration": 0.007,
      "midi": 35,
      "noteNumber": 35,
      "velocity": 0.74,
      "track": "(unnamed)",
      "channel": 9,
      "lane": "D"
    },
    {
      "time": 283.832,
      "duration": 0.007,
      "midi": 51,
      "noteNumber": 51,
      "velocity": 0.72,
      "track": "(unnamed)",
      "channel": 9,
      "lane": "F"
    },
    {
      "time": 283.832,
      "duration": 0.876,
      "midi": 39,
      "noteNumber": 39,
      "velocity": 0.66,
      "track": "(unnamed)",
      "channel": 1,
      "lane": "D"
    },
    {
      "time": 283.866,
      "duration": 0.599,
      "midi": 58,
      "noteNumber": 58,
      "velocity": 0.52,
      "track": "(unnamed)",
      "channel": 3,
      "lane": "J"
    },
    {
      "time": 284.06,
      "duration": 0.056,
      "midi": 54,
      "noteNumber": 54,
      "velocity": 0.71,
      "track": "(unnamed)",
      "channel": 2,
      "lane": "J"
    },
    {
      "time": 284.06,
      "duration": 0.03,
      "midi": 58,
      "noteNumber": 58,
      "velocity": 0.54,
      "track": "(unnamed)",
      "channel": 2,
      "lane": "J"
    },
    {
      "time": 284.06,
      "duration": 0.06,
      "midi": 63,
      "noteNumber": 63,
      "velocity": 0.68,
      "track": "(unnamed)",
      "channel": 2,
      "lane": "J"
    },
    {
      "time": 284.191,
      "duration": 0.007,
      "midi": 51,
      "noteNumber": 51,
      "velocity": 0.72,
      "track": "(unnamed)",
      "channel": 9,
      "lane": "F"
    },
    {
      "time": 284.42,
      "duration": 0.112,
      "midi": 39,
      "noteNumber": 39,
      "velocity": 0.74,
      "track": "(unnamed)",
      "channel": 2,
      "lane": "D"
    },
    {
      "time": 284.431,
      "duration": 0.007,
      "midi": 40,
      "noteNumber": 40,
      "velocity": 0.53,
      "track": "(unnamed)",
      "channel": 9,
      "lane": "D"
    },
    {
      "time": 284.551,
      "duration": 0.086,
      "midi": 54,
      "noteNumber": 54,
      "velocity": 0.71,
      "track": "(unnamed)",
      "channel": 2,
      "lane": "J"
    },
    {
      "time": 284.551,
      "duration": 0.041,
      "midi": 58,
      "noteNumber": 58,
      "velocity": 0.68,
      "track": "(unnamed)",
      "channel": 2,
      "lane": "J"
    },
    {
      "time": 284.551,
      "duration": 0.049,
      "midi": 63,
      "noteNumber": 63,
      "velocity": 0.54,
      "track": "(unnamed)",
      "channel": 2,
      "lane": "J"
    },
    {
      "time": 284.551,
      "duration": 0.007,
      "midi": 51,
      "noteNumber": 51,
      "velocity": 0.72,
      "track": "(unnamed)",
      "channel": 9,
      "lane": "F"
    },
    {
      "time": 284.79,
      "duration": 0.007,
      "midi": 51,
      "noteNumber": 51,
      "velocity": 0.61,
      "track": "(unnamed)",
      "channel": 9,
      "lane": "F"
    },
    {
      "time": 284.91,
      "duration": 0.52,
      "midi": 46,
      "noteNumber": 46,
      "velocity": 0.71,
      "track": "(unnamed)",
      "channel": 2,
      "lane": "F"
    },
    {
      "time": 284.91,
      "duration": 0.007,
      "midi": 40,
      "noteNumber": 40,
      "velocity": 0.53,
      "track": "(unnamed)",
      "channel": 9,
      "lane": "D"
    },
    {
      "time": 284.91,
      "duration": 0.007,
      "midi": 51,
      "noteNumber": 51,
      "velocity": 0.69,
      "track": "(unnamed)",
      "channel": 9,
      "lane": "F"
    },
    {
      "time": 284.91,
      "duration": 0.273,
      "midi": 46,
      "noteNumber": 46,
      "velocity": 0.51,
      "track": "(unnamed)",
      "channel": 1,
      "lane": "F"
    },
    {
      "time": 285.149,
      "duration": 0.007,
      "midi": 51,
      "noteNumber": 51,
      "velocity": 0.54,
      "track": "(unnamed)",
      "channel": 9,
      "lane": "F"
    },
    {
      "time": 285.269,
      "duration": 0.12,
      "midi": 53,
      "noteNumber": 53,
      "velocity": 0.57,
      "track": "(unnamed)",
      "channel": 2,
      "lane": "F"
    },
    {
      "time": 285.269,
      "duration": 0.12,
      "midi": 56,
      "noteNumber": 56,
      "velocity": 0.74,
      "track": "(unnamed)",
      "channel": 2,
      "lane": "J"
    },
    {
      "time": 285.269,
      "duration": 0.124,
      "midi": 61,
      "noteNumber": 61,
      "velocity": 0.71,
      "track": "(unnamed)",
      "channel": 2,
      "lane": "J"
    },
    {
      "time": 285.269,
      "duration": 0.007,
      "midi": 51,
      "noteNumber": 51,
      "velocity": 0.83,
      "track": "(unnamed)",
      "channel": 9,
      "lane": "F"
    },
    {
      "time": 285.269,
      "duration": 0.213,
      "midi": 34,
      "noteNumber": 34,
      "velocity": 0.51,
      "track": "(unnamed)",
      "channel": 1,
      "lane": "D"
    },
    {
      "time": 285.389,
      "duration": 0.007,
      "midi": 40,
      "noteNumber": 40,
      "velocity": 0.26,
      "track": "(unnamed)",
      "channel": 9,
      "lane": "D"
    },
    {
      "time": 285.509,
      "duration": 0.007,
      "midi": 40,
      "noteNumber": 40,
      "velocity": 0.5,
      "track": "(unnamed)",
      "channel": 9,
      "lane": "D"
    },
    {
      "time": 285.628,
      "duration": 0.554,
      "midi": 47,
      "noteNumber": 47,
      "velocity": 0.54,
      "track": "(unnamed)",
      "channel": 2,
      "lane": "F"
    },
    {
      "time": 285.628,
      "duration": 0.007,
      "midi": 35,
      "noteNumber": 35,
      "velocity": 0.74,
      "track": "(unnamed)",
      "channel": 9,
      "lane": "D"
    },
    {
      "time": 285.628,
      "duration": 0.007,
      "midi": 51,
      "noteNumber": 51,
      "velocity": 0.72,
      "track": "(unnamed)",
      "channel": 9,
      "lane": "F"
    },
    {
      "time": 285.628,
      "duration": 0.812,
      "midi": 35,
      "noteNumber": 35,
      "velocity": 0.69,
      "track": "(unnamed)",
      "channel": 1,
      "lane": "D"
    },
    {
      "time": 285.67,
      "duration": 0.165,
      "midi": 75,
      "noteNumber": 75,
      "velocity": 0.9,
      "track": "(unnamed)",
      "channel": 3,
      "lane": "K"
    },
    {
      "time": 285.857,
      "duration": 0.094,
      "midi": 54,
      "noteNumber": 54,
      "velocity": 0.66,
      "track": "(unnamed)",
      "channel": 2,
      "lane": "J"
    },
    {
      "time": 285.857,
      "duration": 0.056,
      "midi": 59,
      "noteNumber": 59,
      "velocity": 0.54,
      "track": "(unnamed)",
      "channel": 2,
      "lane": "J"
    },
    {
      "time": 285.857,
      "duration": 0.06,
      "midi": 61,
      "noteNumber": 61,
      "velocity": 0.54,
      "track": "(unnamed)",
      "channel": 2,
      "lane": "J"
    },
    {
      "time": 285.857,
      "duration": 0.064,
      "midi": 63,
      "noteNumber": 63,
      "velocity": 0.54,
      "track": "(unnamed)",
      "channel": 2,
      "lane": "J"
    },
    {
      "time": 285.902,
      "duration": 0.135,
      "midi": 78,
      "noteNumber": 78,
      "velocity": 0.9,
      "track": "(unnamed)",
      "channel": 3,
      "lane": "K"
    },
    {
      "time": 285.988,
      "duration": 0.007,
      "midi": 51,
      "noteNumber": 51,
      "velocity": 0.72,
      "track": "(unnamed)",
      "channel": 9,
      "lane": "F"
    },
    {
      "time": 286.212,
      "duration": 0.127,
      "midi": 75,
      "noteNumber": 75,
      "velocity": 0.99,
      "track": "(unnamed)",
      "channel": 3,
      "lane": "K"
    },
    {
      "time": 286.216,
      "duration": 0.49,
      "midi": 51,
      "noteNumber": 51,
      "velocity": 0.59,
      "track": "(unnamed)",
      "channel": 2,
      "lane": "F"
    },
    {
      "time": 286.227,
      "duration": 0.007,
      "midi": 40,
      "noteNumber": 40,
      "velocity": 0.53,
      "track": "(unnamed)",
      "channel": 9,
      "lane": "D"
    },
    {
      "time": 286.347,
      "duration": 0.007,
      "midi": 51,
      "noteNumber": 51,
      "velocity": 0.72,
      "track": "(unnamed)",
      "channel": 9,
      "lane": "F"
    },
    {
      "time": 286.388,
      "duration": 0.183,
      "midi": 71,
      "noteNumber": 71,
      "velocity": 0.9,
      "track": "(unnamed)",
      "channel": 3,
      "lane": "K"
    },
    {
      "time": 286.586,
      "duration": 0.007,
      "midi": 51,
      "noteNumber": 51,
      "velocity": 0.61,
      "track": "(unnamed)",
      "channel": 9,
      "lane": "F"
    },
    {
      "time": 286.706,
      "duration": 0.466,
      "midi": 53,
      "noteNumber": 53,
      "velocity": 0.66,
      "track": "(unnamed)",
      "channel": 2,
      "lane": "F"
    },
    {
      "time": 286.706,
      "duration": 0.007,
      "midi": 40,
      "noteNumber": 40,
      "velocity": 0.53,
      "track": "(unnamed)",
      "channel": 9,
      "lane": "D"
    },
    {
      "time": 286.706,
      "duration": 0.007,
      "midi": 51,
      "noteNumber": 51,
      "velocity": 0.69,
      "track": "(unnamed)",
      "channel": 9,
      "lane": "F"
    },
    {
      "time": 286.706,
      "duration": 0.277,
      "midi": 35,
      "noteNumber": 35,
      "velocity": 0.66,
      "track": "(unnamed)",
      "channel": 1,
      "lane": "D"
    },
    {
      "time": 286.74,
      "duration": 0.12,
      "midi": 68,
      "noteNumber": 68,
      "velocity": 0.54,
      "track": "(unnamed)",
      "channel": 3,
      "lane": "K"
    },
    {
      "time": 286.912,
      "duration": 0.135,
      "midi": 70,
      "noteNumber": 70,
      "velocity": 0.6,
      "track": "(unnamed)",
      "channel": 3,
      "lane": "K"
    },
    {
      "time": 286.946,
      "duration": 0.007,
      "midi": 51,
      "noteNumber": 51,
      "velocity": 0.54,
      "track": "(unnamed)",
      "channel": 9,
      "lane": "F"
    },
    {
      "time": 287.066,
      "duration": 0.086,
      "midi": 59,
      "noteNumber": 59,
      "velocity": 0.54,
      "track": "(unnamed)",
      "channel": 2,
      "lane": "J"
    },
    {
      "time": 287.066,
      "duration": 0.105,
      "midi": 63,
      "noteNumber": 63,
      "velocity": 0.45,
      "track": "(unnamed)",
      "channel": 2,
      "lane": "J"
    },
    {
      "time": 287.066,
      "duration": 0.007,
      "midi": 51,
      "noteNumber": 51,
      "velocity": 0.83,
      "track": "(unnamed)",
      "channel": 9,
      "lane": "F"
    },
    {
      "time": 287.066,
      "duration": 0.277,
      "midi": 35,
      "noteNumber": 35,
      "velocity": 0.62,
      "track": "(unnamed)",
      "channel": 1,
      "lane": "D"
    },
    {
      "time": 287.088,
      "duration": 0.15,
      "midi": 71,
      "noteNumber": 71,
      "velocity": 0.71,
      "track": "(unnamed)",
      "channel": 3,
      "lane": "K"
    },
    {
      "time": 287.185,
      "duration": 0.007,
      "midi": 40,
      "noteNumber": 40,
      "velocity": 0.26,
      "track": "(unnamed)",
      "channel": 9,
      "lane": "D"
    },
    {
      "time": 287.271,
      "duration": 0.127,
      "midi": 72,
      "noteNumber": 72,
      "velocity": 0.71,
      "track": "(unnamed)",
      "channel": 3,
      "lane": "K"
    },
    {
      "time": 287.305,
      "duration": 0.007,
      "midi": 40,
      "noteNumber": 40,
      "velocity": 0.5,
      "track": "(unnamed)",
      "channel": 9,
      "lane": "D"
    },
    {
      "time": 287.425,
      "duration": 0.689,
      "midi": 46,
      "noteNumber": 46,
      "velocity": 0.66,
      "track": "(unnamed)",
      "channel": 2,
      "lane": "F"
    },
    {
      "time": 287.425,
      "duration": 0.007,
      "midi": 35,
      "noteNumber": 35,
      "velocity": 0.74,
      "track": "(unnamed)",
      "channel": 9,
      "lane": "D"
    },
    {
      "time": 287.425,
      "duration": 0.007,
      "midi": 51,
      "noteNumber": 51,
      "velocity": 0.72,
      "track": "(unnamed)",
      "channel": 9,
      "lane": "F"
    },
    {
      "time": 287.425,
      "duration": 0.921,
      "midi": 34,
      "noteNumber": 34,
      "velocity": 0.62,
      "track": "(unnamed)",
      "channel": 1,
      "lane": "D"
    },
    {
      "time": 287.458,
      "duration": 0.176,
      "midi": 73,
      "noteNumber": 73,
      "velocity": 0.94,
      "track": "(unnamed)",
      "channel": 3,
      "lane": "K"
    },
    {
      "time": 287.653,
      "duration": 0.101,
      "midi": 53,
      "noteNumber": 53,
      "velocity": 0.49,
      "track": "(unnamed)",
      "channel": 2,
      "lane": "F"
    },
    {
      "time": 287.653,
      "duration": 0.067,
      "midi": 58,
      "noteNumber": 58,
      "velocity": 0.52,
      "track": "(unnamed)",
      "channel": 2,
      "lane": "J"
    },
    {
      "time": 287.653,
      "duration": 0.094,
      "midi": 61,
      "noteNumber": 61,
      "velocity": 0.62,
      "track": "(unnamed)",
      "channel": 2,
      "lane": "J"
    },
    {
      "time": 287.732,
      "duration": 0.109,
      "midi": 77,
      "noteNumber": 77,
      "velocity": 0.9,
      "track": "(unnamed)",
      "channel": 3,
      "lane": "K"
    },
    {
      "time": 287.784,
      "duration": 0.007,
      "midi": 51,
      "noteNumber": 51,
      "velocity": 0.72,
      "track": "(unnamed)",
      "channel": 9,
      "lane": "F"
    },
    {
      "time": 288.012,
      "duration": 0.494,
      "midi": 49,
      "noteNumber": 49,
      "velocity": 0.69,
      "track": "(unnamed)",
      "channel": 2,
      "lane": "F"
    },
    {
      "time": 288.024,
      "duration": 0.007,
      "midi": 40,
      "noteNumber": 40,
      "velocity": 0.53,
      "track": "(unnamed)",
      "channel": 9,
      "lane": "D"
    },
    {
      "time": 288.031,
      "duration": 0.142,
      "midi": 73,
      "noteNumber": 73,
      "velocity": 0.99,
      "track": "(unnamed)",
      "channel": 3,
      "lane": "K"
    },
    {
      "time": 288.143,
      "duration": 0.007,
      "midi": 51,
      "noteNumber": 51,
      "velocity": 0.72,
      "track": "(unnamed)",
      "channel": 9,
      "lane": "F"
    },
    {
      "time": 288.226,
      "duration": 0.21,
      "midi": 70,
      "noteNumber": 70,
      "velocity": 0.8,
      "track": "(unnamed)",
      "channel": 3,
      "lane": "K"
    },
    {
      "time": 288.383,
      "duration": 0.007,
      "midi": 51,
      "noteNumber": 51,
      "velocity": 0.61,
      "track": "(unnamed)",
      "channel": 9,
      "lane": "F"
    },
    {
      "time": 288.503,
      "duration": 0.468,
      "midi": 51,
      "noteNumber": 51,
      "velocity": 0.66,
      "track": "(unnamed)",
      "channel": 2,
      "lane": "F"
    },
    {
      "time": 288.503,
      "duration": 0.007,
      "midi": 40,
      "noteNumber": 40,
      "velocity": 0.53,
      "track": "(unnamed)",
      "channel": 9,
      "lane": "D"
    },
    {
      "time": 288.503,
      "duration": 0.007,
      "midi": 51,
      "noteNumber": 51,
      "velocity": 0.69,
      "track": "(unnamed)",
      "channel": 9,
      "lane": "F"
    },
    {
      "time": 288.503,
      "duration": 0.266,
      "midi": 34,
      "noteNumber": 34,
      "velocity": 0.62,
      "track": "(unnamed)",
      "channel": 1,
      "lane": "D"
    },
    {
      "time": 288.581,
      "duration": 0.15,
      "midi": 66,
      "noteNumber": 66,
      "velocity": 0.4,
      "track": "(unnamed)",
      "channel": 3,
      "lane": "K"
    },
    {
      "time": 288.742,
      "duration": 0.007,
      "midi": 51,
      "noteNumber": 51,
      "velocity": 0.54,
      "track": "(unnamed)",
      "channel": 9,
      "lane": "F"
    },
    {
      "time": 288.757,
      "duration": 0.142,
      "midi": 68,
      "noteNumber": 68,
      "velocity": 0.52,
      "track": "(unnamed)",
      "channel": 3,
      "lane": "K"
    },
    {
      "time": 288.862,
      "duration": 0.15,
      "midi": 54,
      "noteNumber": 54,
      "velocity": 0.43,
      "track": "(unnamed)",
      "channel": 2,
      "lane": "J"
    },
    {
      "time": 288.862,
      "duration": 0.127,
      "midi": 58,
      "noteNumber": 58,
      "velocity": 0.47,
      "track": "(unnamed)",
      "channel": 2,
      "lane": "J"
    },
    {
      "time": 288.862,
      "duration": 0.131,
      "midi": 63,
      "noteNumber": 63,
      "velocity": 0.5,
      "track": "(unnamed)",
      "channel": 2,
      "lane": "J"
    },
    {
      "time": 288.862,
      "duration": 0.007,
      "midi": 51,
      "noteNumber": 51,
      "velocity": 0.83,
      "track": "(unnamed)",
      "channel": 9,
      "lane": "F"
    },
    {
      "time": 288.862,
      "duration": 0.254,
      "midi": 34,
      "noteNumber": 34,
      "velocity": 0.66,
      "track": "(unnamed)",
      "channel": 1,
      "lane": "D"
    },
    {
      "time": 288.907,
      "duration": 0.124,
      "midi": 69,
      "noteNumber": 69,
      "velocity": 0.68,
      "track": "(unnamed)",
      "channel": 3,
      "lane": "K"
    },
    {
      "time": 288.982,
      "duration": 0.007,
      "midi": 40,
      "noteNumber": 40,
      "velocity": 0.26,
      "track": "(unnamed)",
      "channel": 9,
      "lane": "D"
    },
    {
      "time": 289.068,
      "duration": 0.135,
      "midi": 70,
      "noteNumber": 70,
      "velocity": 0.68,
      "track": "(unnamed)",
      "channel": 3,
      "lane": "K"
    },
    {
      "time": 289.101,
      "duration": 0.007,
      "midi": 40,
      "noteNumber": 40,
      "velocity": 0.5,
      "track": "(unnamed)",
      "channel": 9,
      "lane": "D"
    },
    {
      "time": 289.221,
      "duration": 0.543,
      "midi": 44,
      "noteNumber": 44,
      "velocity": 0.62,
      "track": "(unnamed)",
      "channel": 2,
      "lane": "F"
    },
    {
      "time": 289.221,
      "duration": 0.007,
      "midi": 35,
      "noteNumber": 35,
      "velocity": 0.74,
      "track": "(unnamed)",
      "channel": 9,
      "lane": "D"
    },
    {
      "time": 289.221,
      "duration": 0.007,
      "midi": 51,
      "noteNumber": 51,
      "velocity": 0.72,
      "track": "(unnamed)",
      "channel": 9,
      "lane": "F"
    },
    {
      "time": 289.221,
      "duration": 0.853,
      "midi": 32,
      "noteNumber": 32,
      "velocity": 0.62,
      "track": "(unnamed)",
      "channel": 1,
      "lane": "D"
    },
    {
      "time": 289.27,
      "duration": 0.18,
      "midi": 71,
      "noteNumber": 71,
      "velocity": 0.85,
      "track": "(unnamed)",
      "channel": 3,
      "lane": "K"
    },
    {
      "time": 289.449,
      "duration": 0.075,
      "midi": 54,
      "noteNumber": 54,
      "velocity": 0.52,
      "track": "(unnamed)",
      "channel": 2,
      "lane": "J"
    },
    {
      "time": 289.449,
      "duration": 0.052,
      "midi": 59,
      "noteNumber": 59,
      "velocity": 0.62,
      "track": "(unnamed)",
      "channel": 2,
      "lane": "J"
    },
    {
      "time": 289.449,
      "duration": 0.071,
      "midi": 63,
      "noteNumber": 63,
      "velocity": 0.66,
      "track": "(unnamed)",
      "channel": 2,
      "lane": "J"
    },
    {
      "time": 289.502,
      "duration": 0.138,
      "midi": 75,
      "noteNumber": 75,
      "velocity": 0.9,
      "track": "(unnamed)",
      "channel": 3,
      "lane": "K"
    },
    {
      "time": 289.58,
      "duration": 0.007,
      "midi": 51,
      "noteNumber": 51,
      "velocity": 0.72,
      "track": "(unnamed)",
      "channel": 9,
      "lane": "F"
    },
    {
      "time": 289.809,
      "duration": 0.479,
      "midi": 47,
      "noteNumber": 47,
      "velocity": 0.54,
      "track": "(unnamed)",
      "channel": 2,
      "lane": "F"
    },
    {
      "time": 289.816,
      "duration": 0.15,
      "midi": 71,
      "noteNumber": 71,
      "velocity": 0.94,
      "track": "(unnamed)",
      "channel": 3,
      "lane": "K"
    },
    {
      "time": 289.82,
      "duration": 0.007,
      "midi": 40,
      "noteNumber": 40,
      "velocity": 0.53,
      "track": "(unnamed)",
      "channel": 9,
      "lane": "D"
    },
    {
      "time": 289.94,
      "duration": 0.007,
      "midi": 51,
      "noteNumber": 51,
      "velocity": 0.72,
      "track": "(unnamed)",
      "channel": 9,
      "lane": "F"
    },
    {
      "time": 290.007,
      "duration": 0.206,
      "midi": 68,
      "noteNumber": 68,
      "velocity": 0.74,
      "track": "(unnamed)",
      "channel": 3,
      "lane": "K"
    },
    {
      "time": 290.179,
      "duration": 0.007,
      "midi": 51,
      "noteNumber": 51,
      "velocity": 0.61,
      "track": "(unnamed)",
      "channel": 9,
      "lane": "F"
    },
    {
      "time": 290.299,
      "duration": 0.561,
      "midi": 49,
      "noteNumber": 49,
      "velocity": 0.75,
      "track": "(unnamed)",
      "channel": 2,
      "lane": "F"
    },
    {
      "time": 290.299,
      "duration": 0.007,
      "midi": 40,
      "noteNumber": 40,
      "velocity": 0.53,
      "track": "(unnamed)",
      "channel": 9,
      "lane": "D"
    },
    {
      "time": 290.299,
      "duration": 0.007,
      "midi": 51,
      "noteNumber": 51,
      "velocity": 0.69,
      "track": "(unnamed)",
      "channel": 9,
      "lane": "F"
    },
    {
      "time": 290.299,
      "duration": 0.243,
      "midi": 32,
      "noteNumber": 32,
      "velocity": 0.69,
      "track": "(unnamed)",
      "channel": 1,
      "lane": "D"
    },
    {
      "time": 290.333,
      "duration": 0.142,
      "midi": 65,
      "noteNumber": 65,
      "velocity": 0.5,
      "track": "(unnamed)",
      "channel": 3,
      "lane": "J"
    },
    {
      "time": 290.535,
      "duration": 0.12,
      "midi": 66,
      "noteNumber": 66,
      "velocity": 0.54,
      "track": "(unnamed)",
      "channel": 3,
      "lane": "K"
    },
    {
      "time": 290.539,
      "duration": 0.007,
      "midi": 51,
      "noteNumber": 51,
      "velocity": 0.54,
      "track": "(unnamed)",
      "channel": 9,
      "lane": "F"
    },
    {
      "time": 290.658,
      "duration": 0.09,
      "midi": 56,
      "noteNumber": 56,
      "velocity": 0.52,
      "track": "(unnamed)",
      "channel": 2,
      "lane": "J"
    },
    {
      "time": 290.658,
      "duration": 0.067,
      "midi": 59,
      "noteNumber": 59,
      "velocity": 0.55,
      "track": "(unnamed)",
      "channel": 2,
      "lane": "J"
    },
    {
      "time": 290.658,
      "duration": 0.071,
      "midi": 61,
      "noteNumber": 61,
      "velocity": 0.5,
      "track": "(unnamed)",
      "channel": 2,
      "lane": "J"
    },
    {
      "time": 290.658,
      "duration": 0.007,
      "midi": 51,
      "noteNumber": 51,
      "velocity": 0.83,
      "track": "(unnamed)",
      "channel": 9,
      "lane": "F"
    },
    {
      "time": 290.658,
      "duration": 0.284,
      "midi": 32,
      "noteNumber": 32,
      "velocity": 0.74,
      "track": "(unnamed)",
      "channel": 1,
      "lane": "D"
    },
    {
      "time": 290.707,
      "duration": 0.138,
      "midi": 68,
      "noteNumber": 68,
      "velocity": 0.46,
      "track": "(unnamed)",
      "channel": 3,
      "lane": "K"
    },
    {
      "time": 290.778,
      "duration": 0.007,
      "midi": 40,
      "noteNumber": 40,
      "velocity": 0.26,
      "track": "(unnamed)",
      "channel": 9,
      "lane": "D"
    },
    {
      "time": 290.89,
      "duration": 0.109,
      "midi": 69,
      "noteNumber": 69,
      "velocity": 0.71,
      "track": "(unnamed)",
      "channel": 3,
      "lane": "K"
    },
    {
      "time": 290.898,
      "duration": 0.007,
      "midi": 40,
      "noteNumber": 40,
      "velocity": 0.5,
      "track": "(unnamed)",
      "channel": 9,
      "lane": "D"
    },
    {
      "time": 291.018,
      "duration": 0.479,
      "midi": 42,
      "noteNumber": 42,
      "velocity": 0.75,
      "track": "(unnamed)",
      "channel": 2,
      "lane": "F"
    },
    {
      "time": 291.018,
      "duration": 0.007,
      "midi": 35,
      "noteNumber": 35,
      "velocity": 0.74,
      "track": "(unnamed)",
      "channel": 9,
      "lane": "D"
    },
    {
      "time": 291.018,
      "duration": 0.007,
      "midi": 51,
      "noteNumber": 51,
      "velocity": 0.72,
      "track": "(unnamed)",
      "channel": 9,
      "lane": "F"
    },
    {
      "time": 291.018,
      "duration": 0.966,
      "midi": 30,
      "noteNumber": 30,
      "velocity": 0.66,
      "track": "(unnamed)",
      "channel": 1,
      "lane": "D"
    },
    {
      "time": 291.044,
      "duration": 0.153,
      "midi": 70,
      "noteNumber": 70,
      "velocity": 0.85,
      "track": "(unnamed)",
      "channel": 3,
      "lane": "K"
    },
    {
      "time": 291.246,
      "duration": 0.052,
      "midi": 58,
      "noteNumber": 58,
      "velocity": 0.42,
      "track": "(unnamed)",
      "channel": 2,
      "lane": "J"
    },
    {
      "time": 291.246,
      "duration": 0.067,
      "midi": 61,
      "noteNumber": 61,
      "velocity": 0.52,
      "track": "(unnamed)",
      "channel": 2,
      "lane": "J"
    },
    {
      "time": 291.246,
      "duration": 0.086,
      "midi": 66,
      "noteNumber": 66,
      "velocity": 0.54,
      "track": "(unnamed)",
      "channel": 2,
      "lane": "K"
    },
    {
      "time": 291.253,
      "duration": 0.097,
      "midi": 69,
      "noteNumber": 69,
      "velocity": 0.43,
      "track": "(unnamed)",
      "channel": 3,
      "lane": "K"
    },
    {
      "time": 291.377,
      "duration": 0.007,
      "midi": 51,
      "noteNumber": 51,
      "velocity": 0.72,
      "track": "(unnamed)",
      "channel": 9,
      "lane": "F"
    },
    {
      "time": 291.414,
      "duration": 0.142,
      "midi": 70,
      "noteNumber": 70,
      "velocity": 0.56,
      "track": "(unnamed)",
      "channel": 3,
      "lane": "K"
    },
    {
      "time": 291.605,
      "duration": 0.513,
      "midi": 42,
      "noteNumber": 42,
      "velocity": 0.69,
      "track": "(unnamed)",
      "channel": 2,
      "lane": "F"
    },
    {
      "time": 291.613,
      "duration": 0.116,
      "midi": 71,
      "noteNumber": 71,
      "velocity": 0.54,
      "track": "(unnamed)",
      "channel": 3,
      "lane": "K"
    },
    {
      "time": 291.616,
      "duration": 0.007,
      "midi": 40,
      "noteNumber": 40,
      "velocity": 0.53,
      "track": "(unnamed)",
      "channel": 9,
      "lane": "D"
    },
    {
      "time": 291.736,
      "duration": 0.007,
      "midi": 51,
      "noteNumber": 51,
      "velocity": 0.72,
      "track": "(unnamed)",
      "channel": 9,
      "lane": "F"
    },
    {
      "time": 291.789,
      "duration": 0.187,
      "midi": 73,
      "noteNumber": 73,
      "velocity": 0.9,
      "track": "(unnamed)",
      "channel": 3,
      "lane": "K"
    },
    {
      "time": 291.976,
      "duration": 0.007,
      "midi": 51,
      "noteNumber": 51,
      "velocity": 0.61,
      "track": "(unnamed)",
      "channel": 9,
      "lane": "F"
    },
    {
      "time": 292.095,
      "duration": 0.599,
      "midi": 46,
      "noteNumber": 46,
      "velocity": 0.66,
      "track": "(unnamed)",
      "channel": 2,
      "lane": "F"
    },
    {
      "time": 292.095,
      "duration": 0.007,
      "midi": 40,
      "noteNumber": 40,
      "velocity": 0.53,
      "track": "(unnamed)",
      "channel": 9,
      "lane": "D"
    },
    {
      "time": 292.095,
      "duration": 0.007,
      "midi": 51,
      "noteNumber": 51,
      "velocity": 0.69,
      "track": "(unnamed)",
      "channel": 9,
      "lane": "F"
    },
    {
      "time": 292.095,
      "duration": 0.24,
      "midi": 30,
      "noteNumber": 30,
      "velocity": 0.51,
      "track": "(unnamed)",
      "channel": 1,
      "lane": "D"
    },
    {
      "time": 292.159,
      "duration": 0.15,
      "midi": 73,
      "noteNumber": 73,
      "velocity": 0.9,
      "track": "(unnamed)",
      "channel": 3,
      "lane": "K"
    },
    {
      "time": 292.335,
      "duration": 0.007,
      "midi": 51,
      "noteNumber": 51,
      "velocity": 0.54,
      "track": "(unnamed)",
      "channel": 9,
      "lane": "F"
    },
    {
      "time": 292.361,
      "duration": 0.12,
      "midi": 72,
      "noteNumber": 72,
      "velocity": 0.54,
      "track": "(unnamed)",
      "channel": 3,
      "lane": "K"
    },
    {
      "time": 292.455,
      "duration": 0.064,
      "midi": 58,
      "noteNumber": 58,
      "velocity": 0.49,
      "track": "(unnamed)",
      "channel": 2,
      "lane": "J"
    },
    {
      "time": 292.455,
      "duration": 0.079,
      "midi": 61,
      "noteNumber": 61,
      "velocity": 0.5,
      "track": "(unnamed)",
      "channel": 2,
      "lane": "J"
    },
    {
      "time": 292.455,
      "duration": 0.082,
      "midi": 66,
      "noteNumber": 66,
      "velocity": 0.46,
      "track": "(unnamed)",
      "channel": 2,
      "lane": "K"
    },
    {
      "time": 292.455,
      "duration": 0.007,
      "midi": 51,
      "noteNumber": 51,
      "velocity": 0.83,
      "track": "(unnamed)",
      "channel": 9,
      "lane": "F"
    },
    {
      "time": 292.455,
      "duration": 0.288,
      "midi": 30,
      "noteNumber": 30,
      "velocity": 0.62,
      "track": "(unnamed)",
      "channel": 1,
      "lane": "D"
    },
    {
      "time": 292.548,
      "duration": 0.138,
      "midi": 73,
      "noteNumber": 73,
      "velocity": 0.49,
      "track": "(unnamed)",
      "channel": 3,
      "lane": "K"
    },
    {
      "time": 292.574,
      "duration": 0.007,
      "midi": 40,
      "noteNumber": 40,
      "velocity": 0.26,
      "track": "(unnamed)",
      "channel": 9,
      "lane": "D"
    },
    {
      "time": 292.694,
      "duration": 0.007,
      "midi": 40,
      "noteNumber": 40,
      "velocity": 0.5,
      "track": "(unnamed)",
      "channel": 9,
      "lane": "D"
    },
    {
      "time": 292.702,
      "duration": 0.101,
      "midi": 74,
      "noteNumber": 74,
      "velocity": 0.68,
      "track": "(unnamed)",
      "channel": 3,
      "lane": "K"
    },
    {
      "time": 292.814,
      "duration": 0.554,
      "midi": 47,
      "noteNumber": 47,
      "velocity": 0.54,
      "track": "(unnamed)",
      "channel": 2,
      "lane": "F"
    },
    {
      "time": 292.814,
      "duration": 0.007,
      "midi": 35,
      "noteNumber": 35,
      "velocity": 0.74,
      "track": "(unnamed)",
      "channel": 9,
      "lane": "D"
    },
    {
      "time": 292.814,
      "duration": 0.007,
      "midi": 51,
      "noteNumber": 51,
      "velocity": 0.72,
      "track": "(unnamed)",
      "channel": 9,
      "lane": "F"
    },
    {
      "time": 292.814,
      "duration": 0.981,
      "midi": 35,
      "noteNumber": 35,
      "velocity": 0.69,
      "track": "(unnamed)",
      "channel": 1,
      "lane": "D"
    },
    {
      "time": 292.855,
      "duration": 0.165,
      "midi": 75,
      "noteNumber": 75,
      "velocity": 0.9,
      "track": "(unnamed)",
      "channel": 3,
      "lane": "K"
    },
    {
      "time": 293.042,
      "duration": 0.094,
      "midi": 54,
      "noteNumber": 54,
      "velocity": 0.66,
      "track": "(unnamed)",
      "channel": 2,
      "lane": "J"
    },
    {
      "time": 293.042,
      "duration": 0.056,
      "midi": 59,
      "noteNumber": 59,
      "velocity": 0.54,
      "track": "(unnamed)",
      "channel": 2,
      "lane": "J"
    },
    {
      "time": 293.042,
      "duration": 0.06,
      "midi": 61,
      "noteNumber": 61,
      "velocity": 0.54,
      "track": "(unnamed)",
      "channel": 2,
      "lane": "J"
    },
    {
      "time": 293.042,
      "duration": 0.064,
      "midi": 63,
      "noteNumber": 63,
      "velocity": 0.54,
      "track": "(unnamed)",
      "channel": 2,
      "lane": "J"
    },
    {
      "time": 293.087,
      "duration": 0.135,
      "midi": 78,
      "noteNumber": 78,
      "velocity": 0.9,
      "track": "(unnamed)",
      "channel": 3,
      "lane": "K"
    },
    {
      "time": 293.173,
      "duration": 0.007,
      "midi": 51,
      "noteNumber": 51,
      "velocity": 0.72,
      "track": "(unnamed)",
      "channel": 9,
      "lane": "F"
    },
    {
      "time": 293.398,
      "duration": 0.127,
      "midi": 75,
      "noteNumber": 75,
      "velocity": 0.99,
      "track": "(unnamed)",
      "channel": 3,
      "lane": "K"
    },
    {
      "time": 293.402,
      "duration": 0.49,
      "midi": 51,
      "noteNumber": 51,
      "velocity": 0.59,
      "track": "(unnamed)",
      "channel": 2,
      "lane": "F"
    },
    {
      "time": 293.413,
      "duration": 0.007,
      "midi": 40,
      "noteNumber": 40,
      "velocity": 0.53,
      "track": "(unnamed)",
      "channel": 9,
      "lane": "D"
    },
    {
      "time": 293.533,
      "duration": 0.007,
      "midi": 51,
      "noteNumber": 51,
      "velocity": 0.72,
      "track": "(unnamed)",
      "channel": 9,
      "lane": "F"
    },
    {
      "time": 293.574,
      "duration": 0.183,
      "midi": 71,
      "noteNumber": 71,
      "velocity": 0.9,
      "track": "(unnamed)",
      "channel": 3,
      "lane": "K"
    },
    {
      "time": 293.772,
      "duration": 0.007,
      "midi": 51,
      "noteNumber": 51,
      "velocity": 0.61,
      "track": "(unnamed)",
      "channel": 9,
      "lane": "F"
    },
    {
      "time": 293.892,
      "duration": 0.466,
      "midi": 53,
      "noteNumber": 53,
      "velocity": 0.66,
      "track": "(unnamed)",
      "channel": 2,
      "lane": "F"
    },
    {
      "time": 293.892,
      "duration": 0.007,
      "midi": 40,
      "noteNumber": 40,
      "velocity": 0.53,
      "track": "(unnamed)",
      "channel": 9,
      "lane": "D"
    },
    {
      "time": 293.892,
      "duration": 0.007,
      "midi": 51,
      "noteNumber": 51,
      "velocity": 0.69,
      "track": "(unnamed)",
      "channel": 9,
      "lane": "F"
    },
    {
      "time": 293.892,
      "duration": 0.281,
      "midi": 35,
      "noteNumber": 35,
      "velocity": 0.66,
      "track": "(unnamed)",
      "channel": 1,
      "lane": "D"
    },
    {
      "time": 293.926,
      "duration": 0.12,
      "midi": 68,
      "noteNumber": 68,
      "velocity": 0.54,
      "track": "(unnamed)",
      "channel": 3,
      "lane": "K"
    },
    {
      "time": 294.098,
      "duration": 0.135,
      "midi": 70,
      "noteNumber": 70,
      "velocity": 0.6,
      "track": "(unnamed)",
      "channel": 3,
      "lane": "K"
    },
    {
      "time": 294.131,
      "duration": 0.007,
      "midi": 51,
      "noteNumber": 51,
      "velocity": 0.54,
      "track": "(unnamed)",
      "channel": 9,
      "lane": "F"
    },
    {
      "time": 294.251,
      "duration": 0.086,
      "midi": 59,
      "noteNumber": 59,
      "velocity": 0.54,
      "track": "(unnamed)",
      "channel": 2,
      "lane": "J"
    },
    {
      "time": 294.251,
      "duration": 0.105,
      "midi": 63,
      "noteNumber": 63,
      "velocity": 0.45,
      "track": "(unnamed)",
      "channel": 2,
      "lane": "J"
    },
    {
      "time": 294.251,
      "duration": 0.007,
      "midi": 51,
      "noteNumber": 51,
      "velocity": 0.83,
      "track": "(unnamed)",
      "channel": 9,
      "lane": "F"
    },
    {
      "time": 294.251,
      "duration": 0.326,
      "midi": 35,
      "noteNumber": 35,
      "velocity": 0.66,
      "track": "(unnamed)",
      "channel": 1,
      "lane": "D"
    },
    {
      "time": 294.274,
      "duration": 0.15,
      "midi": 71,
      "noteNumber": 71,
      "velocity": 0.71,
      "track": "(unnamed)",
      "channel": 3,
      "lane": "K"
    },
    {
      "time": 294.371,
      "duration": 0.007,
      "midi": 40,
      "noteNumber": 40,
      "velocity": 0.26,
      "track": "(unnamed)",
      "channel": 9,
      "lane": "D"
    },
    {
      "time": 294.457,
      "duration": 0.127,
      "midi": 72,
      "noteNumber": 72,
      "velocity": 0.71,
      "track": "(unnamed)",
      "channel": 3,
      "lane": "K"
    },
    {
      "time": 294.491,
      "duration": 0.007,
      "midi": 40,
      "noteNumber": 40,
      "velocity": 0.5,
      "track": "(unnamed)",
      "channel": 9,
      "lane": "D"
    },
    {
      "time": 294.61,
      "duration": 0.689,
      "midi": 46,
      "noteNumber": 46,
      "velocity": 0.66,
      "track": "(unnamed)",
      "channel": 2,
      "lane": "F"
    },
    {
      "time": 294.61,
      "duration": 0.007,
      "midi": 35,
      "noteNumber": 35,
      "velocity": 0.74,
      "track": "(unnamed)",
      "channel": 9,
      "lane": "D"
    },
    {
      "time": 294.61,
      "duration": 0.007,
      "midi": 51,
      "noteNumber": 51,
      "velocity": 0.72,
      "track": "(unnamed)",
      "channel": 9,
      "lane": "F"
    },
    {
      "time": 294.61,
      "duration": 0.973,
      "midi": 34,
      "noteNumber": 34,
      "velocity": 0.66,
      "track": "(unnamed)",
      "channel": 1,
      "lane": "D"
    },
    {
      "time": 294.644,
      "duration": 0.176,
      "midi": 73,
      "noteNumber": 73,
      "velocity": 0.94,
      "track": "(unnamed)",
      "channel": 3,
      "lane": "K"
    },
    {
      "time": 294.839,
      "duration": 0.101,
      "midi": 53,
      "noteNumber": 53,
      "velocity": 0.49,
      "track": "(unnamed)",
      "channel": 2,
      "lane": "F"
    },
    {
      "time": 294.839,
      "duration": 0.067,
      "midi": 58,
      "noteNumber": 58,
      "velocity": 0.52,
      "track": "(unnamed)",
      "channel": 2,
      "lane": "J"
    },
    {
      "time": 294.839,
      "duration": 0.094,
      "midi": 61,
      "noteNumber": 61,
      "velocity": 0.62,
      "track": "(unnamed)",
      "channel": 2,
      "lane": "J"
    },
    {
      "time": 294.917,
      "duration": 0.109,
      "midi": 77,
      "noteNumber": 77,
      "velocity": 0.9,
      "track": "(unnamed)",
      "channel": 3,
      "lane": "K"
    },
    {
      "time": 294.97,
      "duration": 0.007,
      "midi": 51,
      "noteNumber": 51,
      "velocity": 0.72,
      "track": "(unnamed)",
      "channel": 9,
      "lane": "F"
    },
    {
      "time": 295.198,
      "duration": 0.494,
      "midi": 49,
      "noteNumber": 49,
      "velocity": 0.69,
      "track": "(unnamed)",
      "channel": 2,
      "lane": "F"
    },
    {
      "time": 295.209,
      "duration": 0.007,
      "midi": 40,
      "noteNumber": 40,
      "velocity": 0.53,
      "track": "(unnamed)",
      "channel": 9,
      "lane": "D"
    },
    {
      "time": 295.217,
      "duration": 0.142,
      "midi": 73,
      "noteNumber": 73,
      "velocity": 0.99,
      "track": "(unnamed)",
      "channel": 3,
      "lane": "K"
    },
    {
      "time": 295.329,
      "duration": 0.007,
      "midi": 51,
      "noteNumber": 51,
      "velocity": 0.72,
      "track": "(unnamed)",
      "channel": 9,
      "lane": "F"
    },
    {
      "time": 295.411,
      "duration": 0.21,
      "midi": 70,
      "noteNumber": 70,
      "velocity": 0.8,
      "track": "(unnamed)",
      "channel": 3,
      "lane": "K"
    },
    {
      "time": 295.569,
      "duration": 0.007,
      "midi": 51,
      "noteNumber": 51,
      "velocity": 0.61,
      "track": "(unnamed)",
      "channel": 9,
      "lane": "F"
    },
    {
      "time": 295.688,
      "duration": 0.468,
      "midi": 51,
      "noteNumber": 51,
      "velocity": 0.66,
      "track": "(unnamed)",
      "channel": 2,
      "lane": "F"
    },
    {
      "time": 295.688,
      "duration": 0.007,
      "midi": 40,
      "noteNumber": 40,
      "velocity": 0.53,
      "track": "(unnamed)",
      "channel": 9,
      "lane": "D"
    },
    {
      "time": 295.688,
      "duration": 0.007,
      "midi": 51,
      "noteNumber": 51,
      "velocity": 0.69,
      "track": "(unnamed)",
      "channel": 9,
      "lane": "F"
    },
    {
      "time": 295.688,
      "duration": 0.269,
      "midi": 34,
      "noteNumber": 34,
      "velocity": 0.62,
      "track": "(unnamed)",
      "channel": 1,
      "lane": "D"
    },
    {
      "time": 295.767,
      "duration": 0.15,
      "midi": 66,
      "noteNumber": 66,
      "velocity": 0.4,
      "track": "(unnamed)",
      "channel": 3,
      "lane": "K"
    },
    {
      "time": 295.928,
      "duration": 0.007,
      "midi": 51,
      "noteNumber": 51,
      "velocity": 0.54,
      "track": "(unnamed)",
      "channel": 9,
      "lane": "F"
    },
    {
      "time": 295.943,
      "duration": 0.142,
      "midi": 68,
      "noteNumber": 68,
      "velocity": 0.52,
      "track": "(unnamed)",
      "channel": 3,
      "lane": "K"
    },
    {
      "time": 296.048,
      "duration": 0.15,
      "midi": 54,
      "noteNumber": 54,
      "velocity": 0.43,
      "track": "(unnamed)",
      "channel": 2,
      "lane": "J"
    },
    {
      "time": 296.048,
      "duration": 0.127,
      "midi": 58,
      "noteNumber": 58,
      "velocity": 0.47,
      "track": "(unnamed)",
      "channel": 2,
      "lane": "J"
    },
    {
      "time": 296.048,
      "duration": 0.131,
      "midi": 63,
      "noteNumber": 63,
      "velocity": 0.5,
      "track": "(unnamed)",
      "channel": 2,
      "lane": "J"
    },
    {
      "time": 296.048,
      "duration": 0.007,
      "midi": 51,
      "noteNumber": 51,
      "velocity": 0.83,
      "track": "(unnamed)",
      "channel": 9,
      "lane": "F"
    },
    {
      "time": 296.048,
      "duration": 0.299,
      "midi": 34,
      "noteNumber": 34,
      "velocity": 0.69,
      "track": "(unnamed)",
      "channel": 1,
      "lane": "D"
    },
    {
      "time": 296.092,
      "duration": 0.124,
      "midi": 69,
      "noteNumber": 69,
      "velocity": 0.68,
      "track": "(unnamed)",
      "channel": 3,
      "lane": "K"
    },
    {
      "time": 296.167,
      "duration": 0.007,
      "midi": 40,
      "noteNumber": 40,
      "velocity": 0.26,
      "track": "(unnamed)",
      "channel": 9,
      "lane": "D"
    },
    {
      "time": 296.253,
      "duration": 0.135,
      "midi": 70,
      "noteNumber": 70,
      "velocity": 0.68,
      "track": "(unnamed)",
      "channel": 3,
      "lane": "K"
    },
    {
      "time": 296.287,
      "duration": 0.007,
      "midi": 40,
      "noteNumber": 40,
      "velocity": 0.5,
      "track": "(unnamed)",
      "channel": 9,
      "lane": "D"
    },
    {
      "time": 296.407,
      "duration": 0.543,
      "midi": 44,
      "noteNumber": 44,
      "velocity": 0.62,
      "track": "(unnamed)",
      "channel": 2,
      "lane": "F"
    },
    {
      "time": 296.407,
      "duration": 0.007,
      "midi": 35,
      "noteNumber": 35,
      "velocity": 0.74,
      "track": "(unnamed)",
      "channel": 9,
      "lane": "D"
    },
    {
      "time": 296.407,
      "duration": 0.007,
      "midi": 51,
      "noteNumber": 51,
      "velocity": 0.72,
      "track": "(unnamed)",
      "channel": 9,
      "lane": "F"
    },
    {
      "time": 296.407,
      "duration": 0.857,
      "midi": 32,
      "noteNumber": 32,
      "velocity": 0.66,
      "track": "(unnamed)",
      "channel": 1,
      "lane": "D"
    },
    {
      "time": 296.448,
      "duration": 0.191,
      "midi": 71,
      "noteNumber": 71,
      "velocity": 0.9,
      "track": "(unnamed)",
      "channel": 3,
      "lane": "K"
    },
    {
      "time": 296.635,
      "duration": 0.075,
      "midi": 54,
      "noteNumber": 54,
      "velocity": 0.52,
      "track": "(unnamed)",
      "channel": 2,
      "lane": "J"
    },
    {
      "time": 296.635,
      "duration": 0.052,
      "midi": 59,
      "noteNumber": 59,
      "velocity": 0.62,
      "track": "(unnamed)",
      "channel": 2,
      "lane": "J"
    },
    {
      "time": 296.635,
      "duration": 0.071,
      "midi": 63,
      "noteNumber": 63,
      "velocity": 0.66,
      "track": "(unnamed)",
      "channel": 2,
      "lane": "J"
    },
    {
      "time": 296.699,
      "duration": 0.116,
      "midi": 75,
      "noteNumber": 75,
      "velocity": 0.85,
      "track": "(unnamed)",
      "channel": 3,
      "lane": "K"
    },
    {
      "time": 296.766,
      "duration": 0.007,
      "midi": 51,
      "noteNumber": 51,
      "velocity": 0.72,
      "track": "(unnamed)",
      "channel": 9,
      "lane": "F"
    },
    {
      "time": 296.994,
      "duration": 0.479,
      "midi": 47,
      "noteNumber": 47,
      "velocity": 0.54,
      "track": "(unnamed)",
      "channel": 2,
      "lane": "F"
    },
    {
      "time": 297.006,
      "duration": 0.007,
      "midi": 40,
      "noteNumber": 40,
      "velocity": 0.53,
      "track": "(unnamed)",
      "channel": 9,
      "lane": "D"
    },
    {
      "time": 297.006,
      "duration": 0.138,
      "midi": 71,
      "noteNumber": 71,
      "velocity": 0.9,
      "track": "(unnamed)",
      "channel": 3,
      "lane": "K"
    },
    {
      "time": 297.125,
      "duration": 0.007,
      "midi": 51,
      "noteNumber": 51,
      "velocity": 0.72,
      "track": "(unnamed)",
      "channel": 9,
      "lane": "F"
    },
    {
      "time": 297.196,
      "duration": 0.206,
      "midi": 68,
      "noteNumber": 68,
      "velocity": 0.71,
      "track": "(unnamed)",
      "channel": 3,
      "lane": "K"
    },
    {
      "time": 297.365,
      "duration": 0.007,
      "midi": 51,
      "noteNumber": 51,
      "velocity": 0.61,
      "track": "(unnamed)",
      "channel": 9,
      "lane": "F"
    },
    {
      "time": 297.485,
      "duration": 0.561,
      "midi": 49,
      "noteNumber": 49,
      "velocity": 0.75,
      "track": "(unnamed)",
      "channel": 2,
      "lane": "F"
    },
    {
      "time": 297.485,
      "duration": 0.007,
      "midi": 40,
      "noteNumber": 40,
      "velocity": 0.53,
      "track": "(unnamed)",
      "channel": 9,
      "lane": "D"
    },
    {
      "time": 297.485,
      "duration": 0.007,
      "midi": 51,
      "noteNumber": 51,
      "velocity": 0.69,
      "track": "(unnamed)",
      "channel": 9,
      "lane": "F"
    },
    {
      "time": 297.485,
      "duration": 0.213,
      "midi": 32,
      "noteNumber": 32,
      "velocity": 0.62,
      "track": "(unnamed)",
      "channel": 1,
      "lane": "D"
    },
    {
      "time": 297.533,
      "duration": 0.142,
      "midi": 65,
      "noteNumber": 65,
      "velocity": 0.43,
      "track": "(unnamed)",
      "channel": 3,
      "lane": "J"
    },
    {
      "time": 297.72,
      "duration": 0.112,
      "midi": 68,
      "noteNumber": 68,
      "velocity": 0.57,
      "track": "(unnamed)",
      "channel": 3,
      "lane": "K"
    },
    {
      "time": 297.724,
      "duration": 0.007,
      "midi": 51,
      "noteNumber": 51,
      "velocity": 0.54,
      "track": "(unnamed)",
      "channel": 9,
      "lane": "F"
    },
    {
      "time": 297.844,
      "duration": 0.09,
      "midi": 56,
      "noteNumber": 56,
      "velocity": 0.52,
      "track": "(unnamed)",
      "channel": 2,
      "lane": "J"
    },
    {
      "time": 297.844,
      "duration": 0.067,
      "midi": 59,
      "noteNumber": 59,
      "velocity": 0.55,
      "track": "(unnamed)",
      "channel": 2,
      "lane": "J"
    },
    {
      "time": 297.844,
      "duration": 0.071,
      "midi": 61,
      "noteNumber": 61,
      "velocity": 0.5,
      "track": "(unnamed)",
      "channel": 2,
      "lane": "J"
    },
    {
      "time": 297.844,
      "duration": 0.007,
      "midi": 51,
      "noteNumber": 51,
      "velocity": 0.83,
      "track": "(unnamed)",
      "channel": 9,
      "lane": "F"
    },
    {
      "time": 297.844,
      "duration": 0.225,
      "midi": 32,
      "noteNumber": 32,
      "velocity": 0.69,
      "track": "(unnamed)",
      "channel": 1,
      "lane": "D"
    },
    {
      "time": 297.881,
      "duration": 0.142,
      "midi": 73,
      "noteNumber": 73,
      "velocity": 0.8,
      "track": "(unnamed)",
      "channel": 3,
      "lane": "K"
    },
    {
      "time": 297.964,
      "duration": 0.007,
      "midi": 40,
      "noteNumber": 40,
      "velocity": 0.26,
      "track": "(unnamed)",
      "channel": 9,
      "lane": "D"
    },
    {
      "time": 298.083,
      "duration": 0.007,
      "midi": 40,
      "noteNumber": 40,
      "velocity": 0.5,
      "track": "(unnamed)",
      "channel": 9,
      "lane": "D"
    },
    {
      "time": 298.087,
      "duration": 0.135,
      "midi": 71,
      "noteNumber": 71,
      "velocity": 0.68,
      "track": "(unnamed)",
      "channel": 3,
      "lane": "K"
    },
    {
      "time": 298.203,
      "duration": 0.389,
      "midi": 41,
      "noteNumber": 41,
      "velocity": 0.54,
      "track": "(unnamed)",
      "channel": 2,
      "lane": "D"
    },
    {
      "time": 298.203,
      "duration": 0.007,
      "midi": 35,
      "noteNumber": 35,
      "velocity": 0.74,
      "track": "(unnamed)",
      "channel": 9,
      "lane": "D"
    },
    {
      "time": 298.203,
      "duration": 0.007,
      "midi": 51,
      "noteNumber": 51,
      "velocity": 0.72,
      "track": "(unnamed)",
      "channel": 9,
      "lane": "F"
    },
    {
      "time": 298.203,
      "duration": 0.43,
      "midi": 29,
      "noteNumber": 29,
      "velocity": 0.66,
      "track": "(unnamed)",
      "channel": 1,
      "lane": "D"
    },
    {
      "time": 298.282,
      "duration": 0.879,
      "midi": 70,
      "noteNumber": 70,
      "velocity": 0.57,
      "track": "(unnamed)",
      "channel": 3,
      "lane": "K"
    },
    {
      "time": 298.432,
      "duration": 0.064,
      "midi": 56,
      "noteNumber": 56,
      "velocity": 0.31,
      "track": "(unnamed)",
      "channel": 2,
      "lane": "J"
    },
    {
      "time": 298.432,
      "duration": 0.045,
      "midi": 60,
      "noteNumber": 60,
      "velocity": 0.45,
      "track": "(unnamed)",
      "channel": 2,
      "lane": "J"
    },
    {
      "time": 298.432,
      "duration": 0.067,
      "midi": 63,
      "noteNumber": 63,
      "velocity": 0.52,
      "track": "(unnamed)",
      "channel": 2,
      "lane": "J"
    },
    {
      "time": 298.563,
      "duration": 0.007,
      "midi": 51,
      "noteNumber": 51,
      "velocity": 0.72,
      "track": "(unnamed)",
      "channel": 9,
      "lane": "F"
    },
    {
      "time": 298.791,
      "duration": 0.543,
      "midi": 41,
      "noteNumber": 41,
      "velocity": 0.66,
      "track": "(unnamed)",
      "channel": 2,
      "lane": "D"
    },
    {
      "time": 298.802,
      "duration": 0.007,
      "midi": 40,
      "noteNumber": 40,
      "velocity": 0.53,
      "track": "(unnamed)",
      "channel": 9,
      "lane": "D"
    },
    {
      "time": 298.802,
      "duration": 0.546,
      "midi": 29,
      "noteNumber": 29,
      "velocity": 0.62,
      "track": "(unnamed)",
      "channel": 1,
      "lane": "D"
    },
    {
      "time": 298.922,
      "duration": 0.071,
      "midi": 60,
      "noteNumber": 60,
      "velocity": 0.52,
      "track": "(unnamed)",
      "channel": 2,
      "lane": "J"
    },
    {
      "time": 298.922,
      "duration": 0.079,
      "midi": 63,
      "noteNumber": 63,
      "velocity": 0.52,
      "track": "(unnamed)",
      "channel": 2,
      "lane": "J"
    },
    {
      "time": 298.922,
      "duration": 0.007,
      "midi": 51,
      "noteNumber": 51,
      "velocity": 0.72,
      "track": "(unnamed)",
      "channel": 9,
      "lane": "F"
    },
    {
      "time": 299.161,
      "duration": 0.007,
      "midi": 51,
      "noteNumber": 51,
      "velocity": 0.61,
      "track": "(unnamed)",
      "channel": 9,
      "lane": "F"
    },
    {
      "time": 299.281,
      "duration": 0.524,
      "midi": 46,
      "noteNumber": 46,
      "velocity": 0.54,
      "track": "(unnamed)",
      "channel": 2,
      "lane": "F"
    },
    {
      "time": 299.281,
      "duration": 0.007,
      "midi": 40,
      "noteNumber": 40,
      "velocity": 0.53,
      "track": "(unnamed)",
      "channel": 9,
      "lane": "D"
    },
    {
      "time": 299.281,
      "duration": 0.007,
      "midi": 51,
      "noteNumber": 51,
      "velocity": 0.69,
      "track": "(unnamed)",
      "channel": 9,
      "lane": "F"
    },
    {
      "time": 299.281,
      "duration": 0.307,
      "midi": 34,
      "noteNumber": 34,
      "velocity": 0.48,
      "track": "(unnamed)",
      "channel": 1,
      "lane": "D"
    },
    {
      "time": 299.498,
      "duration": 0.06,
      "midi": 63,
      "noteNumber": 63,
      "velocity": 0.46,
      "track": "(unnamed)",
      "channel": 3,
      "lane": "J"
    },
    {
      "time": 299.521,
      "duration": 0.007,
      "midi": 51,
      "noteNumber": 51,
      "velocity": 0.54,
      "track": "(unnamed)",
      "channel": 9,
      "lane": "F"
    },
    {
      "time": 299.64,
      "duration": 0.007,
      "midi": 51,
      "noteNumber": 51,
      "velocity": 0.83,
      "track": "(unnamed)",
      "channel": 9,
      "lane": "F"
    },
    {
      "time": 299.64,
      "duration": 0.277,
      "midi": 34,
      "noteNumber": 34,
      "velocity": 0.74,
      "track": "(unnamed)",
      "channel": 1,
      "lane": "D"
    },
    {
      "time": 299.655,
      "duration": 0.116,
      "midi": 66,
      "noteNumber": 66,
      "velocity": 0.74,
      "track": "(unnamed)",
      "channel": 3,
      "lane": "K"
    },
    {
      "time": 299.76,
      "duration": 0.007,
      "midi": 40,
      "noteNumber": 40,
      "velocity": 0.26,
      "track": "(unnamed)",
      "channel": 9,
      "lane": "D"
    },
    {
      "time": 299.835,
      "duration": 0.097,
      "midi": 68,
      "noteNumber": 68,
      "velocity": 0.85,
      "track": "(unnamed)",
      "channel": 3,
      "lane": "K"
    },
    {
      "time": 299.88,
      "duration": 0.007,
      "midi": 40,
      "noteNumber": 40,
      "velocity": 0.5,
      "track": "(unnamed)",
      "channel": 9,
      "lane": "D"
    },
    {
      "time": 300,
      "duration": 0.161,
      "midi": 39,
      "noteNumber": 39,
      "velocity": 0.6,
      "track": "(unnamed)",
      "channel": 2,
      "lane": "D"
    },
    {
      "time": 300,
      "duration": 0.007,
      "midi": 35,
      "noteNumber": 35,
      "velocity": 0.74,
      "track": "(unnamed)",
      "channel": 9,
      "lane": "D"
    },
    {
      "time": 300,
      "duration": 0.007,
      "midi": 51,
      "noteNumber": 51,
      "velocity": 0.72,
      "track": "(unnamed)",
      "channel": 9,
      "lane": "F"
    },
    {
      "time": 300,
      "duration": 0.876,
      "midi": 39,
      "noteNumber": 39,
      "velocity": 0.66,
      "track": "(unnamed)",
      "channel": 1,
      "lane": "D"
    },
    {
      "time": 300.026,
      "duration": 0.146,
      "midi": 69,
      "noteNumber": 69,
      "velocity": 0.94,
      "track": "(unnamed)",
      "channel": 3,
      "lane": "K"
    },
    {
      "time": 300.205,
      "duration": 0.094,
      "midi": 70,
      "noteNumber": 70,
      "velocity": 0.77,
      "track": "(unnamed)",
      "channel": 3,
      "lane": "K"
    },
    {
      "time": 300.228,
      "duration": 0.056,
      "midi": 54,
      "noteNumber": 54,
      "velocity": 0.71,
      "track": "(unnamed)",
      "channel": 2,
      "lane": "J"
    },
    {
      "time": 300.228,
      "duration": 0.03,
      "midi": 58,
      "noteNumber": 58,
      "velocity": 0.54,
      "track": "(unnamed)",
      "channel": 2,
      "lane": "J"
    },
    {
      "time": 300.228,
      "duration": 0.06,
      "midi": 63,
      "noteNumber": 63,
      "velocity": 0.68,
      "track": "(unnamed)",
      "channel": 2,
      "lane": "J"
    },
    {
      "time": 300.359,
      "duration": 0.007,
      "midi": 51,
      "noteNumber": 51,
      "velocity": 0.72,
      "track": "(unnamed)",
      "channel": 9,
      "lane": "F"
    },
    {
      "time": 300.423,
      "duration": 0.071,
      "midi": 69,
      "noteNumber": 69,
      "velocity": 0.63,
      "track": "(unnamed)",
      "channel": 3,
      "lane": "K"
    },
    {
      "time": 300.587,
      "duration": 0.112,
      "midi": 39,
      "noteNumber": 39,
      "velocity": 0.74,
      "track": "(unnamed)",
      "channel": 2,
      "lane": "D"
    },
    {
      "time": 300.598,
      "duration": 0.007,
      "midi": 40,
      "noteNumber": 40,
      "velocity": 0.53,
      "track": "(unnamed)",
      "channel": 9,
      "lane": "D"
    },
    {
      "time": 300.61,
      "duration": 0.12,
      "midi": 68,
      "noteNumber": 68,
      "velocity": 0.8,
      "track": "(unnamed)",
      "channel": 3,
      "lane": "K"
    },
    {
      "time": 300.718,
      "duration": 0.086,
      "midi": 54,
      "noteNumber": 54,
      "velocity": 0.71,
      "track": "(unnamed)",
      "channel": 2,
      "lane": "J"
    },
    {
      "time": 300.718,
      "duration": 0.041,
      "midi": 58,
      "noteNumber": 58,
      "velocity": 0.68,
      "track": "(unnamed)",
      "channel": 2,
      "lane": "J"
    },
    {
      "time": 300.718,
      "duration": 0.049,
      "midi": 63,
      "noteNumber": 63,
      "velocity": 0.54,
      "track": "(unnamed)",
      "channel": 2,
      "lane": "J"
    },
    {
      "time": 300.718,
      "duration": 0.007,
      "midi": 51,
      "noteNumber": 51,
      "velocity": 0.72,
      "track": "(unnamed)",
      "channel": 9,
      "lane": "F"
    },
    {
      "time": 300.756,
      "duration": 0.172,
      "midi": 66,
      "noteNumber": 66,
      "velocity": 0.85,
      "track": "(unnamed)",
      "channel": 3,
      "lane": "K"
    },
    {
      "time": 300.958,
      "duration": 0.007,
      "midi": 51,
      "noteNumber": 51,
      "velocity": 0.61,
      "track": "(unnamed)",
      "channel": 9,
      "lane": "F"
    },
    {
      "time": 301.077,
      "duration": 0.52,
      "midi": 46,
      "noteNumber": 46,
      "velocity": 0.71,
      "track": "(unnamed)",
      "channel": 2,
      "lane": "F"
    },
    {
      "time": 301.077,
      "duration": 0.007,
      "midi": 40,
      "noteNumber": 40,
      "velocity": 0.53,
      "track": "(unnamed)",
      "channel": 9,
      "lane": "D"
    },
    {
      "time": 301.077,
      "duration": 0.007,
      "midi": 51,
      "noteNumber": 51,
      "velocity": 0.69,
      "track": "(unnamed)",
      "channel": 9,
      "lane": "F"
    },
    {
      "time": 301.077,
      "duration": 0.273,
      "midi": 46,
      "noteNumber": 46,
      "velocity": 0.51,
      "track": "(unnamed)",
      "channel": 1,
      "lane": "F"
    },
    {
      "time": 301.092,
      "duration": 0.314,
      "midi": 58,
      "noteNumber": 58,
      "velocity": 0.54,
      "track": "(unnamed)",
      "channel": 3,
      "lane": "J"
    },
    {
      "time": 301.317,
      "duration": 0.007,
      "midi": 51,
      "noteNumber": 51,
      "velocity": 0.54,
      "track": "(unnamed)",
      "channel": 9,
      "lane": "F"
    },
    {
      "time": 301.362,
      "duration": 0.105,
      "midi": 59,
      "noteNumber": 59,
      "velocity": 0.56,
      "track": "(unnamed)",
      "channel": 3,
      "lane": "J"
    },
    {
      "time": 301.437,
      "duration": 0.12,
      "midi": 53,
      "noteNumber": 53,
      "velocity": 0.57,
      "track": "(unnamed)",
      "channel": 2,
      "lane": "F"
    },
    {
      "time": 301.437,
      "duration": 0.12,
      "midi": 56,
      "noteNumber": 56,
      "velocity": 0.74,
      "track": "(unnamed)",
      "channel": 2,
      "lane": "J"
    },
    {
      "time": 301.437,
      "duration": 0.124,
      "midi": 61,
      "noteNumber": 61,
      "velocity": 0.71,
      "track": "(unnamed)",
      "channel": 2,
      "lane": "J"
    },
    {
      "time": 301.437,
      "duration": 0.007,
      "midi": 51,
      "noteNumber": 51,
      "velocity": 0.83,
      "track": "(unnamed)",
      "channel": 9,
      "lane": "F"
    },
    {
      "time": 301.437,
      "duration": 0.079,
      "midi": 60,
      "noteNumber": 60,
      "velocity": 0.52,
      "track": "(unnamed)",
      "channel": 3,
      "lane": "J"
    },
    {
      "time": 301.437,
      "duration": 0.213,
      "midi": 34,
      "noteNumber": 34,
      "velocity": 0.51,
      "track": "(unnamed)",
      "channel": 1,
      "lane": "D"
    },
    {
      "time": 301.467,
      "duration": 0.12,
      "midi": 61,
      "noteNumber": 61,
      "velocity": 0.77,
      "track": "(unnamed)",
      "channel": 3,
      "lane": "J"
    },
    {
      "time": 301.557,
      "duration": 0.007,
      "midi": 40,
      "noteNumber": 40,
      "velocity": 0.26,
      "track": "(unnamed)",
      "channel": 9,
      "lane": "D"
    },
    {
      "time": 301.676,
      "duration": 0.007,
      "midi": 40,
      "noteNumber": 40,
      "velocity": 0.5,
      "track": "(unnamed)",
      "channel": 9,
      "lane": "D"
    },
    {
      "time": 301.796,
      "duration": 0.161,
      "midi": 39,
      "noteNumber": 39,
      "velocity": 0.6,
      "track": "(unnamed)",
      "channel": 2,
      "lane": "D"
    },
    {
      "time": 301.796,
      "duration": 0.007,
      "midi": 35,
      "noteNumber": 35,
      "velocity": 0.74,
      "track": "(unnamed)",
      "channel": 9,
      "lane": "D"
    },
    {
      "time": 301.796,
      "duration": 0.007,
      "midi": 51,
      "noteNumber": 51,
      "velocity": 0.72,
      "track": "(unnamed)",
      "channel": 9,
      "lane": "F"
    },
    {
      "time": 301.796,
      "duration": 0.876,
      "midi": 39,
      "noteNumber": 39,
      "velocity": 0.66,
      "track": "(unnamed)",
      "channel": 1,
      "lane": "D"
    },
    {
      "time": 301.83,
      "duration": 1.018,
      "midi": 63,
      "noteNumber": 63,
      "velocity": 0.71,
      "track": "(unnamed)",
      "channel": 3,
      "lane": "J"
    },
    {
      "time": 302.024,
      "duration": 0.056,
      "midi": 54,
      "noteNumber": 54,
      "velocity": 0.71,
      "track": "(unnamed)",
      "channel": 2,
      "lane": "J"
    },
    {
      "time": 302.024,
      "duration": 0.03,
      "midi": 58,
      "noteNumber": 58,
      "velocity": 0.54,
      "track": "(unnamed)",
      "channel": 2,
      "lane": "J"
    },
    {
      "time": 302.024,
      "duration": 0.06,
      "midi": 63,
      "noteNumber": 63,
      "velocity": 0.68,
      "track": "(unnamed)",
      "channel": 2,
      "lane": "J"
    },
    {
      "time": 302.155,
      "duration": 0.007,
      "midi": 51,
      "noteNumber": 51,
      "velocity": 0.72,
      "track": "(unnamed)",
      "channel": 9,
      "lane": "F"
    },
    {
      "time": 302.384,
      "duration": 0.112,
      "midi": 39,
      "noteNumber": 39,
      "velocity": 0.74,
      "track": "(unnamed)",
      "channel": 2,
      "lane": "D"
    },
    {
      "time": 302.395,
      "duration": 0.007,
      "midi": 40,
      "noteNumber": 40,
      "velocity": 0.53,
      "track": "(unnamed)",
      "channel": 9,
      "lane": "D"
    },
    {
      "time": 302.515,
      "duration": 0.086,
      "midi": 54,
      "noteNumber": 54,
      "velocity": 0.71,
      "track": "(unnamed)",
      "channel": 2,
      "lane": "J"
    },
    {
      "time": 302.515,
      "duration": 0.041,
      "midi": 58,
      "noteNumber": 58,
      "velocity": 0.68,
      "track": "(unnamed)",
      "channel": 2,
      "lane": "J"
    },
    {
      "time": 302.515,
      "duration": 0.049,
      "midi": 63,
      "noteNumber": 63,
      "velocity": 0.54,
      "track": "(unnamed)",
      "channel": 2,
      "lane": "J"
    },
    {
      "time": 302.515,
      "duration": 0.007,
      "midi": 51,
      "noteNumber": 51,
      "velocity": 0.72,
      "track": "(unnamed)",
      "channel": 9,
      "lane": "F"
    },
    {
      "time": 302.754,
      "duration": 0.007,
      "midi": 51,
      "noteNumber": 51,
      "velocity": 0.61,
      "track": "(unnamed)",
      "channel": 9,
      "lane": "F"
    },
    {
      "time": 302.874,
      "duration": 0.52,
      "midi": 46,
      "noteNumber": 46,
      "velocity": 0.71,
      "track": "(unnamed)",
      "channel": 2,
      "lane": "F"
    },
    {
      "time": 302.874,
      "duration": 0.007,
      "midi": 40,
      "noteNumber": 40,
      "velocity": 0.53,
      "track": "(unnamed)",
      "channel": 9,
      "lane": "D"
    },
    {
      "time": 302.874,
      "duration": 0.007,
      "midi": 51,
      "noteNumber": 51,
      "velocity": 0.69,
      "track": "(unnamed)",
      "channel": 9,
      "lane": "F"
    },
    {
      "time": 302.874,
      "duration": 0.273,
      "midi": 46,
      "noteNumber": 46,
      "velocity": 0.51,
      "track": "(unnamed)",
      "channel": 1,
      "lane": "F"
    },
    {
      "time": 302.878,
      "duration": 0.138,
      "midi": 65,
      "noteNumber": 65,
      "velocity": 0.8,
      "track": "(unnamed)",
      "channel": 3,
      "lane": "J"
    },
    {
      "time": 303.039,
      "duration": 0.071,
      "midi": 66,
      "noteNumber": 66,
      "velocity": 0.52,
      "track": "(unnamed)",
      "channel": 3,
      "lane": "K"
    },
    {
      "time": 303.106,
      "duration": 0.056,
      "midi": 65,
      "noteNumber": 65,
      "velocity": 0.52,
      "track": "(unnamed)",
      "channel": 3,
      "lane": "J"
    },
    {
      "time": 303.113,
      "duration": 0.007,
      "midi": 51,
      "noteNumber": 51,
      "velocity": 0.54,
      "track": "(unnamed)",
      "channel": 9,
      "lane": "F"
    },
    {
      "time": 303.162,
      "duration": 0.071,
      "midi": 63,
      "noteNumber": 63,
      "velocity": 0.74,
      "track": "(unnamed)",
      "channel": 3,
      "lane": "J"
    },
    {
      "time": 303.233,
      "duration": 0.12,
      "midi": 53,
      "noteNumber": 53,
      "velocity": 0.57,
      "track": "(unnamed)",
      "channel": 2,
      "lane": "F"
    },
    {
      "time": 303.233,
      "duration": 0.12,
      "midi": 56,
      "noteNumber": 56,
      "velocity": 0.74,
      "track": "(unnamed)",
      "channel": 2,
      "lane": "J"
    },
    {
      "time": 303.233,
      "duration": 0.124,
      "midi": 61,
      "noteNumber": 61,
      "velocity": 0.71,
      "track": "(unnamed)",
      "channel": 2,
      "lane": "J"
    },
    {
      "time": 303.233,
      "duration": 0.007,
      "midi": 51,
      "noteNumber": 51,
      "velocity": 0.83,
      "track": "(unnamed)",
      "channel": 9,
      "lane": "F"
    },
    {
      "time": 303.233,
      "duration": 0.213,
      "midi": 34,
      "noteNumber": 34,
      "velocity": 0.51,
      "track": "(unnamed)",
      "channel": 1,
      "lane": "D"
    },
    {
      "time": 303.241,
      "duration": 0.352,
      "midi": 61,
      "noteNumber": 61,
      "velocity": 0.63,
      "track": "(unnamed)",
      "channel": 3,
      "lane": "J"
    },
    {
      "time": 303.353,
      "duration": 0.007,
      "midi": 40,
      "noteNumber": 40,
      "velocity": 0.26,
      "track": "(unnamed)",
      "channel": 9,
      "lane": "D"
    },
    {
      "time": 303.473,
      "duration": 0.007,
      "midi": 40,
      "noteNumber": 40,
      "velocity": 0.5,
      "track": "(unnamed)",
      "channel": 9,
      "lane": "D"
    },
    {
      "time": 303.592,
      "duration": 0.161,
      "midi": 39,
      "noteNumber": 39,
      "velocity": 0.6,
      "track": "(unnamed)",
      "channel": 2,
      "lane": "D"
    },
    {
      "time": 303.592,
      "duration": 0.007,
      "midi": 35,
      "noteNumber": 35,
      "velocity": 0.74,
      "track": "(unnamed)",
      "channel": 9,
      "lane": "D"
    },
    {
      "time": 303.592,
      "duration": 0.007,
      "midi": 51,
      "noteNumber": 51,
      "velocity": 0.72,
      "track": "(unnamed)",
      "channel": 9,
      "lane": "F"
    },
    {
      "time": 303.592,
      "duration": 0.876,
      "midi": 39,
      "noteNumber": 39,
      "velocity": 0.66,
      "track": "(unnamed)",
      "channel": 1,
      "lane": "D"
    },
    {
      "time": 303.607,
      "duration": 1.018,
      "midi": 63,
      "noteNumber": 63,
      "velocity": 0.63,
      "track": "(unnamed)",
      "channel": 3,
      "lane": "J"
    },
    {
      "time": 303.821,
      "duration": 0.056,
      "midi": 54,
      "noteNumber": 54,
      "velocity": 0.71,
      "track": "(unnamed)",
      "channel": 2,
      "lane": "J"
    },
    {
      "time": 303.821,
      "duration": 0.03,
      "midi": 58,
      "noteNumber": 58,
      "velocity": 0.54,
      "track": "(unnamed)",
      "channel": 2,
      "lane": "J"
    },
    {
      "time": 303.821,
      "duration": 0.06,
      "midi": 63,
      "noteNumber": 63,
      "velocity": 0.68,
      "track": "(unnamed)",
      "channel": 2,
      "lane": "J"
    },
    {
      "time": 303.952,
      "duration": 0.007,
      "midi": 51,
      "noteNumber": 51,
      "velocity": 0.72,
      "track": "(unnamed)",
      "channel": 9,
      "lane": "F"
    },
    {
      "time": 304.18,
      "duration": 0.112,
      "midi": 39,
      "noteNumber": 39,
      "velocity": 0.74,
      "track": "(unnamed)",
      "channel": 2,
      "lane": "D"
    },
    {
      "time": 304.191,
      "duration": 0.007,
      "midi": 40,
      "noteNumber": 40,
      "velocity": 0.53,
      "track": "(unnamed)",
      "channel": 9,
      "lane": "D"
    },
    {
      "time": 304.311,
      "duration": 0.086,
      "midi": 54,
      "noteNumber": 54,
      "velocity": 0.71,
      "track": "(unnamed)",
      "channel": 2,
      "lane": "J"
    },
    {
      "time": 304.311,
      "duration": 0.041,
      "midi": 58,
      "noteNumber": 58,
      "velocity": 0.68,
      "track": "(unnamed)",
      "channel": 2,
      "lane": "J"
    },
    {
      "time": 304.311,
      "duration": 0.049,
      "midi": 63,
      "noteNumber": 63,
      "velocity": 0.54,
      "track": "(unnamed)",
      "channel": 2,
      "lane": "J"
    },
    {
      "time": 304.311,
      "duration": 0.007,
      "midi": 51,
      "noteNumber": 51,
      "velocity": 0.72,
      "track": "(unnamed)",
      "channel": 9,
      "lane": "F"
    },
    {
      "time": 304.551,
      "duration": 0.007,
      "midi": 51,
      "noteNumber": 51,
      "velocity": 0.61,
      "track": "(unnamed)",
      "channel": 9,
      "lane": "F"
    },
    {
      "time": 304.67,
      "duration": 0.52,
      "midi": 46,
      "noteNumber": 46,
      "velocity": 0.71,
      "track": "(unnamed)",
      "channel": 2,
      "lane": "F"
    },
    {
      "time": 304.67,
      "duration": 0.007,
      "midi": 40,
      "noteNumber": 40,
      "velocity": 0.53,
      "track": "(unnamed)",
      "channel": 9,
      "lane": "D"
    },
    {
      "time": 304.67,
      "duration": 0.007,
      "midi": 51,
      "noteNumber": 51,
      "velocity": 0.69,
      "track": "(unnamed)",
      "channel": 9,
      "lane": "F"
    },
    {
      "time": 304.67,
      "duration": 0.273,
      "midi": 46,
      "noteNumber": 46,
      "velocity": 0.51,
      "track": "(unnamed)",
      "channel": 1,
      "lane": "F"
    },
    {
      "time": 304.674,
      "duration": 0.138,
      "midi": 61,
      "noteNumber": 61,
      "velocity": 0.8,
      "track": "(unnamed)",
      "channel": 3,
      "lane": "J"
    },
    {
      "time": 304.835,
      "duration": 0.071,
      "midi": 63,
      "noteNumber": 63,
      "velocity": 0.52,
      "track": "(unnamed)",
      "channel": 3,
      "lane": "J"
    },
    {
      "time": 304.902,
      "duration": 0.056,
      "midi": 61,
      "noteNumber": 61,
      "velocity": 0.52,
      "track": "(unnamed)",
      "channel": 3,
      "lane": "J"
    },
    {
      "time": 304.91,
      "duration": 0.007,
      "midi": 51,
      "noteNumber": 51,
      "velocity": 0.54,
      "track": "(unnamed)",
      "channel": 9,
      "lane": "F"
    },
    {
      "time": 304.958,
      "duration": 0.071,
      "midi": 58,
      "noteNumber": 58,
      "velocity": 0.74,
      "track": "(unnamed)",
      "channel": 3,
      "lane": "J"
    },
    {
      "time": 305.03,
      "duration": 0.12,
      "midi": 53,
      "noteNumber": 53,
      "velocity": 0.57,
      "track": "(unnamed)",
      "channel": 2,
      "lane": "F"
    },
    {
      "time": 305.03,
      "duration": 0.12,
      "midi": 56,
      "noteNumber": 56,
      "velocity": 0.74,
      "track": "(unnamed)",
      "channel": 2,
      "lane": "J"
    },
    {
      "time": 305.03,
      "duration": 0.124,
      "midi": 61,
      "noteNumber": 61,
      "velocity": 0.71,
      "track": "(unnamed)",
      "channel": 2,
      "lane": "J"
    },
    {
      "time": 305.03,
      "duration": 0.007,
      "midi": 51,
      "noteNumber": 51,
      "velocity": 0.83,
      "track": "(unnamed)",
      "channel": 9,
      "lane": "F"
    },
    {
      "time": 305.03,
      "duration": 0.213,
      "midi": 34,
      "noteNumber": 34,
      "velocity": 0.51,
      "track": "(unnamed)",
      "channel": 1,
      "lane": "D"
    },
    {
      "time": 305.037,
      "duration": 0.352,
      "midi": 56,
      "noteNumber": 56,
      "velocity": 0.63,
      "track": "(unnamed)",
      "channel": 3,
      "lane": "J"
    },
    {
      "time": 305.149,
      "duration": 0.007,
      "midi": 40,
      "noteNumber": 40,
      "velocity": 0.26,
      "track": "(unnamed)",
      "channel": 9,
      "lane": "D"
    },
    {
      "time": 305.269,
      "duration": 0.007,
      "midi": 40,
      "noteNumber": 40,
      "velocity": 0.5,
      "track": "(unnamed)",
      "channel": 9,
      "lane": "D"
    },
    {
      "time": 305.389,
      "duration": 0.161,
      "midi": 39,
      "noteNumber": 39,
      "velocity": 0.6,
      "track": "(unnamed)",
      "channel": 2,
      "lane": "D"
    },
    {
      "time": 305.389,
      "duration": 0.007,
      "midi": 35,
      "noteNumber": 35,
      "velocity": 0.74,
      "track": "(unnamed)",
      "channel": 9,
      "lane": "D"
    },
    {
      "time": 305.389,
      "duration": 0.007,
      "midi": 51,
      "noteNumber": 51,
      "velocity": 0.72,
      "track": "(unnamed)",
      "channel": 9,
      "lane": "F"
    },
    {
      "time": 305.389,
      "duration": 0.894,
      "midi": 58,
      "noteNumber": 58,
      "velocity": 0.68,
      "track": "(unnamed)",
      "channel": 3,
      "lane": "J"
    },
    {
      "time": 305.389,
      "duration": 0.876,
      "midi": 39,
      "noteNumber": 39,
      "velocity": 0.66,
      "track": "(unnamed)",
      "channel": 1,
      "lane": "D"
    },
    {
      "time": 305.617,
      "duration": 0.056,
      "midi": 54,
      "noteNumber": 54,
      "velocity": 0.71,
      "track": "(unnamed)",
      "channel": 2,
      "lane": "J"
    },
    {
      "time": 305.617,
      "duration": 0.03,
      "midi": 58,
      "noteNumber": 58,
      "velocity": 0.54,
      "track": "(unnamed)",
      "channel": 2,
      "lane": "J"
    },
    {
      "time": 305.617,
      "duration": 0.06,
      "midi": 63,
      "noteNumber": 63,
      "velocity": 0.68,
      "track": "(unnamed)",
      "channel": 2,
      "lane": "J"
    },
    {
      "time": 305.748,
      "duration": 0.007,
      "midi": 51,
      "noteNumber": 51,
      "velocity": 0.72,
      "track": "(unnamed)",
      "channel": 9,
      "lane": "F"
    },
    {
      "time": 305.976,
      "duration": 0.112,
      "midi": 39,
      "noteNumber": 39,
      "velocity": 0.74,
      "track": "(unnamed)",
      "channel": 2,
      "lane": "D"
    },
    {
      "time": 305.988,
      "duration": 0.007,
      "midi": 40,
      "noteNumber": 40,
      "velocity": 0.53,
      "track": "(unnamed)",
      "channel": 9,
      "lane": "D"
    },
    {
      "time": 306.107,
      "duration": 0.086,
      "midi": 54,
      "noteNumber": 54,
      "velocity": 0.71,
      "track": "(unnamed)",
      "channel": 2,
      "lane": "J"
    },
    {
      "time": 306.107,
      "duration": 0.041,
      "midi": 58,
      "noteNumber": 58,
      "velocity": 0.68,
      "track": "(unnamed)",
      "channel": 2,
      "lane": "J"
    },
    {
      "time": 306.107,
      "duration": 0.049,
      "midi": 63,
      "noteNumber": 63,
      "velocity": 0.54,
      "track": "(unnamed)",
      "channel": 2,
      "lane": "J"
    },
    {
      "time": 306.107,
      "duration": 0.007,
      "midi": 51,
      "noteNumber": 51,
      "velocity": 0.72,
      "track": "(unnamed)",
      "channel": 9,
      "lane": "F"
    },
    {
      "time": 306.347,
      "duration": 0.007,
      "midi": 51,
      "noteNumber": 51,
      "velocity": 0.61,
      "track": "(unnamed)",
      "channel": 9,
      "lane": "F"
    },
    {
      "time": 306.467,
      "duration": 0.52,
      "midi": 46,
      "noteNumber": 46,
      "velocity": 0.71,
      "track": "(unnamed)",
      "channel": 2,
      "lane": "F"
    },
    {
      "time": 306.467,
      "duration": 0.007,
      "midi": 40,
      "noteNumber": 40,
      "velocity": 0.53,
      "track": "(unnamed)",
      "channel": 9,
      "lane": "D"
    },
    {
      "time": 306.467,
      "duration": 0.007,
      "midi": 51,
      "noteNumber": 51,
      "velocity": 0.69,
      "track": "(unnamed)",
      "channel": 9,
      "lane": "F"
    },
    {
      "time": 306.467,
      "duration": 0.273,
      "midi": 46,
      "noteNumber": 46,
      "velocity": 0.51,
      "track": "(unnamed)",
      "channel": 1,
      "lane": "F"
    },
    {
      "time": 306.493,
      "duration": 0.138,
      "midi": 58,
      "noteNumber": 58,
      "velocity": 0.52,
      "track": "(unnamed)",
      "channel": 3,
      "lane": "J"
    },
    {
      "time": 306.695,
      "duration": 0.109,
      "midi": 63,
      "noteNumber": 63,
      "velocity": 0.54,
      "track": "(unnamed)",
      "channel": 3,
      "lane": "J"
    },
    {
      "time": 306.706,
      "duration": 0.007,
      "midi": 51,
      "noteNumber": 51,
      "velocity": 0.54,
      "track": "(unnamed)",
      "channel": 9,
      "lane": "F"
    },
    {
      "time": 306.826,
      "duration": 0.12,
      "midi": 53,
      "noteNumber": 53,
      "velocity": 0.57,
      "track": "(unnamed)",
      "channel": 2,
      "lane": "F"
    },
    {
      "time": 306.826,
      "duration": 0.12,
      "midi": 56,
      "noteNumber": 56,
      "velocity": 0.74,
      "track": "(unnamed)",
      "channel": 2,
      "lane": "J"
    },
    {
      "time": 306.826,
      "duration": 0.124,
      "midi": 61,
      "noteNumber": 61,
      "velocity": 0.71,
      "track": "(unnamed)",
      "channel": 2,
      "lane": "J"
    },
    {
      "time": 306.826,
      "duration": 0.007,
      "midi": 51,
      "noteNumber": 51,
      "velocity": 0.83,
      "track": "(unnamed)",
      "channel": 9,
      "lane": "F"
    },
    {
      "time": 306.826,
      "duration": 0.213,
      "midi": 34,
      "noteNumber": 34,
      "velocity": 0.51,
      "track": "(unnamed)",
      "channel": 1,
      "lane": "D"
    },
    {
      "time": 306.845,
      "duration": 0.131,
      "midi": 66,
      "noteNumber": 66,
      "velocity": 0.71,
      "track": "(unnamed)",
      "channel": 3,
      "lane": "K"
    },
    {
      "time": 306.946,
      "duration": 0.007,
      "midi": 40,
      "noteNumber": 40,
      "velocity": 0.26,
      "track": "(unnamed)",
      "channel": 9,
      "lane": "D"
    },
    {
      "time": 307.032,
      "duration": 0.112,
      "midi": 68,
      "noteNumber": 68,
      "velocity": 0.85,
      "track": "(unnamed)",
      "channel": 3,
      "lane": "K"
    },
    {
      "time": 307.065,
      "duration": 0.007,
      "midi": 40,
      "noteNumber": 40,
      "velocity": 0.5,
      "track": "(unnamed)",
      "channel": 9,
      "lane": "D"
    },
    {
      "time": 307.185,
      "duration": 0.161,
      "midi": 39,
      "noteNumber": 39,
      "velocity": 0.6,
      "track": "(unnamed)",
      "channel": 2,
      "lane": "D"
    },
    {
      "time": 307.185,
      "duration": 0.007,
      "midi": 35,
      "noteNumber": 35,
      "velocity": 0.74,
      "track": "(unnamed)",
      "channel": 9,
      "lane": "D"
    },
    {
      "time": 307.185,
      "duration": 0.007,
      "midi": 51,
      "noteNumber": 51,
      "velocity": 0.72,
      "track": "(unnamed)",
      "channel": 9,
      "lane": "F"
    },
    {
      "time": 307.185,
      "duration": 0.876,
      "midi": 39,
      "noteNumber": 39,
      "velocity": 0.66,
      "track": "(unnamed)",
      "channel": 1,
      "lane": "D"
    },
    {
      "time": 307.211,
      "duration": 0.146,
      "midi": 69,
      "noteNumber": 69,
      "velocity": 0.94,
      "track": "(unnamed)",
      "channel": 3,
      "lane": "K"
    },
    {
      "time": 307.391,
      "duration": 0.094,
      "midi": 70,
      "noteNumber": 70,
      "velocity": 0.77,
      "track": "(unnamed)",
      "channel": 3,
      "lane": "K"
    },
    {
      "time": 307.414,
      "duration": 0.056,
      "midi": 54,
      "noteNumber": 54,
      "velocity": 0.71,
      "track": "(unnamed)",
      "channel": 2,
      "lane": "J"
    },
    {
      "time": 307.414,
      "duration": 0.03,
      "midi": 58,
      "noteNumber": 58,
      "velocity": 0.54,
      "track": "(unnamed)",
      "channel": 2,
      "lane": "J"
    },
    {
      "time": 307.414,
      "duration": 0.06,
      "midi": 63,
      "noteNumber": 63,
      "velocity": 0.68,
      "track": "(unnamed)",
      "channel": 2,
      "lane": "J"
    },
    {
      "time": 307.545,
      "duration": 0.007,
      "midi": 51,
      "noteNumber": 51,
      "velocity": 0.72,
      "track": "(unnamed)",
      "channel": 9,
      "lane": "F"
    },
    {
      "time": 307.608,
      "duration": 0.071,
      "midi": 69,
      "noteNumber": 69,
      "velocity": 0.63,
      "track": "(unnamed)",
      "channel": 3,
      "lane": "K"
    },
    {
      "time": 307.773,
      "duration": 0.112,
      "midi": 39,
      "noteNumber": 39,
      "velocity": 0.74,
      "track": "(unnamed)",
      "channel": 2,
      "lane": "D"
    },
    {
      "time": 307.784,
      "duration": 0.007,
      "midi": 40,
      "noteNumber": 40,
      "velocity": 0.53,
      "track": "(unnamed)",
      "channel": 9,
      "lane": "D"
    },
    {
      "time": 307.795,
      "duration": 0.12,
      "midi": 68,
      "noteNumber": 68,
      "velocity": 0.8,
      "track": "(unnamed)",
      "channel": 3,
      "lane": "K"
    },
    {
      "time": 307.904,
      "duration": 0.086,
      "midi": 54,
      "noteNumber": 54,
      "velocity": 0.71,
      "track": "(unnamed)",
      "channel": 2,
      "lane": "J"
    },
    {
      "time": 307.904,
      "duration": 0.041,
      "midi": 58,
      "noteNumber": 58,
      "velocity": 0.68,
      "track": "(unnamed)",
      "channel": 2,
      "lane": "J"
    },
    {
      "time": 307.904,
      "duration": 0.049,
      "midi": 63,
      "noteNumber": 63,
      "velocity": 0.54,
      "track": "(unnamed)",
      "channel": 2,
      "lane": "J"
    },
    {
      "time": 307.904,
      "duration": 0.007,
      "midi": 51,
      "noteNumber": 51,
      "velocity": 0.72,
      "track": "(unnamed)",
      "channel": 9,
      "lane": "F"
    },
    {
      "time": 307.941,
      "duration": 0.172,
      "midi": 66,
      "noteNumber": 66,
      "velocity": 0.85,
      "track": "(unnamed)",
      "channel": 3,
      "lane": "K"
    },
    {
      "time": 308.143,
      "duration": 0.007,
      "midi": 51,
      "noteNumber": 51,
      "velocity": 0.61,
      "track": "(unnamed)",
      "channel": 9,
      "lane": "F"
    },
    {
      "time": 308.263,
      "duration": 0.52,
      "midi": 46,
      "noteNumber": 46,
      "velocity": 0.71,
      "track": "(unnamed)",
      "channel": 2,
      "lane": "F"
    },
    {
      "time": 308.263,
      "duration": 0.007,
      "midi": 40,
      "noteNumber": 40,
      "velocity": 0.53,
      "track": "(unnamed)",
      "channel": 9,
      "lane": "D"
    },
    {
      "time": 308.263,
      "duration": 0.007,
      "midi": 51,
      "noteNumber": 51,
      "velocity": 0.69,
      "track": "(unnamed)",
      "channel": 9,
      "lane": "F"
    },
    {
      "time": 308.263,
      "duration": 0.273,
      "midi": 46,
      "noteNumber": 46,
      "velocity": 0.51,
      "track": "(unnamed)",
      "channel": 1,
      "lane": "F"
    },
    {
      "time": 308.278,
      "duration": 0.314,
      "midi": 58,
      "noteNumber": 58,
      "velocity": 0.54,
      "track": "(unnamed)",
      "channel": 3,
      "lane": "J"
    },
    {
      "time": 308.503,
      "duration": 0.007,
      "midi": 51,
      "noteNumber": 51,
      "velocity": 0.54,
      "track": "(unnamed)",
      "channel": 9,
      "lane": "F"
    },
    {
      "time": 308.548,
      "duration": 0.105,
      "midi": 59,
      "noteNumber": 59,
      "velocity": 0.56,
      "track": "(unnamed)",
      "channel": 3,
      "lane": "J"
    },
    {
      "time": 308.622,
      "duration": 0.12,
      "midi": 53,
      "noteNumber": 53,
      "velocity": 0.57,
      "track": "(unnamed)",
      "channel": 2,
      "lane": "F"
    },
    {
      "time": 308.622,
      "duration": 0.12,
      "midi": 56,
      "noteNumber": 56,
      "velocity": 0.74,
      "track": "(unnamed)",
      "channel": 2,
      "lane": "J"
    },
    {
      "time": 308.622,
      "duration": 0.124,
      "midi": 61,
      "noteNumber": 61,
      "velocity": 0.71,
      "track": "(unnamed)",
      "channel": 2,
      "lane": "J"
    },
    {
      "time": 308.622,
      "duration": 0.007,
      "midi": 51,
      "noteNumber": 51,
      "velocity": 0.83,
      "track": "(unnamed)",
      "channel": 9,
      "lane": "F"
    },
    {
      "time": 308.622,
      "duration": 0.079,
      "midi": 60,
      "noteNumber": 60,
      "velocity": 0.52,
      "track": "(unnamed)",
      "channel": 3,
      "lane": "J"
    },
    {
      "time": 308.622,
      "duration": 0.213,
      "midi": 34,
      "noteNumber": 34,
      "velocity": 0.51,
      "track": "(unnamed)",
      "channel": 1,
      "lane": "D"
    },
    {
      "time": 308.652,
      "duration": 0.12,
      "midi": 61,
      "noteNumber": 61,
      "velocity": 0.77,
      "track": "(unnamed)",
      "channel": 3,
      "lane": "J"
    },
    {
      "time": 308.742,
      "duration": 0.007,
      "midi": 40,
      "noteNumber": 40,
      "velocity": 0.26,
      "track": "(unnamed)",
      "channel": 9,
      "lane": "D"
    },
    {
      "time": 308.862,
      "duration": 0.007,
      "midi": 40,
      "noteNumber": 40,
      "velocity": 0.5,
      "track": "(unnamed)",
      "channel": 9,
      "lane": "D"
    },
    {
      "time": 308.982,
      "duration": 0.161,
      "midi": 39,
      "noteNumber": 39,
      "velocity": 0.6,
      "track": "(unnamed)",
      "channel": 2,
      "lane": "D"
    },
    {
      "time": 308.982,
      "duration": 0.007,
      "midi": 35,
      "noteNumber": 35,
      "velocity": 0.74,
      "track": "(unnamed)",
      "channel": 9,
      "lane": "D"
    },
    {
      "time": 308.982,
      "duration": 0.007,
      "midi": 51,
      "noteNumber": 51,
      "velocity": 0.72,
      "track": "(unnamed)",
      "channel": 9,
      "lane": "F"
    },
    {
      "time": 308.982,
      "duration": 0.876,
      "midi": 39,
      "noteNumber": 39,
      "velocity": 0.66,
      "track": "(unnamed)",
      "channel": 1,
      "lane": "D"
    },
    {
      "time": 309.015,
      "duration": 1.018,
      "midi": 63,
      "noteNumber": 63,
      "velocity": 0.71,
      "track": "(unnamed)",
      "channel": 3,
      "lane": "J"
    },
    {
      "time": 309.21,
      "duration": 0.056,
      "midi": 54,
      "noteNumber": 54,
      "velocity": 0.71,
      "track": "(unnamed)",
      "channel": 2,
      "lane": "J"
    },
    {
      "time": 309.21,
      "duration": 0.03,
      "midi": 58,
      "noteNumber": 58,
      "velocity": 0.54,
      "track": "(unnamed)",
      "channel": 2,
      "lane": "J"
    },
    {
      "time": 309.21,
      "duration": 0.06,
      "midi": 63,
      "noteNumber": 63,
      "velocity": 0.68,
      "track": "(unnamed)",
      "channel": 2,
      "lane": "J"
    },
    {
      "time": 309.341,
      "duration": 0.007,
      "midi": 51,
      "noteNumber": 51,
      "velocity": 0.72,
      "track": "(unnamed)",
      "channel": 9,
      "lane": "F"
    },
    {
      "time": 309.569,
      "duration": 0.112,
      "midi": 39,
      "noteNumber": 39,
      "velocity": 0.74,
      "track": "(unnamed)",
      "channel": 2,
      "lane": "D"
    },
    {
      "time": 309.58,
      "duration": 0.007,
      "midi": 40,
      "noteNumber": 40,
      "velocity": 0.53,
      "track": "(unnamed)",
      "channel": 9,
      "lane": "D"
    },
    {
      "time": 309.7,
      "duration": 0.086,
      "midi": 54,
      "noteNumber": 54,
      "velocity": 0.71,
      "track": "(unnamed)",
      "channel": 2,
      "lane": "J"
    },
    {
      "time": 309.7,
      "duration": 0.041,
      "midi": 58,
      "noteNumber": 58,
      "velocity": 0.68,
      "track": "(unnamed)",
      "channel": 2,
      "lane": "J"
    },
    {
      "time": 309.7,
      "duration": 0.049,
      "midi": 63,
      "noteNumber": 63,
      "velocity": 0.54,
      "track": "(unnamed)",
      "channel": 2,
      "lane": "J"
    },
    {
      "time": 309.7,
      "duration": 0.007,
      "midi": 51,
      "noteNumber": 51,
      "velocity": 0.72,
      "track": "(unnamed)",
      "channel": 9,
      "lane": "F"
    },
    {
      "time": 309.94,
      "duration": 0.007,
      "midi": 51,
      "noteNumber": 51,
      "velocity": 0.61,
      "track": "(unnamed)",
      "channel": 9,
      "lane": "F"
    },
    {
      "time": 310.06,
      "duration": 0.52,
      "midi": 46,
      "noteNumber": 46,
      "velocity": 0.71,
      "track": "(unnamed)",
      "channel": 2,
      "lane": "F"
    },
    {
      "time": 310.06,
      "duration": 0.007,
      "midi": 40,
      "noteNumber": 40,
      "velocity": 0.53,
      "track": "(unnamed)",
      "channel": 9,
      "lane": "D"
    },
    {
      "time": 310.06,
      "duration": 0.007,
      "midi": 51,
      "noteNumber": 51,
      "velocity": 0.69,
      "track": "(unnamed)",
      "channel": 9,
      "lane": "F"
    },
    {
      "time": 310.06,
      "duration": 0.273,
      "midi": 46,
      "noteNumber": 46,
      "velocity": 0.51,
      "track": "(unnamed)",
      "channel": 1,
      "lane": "F"
    },
    {
      "time": 310.063,
      "duration": 0.138,
      "midi": 61,
      "noteNumber": 61,
      "velocity": 0.66,
      "track": "(unnamed)",
      "channel": 3,
      "lane": "J"
    },
    {
      "time": 310.224,
      "duration": 0.071,
      "midi": 63,
      "noteNumber": 63,
      "velocity": 0.52,
      "track": "(unnamed)",
      "channel": 3,
      "lane": "J"
    },
    {
      "time": 310.292,
      "duration": 0.056,
      "midi": 61,
      "noteNumber": 61,
      "velocity": 0.52,
      "track": "(unnamed)",
      "channel": 3,
      "lane": "J"
    },
    {
      "time": 310.299,
      "duration": 0.007,
      "midi": 51,
      "noteNumber": 51,
      "velocity": 0.54,
      "track": "(unnamed)",
      "channel": 9,
      "lane": "F"
    },
    {
      "time": 310.348,
      "duration": 0.071,
      "midi": 58,
      "noteNumber": 58,
      "velocity": 0.74,
      "track": "(unnamed)",
      "channel": 3,
      "lane": "J"
    },
    {
      "time": 310.419,
      "duration": 0.12,
      "midi": 53,
      "noteNumber": 53,
      "velocity": 0.57,
      "track": "(unnamed)",
      "channel": 2,
      "lane": "F"
    },
    {
      "time": 310.419,
      "duration": 0.12,
      "midi": 56,
      "noteNumber": 56,
      "velocity": 0.74,
      "track": "(unnamed)",
      "channel": 2,
      "lane": "J"
    },
    {
      "time": 310.419,
      "duration": 0.124,
      "midi": 61,
      "noteNumber": 61,
      "velocity": 0.71,
      "track": "(unnamed)",
      "channel": 2,
      "lane": "J"
    },
    {
      "time": 310.419,
      "duration": 0.007,
      "midi": 51,
      "noteNumber": 51,
      "velocity": 0.83,
      "track": "(unnamed)",
      "channel": 9,
      "lane": "F"
    },
    {
      "time": 310.419,
      "duration": 0.213,
      "midi": 34,
      "noteNumber": 34,
      "velocity": 0.51,
      "track": "(unnamed)",
      "channel": 1,
      "lane": "D"
    },
    {
      "time": 310.426,
      "duration": 0.352,
      "midi": 56,
      "noteNumber": 56,
      "velocity": 0.63,
      "track": "(unnamed)",
      "channel": 3,
      "lane": "J"
    },
    {
      "time": 310.539,
      "duration": 0.007,
      "midi": 40,
      "noteNumber": 40,
      "velocity": 0.26,
      "track": "(unnamed)",
      "channel": 9,
      "lane": "D"
    },
    {
      "time": 310.658,
      "duration": 0.007,
      "midi": 40,
      "noteNumber": 40,
      "velocity": 0.5,
      "track": "(unnamed)",
      "channel": 9,
      "lane": "D"
    },
    {
      "time": 310.778,
      "duration": 0.161,
      "midi": 39,
      "noteNumber": 39,
      "velocity": 0.6,
      "track": "(unnamed)",
      "channel": 2,
      "lane": "D"
    },
    {
      "time": 310.778,
      "duration": 0.007,
      "midi": 35,
      "noteNumber": 35,
      "velocity": 0.74,
      "track": "(unnamed)",
      "channel": 9,
      "lane": "D"
    },
    {
      "time": 310.778,
      "duration": 0.007,
      "midi": 51,
      "noteNumber": 51,
      "velocity": 0.72,
      "track": "(unnamed)",
      "channel": 9,
      "lane": "F"
    },
    {
      "time": 310.778,
      "duration": 0.876,
      "midi": 39,
      "noteNumber": 39,
      "velocity": 0.66,
      "track": "(unnamed)",
      "channel": 1,
      "lane": "D"
    },
    {
      "time": 310.812,
      "duration": 1.018,
      "midi": 58,
      "noteNumber": 58,
      "velocity": 0.71,
      "track": "(unnamed)",
      "channel": 3,
      "lane": "J"
    },
    {
      "time": 311.006,
      "duration": 0.056,
      "midi": 54,
      "noteNumber": 54,
      "velocity": 0.71,
      "track": "(unnamed)",
      "channel": 2,
      "lane": "J"
    },
    {
      "time": 311.006,
      "duration": 0.03,
      "midi": 58,
      "noteNumber": 58,
      "velocity": 0.54,
      "track": "(unnamed)",
      "channel": 2,
      "lane": "J"
    },
    {
      "time": 311.006,
      "duration": 0.06,
      "midi": 63,
      "noteNumber": 63,
      "velocity": 0.68,
      "track": "(unnamed)",
      "channel": 2,
      "lane": "J"
    },
    {
      "time": 311.137,
      "duration": 0.007,
      "midi": 51,
      "noteNumber": 51,
      "velocity": 0.72,
      "track": "(unnamed)",
      "channel": 9,
      "lane": "F"
    },
    {
      "time": 311.366,
      "duration": 0.112,
      "midi": 39,
      "noteNumber": 39,
      "velocity": 0.74,
      "track": "(unnamed)",
      "channel": 2,
      "lane": "D"
    },
    {
      "time": 311.377,
      "duration": 0.007,
      "midi": 40,
      "noteNumber": 40,
      "velocity": 0.53,
      "track": "(unnamed)",
      "channel": 9,
      "lane": "D"
    },
    {
      "time": 311.497,
      "duration": 0.086,
      "midi": 54,
      "noteNumber": 54,
      "velocity": 0.71,
      "track": "(unnamed)",
      "channel": 2,
      "lane": "J"
    },
    {
      "time": 311.497,
      "duration": 0.041,
      "midi": 58,
      "noteNumber": 58,
      "velocity": 0.68,
      "track": "(unnamed)",
      "channel": 2,
      "lane": "J"
    },
    {
      "time": 311.497,
      "duration": 0.049,
      "midi": 63,
      "noteNumber": 63,
      "velocity": 0.54,
      "track": "(unnamed)",
      "channel": 2,
      "lane": "J"
    },
    {
      "time": 311.497,
      "duration": 0.007,
      "midi": 51,
      "noteNumber": 51,
      "velocity": 0.72,
      "track": "(unnamed)",
      "channel": 9,
      "lane": "F"
    },
    {
      "time": 311.736,
      "duration": 0.007,
      "midi": 51,
      "noteNumber": 51,
      "velocity": 0.61,
      "track": "(unnamed)",
      "channel": 9,
      "lane": "F"
    },
    {
      "time": 311.856,
      "duration": 0.52,
      "midi": 46,
      "noteNumber": 46,
      "velocity": 0.71,
      "track": "(unnamed)",
      "channel": 2,
      "lane": "F"
    },
    {
      "time": 311.856,
      "duration": 0.007,
      "midi": 40,
      "noteNumber": 40,
      "velocity": 0.53,
      "track": "(unnamed)",
      "channel": 9,
      "lane": "D"
    },
    {
      "time": 311.856,
      "duration": 0.007,
      "midi": 51,
      "noteNumber": 51,
      "velocity": 0.69,
      "track": "(unnamed)",
      "channel": 9,
      "lane": "F"
    },
    {
      "time": 311.856,
      "duration": 0.273,
      "midi": 46,
      "noteNumber": 46,
      "velocity": 0.51,
      "track": "(unnamed)",
      "channel": 1,
      "lane": "F"
    },
    {
      "time": 311.86,
      "duration": 0.138,
      "midi": 65,
      "noteNumber": 65,
      "velocity": 0.66,
      "track": "(unnamed)",
      "channel": 3,
      "lane": "J"
    },
    {
      "time": 312.021,
      "duration": 0.071,
      "midi": 66,
      "noteNumber": 66,
      "velocity": 0.52,
      "track": "(unnamed)",
      "channel": 3,
      "lane": "K"
    },
    {
      "time": 312.088,
      "duration": 0.056,
      "midi": 65,
      "noteNumber": 65,
      "velocity": 0.52,
      "track": "(unnamed)",
      "channel": 3,
      "lane": "J"
    },
    {
      "time": 312.095,
      "duration": 0.007,
      "midi": 51,
      "noteNumber": 51,
      "velocity": 0.54,
      "track": "(unnamed)",
      "channel": 9,
      "lane": "F"
    },
    {
      "time": 312.144,
      "duration": 0.071,
      "midi": 63,
      "noteNumber": 63,
      "velocity": 0.74,
      "track": "(unnamed)",
      "channel": 3,
      "lane": "J"
    },
    {
      "time": 312.215,
      "duration": 0.12,
      "midi": 53,
      "noteNumber": 53,
      "velocity": 0.57,
      "track": "(unnamed)",
      "channel": 2,
      "lane": "F"
    },
    {
      "time": 312.215,
      "duration": 0.12,
      "midi": 56,
      "noteNumber": 56,
      "velocity": 0.74,
      "track": "(unnamed)",
      "channel": 2,
      "lane": "J"
    },
    {
      "time": 312.215,
      "duration": 0.124,
      "midi": 61,
      "noteNumber": 61,
      "velocity": 0.71,
      "track": "(unnamed)",
      "channel": 2,
      "lane": "J"
    },
    {
      "time": 312.215,
      "duration": 0.007,
      "midi": 51,
      "noteNumber": 51,
      "velocity": 0.83,
      "track": "(unnamed)",
      "channel": 9,
      "lane": "F"
    },
    {
      "time": 312.215,
      "duration": 0.213,
      "midi": 34,
      "noteNumber": 34,
      "velocity": 0.51,
      "track": "(unnamed)",
      "channel": 1,
      "lane": "D"
    },
    {
      "time": 312.223,
      "duration": 0.352,
      "midi": 61,
      "noteNumber": 61,
      "velocity": 0.63,
      "track": "(unnamed)",
      "channel": 3,
      "lane": "J"
    },
    {
      "time": 312.335,
      "duration": 0.007,
      "midi": 40,
      "noteNumber": 40,
      "velocity": 0.26,
      "track": "(unnamed)",
      "channel": 9,
      "lane": "D"
    },
    {
      "time": 312.455,
      "duration": 0.007,
      "midi": 40,
      "noteNumber": 40,
      "velocity": 0.5,
      "track": "(unnamed)",
      "channel": 9,
      "lane": "D"
    },
    {
      "time": 312.574,
      "duration": 0.161,
      "midi": 39,
      "noteNumber": 39,
      "velocity": 0.6,
      "track": "(unnamed)",
      "channel": 2,
      "lane": "D"
    },
    {
      "time": 312.574,
      "duration": 0.007,
      "midi": 35,
      "noteNumber": 35,
      "velocity": 0.74,
      "track": "(unnamed)",
      "channel": 9,
      "lane": "D"
    },
    {
      "time": 312.574,
      "duration": 0.007,
      "midi": 51,
      "noteNumber": 51,
      "velocity": 0.72,
      "track": "(unnamed)",
      "channel": 9,
      "lane": "F"
    },
    {
      "time": 312.574,
      "duration": 0.876,
      "midi": 39,
      "noteNumber": 39,
      "velocity": 0.66,
      "track": "(unnamed)",
      "channel": 1,
      "lane": "D"
    },
    {
      "time": 312.586,
      "duration": 0.969,
      "midi": 63,
      "noteNumber": 63,
      "velocity": 0.56,
      "track": "(unnamed)",
      "channel": 3,
      "lane": "J"
    },
    {
      "time": 312.803,
      "duration": 0.056,
      "midi": 54,
      "noteNumber": 54,
      "velocity": 0.71,
      "track": "(unnamed)",
      "channel": 2,
      "lane": "J"
    },
    {
      "time": 312.803,
      "duration": 0.03,
      "midi": 58,
      "noteNumber": 58,
      "velocity": 0.54,
      "track": "(unnamed)",
      "channel": 2,
      "lane": "J"
    },
    {
      "time": 312.803,
      "duration": 0.06,
      "midi": 63,
      "noteNumber": 63,
      "velocity": 0.68,
      "track": "(unnamed)",
      "channel": 2,
      "lane": "J"
    },
    {
      "time": 312.934,
      "duration": 0.007,
      "midi": 51,
      "noteNumber": 51,
      "velocity": 0.72,
      "track": "(unnamed)",
      "channel": 9,
      "lane": "F"
    },
    {
      "time": 313.162,
      "duration": 0.112,
      "midi": 39,
      "noteNumber": 39,
      "velocity": 0.74,
      "track": "(unnamed)",
      "channel": 2,
      "lane": "D"
    },
    {
      "time": 313.173,
      "duration": 0.007,
      "midi": 40,
      "noteNumber": 40,
      "velocity": 0.53,
      "track": "(unnamed)",
      "channel": 9,
      "lane": "D"
    },
    {
      "time": 313.293,
      "duration": 0.086,
      "midi": 54,
      "noteNumber": 54,
      "velocity": 0.71,
      "track": "(unnamed)",
      "channel": 2,
      "lane": "J"
    },
    {
      "time": 313.293,
      "duration": 0.041,
      "midi": 58,
      "noteNumber": 58,
      "velocity": 0.68,
      "track": "(unnamed)",
      "channel": 2,
      "lane": "J"
    },
    {
      "time": 313.293,
      "duration": 0.049,
      "midi": 63,
      "noteNumber": 63,
      "velocity": 0.54,
      "track": "(unnamed)",
      "channel": 2,
      "lane": "J"
    },
    {
      "time": 313.293,
      "duration": 0.007,
      "midi": 51,
      "noteNumber": 51,
      "velocity": 0.72,
      "track": "(unnamed)",
      "channel": 9,
      "lane": "F"
    },
    {
      "time": 313.533,
      "duration": 0.007,
      "midi": 51,
      "noteNumber": 51,
      "velocity": 0.61,
      "track": "(unnamed)",
      "channel": 9,
      "lane": "F"
    },
    {
      "time": 313.652,
      "duration": 0.52,
      "midi": 46,
      "noteNumber": 46,
      "velocity": 0.71,
      "track": "(unnamed)",
      "channel": 2,
      "lane": "F"
    },
    {
      "time": 313.652,
      "duration": 0.007,
      "midi": 40,
      "noteNumber": 40,
      "velocity": 0.53,
      "track": "(unnamed)",
      "channel": 9,
      "lane": "D"
    },
    {
      "time": 313.652,
      "duration": 0.007,
      "midi": 51,
      "noteNumber": 51,
      "velocity": 0.69,
      "track": "(unnamed)",
      "channel": 9,
      "lane": "F"
    },
    {
      "time": 313.652,
      "duration": 0.273,
      "midi": 46,
      "noteNumber": 46,
      "velocity": 0.51,
      "track": "(unnamed)",
      "channel": 1,
      "lane": "F"
    },
    {
      "time": 313.892,
      "duration": 0.007,
      "midi": 51,
      "noteNumber": 51,
      "velocity": 0.54,
      "track": "(unnamed)",
      "channel": 9,
      "lane": "F"
    },
    {
      "time": 314.012,
      "duration": 0.12,
      "midi": 53,
      "noteNumber": 53,
      "velocity": 0.57,
      "track": "(unnamed)",
      "channel": 2,
      "lane": "F"
    },
    {
      "time": 314.012,
      "duration": 0.12,
      "midi": 56,
      "noteNumber": 56,
      "velocity": 0.74,
      "track": "(unnamed)",
      "channel": 2,
      "lane": "J"
    },
    {
      "time": 314.012,
      "duration": 0.124,
      "midi": 61,
      "noteNumber": 61,
      "velocity": 0.71,
      "track": "(unnamed)",
      "channel": 2,
      "lane": "J"
    },
    {
      "time": 314.012,
      "duration": 0.007,
      "midi": 51,
      "noteNumber": 51,
      "velocity": 0.83,
      "track": "(unnamed)",
      "channel": 9,
      "lane": "F"
    },
    {
      "time": 314.012,
      "duration": 0.213,
      "midi": 34,
      "noteNumber": 34,
      "velocity": 0.51,
      "track": "(unnamed)",
      "channel": 1,
      "lane": "D"
    },
    {
      "time": 314.131,
      "duration": 0.007,
      "midi": 40,
      "noteNumber": 40,
      "velocity": 0.26,
      "track": "(unnamed)",
      "channel": 9,
      "lane": "D"
    },
    {
      "time": 314.251,
      "duration": 0.007,
      "midi": 40,
      "noteNumber": 40,
      "velocity": 0.5,
      "track": "(unnamed)",
      "channel": 9,
      "lane": "D"
    },
    {
      "time": 314.371,
      "duration": 0.161,
      "midi": 39,
      "noteNumber": 39,
      "velocity": 0.6,
      "track": "(unnamed)",
      "channel": 2,
      "lane": "D"
    },
    {
      "time": 314.371,
      "duration": 0.007,
      "midi": 35,
      "noteNumber": 35,
      "velocity": 0.74,
      "track": "(unnamed)",
      "channel": 9,
      "lane": "D"
    },
    {
      "time": 314.371,
      "duration": 0.007,
      "midi": 51,
      "noteNumber": 51,
      "velocity": 0.72,
      "track": "(unnamed)",
      "channel": 9,
      "lane": "F"
    },
    {
      "time": 314.371,
      "duration": 0.876,
      "midi": 39,
      "noteNumber": 39,
      "velocity": 0.66,
      "track": "(unnamed)",
      "channel": 1,
      "lane": "D"
    },
    {
      "time": 314.599,
      "duration": 0.056,
      "midi": 54,
      "noteNumber": 54,
      "velocity": 0.71,
      "track": "(unnamed)",
      "channel": 2,
      "lane": "J"
    },
    {
      "time": 314.599,
      "duration": 0.03,
      "midi": 58,
      "noteNumber": 58,
      "velocity": 0.54,
      "track": "(unnamed)",
      "channel": 2,
      "lane": "J"
    },
    {
      "time": 314.599,
      "duration": 0.06,
      "midi": 63,
      "noteNumber": 63,
      "velocity": 0.68,
      "track": "(unnamed)",
      "channel": 2,
      "lane": "J"
    },
    {
      "time": 314.73,
      "duration": 0.007,
      "midi": 51,
      "noteNumber": 51,
      "velocity": 0.72,
      "track": "(unnamed)",
      "channel": 9,
      "lane": "F"
    },
    {
      "time": 314.958,
      "duration": 0.112,
      "midi": 39,
      "noteNumber": 39,
      "velocity": 0.74,
      "track": "(unnamed)",
      "channel": 2,
      "lane": "D"
    },
    {
      "time": 314.97,
      "duration": 0.007,
      "midi": 40,
      "noteNumber": 40,
      "velocity": 0.53,
      "track": "(unnamed)",
      "channel": 9,
      "lane": "D"
    },
    {
      "time": 315.089,
      "duration": 0.086,
      "midi": 54,
      "noteNumber": 54,
      "velocity": 0.71,
      "track": "(unnamed)",
      "channel": 2,
      "lane": "J"
    },
    {
      "time": 315.089,
      "duration": 0.041,
      "midi": 58,
      "noteNumber": 58,
      "velocity": 0.68,
      "track": "(unnamed)",
      "channel": 2,
      "lane": "J"
    },
    {
      "time": 315.089,
      "duration": 0.049,
      "midi": 63,
      "noteNumber": 63,
      "velocity": 0.54,
      "track": "(unnamed)",
      "channel": 2,
      "lane": "J"
    },
    {
      "time": 315.089,
      "duration": 0.007,
      "midi": 51,
      "noteNumber": 51,
      "velocity": 0.72,
      "track": "(unnamed)",
      "channel": 9,
      "lane": "F"
    },
    {
      "time": 315.329,
      "duration": 0.007,
      "midi": 51,
      "noteNumber": 51,
      "velocity": 0.61,
      "track": "(unnamed)",
      "channel": 9,
      "lane": "F"
    },
    {
      "time": 315.449,
      "duration": 0.52,
      "midi": 46,
      "noteNumber": 46,
      "velocity": 0.71,
      "track": "(unnamed)",
      "channel": 2,
      "lane": "F"
    },
    {
      "time": 315.449,
      "duration": 0.007,
      "midi": 40,
      "noteNumber": 40,
      "velocity": 0.53,
      "track": "(unnamed)",
      "channel": 9,
      "lane": "D"
    },
    {
      "time": 315.449,
      "duration": 0.007,
      "midi": 51,
      "noteNumber": 51,
      "velocity": 0.69,
      "track": "(unnamed)",
      "channel": 9,
      "lane": "F"
    },
    {
      "time": 315.449,
      "duration": 0.273,
      "midi": 46,
      "noteNumber": 46,
      "velocity": 0.51,
      "track": "(unnamed)",
      "channel": 1,
      "lane": "F"
    },
    {
      "time": 315.452,
      "duration": 0.138,
      "midi": 61,
      "noteNumber": 61,
      "velocity": 0.66,
      "track": "(unnamed)",
      "channel": 3,
      "lane": "J"
    },
    {
      "time": 315.613,
      "duration": 0.071,
      "midi": 63,
      "noteNumber": 63,
      "velocity": 0.52,
      "track": "(unnamed)",
      "channel": 3,
      "lane": "J"
    },
    {
      "time": 315.681,
      "duration": 0.056,
      "midi": 61,
      "noteNumber": 61,
      "velocity": 0.52,
      "track": "(unnamed)",
      "channel": 3,
      "lane": "J"
    },
    {
      "time": 315.688,
      "duration": 0.007,
      "midi": 51,
      "noteNumber": 51,
      "velocity": 0.54,
      "track": "(unnamed)",
      "channel": 9,
      "lane": "F"
    },
    {
      "time": 315.737,
      "duration": 0.071,
      "midi": 58,
      "noteNumber": 58,
      "velocity": 0.74,
      "track": "(unnamed)",
      "channel": 3,
      "lane": "J"
    },
    {
      "time": 315.808,
      "duration": 0.12,
      "midi": 53,
      "noteNumber": 53,
      "velocity": 0.57,
      "track": "(unnamed)",
      "channel": 2,
      "lane": "F"
    },
    {
      "time": 315.808,
      "duration": 0.12,
      "midi": 56,
      "noteNumber": 56,
      "velocity": 0.74,
      "track": "(unnamed)",
      "channel": 2,
      "lane": "J"
    },
    {
      "time": 315.808,
      "duration": 0.124,
      "midi": 61,
      "noteNumber": 61,
      "velocity": 0.71,
      "track": "(unnamed)",
      "channel": 2,
      "lane": "J"
    },
    {
      "time": 315.808,
      "duration": 0.007,
      "midi": 51,
      "noteNumber": 51,
      "velocity": 0.83,
      "track": "(unnamed)",
      "channel": 9,
      "lane": "F"
    },
    {
      "time": 315.808,
      "duration": 0.213,
      "midi": 46,
      "noteNumber": 46,
      "velocity": 0.51,
      "track": "(unnamed)",
      "channel": 1,
      "lane": "F"
    },
    {
      "time": 315.815,
      "duration": 0.352,
      "midi": 56,
      "noteNumber": 56,
      "velocity": 0.63,
      "track": "(unnamed)",
      "channel": 3,
      "lane": "J"
    },
    {
      "time": 315.928,
      "duration": 0.007,
      "midi": 40,
      "noteNumber": 40,
      "velocity": 0.26,
      "track": "(unnamed)",
      "channel": 9,
      "lane": "D"
    },
    {
      "time": 316.048,
      "duration": 0.007,
      "midi": 40,
      "noteNumber": 40,
      "velocity": 0.5,
      "track": "(unnamed)",
      "channel": 9,
      "lane": "D"
    },
    {
      "time": 316.167,
      "duration": 0.161,
      "midi": 39,
      "noteNumber": 39,
      "velocity": 0.6,
      "track": "(unnamed)",
      "channel": 2,
      "lane": "D"
    },
    {
      "time": 316.167,
      "duration": 0.007,
      "midi": 35,
      "noteNumber": 35,
      "velocity": 0.74,
      "track": "(unnamed)",
      "channel": 9,
      "lane": "D"
    },
    {
      "time": 316.167,
      "duration": 0.007,
      "midi": 51,
      "noteNumber": 51,
      "velocity": 0.72,
      "track": "(unnamed)",
      "channel": 9,
      "lane": "F"
    },
    {
      "time": 316.167,
      "duration": 0.876,
      "midi": 39,
      "noteNumber": 39,
      "velocity": 0.66,
      "track": "(unnamed)",
      "channel": 1,
      "lane": "D"
    },
    {
      "time": 316.201,
      "duration": 1.018,
      "midi": 58,
      "noteNumber": 58,
      "velocity": 0.71,
      "track": "(unnamed)",
      "channel": 3,
      "lane": "J"
    },
    {
      "time": 316.396,
      "duration": 0.056,
      "midi": 54,
      "noteNumber": 54,
      "velocity": 0.71,
      "track": "(unnamed)",
      "channel": 2,
      "lane": "J"
    },
    {
      "time": 316.396,
      "duration": 0.03,
      "midi": 58,
      "noteNumber": 58,
      "velocity": 0.54,
      "track": "(unnamed)",
      "channel": 2,
      "lane": "J"
    },
    {
      "time": 316.396,
      "duration": 0.06,
      "midi": 63,
      "noteNumber": 63,
      "velocity": 0.68,
      "track": "(unnamed)",
      "channel": 2,
      "lane": "J"
    },
    {
      "time": 316.527,
      "duration": 0.007,
      "midi": 51,
      "noteNumber": 51,
      "velocity": 0.72,
      "track": "(unnamed)",
      "channel": 9,
      "lane": "F"
    },
    {
      "time": 316.755,
      "duration": 0.112,
      "midi": 39,
      "noteNumber": 39,
      "velocity": 0.74,
      "track": "(unnamed)",
      "channel": 2,
      "lane": "D"
    },
    {
      "time": 316.766,
      "duration": 0.007,
      "midi": 40,
      "noteNumber": 40,
      "velocity": 0.53,
      "track": "(unnamed)",
      "channel": 9,
      "lane": "D"
    },
    {
      "time": 316.886,
      "duration": 0.086,
      "midi": 54,
      "noteNumber": 54,
      "velocity": 0.71,
      "track": "(unnamed)",
      "channel": 2,
      "lane": "J"
    },
    {
      "time": 316.886,
      "duration": 0.041,
      "midi": 58,
      "noteNumber": 58,
      "velocity": 0.68,
      "track": "(unnamed)",
      "channel": 2,
      "lane": "J"
    },
    {
      "time": 316.886,
      "duration": 0.049,
      "midi": 63,
      "noteNumber": 63,
      "velocity": 0.54,
      "track": "(unnamed)",
      "channel": 2,
      "lane": "J"
    },
    {
      "time": 316.886,
      "duration": 0.007,
      "midi": 51,
      "noteNumber": 51,
      "velocity": 0.72,
      "track": "(unnamed)",
      "channel": 9,
      "lane": "F"
    },
    {
      "time": 317.125,
      "duration": 0.007,
      "midi": 51,
      "noteNumber": 51,
      "velocity": 0.61,
      "track": "(unnamed)",
      "channel": 9,
      "lane": "F"
    },
    {
      "time": 317.245,
      "duration": 0.52,
      "midi": 46,
      "noteNumber": 46,
      "velocity": 0.71,
      "track": "(unnamed)",
      "channel": 2,
      "lane": "F"
    },
    {
      "time": 317.245,
      "duration": 0.007,
      "midi": 40,
      "noteNumber": 40,
      "velocity": 0.53,
      "track": "(unnamed)",
      "channel": 9,
      "lane": "D"
    },
    {
      "time": 317.245,
      "duration": 0.007,
      "midi": 51,
      "noteNumber": 51,
      "velocity": 0.69,
      "track": "(unnamed)",
      "channel": 9,
      "lane": "F"
    },
    {
      "time": 317.245,
      "duration": 0.273,
      "midi": 46,
      "noteNumber": 46,
      "velocity": 0.51,
      "track": "(unnamed)",
      "channel": 1,
      "lane": "F"
    },
    {
      "time": 317.485,
      "duration": 0.007,
      "midi": 51,
      "noteNumber": 51,
      "velocity": 0.54,
      "track": "(unnamed)",
      "channel": 9,
      "lane": "F"
    },
    {
      "time": 317.604,
      "duration": 0.12,
      "midi": 53,
      "noteNumber": 53,
      "velocity": 0.57,
      "track": "(unnamed)",
      "channel": 2,
      "lane": "F"
    },
    {
      "time": 317.604,
      "duration": 0.12,
      "midi": 56,
      "noteNumber": 56,
      "velocity": 0.74,
      "track": "(unnamed)",
      "channel": 2,
      "lane": "J"
    },
    {
      "time": 317.604,
      "duration": 0.124,
      "midi": 61,
      "noteNumber": 61,
      "velocity": 0.71,
      "track": "(unnamed)",
      "channel": 2,
      "lane": "J"
    },
    {
      "time": 317.604,
      "duration": 0.007,
      "midi": 51,
      "noteNumber": 51,
      "velocity": 0.83,
      "track": "(unnamed)",
      "channel": 9,
      "lane": "F"
    },
    {
      "time": 317.604,
      "duration": 0.213,
      "midi": 46,
      "noteNumber": 46,
      "velocity": 0.51,
      "track": "(unnamed)",
      "channel": 1,
      "lane": "F"
    },
    {
      "time": 317.724,
      "duration": 0.007,
      "midi": 40,
      "noteNumber": 40,
      "velocity": 0.26,
      "track": "(unnamed)",
      "channel": 9,
      "lane": "D"
    },
    {
      "time": 317.844,
      "duration": 0.007,
      "midi": 40,
      "noteNumber": 40,
      "velocity": 0.5,
      "track": "(unnamed)",
      "channel": 9,
      "lane": "D"
    },
    {
      "time": 317.964,
      "duration": 0.161,
      "midi": 39,
      "noteNumber": 39,
      "velocity": 0.6,
      "track": "(unnamed)",
      "channel": 2,
      "lane": "D"
    },
    {
      "time": 317.964,
      "duration": 0.007,
      "midi": 35,
      "noteNumber": 35,
      "velocity": 0.74,
      "track": "(unnamed)",
      "channel": 9,
      "lane": "D"
    },
    {
      "time": 317.964,
      "duration": 0.007,
      "midi": 51,
      "noteNumber": 51,
      "velocity": 0.72,
      "track": "(unnamed)",
      "channel": 9,
      "lane": "F"
    },
    {
      "time": 317.964,
      "duration": 0.876,
      "midi": 39,
      "noteNumber": 39,
      "velocity": 0.66,
      "track": "(unnamed)",
      "channel": 1,
      "lane": "D"
    },
    {
      "time": 318.192,
      "duration": 0.056,
      "midi": 54,
      "noteNumber": 54,
      "velocity": 0.71,
      "track": "(unnamed)",
      "channel": 2,
      "lane": "J"
    },
    {
      "time": 318.192,
      "duration": 0.03,
      "midi": 58,
      "noteNumber": 58,
      "velocity": 0.54,
      "track": "(unnamed)",
      "channel": 2,
      "lane": "J"
    },
    {
      "time": 318.192,
      "duration": 0.06,
      "midi": 63,
      "noteNumber": 63,
      "velocity": 0.68,
      "track": "(unnamed)",
      "channel": 2,
      "lane": "J"
    },
    {
      "time": 318.323,
      "duration": 0.007,
      "midi": 51,
      "noteNumber": 51,
      "velocity": 0.72,
      "track": "(unnamed)",
      "channel": 9,
      "lane": "F"
    },
    {
      "time": 318.551,
      "duration": 0.112,
      "midi": 39,
      "noteNumber": 39,
      "velocity": 0.74,
      "track": "(unnamed)",
      "channel": 2,
      "lane": "D"
    },
    {
      "time": 318.562,
      "duration": 0.007,
      "midi": 40,
      "noteNumber": 40,
      "velocity": 0.53,
      "track": "(unnamed)",
      "channel": 9,
      "lane": "D"
    },
    {
      "time": 318.682,
      "duration": 0.086,
      "midi": 54,
      "noteNumber": 54,
      "velocity": 0.71,
      "track": "(unnamed)",
      "channel": 2,
      "lane": "J"
    },
    {
      "time": 318.682,
      "duration": 0.041,
      "midi": 58,
      "noteNumber": 58,
      "velocity": 0.68,
      "track": "(unnamed)",
      "channel": 2,
      "lane": "J"
    },
    {
      "time": 318.682,
      "duration": 0.049,
      "midi": 63,
      "noteNumber": 63,
      "velocity": 0.54,
      "track": "(unnamed)",
      "channel": 2,
      "lane": "J"
    },
    {
      "time": 318.682,
      "duration": 0.007,
      "midi": 51,
      "noteNumber": 51,
      "velocity": 0.72,
      "track": "(unnamed)",
      "channel": 9,
      "lane": "F"
    },
    {
      "time": 318.922,
      "duration": 0.007,
      "midi": 51,
      "noteNumber": 51,
      "velocity": 0.61,
      "track": "(unnamed)",
      "channel": 9,
      "lane": "F"
    },
    {
      "time": 319.042,
      "duration": 0.52,
      "midi": 46,
      "noteNumber": 46,
      "velocity": 0.71,
      "track": "(unnamed)",
      "channel": 2,
      "lane": "F"
    },
    {
      "time": 319.042,
      "duration": 0.007,
      "midi": 40,
      "noteNumber": 40,
      "velocity": 0.53,
      "track": "(unnamed)",
      "channel": 9,
      "lane": "D"
    },
    {
      "time": 319.042,
      "duration": 0.007,
      "midi": 51,
      "noteNumber": 51,
      "velocity": 0.69,
      "track": "(unnamed)",
      "channel": 9,
      "lane": "F"
    },
    {
      "time": 319.042,
      "duration": 0.273,
      "midi": 46,
      "noteNumber": 46,
      "velocity": 0.51,
      "track": "(unnamed)",
      "channel": 1,
      "lane": "F"
    },
    {
      "time": 319.045,
      "duration": 0.138,
      "midi": 61,
      "noteNumber": 61,
      "velocity": 0.66,
      "track": "(unnamed)",
      "channel": 3,
      "lane": "J"
    },
    {
      "time": 319.206,
      "duration": 0.071,
      "midi": 63,
      "noteNumber": 63,
      "velocity": 0.52,
      "track": "(unnamed)",
      "channel": 3,
      "lane": "J"
    },
    {
      "time": 319.274,
      "duration": 0.056,
      "midi": 61,
      "noteNumber": 61,
      "velocity": 0.52,
      "track": "(unnamed)",
      "channel": 3,
      "lane": "J"
    },
    {
      "time": 319.281,
      "duration": 0.007,
      "midi": 51,
      "noteNumber": 51,
      "velocity": 0.54,
      "track": "(unnamed)",
      "channel": 9,
      "lane": "F"
    },
    {
      "time": 319.33,
      "duration": 0.071,
      "midi": 58,
      "noteNumber": 58,
      "velocity": 0.74,
      "track": "(unnamed)",
      "channel": 3,
      "lane": "J"
    },
    {
      "time": 319.401,
      "duration": 0.12,
      "midi": 53,
      "noteNumber": 53,
      "velocity": 0.57,
      "track": "(unnamed)",
      "channel": 2,
      "lane": "F"
    },
    {
      "time": 319.401,
      "duration": 0.12,
      "midi": 56,
      "noteNumber": 56,
      "velocity": 0.74,
      "track": "(unnamed)",
      "channel": 2,
      "lane": "J"
    },
    {
      "time": 319.401,
      "duration": 0.124,
      "midi": 61,
      "noteNumber": 61,
      "velocity": 0.71,
      "track": "(unnamed)",
      "channel": 2,
      "lane": "J"
    },
    {
      "time": 319.401,
      "duration": 0.007,
      "midi": 51,
      "noteNumber": 51,
      "velocity": 0.83,
      "track": "(unnamed)",
      "channel": 9,
      "lane": "F"
    },
    {
      "time": 319.401,
      "duration": 0.213,
      "midi": 46,
      "noteNumber": 46,
      "velocity": 0.51,
      "track": "(unnamed)",
      "channel": 1,
      "lane": "F"
    },
    {
      "time": 319.408,
      "duration": 0.352,
      "midi": 56,
      "noteNumber": 56,
      "velocity": 0.63,
      "track": "(unnamed)",
      "channel": 3,
      "lane": "J"
    },
    {
      "time": 319.521,
      "duration": 0.007,
      "midi": 40,
      "noteNumber": 40,
      "velocity": 0.26,
      "track": "(unnamed)",
      "channel": 9,
      "lane": "D"
    },
    {
      "time": 319.64,
      "duration": 0.007,
      "midi": 40,
      "noteNumber": 40,
      "velocity": 0.5,
      "track": "(unnamed)",
      "channel": 9,
      "lane": "D"
    },
    {
      "time": 319.76,
      "duration": 0.161,
      "midi": 39,
      "noteNumber": 39,
      "velocity": 0.6,
      "track": "(unnamed)",
      "channel": 2,
      "lane": "D"
    },
    {
      "time": 319.76,
      "duration": 0.007,
      "midi": 35,
      "noteNumber": 35,
      "velocity": 0.74,
      "track": "(unnamed)",
      "channel": 9,
      "lane": "D"
    },
    {
      "time": 319.76,
      "duration": 0.007,
      "midi": 51,
      "noteNumber": 51,
      "velocity": 0.72,
      "track": "(unnamed)",
      "channel": 9,
      "lane": "F"
    },
    {
      "time": 319.76,
      "duration": 0.876,
      "midi": 39,
      "noteNumber": 39,
      "velocity": 0.66,
      "track": "(unnamed)",
      "channel": 1,
      "lane": "D"
    },
    {
      "time": 319.794,
      "duration": 1.018,
      "midi": 58,
      "noteNumber": 58,
      "velocity": 0.71,
      "track": "(unnamed)",
      "channel": 3,
      "lane": "J"
    },
    {
      "time": 319.988,
      "duration": 0.056,
      "midi": 54,
      "noteNumber": 54,
      "velocity": 0.71,
      "track": "(unnamed)",
      "channel": 2,
      "lane": "J"
    },
    {
      "time": 319.988,
      "duration": 0.03,
      "midi": 58,
      "noteNumber": 58,
      "velocity": 0.54,
      "track": "(unnamed)",
      "channel": 2,
      "lane": "J"
    },
    {
      "time": 319.988,
      "duration": 0.06,
      "midi": 63,
      "noteNumber": 63,
      "velocity": 0.68,
      "track": "(unnamed)",
      "channel": 2,
      "lane": "J"
    },
    {
      "time": 320.119,
      "duration": 0.007,
      "midi": 51,
      "noteNumber": 51,
      "velocity": 0.72,
      "track": "(unnamed)",
      "channel": 9,
      "lane": "F"
    },
    {
      "time": 320.348,
      "duration": 0.112,
      "midi": 39,
      "noteNumber": 39,
      "velocity": 0.74,
      "track": "(unnamed)",
      "channel": 2,
      "lane": "D"
    },
    {
      "time": 320.359,
      "duration": 0.007,
      "midi": 40,
      "noteNumber": 40,
      "velocity": 0.53,
      "track": "(unnamed)",
      "channel": 9,
      "lane": "D"
    },
    {
      "time": 320.479,
      "duration": 0.086,
      "midi": 54,
      "noteNumber": 54,
      "velocity": 0.71,
      "track": "(unnamed)",
      "channel": 2,
      "lane": "J"
    },
    {
      "time": 320.479,
      "duration": 0.041,
      "midi": 58,
      "noteNumber": 58,
      "velocity": 0.68,
      "track": "(unnamed)",
      "channel": 2,
      "lane": "J"
    },
    {
      "time": 320.479,
      "duration": 0.049,
      "midi": 63,
      "noteNumber": 63,
      "velocity": 0.54,
      "track": "(unnamed)",
      "channel": 2,
      "lane": "J"
    },
    {
      "time": 320.479,
      "duration": 0.007,
      "midi": 51,
      "noteNumber": 51,
      "velocity": 0.72,
      "track": "(unnamed)",
      "channel": 9,
      "lane": "F"
    },
    {
      "time": 320.718,
      "duration": 0.007,
      "midi": 51,
      "noteNumber": 51,
      "velocity": 0.61,
      "track": "(unnamed)",
      "channel": 9,
      "lane": "F"
    },
    {
      "time": 320.838,
      "duration": 0.52,
      "midi": 46,
      "noteNumber": 46,
      "velocity": 0.71,
      "track": "(unnamed)",
      "channel": 2,
      "lane": "F"
    },
    {
      "time": 320.838,
      "duration": 0.007,
      "midi": 40,
      "noteNumber": 40,
      "velocity": 0.53,
      "track": "(unnamed)",
      "channel": 9,
      "lane": "D"
    },
    {
      "time": 320.838,
      "duration": 0.007,
      "midi": 51,
      "noteNumber": 51,
      "velocity": 0.69,
      "track": "(unnamed)",
      "channel": 9,
      "lane": "F"
    },
    {
      "time": 320.838,
      "duration": 0.273,
      "midi": 46,
      "noteNumber": 46,
      "velocity": 0.51,
      "track": "(unnamed)",
      "channel": 1,
      "lane": "F"
    },
    {
      "time": 321.077,
      "duration": 0.007,
      "midi": 51,
      "noteNumber": 51,
      "velocity": 0.54,
      "track": "(unnamed)",
      "channel": 9,
      "lane": "F"
    },
    {
      "time": 321.197,
      "duration": 0.12,
      "midi": 53,
      "noteNumber": 53,
      "velocity": 0.57,
      "track": "(unnamed)",
      "channel": 2,
      "lane": "F"
    },
    {
      "time": 321.197,
      "duration": 0.12,
      "midi": 56,
      "noteNumber": 56,
      "velocity": 0.74,
      "track": "(unnamed)",
      "channel": 2,
      "lane": "J"
    },
    {
      "time": 321.197,
      "duration": 0.124,
      "midi": 61,
      "noteNumber": 61,
      "velocity": 0.71,
      "track": "(unnamed)",
      "channel": 2,
      "lane": "J"
    },
    {
      "time": 321.197,
      "duration": 0.007,
      "midi": 51,
      "noteNumber": 51,
      "velocity": 0.83,
      "track": "(unnamed)",
      "channel": 9,
      "lane": "F"
    },
    {
      "time": 321.197,
      "duration": 0.213,
      "midi": 46,
      "noteNumber": 46,
      "velocity": 0.51,
      "track": "(unnamed)",
      "channel": 1,
      "lane": "F"
    },
    {
      "time": 321.317,
      "duration": 0.007,
      "midi": 40,
      "noteNumber": 40,
      "velocity": 0.26,
      "track": "(unnamed)",
      "channel": 9,
      "lane": "D"
    },
    {
      "time": 321.437,
      "duration": 0.007,
      "midi": 40,
      "noteNumber": 40,
      "velocity": 0.5,
      "track": "(unnamed)",
      "channel": 9,
      "lane": "D"
    },
    {
      "time": 321.556,
      "duration": 0.161,
      "midi": 39,
      "noteNumber": 39,
      "velocity": 0.6,
      "track": "(unnamed)",
      "channel": 2,
      "lane": "D"
    },
    {
      "time": 321.556,
      "duration": 0.007,
      "midi": 35,
      "noteNumber": 35,
      "velocity": 0.74,
      "track": "(unnamed)",
      "channel": 9,
      "lane": "D"
    },
    {
      "time": 321.556,
      "duration": 0.007,
      "midi": 51,
      "noteNumber": 51,
      "velocity": 0.72,
      "track": "(unnamed)",
      "channel": 9,
      "lane": "F"
    },
    {
      "time": 321.556,
      "duration": 0.876,
      "midi": 39,
      "noteNumber": 39,
      "velocity": 0.66,
      "track": "(unnamed)",
      "channel": 1,
      "lane": "D"
    },
    {
      "time": 321.785,
      "duration": 0.056,
      "midi": 54,
      "noteNumber": 54,
      "velocity": 0.71,
      "track": "(unnamed)",
      "channel": 2,
      "lane": "J"
    },
    {
      "time": 321.785,
      "duration": 0.03,
      "midi": 58,
      "noteNumber": 58,
      "velocity": 0.54,
      "track": "(unnamed)",
      "channel": 2,
      "lane": "J"
    },
    {
      "time": 321.785,
      "duration": 0.06,
      "midi": 63,
      "noteNumber": 63,
      "velocity": 0.68,
      "track": "(unnamed)",
      "channel": 2,
      "lane": "J"
    },
    {
      "time": 321.916,
      "duration": 0.007,
      "midi": 51,
      "noteNumber": 51,
      "velocity": 0.72,
      "track": "(unnamed)",
      "channel": 9,
      "lane": "F"
    },
    {
      "time": 322.144,
      "duration": 0.112,
      "midi": 39,
      "noteNumber": 39,
      "velocity": 0.74,
      "track": "(unnamed)",
      "channel": 2,
      "lane": "D"
    },
    {
      "time": 322.155,
      "duration": 0.007,
      "midi": 40,
      "noteNumber": 40,
      "velocity": 0.53,
      "track": "(unnamed)",
      "channel": 9,
      "lane": "D"
    },
    {
      "time": 322.275,
      "duration": 0.086,
      "midi": 54,
      "noteNumber": 54,
      "velocity": 0.71,
      "track": "(unnamed)",
      "channel": 2,
      "lane": "J"
    },
    {
      "time": 322.275,
      "duration": 0.041,
      "midi": 58,
      "noteNumber": 58,
      "velocity": 0.68,
      "track": "(unnamed)",
      "channel": 2,
      "lane": "J"
    },
    {
      "time": 322.275,
      "duration": 0.049,
      "midi": 63,
      "noteNumber": 63,
      "velocity": 0.54,
      "track": "(unnamed)",
      "channel": 2,
      "lane": "J"
    },
    {
      "time": 322.275,
      "duration": 0.007,
      "midi": 51,
      "noteNumber": 51,
      "velocity": 0.72,
      "track": "(unnamed)",
      "channel": 9,
      "lane": "F"
    },
    {
      "time": 322.515,
      "duration": 0.007,
      "midi": 51,
      "noteNumber": 51,
      "velocity": 0.61,
      "track": "(unnamed)",
      "channel": 9,
      "lane": "F"
    },
    {
      "time": 322.634,
      "duration": 0.52,
      "midi": 46,
      "noteNumber": 46,
      "velocity": 0.71,
      "track": "(unnamed)",
      "channel": 2,
      "lane": "F"
    },
    {
      "time": 322.634,
      "duration": 0.007,
      "midi": 40,
      "noteNumber": 40,
      "velocity": 0.53,
      "track": "(unnamed)",
      "channel": 9,
      "lane": "D"
    },
    {
      "time": 322.634,
      "duration": 0.007,
      "midi": 51,
      "noteNumber": 51,
      "velocity": 0.69,
      "track": "(unnamed)",
      "channel": 9,
      "lane": "F"
    },
    {
      "time": 322.634,
      "duration": 0.273,
      "midi": 46,
      "noteNumber": 46,
      "velocity": 0.51,
      "track": "(unnamed)",
      "channel": 1,
      "lane": "F"
    },
    {
      "time": 322.638,
      "duration": 0.138,
      "midi": 65,
      "noteNumber": 65,
      "velocity": 0.66,
      "track": "(unnamed)",
      "channel": 3,
      "lane": "J"
    },
    {
      "time": 322.799,
      "duration": 0.071,
      "midi": 66,
      "noteNumber": 66,
      "velocity": 0.52,
      "track": "(unnamed)",
      "channel": 3,
      "lane": "K"
    },
    {
      "time": 322.866,
      "duration": 0.056,
      "midi": 65,
      "noteNumber": 65,
      "velocity": 0.52,
      "track": "(unnamed)",
      "channel": 3,
      "lane": "J"
    },
    {
      "time": 322.874,
      "duration": 0.007,
      "midi": 51,
      "noteNumber": 51,
      "velocity": 0.54,
      "track": "(unnamed)",
      "channel": 9,
      "lane": "F"
    },
    {
      "time": 322.923,
      "duration": 0.071,
      "midi": 63,
      "noteNumber": 63,
      "velocity": 0.74,
      "track": "(unnamed)",
      "channel": 3,
      "lane": "J"
    },
    {
      "time": 322.994,
      "duration": 0.12,
      "midi": 53,
      "noteNumber": 53,
      "velocity": 0.57,
      "track": "(unnamed)",
      "channel": 2,
      "lane": "F"
    },
    {
      "time": 322.994,
      "duration": 0.12,
      "midi": 56,
      "noteNumber": 56,
      "velocity": 0.74,
      "track": "(unnamed)",
      "channel": 2,
      "lane": "J"
    },
    {
      "time": 322.994,
      "duration": 0.124,
      "midi": 61,
      "noteNumber": 61,
      "velocity": 0.71,
      "track": "(unnamed)",
      "channel": 2,
      "lane": "J"
    },
    {
      "time": 322.994,
      "duration": 0.007,
      "midi": 51,
      "noteNumber": 51,
      "velocity": 0.83,
      "track": "(unnamed)",
      "channel": 9,
      "lane": "F"
    },
    {
      "time": 322.994,
      "duration": 0.213,
      "midi": 46,
      "noteNumber": 46,
      "velocity": 0.51,
      "track": "(unnamed)",
      "channel": 1,
      "lane": "F"
    },
    {
      "time": 323.001,
      "duration": 0.352,
      "midi": 61,
      "noteNumber": 61,
      "velocity": 0.63,
      "track": "(unnamed)",
      "channel": 3,
      "lane": "J"
    },
    {
      "time": 323.113,
      "duration": 0.007,
      "midi": 40,
      "noteNumber": 40,
      "velocity": 0.26,
      "track": "(unnamed)",
      "channel": 9,
      "lane": "D"
    },
    {
      "time": 323.233,
      "duration": 0.007,
      "midi": 40,
      "noteNumber": 40,
      "velocity": 0.5,
      "track": "(unnamed)",
      "channel": 9,
      "lane": "D"
    },
    {
      "time": 323.353,
      "duration": 0.161,
      "midi": 39,
      "noteNumber": 39,
      "velocity": 0.6,
      "track": "(unnamed)",
      "channel": 2,
      "lane": "D"
    },
    {
      "time": 323.353,
      "duration": 0.007,
      "midi": 35,
      "noteNumber": 35,
      "velocity": 0.74,
      "track": "(unnamed)",
      "channel": 9,
      "lane": "D"
    },
    {
      "time": 323.353,
      "duration": 0.007,
      "midi": 51,
      "noteNumber": 51,
      "velocity": 0.72,
      "track": "(unnamed)",
      "channel": 9,
      "lane": "F"
    },
    {
      "time": 323.353,
      "duration": 0.876,
      "midi": 39,
      "noteNumber": 39,
      "velocity": 0.66,
      "track": "(unnamed)",
      "channel": 1,
      "lane": "D"
    },
    {
      "time": 323.39,
      "duration": 4.85,
      "midi": 63,
      "noteNumber": 63,
      "velocity": 0.5,
      "track": "(unnamed)",
      "channel": 3,
      "lane": "J"
    },
    {
      "time": 323.581,
      "duration": 0.056,
      "midi": 54,
      "noteNumber": 54,
      "velocity": 0.71,
      "track": "(unnamed)",
      "channel": 2,
      "lane": "J"
    },
    {
      "time": 323.581,
      "duration": 0.03,
      "midi": 58,
      "noteNumber": 58,
      "velocity": 0.54,
      "track": "(unnamed)",
      "channel": 2,
      "lane": "J"
    },
    {
      "time": 323.581,
      "duration": 0.06,
      "midi": 63,
      "noteNumber": 63,
      "velocity": 0.68,
      "track": "(unnamed)",
      "channel": 2,
      "lane": "J"
    },
    {
      "time": 323.712,
      "duration": 0.007,
      "midi": 51,
      "noteNumber": 51,
      "velocity": 0.72,
      "track": "(unnamed)",
      "channel": 9,
      "lane": "F"
    },
    {
      "time": 323.94,
      "duration": 0.112,
      "midi": 39,
      "noteNumber": 39,
      "velocity": 0.74,
      "track": "(unnamed)",
      "channel": 2,
      "lane": "D"
    },
    {
      "time": 323.952,
      "duration": 0.007,
      "midi": 40,
      "noteNumber": 40,
      "velocity": 0.53,
      "track": "(unnamed)",
      "channel": 9,
      "lane": "D"
    },
    {
      "time": 324.071,
      "duration": 0.086,
      "midi": 54,
      "noteNumber": 54,
      "velocity": 0.71,
      "track": "(unnamed)",
      "channel": 2,
      "lane": "J"
    },
    {
      "time": 324.071,
      "duration": 0.041,
      "midi": 58,
      "noteNumber": 58,
      "velocity": 0.68,
      "track": "(unnamed)",
      "channel": 2,
      "lane": "J"
    },
    {
      "time": 324.071,
      "duration": 0.049,
      "midi": 63,
      "noteNumber": 63,
      "velocity": 0.54,
      "track": "(unnamed)",
      "channel": 2,
      "lane": "J"
    },
    {
      "time": 324.071,
      "duration": 0.007,
      "midi": 51,
      "noteNumber": 51,
      "velocity": 0.72,
      "track": "(unnamed)",
      "channel": 9,
      "lane": "F"
    },
    {
      "time": 324.311,
      "duration": 0.007,
      "midi": 51,
      "noteNumber": 51,
      "velocity": 0.61,
      "track": "(unnamed)",
      "channel": 9,
      "lane": "F"
    },
    {
      "time": 324.431,
      "duration": 0.52,
      "midi": 46,
      "noteNumber": 46,
      "velocity": 0.71,
      "track": "(unnamed)",
      "channel": 2,
      "lane": "F"
    },
    {
      "time": 324.431,
      "duration": 0.007,
      "midi": 40,
      "noteNumber": 40,
      "velocity": 0.53,
      "track": "(unnamed)",
      "channel": 9,
      "lane": "D"
    },
    {
      "time": 324.431,
      "duration": 0.007,
      "midi": 51,
      "noteNumber": 51,
      "velocity": 0.69,
      "track": "(unnamed)",
      "channel": 9,
      "lane": "F"
    },
    {
      "time": 324.431,
      "duration": 0.273,
      "midi": 46,
      "noteNumber": 46,
      "velocity": 0.51,
      "track": "(unnamed)",
      "channel": 1,
      "lane": "F"
    },
    {
      "time": 324.67,
      "duration": 0.007,
      "midi": 51,
      "noteNumber": 51,
      "velocity": 0.54,
      "track": "(unnamed)",
      "channel": 9,
      "lane": "F"
    },
    {
      "time": 324.79,
      "duration": 0.12,
      "midi": 53,
      "noteNumber": 53,
      "velocity": 0.57,
      "track": "(unnamed)",
      "channel": 2,
      "lane": "F"
    },
    {
      "time": 324.79,
      "duration": 0.12,
      "midi": 56,
      "noteNumber": 56,
      "velocity": 0.74,
      "track": "(unnamed)",
      "channel": 2,
      "lane": "J"
    },
    {
      "time": 324.79,
      "duration": 0.124,
      "midi": 61,
      "noteNumber": 61,
      "velocity": 0.71,
      "track": "(unnamed)",
      "channel": 2,
      "lane": "J"
    },
    {
      "time": 324.79,
      "duration": 0.007,
      "midi": 51,
      "noteNumber": 51,
      "velocity": 0.83,
      "track": "(unnamed)",
      "channel": 9,
      "lane": "F"
    },
    {
      "time": 324.79,
      "duration": 0.213,
      "midi": 46,
      "noteNumber": 46,
      "velocity": 0.51,
      "track": "(unnamed)",
      "channel": 1,
      "lane": "F"
    },
    {
      "time": 324.91,
      "duration": 0.007,
      "midi": 40,
      "noteNumber": 40,
      "velocity": 0.26,
      "track": "(unnamed)",
      "channel": 9,
      "lane": "D"
    },
    {
      "time": 325.03,
      "duration": 0.007,
      "midi": 40,
      "noteNumber": 40,
      "velocity": 0.5,
      "track": "(unnamed)",
      "channel": 9,
      "lane": "D"
    },
    {
      "time": 325.149,
      "duration": 0.161,
      "midi": 39,
      "noteNumber": 39,
      "velocity": 0.6,
      "track": "(unnamed)",
      "channel": 2,
      "lane": "D"
    },
    {
      "time": 325.149,
      "duration": 0.007,
      "midi": 35,
      "noteNumber": 35,
      "velocity": 0.74,
      "track": "(unnamed)",
      "channel": 9,
      "lane": "D"
    },
    {
      "time": 325.149,
      "duration": 0.007,
      "midi": 51,
      "noteNumber": 51,
      "velocity": 0.72,
      "track": "(unnamed)",
      "channel": 9,
      "lane": "F"
    },
    {
      "time": 325.149,
      "duration": 0.876,
      "midi": 39,
      "noteNumber": 39,
      "velocity": 0.66,
      "track": "(unnamed)",
      "channel": 1,
      "lane": "D"
    },
    {
      "time": 325.378,
      "duration": 0.056,
      "midi": 54,
      "noteNumber": 54,
      "velocity": 0.71,
      "track": "(unnamed)",
      "channel": 2,
      "lane": "J"
    },
    {
      "time": 325.378,
      "duration": 0.03,
      "midi": 58,
      "noteNumber": 58,
      "velocity": 0.54,
      "track": "(unnamed)",
      "channel": 2,
      "lane": "J"
    },
    {
      "time": 325.378,
      "duration": 0.06,
      "midi": 63,
      "noteNumber": 63,
      "velocity": 0.68,
      "track": "(unnamed)",
      "channel": 2,
      "lane": "J"
    },
    {
      "time": 325.509,
      "duration": 0.007,
      "midi": 51,
      "noteNumber": 51,
      "velocity": 0.72,
      "track": "(unnamed)",
      "channel": 9,
      "lane": "F"
    },
    {
      "time": 325.737,
      "duration": 0.112,
      "midi": 39,
      "noteNumber": 39,
      "velocity": 0.74,
      "track": "(unnamed)",
      "channel": 2,
      "lane": "D"
    },
    {
      "time": 325.748,
      "duration": 0.007,
      "midi": 40,
      "noteNumber": 40,
      "velocity": 0.53,
      "track": "(unnamed)",
      "channel": 9,
      "lane": "D"
    },
    {
      "time": 325.868,
      "duration": 0.086,
      "midi": 54,
      "noteNumber": 54,
      "velocity": 0.71,
      "track": "(unnamed)",
      "channel": 2,
      "lane": "J"
    },
    {
      "time": 325.868,
      "duration": 0.041,
      "midi": 58,
      "noteNumber": 58,
      "velocity": 0.68,
      "track": "(unnamed)",
      "channel": 2,
      "lane": "J"
    },
    {
      "time": 325.868,
      "duration": 0.049,
      "midi": 63,
      "noteNumber": 63,
      "velocity": 0.54,
      "track": "(unnamed)",
      "channel": 2,
      "lane": "J"
    },
    {
      "time": 325.868,
      "duration": 0.007,
      "midi": 51,
      "noteNumber": 51,
      "velocity": 0.72,
      "track": "(unnamed)",
      "channel": 9,
      "lane": "F"
    },
    {
      "time": 326.107,
      "duration": 0.007,
      "midi": 51,
      "noteNumber": 51,
      "velocity": 0.61,
      "track": "(unnamed)",
      "channel": 9,
      "lane": "F"
    },
    {
      "time": 326.227,
      "duration": 0.52,
      "midi": 46,
      "noteNumber": 46,
      "velocity": 0.71,
      "track": "(unnamed)",
      "channel": 2,
      "lane": "F"
    },
    {
      "time": 326.227,
      "duration": 0.007,
      "midi": 40,
      "noteNumber": 40,
      "velocity": 0.53,
      "track": "(unnamed)",
      "channel": 9,
      "lane": "D"
    },
    {
      "time": 326.227,
      "duration": 0.007,
      "midi": 51,
      "noteNumber": 51,
      "velocity": 0.69,
      "track": "(unnamed)",
      "channel": 9,
      "lane": "F"
    },
    {
      "time": 326.227,
      "duration": 0.273,
      "midi": 46,
      "noteNumber": 46,
      "velocity": 0.51,
      "track": "(unnamed)",
      "channel": 1,
      "lane": "F"
    },
    {
      "time": 326.467,
      "duration": 0.007,
      "midi": 51,
      "noteNumber": 51,
      "velocity": 0.54,
      "track": "(unnamed)",
      "channel": 9,
      "lane": "F"
    },
    {
      "time": 326.586,
      "duration": 0.12,
      "midi": 53,
      "noteNumber": 53,
      "velocity": 0.57,
      "track": "(unnamed)",
      "channel": 2,
      "lane": "F"
    },
    {
      "time": 326.586,
      "duration": 0.12,
      "midi": 56,
      "noteNumber": 56,
      "velocity": 0.74,
      "track": "(unnamed)",
      "channel": 2,
      "lane": "J"
    },
    {
      "time": 326.586,
      "duration": 0.124,
      "midi": 61,
      "noteNumber": 61,
      "velocity": 0.71,
      "track": "(unnamed)",
      "channel": 2,
      "lane": "J"
    },
    {
      "time": 326.586,
      "duration": 0.007,
      "midi": 51,
      "noteNumber": 51,
      "velocity": 0.83,
      "track": "(unnamed)",
      "channel": 9,
      "lane": "F"
    },
    {
      "time": 326.586,
      "duration": 0.213,
      "midi": 46,
      "noteNumber": 46,
      "velocity": 0.51,
      "track": "(unnamed)",
      "channel": 1,
      "lane": "F"
    },
    {
      "time": 326.706,
      "duration": 0.007,
      "midi": 40,
      "noteNumber": 40,
      "velocity": 0.26,
      "track": "(unnamed)",
      "channel": 9,
      "lane": "D"
    },
    {
      "time": 326.826,
      "duration": 0.007,
      "midi": 40,
      "noteNumber": 40,
      "velocity": 0.5,
      "track": "(unnamed)",
      "channel": 9,
      "lane": "D"
    },
    {
      "time": 326.946,
      "duration": 0.161,
      "midi": 39,
      "noteNumber": 39,
      "velocity": 0.6,
      "track": "(unnamed)",
      "channel": 2,
      "lane": "D"
    },
    {
      "time": 326.946,
      "duration": 0.007,
      "midi": 35,
      "noteNumber": 35,
      "velocity": 0.74,
      "track": "(unnamed)",
      "channel": 9,
      "lane": "D"
    },
    {
      "time": 326.946,
      "duration": 0.007,
      "midi": 51,
      "noteNumber": 51,
      "velocity": 0.72,
      "track": "(unnamed)",
      "channel": 9,
      "lane": "F"
    },
    {
      "time": 326.946,
      "duration": 0.876,
      "midi": 39,
      "noteNumber": 39,
      "velocity": 0.66,
      "track": "(unnamed)",
      "channel": 1,
      "lane": "D"
    },
    {
      "time": 327.174,
      "duration": 0.056,
      "midi": 54,
      "noteNumber": 54,
      "velocity": 0.71,
      "track": "(unnamed)",
      "channel": 2,
      "lane": "J"
    },
    {
      "time": 327.174,
      "duration": 0.03,
      "midi": 58,
      "noteNumber": 58,
      "velocity": 0.54,
      "track": "(unnamed)",
      "channel": 2,
      "lane": "J"
    },
    {
      "time": 327.174,
      "duration": 0.06,
      "midi": 63,
      "noteNumber": 63,
      "velocity": 0.68,
      "track": "(unnamed)",
      "channel": 2,
      "lane": "J"
    },
    {
      "time": 327.305,
      "duration": 0.007,
      "midi": 51,
      "noteNumber": 51,
      "velocity": 0.72,
      "track": "(unnamed)",
      "channel": 9,
      "lane": "F"
    },
    {
      "time": 327.533,
      "duration": 0.112,
      "midi": 39,
      "noteNumber": 39,
      "velocity": 0.74,
      "track": "(unnamed)",
      "channel": 2,
      "lane": "D"
    },
    {
      "time": 327.545,
      "duration": 0.007,
      "midi": 40,
      "noteNumber": 40,
      "velocity": 0.53,
      "track": "(unnamed)",
      "channel": 9,
      "lane": "D"
    },
    {
      "time": 327.664,
      "duration": 0.086,
      "midi": 54,
      "noteNumber": 54,
      "velocity": 0.71,
      "track": "(unnamed)",
      "channel": 2,
      "lane": "J"
    },
    {
      "time": 327.664,
      "duration": 0.041,
      "midi": 58,
      "noteNumber": 58,
      "velocity": 0.68,
      "track": "(unnamed)",
      "channel": 2,
      "lane": "J"
    },
    {
      "time": 327.664,
      "duration": 0.049,
      "midi": 63,
      "noteNumber": 63,
      "velocity": 0.54,
      "track": "(unnamed)",
      "channel": 2,
      "lane": "J"
    },
    {
      "time": 327.664,
      "duration": 0.007,
      "midi": 51,
      "noteNumber": 51,
      "velocity": 0.72,
      "track": "(unnamed)",
      "channel": 9,
      "lane": "F"
    },
    {
      "time": 327.904,
      "duration": 0.007,
      "midi": 51,
      "noteNumber": 51,
      "velocity": 0.61,
      "track": "(unnamed)",
      "channel": 9,
      "lane": "F"
    },
    {
      "time": 328.024,
      "duration": 0.52,
      "midi": 46,
      "noteNumber": 46,
      "velocity": 0.71,
      "track": "(unnamed)",
      "channel": 2,
      "lane": "F"
    },
    {
      "time": 328.024,
      "duration": 0.007,
      "midi": 40,
      "noteNumber": 40,
      "velocity": 0.53,
      "track": "(unnamed)",
      "channel": 9,
      "lane": "D"
    },
    {
      "time": 328.024,
      "duration": 0.007,
      "midi": 51,
      "noteNumber": 51,
      "velocity": 0.69,
      "track": "(unnamed)",
      "channel": 9,
      "lane": "F"
    },
    {
      "time": 328.024,
      "duration": 0.273,
      "midi": 46,
      "noteNumber": 46,
      "velocity": 0.51,
      "track": "(unnamed)",
      "channel": 1,
      "lane": "F"
    },
    {
      "time": 328.263,
      "duration": 0.007,
      "midi": 51,
      "noteNumber": 51,
      "velocity": 0.54,
      "track": "(unnamed)",
      "channel": 9,
      "lane": "F"
    },
    {
      "time": 328.383,
      "duration": 0.12,
      "midi": 53,
      "noteNumber": 53,
      "velocity": 0.57,
      "track": "(unnamed)",
      "channel": 2,
      "lane": "F"
    },
    {
      "time": 328.383,
      "duration": 0.12,
      "midi": 56,
      "noteNumber": 56,
      "velocity": 0.74,
      "track": "(unnamed)",
      "channel": 2,
      "lane": "J"
    },
    {
      "time": 328.383,
      "duration": 0.124,
      "midi": 61,
      "noteNumber": 61,
      "velocity": 0.71,
      "track": "(unnamed)",
      "channel": 2,
      "lane": "J"
    },
    {
      "time": 328.383,
      "duration": 0.007,
      "midi": 51,
      "noteNumber": 51,
      "velocity": 0.83,
      "track": "(unnamed)",
      "channel": 9,
      "lane": "F"
    },
    {
      "time": 328.383,
      "duration": 0.213,
      "midi": 46,
      "noteNumber": 46,
      "velocity": 0.51,
      "track": "(unnamed)",
      "channel": 1,
      "lane": "F"
    },
    {
      "time": 328.503,
      "duration": 0.007,
      "midi": 40,
      "noteNumber": 40,
      "velocity": 0.26,
      "track": "(unnamed)",
      "channel": 9,
      "lane": "D"
    },
    {
      "time": 328.622,
      "duration": 0.007,
      "midi": 40,
      "noteNumber": 40,
      "velocity": 0.5,
      "track": "(unnamed)",
      "channel": 9,
      "lane": "D"
    },
    {
      "time": 328.742,
      "duration": 3.591,
      "midi": 39,
      "noteNumber": 39,
      "velocity": 0.44,
      "track": "(unnamed)",
      "channel": 2,
      "lane": "D"
    },
    {
      "time": 328.742,
      "duration": 3.542,
      "midi": 54,
      "noteNumber": 54,
      "velocity": 0.36,
      "track": "(unnamed)",
      "channel": 2,
      "lane": "J"
    },
    {
      "time": 328.742,
      "duration": 3.554,
      "midi": 58,
      "noteNumber": 58,
      "velocity": 0.47,
      "track": "(unnamed)",
      "channel": 2,
      "lane": "J"
    },
    {
      "time": 328.742,
      "duration": 3.565,
      "midi": 63,
      "noteNumber": 63,
      "velocity": 0.47,
      "track": "(unnamed)",
      "channel": 2,
      "lane": "J"
    },
    {
      "time": 328.742,
      "duration": 3.591,
      "midi": 39,
      "noteNumber": 39,
      "velocity": 0.53,
      "track": "(unnamed)",
      "channel": 1,
      "lane": "D"
    },
    {
      "time": 328.772,
      "duration": 0.007,
      "midi": 35,
      "noteNumber": 35,
      "velocity": 0.81,
      "track": "(unnamed)",
      "channel": 9,
      "lane": "D"
    },
    {
      "time": 328.772,
      "duration": 0.007,
      "midi": 59,
      "noteNumber": 59,
      "velocity": 0.71,
      "track": "(unnamed)",
      "channel": 9,
      "lane": "J"
    }
  ]
}